<svg xmlns="http://www.w3.org/2000/svg" viewBox="0 0 393.77 383"><defs><style>.cls-1{fill:#aeb1b3;}.cls-2{fill:#322920;}.cls-3{fill:#524a42;}.cls-4{fill:#fb8d00;}.cls-5{fill:#1f150b;}.cls-6{fill:#464f56;}.cls-7{fill:#f41d00;}.cls-8{fill:#fb4500;}.cls-9{fill:#616567;}.cls-10{fill:#1d1309;}.cls-11{fill:#d5d8da;}.cls-12{fill:#3b4042;}.cls-13{fill:#222729;}.cls-14{fill:#2d3133;}.cls-15{fill:#434749;}.cls-16{fill:#5a656c;}.cls-17{fill:#7d868c;}.cls-18{fill:#fbc900;}.cls-19{fill:#7f8385;}.cls-20{fill:#989da1;}.cls-21{fill:#342c24;}.cls-22{fill:#484038;}.cls-23{fill:#c7c9ca;}.cls-24{fill:#888b8d;}.cls-25{fill:#b8bdc0;}.cls-26{fill:#2d241b;}.cls-27{fill:#606569;}.cls-28{fill:#a0a1a1;}.cls-29{fill:#dadbdb;}.cls-30{fill:#313639;}</style></defs><g id="Layer_2" data-name="Layer 2"><g id="Layer_1-2" data-name="Layer 1"><path class="cls-1" d="M328.35,66.54s-14.27,24.67-13.22,52c.47,12.32.4,40.55.4,40.55l-7.44-8.68s-2.32-32-2-38.93,12-41.41,12-41.41Z"/><path class="cls-2" d="M365.89,47.5a2.48,2.48,0,0,1-1.37,2.27c-.14,0-27.71,15.43-27.86,15.45-.59.07.59-1.21-.13-1.71a8.06,8.06,0,0,1-3.06-6.58c.09-.94-2-.43-1.48-.82.1-.09,28.18-15.63,28.3-15.68a2.56,2.56,0,0,1,2.54.49A8,8,0,0,1,365.89,47.5Z"/><path class="cls-3" d="M337.76,63.08c-.21,2.3-1.91,3.07-3.81,1.74a8,8,0,0,1-3.06-6.58c.21-2.3,1.91-3.07,3.81-1.74A8,8,0,0,1,337.76,63.08Z"/><path class="cls-2" d="M342.52,63.45c-.18,2-1.06,3.37-2.32,3.85-.23.09-4,2.35-4.3,2.38-1,.12,1-2-.22-2.89a13.6,13.6,0,0,1-5.18-11.14c.15-1.6-3.36-.74-2.52-1.4.19-.14,4.85-2.67,5.06-2.77,1.17-.53,2.69-.3,4.3.84A13.58,13.58,0,0,1,342.52,63.45Z"/><path class="cls-3" d="M337.76,66.06c-.35,3.89-3.24,5.21-6.45,2.94a13.56,13.56,0,0,1-5.18-11.13c.35-3.89,3.24-5.21,6.45-2.95A13.58,13.58,0,0,1,337.76,66.06Z"/><path class="cls-4" d="M58,23.88c0,1.89.7,3.19,1.82,3.74.21.11,3.21,2.12,3.45,2.17.92.19-.76-2,.44-2.66a12.59,12.59,0,0,0,5.71-9.84c0-1.49,3.16-.4,2.44-1.08-.16-.15-3.93-2.48-4.11-2.59-1-.59-2.46-.5-4,.41A12.59,12.59,0,0,0,58,23.88Z"/><path class="cls-5" d="M61.8,26.29c0,3.62,2.56,5.07,5.71,3.25a12.59,12.59,0,0,0,5.71-9.84c0-3.62-2.56-5.08-5.71-3.26A12.59,12.59,0,0,0,61.8,26.29Z"/><path class="cls-2" d="M62.93,26.13c0,3.35,2.36,4.69,5.27,3A11.61,11.61,0,0,0,73.48,20c0-3.34-2.36-4.69-5.28-3A11.63,11.63,0,0,0,62.93,26.13Z"/><polygon class="cls-6" points="27.97 27.6 39.63 20.78 60.45 43.57 68.52 29.57 44.49 5.71 17.62 23.41 27.97 27.6"/><polygon class="cls-7" points="16.78 27.6 4.34 38.14 12.19 63.49 23.56 70.42 30.9 43.39 16.78 27.6"/><path class="cls-2" d="M311.3,166.27c0,2.82,1,4.76,2.71,5.57.31.16,4.78,3.15,5.13,3.22,1.37.29-1.12-2.92.65-3.95,4.7-2.71,8.5-9.27,8.5-14.65,0-2.21,4.72-.6,3.63-1.61-.23-.22-5.84-3.69-6.11-3.85-1.54-.87-3.67-.74-6,.62C315.1,154.32,311.3,160.89,311.3,166.27Z"/><ellipse class="cls-8" cx="325.53" cy="164.95" rx="11.98" ry="6.92" transform="translate(18.83 362.73) rotate(-59.69)"/><path class="cls-8" d="M318.71,169.62c0,5,3.52,7,7.85,4.48s7.86-8.57,7.86-13.54-3.52-7-7.86-4.48S318.71,164.65,318.71,169.62Z"/><path class="cls-4" d="M319.83,168.72c0,4.15,2.92,5.81,6.53,3.73a14.39,14.39,0,0,0,6.53-11.27c0-4.14-2.92-5.81-6.53-3.73A14.4,14.4,0,0,0,319.83,168.72Z"/><polygon class="cls-2" points="323.45 183.1 315.53 183.42 338.84 246.5 346.76 246.18 323.45 183.1"/><polygon class="cls-1" points="344.26 235.82 333.72 236.25 337.53 246.56 348.07 246.12 344.26 235.82"/><polygon class="cls-9" points="325.9 183 321 188.46 314.37 186.9 285.86 112.02 298.67 111.5 325.9 183"/><polygon class="cls-10" points="318.71 184.68 289.53 199.59 283.99 199.59 267.55 160.17 264.65 152.01 270.8 145.69 297.74 129.91 315.53 159.13 318.71 184.68"/><polygon class="cls-11" points="12.19 19.38 45.57 0 70.52 27.1 65.72 31.48 44.9 8.63 22.9 21.63 111.92 88.61 174.36 122.39 182.56 148.69 169.91 155.38 137.83 139.59 19.92 33.22 12.19 19.38"/><path class="cls-2" d="M121,39.86s27.72,25.58,32.12,29.44,31.82,15.9,33.44,18.62-6.19,20.61-8.54,20.33-28.21,17-28.21,17S53.31,28.93,52.15,24.93,71.36,14.58,72,13.83,86.93,20.52,121,39.86Z"/><polygon class="cls-9" points="184.98 184.68 221.79 206.92 230.01 222.86 225.38 253 179.84 226.71 176.93 213.44 174.36 198.4 184.98 184.68"/><polygon class="cls-11" points="214.36 256.06 170.86 230.94 173.06 227.13 214.73 251.19 239.09 241.66 264.71 200.59 245.12 182.59 248.1 179.35 270.38 199.82 242.06 245.23 214.36 256.06"/><polygon class="cls-12" points="239.08 161.96 214.54 209.35 230.01 238.45 264.65 191.39 257.57 166.34 239.08 161.96"/><polygon class="cls-12" points="211.26 167.84 224.01 202.5 205.01 205.09 196.96 197.27 187.38 166.42 211.26 167.84"/><path class="cls-13" d="M77.73,93C47,75.23,22,89.46,22,124.76S47,203.07,77.73,220.84s55.7,3.53,55.7-31.76S108.5,110.76,77.73,93Zm0,102.43c-18.53-10.7-33.56-36.62-33.56-57.89s15-29.83,33.56-19.13,33.56,36.61,33.56,57.88S96.26,206.13,77.73,195.43Z"/><path class="cls-1" d="M63.57,162.15l-20.71-23-5.48.48,4.72-16.52,11.32-1.52s-2.05,4-1.13,6.53S61,145.72,61,145.72,61,157.25,63.57,162.15Z"/><path class="cls-1" d="M72.19,145.49l19.75-1.78.52-6.94,11.06,21.83-.71,14.85s-2.53-6.35-4.49-7.75-14-7.07-14-7.07S76.09,147.28,72.19,145.49Z"/><path class="cls-1" d="M83.17,171.43,83,197.56l5.17,7.18L71,197.88,59.88,183s5,2.85,6.16,1.75,6.35-10.66,6.35-10.66S81.53,174.58,83.17,171.43Z"/><path class="cls-13" d="M69.15,97.21C38.38,79.45,13.45,93.67,13.45,129s24.93,78.31,55.7,96.08,55.7,3.53,55.7-31.76S99.91,115,69.15,97.21Zm0,102.43C50.61,188.94,35.59,163,35.59,141.76s15-29.84,33.56-19.14,33.56,36.61,33.56,57.88S87.68,210.34,69.15,199.64Z"/><path class="cls-14" d="M69.15,104.06c-27.47-15.86-49.74-3.17-49.74,28.36s22.27,69.92,49.74,85.77,49.73,3.17,49.73-28.35S96.62,119.92,69.15,104.06Zm0,95.58C50.61,188.94,35.59,163,35.59,141.76s15-29.84,33.56-19.14,33.56,36.61,33.56,57.88S87.68,210.34,69.15,199.64Z"/><path class="cls-15" d="M69.15,110.31c-24.46-14.12-44.29-2.82-44.29,25.25s19.83,62.27,44.29,76.38,44.29,2.82,44.29-25.24S93.61,124.43,69.15,110.31Zm0,89.33C50.61,188.94,35.59,163,35.59,141.76s15-29.84,33.56-19.14,33.56,36.61,33.56,57.88S87.68,210.34,69.15,199.64Z"/><path class="cls-1" d="M69.15,115.28c-22.07-12.74-39.95-2.54-39.95,22.79s17.88,56.16,40,68.9,39.95,2.54,39.95-22.78S91.21,128,69.15,115.28Zm0,84.36C50.61,188.94,35.59,163,35.59,141.76s15-29.84,33.56-19.14,33.56,36.61,33.56,57.88S87.68,210.34,69.15,199.64Z"/><path class="cls-9" d="M92.72,174.74c0,14.94-10.55,20.95-23.57,13.44s-23.58-25.72-23.58-40.66,10.56-21,23.58-13.44S92.72,159.8,92.72,174.74Z"/><path class="cls-11" d="M84.67,170.09c0,9.84-7,13.8-15.52,8.85S53.62,162,53.62,152.16s7-13.8,15.53-8.85S84.67,160.25,84.67,170.09Z"/><path class="cls-16" d="M79,163.19c0,2.78-1,4.7-2.67,5.5a19.82,19.82,0,0,1-2,1.19c-1.34.28,1.11-2.88-.64-3.89-4.63-2.67-8.39-9.15-8.39-14.46,0-2.18-4.65-.59-3.58-1.59.23-.21,2.67-1.65,2.94-1.81,1.52-.86,3.61-.73,5.93.61C75.25,151.41,79,157.88,79,163.19Z"/><path class="cls-17" d="M76.44,164.75c0,5.31-3.75,7.45-8.38,4.78s-8.38-9.15-8.38-14.46,3.75-7.45,8.38-4.78S76.44,159.44,76.44,164.75Z"/><path class="cls-16" d="M74.79,164.52c0,4.91-3.47,6.89-7.75,4.42s-7.75-8.46-7.75-13.37,3.47-6.89,7.75-4.42S74.79,159.61,74.79,164.52Z"/><polygon class="cls-11" points="214.54 249.28 154.88 214.84 157.09 211.03 212.94 243.28 224.28 223.81 222.59 202.3 181.92 174.97 184.38 171.32 226.81 199.83 228.77 224.83 214.54 249.28"/><path class="cls-18" d="M222.21,88.94s13.4-2.07,35.14,8.29,19.38,13.29,25.55,27.67-15.34,31.89-31.07,30.68-23.83-4.35-30.63-7.66-70.4-21.56-60.76-33.06C181.63,89.56,222.21,88.94,222.21,88.94Z"/><path class="cls-4" d="M195.77,103.08s4.5-2.75,26.24,7.61,28.28,14,34.45,28.35-.42,23.41-16.16,22.2-38.75,4.13-45.55.82-41.91-28.11-37.28-42.4S195.77,103.08,195.77,103.08Z"/><polygon class="cls-11" points="271.66 147.68 273.78 167.58 231.08 186.95 171.96 179.53 170.14 205.45 154.16 192.04 145.03 169.47 145.03 160.83 228.93 166.69 271.66 147.68"/><ellipse class="cls-12" cx="200.96" cy="209.56" rx="11.06" ry="19.15" transform="translate(-78.29 130.07) rotate(-30.31)"/><path class="cls-19" d="M211.26,216.44c0,7.05-5,9.88-11.12,6.34S189,210.65,189,203.61s5-9.88,11.11-6.34S211.26,209.4,211.26,216.44Z"/><path class="cls-9" d="M203.3,212.79c0,2.53-1.79,3.54-4,2.27a8.76,8.76,0,0,1-4-6.86c0-2.52,1.78-3.54,4-2.27A8.79,8.79,0,0,1,203.3,212.79Z"/><path class="cls-11" d="M176.77,228.66l-2.41,4.88-32.1-11.65-17.8-27.17-118-68.9a8.73,8.73,0,0,1-2.35-2.18l-2.64-3.85A8.41,8.41,0,0,1,0,115.42a8.2,8.2,0,0,1,4.14-7.69,7.37,7.37,0,0,1,3.79-1,7.24,7.24,0,0,1,3.9,1.09l115.36,70,23.72,35,23.43,5.11Z"/><path class="cls-20" d="M176.77,228.66l-2.41,4.88-32.1-11.65-17.8-27.17-118-68.9a8.73,8.73,0,0,1-2.35-2.18l-2.64-3.85A8.41,8.41,0,0,1,0,115.42a52.23,52.23,0,0,0,15.22,11.43C25.29,132,129,195.64,129,195.64s13.78,23,16,24,25.44,10.45,26.88,11c-.35-.69-3-5.68-1.95-6.37s4.42-6.43,4.42-6.43Z"/><path class="cls-2" d="M98.45,59.72s22,22.73,26.41,26.59,31.83,15.9,33.45,18.62-6.19,20.61-8.54,20.33S92,75.67,92,75.67,53.22,50.6,52.05,46.6s-.57-20.93.1-21.67S64.41,40.37,98.45,59.72Z"/><path class="cls-5" d="M97.23,53.1s23.24,29.35,27.63,33.21,31.83,15.9,33.45,18.62-6.19,20.61-8.54,20.33S92,75.67,92,75.67,53.22,50.6,52.05,46.6s-.57-20.93.1-21.67S63.2,33.76,97.23,53.1Z"/><polygon class="cls-21" points="122.28 41.1 97.23 53.1 94.69 77.26 91.67 76.28 94.54 50.64 119.06 38.13 122.28 38.13 124.97 40.59 122.28 41.1"/><polygon class="cls-22" points="124.97 43.57 99.92 55.56 97.38 79.72 94.36 78.74 97.23 53.1 121.75 40.59 124.97 40.59 128.47 46.78 124.97 43.57"/><path class="cls-13" d="M338.07,243.3c-30.76-17.76-55.71-3.54-55.71,31.76s24.95,78.32,55.71,96.08,55.7,3.54,55.7-31.76S368.83,261.06,338.07,243.3Zm0,102.43c-18.54-10.7-33.56-36.61-33.56-57.88s15-29.84,33.56-19.13,33.56,36.61,33.56,57.88S356.6,356.43,338.07,345.73Z"/><path class="cls-23" d="M320.81,314.9l-18.24-20.27-4.83.43,4.16-14.55,10-1.33s-1.81,3.51-1,5.74,7.67,15.52,7.67,15.52S318.55,310.6,320.81,314.9Z"/><path class="cls-23" d="M334.61,298.74,352,297.18l.47-6.11,9.74,19.23-.63,13.07s-2.23-5.59-3.95-6.83-12.32-6.22-12.32-6.22S338.05,300.32,334.61,298.74Z"/><path class="cls-23" d="M338.06,323.08l-.13,23,4.56,6.33-15.17-6.05-9.76-13.09s4.36,2.51,5.42,1.54,5.59-9.39,5.59-9.39S336.62,325.85,338.06,323.08Z"/><path class="cls-13" d="M329.49,247.51c-30.77-17.76-55.71-3.54-55.71,31.76s24.94,78.32,55.71,96.08,55.7,3.54,55.7-31.75S360.24,265.27,329.49,247.51Zm0,102.44c-18.54-10.71-33.56-36.62-33.56-57.89s15-29.84,33.56-19.13S363,309.54,363,330.81,348,360.64,329.49,350Z"/><path class="cls-18" d="M368.15,248.11s-8.15,13.1-14,10.25S333.33,247,330.85,246.28s-13.78-9.32-20.16-5.82-19.09,7.14-19.09,7.14l-15.79-7.68s14.72-27.71,42-24C346.29,219.77,368.15,248.11,368.15,248.11Z"/><path class="cls-4" d="M354.14,258.36s-2.6,1.47-8.46-1.38-16.15-7.53-18.63-8.26-24-1.52-30.37,2-19.09,7.14-19.09,7.14L269.64,254s6.88-31.53,34.18-27.83C332.28,230,354.14,258.36,354.14,258.36Z"/><path class="cls-14" d="M329.49,254.37c-27.47-15.86-49.74-3.17-49.74,28.35S302,352.64,329.49,368.5s49.72,3.16,49.72-28.35S357,270.22,329.49,254.37Zm0,95.58c-18.54-10.71-33.56-36.62-33.56-57.89s15-29.84,33.56-19.13S363,309.54,363,330.81,348,360.64,329.49,350Z"/><path class="cls-15" d="M329.49,260.61c-24.47-14.12-44.29-2.82-44.29,25.26s19.82,62.26,44.29,76.38,44.28,2.82,44.28-25.25S353.94,274.73,329.49,260.61Zm0,89.34c-18.54-10.71-33.56-36.62-33.56-57.89s15-29.84,33.56-19.13S363,309.54,363,330.81,348,360.64,329.49,350Z"/><path class="cls-1" d="M329.49,265.59c-22.07-12.74-40-2.54-40,22.78s17.89,56.17,40,68.91,39.94,2.53,39.94-22.78S351.55,278.32,329.49,265.59Zm0,84.36c-18.54-10.71-33.56-36.62-33.56-57.89s15-29.84,33.56-19.13S363,309.54,363,330.81,348,360.64,329.49,350Z"/><path class="cls-24" d="M356.42,323.07c0,14.94-10.55,21-23.57,13.44s-23.57-25.72-23.57-40.66,10.55-21,23.57-13.44S356.42,308.13,356.42,323.07Z"/><path class="cls-9" d="M353.06,325c0,14.94-10.56,21-23.58,13.44s-23.57-25.72-23.57-40.66,10.55-21,23.57-13.44S353.06,310.1,353.06,325Z"/><path class="cls-25" d="M345,320.39c0,9.84-6.95,13.8-15.53,8.85S314,312.31,314,302.47s7-13.8,15.52-8.85S345,310.56,345,320.39Z"/><polygon class="cls-20" points="151.07 129.74 124.85 112.51 48.18 46.15 12.19 19.38 14.39 35.97 84.99 98.47 132.7 160.17 146.28 156.21 169.91 155.38 166.48 145.79 151.07 129.74"/><polygon class="cls-20" points="147.31 167.75 135.66 164.07 109.1 145.69 106.9 153.45 110.5 162.09 141.66 187.44 148.34 198.11 157.41 203.34 147.31 167.75"/><polygon class="cls-11" points="272.87 169.41 221.68 219.23 220.67 229.38 227.67 229.38 271.95 186.96 279.75 172.07 275.81 164.37 272.87 169.41"/><polygon class="cls-11" points="272.87 169.41 258.36 202.4 257.35 212.55 264.35 212.55 271.95 186.96 279.75 172.07 275.81 164.37 272.87 169.41"/><path class="cls-26" d="M34.82,53s34.67,83.8,37.33,88.75,8.42,0,14.32-2c6.71-2.28,10.14-47.9,10.14-47.9Z"/><path class="cls-2" d="M98.25,76.37s4.16,8,1.86,16.79-4,18.54-15.91,12.31S38.51,67.92,35.29,62.71,23.82,44.08,23.56,42.88s11.16-7.72,19.74-3.12S96.49,71.36,98.25,76.37Z"/><path class="cls-22" d="M22.42,56.66S25,106.45,27.68,111.4s39.6,30,46.39,32S84.2,95.51,84.2,95.51Z"/><path class="cls-3" d="M85.85,80S90,88,87.71,96.79s-3.19,11.55-15.13,5.31S26.11,71.56,22.88,66.34s-1-17.22-1.22-18.42.65-9.13,9.24-4.53S84.09,75,85.85,80Z"/><polygon class="cls-2" points="291.82 192.22 283.9 192.54 307.2 255.62 315.13 255.3 291.82 192.22"/><polygon class="cls-2" points="334.61 311.4 329.14 311.63 308.43 255.57 313.9 255.35 334.61 311.4"/><polygon class="cls-1" points="312.63 244.94 308.43 248.35 302.09 245.38 305.9 255.68 312.26 260.1 316.43 255.25 312.63 244.94"/><polygon class="cls-9" points="294.26 192.12 289.69 196.87 282.61 195.76 258.81 110.48 271.62 109.95 294.26 192.12"/><path class="cls-1" d="M272.28,156.56s-23.09-29.16-38.11-31,8.7-6.68,8.7-6.68,17.4-1.55,28.79,19.93C274,143.08,272.28,156.56,272.28,156.56Z"/><path class="cls-11" d="M335.18,64.44a2.45,2.45,0,0,1-1.37,2.27c-.14.06-107.36,62.47-107.51,62.49-.59.06.59-1.21-.13-1.71a8.06,8.06,0,0,1-3.06-6.58c.09-.94-2-.44-1.48-.83.1-.08,107.83-62.65,108-62.71a2.6,2.6,0,0,1,2.54.49A8,8,0,0,1,335.18,64.44Z"/><path class="cls-3" d="M227.4,127.06c-.21,2.29-1.91,3.07-3.81,1.74a8,8,0,0,1-3.06-6.58c.21-2.3,1.91-3.08,3.81-1.74A8,8,0,0,1,227.4,127.06Z"/><path class="cls-16" d="M337.43,316.6c0,2.78-1,4.7-2.67,5.5a19.82,19.82,0,0,1-2,1.19c-1.34.28,1.11-2.88-.64-3.89-4.63-2.68-8.38-9.15-8.38-14.46,0-2.18-4.66-.59-3.59-1.59.23-.21,2.67-1.65,2.94-1.81,1.52-.86,3.61-.73,5.93.6C333.68,304.82,337.43,311.29,337.43,316.6Z"/><path class="cls-17" d="M334.88,318.16c0,5.31-3.76,7.45-8.39,4.78s-8.38-9.15-8.38-14.46,3.75-7.45,8.38-4.78S334.88,312.84,334.88,318.16Z"/><path class="cls-16" d="M333.22,317.93c0,4.91-3.47,6.89-7.75,4.42s-7.75-8.46-7.75-13.37,3.47-6.89,7.75-4.42S333.22,313,333.22,317.93Z"/><path class="cls-1" d="M286.7,177.16c.74.36,7.15,4.78,8,5,3.22.67-2.67-6.91,1.54-9.34,11.11-6.42,20.12-22,20.12-34.7,0-5.24,11.16-1.42,8.6-3.81a45.68,45.68,0,0,0-4.1-2.67c-3.64-2.08-31.23-10.18-37.9.74C270.57,152.61,282.76,175.23,286.7,177.16Z"/><path class="cls-27" d="M289.69,169.79c0,12.75,9,17.88,20.11,11.47s20.12-21.95,20.12-34.7-9-17.88-20.12-11.47S289.69,157,289.69,169.79Z"/><ellipse class="cls-27" cx="312.26" cy="158.5" rx="26.22" ry="15.14" transform="translate(17.83 348.08) rotate(-59.69)"/><path class="cls-28" d="M295.83,168.06c0,9.81,6.92,13.76,15.47,8.83S326.77,160,326.77,150.2s-6.93-13.76-15.47-8.82S295.83,158.26,295.83,168.06Z"/><path class="cls-29" d="M300,159.12c0,3.9,2.75,5.47,6.14,3.51a13.54,13.54,0,0,0,6.15-10.6c0-3.9-2.75-5.47-6.15-3.51A13.55,13.55,0,0,0,300,159.12Z"/><path class="cls-8" d="M270.8,193.59c0,2.82,1.05,4.76,2.71,5.58.31.15,4.78,3.14,5.14,3.21,1.36.29-1.13-2.92.65-3.94,4.69-2.71,8.5-9.27,8.5-14.66,0-2.21,4.71-.59,3.63-1.61-.23-.21-5.84-3.69-6.12-3.84-1.54-.88-3.66-.75-6,.61C274.61,181.65,270.8,188.21,270.8,193.59Z"/><path class="cls-2" d="M275.45,200.41c-1.67-.82-2.71-2.76-2.71-5.58,0-5.38,3.8-11.94,8.5-14.65,2.35-1.36,4.47-1.49,6-.61.16.09,2.28,1.4,4,2.47-.92-.63-5.67-3.57-5.92-3.71-1.54-.88-3.66-.75-6,.61-4.69,2.71-8.5,9.27-8.5,14.65,0,2.82,1.05,4.76,2.71,5.58.23.11,2.62,1.7,4.07,2.6C276.53,201.09,275.59,200.47,275.45,200.41Z"/><path class="cls-8" d="M276.54,197.18c0,5.38,3.8,7.55,8.49,4.84s8.5-9.27,8.5-14.65-3.81-7.55-8.5-4.84S276.54,191.8,276.54,197.18Z"/><path class="cls-8" d="M278.21,197c0,5,3.52,7,7.86,4.48s7.85-8.57,7.85-13.55-3.51-7-7.85-4.48S278.21,192,278.21,197Z"/><path class="cls-4" d="M279.33,196.05c0,4.14,2.93,5.81,6.54,3.72a14.41,14.41,0,0,0,6.53-11.27c0-4.14-2.93-5.81-6.53-3.72A14.4,14.4,0,0,0,279.33,196.05Z"/><path class="cls-4" d="M3.36,63.13c0,1.9.7,3.2,1.82,3.75C5.39,67,8.39,69,8.63,69c.91.19-.76-2,.44-2.65a12.59,12.59,0,0,0,5.71-9.85c0-1.48,3.16-.4,2.44-1.08-.16-.15-3.93-2.48-4.11-2.58-1-.59-2.46-.5-4,.41A12.59,12.59,0,0,0,3.36,63.13Z"/><path class="cls-5" d="M7.21,65.54c0,3.62,2.56,5.08,5.71,3.26A12.59,12.59,0,0,0,18.63,59c0-3.62-2.56-5.07-5.71-3.25A12.59,12.59,0,0,0,7.21,65.54Z"/><path class="cls-2" d="M8.34,65.39c0,3.34,2.36,4.69,5.27,3a11.6,11.6,0,0,0,5.28-9.1c0-3.34-2.36-4.69-5.28-3A11.62,11.62,0,0,0,8.34,65.39Z"/><path class="cls-20" d="M49.4,99.05h0c2.83,1.63,5.42.61,5.75-2.27l.94-8.07c.33-2.88-1.71-6.58-4.54-8.21h0c-2.83-1.64-5.42-.61-5.76,2.27l-.93,8.06C44.52,93.72,46.57,97.41,49.4,99.05Z"/><path class="cls-11" d="M48.23,97.15h0c2.32,1.33,4.44.5,4.71-1.86l.77-6.6C54,86.33,52.31,83.31,50,82h0c-2.31-1.34-4.43-.5-4.71,1.86l-.76,6.6C44.24,92.78,45.91,95.81,48.23,97.15Z"/><path class="cls-2" d="M314.34,119.81c2.55-2.21,3.45-4.49,2.82-6.35-.12-.34-3.48-17-3.7-17.33-.86-1.21-1.72,3.11-4.1,2.63-6.31-1.27-15.36,1.14-20.23,5.37-2,1.74-4.41-2.95-4.44-1.37,0,.35,3.86,18.23,3.94,18.55.47,1.81,2.33,3.24,5.49,3.88C300.42,126.46,309.48,124.05,314.34,119.81Z"/><path class="cls-3" d="M310.49,101.75c4.87-4.23,3.7-8.7-2.6-10s-15.36,1.14-20.22,5.37-3.71,8.71,2.59,10S305.62,106,310.49,101.75Z"/><path class="cls-2" d="M308.9,100.72c4.5-3.92,3.42-8-2.4-9.22s-14.2,1-18.7,5-3.42,8,2.4,9.22S304.4,104.64,308.9,100.72Z"/><path class="cls-30" d="M309.28,97.78a7.58,7.58,0,0,1-2.12,2.87,20.66,20.66,0,0,1-15.56,4.07,6.05,6.05,0,0,1-3.39-1.6c-1.55-1.55-1.15-3.79,1.38-6,3.79-3.28,10.74-5.11,15.56-4.14C308.59,93.64,310,95.54,309.28,97.78Z"/><path class="cls-2" d="M288.49,131.59c2.55-2.22,3.45-4.5,2.82-6.35-.12-.35-3.47-17-3.7-17.34-.86-1.21-1.72,3.11-4.1,2.63-6.31-1.27-15.36,1.14-20.23,5.38-2,1.74-4.41-3-4.44-1.37,0,.34,3.86,18.22,3.94,18.54.47,1.81,2.34,3.25,5.49,3.88C274.57,138.23,283.63,135.83,288.49,131.59Z"/><path class="cls-3" d="M284.64,113.53c4.87-4.24,3.71-8.71-2.6-10s-15.35,1.14-20.22,5.38-3.71,8.7,2.6,10S279.77,117.76,284.64,113.53Z"/><path class="cls-2" d="M283.05,112.49c4.5-3.91,3.43-8-2.4-9.22s-14.2,1-18.7,5-3.42,8,2.41,9.22S278.55,116.41,283.05,112.49Z"/><path class="cls-30" d="M283.39,109.6a6.73,6.73,0,0,1-2.07,2.82c-3.73,3.21-10.68,5.11-15.56,4.13a6.49,6.49,0,0,1-3.39-1.66c-1.55-1.55-1.15-3.85,1.38-6,3.79-3.27,10.74-5.11,15.56-4.14C282.75,105.41,284.25,107.37,283.39,109.6Z"/><path class="cls-9" d="M309.28,97.78a7.58,7.58,0,0,1-2.12,2.87,20.66,20.66,0,0,1-15.56,4.07,6.05,6.05,0,0,1-3.39-1.6,6.73,6.73,0,0,1,2.07-2.82C294,97,301,95.19,305.84,96.17A6.36,6.36,0,0,1,309.28,97.78Z"/><path class="cls-9" d="M283.39,109.6a6.73,6.73,0,0,1-2.07,2.82c-3.73,3.21-10.68,5.11-15.56,4.13a6.49,6.49,0,0,1-3.39-1.66,6.73,6.73,0,0,1,2.07-2.82c3.73-3.27,10.73-5.11,15.56-4.13A6.49,6.49,0,0,1,283.39,109.6Z"/><path class="cls-2" d="M236,126.18c-.19,2-1.07,3.37-2.32,3.85-.24.09-4,2.35-4.31,2.38-1,.11,1-2-.21-2.9A13.56,13.56,0,0,1,224,118.38c.14-1.6-3.37-.74-2.52-1.4.18-.14,4.85-2.67,5.05-2.77,1.17-.53,2.7-.3,4.31.83A13.6,13.6,0,0,1,236,126.18Z"/><path class="cls-3" d="M231.23,128.79c-.35,3.89-3.24,5.2-6.45,2.94a13.58,13.58,0,0,1-5.18-11.14c.35-3.88,3.24-5.2,6.45-2.94A13.58,13.58,0,0,1,231.23,128.79Z"/><path class="cls-2" d="M227.77,127.14a2.47,2.47,0,0,1-1.37,2.27c-.14.06-27.7,15.43-27.86,15.45-.59.07.59-1.2-.12-1.71a8,8,0,0,1-3.06-6.57c.08-1-2-.44-1.49-.83.11-.08,28.18-15.62,28.3-15.68a2.56,2.56,0,0,1,2.54.49A8,8,0,0,1,227.77,127.14Z"/><path class="cls-3" d="M199.64,142.72c-.2,2.3-1.91,3.08-3.81,1.74a8.05,8.05,0,0,1-3.06-6.58c.21-2.29,1.92-3.07,3.81-1.73A8,8,0,0,1,199.64,142.72Z"/></g></g></svg>