<svg xmlns="http://www.w3.org/2000/svg" viewBox="0 0 311.37 157.42"><defs><style>.cls-1{fill:#dce3e6;}.cls-2{fill:#94abb3;}.cls-3{fill:#e6eced;}.cls-4{fill:#fff;}</style></defs><g id="Layer_2" data-name="Layer 2"><g id="Layer_1-2" data-name="Layer 1"><path class="cls-1" d="M193.06,29.45c-11.85,2.47-25.7,18.75-36.65,21.61s-50.55,18.29-50.55,18.29l-45.42,4,13.61,42.89H191.84c4.14-10,23.32-56.53,26.29-67.75C225.28,21.52,210.88,25.74,193.06,29.45Z"/><polygon class="cls-2" points="222.9 45.63 204.41 93.53 199.93 96.55 196.94 89.08 216.87 35.86 222.9 45.63"/><path class="cls-2" d="M43.68,70.06a43.68,43.68,0,1,0,43.69,43.68A43.68,43.68,0,0,0,43.68,70.06Zm0,66.12a22.44,22.44,0,1,1,22.45-22.44A22.44,22.44,0,0,1,43.68,136.18Z"/><path class="cls-2" d="M267.69,70.06a43.68,43.68,0,1,0,43.68,43.68A43.69,43.69,0,0,0,267.69,70.06Zm0,66.12a22.44,22.44,0,1,1,22.44-22.44A22.44,22.44,0,0,1,267.69,136.18Z"/><path class="cls-2" d="M220.35,98.59s7-18.25,23.25-26.16C265,62,278.52,68.32,278.52,68.32s-.9,6.35-16,8.68c-14.65,2.26-19.27,7.71-31,19.16C228.89,98.81,220.35,98.59,220.35,98.59Z"/><path class="cls-3" d="M229.25,10.22S239.47,12,239.47,22.16,229,34.1,229,34.1Z"/><path class="cls-2" d="M228,7.27a2.23,2.23,0,0,0-2.21,2.22v1c-8.72,1.47-11.57,10.8-11.57,10.8s-1,12,11.57,12.74v.72a2.22,2.22,0,0,0,4.43,0V9.49A2.23,2.23,0,0,0,228,7.27Z"/><rect class="cls-1" x="119.12" y="104.46" width="70.87" height="22.71" rx="1.18"/><path class="cls-4" d="M165.68,114.49a5.57,5.57,0,1,1-5.56-5.57A5.56,5.56,0,0,1,165.68,114.49Z"/><path class="cls-4" d="M188.4,107.26A7.44,7.44,0,1,1,181,99.83,7.43,7.43,0,0,1,188.4,107.26Z"/><path class="cls-2" d="M52.5,59.37c-25.17-5.51-41.42,6.48-41.42,6.48a21.4,21.4,0,0,0,2.52,3.92c6.93,8.44,17,3.84,33.42,6.12C65.5,78.47,76.44,88.1,76.44,88.1l3.88-4.17,4.31-4.64S77.49,64.83,52.5,59.37Z"/><path class="cls-3" d="M111.71,61c9.53-1.42,12.73,10.91-2.21,14.4-4.24,1-19.91,2.28-27,1.65-10.49-.93-23.74-13-25.33-16s3.61-12.74,11.54-7.31S72.71,66.85,111.71,61Z"/><rect class="cls-1" x="33.77" y="93.7" width="48.05" height="7.15" rx="0.76" transform="translate(-52.62 72.54) rotate(-46.66)"/><path class="cls-2" d="M79.5,82.49A7.52,7.52,0,1,1,72,75,7.51,7.51,0,0,1,79.5,82.49Z"/><path class="cls-4" d="M97.48,84.32c13.23.23,21.34-.55,24.29,2,5.43,4.66.55,17.74-7.9,17.79-9,.06-19.06-4.73-24-9C83.2,89.38,85.86,84.11,97.48,84.32Z"/><path class="cls-2" d="M207.46,8.36a4.07,4.07,0,1,0-6.92,4.29l38.43,62,6.82-4.47Z"/><path class="cls-1" d="M270.39,117.56a4.32,4.32,0,0,0,1.39-5.93L246.16,70.21,239,74.94l25.5,41.23A4.31,4.31,0,0,0,270.39,117.56Z"/><path class="cls-2" d="M201.65,0a8.26,8.26,0,0,0-6.89,3.71H179.37a4.56,4.56,0,1,0,0,9.11h15.39A8.26,8.26,0,1,0,201.65,0Z"/><rect class="cls-1" x="218.03" y="40.61" width="17.61" height="10.58" rx="0.69" transform="translate(8.99 124.05) rotate(-31.17)"/><rect class="cls-1" x="235.33" y="67.07" width="13.42" height="8.2" rx="0.54" transform="translate(-1.89 135.57) rotate(-31.17)"/><path class="cls-3" d="M201.1,25.17s-3.51-11.74-21.45-5.25S149,35.66,139.21,41.7c-2.78,1.71-7.11,4-6.14,11.52,1.56,12.23,42.25,3.83,56.21,2.11C197.17,54.36,204.26,49.87,201.1,25.17Z"/><path class="cls-4" d="M161.71,91.38a2.16,2.16,0,0,0-.29-.9c0-.06-.1-.1-.14-.16L150.84,71.7l3.9-2.19-3.69-6.57s-4.42-1.78-10.3,1.52a3.06,3.06,0,0,0-.29.21,3,3,0,0,0-.33.14c-5.88,3.29-6.67,8-6.67,8l3.68,6.58,3.28-1.84,10.47,18.7a3.21,3.21,0,0,0,.12.33,2.26,2.26,0,0,0,3.09.81l6.52-3.81a2.21,2.21,0,0,0,1-1.48A1.88,1.88,0,0,0,161.71,91.38ZM157,90.45l-3.76,2.2-9.51-17,3.8-2.13Z"/><path class="cls-4" d="M193.66,64.81a3,3,0,0,0-.33-.14,3.06,3.06,0,0,0-.29-.21c-5.89-3.3-10.31-1.52-10.31-1.52l-3.68,6.57,3.89,2.19L172.51,90.32c0,.06-.11.1-.15.16a2.3,2.3,0,0,0-.28.9,1.88,1.88,0,0,0,0,.71,2.21,2.21,0,0,0,1,1.48l6.52,3.81a2.27,2.27,0,0,0,3.09-.81,3.21,3.21,0,0,0,.12-.33l10.47-18.7,3.28,1.84,3.68-6.58S199.54,68.1,193.66,64.81ZM180.55,92.65l-3.76-2.2,9.47-16.9,3.8,2.13Z"/><path class="cls-2" d="M180.4,78a13.51,13.51,0,1,1-13.51-13.5A13.51,13.51,0,0,1,180.4,78Z"/><path class="cls-4" d="M170.21,78a3.32,3.32,0,1,1-3.32-3.31A3.31,3.31,0,0,1,170.21,78Z"/><path class="cls-1" d="M154.23,135.52H106.16a6.35,6.35,0,0,1-6.34-6.34h0a6.35,6.35,0,0,1,6.34-6.34h48.07a6.35,6.35,0,0,1,6.34,6.34h0A6.35,6.35,0,0,1,154.23,135.52Z"/><path class="cls-2" d="M196.5,79.14c-1-1.06-3.22-3.1-5.21-1.51-1.71,1.37-.37,4.62.58,5.7.09.1,8.95,9-1.89,31.67l-.61,1.29c-3.05,6.48-4.58,9.74-18.4,9.74h-5a4.52,4.52,0,0,0-1.3-1.2l-.08,0a4.31,4.31,0,0,0-2.16-.57H119.39a4.36,4.36,0,0,0-4.36,4.35v.21a4.36,4.36,0,0,0,4.36,4.36h42.87a4.34,4.34,0,0,0,2.22-.61l.28-.16a4.45,4.45,0,0,0,1.15-1.05H171c16.34,0,19.46-4.86,23.19-12.77l.59-1.27C207.29,91.11,197,79.62,196.5,79.14Z"/><path class="cls-1" d="M99.86,123.22H51.8a6.36,6.36,0,0,1-6.35-6.34h0a6.37,6.37,0,0,1,6.35-6.35H99.86a6.37,6.37,0,0,1,6.35,6.35h0A6.36,6.36,0,0,1,99.86,123.22Z"/><path class="cls-2" d="M148.93,86.85a2.64,2.64,0,0,0-3.74-.08c-.1.1-10.3,9.88-17.46,16.37l-1.67,1.52c-6,5.53-9.39,8.58-14.3,8.58h-.5a4.6,4.6,0,0,0-.92-.71l-.08,0a4.34,4.34,0,0,0-2.16-.58H65a4.36,4.36,0,0,0-4.35,4.36v.21A4.36,4.36,0,0,0,65,120.84H107.9a4.3,4.3,0,0,0,2.21-.61l.28-.17a4.32,4.32,0,0,0,1.54-1.55c6.86-.06,11.19-4,17.7-9.94l1.65-1.51c7.21-6.54,17.47-16.38,17.57-16.48A2.63,2.63,0,0,0,148.93,86.85Z"/><path class="cls-4" d="M55.71,116.65a4.51,4.51,0,0,1-4.24,4.74,4.77,4.77,0,0,1,0-9.48A4.51,4.51,0,0,1,55.71,116.65Z"/><path class="cls-4" d="M72.78,119.63h0a.78.78,0,0,0,.78-.78v-5.11a.78.78,0,0,0-.78-.77h0a.78.78,0,0,0-.77.77v5.11A.78.78,0,0,0,72.78,119.63Z"/><path class="cls-4" d="M76.6,119.63h0a.77.77,0,0,0,.77-.78v-5.11a.77.77,0,0,0-.77-.77h0a.78.78,0,0,0-.77.77v5.11A.78.78,0,0,0,76.6,119.63Z"/><path class="cls-4" d="M80.28,119.63h0a.78.78,0,0,0,.77-.78v-5.11a.78.78,0,0,0-.77-.77h0a.78.78,0,0,0-.78.77v5.11A.78.78,0,0,0,80.28,119.63Z"/></g></g></svg>