<svg xmlns="http://www.w3.org/2000/svg" viewBox="0 0 404.01 352.95"><defs><style>.cls-1{isolation:isolate;}.cls-2{fill:#1f150b;}.cls-3{fill:#484038;}.cls-4{fill:#403932;}.cls-5{fill:#21272b;}.cls-6{fill:#151b1f;}.cls-7{fill:#585b5d;}.cls-8{fill:#3a3e40;}.cls-9{fill:#a5a9b2;}.cls-10{fill:#484b4d;}.cls-11{fill:#3d454b;}.cls-12{fill:#666b70;}.cls-13{fill:#383838;}.cls-14{fill:#c20005;}.cls-15{fill:#e71f23;}.cls-16{fill:#322920;}.cls-17{mix-blend-mode:multiply;}.cls-18{fill:#ababab;}.cls-19{fill:#4d5258;}.cls-20{fill:#d7a32f;}.cls-21{fill:#eb6878;}.cls-22{fill:#ff5255;}.cls-23{fill:#ff5e61;}.cls-24{fill:#c92a2e;}.cls-25{fill:#fb9d00;}.cls-26{fill:#ff4246;}.cls-27{fill:#fcb339;}.cls-28{fill:#292017;}.cls-29{fill:#383e45;}.cls-30{fill:#ff6b6e;}.cls-31{fill:#3a3128;}.cls-32{fill:#9fb8b9;}.cls-33{fill:#737f82;}.cls-34{fill:#6d747b;}.cls-35{fill:#434c55;}.cls-36{fill:#fd3c1d;}.cls-37{fill:#bdc0c3;}.cls-38{fill:#2c2218;}.cls-39{fill:#96826e;}.cls-40{fill:#363636;}</style></defs><g class="cls-1"><g id="Layer_2" data-name="Layer 2"><g id="Layer_1-2" data-name="Layer 1"><path class="cls-2" d="M399.75,243.15l-.81,1.11a16,16,0,0,0-3.17,8.27v12.2c0,2.33,1.42,2.4,3.17.16l1.6-2.25a11.44,11.44,0,0,0,2.37-7.13v-12.2C402.91,241,401.5,240.91,399.75,243.15Z"/><path class="cls-3" d="M400.85,243.15l-.82,1.11a16,16,0,0,0-3.16,8.27v12.2c0,2.33,1.41,2.4,3.16.16l1.6-2.25a11.45,11.45,0,0,0,2.38-7.13v-12.2C404,241,402.59,240.91,400.85,243.15Z"/><polygon class="cls-4" points="387.06 284.48 400.13 269.95 400.08 235.53 390.45 243.43 391.08 244.86 399.37 237.71 399.37 269.23 386.33 283.37 387.06 284.48"/><polygon class="cls-5" points="54.74 197.02 61.64 191.71 109.44 217.28 243.58 306.05 253.13 300.95 291.92 326.01 285.61 230.38 98.92 145.62 39.78 138.84 54.74 197.02"/><path class="cls-6" d="M253.65,294.55c0,9.27,6.55,20.56,14.63,25.23,3.18,1.83-.22,6.33,2.18,5.74.64-.16,7.59-4.37,8.16-4.69,2.65-1.51,4.28-4.76,4.28-9.39,0-9.27-6.54-20.56-14.62-25.23-3.73-2.15-7.14-2.51-9.72-1.36-.25.11-6.66,3.9-6.9,4C249.08,290.42,253.65,290,253.65,294.55Z"/><path class="cls-7" d="M246.3,298.78c0,9.27,6.55,20.56,14.63,25.22s14.62.93,14.62-8.34S269,295.1,260.93,290.44,246.3,289.51,246.3,298.78Z"/><ellipse class="cls-8" cx="260.91" cy="307.62" rx="11.61" ry="20.11" transform="translate(-119.58 173.73) rotate(-30.31)"/><path class="cls-9" d="M250.74,301.34c0,6.46,4.56,14.32,10.19,17.57s10.18.64,10.18-5.81-4.56-14.32-10.18-17.56S250.74,294.89,250.74,301.34Z"/><path class="cls-10" d="M270.26,312.53c0,5.93-4.19,8.32-9.36,5.34s-9.37-10.22-9.37-16.15,4.2-8.32,9.37-5.34S270.26,306.6,270.26,312.53Z"/><path class="cls-5" d="M270,312.78c0,4.74-3.35,6.65-7.48,4.27A16.51,16.51,0,0,1,255,304.14c0-4.74,3.35-6.65,7.48-4.26A16.47,16.47,0,0,1,270,312.78Z"/><path class="cls-11" d="M269.74,310.81c0,4.74-3.35,6.65-7.48,4.27a16.51,16.51,0,0,1-7.48-12.91c0-4.74,3.35-6.65,7.48-4.26A16.47,16.47,0,0,1,269.74,310.81Z"/><path class="cls-12" d="M255.41,295.26c-1.42,1.06-2.27,3-2.27,5.69,0,5.94,4.19,13.17,9.36,16.15a7.44,7.44,0,0,0,5.49,1.13c-1.72,1.29-4.26,1.28-7.09-.36-5.17-3-9.37-10.22-9.37-16.15C251.53,298.14,253.06,295.85,255.41,295.26Z"/><path class="cls-13" d="M268.45,311.68c0,4.74-3.35,6.65-7.49,4.26a16.47,16.47,0,0,1-7.48-12.9c0-4.74,3.35-6.65,7.48-4.27A16.49,16.49,0,0,1,268.45,311.68Z"/><path class="cls-14" d="M263.11,309.36c0,1.92-1.36,2.7-3,1.73a6.7,6.7,0,0,1-3-5.24c0-1.93,1.36-2.7,3-1.73A6.69,6.69,0,0,1,263.11,309.36Z"/><path class="cls-15" d="M262.8,309.54c0,1.93-1.36,2.7-3,1.73a6.69,6.69,0,0,1-3-5.24c0-1.92,1.36-2.7,3-1.73A6.69,6.69,0,0,1,262.8,309.54Z"/><path class="cls-6" d="M64.55,185.89c0,9.26,6.54,20.56,14.62,25.22,3.18,1.84-.22,6.33,2.18,5.74.65-.16,7.6-4.36,8.16-4.68,2.65-1.51,4.29-4.76,4.29-9.4,0-9.27-6.55-20.56-14.63-25.22-3.73-2.16-7.14-2.52-9.72-1.37-.25.11-6.66,3.9-6.89,4C60,181.75,64.55,181.31,64.55,185.89Z"/><path class="cls-7" d="M57.2,190.11c0,9.27,6.54,20.56,14.62,25.23s14.62.93,14.62-8.34-6.54-20.56-14.62-25.23S57.2,180.84,57.2,190.11Z"/><path class="cls-8" d="M57.54,190.72c0,9,6.39,20.05,14.27,24.6s14.26.91,14.26-8.13-6.38-20.06-14.26-24.61S57.54,181.68,57.54,190.72Z"/><path class="cls-9" d="M61.64,192.68c0,6.45,4.56,14.31,10.18,17.56S82,210.89,82,204.43s-4.56-14.31-10.18-17.56S61.64,186.22,61.64,192.68Z"/><path class="cls-12" d="M81.09,204c0,2.68-.88,4.64-2.31,5.68-1.71,1.26-4.22,1.22-7-.41-5.12-3-9.26-10.17-9.25-16.06,0-3.88,1.83-6.24,4.53-6.53a7.88,7.88,0,0,1,4.79,1.25C77,190.86,81.11,198.06,81.09,204Z"/><path class="cls-10" d="M81.09,204c0,2.68-.88,4.64-2.31,5.68A7.88,7.88,0,0,1,74,208.38c-5.12-3-9.27-10.18-9.25-16.07,0-2.69.88-4.64,2.31-5.68a7.88,7.88,0,0,1,4.79,1.25C77,190.86,81.11,198.06,81.09,204Z"/><path class="cls-5" d="M80,201.64a3.86,3.86,0,0,1-1.32,3.25c-1,.72-2.41.69-4-.24a11.68,11.68,0,0,1-5.29-9.19c0-2.22,1-3.56,2.59-3.73a4.54,4.54,0,0,1,2.73.72A11.73,11.73,0,0,1,80,201.64Z"/><path class="cls-14" d="M79.53,200a3.83,3.83,0,0,1-1.32,3.25c-1,.72-2.41.7-4-.23a11.73,11.73,0,0,1-5.29-9.19c0-2.22,1-3.56,2.59-3.73a4.48,4.48,0,0,1,2.74.72A11.7,11.7,0,0,1,79.53,200Z"/><path class="cls-15" d="M78.08,200.75A3.86,3.86,0,0,1,76.76,204c-1,.72-2.41.69-4-.24a11.72,11.72,0,0,1-5.29-9.19c0-2.22,1.05-3.56,2.59-3.73a4.55,4.55,0,0,1,2.74.72A11.72,11.72,0,0,1,78.08,200.75Z"/><path class="cls-15" d="M73.87,17.12V120.84l10.56,8,44.18,25.51V142.91c0-10.93,7.72-15.34,17.25-9.84s17.26,18.83,17.26,29.76v11.46L317.45,263.4V251.93c0-10.92,7.72-15.33,17.25-9.83S352,260.93,352,271.86v11.46l35.84,32.13,8.16,2.31V297.24l-5.34-9.68V238l5.34,3.08-1.79-25.92-1.8-1.84-7.1-27.86,1.88,1.08v-2.16s-10.43-19.22-17-23L98.27,7.61C94.83,5.63,93,2,89.72,1.4,79.74-.38,73.87,22.25,73.87,17.12Z"/><path class="cls-8" d="M319.91,256.18c0,9.37,6.62,20.8,14.79,25.52s14.8.94,14.8-8.44-6.63-20.8-14.8-25.52S319.91,246.8,319.91,256.18Z"/><ellipse class="cls-8" cx="145.86" cy="155.69" rx="12.04" ry="20.86" transform="translate(-58.64 94.9) rotate(-30.31)"/><polygon class="cls-16" points="79.31 89.19 390.52 280.3 390.52 237.95 79.31 46.84 79.31 89.19"/><g class="cls-17"><path class="cls-18" d="M354,200.42,123.52,67.35V44L354,177.09ZM124.81,66.6,352.72,198.19V177.84L124.81,46.25Z"/></g><polygon class="cls-16" points="106.08 29.89 392.38 213.33 385.27 185.47 107.31 18.28 96.17 22.89 106.08 29.89"/><polygon class="cls-19" points="324.56 200.43 354.15 217.51 354.15 209.12 324.56 192.03 324.56 200.43"/><polygon class="cls-19" points="324.56 233.7 354.15 250.78 354.15 227.05 324.56 209.97 324.56 233.7"/><polygon class="cls-19" points="284.2 202.89 322.99 225.29 322.99 191.34 284.2 168.94 284.2 202.89"/><polygon class="cls-19" points="209.71 134.12 240.6 151.95 240.6 143.55 209.71 125.72 209.71 134.12"/><polygon class="cls-19" points="209.71 159.89 240.6 177.72 240.6 153.99 209.71 136.16 209.71 159.89"/><polygon class="cls-19" points="123.44 84.31 163.39 107.38 163.39 98.98 123.44 75.92 123.44 84.31"/><polygon class="cls-19" points="123.44 110.08 163.39 133.14 163.39 109.42 123.44 86.36 123.44 110.08"/><polygon class="cls-19" points="165.17 134.17 208.14 158.98 208.14 125.03 165.17 100.21 165.17 134.17"/><polygon class="cls-19" points="335.28 160.42 368.95 179.86 359.04 165.06 325.38 145.62 335.28 160.42"/><polygon class="cls-19" points="299.41 139.72 333.08 159.16 323.18 144.36 289.51 124.92 299.41 139.72"/><polygon class="cls-19" points="263.55 119.01 297.22 138.45 287.31 123.65 253.65 104.21 263.55 119.01"/><polygon class="cls-16" points="263.55 106.56 287.31 131.72 287.31 130.31 263.55 105.15 263.55 106.56"/><polygon class="cls-20" points="191.82 65.15 225.49 84.59 225.49 83.18 191.82 63.74 191.82 65.15"/><polygon class="cls-20" points="110.19 29.45 143.85 48.89 143.85 47.48 110.19 28.04 110.19 29.45"/><polygon class="cls-16" points="325.38 153.69 359.04 173.13 359.04 171.72 325.38 152.28 325.38 153.69"/><polygon class="cls-19" points="227.68 98.3 261.35 117.74 251.45 102.94 217.78 83.5 227.68 98.3"/><polygon class="cls-19" points="191.82 77.6 225.49 97.04 215.59 82.24 181.92 62.8 191.82 77.6"/><polygon class="cls-19" points="155.95 56.89 189.62 76.33 179.72 61.53 146.05 42.09 155.95 56.89"/><polygon class="cls-19" points="120.09 36.18 153.76 55.62 143.85 40.82 110.19 21.38 120.09 36.18"/><polygon class="cls-19" points="108.59 29.54 117.89 34.92 107.99 20.12 98.68 23.98 108.59 29.54"/><polygon class="cls-16" points="87.26 28.03 106.08 38.89 106.08 38.17 87.26 27.31 87.26 28.03"/><polygon class="cls-16" points="87.26 29.47 106.08 40.33 106.08 39.61 87.26 28.75 87.26 29.47"/><polygon class="cls-16" points="87.26 30.91 106.08 41.77 106.08 41.05 87.26 30.19 87.26 30.91"/><polygon class="cls-16" points="87.26 32.35 106.08 43.21 106.08 42.49 87.26 31.63 87.26 32.35"/><polygon class="cls-16" points="87.26 33.79 106.08 44.65 106.08 43.93 87.26 33.07 87.26 33.79"/><polygon class="cls-16" points="87.26 35.23 106.08 46.09 106.08 45.37 87.26 34.51 87.26 35.23"/><polygon class="cls-16" points="87.26 36.67 106.08 47.53 106.08 46.81 87.26 35.95 87.26 36.67"/><polygon class="cls-16" points="87.26 38.1 106.08 48.97 106.08 48.25 87.26 37.38 87.26 38.1"/><polygon class="cls-16" points="87.26 39.55 106.08 50.41 106.08 49.69 87.26 38.83 87.26 39.55"/><polygon class="cls-16" points="87.26 40.98 106.08 51.85 106.08 51.13 87.26 40.27 87.26 40.98"/><polygon class="cls-16" points="87.26 42.42 106.08 53.29 106.08 52.57 87.26 41.7 87.26 42.42"/><polygon class="cls-16" points="87.26 43.87 106.08 54.73 106.08 54.01 87.26 43.15 87.26 43.87"/><polygon class="cls-16" points="87.26 45.3 106.08 56.17 106.08 55.45 87.26 44.58 87.26 45.3"/><path class="cls-21" d="M315.3,250.28v11.88l2.15,1.24V251.93c0-10.92,7.72-15.33,17.25-9.83S352,280.93,352,271.86v11.46l2.14,1.24V272.68c0-12.29-8.69-19.78-19.4-26S315.3,238,315.3,250.28Z"/><path class="cls-21" d="M126.47,141.25v11.88l2.14,1.24V142.91c0-10.93,7.72-15.34,17.25-9.84s17.26,18.83,17.26,29.76v11.46l2.14,1.24V163.65c0-12.29-8.69-27.28-19.4-33.46S126.47,129,126.47,141.25Z"/><polygon class="cls-21" points="394.39 302.4 394.39 294.39 395.96 297.24 395.96 317.76 394.39 317.31 394.39 302.4"/><path class="cls-22" d="M387.15,184.39v2.16l-1.34,0s-1.78-4-4.36-8.53c-.29-.52-.6-1.05-.92-1.58-1-1.66-2.08-3.34-3.21-4.88-.16-.23-.33-.46-.5-.68a19.1,19.1,0,0,0-5-4.9l-2.94-1.7L104,11.41A31.12,31.12,0,0,0,94,7.57c-9.88-1.73-18.6-11.65-18.6,16.51v98l-1.57-1.2V17.12A34,34,0,0,0,72.39,6.69c-.71-2.36-1.25-3.62-.49-4.78h0a10.39,10.39,0,0,1,1.89-.82,22.81,22.81,0,0,1,9.42-1,32.35,32.35,0,0,1,6.5,1.29A46.13,46.13,0,0,1,99.81,5.3L370.13,161.37a11.79,11.79,0,0,1,1.84,1.37C378.57,168.61,387.15,184.39,387.15,184.39Z"/><polygon class="cls-21" points="394.17 215.16 395.96 241.09 394.06 239.99 392.08 219.22 385.27 185.47 392.37 213.33 394.17 215.16"/><polygon class="cls-19" points="102.28 65.7 118.28 74.94 118.28 139.26 102.28 130.03 102.28 65.7"/><polygon class="cls-19" points="84.09 55.19 100.08 64.43 100.08 128.76 84.09 119.52 84.09 55.19"/><polygon class="cls-19" points="377.68 224.7 383.77 239.65 383.77 303.98 377.68 289.03 377.68 224.7"/><polygon class="cls-19" points="359.48 214.19 375.48 223.43 375.48 287.76 359.48 278.52 359.48 214.19"/><polygon class="cls-19" points="263.65 158.87 279.65 168.1 279.65 232.43 263.65 223.19 263.65 158.87"/><polygon class="cls-19" points="245.46 148.36 261.46 157.6 261.46 221.93 245.46 212.69 245.46 148.36"/><g class="cls-17"><path class="cls-18" d="M386.61,311.24,356.8,282.08V206.13l29.81,29.16Zm-28.52-29.71,27.23,26.65V235.83l-27.23-26.64Z"/></g><g class="cls-17"><path class="cls-18" d="M282.49,239.27l-39.71-22.92V140.71l39.71,22.93ZM244.07,215.6l37.13,21.45V164.38l-37.13-21.44Z"/></g><g class="cls-17"><path class="cls-18" d="M121.12,146.11,81.41,123.18V47.54l39.71,22.93ZM82.69,122.44l37.14,21.44V71.21L82.69,49.77Z"/></g><polygon class="cls-16" points="395.96 316.92 351.96 280.08 351.96 283.32 387.8 315.45 395.96 317.76 395.96 316.92"/><polygon class="cls-16" points="317.45 260.16 163.12 171.05 163.12 174.29 317.45 263.39 317.45 260.16"/><path class="cls-16" d="M73.87,119.53v1.31l10.56,8,44.18,25.51v-3.24Z"/><polygon class="cls-23" points="387.15 186.55 333.08 217.77 324.3 200.43 25.66 35.13 20 32 71.9 1.91 78.77 2.82 98.68 5.45 371.56 162.81 387.15 186.55"/><path class="cls-24" d="M83.22.11,78.77,2.82,72.39,6.69,25.66,35.13,20,32,71.9,1.91h0l1.89-.82A22.81,22.81,0,0,1,83.22.11Z"/><path class="cls-22" d="M387.15,184.4v2.15l-54.07,31.22-9.67-17.83-4.32-8,49.78-27.63,2.7-1.5.4-.07C378.57,168.61,387.15,184.4,387.15,184.4Z"/><polygon class="cls-16" points="390.62 238.01 326.65 274.94 326.65 317.17 390.62 280.23 390.62 238.01"/><path class="cls-15" d="M4.65,55.73,1,83l-.95,75v1.32l10.56,12.25L54.74,197V185.56c0-10.93,7.72-15.34,17.25-9.84s17.25,18.83,17.25,29.76v11.46l154.34,89.11V294.59c0-10.93,7.72-15.34,17.25-9.84s17.25,18.83,17.25,29.76V326l45.75,26.41L341.89,349V328.46l-5.33-9.68-9.91-1.61V274.94l15.24-2.64-1.78-25.92-1.26-.72-7.1-27.86,1.33,0-3-8.73s-4.38-13.29-11-17.09L48.77,35.87A31.47,31.47,0,0,0,38.67,32C28.7,30.19,13.38,30.19,4.65,55.73Z"/><path class="cls-25" d="M59.2,174.85l-53.76-31v6.51l50.34,29A9.57,9.57,0,0,1,59.2,174.85Z"/><path class="cls-25" d="M326.65,329.27l-53-30.62A39.46,39.46,0,0,1,277,307l49.64,28.65Z"/><path class="cls-25" d="M248,283.88,84.78,189.62a39.19,39.19,0,0,1,3.41,8.44l156.46,90.27A9.57,9.57,0,0,1,248,283.88Z"/><polygon class="cls-26" points="321.84 216.01 322.99 240.43 326.65 274.94 326.65 324.49 326.65 342.89 323.83 349.9 341.89 348.97 341.89 272.3 340.11 246.38 333.08 217.77 321.84 216.01"/><polygon class="cls-27" points="326.65 335.65 339.15 336.44 331.87 329.48 326.65 329.27 326.65 335.65"/><polygon class="cls-26" points="341.89 348.13 395.96 316.92 395.96 297.24 341.89 328.46 341.89 348.13"/><polygon class="cls-28" points="5.44 131.84 326.65 317.17 326.65 274.94 5.44 89.49 5.44 131.84"/><polygon class="cls-16" points="50.29 109.63 279.49 241.95 279.49 220.12 50.29 87.79 50.29 109.63"/><polygon class="cls-28" points="32.2 72.55 322.99 240.43 321.84 216.01 43.34 55.22 32.2 59.82 32.2 72.55"/><polygon class="cls-29" points="250.69 243.08 280.28 260.16 280.28 251.76 250.69 234.68 250.69 243.08"/><polygon class="cls-29" points="250.69 268.85 280.28 285.93 280.28 262.2 250.69 245.12 250.69 268.85"/><polygon class="cls-29" points="210.33 245.54 249.12 267.94 249.12 233.99 210.33 211.59 210.33 245.54"/><polygon class="cls-29" points="135.84 176.77 166.72 194.6 166.72 186.21 135.84 168.37 135.84 176.77"/><polygon class="cls-29" points="135.84 202.54 166.72 220.37 166.72 196.64 135.84 178.81 135.84 202.54"/><polygon class="cls-29" points="49.57 126.97 89.52 150.03 89.52 141.63 49.57 118.57 49.57 126.97"/><polygon class="cls-29" points="49.57 152.73 89.52 175.79 89.52 152.07 49.57 129.01 49.57 152.73"/><polygon class="cls-29" points="91.29 176.82 134.27 201.63 134.27 167.68 91.29 142.86 91.29 176.82"/><polygon class="cls-29" points="297.27 223.78 313.89 233.38 310.86 211.11 297.27 203.26 297.27 223.78"/><polygon class="cls-29" points="261.4 203.07 295.07 222.51 295.07 202 261.4 182.56 261.4 203.07"/><polygon class="cls-29" points="225.54 182.37 259.21 201.81 259.21 181.29 225.54 161.85 225.54 182.37"/><polygon class="cls-29" points="189.68 161.66 223.34 181.1 223.34 160.58 189.68 141.14 189.68 161.66"/><polygon class="cls-15" points="189.68 149.21 223.34 168.65 223.34 167.24 189.68 147.8 189.68 149.21"/><polygon class="cls-20" points="117.95 107.8 151.62 127.24 151.62 125.83 117.95 106.39 117.95 107.8"/><polygon class="cls-20" points="46.22 66.39 79.89 85.83 79.89 84.42 46.22 64.98 46.22 66.39"/><polygon class="cls-15" points="261.4 190.63 295.07 210.06 295.07 208.65 261.4 189.22 261.4 190.63"/><polygon class="cls-29" points="153.81 140.95 187.48 160.39 187.48 139.88 153.81 120.44 153.81 140.95"/><polygon class="cls-29" points="117.95 120.25 151.62 139.69 151.62 119.17 117.95 99.73 117.95 120.25"/><polygon class="cls-29" points="82.08 99.54 115.75 118.98 115.75 98.46 82.08 79.02 82.08 99.54"/><polygon class="cls-29" points="46.22 78.83 79.89 98.27 79.89 77.76 46.22 58.32 46.22 78.83"/><polygon class="cls-29" points="34.72 72.19 44.02 77.57 44.02 57.05 34.72 60.91 34.72 72.19"/><polygon class="cls-16" points="13.38 70.68 32.2 81.54 32.2 80.82 13.38 69.96 13.38 70.68"/><polygon class="cls-16" points="13.38 72.12 32.2 82.98 32.2 82.26 13.38 71.4 13.38 72.12"/><polygon class="cls-16" points="13.38 73.56 32.2 84.42 32.2 83.7 13.38 72.84 13.38 73.56"/><polygon class="cls-16" points="13.38 75 32.2 85.86 32.2 85.14 13.38 74.28 13.38 75"/><polygon class="cls-16" points="13.38 76.44 32.2 87.3 32.2 86.58 13.38 75.72 13.38 76.44"/><polygon class="cls-16" points="13.38 77.88 32.2 88.74 32.2 88.02 13.38 77.16 13.38 77.88"/><polygon class="cls-16" points="13.38 79.32 32.2 90.18 32.2 89.46 13.38 78.6 13.38 79.32"/><polygon class="cls-16" points="13.38 80.76 32.2 91.62 32.2 90.9 13.38 80.04 13.38 80.76"/><polygon class="cls-16" points="13.38 82.2 32.2 93.06 32.2 92.34 13.38 81.48 13.38 82.2"/><polygon class="cls-16" points="13.38 83.64 32.2 94.5 32.2 93.78 13.38 82.92 13.38 83.64"/><polygon class="cls-16" points="13.38 85.08 32.2 95.94 32.2 95.22 13.38 84.36 13.38 85.08"/><polygon class="cls-16" points="13.38 86.52 32.2 97.38 32.2 96.66 13.38 85.8 13.38 86.52"/><polygon class="cls-16" points="13.38 87.95 32.2 98.82 32.2 98.1 13.38 87.23 13.38 87.95"/><path class="cls-25" d="M241.43,292.93v11.88l2.15,1.24V294.59c0-10.93,7.72-15.34,17.25-9.84s17.25,18.83,17.25,29.76V326l2.15,1.24V315.33c0-12.29-8.69-27.28-19.4-33.46S241.43,280.64,241.43,292.93Z"/><path class="cls-25" d="M52.59,183.9v11.88L54.74,197V185.56c0-10.93,7.72-15.34,17.25-9.84s17.25,18.83,17.25,29.76v11.46l2.15,1.24V206.3C91.39,194,82.7,179,72,172.84S52.59,171.61,52.59,183.9Z"/><polygon class="cls-30" points="340.32 329.48 326.65 324.49 341.89 328.46 341.89 348.97 340.32 348.53 340.32 329.48"/><polygon class="cls-31" points="344.24 338.64 340.32 337.55 326.65 324.49 395.96 297.24 395.96 306.08 394.28 309.71 344.24 338.64"/><path class="cls-30" d="M333.08,217.77l-1.17.69s-7.65-17.47-14.17-21.24L50,42.63c-3.41-2-14.71-7.39-25-7.5-7.21-.07-15,5.8-19.55,24.08L1.57,83.51v76.94L0,159.26V82.13L3.26,57.05C11.42,24.8,28.7,30.19,38.68,32c2.73.48,8.48,3,8.48,3,.54.27,1.07.56,1.61.87L319.09,191.94c6.59,3.81,11,17.1,11,17.1Z"/><path class="cls-24" d="M25,35.13c-7.21.33-14.07,12.29-18.65,30.57l-.9,19v81.17L0,159.26V82.13L3.26,57.05C9.42,31.28,25,35.13,25,35.13Z"/><polygon class="cls-30" points="340.11 246.38 341.89 272.3 340.09 272.62 338.56 251.54 331.75 217.79 338.85 245.66 340.11 246.38"/><polygon class="cls-29" points="28.41 108.35 44.41 117.58 44.41 181.91 28.41 172.68 28.41 108.35"/><polygon class="cls-29" points="10.21 97.84 26.21 107.08 26.21 171.41 10.21 162.17 10.21 97.84"/><polygon class="cls-29" points="303.81 267.35 319.8 276.59 319.8 340.92 303.81 331.68 303.81 267.35"/><polygon class="cls-29" points="285.61 256.85 301.61 266.08 301.61 330.41 285.61 321.17 285.61 256.85"/><polygon class="cls-29" points="189.78 201.52 205.78 210.75 205.78 275.08 189.78 265.85 189.78 201.52"/><polygon class="cls-29" points="171.59 191.01 187.58 200.25 187.58 264.58 171.59 255.34 171.59 191.01"/><g class="cls-17"><path class="cls-18" d="M322.64,347.76l-39.71-22.93V249.19l39.71,22.93Zm-38.42-23.67,37.13,21.44V272.87l-37.13-21.45Z"/></g><g class="cls-17"><path class="cls-18" d="M208.62,281.93,168.9,259V183.36l39.72,22.93Zm-38.43-23.68,37.14,21.45V207l-37.14-21.44Z"/></g><g class="cls-17"><path class="cls-18" d="M47.25,188.76,7.53,165.83V90.19l39.72,22.93ZM8.82,165.09,46,186.53V113.86L8.82,92.42Z"/></g><polygon class="cls-16" points="341.89 348.13 324.1 349.75 278.08 322.73 278.08 325.97 323.83 352.38 341.89 348.97 341.89 348.13"/><polygon class="cls-16" points="243.58 302.81 89.24 213.7 89.24 216.94 243.58 306.05 243.58 302.81"/><path class="cls-16" d="M0,157.94v1.32l5.44,8.36,5.12,3.89L54.74,197v-3.24L5.44,165.32Z"/><polygon class="cls-19" points="338.85 245.66 392.92 214.44 387.15 186.55 333.08 217.77 321.84 216.01 322.99 240.43 338.85 245.66"/><polygon class="cls-29" points="338.85 245.66 333.08 217.77 321.84 216.01 322.99 240.43 338.85 245.66"/><polygon class="cls-32" points="389.73 212.67 366.57 199.86 380.73 191.69 385.75 187.36 389.73 212.67"/><polygon class="cls-29" points="387.15 186.55 388.31 190.81 336.82 220.37 332.26 220.37 322.23 217.51 321.84 216.01 333.08 217.77 387.15 186.55"/><polygon class="cls-26" points="341.89 272.3 395.96 241.09 394.17 215.16 392.92 214.44 338.85 245.66 340.11 246.38 341.89 272.3"/><polygon class="cls-16" points="348.73 264.55 388.31 241.7 387 222.72 347.42 245.57 348.73 264.55"/><polygon class="cls-33" points="326.65 317.17 326.65 324.49 341.89 328.46 395.96 297.24 390.62 287.56 390.62 280.23 326.65 317.17"/><polygon class="cls-19" points="395.95 297.24 390.88 293.19 341.89 321.17 338.77 322.95 326.65 324.49 326.65 274.94 341.89 272.3 390.62 244.17 395.95 297.24"/><polygon class="cls-29" points="339.36 272.74 341.89 321.17 338.77 322.95 326.65 324.49 326.65 274.94 339.36 272.74"/><path class="cls-31" d="M345.66,338.44l46.9-27.08a5,5,0,0,0,2.51-4.35v-4.46a1.92,1.92,0,0,0-2.88-1.66L345.29,328a5,5,0,0,0-2.51,4.35v4.46A1.93,1.93,0,0,0,345.66,338.44Z"/><path class="cls-26" d="M353.38,327l31.33-18.09c1,5.36,1.68,4.25,1.68,3.05v-3a1.28,1.28,0,0,0-1.92-1.11L353.13,326a3.36,3.36,0,0,0-1.67,2.9v3C351.46,332.85,352.53,333.47,353.38,327Z"/><path class="cls-26" d="M353.38,329.65l31.33-18.09c1,5.36,1.68,4.25,1.68,3.05v-3a1.28,1.28,0,0,0-1.92-1.11l-31.34,18.09a3.37,3.37,0,0,0-1.67,2.9v3C351.46,335.48,352.53,336.1,353.38,329.65Z"/><polygon class="cls-32" points="390.62 244.17 390.88 293.19 395.96 297.24 393.29 242.63 390.62 244.17"/><polygon class="cls-29" points="393.29 242.63 393.52 247.42 339.66 278.51 326.65 277.59 326.65 274.94 341.89 272.3 393.29 242.63"/><path class="cls-34" d="M396,299.35v6.73l-.19.26a13.05,13.05,0,0,1-6.43,4.68l-1.71.57v-4.95l6.94-7.82A.79.79,0,0,1,396,299.35Z"/><path class="cls-35" d="M396,299.35v6.73l-5,1.64-3.35,3.87v-4.95l6.94-7.82A.79.79,0,0,1,396,299.35Z"/><path class="cls-34" d="M350.48,328v5l-1.54,1.35a13.07,13.07,0,0,1-8.62,3.24h0l-1.49-4.35a3.61,3.61,0,0,1,2.9-4.73l.32,0Z"/><path class="cls-35" d="M350.48,328v5l-4.88.93-2.82,1.75-2.46,1.91-1.49-4.35a3.61,3.61,0,0,1,2.9-4.73l.32,0Z"/><polygon class="cls-36" points="395.39 299.09 393.31 300.75 394.13 306.52 395.6 305.67 395.39 299.09"/><polygon class="cls-37" points="392.52 302.02 388.32 306.52 388.11 310.35 391.01 307.14 393.31 306.52 392.52 302.02"/><polygon class="cls-37" points="349.4 331.95 344.56 333.95 341.89 335.88 341.46 329.33 349.4 328.79 349.4 331.95"/><polygon class="cls-36" points="341.46 336.46 340.66 337.19 339.15 332.1 340.93 329.14 341.46 336.46"/><polygon class="cls-31" points="341.89 343.47 334.82 343.02 331.74 344.34 330.41 347.63 323.83 349.9 323.83 352.38 341.89 352.95 398.26 320.31 398.49 317.74 398.49 313.46 395.95 309.71 395.95 312.26 341.89 343.47"/><polygon class="cls-3" points="334.82 343.02 331.74 344.34 342.78 345.51 398.49 313.46 395.95 309.71 395.95 312.26 342.78 342.96 334.82 343.02"/><polygon class="cls-38" points="323.83 349.9 342.78 351.03 398.49 317.74 396.41 321.39 341.89 352.95 323.83 352.38 323.83 349.9"/><polygon class="cls-38" points="342.78 345.51 342.78 351.03 323.83 349.9 330.41 347.63 331.74 344.34 342.78 345.51"/><path class="cls-39" d="M282.93,130.28,264.44,141a2.62,2.62,0,0,0,0,4.54l34.33,19.82a8.45,8.45,0,0,0,8.45,0l18.49-10.68a2.62,2.62,0,0,0,0-4.54l-34.33-19.82A8.45,8.45,0,0,0,282.93,130.28Z"/><path class="cls-32" d="M284.84,132.66l-15.77,9.11a1.9,1.9,0,0,0,0,3.28l31,17.89a6.1,6.1,0,0,0,6.1,0l15.77-9.1a1.9,1.9,0,0,0,0-3.28l-31-17.9A6.1,6.1,0,0,0,284.84,132.66Z"/><path class="cls-24" d="M58.19,40.76l.79-.44,0,0L96.57,17.62l121.36,112.2h-5S59,40.32,58.19,40.76Z"/><path class="cls-30" d="M65.08,33.24l.79-.44,0,0L103.46,10.1,255.26,97l-38.37,23S65.09,33.16,65.08,33.24Z"/><polygon class="cls-15" points="65.08 33.24 62.19 40.66 217.93 129.82 216.89 120.09 65.08 33.24"/><polygon class="cls-26" points="216.89 120.09 217.93 129.82 263.65 103.15 255.26 97.04 216.89 120.09"/><path class="cls-40" d="M121.12,27.66l-10.41-5.91L84.64,37.45l10.41,5.83Z"/><path class="cls-22" d="M91.25,44.52l-1-.67,31.72-19,.47.47-.3.18.48.27C117.66,28.63,104.34,37,91.25,44.52Z"/><path class="cls-22" d="M88.85,43.07l-.95-.67,31.72-19,.47.46-.3.19.48.27C115.25,27.18,101.94,35.5,88.85,43.07Z"/><path class="cls-22" d="M86.45,41.62l-1-.67,31.73-19,.46.46-.3.19.49.27C112.85,25.72,99.54,34.05,86.45,41.62Z"/><path class="cls-22" d="M84,40.17l-1-.67,31.72-19,.47.46-.3.19.48.27C110.45,24.27,97.13,32.6,84,40.17Z"/><path class="cls-16" d="M318.26,286.62l-2.14.21c-1.74.35-3.16,2.53-3.16,4.86v13.52c0,2.33,1.42,3.93,3.16,3.58l2.93-.5c1.75-.35,2.37-2.24,2.37-4.57V290.2C321.42,287.87,320,286.27,318.26,286.62Z"/><path class="cls-3" d="M318.26,287.46l-2.14.21c-1.74.35-3.16,2.52-3.16,4.85v13.53c0,2.33,1.42,3.93,3.16,3.58l2.93-.5c1.75-.36,2.37-2.24,2.37-4.57V291C321.42,288.71,320,287.11,318.26,287.46Z"/><polygon class="cls-4" points="317.19 312.89 325.79 320.86 326.15 319.24 318.52 311.71 318.52 286.71 326.11 277.08 325.51 275.9 317.19 285.9 317.19 312.89"/></g></g></g></svg>