<svg xmlns="http://www.w3.org/2000/svg" viewBox="0 0 439.03 201.25"><defs><style>.cls-1{fill:#94abb3;}.cls-2{fill:#e6eced;}.cls-3{fill:#dce3e6;}.cls-4{fill:#fff;}</style></defs><g id="Layer_2" data-name="Layer 2"><g id="Layer_1-2" data-name="Layer 1"><path class="cls-1" d="M353.66,182.31a18.94,18.94,0,1,1-18.94-18.94A18.94,18.94,0,0,1,353.66,182.31Z"/><path class="cls-1" d="M166.16,182.31a18.94,18.94,0,1,1-18.94-18.94A18.94,18.94,0,0,1,166.16,182.31Z"/><path class="cls-2" d="M415.33,127.48C416,82.3,406.42,39.23,403.53,27,397.59,1.9,388.8,0,378.76,0H19.05A16.8,16.8,0,0,0,2.84,12.41H273.65c12.43,0,16.19,6.32,18.59,18.94,2.46,12.92,4.52,101.77,5.52,152.84l117.51-4.43S415,148.07,415.33,127.48Z"/><path class="cls-3" d="M273.65,12.41H2.84a16.42,16.42,0,0,0-.61,4.41V174l26.48,10.22H297.76c-1-51.07-3.06-139.92-5.52-152.84C289.84,18.73,286.08,12.41,273.65,12.41Z"/><path class="cls-4" d="M182.48,184.19v0h39.09c1-1.18,1.55-1.91,1.55-1.91s8.57-54.49-27-54.49c-18,0-55.83-44.19-55.83-44.19H79.6C55.85,83.63,58.08,58,58.08,58H17.87s-5.34,71.22,35.84,71.22h87.55C152.28,129.25,182.48,133.93,182.48,184.19Z"/><path class="cls-1" d="M2.23,157s-3.59,9.57-1.66,18.2c1.66,7.47,8.85,14,21.4,14.32s262.83,0,386.13,0c7.17,0,7.17-9.71,7.17-9.71h-389C10.13,179.76,2.23,168.79,2.23,157Z"/><path class="cls-1" d="M76.3,182.31a18.94,18.94,0,1,1-18.94-18.94A18.94,18.94,0,0,1,76.3,182.31Z"/><circle class="cls-2" cx="57.36" cy="182.31" r="11.45"/><path class="cls-1" d="M61.31,182.31a3.95,3.95,0,1,1-4-3.95A4,4,0,0,1,61.31,182.31Z"/><path class="cls-1" d="M121.52,182.31a18.94,18.94,0,1,1-18.93-18.94A18.94,18.94,0,0,1,121.52,182.31Z"/><circle class="cls-2" cx="102.59" cy="182.31" r="11.45"/><path class="cls-1" d="M106.53,182.31a3.95,3.95,0,1,1-3.94-3.95A3.95,3.95,0,0,1,106.53,182.31Z"/><path class="cls-1" d="M242.07,182.31a18.94,18.94,0,1,1-18.94-18.94A18.94,18.94,0,0,1,242.07,182.31Z"/><circle class="cls-2" cx="223.13" cy="182.31" r="11.45"/><path class="cls-1" d="M227.08,182.31a3.95,3.95,0,1,1-4-3.95A4,4,0,0,1,227.08,182.31Z"/><path class="cls-4" d="M302.56,164.12c.33,2.32,2.3,11,13.73,11h18.43v-11Z"/><polygon class="cls-4" points="400.94 164.12 400.94 175.15 415.27 175.15 415.21 164.12 400.94 164.12"/><path class="cls-1" d="M23.5,12.41H276.6A5.37,5.37,0,0,1,282,17.78V58a0,0,0,0,1,0,0H17.87a0,0,0,0,1,0,0V18a5.63,5.63,0,0,1,5.63-5.63Z"/><path class="cls-1" d="M267.53,83.63H71.45a20.28,20.28,0,0,0-20.28,20.28v25.34H238v54.94H282V98.07A14.45,14.45,0,0,0,267.53,83.63Z"/><path class="cls-4" d="M50.24,35.34V23.89H39.74A12.29,12.29,0,0,0,27.51,35.34Z"/><rect class="cls-4" x="64.89" y="23.89" width="22.82" height="11.45"/><rect class="cls-4" x="100.87" y="23.89" width="22.82" height="11.45"/><rect class="cls-4" x="138.55" y="23.89" width="22.82" height="11.45"/><rect class="cls-4" x="174.51" y="23.89" width="22.82" height="11.45"/><rect class="cls-4" x="210.48" y="23.89" width="22.82" height="11.45"/><path class="cls-4" d="M269.26,35.34V33.81a9.92,9.92,0,0,0-9.92-9.92h-12.9V35.34Z"/><path class="cls-4" d="M87.71,104.52V92.1H77.21a12.32,12.32,0,0,0-12.32,12.31v.11Z"/><rect class="cls-4" x="100.87" y="92.1" width="22.82" height="12.43"/><rect class="cls-4" x="138.55" y="92.1" width="22.82" height="12.43"/><rect class="cls-4" x="174.51" y="92.1" width="22.82" height="12.43"/><rect class="cls-4" x="210.48" y="92.1" width="22.82" height="12.43"/><path class="cls-4" d="M269.26,104.52V102a9.92,9.92,0,0,0-9.92-9.91h-12.9v12.42Z"/><path class="cls-1" d="M413.12,83.63h-96c.7,7.08,1.29,14.13,1.7,20.89,1.47,24.45,5.88,41.41,13.3,52.22,6.69.24,14.23.23,22.12.19,24.51-.12,61.08-.44,61.08-.44S418.07,111.37,413.12,83.63Z"/><path class="cls-1" d="M410.49,59.79s-2.39-28.57-11.92-47.38H307.42c1.5,8.88,4.43,27,7,47.38Z"/><path class="cls-4" d="M317.16,83.63H308.4a5.89,5.89,0,0,0-5.89,6.24c1,16.95,3.42,56.84,4.13,59.68,1.24,5,11.44,6.67,25.52,7.19-7.42-10.81-11.83-27.77-13.3-52.22C318.45,97.76,317.86,90.71,317.16,83.63Z"/><path class="cls-4" d="M296.93,19.11l4.9,35.09a6.5,6.5,0,0,0,6.43,5.59h6.19c-2.6-20.42-5.53-38.5-7-47.38h-4.66A5.88,5.88,0,0,0,296.93,19.11Z"/><path class="cls-2" d="M408.1,70.67h17.5c6.85,0,12.33,6.74,13,18.24s.3,20.18.3,20.18-9,1.8-9.21-10.78c-.22-13.65-2.12-18.13-6.2-18.45s-15.41-.07-15.41-.07Z"/><path class="cls-3" d="M293.24,70.67h17.5c6.85,0,12.33,6.74,13,18.24s.3,20.18.3,20.18-9,1.8-9.21-10.78c-.23-13.65-2.12-18.13-6.2-18.45s-15.41-.07-15.41-.07Z"/></g></g></svg>