<svg xmlns="http://www.w3.org/2000/svg" xmlns:xlink="http://www.w3.org/1999/xlink" viewBox="0 0 530 379.69"><defs><style>.cls-1{isolation:isolate;}.cls-2{fill:#281f16;}.cls-3{fill:#34383d;}.cls-4{fill:#21272b;}.cls-5{fill:#151b1f;}.cls-6{fill:#242726;}.cls-7{fill:#585b5d;}.cls-8{fill:#3a3e40;}.cls-9{fill:#575e66;}.cls-10{fill:#6c7277;}.cls-11{fill:#a5a9b2;}.cls-12{fill:#2c3d4f;}.cls-13{fill:#0f2237;}.cls-14{fill:#3d454b;}.cls-15{fill:#7e8386;}.cls-16{fill:#c6c9ca;}.cls-17{fill:#d6d8d9;}.cls-18{fill:#efefef;}.cls-19{fill:url(#_ÂÁ_Ï_ÌÌ_È_ËÂÌÚ_8);}.cls-20{fill:url(#_ÂÁ_Ï_ÌÌ_È_ËÂÌÚ_18);}.cls-21{fill:#1d0000;}.cls-22{fill:#9e4025;}.cls-23{fill:#cc7c6a;}.cls-24{fill:#5e5e5e;}.cls-25{fill:#b4b4b4;}.cls-26{fill:#d3d3d3;}.cls-27{fill:#a4a4a4;}.cls-28{fill:#654f4f;}.cls-29{fill:url(#_ÂÁ_Ï_ÌÌ_È_ËÂÌÚ_8-2);}.cls-30{fill:url(#_ÂÁ_Ï_ÌÌ_È_ËÂÌÚ_18-2);}.cls-31{fill:#d33336;}.cls-32{fill:#f56e75;}.cls-33{fill:#991a17;}.cls-34{fill:#3d3f42;}.cls-35{fill:#dcdb48;}.cls-36{fill:#322920;}.cls-37{fill:#d7a32f;}.cls-38{fill:#4d5258;}.cls-39{mix-blend-mode:multiply;}.cls-40{fill:#ababab;}.cls-41{fill:#e71f23;}.cls-42{fill:#f3565e;}.cls-43{fill:#b30005;}.cls-44{fill:#6e6862;}.cls-45{fill:#433b33;}.cls-46{fill:#5e6f72;}.cls-47{fill:#ff8086;}.cls-48{fill:#d7474a;}.cls-49{fill:#9fb8b9;}.cls-50{fill:#bbbec2;}.cls-51{fill:#6d747b;}.cls-52{fill:#bdc0c3;}.cls-53{fill:#5b544d;}.cls-54{fill:#8e8882;}</style><linearGradient id="_ÂÁ_Ï_ÌÌ_È_ËÂÌÚ_8" x1="-315.75" y1="201.47" x2="-286.59" y2="176.23" gradientTransform="matrix(-1, 0, 0, 1, -225.16, 0)" gradientUnits="userSpaceOnUse"><stop offset="0.16" stop-color="#d9d9d9"/><stop offset="0.16" stop-color="#f0f0f0"/><stop offset="0.56" stop-color="#f0f0f0"/><stop offset="0.56" stop-color="#d9d9d9"/><stop offset="0.87" stop-color="#d9d9d9"/><stop offset="0.87" stop-color="#c4c4c4"/></linearGradient><linearGradient id="_ÂÁ_Ï_ÌÌ_È_ËÂÌÚ_18" x1="-310.48" y1="203.86" x2="-292.57" y2="172.84" gradientTransform="matrix(-1, 0, 0, 1, -225.16, 0)" gradientUnits="userSpaceOnUse"><stop offset="0.16" stop-color="#a4a4a4"/><stop offset="0.16" stop-color="#bbb"/><stop offset="0.56" stop-color="#bbb"/><stop offset="0.56" stop-color="#a4a4a4"/><stop offset="0.87" stop-color="#a4a4a4"/><stop offset="0.87" stop-color="#8f8f8f"/></linearGradient><linearGradient id="_ÂÁ_Ï_ÌÌ_È_ËÂÌÚ_8-2" x1="-585.7" y1="357.18" x2="-556.55" y2="331.94" xlink:href="#_ÂÁ_Ï_ÌÌ_È_ËÂÌÚ_8"/><linearGradient id="_ÂÁ_Ï_ÌÌ_È_ËÂÌÚ_18-2" x1="-580.44" y1="359.57" x2="-562.53" y2="328.56" xlink:href="#_ÂÁ_Ï_ÌÌ_È_ËÂÌÚ_18"/></defs><g class="cls-1"><g id="Layer_2" data-name="Layer 2"><g id="Layer_1-2" data-name="Layer 1"><path class="cls-2" d="M425.22,146.89a.54.54,0,0,1,0-.27,7.92,7.92,0,0,1-1.27.79,4.24,4.24,0,0,0-2.78.46,1.2,1.2,0,0,0-.64,1.23,6.93,6.93,0,0,0,.36,1.8,7,7,0,0,1,.64,2.88c-.1,1.07-.44,2.1-.64,3.16-.06.31-.3.86-.19,1.16s.86.66,1.21.89c.56.37,1.12.75,1.69,1.09s.63.39.88-.24c.61-1.56,1.37-3.07,2-4.64a5.73,5.73,0,0,0-.15-2.63c-.13-1-.29-2-.46-3-.09-.51-.19-1-.29-1.5C425.49,147.93,425.29,147.27,425.22,146.89Z"/><path class="cls-3" d="M425.12,133.73c7-1.39,7.63,7.52,5.69,9.27-4.8,4.33-8.62,6.43-11,7.32-3.54,1.33-5.67,2.24-7.7-4.28C411.49,144,418.73,135,425.12,133.73Z"/><polygon class="cls-4" points="41.75 158.06 60.15 148.6 127.69 193.51 311.82 318.17 328.44 307.71 385.28 345.33 341.43 179.45 40.09 106.42 41.75 158.06"/><path class="cls-5" d="M55,156.14l17.82,31.39,2.75,4.84,19.59,29.45s10.46-6.11,18.63-10.85c.84-.47,1.64-.94,2.38-1.37l.12-.06c4.39-3,7.08-8.89,7.08-17a42.55,42.55,0,0,0-.55-6.67,61.13,61.13,0,0,0-8.72-22.21c-4.8-7.65-11.1-14.26-18-18.24-6.72-3.88-12.88-4.63-17.66-2.77l-2.77,1.72C68.19,148.86,55,156.14,55,156.14Z"/><path class="cls-5" d="M70,189.15l5.58,3.22,18,10.4,29.22-16.87a61.13,61.13,0,0,0-8.72-22.21L72.84,187.53Z"/><path class="cls-6" d="M120.65,194.24c0-17.3-12.23-38.39-27.31-47.1Z"/><path class="cls-4" d="M90.79,148.52c-8.11-4.69-15.4-4.83-20.4-1.28-.23.17-.52.36-.84.57,4.86-2.33,11.36-1.73,18.5,2.39,15.08,8.71,27.31,29.8,27.31,47.11,0,8-2.66,13.8-7,16.85l1.73-1c4.94-2.81,8-8.88,8-17.54C118.1,178.32,105.87,157.23,90.79,148.52Z"/><path class="cls-4" d="M85.84,151.39c-8.11-4.68-15.4-4.83-20.4-1.27l-.84.57c4.87-2.34,11.36-1.74,18.5,2.39,15.09,8.7,27.31,29.79,27.31,47.1,0,8-2.66,13.81-7,16.85l1.73-1c4.95-2.82,8-8.89,8-17.54C113.15,181.19,100.93,160.1,85.84,151.39Z"/><path class="cls-4" d="M80.9,154.27c-8.12-4.69-15.4-4.84-20.41-1.28-.23.17-.52.36-.84.57,4.87-2.34,11.37-1.73,18.51,2.39,15.08,8.71,27.3,29.8,27.3,47.1,0,8-2.65,13.81-7,16.85l1.74-1c4.94-2.82,8-8.89,8-17.54C108.2,184.06,96,163,80.9,154.27Z"/><path class="cls-7" d="M48.06,173.07c0,17.31,12.23,38.39,27.31,47.1s27.31,1.74,27.31-15.57-12.23-38.39-27.31-47.1S48.06,155.77,48.06,173.07Z"/><ellipse class="cls-8" cx="75.61" cy="189.6" rx="21.78" ry="37.73" transform="matrix(0.86, -0.5, 0.5, 0.86, -85.35, 64.08)"/><path class="cls-4" d="M74.54,219.1c15.08,8.71,27.3,1.74,27.3-15.57,0-11.12-5-23.81-12.67-33.76,8.08,10.1,13.51,23.3,13.51,34.83,0,17.31-12.23,24.28-27.31,15.57a51.38,51.38,0,0,1-14.63-13.33A50.37,50.37,0,0,0,74.54,219.1Z"/><path class="cls-9" d="M53.43,176.17c0,13.9,9.82,30.85,21.94,37.85s21.94,1.39,21.94-12.52-9.82-30.85-21.94-37.85S53.43,162.26,53.43,176.17Z"/><path class="cls-10" d="M58.59,179.15c0,10.63,7.51,23.59,16.78,28.94s16.78,1.07,16.78-9.57-7.51-23.59-16.78-28.94S58.59,168.51,58.59,179.15Z"/><path class="cls-11" d="M58.59,179.15c0,10.63,7.51,23.59,16.78,28.94s16.78,1.07,16.78-9.57-7.51-23.59-16.78-28.94S58.59,168.51,58.59,179.15Zm1.73.59c0-9.91,7-13.9,15.62-8.91s15.63,17,15.63,26.95-7,13.9-15.63,8.92S60.32,189.64,60.32,179.74Z"/><path class="cls-12" d="M63.29,180.29c0,8.75,6.18,19.41,13.8,23.81,7,4.07,12.87,1.36,13.7-6a15.88,15.88,0,0,0,.1-1.87c0-5.9-2.81-12.68-7-17.81a25.2,25.2,0,0,0-6.81-6C69.47,168,63.29,171.55,63.29,180.29Z"/><path class="cls-13" d="M78.25,175.79c-4.54-2.62-10.27-2.62-14.16-.35,1.9-5,7-6.48,13-3S88,183,90,190.07C87.54,184.16,83.21,178.65,78.25,175.79Z"/><path class="cls-4" d="M70.43,182.2c0,6.65,4.7,14.76,10.5,18.11,4.53,2.61,8.39,1.56,9.86-2.21a15.88,15.88,0,0,0,.1-1.87c0-5.9-2.81-12.68-7-17.81a17.46,17.46,0,0,0-3-2.21C75.13,172.87,70.43,175.55,70.43,182.2Z"/><path class="cls-14" d="M88.9,191.53c0,.21,0,.42,0,.63a7.62,7.62,0,0,1-.79,3.17h0c-1.41,2.68-4.5,3.33-8.08,1.27-4.93-2.85-8.92-9.72-8.92-15.37,0-3,1.17-5.11,3-5.9a.85.85,0,0,1,.22-.09,5.9,5.9,0,0,1,4.38.28,10.37,10.37,0,0,1,1.3.64c3.74,2.16,6.93,6.66,8.26,11.16a16.5,16.5,0,0,1,.56,2.78A13.83,13.83,0,0,1,88.9,191.53Z"/><path class="cls-15" d="M88.33,192c0,.21,0,.42,0,.62a7.54,7.54,0,0,1-.79,3.17h0c-1.41,2.69-4.49,3.33-8.08,1.27-4.93-2.84-8.91-9.72-8.91-15.36,0-3,1.16-5.11,3-5.9a.72.72,0,0,1,.22-.1,6,6,0,0,1,4.38.29,11,11,0,0,1,1.3.63c3.74,2.17,6.94,6.66,8.26,11.17a15.57,15.57,0,0,1,.56,2.78A13.67,13.67,0,0,1,88.33,192Z"/><polygon class="cls-14" points="83.16 189.22 85.3 193.48 83.66 194.53 75.42 179.15 77.06 178.11 83.16 189.22"/><polygon class="cls-16" points="79.99 187.19 83.66 194.53 81.88 195.31 73.78 180.36 75.42 179.15 79.99 187.19"/><path class="cls-10" d="M85.29,187.72a3.08,3.08,0,0,1-.87,2.4,17,17,0,0,1-2.57,1.61l-5.83-10a14.26,14.26,0,0,0,2-1.19c.75-.63,1.9-.65,3.19.1A9,9,0,0,1,85.29,187.72Z"/><path class="cls-16" d="M83.08,189.08c0,2.6-1.84,3.65-4.1,2.34a9,9,0,0,1-4.11-7.08c0-2.6,1.84-3.65,4.11-2.34A9.06,9.06,0,0,1,83.08,189.08Z"/><path class="cls-10" d="M80.93,187.78a1.3,1.3,0,0,1-.37,1,7.07,7.07,0,0,1-1.09.69L77,185.24a6.13,6.13,0,0,0,.84-.5,1.14,1.14,0,0,1,1.35,0A3.83,3.83,0,0,1,80.93,187.78Z"/><path class="cls-17" d="M80,188.35c0,1.1-.78,1.55-1.74,1a3.82,3.82,0,0,1-1.74-3c0-1.1.78-1.54,1.74-1A3.85,3.85,0,0,1,80,188.35Z"/><path class="cls-18" d="M91.74,197.91c0,10-7,14-15.72,9s-15.71-17.15-15.71-27.11,7-14,15.71-9S91.74,188,91.74,197.91Z"/><path class="cls-19" d="M61.84,180.66c0,9,6.35,19.93,14.18,24.45,6.89,4,12.64,1.65,13.9-5.11a10.24,10.24,0,0,0,.21-1.4v-.07c0-.09,0-.18,0-.29,0-.39,0-.79,0-1.22v-.47a25.65,25.65,0,0,0-1.43-7.46c0-.07-.06-.15-.08-.22a30.8,30.8,0,0,0-1.72-4v0q-.25-.5-.54-1c-.12-.24-.25-.48-.38-.7A32.46,32.46,0,0,0,83.24,179,27.86,27.86,0,0,0,81,176.52l-.14-.14-.63-.59v0a22.39,22.39,0,0,0-3.82-3l-.35-.22a.13.13,0,0,1-.07,0,12.89,12.89,0,0,0-1.16-.6l-.16-.08c-.24-.12-.46-.22-.68-.31a13.8,13.8,0,0,0-2.41-.75,9,9,0,0,0-1.67-.18C65.14,170.48,61.84,174.17,61.84,180.66Z"/><path class="cls-20" d="M89.07,195.69c0,8.05-5.69,11.29-12.7,7.24S63.66,189.07,63.66,181s5.69-11.29,12.71-7.24S89.07,187.64,89.07,195.69Z"/><path class="cls-21" d="M70.32,176.45c0,8.06,5.7,17.87,12.72,21.91a11.54,11.54,0,0,0,5.3,1.71,6.29,6.29,0,0,0,1.58-.07,10.24,10.24,0,0,0,.21-1.4v-.07c0-.11,0-.22,0-.33A11.37,11.37,0,0,0,90.2,197v-.47a25.65,25.65,0,0,0-1.43-7.46c0-.07-.06-.15-.08-.22a30.8,30.8,0,0,0-1.72-4v0q-.25-.5-.54-1c-.12-.24-.25-.48-.38-.7A32.46,32.46,0,0,0,83.24,179,27.86,27.86,0,0,0,81,176.52l-.14-.14-.63-.59v0a22.39,22.39,0,0,0-3.82-3l-.35-.22a.13.13,0,0,1-.07,0,12.89,12.89,0,0,0-1.16-.6l-.16-.08c-.24-.12-.46-.22-.68-.31a13.8,13.8,0,0,0-2.41-.75,9,9,0,0,0-.55,1.21,4.85,4.85,0,0,0-.2.61A12.53,12.53,0,0,0,70.32,176.45Z"/><path class="cls-22" d="M68.23,182.48c0,5.86,4.14,13,9.25,16s9.25.59,9.25-5.27-4.14-13-9.25-15.95S68.23,176.62,68.23,182.48Z"/><path class="cls-23" d="M67.32,183.55c0,5.86,4.14,13,9.25,15.95s9.25.58,9.25-5.28-4.14-13-9.25-15.95S67.32,177.69,67.32,183.55Z"/><path class="cls-24" d="M77,188.15l.31.35.63.75,1.25,1.44.34.13.67.27L89,194.51l1,.4.18,1.64a25.65,25.65,0,0,0-1.43-7.46l-.08.4-.4-.09-.26-.05-7.64-1.75-.29-.07-.33-.08ZM80,189.46l-.37-.39.55-.51,7.77,2,.74,1.21,0,0v0l.13.22,0,.36v.24l-.46-.13-7.68-2.31Z"/><path class="cls-24" d="M77,188.15l1,.2,1.11.22.27.06.28-.29.75-.74,4.45-4.52.25-.26.06,0,.37.31.91.74,0,0-.42-.73A32.46,32.46,0,0,0,83.24,179l-.77,0-.52,0-.51-1.18-.33-.75.11.51.13.66-3.48,5.77-.31.51ZM83.92,181l-4.36,5.65-.44,0-.62-.07-.13-1.13,3.53-5.1.44-.64,1,.58Z"/><path class="cls-24" d="M71.92,173.42l2.56,10.51.29.49.5.83,1,1.71.43.7.29.49.55-.9.57-1L78,185.19l-.13-1.08-.11-.75-1.12-8.69-.07-.5,0-.29-.09-1-.35-.22a.13.13,0,0,1-.07,0,12.89,12.89,0,0,0-1.16-.6l-2-.26-.84,0,0,.44Zm1.75.31.09,0,.57-.29.72.13,1.32,10.11.44.78-.26.52-.7-1,0-.06Z"/><path class="cls-24" d="M64.38,173.79l1.31,3.46,7.36,8.58,4,2.32L76.27,185l-8-11.26.4-2.08-.9.17Zm1.62,0,1.33.89,6.55,9.65,1,.94-.91-.39-7-8.59Z"/><path class="cls-24" d="M63.66,178.51l-1,.69.38,5.5,1.25,4.65,1-.69,1.12-1.46,7.87,1.64,2.75-.69-2.19-2.55-9.75-3.82Zm.61,5.54,1-.41,8.13,2.44,1,1.13-.56.52-7.76-2Z"/><path class="cls-24" d="M66.39,191.49l-1,.69L68.77,198l3.44,3.31,1-.69-.5-2.68,3.77-6.27.54-3.52-2.34-.49-5.78,5.86ZM70,196.76l.11-1.47,4.36-5.67,1.06.14.13,1.12-4,5.74Z"/><path class="cls-24" d="M75.35,202.51l-1,.69,4.36,2.52,3.66.25,1-.69-1.83-2.34L79,192.44l-2-4.29L75.91,190l1.57,12.1Zm3.66.25L77,192.3l.46-1,.14,1.12,2.14,10.14.09,1.81Z"/><path class="cls-24" d="M77,192.3l8.75,10.22-.5,2.6,3.38-1.93,1.15-3.29-2.09-.63-7.36-8.58L77,188.15Zm2.13-1.23.78,1,6.71,8.31,1.4,2.18-1.33-.89-7.14-9.12Z"/><path class="cls-25" d="M76,188.83l2.18,2.55L89,195.61l0,.07v0l1.08,2.5,0,0c0-.39,0-.79,0-1.22v-.47a25.65,25.65,0,0,0-1.43-7.46c0-.07-.06-.15-.08-.22l-.4.53-.17.22-.42.55-8.06-1.83-.28-.06-.59-.13-.79.2-.64.15Zm3.54,2-1-1,.57-.52.81.21,6.94,1.81,1.42,1.25.48.41-1,.4-7.53-2.24-.59-.18Z"/><path class="cls-25" d="M76,188.83l2,.42.38.08.74-.76.27-.29.74-.75,4.48-4.65.26.2.79.64L87,184.81v0l.13.09-.63-1.07-.42-.73A32.46,32.46,0,0,0,83.24,179,27.86,27.86,0,0,0,81,176.52l-.14-.14-.63-.59v0l.22,1.1.3,1.54-3,4.89-.9,1.47-.29.47L76.31,187Zm7-8.61-.11,1.47-3.81,4.92-.57.75-1-.11-.09,0-.11-1.12.62-.92,3.35-4.83.55-.05Z"/><path class="cls-25" d="M69.94,170.65l.62,1.37.3.63L71.5,174,74,184.55l2,4.28.72-1.17.4-.68-.28-2.15,0-.41-.64-5-.78-6.19,0-.51.75-.15a.13.13,0,0,1-.07,0,12.89,12.89,0,0,0-1.16-.6l-.16-.08c-.24-.12-.46-.22-.68-.31a13.8,13.8,0,0,0-2.41-.75A9,9,0,0,0,69.94,170.65Zm4.83,13.77-2.09-10,.49-1.87.59,1.13.28.54,1.81,9.7.15.75-.46.95-.27-.38-.46-.68Z"/><path class="cls-25" d="M63.23,177.08l2.09.63,7.36,8.58L76,188.84l-.75-3.12-8-11.26.5-2.6-3.38,1.93ZM65,174.43l1.33.89,7.14,9.12.42,1.47-.91-.39-7-8.59Z"/><path class="cls-25" d="M62.66,179.2v5.48l1.63,4.67,1.11-1.46,7.88,1.64,2.74-.69-2.18-2.55-9.76-3.82Zm.61,5.54,1-.41,8.13,2.44,1,1.13-.56.52-7.76-2Z"/><path class="cls-25" d="M65.39,192.18,68.77,198l3.44,3.31-.5-2.68,3.77-6.27.54-3.52-2.33-.49-5.79,5.86ZM69,197.45l.1-1.47,4.36-5.67,1.07.14.13,1.12-4,5.74Z"/><path class="cls-25" d="M76,202.89l-1.66.31L79.12,206h3.25l-1.83-2.34L78,193.13l-2-4.29L74.9,190.7l1.58,12.1Zm2,.56L76,193l.46-.94.73,1.07,2.15,10.14-.51,1.86Z"/><path class="cls-25" d="M76.78,192l8,11.26-.5,2.6a7.46,7.46,0,0,0,3.4-1.39,5,5,0,0,0,1.7-3.51L86.73,200l-7.37-8.58L76,188.84Zm1.39-.19.91.39,7,8.6,1,2.49-1.33-.89-7.13-9.12Z"/><path class="cls-26" d="M79.57,190.88c0,2.25-1.59,3.15-3.55,2a7.81,7.81,0,0,1-3.54-6.11c0-2.25,1.59-3.15,3.54-2A7.81,7.81,0,0,1,79.57,190.88Z"/><path class="cls-27" d="M73.32,187.47a5.19,5.19,0,0,0,2.36,4.07c1.3.75,2.36.15,2.36-1.35a5.23,5.23,0,0,0-2.36-4.07C74.37,185.37,73.32,186,73.32,187.47Z"/><path class="cls-28" d="M74.87,187.66a3,3,0,0,0,1.39,2.39c.77.44,1.39.09,1.39-.79a3,3,0,0,0-1.39-2.39C75.49,186.42,74.87,186.78,74.87,187.66Z"/><path class="cls-5" d="M325,311.85l17.82,31.39,2.75,4.84,19.59,29.45s10.46-6.11,18.63-10.85c.84-.47,1.64-.94,2.38-1.37l.12-.06c4.39-3,7.08-8.88,7.08-17a41.19,41.19,0,0,0-.56-6.66,60.93,60.93,0,0,0-8.72-22.22c-4.8-7.65-11.09-14.26-18-18.24-6.72-3.87-12.88-4.63-17.66-2.77-.78.5-1.72,1.07-2.77,1.73C338.14,304.57,325,311.85,325,311.85Z"/><path class="cls-5" d="M340,344.86l5.58,3.22,18,10.4,29.21-16.86a60.93,60.93,0,0,0-8.72-22.22L342.8,343.24Z"/><path class="cls-6" d="M390.61,350c0-17.3-12.23-38.39-27.31-47.1Z"/><path class="cls-4" d="M360.75,304.23c-8.11-4.68-15.4-4.83-20.4-1.27l-.84.57c4.86-2.34,11.36-1.74,18.5,2.38,15.08,8.71,27.31,29.8,27.31,47.11,0,8-2.66,13.81-7,16.85l1.73-1c4.94-2.82,8-8.89,8-17.55C388.06,334,375.83,312.94,360.75,304.23Z"/><path class="cls-4" d="M355.8,307.1c-8.11-4.68-15.4-4.83-20.4-1.27l-.84.57c4.86-2.34,11.36-1.73,18.5,2.39,15.08,8.71,27.31,29.8,27.31,47.1,0,8-2.66,13.81-7,16.85l1.73-1c4.94-2.82,8-8.89,8-17.54C383.11,336.9,370.88,315.81,355.8,307.1Z"/><path class="cls-4" d="M350.85,310c-8.11-4.69-15.4-4.84-20.4-1.28-.23.17-.52.36-.84.57,4.87-2.34,11.36-1.73,18.5,2.39,15.09,8.71,27.31,29.8,27.31,47.11,0,8-2.65,13.8-7,16.85l1.73-1c4.95-2.82,8-8.89,8-17.54C378.16,339.77,365.94,318.68,350.85,310Z"/><path class="cls-7" d="M318,328.78c0,17.31,12.23,38.39,27.31,47.1s27.31,1.74,27.31-15.57-12.23-38.39-27.31-47.1S318,311.48,318,328.78Z"/><ellipse class="cls-8" cx="345.57" cy="345.31" rx="21.78" ry="37.73" transform="translate(-127.03 221.61) rotate(-30.31)"/><path class="cls-4" d="M344.5,374.81c15.08,8.71,27.3,1.74,27.3-15.56,0-11.13-5.06-23.81-12.67-33.77,8.08,10.1,13.51,23.31,13.51,34.83,0,17.31-12.23,24.28-27.31,15.57a51.24,51.24,0,0,1-14.63-13.33A50.21,50.21,0,0,0,344.5,374.81Z"/><path class="cls-9" d="M323.39,331.88c0,13.9,9.82,30.85,21.94,37.85s21.94,1.39,21.94-12.51-9.82-30.86-21.94-37.85S323.39,318,323.39,331.88Z"/><path class="cls-10" d="M328.55,334.86c0,10.63,7.51,23.59,16.78,28.94s16.78,1.07,16.78-9.56-7.51-23.6-16.78-28.95S328.55,324.22,328.55,334.86Z"/><path class="cls-11" d="M328.55,334.86c0,10.63,7.51,23.59,16.78,28.94s16.78,1.07,16.78-9.56-7.51-23.6-16.78-28.95S328.55,324.22,328.55,334.86Zm1.72.59c0-9.91,7-13.89,15.63-8.91s15.63,17,15.63,27-7,13.89-15.63,8.91S330.27,345.35,330.27,335.45Z"/><path class="cls-12" d="M333.25,336c0,8.75,6.18,19.4,13.8,23.8,7.05,4.07,12.87,1.36,13.7-6a16.17,16.17,0,0,0,.1-1.88c0-5.9-2.81-12.67-7-17.81a25.16,25.16,0,0,0-6.81-6C339.43,323.73,333.25,327.26,333.25,336Z"/><path class="cls-13" d="M348.21,331.5c-4.54-2.62-10.27-2.62-14.16-.35,1.9-5,7-6.48,13-3s10.91,10.54,12.89,17.64C357.5,339.87,353.17,334.36,348.21,331.5Z"/><path class="cls-4" d="M340.39,337.91c0,6.65,4.7,14.76,10.5,18.11,4.53,2.61,8.39,1.56,9.86-2.2a16.17,16.17,0,0,0,.1-1.88c0-5.9-2.81-12.67-7-17.81a16.88,16.88,0,0,0-3-2.2C345.09,328.58,340.39,331.26,340.39,337.91Z"/><path class="cls-14" d="M358.86,347.24c0,.21,0,.43,0,.63a7.78,7.78,0,0,1-.79,3.17h0c-1.4,2.69-4.49,3.33-8.07,1.27C345,349.47,341,342.6,341,337c0-3,1.16-5.1,3-5.9a1.09,1.09,0,0,1,.23-.09,6,6,0,0,1,4.38.28,10.37,10.37,0,0,1,1.3.64c3.74,2.17,6.93,6.66,8.25,11.17a14.58,14.58,0,0,1,.56,2.78A11.24,11.24,0,0,1,358.86,347.24Z"/><path class="cls-15" d="M358.29,347.67c0,.21,0,.42,0,.62a7.54,7.54,0,0,1-.79,3.17v0c-1.41,2.68-4.5,3.33-8.08,1.26-4.93-2.84-8.92-9.71-8.92-15.36,0-3.05,1.17-5.11,3-5.9a1.07,1.07,0,0,1,.22-.1,6,6,0,0,1,4.38.29,11,11,0,0,1,1.3.63c3.74,2.17,6.94,6.67,8.26,11.17a16.5,16.5,0,0,1,.56,2.78A13.67,13.67,0,0,1,358.29,347.67Z"/><polygon class="cls-14" points="353.12 344.93 355.25 349.19 353.62 350.24 345.38 334.86 347.02 333.82 353.12 344.93"/><polygon class="cls-16" points="349.95 342.9 353.62 350.24 351.84 351.02 343.74 336.07 345.38 334.86 349.95 342.9"/><path class="cls-10" d="M355.25,343.44a3.11,3.11,0,0,1-.87,2.4,17.56,17.56,0,0,1-2.57,1.6l-5.83-10a14.26,14.26,0,0,0,2-1.19c.75-.63,1.9-.65,3.19.1A9,9,0,0,1,355.25,343.44Z"/><path class="cls-16" d="M353,344.79c0,2.6-1.84,3.65-4.11,2.34a9.06,9.06,0,0,1-4.1-7.08c0-2.6,1.84-3.65,4.1-2.34A9,9,0,0,1,353,344.79Z"/><path class="cls-10" d="M350.89,343.49a1.34,1.34,0,0,1-.37,1,7.6,7.6,0,0,1-1.09.68L347,341a6.13,6.13,0,0,0,.84-.5,1.14,1.14,0,0,1,1.35,0A3.83,3.83,0,0,1,350.89,343.49Z"/><path class="cls-17" d="M350,344.06c0,1.11-.78,1.55-1.74,1a3.85,3.85,0,0,1-1.74-3c0-1.11.78-1.55,1.74-1A3.85,3.85,0,0,1,350,344.06Z"/><path class="cls-18" d="M361.7,353.62c0,10-7,14-15.72,9s-15.72-17.15-15.72-27.11,7-14,15.72-9S361.7,343.66,361.7,353.62Z"/><path class="cls-29" d="M331.8,336.37c0,9,6.35,19.93,14.18,24.45,6.89,4,12.64,1.65,13.9-5.11a10.26,10.26,0,0,0,.2-1.4v-.07c0-.09,0-.18,0-.29,0-.39,0-.79,0-1.21v-.48a26.05,26.05,0,0,0-1.43-7.46c0-.07-.06-.15-.08-.22a32.22,32.22,0,0,0-1.72-4v0q-.26-.5-.54-1c-.13-.24-.25-.48-.38-.7a32.46,32.46,0,0,0-2.81-4.08,27.92,27.92,0,0,0-2.21-2.51l-.14-.15-.63-.59v0a22.39,22.39,0,0,0-3.82-3c-.11-.07-.24-.14-.35-.22l-.07,0c-.39-.22-.79-.44-1.16-.61a.87.87,0,0,0-.17-.07c-.23-.13-.45-.22-.67-.32a14.71,14.71,0,0,0-2.41-.75,9,9,0,0,0-1.67-.18C335.1,326.19,331.8,329.88,331.8,336.37Z"/><path class="cls-30" d="M359,351.4c0,8.05-5.69,11.29-12.71,7.24s-12.7-13.86-12.7-21.91,5.69-11.29,12.7-7.24S359,343.35,359,351.4Z"/><path class="cls-21" d="M340.28,332.16c0,8.07,5.7,17.88,12.71,21.92a11.71,11.71,0,0,0,5.31,1.7,6.31,6.31,0,0,0,1.58-.07,10.26,10.26,0,0,0,.2-1.4v-.07a1.83,1.83,0,0,0,0-.33,11.31,11.31,0,0,0,.06-1.17v-.48a26.05,26.05,0,0,0-1.43-7.46c0-.07-.06-.15-.08-.22a32.22,32.22,0,0,0-1.72-4v0q-.26-.5-.54-1c-.13-.24-.25-.48-.38-.7a32.46,32.46,0,0,0-2.81-4.08,27.92,27.92,0,0,0-2.21-2.51l-.14-.15-.63-.59v0a22.39,22.39,0,0,0-3.82-3c-.11-.07-.24-.14-.35-.22l-.07,0c-.39-.22-.79-.44-1.16-.61a.87.87,0,0,0-.17-.07c-.23-.13-.45-.22-.67-.32a14.71,14.71,0,0,0-2.41-.75,9,9,0,0,0-.55,1.21,3.63,3.63,0,0,0-.2.61A12.53,12.53,0,0,0,340.28,332.16Z"/><path class="cls-22" d="M338.19,338.19c0,5.86,4.14,13,9.25,15.95s9.25.59,9.25-5.27-4.14-13-9.25-15.95S338.19,332.33,338.19,338.19Z"/><path class="cls-23" d="M337.28,339.26c0,5.86,4.14,13,9.25,15.95s9.25.59,9.25-5.27-4.14-13-9.25-15.95S337.28,333.4,337.28,339.26Z"/><path class="cls-24" d="M347,343.86l.31.35.62.75,1.25,1.44.35.13.66.27,8.78,3.42,1,.4.19,1.64a26.05,26.05,0,0,0-1.43-7.46l-.08.4-.4-.09-.26-.05-7.64-1.75-.29-.07-.34-.07Zm2.92,1.31-.37-.39.55-.51,7.77,2,.74,1.21,0,0v0l.12.22v.6l-.46-.13-7.68-2.31Z"/><path class="cls-24" d="M347,343.86l.95.2,1.11.23.27,0,.28-.29.75-.74,4.44-4.52.26-.25.06-.06.36.31.92.74,0,0-.42-.74a32.46,32.46,0,0,0-2.81-4.08l-.77,0-.52,0-.51-1.18-.33-.75.11.51.12.66-3.47,5.77-.31.52Zm6.89-7.14-4.36,5.66-.44-.06-.62-.07-.13-1.12,3.53-5.11.44-.64,1,.58Z"/><path class="cls-24" d="M341.88,329.13l2.55,10.51.3.49.49.83,1,1.71.42.7.3.49.55-.9.57-1-.15-1.08-.13-1.09-.11-.75-1.12-8.69-.07-.5,0-.29-.09-1c-.11-.07-.24-.14-.35-.22l-.07,0c-.39-.22-.79-.44-1.16-.61l-1.95-.26-.84,0,0,.45Zm1.75.31.09,0,.57-.3.71.13,1.32,10.11.45.78-.26.52-.7-1,0-.06Z"/><path class="cls-24" d="M334.34,329.5l1.31,3.46,7.36,8.58,4,2.32-.76-3.12-8-11.26.4-2.08-.9.17Zm1.62-.05,1.32.89,6.56,9.65,1,.94-.91-.38-7-8.6Z"/><path class="cls-24" d="M333.62,334.22l-1,.69.38,5.5,1.24,4.65,1-.69,1.12-1.45,7.87,1.63,2.75-.69-2.19-2.55L335,337.49Zm.61,5.54,1-.41,8.13,2.44,1.05,1.13-.56.53-7.76-2Z"/><path class="cls-24" d="M336.35,347.2l-1,.69,3.37,5.82,3.45,3.32,1-.69-.51-2.69,3.78-6.27.54-3.52-2.34-.48-5.79,5.85Zm3.63,5.27.11-1.46,4.36-5.68,1.06.14.13,1.12-4,5.74Z"/><path class="cls-24" d="M345.31,358.22l-1,.69,4.37,2.52,3.66.25,1-.69-1.83-2.34L349,348.15l-2-4.29-1.12,1.86,1.57,12.1Zm3.66.25L347,348l.46-.94.14,1.11,2.14,10.14.09,1.81Z"/><path class="cls-24" d="M347,348l8.75,10.23-.5,2.59,3.38-1.92,1.15-3.3-2.09-.62-7.36-8.59L347,343.86Zm2.13-1.22.77,1,6.72,8.31,1.39,2.18-1.32-.89-7.14-9.12Z"/><path class="cls-25" d="M346,344.54l2.18,2.56L359,351.32l0,.07v0l1.08,2.5,0,0c0-.39,0-.79,0-1.21v-.48a26.05,26.05,0,0,0-1.43-7.46c0-.07-.06-.15-.08-.22l-.4.53-.17.22-.42.55-8.06-1.83-.28-.06-.59-.13-.79.2-.64.15Zm3.54,2-1-1,.57-.52.81.21,6.94,1.82,1.42,1.24.47.41-1,.4-7.54-2.24-.58-.18Z"/><path class="cls-25" d="M346,344.54l1.94.42.39.08.74-.75.27-.3.74-.75,4.48-4.65.25.2.79.65,1.35,1.08v0l.12.09-.62-1.06-.42-.74a32.46,32.46,0,0,0-2.81-4.08,27.92,27.92,0,0,0-2.21-2.51l-.14-.15-.63-.59v0l.22,1.1.3,1.54-3,4.89-.9,1.47-.29.48-.26,1.65Zm7-8.61-.11,1.47-3.8,4.92-.57.75-1-.11-.09,0-.11-1.12.62-.91,3.34-4.84.56-.05Z"/><path class="cls-25" d="M339.9,326.36l.62,1.38.3.62.64,1.4,2.53,10.5,2,4.28.71-1.17.41-.68-.28-2.15-.05-.41-.65-5-.77-6.19-.05-.51.75-.15-.07,0c-.39-.22-.79-.44-1.16-.61a.87.87,0,0,0-.17-.07c-.23-.13-.45-.22-.67-.32a14.71,14.71,0,0,0-2.41-.75A9,9,0,0,0,339.9,326.36Zm4.83,13.77-2.1-10,.5-1.87.59,1.14.27.53,1.82,9.7.15.75-.46,1-.28-.39-.45-.68Z"/><path class="cls-25" d="M333.19,332.79l2.08.63,7.37,8.58,3.34,2.55-.75-3.12-8-11.26.5-2.6-3.38,1.93Zm1.76-2.65,1.33.89,7.14,9.12.42,1.47-.92-.38-7-8.6Z"/><path class="cls-25" d="M332.62,334.91v5.48l1.62,4.67,1.12-1.45,7.88,1.63,2.74-.69L343.8,342,334,338.18Zm.61,5.54,1-.41,8.13,2.44,1.05,1.13-.55.53-7.76-2Z"/><path class="cls-25" d="M335.35,347.89l3.37,5.82,3.45,3.32-.5-2.69,3.77-6.27.54-3.52-2.33-.49-5.79,5.86Zm3.63,5.27.1-1.46,4.36-5.68,1.07.14.12,1.12-4,5.74Z"/><path class="cls-25" d="M346,358.6l-1.66.31,4.78,2.76h3.25l-1.83-2.34L348,348.84l-2-4.29-1.12,1.86,1.58,12.1Zm2,.56-2-10.46.46-.94.73,1.06L349.33,359l-.5,1.86Z"/><path class="cls-25" d="M346.74,347.66l8,11.27-.5,2.59a7.34,7.34,0,0,0,3.4-1.39,5,5,0,0,0,1.7-3.51l-2.66-.94-7.37-8.59L346,344.55Zm1.39-.18.91.38,7,8.6,1,2.49-1.33-.89-7.14-9.12Z"/><path class="cls-26" d="M349.53,346.59c0,2.25-1.59,3.15-3.55,2a7.79,7.79,0,0,1-3.54-6.11c0-2.24,1.58-3.15,3.54-2A7.81,7.81,0,0,1,349.53,346.59Z"/><path class="cls-27" d="M343.28,343.18a5.17,5.17,0,0,0,2.36,4.07c1.3.75,2.36.15,2.36-1.34a5.23,5.23,0,0,0-2.36-4.08C344.33,341.08,343.28,341.68,343.28,343.18Z"/><path class="cls-28" d="M344.83,343.37a3,3,0,0,0,1.39,2.39c.77.45,1.39.09,1.39-.79a3,3,0,0,0-1.39-2.39C345.45,342.13,344.83,342.49,344.83,343.37Z"/><path class="cls-31" d="M526.66,239l-.21,3.81-1.08,20-.3,5.57-6.85,14.2L505,277.36l-.18-.08c-1.77-13-9.8-27.61-20.65-38.37l-26-15c-12.22-2-20.85,5-21,18.9,0,1,0,1.94.12,2.92L263.19,145.23l-25-14.43-3.06-1.94,0,0c.07-.84.1-1.71.1-2.61-.16-14.11-8.79-31.07-21-43.18l-26-15c-11.82-1.94-20.29,4.55-21,17.59l0,0L139.64,59.38l-2-13-1.31-8.33,1.55-23.71,1.4-6.25L151.73,0l55.72,6.09s41.26,19.79,70.61,36.13C307.18,58.43,349,85,349.63,85.4h0l5.93,6.45L354.12,93l66.69,67.91,7.38,1.84,94,71.21Z"/><path class="cls-32" d="M526.66,239l-.21,3.82-110.74-71.2L216.06,56.3,137.85,14.37l1.4-6.25L151.73,0l55.72,6.09s41.26,19.79,70.61,36.13,71.58,43.19,71.58,43.19l5.93,6.45L354.12,93l66.69,67.91Z"/><path class="cls-33" d="M188.22,68.06c-11.83-1.94-20.3,4.55-21,17.59l0,0L139.64,59.38,136.3,38.09Z"/><path class="cls-33" d="M437.16,242.82c0,1,0,1.94.12,2.92L238.2,130.8l-3.06-1.94,0,0c.06-.84.1-1.7.11-2.6-.17-14.11-8.8-31.07-21-43.17l244,140.86C446,221.92,437.33,228.91,437.16,242.82Z"/><path class="cls-33" d="M525.38,262.72l-.3,5.57-6.86,14.2L505,277.36l-.18-.09c-1.77-13-9.79-27.6-20.65-38.35Z"/><polygon class="cls-33" points="525.08 268.29 518.22 282.49 473.3 319.79 392.76 354.92 395.34 343.2 525.08 268.29"/><path class="cls-33" d="M396.71,317.68l-1.37,25.52,45.37-19.26A252.91,252.91,0,0,0,501,287.74l24.06-19.45,1.37-25.52-27.71,22.41a220.06,220.06,0,0,1-52.33,31.41Z"/><path class="cls-2" d="M524.4,246.78l-.09,1.83-.16,2.95-.11,2-.16,3-.11,2-.16,2.95-.11,2-.15,3-.05.86-23.43,18.94a251.2,251.2,0,0,1-33.26,22.74c-1,.6-2.1,1.19-3.15,1.77A250.25,250.25,0,0,1,440,322.26l-41.64,17.67-.16.07-.1,0-.16.07-.11,0-.15.07-.11,0-.16.07-.09,0,1.15-21.46,48.65-20.64q9.28-3.93,18.14-8.69c1.05-.56,2.09-1.13,3.13-1.71a220.48,220.48,0,0,0,31.5-21.27Z"/><path class="cls-34" d="M515.58,255.66l-15.69,12.68a220.61,220.61,0,0,1-31.5,21.29c-1,.57-2.08,1.15-3.13,1.7q-8.85,4.76-18.14,8.7L405.71,317.6a6.75,6.75,0,0,1,1.18,2.31l40.23-17.07q9.28-3.93,18.14-8.69c1.05-.55,2.09-1.13,3.13-1.7a221.38,221.38,0,0,0,31.5-21.28L517,257.32A16,16,0,0,1,515.58,255.66Z"/><path class="cls-3" d="M517.28,259.06l-17.39,14.06a220.48,220.48,0,0,1-31.5,21.27c-1,.58-2.08,1.16-3.13,1.71q-8.85,4.75-18.14,8.69l-40,17a9.27,9.27,0,0,1-.44,3l40.4-17.14q9.28-3.94,18.14-8.7c1.05-.55,2.09-1.12,3.13-1.7a221.38,221.38,0,0,0,31.5-21.28l16.62-13.44A32.12,32.12,0,0,1,517.28,259.06Z"/><path class="cls-34" d="M516.27,264.64l-16.38,13.24a220.55,220.55,0,0,1-31.5,21.28c-1,.58-2.08,1.15-3.13,1.71q-8.85,4.75-18.14,8.69L405.91,327a18.2,18.2,0,0,0-.5,3l41.71-17.69q9.28-3.94,18.14-8.7c1.05-.55,2.09-1.12,3.13-1.7a221.38,221.38,0,0,0,31.5-21.28l16.36-13.23A22.4,22.4,0,0,1,516.27,264.64Z"/><polygon class="cls-35" points="472.78 298.36 467.38 301.61 468.23 295.69 473.64 292.44 472.78 298.36"/><path class="cls-3" d="M516.56,270c0-.25-.08-.49-.12-.74l-16.55,13.38a221.38,221.38,0,0,1-31.5,21.28c-1,.58-2.08,1.15-3.13,1.7q-8.85,4.77-18.14,8.7l-41.84,17.75c-.06,1-.11,2-.2,2.91l42-17.84q9.28-3.93,18.14-8.69c1.05-.56,2.09-1.13,3.13-1.71a220.48,220.48,0,0,0,31.5-21.27L517,271.66A13.29,13.29,0,0,1,516.56,270Z"/><polygon class="cls-36" points="232.93 75.32 218.69 67.1 218.69 59.84 232.93 68.06 232.93 75.32"/><polygon class="cls-36" points="327.75 130.06 313.51 121.84 313.51 114.58 327.75 122.8 327.75 130.06"/><polygon class="cls-36" points="230.08 20.77 214.26 13.45 180.38 13.01 180.38 22.39 209.03 45.38 210.61 37.42 230.08 20.77"/><path class="cls-37" d="M201.2,73a64.08,64.08,0,0,1,13,10.07l-26-15A38.63,38.63,0,0,1,201.2,73Z"/><path class="cls-37" d="M235.21,126.65c0,.76,0,1.49-.07,2.21l0,0c.06-.84.1-1.7.11-2.6Z"/><path class="cls-32" d="M235.21,125.75v.48c-.17-14.11-8.8-31.07-21-43.17l-26-15c-11.83-1.94-20.3,4.55-21,17.59l0,0c.22-11.89,5.19-19.71,12.84-22.28,5.81-2,13.16-.87,21.15,3.75s15.35,12,21.16,20.68C230.19,99.44,235.21,113.37,235.21,125.75Z"/><path class="cls-8" d="M228.89,123c0,17.54-12.4,24.61-27.69,15.78S173.52,108.58,173.52,91s12.4-24.61,27.68-15.79S228.89,105.46,228.89,123Z"/><path class="cls-37" d="M437.28,245.74l0,0c-.06-.83-.09-1.65-.09-2.47,0-.13,0-.28,0-.42C437.16,243.78,437.21,244.76,437.28,245.74Z"/><path class="cls-37" d="M471.16,228.85a64.08,64.08,0,0,1,13,10.07l-26-15A38.71,38.71,0,0,1,471.16,228.85Z"/><polygon class="cls-38" points="232.19 25.41 213.95 42.38 213.95 45 298.48 93.81 285.44 54.55 232.19 25.41"/><g class="cls-39"><path class="cls-40" d="M413.59,228.4,241.53,129.06l-7.12-23L209.59,57.19l-1.42-11.84L209.83,37,230,19.75l61.85,33.47,53.64,32,64.34,67.34.06.21,4.21,16.35,2.84,31.61ZM243,127.93l169.26,97.72,3-24.93-2.82-31.3-4.13-16-64-66.93L291,54.69l-60.8-32.9L211.38,37.88l-1.5,7.54,1.37,11.42L236,105.4Z"/></g><g class="cls-39"><polygon class="cls-40" points="308.56 166.34 306.87 166.24 307.92 148.2 306.34 108.95 290.61 54.2 292.24 53.73 308 108.68 309.61 148.21 308.56 166.34"/></g><polygon class="cls-36" points="139.21 39.76 129.76 34.31 125.01 38.83 129.23 55.79 146.32 74.12 147.67 65.79 145.01 50.37 139.21 39.76"/><polygon class="cls-36" points="169.83 68.03 146.32 54.46 146.32 47.8 169.83 61.38 169.83 68.03"/><polygon class="cls-36" points="437.15 222.37 235.21 105.78 235.21 99.13 437.15 215.72 437.15 222.37"/><path class="cls-41" d="M396.92,313.86l-.2,3.82-1.08,19.94-.3,5.58-2.58,11.72-13.24-5.13-.17-.08c-1.78-13-14.08-25.13-24.94-35.89a64.16,64.16,0,0,0-13-10.07,38.8,38.8,0,0,0-13-4.92c-12.22-2-16.57,2.51-16.74,16.43,0,.95.05,1.93.12,2.91L112.75,203.23l-3.07-1.94,0,0c.06-.84.09-1.71.1-2.61-.17-14.11-13.08-28.6-25.3-40.7a64.3,64.3,0,0,0-13-10.07,39.18,39.18,0,0,0-13-4.93c-11.83-1.94-16,2.09-16.7,15.12l0,0L14.19,131.81,6.56,113,8.11,89.28,9.51,83,22,74.9l81.81-9s41.26,19.78,70.61,36.12S246,145.25,246,145.25l5.93,6.45-1.45,1.13,40.61,83,7.38,1.84,94,71.2Z"/><path class="cls-42" d="M396.92,313.86l-.21,3.82L286,246.48,86.32,131.21,8.11,89.28,9.51,83,22,74.91l81.81-9s41.25,19.79,70.61,36.14S246,145.25,246,145.25l5.93,6.45-1.45,1.13,40.61,83Z"/><path class="cls-43" d="M58.48,143c-11.83-1.94-16,2.09-16.7,15.12l0,0L14.19,131.81,6.56,113Z"/><path class="cls-43" d="M311.7,315.26q0,1.44.12,2.91L112.74,203.23l-3.06-1.94,0,0c.07-.84.1-1.71.11-2.61-.17-14.11-13.08-28.6-25.3-40.7l244,140.86C316.22,296.82,311.87,301.34,311.7,315.26Z"/><path class="cls-43" d="M395.64,337.62l-.3,5.58-2.58,11.72-13.24-5.13-.18-.08c-1.77-13-14.07-25.13-24.93-35.89Z"/><polygon class="cls-36" points="103.19 150.22 88.95 142 88.95 134.74 103.19 142.96 103.19 150.22"/><polygon class="cls-36" points="198.01 204.97 183.77 196.75 183.77 189.49 198.01 197.71 198.01 204.97"/><polygon class="cls-36" points="123.95 79.02 108.13 71.7 56.01 84.79 56.01 94.16 75.01 105.42 78.39 110.73 123.95 79.02"/><polygon class="cls-44" points="118.2 76.36 75.45 106.11 78.39 110.73 123.95 79.02 118.2 76.36"/><path class="cls-37" d="M109.75,199.09c0,.75,0,1.48-.07,2.2l0,0c.07-.84.1-1.71.11-2.61Z"/><path class="cls-32" d="M109.76,198.18c0,.16,0,.33,0,.48-.17-14.11-13.08-28.6-25.3-40.7a64.3,64.3,0,0,0-13-10.07,39.18,39.18,0,0,0-13-4.93c-11.83-1.94-16,2.09-16.7,15.12l0,0c.22-11.9.91-17.24,8.56-19.81,5.81-2,13.16-.87,21.16,3.74s15.35,12,21.15,20.68C100.45,174.34,109.76,185.81,109.76,198.18Z"/><path class="cls-37" d="M311.82,318.17l0,0c-.06-.84-.08-1.66-.08-2.47v-.42Q311.71,316.7,311.82,318.17Z"/><path class="cls-32" d="M379.52,349.79l-.17-.08c-1.78-13-14.08-25.13-24.94-35.89a64.16,64.16,0,0,0-13-10.07,38.8,38.8,0,0,0-13-4.92c-12.22-2-16.57,2.51-16.74,16.43v-.49c0-12.36.74-18,8.57-20.66h0c5.8-2,13.16-.87,21.15,3.74s15.35,12,21.16,20.68C369.53,328.89,378.54,338.55,379.52,349.79Z"/><polygon class="cls-36" points="128.53 85.26 84.21 117.28 84.21 119.9 168.75 168.71 181.79 114.39 128.53 85.26"/><polygon class="cls-38" points="86.03 118.85 86.03 118.22 128.67 87.42 179.69 115.33 167.54 165.91 86.03 118.85"/><polygon class="cls-36" points="193.39 121.09 183.51 177.24 275.96 230.61 239.96 147.98 193.39 121.09"/><polygon class="cls-38" points="185.53 176.29 194.73 123.98 238.53 149.26 272.07 226.25 185.53 176.29"/><g class="cls-39"><path class="cls-40" d="M288.36,301l-1.34-.77L174.19,235.63l-58-34.09-.12-.2L104.73,181.1l-24.88-49-1.42-11.83,1.67-8.43,46.26-32.21,61.81,33.45,53.68,32,.11.24,38.1,82.23,4.27,16.5,2.84,31.61Zm-171-100.65L175,234.16,286.52,298l-1-22.2-2.81-31.44-4.19-16.21-38-81.85-53.2-31.72L126.48,81.61,81.63,112.83l-1.49,7.49,1.38,11.42,24.71,48.56Z"/></g><path class="cls-33" d="M266.27,231a9.36,9.36,0,0,1,1.9,1c.79.55,1.72,1.62,2.74,1.47a7.29,7.29,0,0,0,3.2-1.69,17.17,17.17,0,0,1,1.28-1.28c.58-.39,1-.13,1.66-.05a4.51,4.51,0,0,1,2.6,1.13c.51.36,1.65.67,2,1.24.76,1.37-3.11,2.62-4,3a18.4,18.4,0,0,0-2.73,1.63c-1.38.87-1.46,2.91-3.07,3.3a11.15,11.15,0,0,1-9.85-2.33,3,3,0,0,1-1.11-2.35c.21-1.8.57-3.74,2.09-4.92A3.34,3.34,0,0,1,266.27,231Z"/><path class="cls-2" d="M274.36,224.37c-.07-.13-.13-.22-.15-.22a8.12,8.12,0,0,0,1.47-.2,4.37,4.37,0,0,1,2.45-1.41,1.2,1.2,0,0,1,1.27.55,7.59,7.59,0,0,1,.87,1.61,7,7,0,0,0,1.33,2.63,30.47,30.47,0,0,0,2.5,2c.25.2.78.48.89.78s-.25,1-.37,1.46c-.2.64-.4,1.28-.62,1.91s-.24.7-.83.38c-1.46-.82-3-1.51-4.45-2.36-.77-.45-1.11-1.4-1.56-2.12s-1.06-1.74-1.56-2.63l-.73-1.34C274.82,225.35,274.55,224.71,274.36,224.37Z"/><path class="cls-3" d="M278.42,214.15c6.86,1.86,3.48,10.13,1,10.84-6.22,1.74-10.58,1.92-13.08,1.66-3.76-.38-6.07-.52-5-7.26C261.65,217.26,272.13,212.45,278.42,214.15Z"/><g class="cls-39"><polygon class="cls-40" points="175.1 235.83 171.87 220.25 170.27 180.66 170.3 180.54 186.94 113.61 188.58 114.01 171.97 180.83 173.54 220.04 176.76 235.48 175.1 235.83"/></g><polygon class="cls-45" points="1.52 110.65 7.48 98.89 6.87 108.31 21.97 132.89 21.97 141.25 17.62 144.75 1.52 110.65"/><polygon class="cls-44" points="6.22 112.86 1.52 110.65 0 117.58 5.85 135.81 17.62 144.75 18.97 136.41 12.02 123.47 6.22 112.86"/><polygon class="cls-44" points="40.09 142.94 26.18 134.77 26.18 128.11 40.09 136.28 40.09 142.94"/><polygon class="cls-44" points="307.42 297.27 105.47 180.68 105.47 174.03 307.42 290.62 307.42 297.27"/><path class="cls-31" d="M207.45,6.09l-31,14.23a290.55,290.55,0,0,0-48.82,28.43L103.8,65.93,22,74.9,84.45,32.15,151.73,0Z"/><path class="cls-36" d="M84.46,37.58,156.92,3l40.13,5-12.17,5.59A331,331,0,0,0,129.56,45.7l-25,18L37.83,69.5Z"/><path class="cls-38" d="M85.48,39.34,157.27,5l32.27,4.09L184,11.64a332.14,332.14,0,0,0-55.65,32.42L103.8,61.77,45.65,66.6Z"/><polygon class="cls-46" points="168.52 14.91 122.83 39.12 89.75 60.61 45.65 66.6 85.48 39.34 157.27 5.03 168.52 14.91"/><path class="cls-31" d="M207.45,6.09,103.8,65.93l23.84-17.18a290.55,290.55,0,0,1,48.82-28.43Z"/><path class="cls-47" d="M355.57,91.85,354.12,93l-13,12.47-59.46,36.11-29.7,10.13L246,145.25l-71.57-43.19L103.8,65.93l23.84-17.18a290.55,290.55,0,0,1,48.82-28.43l31-14.23s41.26,19.79,70.61,36.13C307.18,58.43,349,85,349.63,85.4h0Z"/><polygon class="cls-48" points="349.64 85.41 349.63 85.4 348.19 86.53 335.14 99 275.68 135.12 245.98 145.25 251.92 151.71 281.61 141.57 341.08 105.45 354.12 92.99 355.57 91.86 349.64 85.41"/><path class="cls-32" d="M428.19,162.74l-5.84,6.7L312.52,234.55l-14.07,3.1,94,71.2,4.48,5,47.15-19.75a220,220,0,0,0,52.08-30.84L526.66,239l-4.48-5Z"/><polygon class="cls-36" points="427.45 163.59 428.19 168.19 395.63 201.34 364.84 220.09 308.76 239.04 298.45 237.65 427.45 163.59"/><path class="cls-38" d="M428.19,162.74l-.74.85-5.1,5.85L399.55,189a155.15,155.15,0,0,1-45.19,28.85l-41.84,16.66-14.06,3.1-7.39-1.84-40.61-83,1.46-1.13,29.7-10.13,48.53-29.48,10.93-6.63,9.82-9.4L354.12,93Z"/><path class="cls-46" d="M427.45,163.59l-5.1,5.85L399.55,189a155.15,155.15,0,0,1-45.19,28.85l-41.84,16.66-14.06,3.1-7.39-1.84-2.33-13,80.67-33.29,39.9-32.65Z"/><polygon class="cls-49" points="405.69 155.7 330.15 112.09 341.08 105.46 350.9 96.06 405.69 155.7"/><path class="cls-48" d="M526.66,239l-.21,3.82-27.71,22.41a220.06,220.06,0,0,1-52.33,31.41l-49.7,21.09.21-3.82,47.15-19.75a220,220,0,0,0,52.08-30.84Z"/><polygon class="cls-32" points="354.12 92.99 427.45 163.59 428.19 162.74 355.57 91.86 354.12 92.99"/><path class="cls-2" d="M415.9,321.58c.17,5.76-3.68,12.43-8.6,14.9s-9.06-.21-9.23-6,3.68-12.43,8.6-14.89S415.73,315.82,415.9,321.58Z"/><path class="cls-50" d="M415.32,321.88a7.3,7.3,0,0,1,0,.81c-.19,5.18-3.66,10.91-8,13.11-2.44,1.21-4.67,1.08-6.25-.1a6.81,6.81,0,0,1-2.38-5.48c-.16-5.38,3.44-11.62,8-13.92S415.16,316.49,415.32,321.88Z"/><path class="cls-51" d="M415.32,321.88a7.3,7.3,0,0,1,0,.81s-7-.84-9.6,2.31c-2.42,3-4.53,6.1-4.68,10.7a6.81,6.81,0,0,1-2.38-5.48c-.16-5.38,3.44-11.62,8-13.92S415.16,316.49,415.32,321.88Z"/><path class="cls-52" d="M409.3,322.9a8.19,8.19,0,0,1-4,7c-2.32,1.16-4.26-.09-4.34-2.8a8.17,8.17,0,0,1,4.05-7C407.28,318.94,409.22,320.2,409.3,322.9Z"/><path class="cls-2" d="M523.43,258.46c-.08,5.33-3.95,12.26-8.65,15.47s-8.44,1.48-8.36-3.85,3.95-12.26,8.65-15.47S523.51,253.12,523.43,258.46Z"/><path class="cls-50" d="M522.72,258.94c0,.14,0,.28,0,.42-.27,4.84-3.73,10.91-7.91,13.76a7,7,0,0,1-4.33,1.48c-2.06-.18-3.39-1.94-3.34-5,.07-4.89,3.62-11.24,7.92-14.19S522.79,254.05,522.72,258.94Z"/><path class="cls-51" d="M522.72,258.94c0,.14,0,.28,0,.42-2.29,0-5.76.4-7.41,2.42-2.58,3.16-4.81,6.52-4.69,11.65a3.83,3.83,0,0,1-.14,1.17c-2.06-.18-3.39-1.94-3.34-5,.07-4.89,3.62-11.24,7.92-14.19S522.79,254.05,522.72,258.94Z"/><path class="cls-52" d="M516.59,260.31a9.67,9.67,0,0,1-3.86,6.9c-2.09,1.44-3.76.67-3.73-1.71a9.63,9.63,0,0,1,3.86-6.9C515,257.17,516.62,257.94,516.59,260.31Z"/><polygon class="cls-46" points="317.13 123.18 319.11 125.19 324.43 122.52 326.93 122.32 328.44 125.79 327.96 128.11 321.22 133.09 309.13 138.89 307.31 138.32 305.89 134.13 307.6 131.59 314.74 127.67 312.79 125.73 315.15 123.57 317.13 123.18"/><path class="cls-53" d="M385.35,355.87c3.3-1.06,6.78-1.65,10.14-2.53a178.25,178.25,0,0,0,18.07-5.78,387.1,387.1,0,0,0,58.95-28.33c9.4-5.5,18.78-11.24,27.91-17.2,9.29-6.08,17.18-14,26-20.74,1-.79,1.68-1.63,2.94-1.59l.65-1a0,0,0,0,0,0,0v-7.33l-4.93-3.09-2.35,4.87-45.65,31.51L472,308.34c-11.92,8.55-76.62,34.86-76.62,34.86l-7.28-3.08-6.26,3.53L383,352.2Z"/><path class="cls-53" d="M530,278.71a0,0,0,0,1,0,0l-5.59,9.84-3.54,3.1c-30,28.8-72.47,52.46-111.95,65.57l-16.15,4.67,4.56-5.11,22.48-9.7c35.46-15.29,68.89-36.71,99.33-60.48Z"/><polygon class="cls-44" points="397.32 356.79 396.82 349.79 381.8 343.65 382.96 352.2 388.07 360.05 392.76 361.9 397.32 356.79"/><path class="cls-54" d="M397.32,356.79,433.94,341a332.47,332.47,0,0,0,73-43.26l23.08-19v-7.33L507.87,291a250.14,250.14,0,0,1-63.72,38.9l-47.33,19.9Z"/><polygon class="cls-42" points="444.07 294.11 364.84 220.09 444.07 288.87 444.07 294.11"/><polygon class="cls-42" points="496.14 263.27 494.52 259.06 395.63 201.34 496.14 263.27"/><polygon class="cls-54" points="439.75 313.64 426.97 319.11 426.97 314.53 439.75 309.06 439.75 313.64"/></g></g></g></svg>