<svg xmlns="http://www.w3.org/2000/svg" viewBox="0 0 373.85 149.02"><defs><style>.cls-1{fill:#94abb3;}.cls-2{fill:#dce3e6;}.cls-3{fill:#e6eced;}.cls-4{fill:#fff;}</style></defs><g id="Layer_2" data-name="Layer 2"><g id="Layer_1-2" data-name="Layer 1"><path class="cls-1" d="M355.73,123.24c0,14-11,25.39-24.52,25.39s-24.51-11.37-24.51-25.39,11-25.38,24.51-25.38S355.73,109.22,355.73,123.24Z"/><path class="cls-1" d="M180.19,123.24c0,14-11,25.39-24.52,25.39s-24.51-11.37-24.51-25.39,11-25.38,24.51-25.38S180.19,109.22,180.19,123.24Z"/><polygon class="cls-2" points="25.39 34.35 18.14 20.56 54.8 10.28 25.39 34.35"/><path class="cls-3" d="M361.94,68.31c-17.05-18.91-51.86-22-62-28.22S260.36,0,205.65,0c-17.41,0-61.65.94-95,.94-23.64,0-41.8,4-55.84,9.34A113.92,113.92,0,0,0,31.92,22.11a157.21,157.21,0,0,1,55.59-9C132.3,14.18,160.17,39,160.17,39l19,21.77s32.47,1.14,58,14.6c17,9,21.35,35,22.46,47.76,60.14-.09,107.24-.79,110.26-2.75C378.57,114.79,371.65,79.08,361.94,68.31Z"/><path class="cls-2" d="M237.15,75.4c-25.55-13.46-58-14.6-58-14.6L160.17,39S132.3,14.18,87.51,13.1a157.21,157.21,0,0,0-55.59,9A130.58,130.58,0,0,0,21,30.32C10.2,39.31,10.15,46.73,8.7,62c-.41,4.33-2.82,15.45-8,26.79-1.91,4.2.46,14,2.56,18.81,3,6.78,11.11,14,17.78,14,50.78,0,155.07,1.69,238.57,1.56C258.5,110.42,254.16,84.36,237.15,75.4Z"/><path class="cls-1" d="M0,99.28s0,9.49,5.44,16,6.53,9.3,16.86,9.3H361.17c7.07,0,12.25-6.12,12.44-12.63H13.6S4.9,106.23,0,99.28Z"/><path class="cls-3" d="M169,39H131.27c-14.51,0-20.31,22.56-2.9,22.88s60-.33,60-.33Z"/><polygon class="cls-2" points="87.51 13.1 56.55 9.62 29.19 17.46 29.19 29.53 87.51 13.1"/><polygon class="cls-1" points="10.31 48.02 23.05 36.48 26.44 44.43 8.7 61.96 10.31 48.02"/><path class="cls-1" d="M78.23,123.63c0,14-11,25.39-24.52,25.39s-24.52-11.37-24.52-25.39,11-25.38,24.52-25.38S78.23,109.61,78.23,123.63Z"/><circle class="cls-3" cx="53.71" cy="123.63" r="16.52"/><circle class="cls-1" cx="53.71" cy="123.63" r="4.35"/><path class="cls-1" d="M242.58,123.46c0,14-11,25.38-24.52,25.38s-24.51-11.36-24.51-25.38,11-25.38,24.51-25.38S242.58,109.44,242.58,123.46Z"/><circle class="cls-3" cx="218.06" cy="123.46" r="16.52"/><path class="cls-1" d="M222.42,123.46a4.36,4.36,0,1,1-4.36-4.35A4.36,4.36,0,0,1,222.42,123.46Z"/><path class="cls-4" d="M357.29,87.21H370.8s-1.93-17.09-8.86-18.9C357.71,71.9,357.29,87.21,357.29,87.21Z"/><path class="cls-1" d="M348.67,93.69H302.61c-2.18,0-3.14,0-4.19,3.86-.89,3.26-3.23,13.1-3.23,13.1a4.22,4.22,0,0,0,4.19,4.59h53.27a4.23,4.23,0,0,0,4-5.46l-4-13.09A4.22,4.22,0,0,0,348.67,93.69Z"/><path class="cls-1" d="M293,73a56.42,56.42,0,0,0,4.26,7.35c2.17,3,4.08,6,11.42,6s26.65.26,31.82,0,7.85-2.07,8.7-6.61c.61-3.22,1.36-6.72,1.36-6.72Z"/><path class="cls-4" d="M220,68.31s4.05,16.48,19.29,18.15,35.35,0,35.35,0-1.56-12.32-15.77-15.61S220,68.31,220,68.31Z"/><path class="cls-1" d="M151.57,28.66c-2.16-2.44-4.21-4.66-6.35-6.64-10.79-9.95-24.06-13.7-67.62-7.66-22.22,3.08-38,18.91-38,18.91L42.76,39l6.3,11.48L169,52.19S164.63,43.38,151.57,28.66Z"/><path class="cls-1" d="M257.46,29.53c-11-7.68-23.85-13.87-34.7-18.37-33.38-.92-72.64.29-72.64.29l8,9.86,22.49,27.85,91.79-.92,6.56-.06A151.67,151.67,0,0,0,257.46,29.53Z"/><path class="cls-4" d="M231.35,11.45c-2.8-.12-5.67-.21-8.59-.29,10.85,4.5,23.72,10.69,34.7,18.37a151.67,151.67,0,0,1,21.47,18.65L295.17,48S266.16,12.88,231.35,11.45Z"/><rect class="cls-4" x="308.23" y="99.28" width="37.71" height="9.37"/></g></g></svg>