<svg xmlns="http://www.w3.org/2000/svg" viewBox="0 0 282 355.74"><defs><style>.cls-1{fill:#ffb60d;}.cls-2{fill:#31404f;}.cls-3{fill:#212c36;}.cls-4{fill:#aab2bd;}.cls-5{fill:#346499;}.cls-6,.cls-8{fill:#fefbff;}.cls-7{fill:#def3ee;}.cls-8{font-size:114.6px;font-family:Eina02-Bold;font-weight:700;}</style></defs><g id="Layer_2" data-name="Layer 2"><g id="Layer_1-2" data-name="Layer 1"><path class="cls-1" d="M255.27,143.27V16.51A11.65,11.65,0,0,0,243.62,4.86H105.5A11.66,11.66,0,0,0,93.84,16.51V143.27H255.27Z"/><path class="cls-2" d="M46.81,300.35l-1.92,0C28,299.85,16.07,293.7,9.4,282c-15.8-27.63,2-79.9,22.07-116.27,24.54-44.48,15-88.72,14.89-89.16a2.77,2.77,0,0,1,5.4-1.22c.43,1.88,10.15,46.67-15.44,93.06C15.43,206.33.49,255.29,14.21,279.3c5.64,9.86,16,15.07,30.84,15.49,14.09.39,24.22-4,30-13,15.72-24.38-2.63-76-5.79-82.53a2.77,2.77,0,0,1,2.49-4h39.14a2.77,2.77,0,1,1,0,5.53H75.79c5,13.71,19.79,59.39,3.94,84C73.08,295.13,62,300.35,46.81,300.35Z"/><path class="cls-3" d="M56.12,86l.05,4A3.24,3.24,0,0,1,53,93.22l-4.48.06a3.24,3.24,0,0,1-3.28-3.19l0-4Z"/><path class="cls-3" d="M65.16,84.62C64,82.4,60.82,76,60.51,72.91a1.2,1.2,0,0,1,.37-1c1.54-1.77,6.33-2.81,7.33-2.86l-.06-3.23c-.63,0-7,.92-9.65,3.9a4.47,4.47,0,0,0-1.21,3.49c.44,4.33,4.83,12.56,5,12.91Z"/><path class="cls-4" d="M67.63,41l7.64-12.43,15.14-8.44-2.79-5L71.82,24a2.7,2.7,0,0,0-1,1L62.74,38Z"/><polygon class="cls-3" points="42.14 58.57 38.16 52.7 42.54 42.64 57.46 34.8 71.7 43.8 71.61 58.17 42.14 58.57"/><path class="cls-3" d="M58.53,37.18l2.13-3.09A1.67,1.67,0,0,1,63,33.66l7.67,5.27a1.67,1.67,0,0,1,.43,2.32L69,44.35Z"/><path class="cls-1" d="M68.31,53.63l-23,.32a3.22,3.22,0,0,0-3.19,3.28l.37,27.34a3.24,3.24,0,0,0,3.28,3.19l23-.32A3.22,3.22,0,0,0,72,84.16l-.37-27.34A3.24,3.24,0,0,0,68.31,53.63Zm-2.7,30.62-11.26.16a1.7,1.7,0,0,1-1.72-1.68l-.26-19A1.71,1.71,0,0,1,54,62l11.27-.15A1.71,1.71,0,0,1,67,63.51l.25,19A1.68,1.68,0,0,1,65.61,84.25Z"/><path class="cls-5" d="M118.88,12.21H230.24a6.11,6.11,0,1,0,0-12.21H118.88a6.11,6.11,0,1,0,0,12.21Z"/><polygon class="cls-5" points="174.56 143.27 93.84 143.27 93.84 181.99 84.93 181.99 84.93 214.16 93.84 214.16 93.84 328.41 174.56 328.41 255.27 328.41 255.27 143.27 174.56 143.27"/><path class="cls-6" d="M174.56,30.44h-58A11.66,11.66,0,0,0,104.86,42.1V90.91h69.7Z"/><path class="cls-6" d="M174.56,85.19h-69.7v21a11.65,11.65,0,0,0,11.66,11.65h58.2v-.16h-.16Z"/><path class="cls-7" d="M174.72,90.91h69.7v-49a11.65,11.65,0,0,0-11.65-11.66H174.56v.17h.16Z"/><path class="cls-7" d="M174.72,85.19v32.5h58.05A11.65,11.65,0,0,0,244.42,106V85.19Z"/><text class="cls-8" transform="translate(135.59 263.13)">D</text><path class="cls-1" d="M141,321H10.75C4.81,321,0,324.64,0,329.16v18.38c0,4.53,4.81,8.2,10.75,8.2h260.5c5.94,0,10.75-3.67,10.75-8.2V329.16c0-4.52-4.81-8.19-10.75-8.19Z"/></g></g></svg>