<?xml version="1.0" encoding="utf-8"?>
<!-- Generator: Adobe Illustrator 25.1.0, SVG Export Plug-In . SVG Version: 6.00 Build 0)  -->
<svg version="1.1" id="Layer_1" xmlns="http://www.w3.org/2000/svg" xmlns:xlink="http://www.w3.org/1999/xlink" x="0px" y="0px"
	 viewBox="0 0 282 355.7" style="enable-background:new 0 0 282 355.7;" xml:space="preserve">
<style type="text/css">
	.st0{fill:#DCE3E6;}
	.st1{fill:#9EB3BA;}
	.st2{fill:#94ABB3;}
	.st3{fill:#D7E0E3;}
	.st4{fill:#FEFEFE;}
	.st5{fill:#F5F7F8;}
	.st6{enable-background:new    ;}
</style>
<g id="Layer_2_1_">
	<g id="Layer_1-2">
		<path class="st0" d="M255.3,143.3V16.5c0-6.4-5.2-11.6-11.6-11.6l0,0H105.5c-6.4,0-11.7,5.2-11.7,11.6v126.8H255.3z"/>
		<path class="st1" d="M46.8,300.4h-1.9C28,299.9,16.1,293.7,9.4,282c-15.8-27.6,2-79.9,22.1-116.3C56,121.3,46.5,77,46.4,76.6
			c-0.3-1.5,0.7-3,2.2-3.2c1.4-0.3,2.8,0.6,3.2,2c0.4,1.9,10.2,46.7-15.4,93.1c-20.9,37.9-35.8,86.9-22.1,110.9
			c5.6,9.9,16,15.1,30.8,15.5c14.1,0.4,24.2-4,30-13c15.7-24.4-2.6-76-5.8-82.5c-0.7-1.4-0.1-3,1.3-3.7c0.4-0.2,0.8-0.3,1.2-0.3
			h39.1c1.5-0.1,2.8,1.1,2.9,2.6s-1.1,2.8-2.6,2.9c-0.1,0-0.2,0-0.3,0H75.8c5,13.7,19.8,59.4,3.9,84C73.1,295.1,62,300.4,46.8,300.4
			z"/>
		<path class="st2" d="M56.1,86v4c0,1.8-1.4,3.2-3.2,3.2l-4.5,0.1c-1.8,0-3.3-1.4-3.3-3.2v-4L56.1,86z"/>
		<path class="st2" d="M65.2,84.6c-1.2-2.2-4.3-8.6-4.7-11.7c0-0.4,0.1-0.7,0.4-1c1.5-1.8,6.3-2.8,7.3-2.9l-0.1-3.2
			c-0.6,0-7,0.9-9.7,3.9c-0.9,0.9-1.3,2.2-1.2,3.5c0.4,4.3,4.8,12.6,5,12.9L65.2,84.6z"/>
		<path class="st3" d="M67.6,41l7.6-12.4l15.1-8.4l-2.8-5L71.8,24c-0.4,0.2-0.8,0.6-1,1l-8.1,13L67.6,41z"/>
		<polygon class="st2" points="42.1,58.6 38.2,52.7 42.5,42.6 57.5,34.8 71.7,43.8 71.6,58.2 		"/>
		<path class="st2" d="M58.5,37.2l2.1-3.1c0.5-0.8,1.6-1,2.3-0.4l0,0l7.7,5.3c0.8,0.5,1,1.6,0.4,2.3l-2,3L58.5,37.2z"/>
		<path class="st0" d="M68.3,53.6l-23,0.3c-1.8,0-3.2,1.5-3.2,3.2l0,0l0.4,27.3c0,1.8,1.5,3.2,3.3,3.2l23-0.3c1.8,0,3.2-1.4,3.2-3.2
			c0,0,0,0,0-0.1l-0.4-27.3C71.6,55,70.1,53.6,68.3,53.6L68.3,53.6z M65.6,84.2l-11.3,0.2c-0.9,0-1.7-0.7-1.7-1.7l0,0l-0.3-19
			c0-0.9,0.7-1.7,1.6-1.7l11.3-0.2c0.9,0,1.7,0.7,1.7,1.7l0.2,19C67.3,83.4,66.6,84.2,65.6,84.2L65.6,84.2z"/>
		<path class="st2" d="M118.9,12.2h111.4c3.4,0.1,6.2-2.5,6.4-5.9c0.1-3.4-2.5-6.2-5.9-6.4c-0.2,0-0.3,0-0.5,0H118.9
			c-3.4-0.1-6.2,2.5-6.4,5.9s2.5,6.2,5.9,6.4C118.6,12.2,118.7,12.2,118.9,12.2z"/>
		<polygon class="st2" points="174.6,143.3 93.8,143.3 93.8,182 84.9,182 84.9,214.2 93.8,214.2 93.8,328.4 174.6,328.4 
			255.3,328.4 255.3,143.3 		"/>
		<path class="st4" d="M174.6,30.4h-58c-6.4,0-11.7,5.2-11.7,11.6l0,0v48.8h69.7V30.4z"/>
		<path class="st4" d="M174.6,85.2h-69.7v21c0,6.4,5.2,11.7,11.6,11.7l0,0h58.2v-0.2h-0.2L174.6,85.2L174.6,85.2z"/>
		<path class="st5" d="M174.7,90.9h69.7v-49c0-6.4-5.2-11.7-11.6-11.7l0,0h-58.2v0.2h0.2L174.7,90.9L174.7,90.9z"/>
		<path class="st5" d="M174.7,85.2v32.5h58.1c6.4,0,11.7-5.2,11.7-11.6l0,0V85.2H174.7z"/>
		<g class="st6">
			<path class="st4" d="M173.4,263.1h-29.2v-81.4h29.2c13.5,0,24,3.7,31.6,11.2c7.5,7.5,11.3,17.3,11.3,29.5
				c0,12.1-3.8,22-11.3,29.5C197.5,259.4,186.9,263.1,173.4,263.1z M192.3,241.1c4.2-4.5,6.4-10.7,6.4-18.6c0-7.9-2.1-14.2-6.4-18.6
				c-4.2-4.5-10.7-6.7-19.3-6.7h-12v50.7h12C181.6,247.8,188,245.5,192.3,241.1z"/>
		</g>
		<path class="st2" d="M141,321H10.8c-6,0-10.8,3.6-10.8,8.2v18.4c0,4.5,4.8,8.2,10.8,8.2h260.5c5.9,0,10.8-3.7,10.8-8.2v-18.4
			c0-4.5-4.8-8.2-10.8-8.2H141z"/>
	</g>
</g>
</svg>
