<svg xmlns="http://www.w3.org/2000/svg" viewBox="0 0 278.66 355.74"><defs><style>.cls-1{fill:#ffb60d;}.cls-2{fill:#31404f;}.cls-3{fill:#212c36;}.cls-4{fill:#aab2bd;}.cls-5{fill:#346499;}.cls-6,.cls-8{fill:#fefbff;}.cls-7{fill:#def3ee;}.cls-8{font-size:114.6px;font-family:Eina02-Bold;font-weight:700;}</style></defs><g id="Layer_2" data-name="Layer 2"><g id="Layer_1-2" data-name="Layer 1"><path class="cls-1" d="M251.94,143.27V16.51A11.66,11.66,0,0,0,240.28,4.86H102.16A11.65,11.65,0,0,0,90.51,16.51V143.27H251.94Z"/><path class="cls-2" d="M43.47,300.35l-1.92,0C24.67,299.85,12.73,293.7,6.07,282c-15.81-27.63,2-79.9,22.07-116.27,24.53-44.48,15-88.72,14.88-89.16a2.77,2.77,0,0,1,5.4-1.22c.43,1.88,10.16,46.67-15.44,93.06C12.09,206.33-2.85,255.29,10.87,279.3c5.64,9.86,16,15.07,30.84,15.49,14.09.39,24.22-4,30-13,15.72-24.38-2.62-76-5.79-82.53a2.77,2.77,0,0,1,2.49-4h39.14a2.77,2.77,0,1,1,0,5.53H72.46c5,13.71,19.78,59.39,3.93,84C69.74,295.13,58.67,300.35,43.47,300.35Z"/><path class="cls-3" d="M52.78,86l0,4a3.24,3.24,0,0,1-3.19,3.28l-4.48.06a3.25,3.25,0,0,1-3.28-3.19l-.05-4Z"/><path class="cls-3" d="M61.82,84.62C60.63,82.4,57.48,76,57.17,72.91a1.22,1.22,0,0,1,.38-1c1.53-1.77,6.32-2.81,7.32-2.86l-.06-3.23c-.63,0-7,.92-9.65,3.9A4.47,4.47,0,0,0,54,73.24c.44,4.33,4.84,12.56,5,12.91Z"/><path class="cls-4" d="M64.29,41l7.64-12.43,15.14-8.44-2.79-5L68.48,24a2.77,2.77,0,0,0-1,1L59.4,38Z"/><polygon class="cls-3" points="38.8 58.57 34.82 52.7 39.2 42.64 54.12 34.8 68.36 43.8 68.27 58.17 38.8 58.57"/><path class="cls-3" d="M55.19,37.18l2.13-3.09a1.67,1.67,0,0,1,2.32-.43l7.67,5.27a1.67,1.67,0,0,1,.43,2.32l-2.13,3.1Z"/><path class="cls-1" d="M65,53.63,42,54a3.22,3.22,0,0,0-3.19,3.28l.37,27.34a3.24,3.24,0,0,0,3.28,3.19l23-.32a3.24,3.24,0,0,0,3.19-3.28l-.38-27.34A3.24,3.24,0,0,0,65,53.63ZM62.27,84.25,51,84.41a1.71,1.71,0,0,1-1.72-1.68l-.26-19A1.71,1.71,0,0,1,50.71,62L62,61.84a1.71,1.71,0,0,1,1.72,1.67l.26,19A1.7,1.7,0,0,1,62.27,84.25Z"/><path class="cls-5" d="M115.54,12.21H226.9A6.11,6.11,0,1,0,226.9,0H115.54a6.11,6.11,0,1,0,0,12.21Z"/><polygon class="cls-5" points="171.22 143.27 90.51 143.27 90.51 181.99 81.59 181.99 81.59 214.16 90.51 214.16 90.51 328.41 171.22 328.41 251.94 328.41 251.94 143.27 171.22 143.27"/><path class="cls-6" d="M171.22,30.44h-58A11.66,11.66,0,0,0,101.52,42.1V90.91h69.7Z"/><path class="cls-6" d="M171.22,85.19h-69.7v21a11.65,11.65,0,0,0,11.66,11.65h58.21v-.16h-.17Z"/><path class="cls-7" d="M171.39,90.91h69.69v-49a11.65,11.65,0,0,0-11.65-11.66H171.22v.17h.17Z"/><path class="cls-7" d="M171.39,85.19v32.5h58A11.65,11.65,0,0,0,241.08,106V85.19Z"/><text class="cls-8" transform="translate(132.26 263.13)">D</text><path class="cls-1" d="M171.22,321H72a8.19,8.19,0,0,0-8.19,8.19v18.38a8.2,8.2,0,0,0,8.19,8.2h198.5a8.2,8.2,0,0,0,8.19-8.2V329.16a8.19,8.19,0,0,0-8.19-8.19Z"/></g></g></svg>