<svg xmlns="http://www.w3.org/2000/svg" viewBox="0 0 158.68 282.62"><defs><style>.cls-1{fill:#8fc026;}.cls-2{fill:#d9d9d9;}.cls-3{fill:#a3a3a3;}.cls-4{fill:#363636;}.cls-5{fill:none;stroke:#fcfbfa;stroke-linecap:round;stroke-linejoin:round;stroke-width:8px;}</style></defs><g id="Layer_2" data-name="Layer 2"><g id="Layer_1-2" data-name="Layer 1"><path class="cls-1" d="M79.34,158.41C35.53,158.41,0,153.75,0,148V272.22c0,5.74,35.53,10.4,79.34,10.4s79.34-4.66,79.34-10.4V148C158.68,153.75,123.16,158.41,79.34,158.41Z"/><path class="cls-2" d="M0,13.39V148c0,5.75,35.53,10.41,79.34,10.41s79.34-4.66,79.34-10.41V13.39Z"/><ellipse class="cls-3" cx="79.34" cy="13.39" rx="79.34" ry="10.4"/><path class="cls-4" d="M79.34,0C57.43,0,39.67,2.33,39.67,5.2v7.4c0,2.87,17.76,5.2,39.67,5.2S119,15.47,119,12.6V5.2C119,2.33,101.25,0,79.34,0Z"/><polygon class="cls-1" points="102.73 78.31 86.93 78.31 86.93 62.51 71.75 62.51 71.75 78.31 55.95 78.31 55.95 93.49 71.75 93.49 71.75 109.28 86.93 109.28 86.93 93.49 102.73 93.49 102.73 78.31"/><rect class="cls-2" x="55.95" y="218.23" width="46.78" height="15.18"/><path class="cls-5" d="M85.5,184.93s-17-3-25.48-12.08C47.91,160,45.72,133.3,74.51,128.78c33.8-5.31,30.18,39.13,30.18,39.13L89.18,156.32"/><line class="cls-5" x1="115.27" y1="151.49" x2="104.69" y2="167.91"/></g></g></svg>