<svg xmlns="http://www.w3.org/2000/svg" viewBox="0 0 399.31 282.36"><defs><style>.cls-1{fill:#7a7a7a;}.cls-2{fill:#f5b400;}.cls-3{fill:#00b0b8;}.cls-4{fill:#a3a3a3;}.cls-5{fill:#d9d9d9;}.cls-6{fill:none;stroke:#666;stroke-linecap:round;stroke-linejoin:round;stroke-width:15px;}</style></defs><g id="Layer_2" data-name="Layer 2"><g id="Layer_1-2" data-name="Layer 1"><rect class="cls-1" x="92.4" width="214.51" height="63.38" rx="7.7"/><rect class="cls-2" x="38.5" y="15.4" width="46.2" height="73.49" rx="7.7"/><rect class="cls-3" x="314.61" y="15.4" width="46.2" height="73.49" rx="7.7"/><rect class="cls-4" x="18.72" y="31.69" width="361.87" height="250.67" rx="7.7"/><polygon class="cls-5" points="84.33 69.01 68.98 69.01 68.98 53.66 54.23 53.66 54.23 69.01 38.87 69.01 38.87 83.77 54.23 83.77 54.23 99.11 68.98 99.11 68.98 83.77 84.33 83.77 84.33 69.01"/><rect class="cls-5" x="314.98" y="69.01" width="45.46" height="14.76"/><rect class="cls-1" y="242.08" width="399.31" height="40.28" rx="7.7"/><path class="cls-6" d="M224,198.5s-37,3.74-60-10c-32.75-19.59-53-73.61,4-100,67-31,85.76,63.34,85.76,63.34l-39-14.88"/><line class="cls-6" x1="265.97" y1="111.5" x2="253.73" y2="151.84"/></g></g></svg>