<svg xmlns="http://www.w3.org/2000/svg" viewBox="0 0 274.29 350.16"><defs><style>.cls-1{fill:#ffb60d;}.cls-2{fill:#31404f;}.cls-3{fill:#212c36;}.cls-4{fill:#aab2bd;}.cls-5{fill:#1ca37d;}.cls-6,.cls-8{fill:#fefbff;}.cls-7{fill:#def3ee;}.cls-8{font-size:127.41px;font-family:Eina02-Bold;font-weight:700;}</style></defs><g id="Layer_2" data-name="Layer 2"><g id="Layer_1-2" data-name="Layer 1"><path class="cls-1" d="M248,141V16.25A11.47,11.47,0,0,0,236.51,4.78H100.56A11.47,11.47,0,0,0,89.09,16.25V141H248Z"/><path class="cls-2" d="M42.79,295.64l-1.89,0c-16.62-.46-28.37-6.52-34.93-18C-9.58,250.41,8,199,27.69,163.17c24.16-43.78,14.76-87.33,14.66-87.76a2.72,2.72,0,0,1,5.31-1.21c.42,1.86,10,45.94-15.19,91.61C11.9,203.09-2.81,251.29,10.7,274.92c5.55,9.71,15.77,14.83,30.35,15.24,13.87.38,23.85-3.9,29.56-12.77,15.47-24-2.59-74.83-5.7-81.23a2.73,2.73,0,0,1,.13-2.64,2.76,2.76,0,0,1,2.32-1.28h38.52a2.73,2.73,0,1,1,0,5.45H71.32c5,13.49,19.47,58.46,3.87,82.66C68.64,290.5,57.75,295.64,42.79,295.64Z"/><path class="cls-3" d="M52,84.62l0,3.91a3.17,3.17,0,0,1-3.14,3.22l-4.41.06a3.18,3.18,0,0,1-3.22-3.14l-.06-3.9Z"/><path class="cls-3" d="M60.85,83.29c-1.17-2.18-4.27-8.5-4.58-11.52a1.21,1.21,0,0,1,.37-1c1.51-1.74,6.23-2.76,7.21-2.81l-.05-3.18c-.63,0-6.88.9-9.5,3.84a4.41,4.41,0,0,0-1.2,3.43c.44,4.26,4.76,12.36,4.95,12.71Z"/><path class="cls-4" d="M63.28,40.39l7.53-12.23,14.9-8.31L83,14.92,67.41,23.58a2.79,2.79,0,0,0-1,1L58.47,37.43Z"/><polygon class="cls-3" points="38.2 57.66 34.27 51.87 38.59 41.97 53.27 34.25 67.29 43.11 67.2 57.26 38.2 57.66"/><path class="cls-3" d="M54.33,36.6l2.09-3.05a1.66,1.66,0,0,1,2.29-.42l7.54,5.19a1.64,1.64,0,0,1,.43,2.28l-2.1,3Z"/><path class="cls-1" d="M64,52.79l-22.64.31a3.18,3.18,0,0,0-3.14,3.23l.37,26.91a3.18,3.18,0,0,0,3.22,3.14l22.64-.31a3.18,3.18,0,0,0,3.14-3.23l-.37-26.91A3.18,3.18,0,0,0,64,52.79ZM61.3,82.93l-11.09.15a1.66,1.66,0,0,1-1.69-1.64l-.26-18.73A1.67,1.67,0,0,1,49.91,61L61,60.87a1.67,1.67,0,0,1,1.69,1.65l.25,18.72A1.66,1.66,0,0,1,61.3,82.93Z"/><path class="cls-5" d="M113.73,12H223.34a6,6,0,0,0,0-12H113.73a6,6,0,0,0,0,12Z"/><polygon class="cls-5" points="168.53 141.02 89.09 141.02 89.09 179.13 80.31 179.13 80.31 210.8 89.09 210.8 89.09 323.25 168.53 323.25 247.98 323.25 247.98 141.02 168.53 141.02"/><path class="cls-6" d="M168.53,30H111.4A11.47,11.47,0,0,0,99.93,41.43V89.48h68.6Z"/><path class="cls-6" d="M168.53,83.86H99.93v20.67A11.46,11.46,0,0,0,111.4,116h57.3v-.16h-.17Z"/><path class="cls-7" d="M168.7,89.48h68.6V41.27A11.47,11.47,0,0,0,225.83,29.8h-57.3V30h.17Z"/><path class="cls-7" d="M168.7,83.86v32h57.13a11.46,11.46,0,0,0,11.47-11.47V83.86Z"/><text class="cls-8" transform="translate(130.18 271.49)">P</text><path class="cls-1" d="M263.83,350.16c5.78,0,10.46-3.61,10.46-8.07V324c0-4.46-4.68-8.07-10.46-8.07H10.46C4.68,315.93,0,319.54,0,324v18.09c0,4.46,4.68,8.07,10.46,8.07"/></g></g></svg>