<?xml version="1.0" encoding="utf-8"?>
<!-- Generator: Adobe Illustrator 25.1.0, SVG Export Plug-In . SVG Version: 6.00 Build 0)  -->
<svg version="1.1" id="Layer_1" xmlns="http://www.w3.org/2000/svg" xmlns:xlink="http://www.w3.org/1999/xlink" x="0px" y="0px"
	 viewBox="0 0 274.3 350.2" style="enable-background:new 0 0 274.3 350.2;" xml:space="preserve">
<style type="text/css">
	.st0{fill:#DCE3E6;}
	.st1{fill:#9EB3BA;}
	.st2{fill:#94ABB3;}
	.st3{fill:#D7E0E3;}
	.st4{fill:#FEFEFE;}
	.st5{fill:#F5F7F8;}
	.st6{enable-background:new    ;}
</style>
<g id="Layer_2_1_">
	<g id="Layer_1-2">
		<path class="st0" d="M248,141V16.2c0-6.3-5.1-11.5-11.5-11.5l0,0H100.6c-6.3,0-11.5,5.1-11.5,11.5V141H248z"/>
		<path class="st1" d="M42.8,295.6h-1.9c-16.6-0.5-28.4-6.5-34.9-18C-9.6,250.4,8,199,27.7,163.2c24.2-43.8,14.8-87.3,14.7-87.8
			c-0.3-1.5,0.6-2.9,2.1-3.3c1.5-0.3,2.9,0.6,3.3,2.1c0.4,1.9,10,45.9-15.2,91.6C12,203.1-2.7,251.3,10.8,274.9
			c5.6,9.7,15.8,14.8,30.3,15.2c13.9,0.4,23.9-3.9,29.6-12.8c15.5-24-2.6-74.8-5.7-81.2c-0.4-0.8-0.4-1.8,0.1-2.6s1.4-1.3,2.3-1.3
			h38.5c1.5-0.1,2.8,1.1,2.9,2.6s-1.1,2.8-2.6,2.9c-0.1,0-0.2,0-0.3,0H71.3c5,13.5,19.5,58.5,3.9,82.7
			C68.6,290.5,57.8,295.6,42.8,295.6z"/>
		<path class="st2" d="M52,84.6v3.9c0,1.8-1.4,3.2-3.1,3.2l0,0l-4.4,0.1c-1.8,0-3.2-1.4-3.2-3.1l0,0l-0.1-3.9L52,84.6z"/>
		<path class="st2" d="M60.8,83.3c-1.2-2.2-4.3-8.5-4.6-11.5c0-0.4,0.1-0.7,0.4-1c1.5-1.7,6.2-2.8,7.2-2.8v-3.2
			c-0.6,0-6.9,0.9-9.5,3.8c-0.9,0.9-1.3,2.2-1.2,3.4c0.4,4.3,4.8,12.4,5,12.7L60.8,83.3z"/>
		<path class="st3" d="M63.3,40.4l7.5-12.2l14.9-8.3l-2.7-5l-15.6,8.7c-0.4,0.2-0.8,0.6-1,1l-7.9,12.9L63.3,40.4z"/>
		<polygon class="st2" points="38.2,57.7 34.3,51.9 38.6,42 53.3,34.2 67.3,43.1 67.2,57.3 		"/>
		<path class="st2" d="M54.3,36.6l2.1-3c0.5-0.7,1.5-0.9,2.3-0.4l7.5,5.2c0.7,0.5,0.9,1.5,0.4,2.3l0,0l-2.1,3L54.3,36.6z"/>
		<path class="st0" d="M64,52.8l-22.6,0.3c-1.8,0-3.2,1.5-3.1,3.2l0,0l0.4,26.9c0,1.8,1.5,3.2,3.2,3.1l0,0L64.5,86
			c1.8,0,3.2-1.5,3.1-3.2l0,0l-0.4-26.9C67.2,54.2,65.8,52.8,64,52.8L64,52.8z M61.3,82.9l-11.1,0.2c-0.9,0-1.7-0.7-1.7-1.6l0,0
			l-0.3-18.7c0-0.9,0.7-1.7,1.6-1.7l0,0L61,60.9c0.9,0,1.7,0.7,1.7,1.6l0,0l0.2,18.7C63,82.2,62.2,82.9,61.3,82.9L61.3,82.9z"/>
		<path class="st2" d="M113.7,12h109.6c3.3,0,6-2.7,6-6s-2.7-6-6-6H113.7c-3.3,0-6,2.7-6,6S110.4,12,113.7,12z"/>
		<polygon class="st2" points="168.5,141 89.1,141 89.1,179.1 80.3,179.1 80.3,210.8 89.1,210.8 89.1,323.2 168.5,323.2 248,323.2 
			248,141 		"/>
		<path class="st4" d="M168.5,30h-57.1c-6.3,0-11.4,5.1-11.5,11.4v48.1h68.6V30z"/>
		<path class="st4" d="M168.5,83.9H99.9v20.7c0,6.3,5.1,11.5,11.4,11.5l0,0h57.3v-0.2h-0.2L168.5,83.9L168.5,83.9z"/>
		<path class="st5" d="M168.7,89.5h68.6V41.3c0-6.3-5.1-11.5-11.5-11.5h-57.3V30h0.2L168.7,89.5L168.7,89.5z"/>
		<path class="st5" d="M168.7,83.9v32h57.1c6.3,0,11.5-5.1,11.5-11.4l0,0V83.9H168.7z"/>
		<g class="st6">
			<path class="st4" d="M158.3,237.2v34.3h-18.6V181h38.7c10.4,0,18.1,2.6,23.2,7.8c5.1,5.2,7.6,12,7.6,20.4
				c0,8.3-2.6,15.1-7.8,20.3c-5.2,5.2-12.9,7.8-23,7.8H158.3z M158.3,220.1h20.1c4.1,0,7.1-1,9.2-2.9c2-2,3.1-4.6,3.1-8
				c0-3.4-1-6.1-3.1-8.1c-2-2-5.1-3-9.2-3h-20.1V220.1z"/>
		</g>
		<path class="st2" d="M263.8,350.2c5.8,0,10.5-3.6,10.5-8.1V324c0-4.5-4.7-8.1-10.5-8.1H10.5C4.7,315.9,0,319.5,0,324v18.1
			c0,4.5,4.7,8.1,10.5,8.1"/>
	</g>
</g>
</svg>
