<svg xmlns="http://www.w3.org/2000/svg" viewBox="0 0 516.67 181.9"><defs><style>.cls-1{fill:#94abb3;}.cls-2{fill:#e6ecee;}.cls-3{fill:#dce3e6;}</style></defs><g id="Layer_2" data-name="Layer 2"><g id="Layer_1-2" data-name="Layer 1"><path class="cls-1" d="M267.75,140.66h-.16l-2.32.05-.68,0-1.42,0v0a61.43,61.43,0,0,0-6.31.65,11.23,11.23,0,0,0-9.32,11.15v4.18a10.35,10.35,0,0,0,8.52,10.2,61.51,61.51,0,0,0,7.11.8v0l1.43,0,.65,0c.78,0,1.56,0,2.34,0h.16c8.76.11,17.89-.71,22.6-4V144.66C285.64,141.38,276.51,140.56,267.75,140.66Z"/><path class="cls-2" d="M293.66,154.31c0,5.34-1.66,9.67-3.7,9.67s-3.71-4.33-3.71-9.67,1.66-9.67,3.71-9.67S293.66,149,293.66,154.31Z"/><path class="cls-3" d="M292.61,154.43c0,3.38-1,6.12-2.26,6.12s-2.27-2.74-2.27-6.12,1-6.13,2.27-6.13S292.61,151,292.61,154.43Z"/><path class="cls-2" d="M38,59.55l43.45,27h30.59s-43.72-21.75-59.67-27C45.54,57.28,38,59.55,38,59.55Z"/><polygon class="cls-2" points="283.01 99.52 232.44 44.01 218.98 19.57 228.28 19.57 249.66 40.96 384.49 99.52 283.01 99.52"/><polygon class="cls-1" points="69.53 77.68 40.26 0 55.6 0 103.97 56.22 142.01 80.23 69.53 77.68"/><path class="cls-2" d="M504.44,101C491.49,90.11,477,79.22,441.22,79.22s-207.25.35-259.87.35-112.77-2.91-133.1-3.2c-.17,3.1-.24,4.71-.28,6.26,19.39,2.67,45.1,5.51,74.61,7,65.55,3.27,292.16.61,309.77,1.07s45,15.54,52,28.39a55.31,55.31,0,0,1,5,13h6.85C526.83,132.11,517.39,111.89,504.44,101Z"/><path class="cls-3" d="M432.35,90.68c-17.61-.46-244.22,2.2-309.77-1.07-29.51-1.47-55.22-4.31-74.61-7,0,1.69,0,3.31,0,6.7,18,12.28,79.36,43.47,115.94,43.47,121.73,0,230.06-.66,325.54-.69a55.31,55.31,0,0,0-5-13C477.36,106.22,450,91.14,432.35,90.68Z"/><path class="cls-1" d="M480.86,130.38c-31.78.9-292.18,2.87-336.15-1.28-3.79-.36-13.67-2-18.54-3.71C95,114.46,47.93,86,47.93,86v3.32s42.56,29.36,79,42.16c6.23,2.19,11.75,2.67,21.6,3.42,51.65,4,179.91,3.36,206.3,3.36l127.53,0c14.72,0,26.71-4.45,31.2-9.31,3.12-3.38,3-6.52,3-6.52S512.64,129.48,480.86,130.38Z"/><path class="cls-1" d="M452.35,95.49l.4,7.21a128.82,128.82,0,0,0,18.83,1.5l-3-9.37C464.15,95.21,458.52,95.32,452.35,95.49Z"/><path class="cls-1" d="M504.44,101s-4.83-4.21-6.47-5.43c-1.83-1.37-7.44-4.89-7.44-4.89s-3.72,2.32-18.65,3.85l4.54,9.69C488.53,104,504.44,101,504.44,101Z"/><path class="cls-2" d="M252.13,114.7a57.09,57.09,0,0,0-22,4.4L224,121.66,119.19,166.19,101,144.37l-11.5,1.75,26.08,35.78h22.08S286,143,334.31,126.27c3-1,11.73-4.86,11.73-4.86a3.42,3.42,0,0,0-1-6.71h-93Z"/><path class="cls-2" d="M0,109l71-13.7a42.4,42.4,0,0,1,6.46-.5H99.83a5,5,0,0,1,4.89,4.08h0a5,5,0,0,1-4.38,5.83S39.41,113,19,113C6.82,113,0,109,0,109Z"/><rect class="cls-1" x="396.92" y="94.22" width="5.71" height="8.04"/><rect class="cls-1" x="410" y="89.28" width="10.05" height="17.93" rx="0.92"/><rect class="cls-1" x="386.22" y="94.22" width="5.71" height="8.04"/><rect class="cls-1" x="375.51" y="94.22" width="5.71" height="8.04"/><rect class="cls-1" x="364.8" y="94.22" width="5.71" height="8.04"/><rect class="cls-1" x="354.09" y="94.22" width="5.71" height="8.04"/><rect class="cls-1" x="343.38" y="94.22" width="5.71" height="8.04"/><rect class="cls-1" x="332.68" y="94.22" width="5.71" height="8.04"/><rect class="cls-1" x="299.87" y="94.22" width="5.71" height="8.04"/><rect class="cls-1" x="289.16" y="94.22" width="5.71" height="8.04"/><rect class="cls-1" x="278.46" y="94.22" width="5.71" height="8.04"/><rect class="cls-1" x="267.75" y="94.22" width="5.71" height="8.04"/><rect class="cls-1" x="257.04" y="94.22" width="5.71" height="8.04"/><rect class="cls-1" x="246.33" y="94.22" width="5.71" height="8.04"/><rect class="cls-1" x="235.62" y="94.22" width="5.71" height="8.04"/><rect class="cls-1" x="223.73" y="94.22" width="5.71" height="8.04"/><rect class="cls-1" x="213.02" y="94.22" width="5.71" height="8.04"/><rect class="cls-1" x="202.31" y="94.22" width="5.71" height="8.04"/><rect class="cls-1" x="191.6" y="94.22" width="5.71" height="8.04"/><rect class="cls-1" x="180.9" y="94.22" width="5.71" height="8.04"/><rect class="cls-1" x="170.19" y="94.22" width="5.71" height="8.04"/><rect class="cls-1" x="159.48" y="94.22" width="5.71" height="8.04"/><rect class="cls-1" x="143.54" y="89.28" width="10.05" height="17.93" rx="0.92"/><polygon class="cls-1" points="218.98 19.57 232.44 44.01 249.66 40.96 228.28 19.57 218.98 19.57"/><polygon class="cls-1" points="89.46 146.12 100.95 144.38 137.62 181.9 115.54 181.9 89.46 146.12"/></g></g></svg>