<?xml version="1.0" encoding="utf-8"?>
<!-- Generator: Adobe Illustrator 25.1.0, SVG Export Plug-In . SVG Version: 6.00 Build 0)  -->
<svg version="1.1" id="Layer_1" xmlns="http://www.w3.org/2000/svg" xmlns:xlink="http://www.w3.org/1999/xlink" x="0px" y="0px"
	 viewBox="0 0 195.2 369.8" style="enable-background:new 0 0 195.2 369.8;" xml:space="preserve">
<style type="text/css">
	.st0{fill:#94ABB3;}
	.st1{fill:#D6DFE2;}
</style>
<g id="Layer_2_1_">
	<g id="Layer_1-2">
		<path class="st0" d="M53.2,113.5c-6.1,0-11.1-5-11.1-11.1c0,0,0,0,0,0V11.1C42.3,5,47.5,0.1,53.6,0.3c5.9,0.2,10.6,4.9,10.8,10.8
			v91.3C64.3,108.5,59.4,113.5,53.2,113.5L53.2,113.5z"/>
		<path class="st0" d="M142.5,113.5c-6.1,0-11.1-5-11.1-11.1c0,0,0,0,0,0V11.1c0-6.1,5-11.1,11.1-11.1c6.1,0,11.1,5,11.1,11.1v91.3
			C153.6,108.5,148.7,113.5,142.5,113.5C142.5,113.5,142.5,113.5,142.5,113.5z"/>
		<path class="st0" d="M84.4,212.6H112c4.6,0,8.4,3.7,8.4,8.4v140.5c0,4.6-3.7,8.4-8.4,8.4H84.4c-4.6,0-8.4-3.7-8.4-8.4V220.9
			C76,216.3,79.8,212.6,84.4,212.6z"/>
		<path class="st1" d="M15.2,118.3v64.1c0,45.8,37.2,83,83,83c45.8,0,83-37.2,83-83v-64.1H15.2z"/>
		<path class="st0" d="M195.2,114.5c0,2.1-1.6,3.7-3.7,3.7c0,0,0,0,0,0H3.7c-2.1,0-3.7-1.7-3.7-3.7V90.3c0-2.1,1.7-3.7,3.7-3.7
			c0,0,0,0,0,0h187.7c2,0,3.7,1.6,3.7,3.7c0,0,0,0,0,0.1V114.5z"/>
		<path class="st0" d="M102.5,174.4c0,0,18.9-23.7,21.1-27.9c-4.6,1.3-62.1,35.8-62.1,35.8L95.2,194l0.3,0.1
			c-1.3,1.5-17,24.7-17,24.7l55.2-32.5L102.5,174.4z"/>
	</g>
</g>
</svg>
