<svg xmlns="http://www.w3.org/2000/svg" viewBox="0 0 195.19 369.77"><defs><style>.cls-1{fill:#d9d9d9;}.cls-2{fill:#afcc54;}.cls-3{fill:#404040;}.cls-4{fill:#fff;}</style></defs><g id="Layer_2" data-name="Layer 2"><g id="Layer_1-2" data-name="Layer 1"><path class="cls-1" d="M53.25,113.5a11.08,11.08,0,0,1-11.09-11.08V11.08a11.09,11.09,0,0,1,22.17,0v91.34A11.08,11.08,0,0,1,53.25,113.5Z"/><path class="cls-1" d="M142.54,113.5a11.08,11.08,0,0,1-11.09-11.08V11.08a11.09,11.09,0,0,1,22.18,0v91.34A11.08,11.08,0,0,1,142.54,113.5Z"/><rect class="cls-1" x="76.02" y="212.56" width="44.35" height="157.21" rx="8.36"/><path class="cls-2" d="M15.17,118.27v64.1a83,83,0,0,0,166,0v-64.1Z"/><path class="cls-3" d="M195.19,114.53a3.72,3.72,0,0,1-3.72,3.74H3.74A3.74,3.74,0,0,1,0,114.53V90.3a3.72,3.72,0,0,1,3.74-3.73H191.47a3.7,3.7,0,0,1,3.72,3.73Z"/><path class="cls-4" d="M102.51,174.35s18.91-23.72,21.14-27.88c-4.55,1.29-62.13,35.8-62.13,35.8L95.23,194l.3.09c-1.28,1.52-17,24.73-17,24.73l55.17-32.48Z"/></g></g></svg>