<svg xmlns="http://www.w3.org/2000/svg" viewBox="0 0 364.55 126.42"><defs><style>.cls-1{fill:#94abb3;}.cls-2{fill:#e6eced;}.cls-3{fill:#dce3e6;}.cls-4{fill:#fff;}</style></defs><g id="Layer_2" data-name="Layer 2"><g id="Layer_1-2" data-name="Layer 1"><ellipse class="cls-1" cx="195.39" cy="112.37" rx="10.47" ry="14.06"/><path class="cls-1" d="M237.4,112.37c0,7.76-4.69,14-10.47,14s-10.46-6.29-10.46-14,4.68-14.06,10.46-14.06S237.4,104.6,237.4,112.37Z"/><ellipse class="cls-1" cx="18.59" cy="112.37" rx="10.47" ry="14.06"/><path class="cls-1" d="M60.6,112.37c0,7.76-4.69,14-10.47,14s-10.46-6.29-10.46-14,4.68-14.06,10.46-14.06S60.6,104.6,60.6,112.37Z"/><path class="cls-2" d="M350.18,75.87c-17.09-15.74-43.59-37.16-68.75-53.32-24-15.43-50.18-21.4-66.52-22C181.17-.69,0,.55,0,.55V25.72H182.27c29.2,0,46.07,11.2,75.32,30.1,29.43,19,57.94,40.76,69.46,55.86h2.81C347.36,111.68,385.21,108.13,350.18,75.87Z"/><path class="cls-3" d="M182.27,25.72H0v86H327.05c-11.52-15.1-40-36.85-69.46-55.86C228.34,36.92,211.47,25.72,182.27,25.72Z"/><path class="cls-1" d="M358.64,106.53s-39.9-4.54-59.08-7.84C281.64,95.6,0,93.67,0,93.67v18H275.9C345.48,111.68,351.57,111.68,358.64,106.53Z"/><rect class="cls-1" y="25.72" width="156.18" height="28.07"/><path class="cls-1" d="M168.6,19.37c-2.06-.91-4.18,1.16-4.18,4.08V68.7H178s.47-33.27,0-40.2C177.72,24.18,172.49,21.08,168.6,19.37Z"/><rect class="cls-4" x="140.23" y="32.71" width="10.5" height="14.11"/><rect class="cls-4" x="167.71" y="32.71" width="6.9" height="14.11"/><rect class="cls-4" x="122.91" y="32.71" width="10.5" height="14.11"/><rect class="cls-4" x="106.16" y="32.71" width="10.5" height="14.11"/><rect class="cls-4" x="88.87" y="32.71" width="10.5" height="14.11"/><rect class="cls-4" x="71.32" y="32.71" width="10.5" height="14.11"/><rect class="cls-4" x="54.04" y="32.71" width="10.5" height="14.11"/><rect class="cls-4" x="37.29" y="32.71" width="10.5" height="14.11"/><rect class="cls-4" x="20" y="32.71" width="10.5" height="14.11"/><rect class="cls-4" x="4.43" y="32.71" width="10.5" height="14.11"/><path class="cls-1" d="M237.4,82.05c-2.89-.78-3.27-7.63-86.67-7.51C112.14,74.6,0,74.54,0,74.54v6.59H170.71C208.66,81.13,237.4,82.05,237.4,82.05Z"/><path class="cls-1" d="M298.63,26.62C279,9.14,266,6.65,256.37,9.83c-3.69,1.21-12.19,6.41-13,10.6a2.9,2.9,0,0,0,.93,2.83c7.07,6.56,31.49,24.5,50,36.92,7.41,5,13.82,5.66,18.95,4.56a24.9,24.9,0,0,0,13.73-8.9A250.52,250.52,0,0,0,298.63,26.62Z"/></g></g></svg>