<?xml version="1.0" encoding="utf-8"?>
<!-- Generator: Adobe Illustrator 25.1.0, SVG Export Plug-In . SVG Version: 6.00 Build 0)  -->
<svg version="1.1" id="Layer_1" xmlns="http://www.w3.org/2000/svg" xmlns:xlink="http://www.w3.org/1999/xlink" x="0px" y="0px"
	 viewBox="0 0 330 126.4" style="enable-background:new 0 0 330 126.4;" xml:space="preserve">
<style type="text/css">
	.st0{fill:url(#SVGID_1_);}
	.st1{fill:url(#SVGID_2_);}
	.st2{fill:url(#SVGID_3_);}
	.st3{fill:url(#SVGID_4_);}
	.st4{fill:url(#SVGID_5_);}
	.st5{fill:url(#SVGID_6_);}
	.st6{fill:url(#SVGID_7_);}
	.st7{fill:url(#SVGID_8_);}
	.st8{fill:url(#SVGID_9_);}
	.st9{fill:url(#SVGID_10_);}
	.st10{fill:url(#SVGID_11_);}
	.st11{fill:url(#SVGID_12_);}
	.st12{fill:url(#SVGID_13_);}
	.st13{fill:url(#SVGID_14_);}
	.st14{fill:url(#SVGID_15_);}
	.st15{opacity:0.3;}
	.st16{fill:#FFFFFF;}
</style>
<g>
	<linearGradient id="SVGID_1_" gradientUnits="userSpaceOnUse" x1="23.6829" y1="80.8382" x2="232.3414" y2="80.8382">
		<stop  offset="0" style="stop-color:#9CADB3"/>
		<stop  offset="0.9964" style="stop-color:#97A9AF"/>
	</linearGradient>
	<polygon class="st0" points="23.7,48 23.7,57.6 232.3,113.6 223.4,79.1 	"/>
	<linearGradient id="SVGID_2_" gradientUnits="userSpaceOnUse" x1="215.9109" y1="107.4294" x2="305.3587" y2="107.4294">
		<stop  offset="0" style="stop-color:#9CADB3"/>
		<stop  offset="0.9964" style="stop-color:#97A9AF"/>
	</linearGradient>
	<path class="st1" d="M215.9,90.4l16.4,23.2c0,0,39.1,8.9,52.1,10.5c13,1.5,21-2.1,20.9-5.7c-0.2-8.6-10.4-11.8-10.4-11.8
		L215.9,90.4z"/>
	<linearGradient id="SVGID_3_" gradientUnits="userSpaceOnUse" x1="281.725" y1="91.3035" x2="96.7088" y2="1.5164">
		<stop  offset="0" style="stop-color:#E1E6E8"/>
		<stop  offset="0.9964" style="stop-color:#C5CFD2"/>
	</linearGradient>
	<path class="st2" d="M49.4,20.1l-24.2,4.2l169.3-7.7L282.3,95l-1.9,21.9c0,0,30.7-3.9,35.3-6.7c4.7-2.8,10.5-5.5,11.5-13.6
		c0.9-8.1-6.8-16.1-16.4-28c-6.4-7.9-30.6-30.7-57.6-47.8c-20.3-12.8-46-18.5-71.5-15.6L49.4,20.1z"/>
	<linearGradient id="SVGID_4_" gradientUnits="userSpaceOnUse" x1="206.5335" y1="37.8186" x2="294.1499" y2="37.8186">
		<stop  offset="0" style="stop-color:#9CADB3"/>
		<stop  offset="0.9964" style="stop-color:#97A9AF"/>
	</linearGradient>
	<path class="st3" d="M294.1,51.9c-10.5-9.4-24.7-20.8-39.8-30.5c-23.9-4.3-39.6,1.3-47.8,5.9l29.2,26.1
		C255.2,55.6,287.1,58,294.1,51.9z"/>
	<linearGradient id="SVGID_5_" gradientUnits="userSpaceOnUse" x1="219.4461" y1="62.8468" x2="41.5962" y2="50.1873">
		<stop  offset="0" style="stop-color:#C8D1D5"/>
		<stop  offset="0.9964" style="stop-color:#B1BFC3"/>
	</linearGradient>
	<path class="st4" d="M215.9,90.4L25.3,51.9c-3.9-0.8-6.6-3.6-6.6-6.9V30.1c0-3,2.8-5.5,6.5-5.9l150.5-13.4
		c17.1-1.5,34.1,3.7,45.7,14.1l73.2,65.5c4,3.6,5.5,7.8,5.2,11.8c-0.9,11.5-16.4,18.1-28.8,12.6L215.9,90.4z"/>
	<linearGradient id="SVGID_6_" gradientUnits="userSpaceOnUse" x1="18.7221" y1="73.9809" x2="299.6389" y2="73.9809">
		<stop  offset="0" style="stop-color:#E1E6E8"/>
		<stop  offset="0.9964" style="stop-color:#C5CFD2"/>
	</linearGradient>
	<path class="st5" d="M231.8,82.9c-54.5-26-51.3-46.7-82.6-51.1C110.5,26.4,90.5,56,53.1,50.5c-13.6-2-25-7.9-34.4-15.5v10
		c0,3.2,2.7,6.1,6.6,6.9l178.2,36c8.2,1.7,16.1,4.2,23.5,7.5l43.8,19.5c12.1,5.4,27.3-0.9,28.7-12
		C275.5,103.5,253.2,93.1,231.8,82.9z"/>
	<linearGradient id="SVGID_7_" gradientUnits="userSpaceOnUse" x1="112.3557" y1="48.0764" x2="121.9673" y2="48.0764">
		<stop  offset="0" style="stop-color:#9CADB3"/>
		<stop  offset="0.9964" style="stop-color:#97A9AF"/>
	</linearGradient>
	<path class="st6" d="M122,71.4V25.9c0-0.7-0.8-1.3-1.6-1.2l-6.6,0.5c-0.8,0.1-1.3,0.6-1.3,1.2v43L122,71.4z"/>
	<linearGradient id="SVGID_8_" gradientUnits="userSpaceOnUse" x1="180.1638" y1="37.1314" x2="232.9032" y2="37.1314">
		<stop  offset="0" style="stop-color:#9CADB3"/>
		<stop  offset="0.9964" style="stop-color:#97A9AF"/>
	</linearGradient>
	<path class="st7" d="M181.3,21.5c-1.4,0.1-1.5,19.4,0,19.9c1.3,0.4,37.5,8.6,49.8,11.3c1.3,0.3,2.4-1,1.5-1.8
		C224.7,42.9,200.5,19.9,181.3,21.5z"/>
	<linearGradient id="SVGID_9_" gradientUnits="userSpaceOnUse" x1="253.6596" y1="83.9668" x2="294.15" y2="83.9668">
		<stop  offset="0" style="stop-color:#9CADB3"/>
		<stop  offset="0.9964" style="stop-color:#97A9AF"/>
	</linearGradient>
	<path class="st8" d="M293.9,92.7l-15.4-14.5c-0.5-0.4-1.2-0.7-1.9-0.8c-9.4-0.5-18.5-2.6-22.2-3.5c-0.5-0.1-0.9,0.4-0.6,0.7
		c15.1,16.4,33,19,39.3,19.4C294,94.1,294.5,93.2,293.9,92.7z"/>
	<g>
		<linearGradient id="SVGID_10_" gradientUnits="userSpaceOnUse" x1="46.8224" y1="25.2513" x2="86.0113" y2="51.933">
			<stop  offset="0" style="stop-color:#9CADB3"/>
			<stop  offset="0.9964" style="stop-color:#97A9AF"/>
		</linearGradient>
		<polygon class="st9" points="68.5,31.7 60.4,31.7 60.4,42.9 68.5,43.7 		"/>
		<linearGradient id="SVGID_11_" gradientUnits="userSpaceOnUse" x1="39.8503" y1="32.6605" x2="79.0674" y2="59.3615">
			<stop  offset="0" style="stop-color:#9CADB3"/>
			<stop  offset="0.9964" style="stop-color:#97A9AF"/>
		</linearGradient>
		<polygon class="st10" points="41.8,41 48.6,41.7 48.6,31.7 41.8,31.7 		"/>
		<linearGradient id="SVGID_12_" gradientUnits="userSpaceOnUse" x1="43.2637" y1="29.1176" x2="82.3022" y2="55.6969">
			<stop  offset="0" style="stop-color:#9CADB3"/>
			<stop  offset="0.9964" style="stop-color:#97A9AF"/>
		</linearGradient>
		<polygon class="st11" points="57.9,31.7 51.1,31.7 51.1,41.9 57.9,42.6 		"/>
		<linearGradient id="SVGID_13_" gradientUnits="userSpaceOnUse" x1="55.3774" y1="15.6083" x2="94.9218" y2="42.5321">
			<stop  offset="0" style="stop-color:#9CADB3"/>
			<stop  offset="0.9964" style="stop-color:#97A9AF"/>
		</linearGradient>
		<polygon class="st12" points="83,31.7 83,45.1 94.7,46.3 94.7,31.7 		"/>
		<linearGradient id="SVGID_14_" gradientUnits="userSpaceOnUse" x1="50.8251" y1="20.8259" x2="90.16" y2="47.6071">
			<stop  offset="0" style="stop-color:#9CADB3"/>
			<stop  offset="0.9964" style="stop-color:#97A9AF"/>
		</linearGradient>
		<polygon class="st13" points="80.5,31.7 71,31.7 71,43.9 80.5,44.9 		"/>
		<linearGradient id="SVGID_15_" gradientUnits="userSpaceOnUse" x1="37.065" y1="35.6772" x2="75.2114" y2="61.6492">
			<stop  offset="0" style="stop-color:#9CADB3"/>
			<stop  offset="0.9964" style="stop-color:#97A9AF"/>
		</linearGradient>
		<polygon class="st14" points="39.3,31.7 35.8,31.7 35.8,40.4 39.3,40.7 		"/>
	</g>
	<g class="st15">
		<path class="st16" d="M260.6,32.5c20.8,15.4,15.8,29.2,36.3,48.2c9.4,8.7,20.1,14.7,29.7,18.8c0.3-0.9,0.5-1.9,0.6-3
			c0.9-8.1-6.8-16.1-16.4-28c-6.4-7.9-30.6-30.7-57.6-47.8c-10.5-6.6-22.4-11.3-35-13.9c-1.1,1.2-1.5,2.3-1.5,3.3
			C216.7,17.6,239.8,17.1,260.6,32.5z"/>
	</g>
</g>
</svg>
