<svg xmlns="http://www.w3.org/2000/svg" viewBox="0 0 509.95 374.98"><defs><style>.cls-1{isolation:isolate;}.cls-2{fill:#231a11;}.cls-3{fill:#261d14;}.cls-4{fill:#4d453d;}.cls-5{fill:#3d342b;}.cls-6{fill:#322920;}.cls-7{fill:#736d67;}.cls-8{fill:#423a32;}.cls-9{fill:#616567;}.cls-10{fill:#4d5258;}.cls-11{fill:#989da1;}.cls-12{fill:#e88000;}.cls-13{fill:#d5d8da;}.cls-14{fill:#c2c4c6;}.cls-15{fill:#fff;}.cls-16{mix-blend-mode:multiply;}.cls-17{fill:#ababab;}.cls-18{fill:#e9e5e2;}.cls-19{fill:#8d9092;}.cls-20{fill:#6b6f71;}.cls-21{fill:#382f26;}.cls-22{fill:#4a4f51;}.cls-23{fill:#514a43;}.cls-24{fill:#605952;}.cls-25{fill:#453d35;}.cls-26{fill:#5e6f72;}.cls-27{fill:#676b6d;}.cls-28{fill:#9fb8b9;}.cls-29{fill:#737f82;}.cls-30{fill:#eeeff0;}.cls-31{fill:#cc2e00;}.cls-32{fill:#fbc900;}</style></defs><g class="cls-1"><g id="Layer_2" data-name="Layer 2"><g id="Layer_1-2" data-name="Layer 1"><polygon class="cls-2" points="497.15 346.06 494.47 346.06 479.88 358.28 457.81 367.14 456.36 354.67 493.58 334.73 500.81 333.2 497.15 346.06"/><polygon class="cls-3" points="378.07 336.74 331.17 309.66 331.17 323.25 378.07 350.32 378.07 336.74"/><ellipse class="cls-4" cx="328.65" cy="315.48" rx="7.65" ry="13.26" transform="translate(-114.29 209) rotate(-30.31)"/><path class="cls-4" d="M386.92,349.12c0,6-4.21,8.36-9.4,5.36s-9.41-10.26-9.41-16.21,4.21-8.36,9.41-5.36S386.92,343.16,386.92,349.12Z"/><polygon class="cls-3" points="96.52 174.19 49.63 147.11 49.63 160.69 96.52 187.77 96.52 174.19"/><polygon class="cls-3" points="26.16 148.91 34.73 145.14 50.01 133.19 307.71 308.69 316.47 307.8 284.94 205.59 36.27 108.96 20.88 133.19 26.16 148.91"/><polygon class="cls-5" points="78.49 180.07 64.33 171.89 64.33 164.71 78.49 172.88 78.49 180.07"/><polygon class="cls-6" points="64.33 164.71 66.6 163.47 80.9 171.72 80.9 178.34 78.49 180.07 78.49 172.88 64.33 164.71"/><path class="cls-4" d="M105.37,186.57c0,6-4.21,8.36-9.4,5.36s-9.4-10.26-9.4-16.22,4.21-8.35,9.4-5.36S105.37,180.61,105.37,186.57Z"/><path class="cls-4" d="M56.5,158.36c0,6-4.21,8.36-9.4,5.36s-9.4-10.26-9.4-16.22,4.21-8.36,9.4-5.36S56.5,152.4,56.5,158.36Z"/><path class="cls-7" d="M335.68,321.57c0,6-4.21,8.36-9.4,5.37s-9.41-10.26-9.41-16.22,4.21-8.36,9.41-5.36S335.68,315.62,335.68,321.57Z"/><path class="cls-7" d="M384.55,349.79c0,6-4.21,8.36-9.4,5.36s-9.41-10.26-9.41-16.22,4.21-8.36,9.41-5.36S384.55,343.83,384.55,349.79Z"/><path class="cls-4" d="M382.79,348.77a6.54,6.54,0,0,1-1,3.69c-1.3,2-3.8,2.33-6.68.67-4.22-2.44-7.65-8.34-7.65-13.18,0-2.69,1.06-4.49,2.72-5.13a5.76,5.76,0,0,1,4.93.77C379.36,338,382.79,343.93,382.79,348.77Z"/><path class="cls-8" d="M382.79,348.77a6.54,6.54,0,0,1-1,3.69,5.71,5.71,0,0,1-4.92-.78,16.81,16.81,0,0,1-7.64-13.18,6.55,6.55,0,0,1,1-3.68,5.76,5.76,0,0,1,4.93.77C379.36,338,382.79,343.93,382.79,348.77Z"/><path class="cls-7" d="M378.26,346.16c0,2-1.39,2.77-3.11,1.77a6.85,6.85,0,0,1-3.12-5.37c0-2,1.4-2.76,3.12-1.77A6.86,6.86,0,0,1,378.26,346.16Z"/><path class="cls-4" d="M333.92,320.56a6.67,6.67,0,0,1-.95,3.69c-1.31,1.95-3.81,2.32-6.69.66a16.81,16.81,0,0,1-7.64-13.17c0-2.69,1.05-4.49,2.71-5.14a5.77,5.77,0,0,1,4.93.78A16.85,16.85,0,0,1,333.92,320.56Z"/><path class="cls-8" d="M333.92,320.56a6.67,6.67,0,0,1-.95,3.69,5.77,5.77,0,0,1-4.93-.78,16.85,16.85,0,0,1-7.64-13.18,6.56,6.56,0,0,1,1-3.69,5.77,5.77,0,0,1,4.93.78A16.85,16.85,0,0,1,333.92,320.56Z"/><path class="cls-7" d="M329.39,317.94c0,2-1.39,2.77-3.11,1.78a6.87,6.87,0,0,1-3.12-5.37c0-2,1.4-2.77,3.12-1.78A6.87,6.87,0,0,1,329.39,317.94Z"/><polygon class="cls-6" points="353.74 327.33 339.58 319.16 339.58 312.97 353.74 321.14 353.74 327.33"/><polygon class="cls-5" points="360.04 342.75 345.87 334.58 345.87 327.39 360.04 335.57 360.04 342.75"/><ellipse class="cls-7" cx="44.73" cy="153.6" rx="7.65" ry="13.26" transform="translate(-71.4 43.57) rotate(-30.31)"/><path class="cls-7" d="M103,187.24c0,6-4.21,8.36-9.4,5.36s-9.4-10.26-9.4-16.22S88.41,168,93.6,171,103,181.28,103,187.24Z"/><path class="cls-4" d="M101.24,186.22a6.64,6.64,0,0,1-.95,3.69c-1.3,2-3.81,2.33-6.69.67A16.85,16.85,0,0,1,86,177.4c0-2.69,1.06-4.49,2.71-5.14a5.77,5.77,0,0,1,4.93.78A16.85,16.85,0,0,1,101.24,186.22Z"/><path class="cls-8" d="M101.24,186.22a6.64,6.64,0,0,1-.95,3.69,5.73,5.73,0,0,1-4.93-.78A16.81,16.81,0,0,1,87.72,176a6.68,6.68,0,0,1,1-3.7,5.77,5.77,0,0,1,4.93.78A16.85,16.85,0,0,1,101.24,186.22Z"/><path class="cls-7" d="M96.71,183.61c0,2-1.39,2.76-3.11,1.77A6.84,6.84,0,0,1,90.49,180c0-2,1.39-2.77,3.11-1.77A6.84,6.84,0,0,1,96.71,183.61Z"/><path class="cls-4" d="M52.37,158a6.53,6.53,0,0,1-.95,3.68c-1.3,1.95-3.81,2.34-6.69.67a16.83,16.83,0,0,1-7.64-13.18c0-2.68,1-4.48,2.71-5.13a5.73,5.73,0,0,1,4.93.78A16.83,16.83,0,0,1,52.37,158Z"/><path class="cls-8" d="M52.37,158a6.53,6.53,0,0,1-.95,3.68,5.72,5.72,0,0,1-4.93-.77,16.85,16.85,0,0,1-7.64-13.18,6.64,6.64,0,0,1,.95-3.69,5.73,5.73,0,0,1,4.93.78A16.83,16.83,0,0,1,52.37,158Z"/><path class="cls-7" d="M47.84,155.39c0,2-1.39,2.77-3.11,1.78a6.86,6.86,0,0,1-3.11-5.37c0-2,1.39-2.77,3.11-1.78A6.87,6.87,0,0,1,47.84,155.39Z"/><polygon class="cls-6" points="72.19 164.78 58.03 156.61 58.03 150.42 72.19 158.59 72.19 164.78"/><polygon class="cls-9" points="65.71 78.68 91.88 93.3 65.71 95.87 65.71 78.68"/><polygon class="cls-9" points="438.8 283.86 452.09 294.5 441.23 288.44 91.88 93.3 115.3 91 118.65 82.93 120.52 78.44 187.21 116.93 188.4 121.17 192.43 135.53 396.85 253.55 402.07 240.99 438.8 283.86"/><path class="cls-6" d="M138.83,100.59c0,6-4.21,8.36-9.4,5.36S120,95.69,120,89.74s4.21-8.36,9.4-5.37S138.83,94.63,138.83,100.59Z"/><path class="cls-6" d="M187.7,128.81c0,6-4.21,8.35-9.4,5.36s-9.4-10.26-9.4-16.22,4.21-8.36,9.4-5.36S187.7,122.85,187.7,128.81Z"/><path class="cls-6" d="M185.94,127.79c0,4.84-3.42,6.79-7.64,4.36A16.85,16.85,0,0,1,170.66,119c0-4.85,3.42-6.8,7.64-4.36A16.85,16.85,0,0,1,185.94,127.79Z"/><path class="cls-6" d="M181.41,125.18c0,2-1.39,2.76-3.11,1.77a6.86,6.86,0,0,1-3.11-5.37c0-2,1.39-2.77,3.11-1.77A6.84,6.84,0,0,1,181.41,125.18Z"/><path class="cls-6" d="M137.07,99.57c0,4.85-3.42,6.8-7.64,4.36a16.85,16.85,0,0,1-7.64-13.18c0-4.84,3.42-6.79,7.64-4.35A16.81,16.81,0,0,1,137.07,99.57Z"/><path class="cls-6" d="M132.54,97c0,2-1.39,2.77-3.11,1.78a6.87,6.87,0,0,1-3.11-5.37c0-2,1.39-2.77,3.11-1.78A6.86,6.86,0,0,1,132.54,97Z"/><polygon class="cls-6" points="179.56 116.64 132.66 89.57 132.66 103.15 179.56 130.23 179.56 116.64"/><polygon class="cls-6" points="163.19 110.06 149.03 101.88 149.03 95.69 163.19 103.86 163.19 110.06"/><polygon class="cls-6" points="163.19 120.78 149.03 112.6 149.03 106.41 163.19 114.59 163.19 120.78"/><path class="cls-10" d="M121.4,50.37,79.51,59.69a7.22,7.22,0,0,1-3-5.75V36c0-2.22,1.35-3.24,3-2.28l12.87,7.44a7.18,7.18,0,0,1,3,5.74l29,1.21C124.4,50.31,123.06,51.33,121.4,50.37Z"/><path class="cls-10" d="M45,40.6l17.25,10a.09.09,0,0,0,.14-.08V23.36a.32.32,0,0,0-.14-.24l-13-7.51c-.07,0-.12,0-.14.05L44.82,40.33A.29.29,0,0,0,45,40.6Z"/><polygon class="cls-11" points="0 55.77 412.29 293.81 412.5 359.3 0 121.14 0 55.77"/><polygon class="cls-12" points="410.39 337.44 410.39 344.9 0 107.97 0 100.5 410.39 337.44"/><polygon class="cls-13" points="2.79 42.7 415.91 281.2 412.29 293.81 0 55.77 2.79 42.7"/><polygon class="cls-14" points="0.92 51.47 413.48 289.66 412.29 293.81 0 55.77 0.92 51.47"/><polygon class="cls-15" points="2.79 42.7 415.91 281.2 422.46 278.49 5.58 37.94 2.79 42.7"/><polygon class="cls-9" points="412.5 359.3 417.72 372.8 384.84 355.99 377.36 340.18 310.67 301.68 307.71 308.69 103.29 190.67 95.81 180.4 29.13 141.9 26.16 148.91 5.58 137.03 0 121.14 412.5 359.3"/><polygon class="cls-6" points="410.39 296.83 410.39 334.73 0 97.8 0 59.9 410.39 296.83"/><polygon class="cls-11" points="67.54 154.95 37.48 137.59 37.48 80.58 67.54 97.94 67.54 154.95"/><path class="cls-11" d="M388.65,317.58l-12.88-7.43a7.2,7.2,0,0,1-3-5.75V282.91c0-2.22,1.34-3.23,3-2.27l12.88,7.43a7.21,7.21,0,0,1,3,5.75v21.49C391.66,317.52,390.31,318.54,388.65,317.58Z"/><path class="cls-10" d="M389.84,316.61a1.16,1.16,0,0,1-.52-.18L376.44,309a5.91,5.91,0,0,1-2.34-4.59V282.91c0-.73.21-1.3.48-1.3a1.09,1.09,0,0,1,.53.18L388,289.22a5.93,5.93,0,0,1,2.34,4.6v21.49C390.32,316,390.11,316.61,389.84,316.61Z"/><path class="cls-11" d="M90.37,145.37l-12.88-7.44a7.2,7.2,0,0,1-3-5.74V110.7c0-2.22,1.35-3.24,3-2.28l12.88,7.44a7.18,7.18,0,0,1,3,5.74v21.49C93.37,145.31,92,146.33,90.37,145.37Z"/><path class="cls-10" d="M91.56,144.39a1.09,1.09,0,0,1-.53-.18l-12.87-7.43a5.93,5.93,0,0,1-2.34-4.59v-21.5c0-.72.21-1.3.48-1.3a1.1,1.1,0,0,1,.52.19L89.7,117A5.93,5.93,0,0,1,92,121.6v21.49C92,143.82,91.83,144.39,91.56,144.39Z"/><path class="cls-11" d="M26.68,108.6,13.8,101.16a7.2,7.2,0,0,1-3-5.74V73.92c0-2.21,1.35-3.23,3-2.27l12.88,7.43a7.21,7.21,0,0,1,3,5.75v21.49C29.68,108.54,28.34,109.55,26.68,108.6Z"/><path class="cls-10" d="M27.87,107.62a1.09,1.09,0,0,1-.53-.18L14.47,100a5.93,5.93,0,0,1-2.34-4.59V73.92c0-.73.21-1.3.48-1.3a1.1,1.1,0,0,1,.52.19L26,80.24a5.91,5.91,0,0,1,2.34,4.59v21.49C28.35,107.05,28.14,107.62,27.87,107.62Z"/><path class="cls-11" d="M132.61,169.76,101,151.51a7.38,7.38,0,0,1-3.09-5.9V124.34c0-2.28,1.38-3.32,3.09-2.34l31.6,18.25a7.37,7.37,0,0,1,3.09,5.9v21.27C135.7,169.7,134.32,170.74,132.61,169.76Z"/><path class="cls-10" d="M133.84,168.79a1.11,1.11,0,0,1-.56-.19l-31.6-18.24a6.16,6.16,0,0,1-2.43-4.75V124.34c0-.79.23-1.38.53-1.38a1.23,1.23,0,0,1,.56.19L132,141.4a6.13,6.13,0,0,1,2.42,4.75v21.27C134.37,168.2,134.14,168.79,133.84,168.79Z"/><path class="cls-11" d="M312.16,243.91,325,251.34a7.21,7.21,0,0,1,3,5.75v21.49c0,2.21-1.35,3.23-3,2.27l-12.87-7.43a7.21,7.21,0,0,1-3-5.75V246.18C309.15,244,310.5,243,312.16,243.91Z"/><path class="cls-10" d="M326.23,279.88a1.06,1.06,0,0,1-.53-.18l-12.88-7.44a5.94,5.94,0,0,1-2.34-4.59V246.18c0-.73.21-1.3.48-1.3a1.06,1.06,0,0,1,.53.18l12.88,7.44a5.94,5.94,0,0,1,2.34,4.59v21.49C326.71,279.31,326.5,279.88,326.23,279.88Z"/><path class="cls-11" d="M237.22,200.67l12.88,7.44a7.2,7.2,0,0,1,3,5.74v21.49c0,2.22-1.35,3.24-3,2.28l-12.88-7.44a7.2,7.2,0,0,1-3-5.74V203C234.22,200.73,235.56,199.71,237.22,200.67Z"/><path class="cls-10" d="M251.29,236.65a1.1,1.1,0,0,1-.52-.19L237.89,229a5.93,5.93,0,0,1-2.34-4.59V203c0-.73.21-1.31.48-1.31a1.16,1.16,0,0,1,.53.19l12.87,7.43a5.93,5.93,0,0,1,2.34,4.59v21.49C251.77,236.07,251.56,236.65,251.29,236.65Z"/><path class="cls-11" d="M151.29,151.26l12.87,7.43a7.21,7.21,0,0,1,3,5.75v21.49c0,2.21-1.35,3.23-3,2.27l-12.87-7.43a7.18,7.18,0,0,1-3-5.75V153.53C148.28,151.32,149.62,150.3,151.29,151.26Z"/><path class="cls-10" d="M165.36,187.23a1.06,1.06,0,0,1-.53-.18L152,179.61a5.94,5.94,0,0,1-2.34-4.59V153.53c0-.73.21-1.3.48-1.3a1.09,1.09,0,0,1,.53.18l12.87,7.44a5.91,5.91,0,0,1,2.34,4.59v21.49C165.83,186.66,165.62,187.23,165.36,187.23Z"/><path class="cls-11" d="M269.91,219.52l31.6,18.24a7.4,7.4,0,0,1,3.09,5.9v21.28c0,2.27-1.38,3.32-3.09,2.33L269.91,249a7.4,7.4,0,0,1-3.09-5.91V221.85C266.82,219.58,268.2,218.53,269.91,219.52Z"/><path class="cls-10" d="M302.74,266.31a1.14,1.14,0,0,1-.56-.19l-31.6-18.25a6.12,6.12,0,0,1-2.42-4.75V221.85c0-.78.22-1.37.52-1.37a1.11,1.11,0,0,1,.56.19l31.61,18.25a6.11,6.11,0,0,1,2.42,4.74v21.28C303.27,265.72,303,266.31,302.74,266.31Z"/><polygon class="cls-11" points="216.29 240.83 186.23 223.48 186.23 166.47 216.29 183.82 216.29 240.83"/><path class="cls-6" d="M197.33,203.58l-6.72-3.88a3.43,3.43,0,0,1-1.44-2.74V174.81c0-1.05.64-1.54,1.44-1.08l6.72,3.88a3.46,3.46,0,0,1,1.44,2.74V202.5C198.77,203.56,198.12,204,197.33,203.58Z"/><path class="cls-10" d="M191.27,198.55a2.22,2.22,0,0,1-.77-1.59V175.21l6.16,3.56a2.16,2.16,0,0,1,.77,1.58V202.1Z"/><path class="cls-6" d="M211.8,211.94l-6.72-3.88a3.43,3.43,0,0,1-1.44-2.75V183.17c0-1.06.64-1.54,1.44-1.09L211.8,186a3.43,3.43,0,0,1,1.44,2.74v22.14C213.24,211.91,212.59,212.4,211.8,211.94Z"/><path class="cls-10" d="M205.74,206.9a2.2,2.2,0,0,1-.77-1.59V183.57l6.16,3.55a2.16,2.16,0,0,1,.77,1.59v21.75Z"/><g class="cls-16"><path class="cls-17" d="M216,243.1l-29.44-17V168.73l29.44,17Zm-28.2-17.71,27,15.56V186.44l-27-15.57Z"/></g><polygon class="cls-6" points="201.59 233.43 200.93 233.05 200.93 177.75 201.59 178.13 201.59 233.43"/><polygon class="cls-11" points="365.05 326.72 334.98 309.36 334.98 252.35 365.05 269.71 365.05 326.72"/><path class="cls-6" d="M346.08,289.47l-6.72-3.89a3.43,3.43,0,0,1-1.44-2.74V260.7c0-1.06.65-1.55,1.44-1.09l6.72,3.88a3.43,3.43,0,0,1,1.44,2.75v22.14C347.52,289.44,346.88,289.92,346.08,289.47Z"/><path class="cls-10" d="M340,284.43a2.16,2.16,0,0,1-.77-1.59V261.09l6.16,3.56a2.2,2.2,0,0,1,.77,1.59V288Z"/><path class="cls-6" d="M360.55,297.82l-6.72-3.88a3.46,3.46,0,0,1-1.44-2.74V269.05c0-1.06.65-1.54,1.44-1.08l6.72,3.88a3.42,3.42,0,0,1,1.44,2.74v22.15C362,297.79,361.35,298.28,360.55,297.82Z"/><path class="cls-10" d="M354.5,292.78a2.16,2.16,0,0,1-.77-1.58V269.45l6.16,3.55a2.22,2.22,0,0,1,.77,1.59v21.75Z"/><g class="cls-16"><path class="cls-17" d="M364.74,329l-29.45-17V254.61l29.45,17Zm-28.21-17.71,27,15.57V272.33l-27-15.57Z"/></g><polygon class="cls-6" points="350.34 319.31 349.69 318.94 349.69 263.64 350.34 264.02 350.34 319.31"/><path class="cls-6" d="M48.58,117.7l-6.73-3.88a3.45,3.45,0,0,1-1.43-2.75V88.93c0-1.06.64-1.54,1.43-1.08l6.73,3.88A3.43,3.43,0,0,1,50,94.47v22.14C50,117.67,49.37,118.16,48.58,117.7Z"/><path class="cls-10" d="M42.52,112.66a2.16,2.16,0,0,1-.77-1.59V89.33l6.16,3.55a2.18,2.18,0,0,1,.77,1.59v21.75Z"/><path class="cls-6" d="M63.05,126.06l-6.73-3.89a3.42,3.42,0,0,1-1.43-2.74V97.29c0-1.06.64-1.55,1.43-1.09l6.73,3.88a3.45,3.45,0,0,1,1.43,2.75V125C64.48,126,63.84,126.51,63.05,126.06Z"/><path class="cls-10" d="M57,121a2.16,2.16,0,0,1-.77-1.59V97.68l6.16,3.56a2.16,2.16,0,0,1,.77,1.59v21.74Z"/><g class="cls-16"><path class="cls-17" d="M67.23,157.22l-29.44-17V82.85l29.44,17ZM39,139.5l27,15.57V100.56L39,85Z"/></g><polygon class="cls-6" points="52.84 147.55 52.18 147.17 52.18 91.87 52.84 92.25 52.84 147.55"/><polygon class="cls-11" points="332.37 308.37 335.45 310.15 335.45 252.18 332.37 250.4 332.37 308.37"/><polygon class="cls-11" points="364.84 326.76 367.92 328.54 367.92 270.56 364.84 268.78 364.84 326.76"/><polygon class="cls-11" points="183.49 222.08 186.57 223.86 186.57 165.88 183.49 164.1 183.49 222.08"/><polygon class="cls-11" points="215.95 241.53 219.04 243.31 219.04 185.33 215.95 183.55 215.95 241.53"/><polygon class="cls-11" points="34.73 135.34 37.81 137.12 37.81 79.14 34.73 77.36 34.73 135.34"/><polygon class="cls-11" points="67.2 155.48 70.28 157.26 70.28 99.28 67.2 97.5 67.2 155.48"/><polygon class="cls-18" points="5.58 37.94 422.46 278.49 436.39 275.31 467.14 265.08 483.68 247.54 479.64 235.76 71.29 0 5.58 37.94"/><polygon class="cls-19" points="17.62 30.58 431.02 267.65 431.21 267.95 429.75 268.84 17.3 31.18 17.62 30.58"/><polygon class="cls-15" points="18.77 29.91 431.02 267.65 430.06 268.23 17.62 30.58 18.77 29.91"/><polygon class="cls-19" points="26.17 25.67 439.56 262.75 439.76 263.04 438.29 263.93 25.85 26.27 26.17 25.67"/><polygon class="cls-15" points="27.32 25 439.56 262.75 438.61 263.32 26.17 25.67 27.32 25"/><polygon class="cls-19" points="34.71 20.76 448.11 257.83 448.31 258.13 446.84 259.02 34.4 21.36 34.71 20.76"/><polygon class="cls-15" points="35.87 20.09 448.11 257.83 447.16 258.41 34.71 20.76 35.87 20.09"/><polygon class="cls-19" points="43.26 15.85 456.66 252.93 456.86 253.22 455.39 254.11 42.95 16.45 43.26 15.85"/><polygon class="cls-15" points="44.42 15.18 456.66 252.93 455.7 253.5 43.26 15.85 44.42 15.18"/><polygon class="cls-19" points="51.81 10.94 465.21 248.01 465.41 248.31 463.94 249.2 51.49 11.54 51.81 10.94"/><polygon class="cls-15" points="52.97 10.27 465.21 248.01 464.25 248.59 51.81 10.94 52.97 10.27"/><polygon class="cls-19" points="60.36 6.03 473.75 243.1 473.95 243.4 472.49 244.29 60.04 6.63 60.36 6.03"/><polygon class="cls-15" points="61.51 5.36 473.75 243.1 472.8 243.68 60.36 6.03 61.51 5.36"/><polygon class="cls-6" points="345.87 327.39 348.15 326.16 362.44 334.41 362.44 341.03 360.04 342.75 360.04 335.57 345.87 327.39"/><polygon class="cls-15" points="438.8 283.86 415.91 281.2 422.46 278.49 436.39 275.31 438.8 283.86"/><polygon class="cls-15" points="491.58 251.75 479.64 235.76 483.68 247.54 491.58 251.75"/><polygon class="cls-20" points="443.31 374.98 417.72 372.8 412.5 359.3 444.94 363.03 443.31 374.98"/><polygon class="cls-14" points="412.29 293.81 443.34 295.67 438.8 283.86 415.91 281.2 412.29 293.81"/><polygon class="cls-11" points="412.5 359.3 444.94 363.03 447.48 349.08 443.34 295.67 412.29 293.81 412.5 359.3"/><polygon class="cls-21" points="447.48 349.08 439.56 338.74 418.39 337.22 410.39 334.73 410.39 296.83 443.57 298.66 447.48 349.08"/><polygon class="cls-11" points="509.95 311.41 500.11 267.24 489.91 249.5 499.79 269.96 509.95 311.41"/><path class="cls-22" d="M510,311.41,508.48,326l-3.13,13.51-8.2,6.59-.68-3.41s-12.89,9.63-17.85,12-18.22,6.13-18.22,6.13l-3.69,9L443.31,375,445,363l2.54-13.95-4.15-53.4-4.32-11-2.63-9.41,30.75-10.22,16.54-17.54,7.9,4.2,5.78,10.33,4.11,10.14Z"/><polygon class="cls-23" points="497.36 262.08 489.68 269.62 455.9 291.03 443.34 295.67 438.8 283.86 491.58 251.75 497.36 262.08"/><path class="cls-24" d="M438.8,283.86l-2.41-8.55,7.87-2.62a95.66,95.66,0,0,0,39.42-25.14h0l7.9,4.2L487.51,256l-37.62,24Z"/><path class="cls-25" d="M443.34,295.67,455.9,291l33.78-21.41,7.68-7.54,4.11,10.14L510,311.41l-11.54,13-7.62,8.06a42.35,42.35,0,0,1-16.9,10.91l-9.07,3.14-17.34,2.51Z"/><polygon class="cls-26" points="504 307.18 464 337.55 455.75 338.74 452.61 298.27 460.83 295.22 482.94 281.21 495.55 273.22 495.88 273.01 496.48 272.43 504 307.18"/><path class="cls-27" d="M445,363l23.13-6.53c12.54-4.35,23-9.88,31.85-19.8L508.48,326,510,311.41l-11.54,13-7.62,8.06a42.35,42.35,0,0,1-16.9,10.91l-9.07,3.14-17.34,2.51Z"/><path class="cls-6" d="M507.66,318.76l-1.33,6.72a5,5,0,0,1-1.4,2.6c-2.87,2.84-10.78,10.5-16.24,14.35-6.77,4.78-21.89,11-21.89,11l-14.68,4.37a2.48,2.48,0,0,1-3.17-2.13l-.29-2.91a2,2,0,0,1,1.67-2.22l15-2.67,9-3A42.42,42.42,0,0,0,490.38,335l8.09-7.92,8-8.92A.68.68,0,0,1,507.66,318.76Z"/><path class="cls-2" d="M461.47,349.29l-10.71,2a1.71,1.71,0,0,0-1.39,1.8l.15,1.83a2.49,2.49,0,0,0,3.17,2.19l11.23-3.3a1.7,1.7,0,0,0,.68-2.88l-1.19-1.1A2.26,2.26,0,0,0,461.47,349.29Z"/><path class="cls-11" d="M436.73,303.34l-17.83-1.6a3.68,3.68,0,0,0-4.16,3.64v21.49a4.55,4.55,0,0,0,4.16,4.38l17.83,1.6a3.68,3.68,0,0,0,4.16-3.64V307.72A4.55,4.55,0,0,0,436.73,303.34Z"/><path class="cls-26" d="M437.12,331.53h-.27L419,329.93a3.27,3.27,0,0,1-2.95-3.06V305.38a2.33,2.33,0,0,1,2.44-2.32h.27l17.83,1.59a3.27,3.27,0,0,1,2.95,3.06v21.49a2.26,2.26,0,0,1-.69,1.65,2.51,2.51,0,0,1-1.75.67Z"/><path class="cls-28" d="M495.7,274.47V296a2.3,2.3,0,0,1-.37,1.44.7.7,0,0,1-1,.1.65.65,0,0,1-.15-.1l-9.68-7.32a5.69,5.69,0,0,1-1.6-4v-4.86l12.61-8A5.47,5.47,0,0,1,495.7,274.47Z"/><path class="cls-29" d="M504,307.18l-9.16-5.45-23,15.57L454.76,326l1,12.79,8.25-1.19,6.54-1.65A42.32,42.32,0,0,0,494,320.43Z"/><path class="cls-30" d="M460.4,351.55a3.44,3.44,0,0,1-1.7,2.94c-1,.49-1.79,0-1.83-1.18a3.46,3.46,0,0,1,1.7-2.94C459.55,349.89,460.36,350.41,460.4,351.55Z"/><path class="cls-31" d="M453.8,352.8a3.45,3.45,0,0,1-1.7,2.94c-1,.49-1.79,0-1.83-1.18a3.45,3.45,0,0,1,1.7-2.94C453,351.13,453.76,351.66,453.8,352.8Z"/><path class="cls-2" d="M506.92,320.18l-1.2,5a5,5,0,0,1-1.48,2.52L500,331.56a1.09,1.09,0,0,1-1.81-1l.21-1a8.16,8.16,0,0,1,1.81-3.65l2.36-2.71,2.88-3.31.26-.3A.68.68,0,0,1,506.92,320.18Z"/><path class="cls-30" d="M502.57,327a3.44,3.44,0,0,1-1.7,2.94c-1,.49-1.79,0-1.82-1.17a3.4,3.4,0,0,1,1.7-2.94C501.72,325.29,502.53,325.82,502.57,327Z"/><path class="cls-31" d="M506.09,321.09a3.44,3.44,0,0,1-1.7,2.94,1.15,1.15,0,0,1-1.79-.85l2.88-3.31A1.36,1.36,0,0,1,506.09,321.09Z"/><polygon class="cls-32" points="410.39 337.44 412.43 337.92 423.79 346.43 447.48 349.08 446.47 354.67 421.8 351.44 413.69 345.47 410.39 344.9 410.39 337.44"/></g></g></g></svg>