<svg xmlns="http://www.w3.org/2000/svg" viewBox="0 0 477.43 371.8"><defs><style>.cls-1{isolation:isolate;}.cls-2{fill:#2b2219;}.cls-3{fill:#21180f;}.cls-4{fill:#fbc900;}.cls-5{fill:#fb9d00;}.cls-6{fill:#27ad69;}.cls-7{fill:#140000;}.cls-8{fill:#322920;}.cls-9{fill:#b4b4b2;}.cls-10{fill:#3b4046;}.cls-11{fill:#303f75;}.cls-12{fill:#3c65bd;}.cls-13{mix-blend-mode:multiply;}.cls-14{fill:#ababab;}.cls-15{fill:#497ae3;}.cls-16{fill:#162764;}.cls-17{fill:#4d5258;}.cls-18{fill:#fbed00;}.cls-19{fill:#160b00;}.cls-20{fill:#463e36;}.cls-21{fill:#504840;}.cls-22{fill:#3750ab;}.cls-23{fill:#a1a1a0;}.cls-24{fill:#5e6f72;}.cls-25{fill:#737f82;}.cls-26{fill:#e1e2e3;}.cls-27{fill:#fb7400;}.cls-28{fill:#3a3128;}.cls-29{fill:#b2aeaa;}.cls-30{fill:#96826e;}.cls-31{fill:#9fb8b9;}.cls-32{fill:#5e6368;}.cls-33{fill:#ffc71f;}.cls-34{fill:#e87100;}.cls-35{fill:#666a6c;}.cls-36{fill:#655e57;}.cls-37{fill:#30271e;}</style></defs><g class="cls-1"><g id="Layer_2" data-name="Layer 2"><g id="Layer_1-2" data-name="Layer 1"><polygon class="cls-2" points="281.8 121.27 257.35 107.16 257.35 100.9 281.8 115.02 281.8 121.27"/><polygon class="cls-3" points="295.43 200.12 270.98 186 257.35 107.16 281.8 121.27 295.43 200.12"/><polygon class="cls-4" points="98.19 98.58 267.66 196.43 254.04 96.72 84.56 3.41 98.19 98.58"/><polygon class="cls-5" points="267.66 175.21 267.66 196.43 98.19 98.58 98.19 77.36 267.66 175.21"/><polygon class="cls-6" points="254.04 101.25 84.56 3.41 86.54 0 254.04 96.72 254.04 101.25"/><polygon class="cls-7" points="98.19 96.16 73.74 82.05 73.74 72.13 98.19 86.25 98.19 96.16"/><polygon class="cls-8" points="98.19 93.75 267.66 191.59 267.66 196.43 98.19 98.58 98.19 93.75"/><polygon class="cls-9" points="1.77 154.25 171.24 252.1 171.24 232.19 182.54 138 13.07 44.69 0 134.05 1.77 154.25"/><polygon class="cls-8" points="172.12 224.79 66.91 164.04 39.85 148.42 1.77 126.43 13.07 52.42 182.54 150.27 172.12 224.79"/><polygon class="cls-10" points="34.3 150.56 16.38 140.15 16.63 134.73 24.84 73.3 42.75 83.71 34.55 145.15 34.3 150.56"/><polygon class="cls-10" points="57.34 164.24 39.42 153.82 39.67 148.4 47.88 86.97 65.79 97.39 57.59 158.82 57.34 164.24"/><polygon class="cls-10" points="65.2 155.14 111.21 181.7 118.6 128.2 72.6 101.64 65.2 155.14"/><polygon class="cls-8" points="68.77 116.14 118.28 144.81 118.28 146.98 68.77 118.31 68.77 116.14"/><polygon class="cls-10" points="118.28 185.68 164.29 212.24 171.68 158.74 125.68 132.18 118.28 185.68"/><polygon class="cls-8" points="121.85 146.67 171.36 175.34 171.36 177.52 121.85 148.85 121.85 146.67"/><polygon class="cls-11" points="171.24 232.19 171.24 249.16 0 152.33 0 134.05 171.24 232.19"/><polygon class="cls-12" points="182.54 142.53 13.07 44.69 15.05 41.28 182.54 138 182.54 142.53"/><g class="cls-13"><path class="cls-14" d="M38.67,169.69,14.19,155.55,13.43,132,22.48,67,46.84,82.2l-.06.45-8.91,64.53ZM15.54,154.75l21.67,12.51-.7-20.16,8.85-64.2L23.54,69.32,14.79,132Z"/></g><g class="cls-13"><path class="cls-14" d="M61.74,183,37.27,168.88,36.6,146.4l9-65L69.69,95.65l-.06.45L61,161.6ZM38.61,168.07l21.68,12.52-.62-19.05,8.55-65.17L46.64,83.66,38,146.47Z"/></g><polygon class="cls-8" points="0 150.44 171.24 248.97 171.24 252.1 0 153.56 0 150.44"/><polygon class="cls-15" points="86.54 0 15.05 41.28 182.54 138 254.04 96.72 86.54 0"/><polygon class="cls-16" points="254.04 96.72 267.66 196.43 171.24 252.1 171.24 232.19 181.93 142.18 182.54 138 254.04 96.72"/><polygon class="cls-7" points="199 265.71 174.55 251.59 174.55 241.67 199 255.79 199 265.71"/><polygon class="cls-3" points="199 255.79 174.55 241.67 185.85 148.43 210.31 162.55 199 255.79"/><polygon class="cls-2" points="210.31 162.55 185.85 148.43 185.85 142.18 210.31 156.3 210.31 162.55"/><polygon class="cls-2" points="185.85 142.18 257.35 100.9 281.8 115.02 210.31 162.55 210.31 156.3 185.85 142.18"/><path class="cls-16" d="M411.12,371.69S432.28,373,444.67,366s23.81-18.51,23.81-18.51l8.1-14.49-32.42,20.76L419.44,366Z"/><path class="cls-9" d="M419.44,366l8.86-1c18.6-3.48,39.58-17.25,48.28-32h0l.85-7.23-62.12,29.42Z"/><polygon class="cls-8" points="442.24 269.4 295.43 184.64 281.8 125.02 411.12 199.69 442.24 264.08 442.24 269.4"/><path class="cls-4" d="M396.91,240.75,313.68,192.7c-3.32-1.92-6,.11-6,4.54v13.94l95.24,55V252.23C402.91,247.8,400.22,242.66,396.91,240.75Z"/><path class="cls-8" d="M459.27,306.78s-8.94-73.09-30.65-93.85l-17.5-13.25,31.12,64.4Z"/><polygon class="cls-17" points="359.14 214.05 405.14 240.61 391.52 201.67 345.51 175.11 359.14 214.05"/><polygon class="cls-8" points="359.14 181.94 405.14 208.5 405.14 210.67 359.14 184.11 359.14 181.94"/><polygon class="cls-17" points="303.49 181.92 349.49 208.48 335.87 169.54 289.86 142.98 303.49 181.92"/><polygon class="cls-8" points="303.49 149.81 349.49 176.37 349.49 178.55 303.49 151.99 303.49 149.81"/><path class="cls-18" d="M399.14,249.35l-87.69-50.62c-3.32-1.92-6,.11-6,4.54v15l99.7,57.56v-15C405.14,256.41,402.45,251.27,399.14,249.35Z"/><polygon class="cls-12" points="438.47 210.82 450.36 230.02 459.27 252.1 470.57 285.75 475.64 306.78 473.76 315.75 466.96 294.05 449.14 242.01 438.47 210.82"/><polygon class="cls-6" points="281.8 117.28 412.81 192.92 428.62 205.13 434.94 213.44 438.47 210.82 431.14 201.81 414.39 189.6 283.78 113.87 281.8 117.28"/><polygon class="cls-7" points="295.43 210.04 270.98 195.92 270.98 186 295.43 200.12 295.43 210.04"/><polygon class="cls-17" points="440.24 274.84 416.63 261.21 403 208.3 426.61 221.93 440.24 274.84"/><g class="cls-13"><path class="cls-14" d="M443.26,293.82,414,276.91,400,204l29.29,16.92Zm-28-17.85,25.93,15L428,221.86l-25.94-15Z"/></g><polygon class="cls-8" points="461.03 322.64 456.11 329.29 456.52 305.46 295.43 212.46 300.35 203.77 461.03 322.64"/><polygon class="cls-9" points="420.29 358.81 419.44 362.78 419.44 366.04 360.09 361.13 199 268.13 197.24 255.03 197.24 247.93 209.72 158.22 212.28 155.15 342.89 230.87 361.4 241.57 368.5 252.39 394.75 273.33 409.37 326.29 416.16 347.99 420.29 358.81"/><polygon class="cls-11" points="419.44 366.04 411.12 371.69 385.86 369.85 358.33 359.21 197.24 266.2 197.24 247.93 351.01 336.71 391.49 361.29 419.44 366.04"/><polygon class="cls-8" points="345.82 325.07 199 240.31 210.31 166.3 339.63 240.96 345.82 319.75 345.82 325.07"/><path class="cls-9" d="M303.66,297.26l-83.23-48c-3.31-1.92-6,.12-6,4.54v13.94l95.24,55V308.74C309.67,304.32,307,299.18,303.66,297.26Z"/><path class="cls-8" d="M407.93,341.22s-16.58-57.94-38.29-78.7c-17.5-13.24-30-21.56-30-21.56l6.2,84.11,32.41,17.45Z"/><polygon class="cls-12" points="209.72 158.22 341.31 234.2 358.87 244.9 368.5 252.39 371.27 249.66 361.4 241.58 342.89 230.88 212.28 155.15 209.72 158.22"/><polygon class="cls-17" points="361.6 266.82 359.04 320.27 382.67 334.3 400.19 333.02 383.05 289.16 372.24 274.84 361.6 266.82"/><polygon class="cls-8" points="385.86 367.05 411.12 371.69 385.86 369.85 360.09 361.13 197.24 267.43 197.24 264.31 361.21 359.28 385.86 367.05"/><path class="cls-8" d="M420.29,358.81l8.86-1c17-2,39.58-17.25,48.28-32h0v-7.75l-1.79-11.27-1.88,9-59.2,27.14Z"/><path class="cls-19" d="M471.08,331.92s-8.82,12.52-30.72,21.41l-1.86-6.4a63.82,63.82,0,0,0,32.59-23.29A14.15,14.15,0,0,1,471.08,331.92Z"/><path class="cls-20" d="M473.76,315.76h0a68.73,68.73,0,0,1-40,27.84l-1.45.36-9.76,2.44-12.44-28.58-16-43.36-22.82-24.81,67.2-38.84,12.58,24.53Z"/><path class="cls-21" d="M451.05,235.35S444,249.2,430.82,256.74s-34.66,15.68-34.66,15.68l-24.89-22.76,67.2-38.84Z"/><path class="cls-11" d="M303.66,302.62,216,252c-1.84-1.06-3.49-.91-4.59.2-.41.41-3.07,2.55-3.31,3.19s1.9.09,1.9,1.15v15l96.71,58.77,3-6V314.1C309.67,309.67,307,304.54,303.66,302.62Z"/><path class="cls-22" d="M300.67,306.69,213,256.07c-3.32-1.92-6,.11-6,4.54l0,15.31,96.42,55.67,3.25-1.32v-12.1C306.68,313.75,304,308.61,300.67,306.69Z"/><path class="cls-11" d="M297.08,308.71,212.79,260c-3.19-1.84-5.78.11-5.78,4.36v11.52l95.85,55.34V319.74C302.86,315.49,300.27,310.55,297.08,308.71Z"/><path class="cls-23" d="M440.36,353.33s1.73-7.24-1.86-6.4-6-2.69-6.23-3-9.76,2.44-9.76,2.44S426,359.56,440.36,353.33Z"/><path class="cls-15" d="M212.28,155.15l71.5-41.28L414.39,189.6l16.75,12.21,7.33,9h0c-6.19,18.25-39.81,33.42-51.47,36.31l-15.73,2.53-9.87-8.08-18.51-10.7Z"/><polygon class="cls-12" points="371.27 249.66 368.5 252.39 390.23 279.41 409.37 326.29 414.56 342.9 422.51 346.41 432.27 343.97 396.15 272.42 371.27 249.66"/><path class="cls-24" d="M469.39,311l-2.73,4.1a59.53,59.53,0,0,1-29.53,18.17l-4.41.54-4.07-7.8-25.74-49.36L421,269.23l19.23-12.06,10.79-11.65Z"/><path class="cls-25" d="M469.39,311l-2.73,4.1a59.53,59.53,0,0,1-29.53,18.17l-4.41.54-4.07-7.8,9.82-6.65.17-9.54L457.06,298Z"/><path class="cls-12" d="M473.76,315.76h0a68.73,68.73,0,0,1-40,27.84l-1.45.36-1.93-3.84s13.32-3.92,17.53-5.83c3.84-1.74,7.84-4.6,14.07-9.27s10.47-14,10.47-14Z"/><path class="cls-26" d="M434,347.89a3.73,3.73,0,0,1-1.86,3.21c-1.06.53-1.95,0-2-1.29a3.73,3.73,0,0,1,1.85-3.2C433,346.07,433.91,346.65,434,347.89Z"/><path class="cls-26" d="M438.64,349.21a3.77,3.77,0,0,1-1.86,3.21c-1.06.53-1.95,0-2-1.28a3.75,3.75,0,0,1,1.86-3.21C437.71,347.4,438.6,348,438.64,349.21Z"/><path class="cls-27" d="M428.65,347.08a3.74,3.74,0,0,1-1.85,3.21c-1.06.53-1.95-.05-2-1.29a3.74,3.74,0,0,1,1.85-3.21C427.72,345.26,428.62,345.84,428.65,347.08Z"/><path class="cls-23" d="M477.43,318.05a25.3,25.3,0,0,1-.85,6.43c-.85,2.59-5.5,7.44-5.5,7.44s-2.08-6.33.52-8.93a6.26,6.26,0,0,0,1.13-1.56,11.17,11.17,0,0,0,1.06-4.94c0-.2,0-.37,0-.49s0-.24,0-.24l1.07-5.11.81-3.86Z"/><path class="cls-26" d="M473.84,324.11a4.56,4.56,0,0,1-1.33,3.66c-.87.7-1.68.19-1.81-1.13A4.61,4.61,0,0,1,472,323C472.9,322.27,473.71,322.78,473.84,324.11Z"/><path class="cls-26" d="M474.1,321.4a.92.92,0,0,1-1.37,0,11.17,11.17,0,0,0,1.06-4.94c.8-.52,1.52,0,1.65,1.25A4.6,4.6,0,0,1,474.1,321.4Z"/><path class="cls-27" d="M474.79,315.73a1.08,1.08,0,0,1-1,.27c0-.16,0-.24,0-.24l1.07-5.11c.65-.18,1.19.36,1.29,1.41A4.61,4.61,0,0,1,474.79,315.73Z"/><polygon class="cls-11" points="422.51 346.41 393.57 278.61 368.5 252.39 390.23 279.41 414.56 342.9 422.51 346.41"/><path class="cls-8" d="M402.91,276.64l-3.37-5.54-16.49-16.25,18.82-5.19c5.26-1.45,23.52-12.38,28.08-16.11s9.13-12.18,9.13-12.18l9.3,18.39,2.67,5.76-10.79,11.65L421,269.23l-18.75,7.41Z"/><path class="cls-28" d="M437.82,249.39l-31.67,19.15a2,2,0,0,1-3.08-1.74v-8.9a4.9,4.9,0,0,1,2.3-4.14L437.07,234a2,2,0,0,1,3.1,1.72v9.51A4.87,4.87,0,0,1,437.82,249.39Z"/><path class="cls-27" d="M406.32,259l-.18.12c-.17.11-.3.12-.3-.13a.69.69,0,0,1,.29-.53l.83-.54c.38-.26.57-.17.73.16l.41.88a1.37,1.37,0,0,1,.14.68,3.13,3.13,0,0,1-.16.82L407.6,262a1.86,1.86,0,0,1-.79,1.15l-.82.54c-.13.08-.24.07-.24-.17a.63.63,0,0,1,.26-.5l.23-.15Zm.42,3.51.09-.06a.7.7,0,0,0,.35-.51l.46-1.47a1.59,1.59,0,0,0,.1-.5.78.78,0,0,0-.11-.46l-.39-.85c-.1-.22-.14-.18-.37,0l-.06,0Z"/><path class="cls-27" d="M411.68,256.62a1.27,1.27,0,0,1,.11.65,2.61,2.61,0,0,1-.18.89l-.48,1.53a1.7,1.7,0,0,1-.61.95c-.29.19-.48.09-.59-.15l-.43-.92a1.34,1.34,0,0,1-.15-.68,2.77,2.77,0,0,1,.14-.82l.52-1.65a1.81,1.81,0,0,1,.61-1,.36.36,0,0,1,.59.15Zm-.91-.39c0-.08-.06-.16-.16-.09a.53.53,0,0,0-.17.31L410,258a2,2,0,0,0-.13.61.82.82,0,0,0,.08.38l.45.95c0,.07.06.15.16.09a.53.53,0,0,0,.17-.31l.5-1.58a1.78,1.78,0,0,0,.1-.5.89.89,0,0,0-.11-.46Z"/><path class="cls-27" d="M414.38,258.08c-.17.11-.27.13-.29-.09h0a.57.57,0,0,1-.3.48l-.37.25c-.17.12-.22.11-.3,0l-.16-.29a.39.39,0,0,1-.07-.29l.08-3.85a.57.57,0,0,1,.25-.5c.18-.12.25,0,.25.17l-.08,3.85.12.23.22-.14.14-.41,0-2.09a.69.69,0,0,1,.25-.56c.18-.11.25,0,.24.23l0,2.1.13.22.21-.14.14-.41.08-3.85a.54.54,0,0,1,.25-.49c.18-.12.25-.05.24.17l-.08,3.85a.75.75,0,0,1-.07.38l-.18.52a.66.66,0,0,1-.31.44Z"/><path class="cls-27" d="M418.46,250.61a.54.54,0,0,1,.25-.5c.18-.12.25-.05.24.17l-.09,4.83-.66.44L417,252.42h0l-.07,3.65a.58.58,0,0,1-.25.5c-.18.12-.25,0-.24-.17l.09-4.84.65-.43,1.21,3.17h0Z"/><path class="cls-27" d="M420.54,249.54l-.18.13c-.17.1-.3.12-.3-.14a.69.69,0,0,1,.29-.52l.83-.55c.38-.25.57-.17.73.17l.41.88a1.37,1.37,0,0,1,.14.68,3.29,3.29,0,0,1-.16.82l-.47,1.51a1.86,1.86,0,0,1-.8,1.14l-.82.55c-.13.08-.24.07-.24-.17a.63.63,0,0,1,.26-.5l.23-.16Zm.42,3.51.09-.06a.69.69,0,0,0,.35-.51l.46-1.46a1.64,1.64,0,0,0,.1-.5.77.77,0,0,0-.11-.46l-.39-.85c-.1-.22-.14-.18-.37,0l-.06,0Z"/><path class="cls-27" d="M424.1,247.18v.24a.56.56,0,0,1-.25.49c-.18.12-.25.05-.24-.16v-.91l2.44-1.62v.91a.58.58,0,0,1-.26.49c-.17.12-.24,0-.24-.17v-.24l-.48.32L425,250.7a.54.54,0,0,1-.25.5c-.18.12-.24,0-.24-.17l.08-4.17Z"/><path class="cls-27" d="M429.45,244.81a1.43,1.43,0,0,1,.12.65,3.34,3.34,0,0,1-.18.9l-.48,1.53a1.79,1.79,0,0,1-.61,1,.36.36,0,0,1-.6-.15l-.43-.92a1.39,1.39,0,0,1-.14-.69,2.52,2.52,0,0,1,.14-.82l.52-1.65a1.73,1.73,0,0,1,.61-.94.36.36,0,0,1,.59.15Zm-.9-.39c0-.08-.06-.16-.16-.08s-.14.18-.18.31l-.46,1.49a2.15,2.15,0,0,0-.13.62.82.82,0,0,0,.08.38l.45,1c0,.06.06.15.16.08s.13-.19.17-.31l.5-1.57a1.56,1.56,0,0,0,.09-.5.79.79,0,0,0-.1-.46Z"/><path class="cls-27" d="M432.16,246.27c-.17.12-.27.14-.3-.08h0a.6.6,0,0,1-.31.48l-.37.25c-.17.11-.21.1-.29,0l-.17-.29a.42.42,0,0,1-.06-.29l.08-3.86a.56.56,0,0,1,.25-.5c.18-.11.24,0,.24.18l-.08,3.85.13.22.21-.14.14-.4,0-2.09a.7.7,0,0,1,.26-.56c.18-.12.24,0,.24.23l0,2.09.12.23.22-.14.14-.41.08-3.85a.54.54,0,0,1,.25-.5c.17-.11.24,0,.24.17l-.08,3.85a.8.8,0,0,1-.08.39l-.17.52a.71.71,0,0,1-.31.44Z"/><path class="cls-27" d="M436.23,238.8a.56.56,0,0,1,.26-.49c.18-.12.24-.05.24.17l-.1,4.83-.65.43-1.21-3.13h0l-.07,3.66a.58.58,0,0,1-.25.49c-.18.12-.25.05-.25-.16l.1-4.84.65-.43,1.21,3.17h0Z"/><path class="cls-22" d="M267.55,167.31l-1.29-1,.53-.72,29.57-17.83L308,189.4H304C301.56,190.19,264.14,168.25,267.55,167.31Z"/><path class="cls-29" d="M273,161.39l.62-.34h0l29.58-17.83,34.18,20.42-30.17,18.12S273,161.34,273,161.39Z"/><polygon class="cls-8" points="272.96 161.39 270.69 167.23 307.96 189.4 307.14 181.75 272.96 161.39"/><polygon class="cls-21" points="307.14 181.75 307.96 189.4 343.9 168.44 337.31 163.63 307.14 181.75"/><path class="cls-30" d="M116,41,88.23,57a3.94,3.94,0,0,0,0,6.83l51.62,29.8a12.69,12.69,0,0,0,12.7,0l27.81-16a3.94,3.94,0,0,0,0-6.83L128.74,41A12.69,12.69,0,0,0,116,41Z"/><path class="cls-31" d="M118.91,44.56,95.2,58.25a2.84,2.84,0,0,0,0,4.93l46.6,26.91a9.21,9.21,0,0,0,9.17,0L174.68,76.4a2.84,2.84,0,0,0,0-4.93l-46.6-26.91A9.16,9.16,0,0,0,118.91,44.56Z"/><polygon class="cls-10" points="211.4 238.58 257.4 265.14 264.8 211.64 218.79 185.08 211.4 238.58"/><polygon class="cls-8" points="214.97 199.58 264.48 228.25 264.48 230.43 214.97 201.76 214.97 199.58"/><polygon class="cls-10" points="264.48 269.57 310.49 296.13 317.88 242.63 271.88 216.07 264.48 269.57"/><polygon class="cls-8" points="268.05 230.57 317.56 259.24 317.56 261.42 268.05 232.75 268.05 230.57"/><polygon class="cls-10" points="338.01 327.36 320.67 317.27 320.22 310.3 328.22 250.96 346.14 261.38 338.05 320.59 338.01 327.36"/><g class="cls-13"><path class="cls-14" d="M342.12,346.32l-24.48-14.13-.76-23.59,9.05-64.92,24.35,15.16-.06.44-8.9,64.53ZM319,331.39l21.67,12.51L340,323.74l8.85-64.21L327,246l-8.75,62.72Z"/></g><polygon class="cls-32" points="382.67 334.3 376.86 290.49 369.88 276.64 361.6 266.82 372.24 274.84 383.05 289.16 400.19 333.02 382.67 334.3"/><polygon class="cls-33" points="333.88 127.35 332.2 128.32 308.09 96.7 309.76 95.73 333.88 127.35"/><polygon class="cls-34" points="332.2 128.32 330.52 129.29 306.41 97.67 308.09 96.7 332.2 128.32"/><polygon class="cls-9" points="309.76 160.3 308.09 161.26 332.2 128.32 333.88 127.35 309.76 160.3"/><polygon class="cls-35" points="308.09 161.26 304.83 159.15 329.27 127.98 332.2 128.32 308.09 161.26"/><polygon class="cls-33" points="326.56 131.57 324.88 132.54 300.77 100.93 302.45 99.96 326.56 131.57"/><polygon class="cls-34" points="324.88 132.54 323.21 133.51 299.09 101.89 300.77 100.93 324.88 132.54"/><polygon class="cls-9" points="302.45 164.52 300.77 165.49 324.88 132.54 326.56 131.57 302.45 164.52"/><polygon class="cls-35" points="300.77 165.49 297.52 163.38 321.95 132.2 324.88 132.54 300.77 165.49"/><polygon class="cls-36" points="269.02 127.35 278.08 115.47 305.68 94.78 333.27 83.61 341.52 85.5 344.33 87.65 335.4 87.92 305.71 99.95 274.66 127.55 269.08 140.23 266.26 138.08 269.02 127.35"/><polygon class="cls-37" points="271.84 129.51 269.02 127.35 266.26 138.08 269.08 140.23 271.84 129.51"/><polygon class="cls-28" points="271.84 129.51 280.9 117.63 308.5 96.94 336.09 85.76 344.33 87.65 347.09 95.19 337.13 90.52 308.53 102.1 281.48 122.38 269.08 140.23 271.84 129.51"/><path class="cls-8" d="M445.21,224.27s23,3.8,23.26,4.93S474,239.46,474,244.29s-1.69,13-3,13.49-5.16,0-5.16,0l-.29-12.57-2.71-11.09L447.2,229.2Z"/><path class="cls-28" d="M445.82,225.79,465.59,231s3.65,10.2,4.38,12.38-.81,14.62-.81,14.62,1.37-.35,2.14-.5,3.09-2.88,3.53-4.25.66-10.4,0-12.95-4.95-9.93-6.36-11.08-23.26-4.93-23.26-4.93Z"/><path class="cls-8" d="M382.42,255.57s25.59,14.51,25.82,15.64,2.92,10.65,2.92,15.48-2.74,12-4.08,12.5a5.48,5.48,0,0,1-3.31-.43l-2.14-12.14-1.44-11.21L384.41,260.5Z"/><path class="cls-28" d="M383,257.09l20.77,16s1.56,9.55,2.29,11.74.2,14.54.2,14.54a5.39,5.39,0,0,0,1.35-.1c.78-.15,3.92-2.22,4.36-3.59s.66-10.39,0-12.95-2.36-10.32-3.77-11.47-25.82-15.64-25.82-15.64Z"/></g></g></g></svg>