<svg xmlns="http://www.w3.org/2000/svg" viewBox="0 0 328.64 180.43"><defs><style>.cls-1{fill:#94abb3;}.cls-2{fill:#e6eced;}.cls-3{fill:#dce3e6;}.cls-4{fill:#fff;}</style></defs><g id="Layer_2" data-name="Layer 2"><g id="Layer_1-2" data-name="Layer 1"><path class="cls-1" d="M32.92,170.18a10.26,10.26,0,1,1-10.26-10.26A10.25,10.25,0,0,1,32.92,170.18Z"/><circle class="cls-1" cx="51.65" cy="170.18" r="10.26"/><circle class="cls-1" cx="252.91" cy="170.18" r="10.26"/><circle class="cls-1" cx="281.9" cy="170.18" r="10.26"/><polygon class="cls-1" points="131.93 69.68 133.73 67.6 92.19 31.7 90.7 33.95 131.93 69.68"/><polygon class="cls-1" points="114.92 2.05 91.55 34.27 92.88 35.41 117.25 2.05 114.92 2.05"/><polygon class="cls-1" points="101.9 0.1 90.77 33.86 92.66 34.49 103.99 0.1 101.9 0.1"/><path class="cls-2" d="M321.54,88c-5.79-23.77-22.61-27.22-29.69-27.22s-36.37-.32-52.4-.32H0v21l217.88.86s2.42,49.76,17,83.56c26.51,0,60.32,2.74,79.1,1.33,9.76-.73,14.15-6.08,14.15-6.08S331.35,128.3,321.54,88Z"/><path class="cls-3" d="M0,81.43v84.42H234.89c-14.59-33.8-17-83.56-17-83.56Z"/><path class="cls-1" d="M229.9,84c0,14.62,6.52,47,9.55,55.26,6.14,16.73,20.42,10.8,15.66-6.93-2.82-10.47-8.22-50.59-9.59-53.69C241.84,70.31,229.9,68.56,229.9,84Z"/><path class="cls-1" d="M324.41,100.72c-3.8-23.87-10-28.48-10-28.48l-40.44.07h-6.53c.54,10.1,2.6,38.7,8.81,52.1,3.45,7.46,9,13.64,14,18.19a77.81,77.81,0,0,0,15.61,1.5,34.63,34.63,0,0,0,7.77-.82c11.1-2.47,14.54-9.8,14.54-9.8S328.08,123.74,324.41,100.72Z"/><path class="cls-4" d="M276.22,124.42c-6.21-13.4-8.27-42-8.81-52.1l-9.89,0s2.71,32.31,7.37,49c3.37,12.13,12.68,18.6,25.33,21.27C285.2,138.06,279.67,131.88,276.22,124.42Z"/><rect class="cls-1" x="182.4" y="87.75" width="24.78" height="72.17"/><rect class="cls-1" x="152.41" y="87.75" width="22.66" height="36.08"/><rect class="cls-1" x="122.35" y="87.75" width="22.66" height="36.08"/><rect class="cls-1" x="70.31" y="87.75" width="24.78" height="72.17"/><rect class="cls-1" x="40.32" y="87.75" width="22.66" height="36.08"/><rect class="cls-1" x="10.26" y="87.75" width="22.66" height="36.08"/><rect class="cls-1" x="106.98" y="60.46" width="3.71" height="105.39"/><rect class="cls-4" x="14.77" y="92.01" width="13.64" height="27.57"/><rect class="cls-4" x="44.83" y="92.01" width="13.64" height="27.57"/><rect class="cls-4" x="75.88" y="92.01" width="13.64" height="27.57"/><rect class="cls-4" x="127.07" y="92.01" width="13.64" height="27.57"/><rect class="cls-4" x="157.13" y="92.01" width="13.64" height="27.57"/><rect class="cls-4" x="187.97" y="92.01" width="13.64" height="27.57"/><path class="cls-1" d="M328.14,161.1s-1.49,9.35-10.27,10.37c-4.43.51-317.87,0-317.87,0v-5.62s103.05-.21,133.89-.21H303.17C315.42,165.64,321.26,165.42,328.14,161.1Z"/><rect class="cls-1" x="0.3" width="221.46" height="2.05"/><rect class="cls-1" x="0.3" y="6.08" width="221.46" height="2.05"/></g></g></svg>