<svg xmlns="http://www.w3.org/2000/svg" viewBox="0 0 347.97 195.03"><defs><style>.cls-1{fill:#94abb3;}.cls-2{fill:#e6eced;}.cls-3{fill:#dce3e6;}.cls-4{fill:#fff;}</style></defs><g id="Layer_2" data-name="Layer 2"><g id="Layer_1-2" data-name="Layer 1"><path class="cls-1" d="M43.77,186.79,170,190.42l1.25-115.36s-.51-59.55-58.32-58.41-75.45,58.27-79.63,85.7S43.77,186.79,43.77,186.79Z"/><path class="cls-1" d="M52.25,184.78A10.26,10.26,0,1,1,42,174.52,10.25,10.25,0,0,1,52.25,184.78Z"/><circle class="cls-1" cx="70.98" cy="184.78" r="10.26"/><circle class="cls-1" cx="272.24" cy="184.78" r="10.26"/><circle class="cls-1" cx="301.23" cy="184.78" r="10.26"/><path class="cls-2" d="M340.87,102.6c-5.79-23.77-22.61-27.22-29.69-27.22s-36.37-.32-52.4-.32H19.33V96l217.88.86s2.42,49.76,17,83.56c26.51,0,60.32,2.74,79.1,1.33,9.76-.73,14.15-6.08,14.15-6.08S350.68,142.9,340.87,102.6Z"/><path class="cls-3" d="M19.33,96v84.42H254.22c-14.59-33.8-17-83.56-17-83.56Z"/><path class="cls-1" d="M249.23,98.55c0,14.62,6.52,47,9.55,55.26,6.14,16.73,20.42,10.8,15.66-6.93-2.82-10.47-8.22-50.59-9.59-53.69C261.17,84.91,249.23,83.16,249.23,98.55Z"/><path class="cls-1" d="M343.74,115.32c-3.81-23.87-10-28.48-10-28.48l-40.44.07h-6.53c.54,10.1,2.6,38.7,8.81,52.1,3.45,7.46,9,13.64,14,18.19a77.78,77.78,0,0,0,15.6,1.5,34.66,34.66,0,0,0,7.78-.82c11.1-2.47,14.54-9.8,14.54-9.8S347.4,138.34,343.74,115.32Z"/><path class="cls-4" d="M295.55,139c-6.21-13.4-8.27-42-8.81-52.1l-9.89,0s2.71,32.31,7.37,49c3.37,12.13,12.68,18.6,25.33,21.27C304.53,152.66,299,146.48,295.55,139Z"/><rect class="cls-1" x="201.73" y="102.35" width="24.78" height="72.17"/><rect class="cls-1" x="171.74" y="102.35" width="22.66" height="36.08"/><rect class="cls-1" x="141.68" y="102.35" width="22.66" height="36.08"/><rect class="cls-1" x="89.64" y="102.35" width="24.78" height="72.17"/><rect class="cls-1" x="59.65" y="102.35" width="22.66" height="36.08"/><rect class="cls-1" x="29.59" y="102.35" width="22.66" height="36.08"/><rect class="cls-1" x="126.31" y="75.06" width="3.71" height="105.39"/><rect class="cls-4" x="34.1" y="106.61" width="13.64" height="27.57"/><rect class="cls-4" x="64.16" y="106.61" width="13.64" height="27.57"/><rect class="cls-4" x="95.21" y="106.61" width="13.64" height="27.57"/><rect class="cls-4" x="146.4" y="106.61" width="13.64" height="27.57"/><rect class="cls-4" x="176.46" y="106.61" width="13.64" height="27.57"/><rect class="cls-4" x="207.3" y="106.61" width="13.64" height="27.57"/><path class="cls-1" d="M347.47,175.7s-1.49,9.35-10.27,10.37c-4.43.51-317.87,0-317.87,0v-5.62s103.05-.21,133.89-.21H322.5C334.75,180.24,340.59,180,347.47,175.7Z"/><path class="cls-2" d="M171.21,75.06s-9.13-56.27-71.13-48.27c-71.29,9.2-56.31,168-56.31,168H.08s-4-120,43-167c33-33,66-30,83-24,12.66,4.46,48,21,54,71.27Z"/></g></g></svg>