<?xml version="1.0" encoding="utf-8"?>
<!-- Generator: Adobe Illustrator 25.1.0, SVG Export Plug-In . SVG Version: 6.00 Build 0)  -->
<svg version="1.1" id="Layer_1" xmlns="http://www.w3.org/2000/svg" xmlns:xlink="http://www.w3.org/1999/xlink" x="0px" y="0px"
	 viewBox="0 0 638.3 247.1" style="enable-background:new 0 0 638.3 247.1;" xml:space="preserve">
<style type="text/css">
	.st0{fill:#D9DEE3;}
	.st1{fill:#74899B;}
	.st2{fill:#8C9DAC;}
	.st3{fill:#C6CFD6;}
	.st4{fill:#B9C4CD;}
	.st5{fill:#9EADBA;}
	.st6{fill:#B2BEC8;}
	.st7{fill:#D7DDE2;}
	.st8{fill:#99A8B6;}
	.st9{fill:#8E9FAE;}
	.st10{fill:#CAD2D9;}
	.st11{fill:#D3DAE0;}
	.st12{fill:#DAE0E5;}
	.st13{fill:#E5E9ED;}
</style>
<g>
	<path class="st0" d="M502.3,92.9c-17.9-13.8-50-22.2-85.3-16.7l-0.9-4.1c36.6-5.6,70.8,3.2,90.9,17.9L502.3,92.9z"/>
	<polygon class="st1" points="426.6,69.4 422.6,69.6 422.8,76.6 426.8,76.5 	"/>
	<polygon class="st0" points="425.2,57.9 386.1,54 391.9,95.1 422.4,94.7 	"/>
	
		<rect x="388" y="89.1" transform="matrix(0.9999 -1.103570e-02 1.103570e-02 0.9999 -1.017 4.4904)" class="st1" width="36.7" height="10.5"/>
	
		<rect x="382.4" y="96.9" transform="matrix(0.9999 -1.121085e-02 1.121085e-02 0.9999 -1.1571 4.5802)" class="st2" width="51.1" height="17.3"/>
	<path class="st3" d="M379.8,221.1l63.5-0.7c0,0,3.4-1.7,10.3-5.1c18.2-8.9,57.9-57.4-1.8-97.4c-19.8-13.2-80.7-3.9-80.7-3.9
		S284.3,170,379.8,221.1z"/>
</g>
<g>
	<path class="st4" d="M246.2,94.6c0,0,61.4,51.4,67.3,43.2c7-9.7-56.9-59.1-56.9-59.1L246.2,94.6z"/>
	<path class="st5" d="M230.1,85.5c-5.3-0.1-40.1-9.9-43.2-14.1c1.7-8.3,36.8-40.7,44.6-40c4.5,6.1,17.1,36.4,17.1,36.4L230.1,85.5z"
		/>
	<path class="st6" d="M186.8,71.5c6.1-2.7,34.5-23.2,44.6-40C225.9,29.5,189.1,57.4,186.8,71.5z"/>
	<path class="st6" d="M199.4,61.9c0,0,7.6,2.9,9.4,3s-6.5-5.5-6.5-5.5L199.4,61.9z"/>
	<polygon class="st7" points="248,66 229,85.7 249.8,97.1 261,83 	"/>
</g>
<g>
	<path class="st8" d="M552.4,94.9c0,0-5-48.5-2.9-55.1c3-9.5,28.8-29.9,36.3-26.6S585,94.5,585,94.5L552.4,94.9z"/>
	<path class="st9" d="M552.4,94.9c0,0,26.2-12,24.6-18.8c-10-40.7,1.4-66.2,8.9-62.9s-0.8,81.3-0.8,81.3L552.4,94.9z"/>
	
		<rect x="561.9" y="108.4" transform="matrix(9.773179e-03 -1 1 9.773179e-03 420.2766 707.2363)" class="st10" width="10.6" height="66.1"/>
	<polygon class="st10" points="593.6,86.1 544,87.2 547.2,142.1 590,143.2 	"/>
	<path class="st11" d="M571.2,138c3.5-4.9,18.4-36.1,21.2-35.8l-2,35L571.2,138z"/>
	<path class="st12" d="M588.7,136.8l-50.2-0.2C538.8,150.8,589,151,588.7,136.8z"/>
	<path class="st3" d="M537.3,232.6l60.7,1.5c0,0,12.7-55.7,11.3-90.9c0,0-60.7,0-81.5-0.5C524.7,171.2,537.3,232.6,537.3,232.6z"/>
</g>
<g>
	<path class="st11" d="M40.3,172.3c-4.7,3-40.5,30.2-29.9,39.2c4.8,4,9.9,1.5,14.6-3.6c9.2-8.7,18.4-29.8,19.1-32.9
		c1-4.4,8.4-1,10-12.4c4.8,1.9,7-0.9,8-3.4c13.2,7.5,26.4,8.9,38.4,6.2c0.1,0,0.2,0,0.3-0.1l0.8-0.2c40.9-10,65.3-70,18.4-100.4
		c-1.7-1.1-3.4-2.1-5.1-3.1c0.5-0.3,1-0.6,1.3-1c1.1-1.4,1.1-3.3,0-4.1c-0.9-0.6-2-0.7-2.9-0.2c-0.3-0.9-1.1-1.7-2.1-1.9
		c-1.5-0.2-2.9,1-3.1,2.8c0,0.3,0,0.6,0,0.9c-9.1-4.1-17.7-6-25.7-6l0,0c-0.7,0-1.4,0-2.1,0h-0.1C62.6,52.8,48.6,62.3,40,75.8
		c-0.3,0.3-0.4,0.7-0.7,1l-0.3,0.4c-12.6,20.7-12.7,49.6,6.2,69c0.9,0.9,1.8,1.8,2.7,2.7c-3,3.4-3.3,6.9,1,10.5
		C39.2,164.7,43.5,170.3,40.3,172.3z"/>
	<path class="st11" d="M114.1,70.7c57.5,36.8-8.9,125.8-64,69.7C15.1,105,56.7,33.9,114.1,70.7z"/>
	<path class="st13" d="M100.9,96.2c10.3,21.6,8.1,45.4-3.7,61.3c35.9-7.9,57.7-60.6,16.9-86.9c-18-11.5-34.5-12.5-47.5-7.2
		C80.7,68.9,93.4,80.3,100.9,96.2z"/>
</g>
<g>
	<path class="st3" d="M287,224.9c0,0,10.7-5.1,6-9.9c-4.7-4.8-119-79-119-79l-3.8,2.9L287,224.9z"/>
	<path class="st8" d="M216.2,155.2c-1.8-1,7.9-12.6,13.2-18.8l-1.4-1.1c-4.5,6.1-13.9,18.1-15.7,17c-1.9-1.1,8-12.8,13.3-19
		l-1.4-1.1c-4.5,6.1-13.9,18.2-15.8,17.2c-1.9-1.1,8-13,13.3-19.1l-1.8-1.2c-4.5,6.2-13.4,18.6-15.3,17.5c-1.9-1.1,8-13.1,13.3-19.3
		l-1.6-1.4c-4.5,6.2-13.4,19.2-15.3,18.1c-1.9-1.1,8-13.2,13.3-19.5l-1.8-1.4c-4.6,6.3-14,18.8-15.9,17.7c-1.9-1.1,7.7-13.8,13-20.1
		l-1.5-1c-4.5,6.3-14,19-16,17.8c-2-1.1,7.3-13.9,12.6-20.2l-1.7-1.6c-4.5,6.4-14,19.2-16,18.1c-2-1.1,7.5-13.8,12.8-20.2l-1.3-1.3
		c-4.5,6.4-14.1,19.4-16.1,18.2c-2-1.2,8-13.8,13.3-20.3l-2.1-1.7l-19.5,27.6l41.5,27.2l18.1-23.4l-1.8-1.4
		C227.3,144.4,218,156.3,216.2,155.2z"/>
</g>
</svg>
