<svg xmlns="http://www.w3.org/2000/svg" viewBox="0 0 459.26 247.14"><defs><style>.cls-1{fill:#d9dee3;}.cls-2{fill:#74899b;}.cls-3{fill:#8c9dac;}.cls-4{fill:#c6cfd6;}.cls-5{fill:#b9c4cd;}.cls-6{fill:#9eadba;}.cls-7{fill:#b2bec8;}.cls-8{fill:#d7dde2;}.cls-9{fill:#99a8b6;}.cls-10{fill:#8e9fae;}.cls-11{fill:#cad2d9;}.cls-12{fill:#d3dae0;}.cls-13{fill:#dae0e5;}.cls-14{fill:#e5e9ed;}</style></defs><g id="Layer_2" data-name="Layer 2"><g id="Layer_1-2" data-name="Layer 1"><path class="cls-1" d="M104.61,24.26c-11.2-8.59-31.26-13.82-53.33-10.39l-.53-2.55c22.94-3.47,44.3,2,56.87,11.15Z"/><polygon class="cls-2" points="57.28 9.65 54.79 9.72 54.9 14.08 57.38 14.02 57.28 9.65"/><polygon class="cls-1" points="56.45 2.41 31.96 0 35.53 25.62 54.62 25.4 56.45 2.41"/><rect class="cls-2" x="33.14" y="21.86" width="22.97" height="6.57" transform="translate(-0.28 0.5) rotate(-0.63)"/><rect class="cls-3" x="29.64" y="26.7" width="31.92" height="10.74" transform="translate(-0.35 0.51) rotate(-0.64)"/><path class="cls-4" d="M28.05,104.15l39.67-.44s2.09-1.09,6.41-3.19C85.47,95,110.34,64.76,73,39.82c-12.39-8.27-50.44-2.43-50.44-2.43S-31.67,72.3,28.05,104.15Z"/><path class="cls-5" d="M47.74,190s28.47,60.8,35.8,56.64c8.71-4.95-22.3-65.07-22.3-65.07Z"/><path class="cls-6" d="M38.64,177.4c-4-2-27-21.69-27.86-26,4.24-5.7,42.37-17.93,48-14.58,1.3,6.27.15,33.74.15,33.74Z"/><path class="cls-7" d="M10.78,151.4c5.57.08,34.46-5.35,48-14.58C55.24,133.33,17.5,141.56,10.78,151.4Z"/><path class="cls-7" d="M23.7,148.55s4.75,4.89,6.15,5.57-3-6.45-3-6.45Z"/><polygon class="cls-8" points="59.13 168.89 37.73 177.13 49.51 193.12 62.98 186.39 59.13 168.89"/><path class="cls-9" d="M204,167.87s-2.82-27.58-1.65-31.36c1.68-5.42,16.4-17,20.68-15.14s-.43,46.29-.43,46.29Z"/><path class="cls-10" d="M204,167.87s14.9-6.84,14-10.68c-5.67-23.18.79-37.71,5.07-35.82s-.43,46.29-.43,46.29Z"/><rect class="cls-11" x="209.41" y="175.55" width="6.04" height="37.62" transform="translate(16 404.89) rotate(-89.44)"/><polygon class="cls-11" points="227.43 162.86 199.19 163.5 201.06 194.75 225.38 195.36 227.43 162.86"/><path class="cls-12" d="M214.69,192.39c2-2.81,10.47-20.53,12.07-20.37l-1.15,19.92Z"/><path class="cls-13" d="M224.67,191.75l-28.56-.09C196.26,199.71,224.82,199.79,224.67,191.75Z"/><path class="cls-4" d="M195.43,246.29l34.58.85s7.23-31.69,6.43-51.73c0,0-34.53,0-46.42-.26C188.24,211.32,195.43,246.29,195.43,246.29Z"/><path class="cls-12" d="M385.27,183.15c-2.51,6.67-18.79,61.91-1,63.18,7.95.57,11.36-5.89,12.31-14.84,2.93-16-3.64-44.66-5.39-48.53-2.4-5.28,7.79-7.41.92-20.34,6.38-1.63,6.49-6.23,5.68-9.46,19.32-2.22,34-10.85,44.19-22.6a2.2,2.2,0,0,1,.2-.23l.69-.82C477.39,88.33,457,7.7,385.6,11.61c-2.6.15-5.1.38-7.55.66a4.66,4.66,0,0,0,.56-2c.14-2.26-1.29-4.19-3.18-4.3a3.43,3.43,0,0,0-3.18,2.06,3.38,3.38,0,0,0-3.58-.38c-1.67.9-2.14,3.24-1.06,5.23a4.67,4.67,0,0,0,.65.91c-12.52,2.59-22.78,7.15-31,13.09h0c-.73.53-1.44,1.07-2.14,1.62l-.07.06C317.53,42.48,310.36,63,311.65,83.33c0,.53.06,1,.1,1.57l.06.7c2.75,30.92,24.58,61,58.8,66.67,1.62.27,3.21.48,4.78.68-.52,5.9,1.85,9.59,9,10.17C378.41,176,387,178.58,385.27,183.15Z"/><path class="cls-12" d="M384.15,22.17c87.12-5.28,86.41,137-13,120.64C308.2,132.45,297,27.44,384.15,22.17Z"/><path class="cls-14" d="M390,58.55c27,14.62,42.81,40.85,42.77,66.24,30.95-35.33,13.47-106.38-48.57-102.62-27.32,1.65-45,13.11-54.39,28.38C348.36,45.51,370.14,47.8,390,58.55Z"/><path class="cls-4" d="M167.49,112.14s4.86,8.67,8.61,4.45S235.34,12.84,235.34,12.84l-2.61-3Z"/><path class="cls-9" d="M221.66,49.08c.76-1.57,11,5.91,16.42,10l.84-1.24c-5.32-3.45-15.86-10.56-15.08-12.17s11.14,5.92,16.57,10l.85-1.26c-5.35-3.45-16-10.57-15.22-12.2s11.26,5.93,16.72,10l.92-1.57c-5.39-3.45-16.29-10.17-15.49-11.81s11.37,5.93,16.87,10l1.09-1.44C240.72,44,229.4,37.32,230.21,35.66s11.46,5.93,17,10l1.06-1.55c-5.48-3.45-16.45-10.62-15.63-12.3s11.91,5.62,17.5,9.71l.76-1.27c-5.52-3.44-16.61-10.62-15.78-12.33s12,5.28,17.59,9.38l1.21-1.47c-5.57-3.44-16.8-10.64-16-12.37s11.94,5.49,17.62,9.59l1-1.18c-5.61-3.43-17-10.65-16.11-12.41s12,5.94,17.73,10l1.28-1.88L235.34,12.84,215,49,235.53,62.8l1.08-1.59C231.33,57.76,220.89,50.66,221.66,49.08Z"/></g></g></svg>