<svg xmlns="http://www.w3.org/2000/svg" viewBox="0 0 485.57 188.91"><defs><style>.cls-1{fill:#bbc6cf;}.cls-1,.cls-2,.cls-3,.cls-4,.cls-6,.cls-7,.cls-8{fill-rule:evenodd;}.cls-2{fill:#74899b;}.cls-3{fill:#e4e8eb;}.cls-4,.cls-5{fill:#b4bfc9;}.cls-6{fill:#aebbc5;}.cls-7{fill:#d3dae0;}.cls-8{fill:#72889a;}</style></defs><g id="Layer_2" data-name="Layer 2"><g id="Layer_1-2" data-name="Layer 1"><path class="cls-1" d="M329.19,171.88c-2.18-1.41-30.25-10.76-32.17-11.66s-3.84-.64-7.43.64-9.36,3.46-20-1.8-22.68-10.76-30-13.71c-4.54-1.83-10.82-4.16-14.91-5.66a.91.91,0,0,0-.19-.13c-.72-.42-3.31-1.54-3.7-1.78s-.89.16-.89.16l.23.11c-.31-.1-.83-.28-1.59-.58a1.22,1.22,0,0,1,.25.07s.24-.27-.38-.64-1.89-1.22-2.54-.79a1.13,1.13,0,0,0-.19.19l-2.75-1.2c-5.61-2.52-7.49-4.57-7.9-3.73-.15.33-.33.7-.5,1.08l0-.1c-.61-.22-1-.18-1.15.42-.3,1-1.33,4.19-.48,4.25.65,0,4.91,1.5,7.83,2.22,1,.43,2.07.88,3.11,1.36.05.41.36.66.9,1a2.58,2.58,0,0,0,1.64.24.39.39,0,0,1-.09-.07l1.09.53c.93.47,2.2,1.16,3.65,2a.31.31,0,0,1-.16-.06c-.29-.2-3.37-1.84-3.37-1.84s-.43.24-.28.53a7.87,7.87,0,0,0,2,1.57,6.83,6.83,0,0,0,2.17,1c.46,0,.55,0,1-.48,5.28,3,12.18,7.08,14.41,8.2,3.08,1.54,6,3.08,6,4.48a6.82,6.82,0,0,1-.77,2.82s-15.25-5.76-22.69-7-14.22-2.57-16.79-1.67l-.24.09h0c-2.26.87-1.52,1.79-.65,4.14.07.2.16.5.25.85,0,.1.05.21.08.33a183.42,183.42,0,0,1,3.13,20.35c.13,2.43.16,4.57.16,6,0,.15,0,.3,0,.44h0c0,.92,0,1.51,0,1.66v0l4.75.13,1-.64h0v0h0v0h0v-.05h0v0h0v0h0v0h0v0h0v-.06h0v-.1h0v-.15h0v0h0v0h0v-.14h0v0h0v-.07h0V184h0v-.08h0v-.08h0v-.09h0v-.05h0v-.31h0v-.19h0v0h0c-.13-3.22-.36-9.23-.29-11.73.08-3.5.28-8.69,3.84-8.59a70.17,70.17,0,0,1,12.35,1.33c3,.74,5.63,1.43,7.42,2l.95.34.07,0a45.24,45.24,0,0,1,9.2,4.61c12,7.95,18.59,14.74,24.87,14.74s27.81-.9,40.24-3.72,19.74-4.1,20.89-4.61S331.37,173.29,329.19,171.88ZM204.13,133.41c0,.13-.1.27-.14.4C204,133.68,204.08,133.54,204.13,133.41Zm.33-.8a2.72,2.72,0,0,1-.11.25A2.72,2.72,0,0,0,204.46,132.61Zm-.17.4-.13.33Zm-.33.89c0,.11-.07.21-.1.31C203.89,134.11,203.92,134,204,133.9Zm-.13.44-.06.26Zm-.09.4a1.87,1.87,0,0,0,0,.25A1.87,1.87,0,0,1,203.74,134.74Zm-.05.37c0,.09,0,.18,0,.27C203.68,135.29,203.68,135.2,203.69,135.11Zm0,.36,0,.33Zm.32,1,.14.15Zm-.27-.61a1.68,1.68,0,0,0,.07.24A1.68,1.68,0,0,1,203.72,135.86Zm.11.34a1.62,1.62,0,0,0,.1.18A1.62,1.62,0,0,1,203.83,136.2Zm.68.68a1.92,1.92,0,0,0,.36.14l.49.15-.49-.15A1.92,1.92,0,0,1,204.51,136.88Zm-.29-.18.19.13Zm5.8,2.22.64.27Zm-4.45-1.68.36.11Zm.63.21.38.13Zm.66.23.43.16Zm.72.27.49.19Zm.76.3.56.22Zm.81.32.62.25Zm37.12,15.87s-3.66-2-5.61-3.15-5.2-3.15-7.58-4.59a40.54,40.54,0,0,1,9.87,3.74C246.87,152.57,246.27,154.44,246.27,154.44Z"/><path class="cls-2" d="M246.37,148.21c-2.52-1.1-4.81-2.07-6.77-2.86-7.3-2.95-19.09-7.18-19.09-7.18s-.68-.19-2.4-.87l15,9.4a40.54,40.54,0,0,1,9.87,3.74c3.92,2.13,3.32,4,3.32,4A109.24,109.24,0,0,0,269.06,166c12.65,4.53,20.48,4.81,23.22,2.08s3.59-4,3.3-5.67-1.7-1.79-6.13-.19-11.52,3.31-28.14-6.13C255.19,152.64,250.35,150.14,246.37,148.21Z"/><path class="cls-3" d="M376.91,183.23c0-1.32-5.26-1.32-8.33-2.2s-6.58-1.31-5.7-3.07,14.91-62.29,21.05-77.65S395.34,74,395.34,67.85a76.88,76.88,0,0,0-2.19-19.3c-1.76-7-6.29-18.71-4.39-21.94,2.53-4.31,7.9-11,16.23-9.65s18.86,5.27,20.62,5.27,15.79-6.58,23.69-6.15,10.53,8.78,10.53,10.53-7.46,30.27-7,36.85,6.91,23.11,9.65,29.83c4.83,11.85,21.94,79.85,21.94,83.36s2.63,7.46,0,7.89"/><path class="cls-4" d="M388.76,26.76c2.53-4.37,7.9-11.12,16.23-9.79s18.86,5.34,20.62,5.34,15.79-6.67,23.69-6.23,10.53,8.9,10.53,10.68-7.46,30.69-7,37.36a23.3,23.3,0,0,0,.73,4.35c-18.6,5-45.68,4.82-58.21,1.59a8.28,8.28,0,0,0,0-1.49A79,79,0,0,0,393.15,49C391.39,41.88,386.86,30,388.76,26.76Z"/><path class="cls-3" d="M388.76,26.61c2.53-4.31,7.9-11,16.23-9.65s18.86,5.27,20.62,5.27,15.79-6.58,23.69-6.15,10.53,8.78,10.53,10.53-7.46,30.27-7,36.85a28.08,28.08,0,0,0,.86,4.78c-18.61,4.11-45.93,3.84-58.46,1.44a15.13,15.13,0,0,0,.13-1.83,76.88,76.88,0,0,0-2.19-19.3C391.39,41.53,386.86,29.84,388.76,26.61Z"/><path class="cls-5" d="M484.22,184.46a8.66,8.66,0,0,0-.18-1.28H458.88c-3.11-23-9.5-73.28-10.74-83.58-1.4-11.72-2.25-14.47-1.28-6.22.85,7.15,7.49,66.43,9.86,89.8h-12.6c-.52-24.47-1.75-74.44-1.95-82.41-.07-2.7-2.95-14.36-3.43-14.93-1.56-1.88,2.77,9.74,2.62,18.54-.12,7.35.26,54.66,0,78.8H408.46c1.5-25.87,5.59-81.91,5.25-88.37s-1.19-11.08-2.53-13.49c-.63-1.14,1.33,4.26,1.68,11.88s-.91,17.18-1.09,22.69c-.43,12.64-4,48.49-5.64,67.29H377.2c2.21-18.11,8.62-66.84,9.37-76.51.87-11.41.43-8.34-.88-2.2-1.17,5.44-9.21,60.4-11.95,78.71l53.33,3.49"/><path class="cls-5" d="M395.34,67.85a15.13,15.13,0,0,1-.13,1.83,94.37,94.37,0,0,0,9.88,1.23c.23-10.14-.39-24.44-3.17-31.58-2.35-6-2.39-14.93-1.49-22.3-5.77,1.13-9.63,6.12-11.67,9.58-1.9,3.23,2.63,14.92,4.39,21.94A76.88,76.88,0,0,1,395.34,67.85Z"/><path class="cls-5" d="M443.21,70c3.67-.47,7.2-1.05,10.46-1.77a28.08,28.08,0,0,1-.86-4.78c-.44-6.58,7-35.09,7-36.85S457.2,16.52,449.3,16.08a21.07,21.07,0,0,0-4.55.34c1.49,7,3,16.62,1.48,23.79C444.35,48.85,442.15,60.72,443.21,70Z"/><path class="cls-6" d="M137.7,144.09c-3.19-.16-12.56-4-25.46-4S88,144.15,82.87,145.9a14.33,14.33,0,0,1-5.33.82c-9.08-.28-5.1-.37-14.18,0a14.39,14.39,0,0,1-5.5-.81c-5.1-1.75-16.47-5.83-29.38-5.83s-22.27,3.86-25.45,4-3,.7-3,2.77c0,.73.13,2.64,1,2.91,1.56.47,2.71,1.4,3.49,4.33.9,3.4.79,12.67,5.09,20.48s11.15,14.33,23.57,14.33a29.64,29.64,0,0,0,24.46-12.47c3.66-5.42,6-11.46,6.17-17.27.11-3.39,0-5.67,1.27-7,1.89-1.89,9.07-1.92,10.81.23,1.08,1.34,1,3.55,1.07,6.75.19,5.81,2.51,11.85,6.16,17.27a29.64,29.64,0,0,0,24.46,12.47c12.42,0,19.27-6.53,23.57-14.33s4.2-17.08,5.1-20.48c.77-2.93,1.92-3.86,3.48-4.33.89-.27,1-2.18,1-2.91C140.72,144.79,140.88,144.25,137.7,144.09Z"/><path class="cls-4" d="M113.52,72.19c-.79-4.72-1.65-9.68-1-12.18a71.93,71.93,0,0,0,1.71-9.51c0-1-2.31-1.75-6.73-2.16s-7.08-.35-7.58-.75-1.66-5.77-2.36-8.23A20.93,20.93,0,0,0,95.38,35a1,1,0,0,0-.08-.31c.22-.12.33-.26.23-.43a13.37,13.37,0,0,1-1.27-3.8,1.54,1.54,0,0,0-.67-1.2c-1.23-4.65-3.46-12.26-5.4-16C85.51,8.18,79.51.09,70,.18,61.27.26,52.1,6.19,48,19.12c-2.61,8.31-3.12,9.71-3.35,10.43l-.06.07a.76.76,0,0,0-.69.57c-.26,1-1.22,3.82-1.43,4.46-.07.21,0,.32.09.4s0,.08,0,.11a1.49,1.49,0,0,0,0,.18c-.21.36-.43.76-.68,1.24-1.09,2.08-3.58,7.91-3.92,9s-2.41.92-4.16.92S22.11,46.15,22.2,48s1,6.33.58,8.58S19.84,67.5,19.84,72.13c0,3.74-.28,7.4-.11,10.1v0c0,.15,0,.29,0,.44s0,.23,0,.34c0,.35.09.69.15,1,.52,2.71,3.66,7.94,9.86,9.78s29.66,1.39,41.79,1.39,30.83,2.44,37.86-2.68S114.6,78.7,113.52,72.19ZM90,38.65c-1.54,4.63-5.34,7.24-20.78,7.48S52,44.23,49,40.43a7.82,7.82,0,0,1-1.56-3.94.65.65,0,0,0,0-.21V36.2c.16,0,.23,0,.25-.21,0-.89.31-3.75.44-4.81.06-.52,0-.8-.28-1a99,99,0,0,1,3.24-11.25C55.05,7.3,64.79,3,69.78,3c9.72.06,15,9.37,17.24,14.73A53,53,0,0,1,90.13,30a1.08,1.08,0,0,0-.17.46.6.6,0,0,0,0,.23c.08.59.29,4.09.29,4.77a.26.26,0,0,0,.18.25A11.75,11.75,0,0,1,90,38.65Z"/><path class="cls-7" d="M70,58.81c4,0,7.3-2.08,7.3-4.62S74,49.56,70,49.56s-7.3,2.08-7.3,4.63S65.94,58.81,70,58.81Z"/><path class="cls-6" d="M321.87,64.66l.32-.3,1.32-1.19.55-.5,1-.92c3.44-3.1,6.08-5.46,7.64-7,2.44-2.43.52-3.82-7.29-5.39s-28.59-8-30.67-9.08c-.44-3.39-1.67-12.39-2.25-15.52-1-5.47-2.93-11.53-7.22-15.7-6.77-6.61-20.15-9.11-27.1-9-9.21.1-21.72,2.61-27.8,10.25s-8.76,27.88-8.94,30.31c-4.43.07-26.33,5.66-31,6-3.46.26-5.31,1.18-6.32,3.25h0l0,0-.15.34-.09.23c0,.12-.09.25-.13.38s-.05.16-.08.25l-.12.45a2.25,2.25,0,0,0-.05.22c-.06.24-.11.49-.15.74s-.07.43-.1.67c0,0,0,0,0,.08,0,.23,0,.47-.08.73a.49.49,0,0,1,0,.12c0,.26,0,.53-.05.81a.45.45,0,0,1,0,.11c0,.29,0,.59,0,.9v0a18.25,18.25,0,0,0,.14,2,.28.28,0,0,1,0,.09c.05.33.11.67.18,1l0,.13c.08.34.16.68.26,1,0,0,0,0,0,0h0c1.11,3.75,4,7.52,10.6,9.06,12,2.78,20.85,4.52,33.71-.52,11.93-4.67,37.18-1.39,53,3a57.39,57.39,0,0,0,24.22,1.53h0l.25,0,.93-.18,1.29-.27.92-.24,1.18-.32.88-.28,1.1-.38.81-.32c.36-.14.7-.29,1-.44l.73-.34c.34-.17.67-.35,1-.53l.63-.35c.34-.21.65-.43,1-.65.16-.1.33-.21.48-.32a14.68,14.68,0,0,0,1.27-1l1.58-1.45.44-.41Z"/><path class="cls-8" d="M221.85,37.4c-.22,1.53-.35,2.64-.39,3.12v0l-.68,4.24c10.07,9,70.85,9.28,74.35-1.56l-.36-3h0c-.16-1.24-.43-3.25-.74-5.45-1.67,7.17-17.57,8.59-33.11,8.9C243.47,44.06,225.92,41.86,221.85,37.4Z"/></g></g></svg>