<?xml version="1.0" encoding="utf-8"?>
<!-- Generator: Adobe Illustrator 25.1.0, SVG Export Plug-In . SVG Version: 6.00 Build 0)  -->
<svg version="1.1" id="Layer_1" xmlns="http://www.w3.org/2000/svg" xmlns:xlink="http://www.w3.org/1999/xlink" x="0px" y="0px"
	 viewBox="0 0 445.8 188.6" style="enable-background:new 0 0 445.8 188.6;" xml:space="preserve">
<style type="text/css">
	.st0{fill:#E4E8EB;}
	.st1{fill:#8497A7;}
	.st2{fill:#A7B5C0;}
	.st3{fill:#6E8598;}
	.st4{fill:#A0AEBB;}
	.st5{fill:#C1CCD3;}
	.st6{fill:#798E9F;}
	.st7{fill:#8C9DAC;}
	.st8{fill:#E0E5E9;}
	.st9{fill:#B2BEC8;}
	.st10{fill:#A5B3BF;}
</style>
<g>
	<path class="st0" d="M102.3,145.5l-0.8,0.1c-3.4-9.1-9-17.1-16.4-23.4c-5.8-4.9-12.3-8.9-19.4-11.7c0.1-0.1,0.3-0.3,0.3-0.5
		c0.3-0.7,0-1.6-0.8-1.9c0,0,0,0,0,0c-11.5-4.7-18.2-4.5-18.5-4.5c-0.8,0-1.4,0.7-1.4,1.5c0,0.2,0.1,0.5,0.2,0.7
		c-3.6,0.2-7.1,0.9-10.4,2.1l0,0l-7.6-9.8c-5.5,0-10.2,4-11.1,9.4L11.7,126l0,0c-0.5,1.5-0.9,3.1-1.2,4.7l-0.4-0.1
		c-0.6,4-0.7,8.1-0.3,12.1c3,1.3,6.1,2.4,9.2,3.7s6,3.2,9.5,3.8c24.8,3.2,49.7,11.7,73.8,2.9c0.5-0.2,0.9-0.4,1.3-0.6
		C103.4,150,102.9,147.7,102.3,145.5z"/>
	<path class="st1" d="M52.3,149.8c0,9.5-7.7,17.1-17.1,17.2s-17.1-7.7-17.2-17.1c0-9.5,7.7-17.1,17.1-17.2c0,0,0,0,0,0
		C44.7,132.6,52.3,140.3,52.3,149.8z"/>
	<path class="st1" d="M52.3,149.8c0,9.5-7.7,17.1-17.1,17.2s-17.1-7.7-17.2-17.1c0-9.5,7.7-17.1,17.1-17.2c0,0,0,0,0,0
		c0.5,0,1,0,1.5,0C45.6,133.4,52.4,140.9,52.3,149.8z"/>
	<path class="st2" d="M42.5,145.5c0,9.5-7.7,17.1-17.1,17.1c-0.5,0-1,0-1.5,0c-7.1-6.3-7.7-17.1-1.4-24.2c3.2-3.6,7.9-5.7,12.8-5.7
		c0.5,0,1,0,1.5,0C40.4,135.9,42.5,140.6,42.5,145.5z"/>
	<path class="st3" d="M87.8,128.4l3.3-2.6c0.7-0.5,1.6-0.4,2.2,0.3L98,132c0.5,0.7,0.4,1.6-0.3,2.2l-3.3,2.6
		c-0.7,0.5-1.6,0.4-2.2-0.3l-4.7-5.9C87.1,129.9,87.2,129,87.8,128.4z"/>
	<path class="st4" d="M103.7,152.3c-0.4,0.2-0.9,0.4-1.4,0.6c-15.2,5.6-30.7,4.3-46.3,1.8c2.8-11.5-4.2-23.1-15.7-25.9
		c-11.5-2.8-23.1,4.2-25.9,15.7c-1.6-0.6-3.2-1.2-4.7-1.9c0.3,3.5,0.9,7,1.9,10.5c-0.3,0.5,0.8,1.1,2.8,1.8
		c2.8,11.5,14.4,18.5,25.9,15.6c4.8-1.2,9.1-4,12.1-8.1c16.1,2,33.2,3,43.3,0.9c5.1-1,8.5-5.7,8-10.9V152.3z"/>
	<path class="st4" d="M177.4,161.5h-3.5L147.4,146l-11.5-22.5l-0.7,0.4l-35.5-76l1-0.5l-1.5-2.8c0.8-0.4,1.1-1.3,0.7-2.1l-5.7-11.5
		c-0.4-0.8-1.3-1.1-2.1-0.7c0,0,0,0,0,0c-0.1,0.1-0.3,0.2-0.4,0.3l-1.1-2.1l-1,0.5L87.4,25l-1.6-0.3c-0.5-0.1-6-1-41.8-1.5
		C30,23,17.8,28.8,10.6,39.1C3.9,48.4,2.3,60.3,6.1,71c1.9,5.2,5.5,9.5,10.2,12.4c4.6,2.8,9.9,4.3,15.3,4.4
		c20.8,0.4,37.2,2.9,48.6,7.4c12.1,4.6,18.1,11.3,18.4,20.2c0.1,4.6-0.8,8.1-2.7,10c-1.1,1.1-2.5,1.7-4.1,1.8l0,0l-0.4,7.2H92
		c3.4,0,6.6-1.4,9-3.7c3.5-3.4,5.2-8.6,4.9-15.5c-0.2-6.1-2.5-11.9-6.7-16.3C94.7,94,89.1,90.4,83,88.2c-12.3-4.9-29.5-7.5-51.2-7.9
		c-8.9-0.2-16.1-4.7-18.8-12c-3.1-8.5-1.7-17.9,3.5-25.2c5.9-8.4,15.6-13,27.4-12.8c25.9,0.3,35.6,0.9,39,1.2l0.4,0.8l-1,0.5
		l10.1,19l1.5-0.8l35.4,75.9l-1.3,0.7l11,21.5l-4.6,12.4H132c-1.3,0.1-2.3,1.3-2.2,2.6c0.1,1.2,1,2.1,2.2,2.2h45.4
		c1.3-0.1,2.3-1.3,2.2-2.6C179.5,162.4,178.6,161.5,177.4,161.5L177.4,161.5z"/>
</g>
<g>
	<path class="st5" d="M320.7,103.4l-67.3-0.1c-4.4,0-7.9,3.5-7.9,7.9l-0.1,46.1c0,4.4,3.5,7.9,7.9,7.9l67.3,0.1
		c4.4,0,7.9-3.5,7.9-7.9l0.1-46.1C328.5,106.9,325,103.4,320.7,103.4z"/>
	<polygon class="st6" points="271.6,159.3 302.3,159.4 319.8,159.4 319.9,111.1 	"/>
	<polygon class="st7" points="319.9,109.2 252.1,109 251.6,109 251.5,159.3 271.6,159.3 319.9,111.1 	"/>
	<path class="st8" d="M327,134.3c0,1.6-1.3,2.9-2.9,2.9c-1.6,0-2.9-1.3-2.9-2.9s1.3-2.9,2.9-2.9C325.7,131.4,327,132.7,327,134.3z"
		/>
	<path class="st9" d="M251.3,134.2c0,1.3-1.1,2.4-2.4,2.4c-1.3,0-2.4-1.1-2.4-2.4s1.1-2.4,2.4-2.4c0,0,0,0,0,0
		C250.2,131.8,251.3,132.9,251.3,134.2z"/>
</g>
<g>
	<path class="st7" d="M211.3,33.5"/>
	<path class="st7" d="M211.3,33.5L211.3,33.5z"/>
	<path class="st7" d="M211.3,33.5L211.3,33.5L211.3,33.5L211.3,33.5L211.3,33.5z"/>
	<path class="st0" d="M224.6,50.6l-1.9-3.4c-0.8-1.5-2.6-2.2-4.2-1.7c-1.2-1.8-2.8-3.9-4.9-6.7l0.6-0.5c-1.8-2.9-1.2-2-3-4.7
		c-19.7-29.4-69.6-0.4-46.4,33.8l4.4,6l0.6-0.5l3.8,5.1c-1.3,1.3-1.3,3.4-0.2,4.8l2.5,3.1c1.3,1.5,3.6,1.7,5.1,0.5c0,0,0,0,0,0
		l0.2-0.2l-3-3.5c0.6,0.4,1.3,0.8,2,1.2l2.4-1.8c-2.7-1.2-5.1-3.1-6.8-5.4l-3.8-5.3l0.6-0.5l-4.3-5.9c-12.3-23.8,9.2-44.5,28.6-36.1
		c6.2,2.7,8.6,5.7,13.9,11.9l0.6-0.5c5.1,7,7.4,9.2,8,14.9l2.3-1.7l1.2,2.2c1.8-0.9,2.6-3,1.7-4.8C224.7,50.7,224.7,50.7,224.6,50.6
		z"/>
	<path class="st10" d="M221.8,53.3l-3.6-6.5c-2.7-4.8-9.2-2.7-6.5,2.1l5,8.9C219.3,62.6,224.4,58,221.8,53.3z"/>
	<path class="st10" d="M179.2,74.5c-1.7-2-4.1-1.9-5.1,0c-0.7,1.8-0.4,3.9,0.9,5.3l4.8,5.7c1.2,1.5,3.5,2.3,5.2,1.8
		c2-0.6,2.6-2.9,0.9-5L179.2,74.5z"/>
</g>
<g>
	<path class="st0" d="M399.8,92.5l-8.5,0.6c-1.4,0.1-2.5,1.2-2.7,2.6l-1,7.7c0,0.3,0,0.6,0,0.8l3.5,22.2c0.2,1.6,1.8,2.7,3.4,2.5
		c0.2,0,0.4-0.1,0.6-0.1l7.2-2.6L399.8,92.5z"/>
	<path class="st0" d="M389.3,87.6H401V75.8h-11.7c-0.9,0-1.6,0.7-1.6,1.6v0V86C387.7,86.9,388.4,87.6,389.3,87.6L389.3,87.6z"/>
	<path class="st0" d="M415.1,145.7l0.2-1.2h-14.8l4.9,34.7h5l1.2-8.7c3.1-0.2,6-1.2,8.5-3.1c4.4-3.5,6.2-9.6,4.3-14.5
		C422.9,149,419.3,146.3,415.1,145.7z M417.3,164c-1.5,1.1-3.2,1.9-5.1,2.1l2.3-15.9c2.6,0.3,4.8,2,5.8,4.4
		C421.5,157.6,420.2,161.7,417.3,164z"/>
	<path class="st0" d="M443.6,38.7c-0.1-1.7-0.5-3.4-1-5c-0.4-1.1-0.8-2.2-1.4-3.2c-0.4-0.7-0.8-1.3-1.2-2c-1.3-1.9-2.9-3.6-4.7-4.9
		l0,0c-2.7-2.1-5.8-3.4-9.2-4l-16.5-2.9V64l0.7-0.1c-1.8,4-3,8.3-3.6,12.7c-4.1,25,3.2,54.6,8.8,68c0,0,8.2-29.1,7.7-47
		c-0.2-7.7-2.4-16.2-1.7-23.7c0.7-7.2,8.4-10,13.2-14.1l0.4-21.2L435,42l-0.3,17.7l0,0c3.1-2.5,5.6-5.8,7.2-9.5c0.4-1,0.8-2.1,1-3.2
		c0.4-1.7,0.6-3.3,0.7-5c0-0.5,0-1.1,0-1.6C443.6,39.8,443.6,39.3,443.6,38.7z"/>
	<path class="st4" d="M406.7,76.6c0.7-4.9,2.1-9.7,4.3-14.2c4.7-6.1,7.3-13.5,7.5-21.2c0-1.3,0-2.6-0.1-3.9c0-0.3-0.1-0.6-0.1-0.9
		c-0.3-2.6-0.9-5.2-1.8-7.7c-1.5-4.4-3.9-8.4-6.9-11.9l-86.5,5.9l-22,6l-1.9,0.5c-3.6,1-6.5,3.6-7.8,7.2c-0.1,0.9-0.2,1.9-0.3,2.9
		h32.1V58l11.6,0.8l43.4,3c9.2,0.6,16.5,7.9,17.2,17c-0.5,3.6-0.8,7.5-1,11.5c-0.2,3.1-0.3,6.3-0.2,9.6c0.1,15.1,2.2,30.1,6.4,44.6
		h15C409.9,131.1,402.6,101.5,406.7,76.6z"/>
	<path class="st0" d="M287.3,12.1c-0.3,0.5-0.6,1-0.9,1.5c-0.5,0.9-0.9,1.9-1.5,2.9c-0.4,0.9-0.9,2-1.3,3.1c-1.1,3-2,6-2.6,9.1
		c-0.1,0.4-0.2,0.9-0.3,1.3c-0.1,0.8-0.3,1.6-0.4,2.4c-0.1,0.4-0.1,0.9-0.2,1.3c-0.1,0.9-0.2,1.8-0.2,2.8c-0.1,1.3-0.1,2.6-0.1,4
		c0,0.5,0,1.1,0,1.6c0.4,15.4,6.3,25.3,8.5,28.6L325,58.4V22.9l-36.6-12.6C288.1,10.8,287.7,11.4,287.3,12.1z"/>
</g>
</svg>
