<svg xmlns="http://www.w3.org/2000/svg" viewBox="0 0 264.42 219.5"><defs><style>.cls-1{fill:#8e9fae;}</style></defs><g id="Layer_2" data-name="Layer 2"><g id="Layer_1-2" data-name="Layer 1"><path class="cls-1" d="M166.9,48.9a22.94,22.94,0,0,0,21.43-15.12A22.76,22.76,0,1,0,166.9,48.9Z"/><path class="cls-1" d="M236.88,105.51a14.66,14.66,0,1,0-7.56-2.1A14.78,14.78,0,0,0,236.88,105.51Z"/><path class="cls-1" d="M264.41,152.37c0-1.67,0-3.35-.06-5s-.26-3.4-.4-5.1a67,67,0,0,0-1.89-9.94,39.56,39.56,0,0,0-1.62-4.86,37.94,37.94,0,0,0-2.15-4.56,33.24,33.24,0,0,0-10.84-12.22A26.61,26.61,0,0,0,243,108a14.5,14.5,0,0,0-5.79-1.33,14.3,14.3,0,0,0-7,1.89,31.7,31.7,0,0,0-4.92,3.63c-1.64,1.35-3.34,2.64-5.08,3.86-3.17,2.22-6.74,4.65-10.63,5.32a129.21,129.21,0,0,0-1.17-20.62,96.9,96.9,0,0,0-1.92-10,90.35,90.35,0,0,0-3.08-9.48,59,59,0,0,0-9.25-16.18,48.42,48.42,0,0,0-12.72-11c-5.26-3.1-11.25-5-17.41-4.35-5.95.62-11.16,3.73-15.84,7.28a55.63,55.63,0,0,0-15.72,18.57c-3.93-9.87-10.68-18.88-19.93-24.31a35.16,35.16,0,0,0-16.92-5.13,34.66,34.66,0,0,0-17.81,5.25C67.31,57.68,60.23,68.33,56.56,79.85c-3.87,12.1-4.34,25.09-3.31,37.67.1,1.23.21,2.47.35,3.7a29.25,29.25,0,0,1-8.47-4,60.33,60.33,0,0,1-8-5.87,14,14,0,0,0-7.27-3.59,14.55,14.55,0,0,0-6.35.6c-11.18,3.44-18.55,14-21.32,25a66.29,66.29,0,0,0-1.8,10C.08,146.7,0,150.1,0,153.54A4.94,4.94,0,0,0,1.08,157a4.37,4.37,0,0,0,3.12,1.5,4.46,4.46,0,0,0,4.5-4.19c.3-2.92.56-5.84,1.08-8.73a58.74,58.74,0,0,1,2.32-8.75c-.29,5.22-.56,10.45-.85,15.66,0,.67-.07,1.33-.11,2a16.69,16.69,0,0,0,.3,4.11A16.14,16.14,0,0,0,12,160.8c.13.36.26.71.41,1a4,4,0,0,1,.48,1l.15,2.77q.42,8.32.86,16.65.51,10,1,19.93l.36,6.88a24.65,24.65,0,0,0,.19,3.09,5.08,5.08,0,0,0,10,.13,26.42,26.42,0,0,0,.24-3.77q.43-9.13.88-18.27l.78-16c0-.35,0-.69.05-1l.6,11.57,1,19.85q.17,3,.32,6.08c0,.34,0,.67.05,1a5.08,5.08,0,0,0,10,1,6.69,6.69,0,0,0,.21-1.66c.08-1.59.16-3.18.23-4.77l.9-18.52q.45-9.37.91-18.74l.24-5a1.88,1.88,0,0,1,.2-1,16.39,16.39,0,0,0,1.86-8.52c-.26-4.84-.53-9.67-.78-14.51q-.33-5.84-.64-11.67a34.89,34.89,0,0,0,9.39,2.56,16.17,16.17,0,0,0,4.91-.15,11.36,11.36,0,0,0,2.2-.66l.52-.25.44.05a6.68,6.68,0,0,0,6.54-3.66,7,7,0,0,0,.71-3.49c-.07-1.6-.11-3.21-.13-4.82a102.07,102.07,0,0,1,1.45-19,58.14,58.14,0,0,1,6.12-18.14q-.68,5.51-1.34,11-1.2,10-2.42,20-.45,3.66-.88,7.3a44.54,44.54,0,0,0-.45,5A26.23,26.23,0,0,0,71,133a24.61,24.61,0,0,0,1.82,4.1c.34.64.72,1.26,1.12,1.86.1.14.1.09.1.18,0,.77.07,1.54.11,2.31.22,4.44.42,8.88.64,13.32q.46,9.9.93,19.79.5,10,1,20.09.34,7.13.67,14.25l.15,3a8,8,0,0,0,5.6,7.29,7.86,7.86,0,0,0,10-7.11c0-.82.08-1.65.11-2.48q.36-7.74.7-15.47.45-10.26.92-20.51l.66-14.78.09-1.9c.13,2.94.27,5.89.41,8.83l.9,19.32c.29,6.35.59,12.68.88,19q.15,3,.28,6a17.29,17.29,0,0,0,.34,3.52,7.85,7.85,0,0,0,11.3,4.85,8,8,0,0,0,4-6.81l.45-9.7q.41-9.13.83-18.27.46-10.35.95-20.7.38-8.5.77-17l.33-7.19c0-.1.23-.35.29-.44.18-.29.36-.59.53-.89.38-.66.73-1.33,1-2a26.45,26.45,0,0,0,1.52-4.12,26,26,0,0,0,.81-9c-.11-1.28-.29-2.56-.45-3.83-.71-5.94-1.44-11.87-2.15-17.8q-1-8.59-2.09-17.2c-.08-.75-.18-1.5-.27-2.25A57.54,57.54,0,0,1,122,98.67a93.64,93.64,0,0,1,1.37,18.54c0,1.69,0,3.37,0,5.06a8.18,8.18,0,0,0,.38,3.22,6.83,6.83,0,0,0,5.18,4.35,7,7,0,0,0,6.36-2.38c1.79-2.12,1.67-4.9,1.88-7.51A101.77,101.77,0,0,1,139.58,105a72.31,72.31,0,0,1,4.66-14.14v3.83a8.12,8.12,0,0,1,0,1.56l-.66,3.15q-1.59,7.68-3.19,15.35L136.17,135q-1.69,8.18-3.4,16.35c-.28,1.33-.56,2.68-.84,4a8.18,8.18,0,0,0-.17,1,4.44,4.44,0,0,0,4.43,4.73h8.15l1.33,0s0,.85.05,1.24q.34,7.22.7,14.43l1,20.43.66,13.59c0,.27,0,.55,0,.83a8,8,0,0,0,2.79,5.59,7.81,7.81,0,0,0,6.69,1.74,8.05,8.05,0,0,0,5.39-4.15,11.12,11.12,0,0,0,1-4.75l.3-6q.51-9.65,1-19.3.47-9.15.94-18.3c.09-1.59.17-3.18.25-4.77,0-.3-.1-.59.23-.59.71,0,.69-.12.72.47q.3,6.32.61,12.64.49,10.19,1,20.37.36,7.62.73,15.26a12.48,12.48,0,0,0,.66,4.33,7.87,7.87,0,0,0,15.16-2.5c0-.23,0-.46,0-.69.08-1.65.17-3.29.26-4.94q.46-9.23.95-18.45.5-9.59,1-19.19l.3-5.86c0-.42.06-1.42.06-1.42l9.21,0a4.43,4.43,0,0,0,4.32-5.25c0-.19-.08-.38-.11-.57q-1.17-5.7-2.33-11.4-2-9.72-3.95-19.43-1.92-9.37-3.82-18.74l-1.89-9.3a7.07,7.07,0,0,1,0-1.38V91.86a73,73,0,0,1,3.15,9.43,88.78,88.78,0,0,1,2.13,10.07c.49,3.38.88,6.76,1.16,10.17a11,11,0,0,0,.67,3.59,6.68,6.68,0,0,0,2.17,2.71,6.79,6.79,0,0,0,4.52,1.34c.47,0,.81.31,1.22.53a10.37,10.37,0,0,0,1.45.62,11.33,11.33,0,0,0,3.24.62c4.48.21,8.94-1.25,13-3v9.85l-4,17.11q-2.06,8.76-4.12,17.52c-.32,1.37-1.05,3.15-.3,4.48.88,1.57,2.51,1.44,4,1.44h4.72a3.5,3.5,0,0,1,.66,0c0,.12,0,.25,0,.39,0,.72.07,1.43.1,2.15.13,2.74.27,5.48.4,8.22q.45,9.52.92,19a28.87,28.87,0,0,0,.26,4.16,5.08,5.08,0,0,0,10-.11,35.23,35.23,0,0,0,.24-4.1c.16-2.92.31-5.85.46-8.77l1-18.51c0-.7.07-1.41.11-2.12,0-.12,0-.25,0-.37,0,0,.51-.13.52,0,.07,1.53.15,3.07.22,4.6q.48,9.75.94,19.49c.13,2.49.25,5,.37,7.48,0,.52.05,1,.07,1.56a5.18,5.18,0,0,0,2.54,4.22,5,5,0,0,0,6.41-1.13,5.35,5.35,0,0,0,1.21-3.3c.1-1.84.2-3.69.29-5.53.35-6.57.68-13.14,1-19.7.11-2.26.23-4.51.34-6.76,0-.06,0-1,.06-1h3.75c1.27,0,3,.27,4.1-.49a3,3,0,0,0,1.09-3.19c-.37-1.67-.73-3.35-1.1-5l-4.17-19.1c-.93-4.25-2.9-12.83-2.9-12.83v-3.26c2.77,6.18,3.54,13,4.21,19.67a4.86,4.86,0,0,0,1.14,2.95,4.33,4.33,0,0,0,7.59-2.91C264.42,153.56,264.41,153,264.41,152.37Z"/><path class="cls-1" d="M27.54,105.51a14.66,14.66,0,1,0-7.57-2.1A14.81,14.81,0,0,0,27.54,105.51Z"/><path class="cls-1" d="M95.41,44.92a22.69,22.69,0,0,0,21.3-15.27,22.49,22.49,0,1,0-42.77-.53A22.66,22.66,0,0,0,94.82,44.91Z"/></g></g></svg>