<svg xmlns="http://www.w3.org/2000/svg" xmlns:xlink="http://www.w3.org/1999/xlink" viewBox="0 0 297.68 187"><defs><style>.cls-1{fill:url(#linear-gradient);}.cls-2{fill:#fafafb;}.cls-3{fill:#e7ebee;}.cls-4{fill:#fff;}.cls-5{fill:#8e9fae;}</style><linearGradient id="linear-gradient" x1="97.55" y1="-1581.35" x2="-7.14" y2="1784.7" gradientUnits="userSpaceOnUse"><stop offset="0" stop-color="#b6c1cb"/><stop offset="1" stop-color="#99a8b6"/></linearGradient></defs><g id="Layer_2" data-name="Layer 2"><g id="Layer_1-2" data-name="Layer 1"><path class="cls-1" d="M85.6,128.12c0,.18-1.76,17.68-13,17.68-4.29,0-13.4-6.13-22.17-14.9-2.24-2.25-4.32-4.52-6.21-6.76a23.45,23.45,0,0,0,5-12.65c.53-5.09-.34-10-2.38-13.37-2.66-4.43-6.92-5.87-11.69-3.93s-6.82,6.06-5.86,11.67c.84,4.9,4.09,11.16,9.14,17.78a11.06,11.06,0,0,1-6.26,1.61c-4.21-.1-9.1-2.1-14.55-5.94-21-14.83-13.38-28.91-4.5-45.21,4.8-8.81,9.76-17.91,9.93-27.42h.37a.89.89,0,0,0,.55-.19,5.75,5.75,0,0,0,3.66-1.42,1.2,1.2,0,0,0,.31-.4.91.91,0,0,0,.08-.16h0a.65.65,0,0,0,0-.2V40.07l.18-.1a9.86,9.86,0,0,0,9.52-10.12V14a3.37,3.37,0,0,0-3.36-3.55h-3.3V2.18C31.05.94,30.51,0,29.53,0H26.71a2,2,0,0,0-1.8,2.18v8.27h-8.7V2.18A2.28,2.28,0,0,0,14.06,0H11.24A2.1,2.1,0,0,0,9.31,2.18V11.3l-2,.58h.15a3.31,3.31,0,0,0-2.27,3.35V31.09c0,5.53,4.11,10.18,9.53,10.18h1.08v4.29a1.09,1.09,0,0,0,1,1.12H19c-.2,8.36-4.86,16.92-9.38,25.2S.51,88.53,0,97.06c-.54,9.8,4.47,18.28,15.32,25.92s18.22,7.56,23.08,5.51A10.47,10.47,0,0,0,41.13,127c2,2.35,4.16,4.74,6.52,7.1,7.77,7.78,18.41,16.09,25,16.09,6.28,0,11.24-3.85,14.35-11.12a38.67,38.67,0,0,0,2.72-10.53ZM33.33,105.07c-.61-3.53.4-5.62,3.27-6.77a6.7,6.7,0,0,1,2.55-.56,4.83,4.83,0,0,1,4.23,2.75c2.3,3.84,2.58,10.79.35,16.36a16.13,16.13,0,0,1-2.19,3.92C37,114.8,34,109.22,33.33,105.07Z"/><polygon class="cls-2" points="155.15 124.38 176.7 124.09 176.68 172.77 155.15 174.02 155.15 124.38"/><path class="cls-3" d="M235.66,32.77,191.82,73.49,119,92.8l-40.4,1.75v81.72L123.08,187l160.26-10.22V152.35h0V94.56l10.15-.2Z"/><polygon class="cls-4" points="111.89 98.77 69.04 97.81 69.04 93.82 111.89 94.14 111.89 98.77"/><polygon class="cls-5" points="151.17 171.65 175.11 169.79 175.11 125.84 151.17 126.13 151.17 171.65"/><polygon class="cls-5" points="235.53 28.26 180.8 36.33 179.2 37.83 140.92 73.88 77.64 91.44 69.04 93.82 111.89 94.14 121.53 91.37 191.82 71.16 233.78 29.96 235.53 28.26"/><polygon class="cls-5" points="246.38 94.84 246.38 141.5 260.43 140.85 260.43 94.8 246.38 94.84"/><polygon class="cls-5" points="207.48 143.3 222.56 142.6 222.56 94.91 207.48 94.95 207.48 143.3"/><polygon class="cls-5" points="227.28 142.38 241.82 141.71 241.82 94.85 227.28 94.89 227.28 142.38"/><polygon class="cls-4" points="297.68 94.73 237.28 29.48 235.52 27.6 233.78 29.31 191.82 70.5 121.53 90.71 111.47 93.76 111.47 96.66 111.47 98.59 122.81 93.76 193.21 73.72 235.66 32.12 292.96 94.73 297.68 94.73"/></g></g></svg>