<svg xmlns="http://www.w3.org/2000/svg" viewBox="0 0 573.8 205.86"><defs><style>.cls-1{fill:#8c9dac;}.cls-2{fill:#e4e8eb;}.cls-3{fill:#fff;}.cls-4{fill:#798e9f;}.cls-5{fill:#c4cdd5;}.cls-6{fill:#a0aebb;}.cls-7{fill:#a5b3bf;}</style></defs><g id="Layer_2" data-name="Layer 2"><g id="Layer_1-2" data-name="Layer 1"><g id="_6" data-name="6"><rect class="cls-1" x="231.28" y="157.72" width="171.39" height="13.59"/><path class="cls-2" d="M363.2,59H231.47c-5,0-9,3.38-9,7.53v90c0,4.16,4,7.53,9,7.53H378.18V59Z"/><path class="cls-2" d="M403.46,59H381.34V164h22.12c4.87,0,8.81-3.37,8.81-7.53v-90C412.27,62.38,408.33,59,403.46,59Z"/><rect class="cls-3" x="236.37" y="74.69" width="120.08" height="73.66" rx="12.81"/><polygon class="cls-4" points="406.12 71.02 386.96 71.02 386.96 83.43 387.49 83.43 406.65 83.43 406.65 71.02 406.12 71.02"/><rect class="cls-3" x="385.8" y="88.89" width="8.42" height="4.5"/><rect class="cls-3" x="385.8" y="96.56" width="8.42" height="4.5"/><rect class="cls-3" x="399.4" y="88.89" width="8.42" height="4.5"/><rect class="cls-3" x="399.4" y="96.56" width="8.42" height="4.5"/><path class="cls-5" d="M408.26,135.1a7,7,0,0,0-7-6.79h-8a7,7,0,0,0-7,6.79c0,.08,0,.16,0,.24a7,7,0,0,0,7,7h8a7,7,0,0,0,7-7C408.28,135.26,408.26,135.18,408.26,135.1Z"/><rect class="cls-5" x="378.18" y="59" width="3.16" height="105.04"/><rect class="cls-3" x="385.8" y="148.11" width="22.49" height="5.62"/></g><rect class="cls-2" y="12" width="161.07" height="193.19" rx="10.16"/><path class="cls-5" d="M123.85,26.22A3.14,3.14,0,1,0,127,29.36,3.14,3.14,0,0,0,123.85,26.22Z"/><path class="cls-5" d="M123.85,37.78A3.14,3.14,0,1,0,127,40.92,3.14,3.14,0,0,0,123.85,37.78Z"/><path class="cls-5" d="M134.67,26.22a3.14,3.14,0,1,0,3.13,3.14A3.13,3.13,0,0,0,134.67,26.22Z"/><path class="cls-5" d="M134.67,37.78a3.14,3.14,0,1,0,3.13,3.14A3.13,3.13,0,0,0,134.67,37.78Z"/><path class="cls-5" d="M145.48,32.5a3.14,3.14,0,1,0-3.14-3.14A3.14,3.14,0,0,0,145.48,32.5Z"/><path class="cls-5" d="M145.48,37.78a3.14,3.14,0,1,0,3.13,3.14A3.13,3.13,0,0,0,145.48,37.78Z"/><path class="cls-5" d="M43.05,24.5,36,35.88a12.66,12.66,0,0,1-10.76,6H9.08v4h18.3a12.83,12.83,0,0,0,10.9-6.07L47.82,24.5l1.6-2.57L46,19.79Z"/><path class="cls-5" d="M16.3,36.65H29a2.36,2.36,0,0,0,0-4.72H16.3a2.36,2.36,0,0,0,0,4.72Z"/><path class="cls-5" d="M131.91,128.32A51.38,51.38,0,1,1,80.54,76.94,51.37,51.37,0,0,1,131.91,128.32Z"/><path class="cls-6" d="M107.89,128.31a27.36,27.36,0,0,1-27.35,27.37,3.31,3.31,0,0,1-.45,0A27.34,27.34,0,0,0,67,104.58a27.34,27.34,0,0,1,40.94,23.73Z"/><path class="cls-1" d="M93.88,131.92a27.34,27.34,0,0,1-13.79,23.74A27.35,27.35,0,0,1,67,104.58,27.35,27.35,0,0,1,93.88,131.92Z"/><rect class="cls-5" y="52.23" width="161.07" height="4.55"/><g id="_7" data-name="7"><g id="_10" data-name="10"><path class="cls-7" d="M555,196.55H528.24V141.43h.7v-8h-1.61v-5.09h-1.1V56.32h-7.16v72.07H518v5.09h-1.61v8h.7v55.12H490.32a4.68,4.68,0,0,0-4.68,4.68v4.63h74v-4.63A4.67,4.67,0,0,0,555,196.55Z"/><polygon class="cls-3" points="526.91 101.58 518.4 101.58 516.88 56.32 528.42 56.32 526.91 101.58"/><path class="cls-7" d="M525.54,96a2.89,2.89,0,1,1-2.89-2.89A2.88,2.88,0,0,1,525.54,96Z"/><path class="cls-7" d="M525.54,88.26a2.89,2.89,0,1,1-2.89-2.89A2.89,2.89,0,0,1,525.54,88.26Z"/><path class="cls-7" d="M525.54,80.53a2.89,2.89,0,1,1-2.89-2.88A2.89,2.89,0,0,1,525.54,80.53Z"/><path class="cls-7" d="M516.31,43.35s-15.64-10.43-16.76-23.1a17.05,17.05,0,0,1,8.07-16.57A25.62,25.62,0,0,1,523.39.14C530.29,1,538.61,3.37,544,8c2.71,2.33,4.64,5.24,4.09,9-.5,3.28-2.48,5.22-4.94,6.72a31.26,31.26,0,0,0-13.31,15.94c-.79,2.16-1.27,3.72-1.27,3.72Z"/><path class="cls-7" d="M516.73,61.31s-1.21,18.76-11.61,26.07a17.07,17.07,0,0,1-18.39,1.3,25.53,25.53,0,0,1-11-11.89C473,70.4,471,62,472.28,55c.66-3.51,2.22-6.64,5.71-8,3.09-1.22,5.76-.46,8.28.91a31.34,31.34,0,0,0,20.46,3.57c2.27-.4,3.86-.77,3.86-.77Z"/><path class="cls-7" d="M535.07,47.57s16.86-8.33,28.38-3a17,17,0,0,1,10.32,15.27A25.55,25.55,0,0,1,569,75.3c-4.16,5.56-10.4,11.57-17.14,13.94-3.37,1.18-6.86,1.39-9.79-.94-2.6-2.07-3.29-4.76-3.35-7.63a31.32,31.32,0,0,0-7.15-19.5c-1.48-1.77-2.59-3-2.59-3Z"/><path class="cls-5" d="M540.67,52A18.77,18.77,0,1,1,521.9,33.27,18.77,18.77,0,0,1,540.67,52Z"/><path class="cls-2" d="M536.2,52a14.3,14.3,0,1,1-14.3-14.3A14.3,14.3,0,0,1,536.2,52Z"/><path class="cls-3" d="M533.36,52a11.43,11.43,0,0,1-6.19,10.17A13.27,13.27,0,0,0,519,40.94a11.21,11.21,0,0,1,2.86-.36A11.46,11.46,0,0,1,533.36,52Z"/></g></g></g></g></svg>