<?xml version="1.0" encoding="utf-8"?>
<!-- Generator: Adobe Illustrator 25.1.0, SVG Export Plug-In . SVG Version: 6.00 Build 0)  -->
<svg version="1.1" id="Layer_1" xmlns="http://www.w3.org/2000/svg" xmlns:xlink="http://www.w3.org/1999/xlink" x="0px" y="0px"
	 viewBox="0 0 450.1 450.1" style="enable-background:new 0 0 450.1 450.1;" xml:space="preserve">
<style type="text/css">
	.st0{fill:#E2EFF0;}
	.st1{fill:#FFFFFF;}
	.st2{fill:#EAF2E8;}
	.st3{clip-path:url(#SVGID_2_);}
	.st4{fill:#669C63;}
	.st5{fill:#5FA76E;}
	.st6{fill:#A1C26A;}
	.st7{fill:none;}
	.st8{opacity:0.75;fill:#D6E7DF;enable-background:new    ;}
	.st9{fill:#829EB6;}
	.st10{fill:#363636;}
	.st11{fill:#70B2C2;}
	.st12{opacity:0.5;fill:#70B2C2;enable-background:new    ;}
	.st13{fill:#CE7A53;}
	.st14{fill:#D3E2FD;}
	.st15{fill:#E9AE44;}
	.st16{fill:#7AA651;}
	.st17{fill:#9BBE4F;}
	.st18{opacity:0.42;}
	.st19{fill:#5D8E5A;}
	.st20{fill:#4E6756;}
	.st21{fill:#C1D483;}
</style>
<g id="OBJECTS">
	<g>
		<g>
			<path class="st0" d="M264.8,312c23.2,2.2,47.1-2.8,68.2-12.6c10.5-4.9,20.8-12.4,24.1-23.5c1.6-5.2,1.5-10.8,2.4-16.1
				c5.2-31.3,40.4-47.7,56.2-75.2c4-6.9,6.7-15,5.2-22.8c-1.9-9.5-9.9-16.7-18.4-21.4s-17.9-7.7-26.1-13
				c-11.2-7.2-21.2-18.1-23.3-31.2c-3.8-24.7-3.4-74.9-62.6-83.5C237,5.1,182.7,66.8,159.4,75.6c-51.5,19.5-111.5,13.7-124.2,64
				c-15.1,60,43.4,89.6,56.8,98.6c13.4,8.9,17.9,27.9,13.4,43.4c-12,41.1,41.3,39.1,93.6,20C251.4,282.4,234.5,309.2,264.8,312z"/>
		</g>
		<path class="st1" d="M282.1,76.3h39.5c0,0-0.9-7.6-10.5-4c-5.9-12.9-16.9-10.3-20.9-2.6C284.5,67.9,282.1,76.3,282.1,76.3z"/>
		<ellipse class="st2" cx="226.5" cy="427.3" rx="87.6" ry="9.6"/>
		<g>
			<g>
				<defs>
					<path id="SVGID_1_" d="M56.2,259C56.6,324.5,95,386.6,159,414.3c86.3,37.3,186.5-2.5,223.8-88.8c9.4-21.7,13.9-44.2,14-66.4
						H56.2V259z"/>
				</defs>
				<clipPath id="SVGID_2_">
					<use xlink:href="#SVGID_1_"  style="overflow:visible;"/>
				</clipPath>
				<g class="st3">
					
						<ellipse transform="matrix(0.7071 -0.7071 0.7071 0.7071 -116.0308 235.6676)" class="st4" cx="226.5" cy="257.9" rx="170.2" ry="170.2"/>
					<g>
						<path class="st5" d="M285.3,103.5c2.3,1.1,5.3,1.7,6.4,4.1c0.9,1.9-0.2,4.4-2.2,5.1c-0.4,0.1-0.9,0.2-1.2,0.5
							c-0.5,0.5-0.4,1.4-0.1,2.1c1.1,2.7,3,5,3.6,7.8s-1.4,6.4-4.2,5.9c-0.9-0.2-1.7-0.7-2.5-1.1c-3.2-1.4-7.4,0.2-8.8,3.4
							c-0.7,1.6-0.8,3.4-1.3,5c-0.6,1.6-2,3.2-3.7,3c-0.7-0.1-1.3-0.4-1.9-0.7c-3.8-1.6-8.2,0.3-11.1,3c-3,2.8-5,6.4-7.7,9.5
							c-1.8,2.1-4.8,4-7.1,2.5c-1.8-1.2-1.9-3.8-1.5-5.9c0.4-2.1,1.2-4.3,0.6-6.3c-1-3.2-5.2-4.6-6.4-7.8c-1-2.8,0.6-5.8,2.6-8
							c2-2.1,4.6-3.8,6.2-6.3c3.4-5.4,0.1-13.6-6-15.2c-1-0.3-2.1-0.4-2.9-1.1c-1.6-1.4-0.8-4.3,1.1-5.4c1.9-1.1,4.2-0.9,6.3-0.6
							s4.4,0.5,6.3-0.4c2.2-1.1,3.4-3.8,3.4-6.3c0-0.2,0-0.5,0-0.7c9.9,1.6,19.8,4,29.5,7.5C280.4,99.6,283.2,102.5,285.3,103.5z"/>
						<path class="st6" d="M234.6,87.9L234.6,87.9c-3.4,4.9-14.2,4.1-18.2,9.2c-3.3,4.1-0.4,10.1,2.5,14.5c-2,0.9-4,1.8-6,2.7
							c-0.3,4.4,6.5,6.3,7.2,10.7c0.7,4.4-5.1,6.9-9.5,6.6s-9.4-1.8-13,0.8c-0.8-5.3,1.5-11.1,5.8-14.3c-2.8-0.7-5-3.4-5.1-6.3
							c0-2.4,1.2-5.1-0.2-7.1c-1.9-2.7-6.3-1-8.3,1.6s-3.4,6.1-6.4,7.3c-1.9,0.8-4,0.4-6,0.4c-5.1,0-10.2,2.3-13.6,6.1
							c-1.5,1.6-2.7,3.6-4.7,4.7c-1.9,1.1-4.4,1.2-6.3,2.3c-3.3,2-3.8,7.2-1,9.8c2.2-2.1,6.3-0.8,7.5,2s-0.3,6.2-2.9,7.9
							c2.1,3.5,7.2,4.2,10.9,2.5s6.1-5.4,7.8-9.1c1.1-2.5,3-5.8,5.7-5.1c0.9,1.4,1.9,2.7,2.8,4.1c1.4-2.6,5.3-5.4,6.8-2.8
							c0.5,0.8,0.3,1.9,0.7,2.8c1.1,2.5,4.7,1.4,7.4,0.9c3.2-0.6,6.8,0.6,8.7,3.3c1.8,2.7,1.4,6.9-1.2,8.8c-0.7,0.5-1.5,0.9-1.9,1.7
							c-1.1,2.4,3.2,3.6,4.2,6c1.1,2.6-2.4,5.1-5.1,4.5c-2.7-0.6-4.7-2.9-6.8-4.8c-3.6-3.1-8.7-5.1-13.1-3.5
							c-0.8,0.3-1.7,0.8-2.2,1.5c-1.3,2,0.5,4.5,2.3,5.9c1.9,1.4,4.2,2.8,4.5,5.1c0.5,3.6-4.3,5.6-7.9,5.3
							c-3.6-0.3-7.7-1.5-10.6,0.6c-3.8,2.7-4.7,10-9.3,9.6c-1.2-0.1-2.2-0.8-3.4-0.9c-3.5-0.5-5.6,3.8-6.6,7.2s-3.3,7.6-6.8,6.9
							c-2.3-0.5-4-3.1-6.4-2.8c-1.7,0.2-2.7,1.9-3.5,3.4c-2.1,3.9-4.1,7.8-6.2,11.7c-1.7-4.5-3.4-8.9-5.2-13.4
							c-1.4,3.1-6.5,1.7-8.1-1.2c-1.7-2.9-1.5-6.6-2.7-9.7c-1.2-3.1-5.3-5.8-7.9-3.5c-3.7,3.2,1.8,10.3-1.6,13.8
							c-1.2,1.2-3,1.4-4.5,2.2c-5.2,2.7-4.4,10.4-2.8,16.1c1.3,4.8,2.7,9.7,4,14.5c0.3,0.9,0.6,1.9,1.3,2.5c3,2.3,7-4.3,10.3-2.5
							c4.1,2.4-3.8,10.1,0,12.9c1.5,1.1,4,0.4,5.1,1.9c1.4,1.9-1.3,4.5-0.9,6.8c0.4,2,2.8,2.8,4,4.5c1.2,1.6,1,4,2.3,5.5
							c3.4,4.1,10-2.1,15.1-0.5c5.9,1.9,4.5,12.1,10,15c4.1,2.1,8.9-1.3,13.4-0.8c5.3,0.6,8.5,6,11,10.7s6.5,9.9,11.8,9.5
							c3.9-0.4,8.5-3.6,11.1-0.6c0.9,1,1.1,2.3,1.6,3.5c1.6,3.8,6,5.5,9.5,7.6c4.1,2.5,7.7,6.2,8.8,10.9c1.2,4.6-0.5,10.2-4.7,12.5
							c-1.1,0.6-2.3,1-3,2c-0.7,1.1-0.5,2.4-0.7,3.7c-0.4,3.5-3.7,6.5-7.3,6.5c-1.8,0-3.9-0.5-5.1,0.8c-0.9,1-0.7,2.4-0.9,3.7
							c-0.4,3.7-3.5,6.5-6.3,8.9c-6.4,5.4-11.2,13.4-19.1,16.1c-10.4,3.5-9.4,5.1-9.2,9.2c0.2,5.6,2.8,11.1,7.2,14.6
							c1.8,1.5,4.3,3.4,3.3,5.6c-0.5,1.2-1.9,1.8-3.2,1.9c-3.7,0.5-7.6-1.5-9.5-4.7c-2.7-4.7-1.5-11.8-6.1-14.9
							c-2.5-1.8-6.3-1.7-8-4.3c-0.9-1.4-0.8-3.1-0.8-4.7c0.4-11,0.7-22,1.1-32.9c0.1-2.8,0.2-5.7-1.1-8.1c-2.1-4.3-7.3-5.9-11.2-8.6
							c-6-4.2-9.4-12-8.3-19.3c0.4-3,1.5-6.3-0.1-8.8c-1.3-2.1-4.1-3.1-4.9-5.4c-0.7-2.2,0.9-4.5,2.7-5.9c1.8-1.4,4-2.4,5.5-4.1
							c3.7-4.4-0.4-12.6-6.1-12.2c-0.9,0.1-1.8,0.3-2.6,0c-2.9-0.8-2.3-5.1-3.2-8c-1.8-5.8-11.3-7.4-11.4-13.4
							c0-2.6,1.7-5.6-0.2-7.4c-1.8-1.8-4.9,0-7.4-0.7s-3.5-3.7-3.5-6.3s0.5-5.3-0.4-7.7c-1-2.7-3.7-4.3-5.5-6.5
							c-3.2-3.8-4-9.2-3.6-14.2s2-9.8,2.8-14.8c1.2-6.8,1-13.7,0.3-20.6C115.5,114.6,174.3,85,234.6,87.9L234.6,87.9L234.6,87.9z"/>
						<path class="st5" d="M234.6,87.9c-1.8,6.9-13.8,3.6-18.2,9.2C220.5,92,231.2,92.8,234.6,87.9z"/>
						<path class="st6" d="M384.6,307.9c-0.6-0.9-1.5-1.6-2.2-2.5c-2.2-3.1-0.3-7.3,1.5-10.7c1.7-3.4,3.1-8,0.2-10.5
							c-2.5-2.2-6.9-0.7-8.6,2.2c-1.7,2.9-1.5,6.6-0.9,9.9s1.6,6.7,1.2,10.1c-0.9,7.5-8.3,12.8-10.3,20.1c-1.1,3.7-0.6,7.7-1,11.5
							s-1.9,8-5.4,9.7c-1.7,0.8-3.6,1-5.4,1.5c-4.7,1.5-8,6-9.2,10.8c-0.5,2.2-0.7,4.5-2.1,6.3c-2.1,2.7-6.1,2.9-9.2,4.4
							c-5.9,2.9-9.1,10.9-15.7,11c-2.7,0.1-5.1,0.3-7.5,1.5c-14.6,7-12.9,3-20.2,2.5c-2.4-0.2-4.8-0.4-7.3-0.5
							c-1.4-2,0.1-4.8,2.1-6.2c2-1.4,4.5-2.1,6.2-3.8c3.9-3.9,2.9-11.8,8-13.9c3.4-1.4,8.2,0.7,10.6-2.2c2.8-3.3-1.5-9.2,1.2-12.5
							c1.9-2.3,5.6-1.7,7.8-3.6c4.2-3.6-1.3-10.6,0.4-15.9c0.5-1.4,1.5-2.7,1.5-4.1c0-3.5-5.1-4.4-8.3-2.8c-3.1,1.6-5.8,4.5-9.3,4.6
							c-7.5,0.3-9.9-11.3-17.1-13.4c-4.7-1.4-11.4,1.1-13.7-3.2c-0.6-1.1-0.6-2.3-0.6-3.5c0.3-5.6,3.5-11,8.4-13.9
							c2-1.2,4.5-2.4,4.6-4.7c0-0.9-0.3-1.7-0.6-2.5c-1.5-4.9,0.8-10.7,5.2-13.3c4.5-2.6,11.5-3.1,12.3-8.2c0.3-2.1-0.7-4.4,0.1-6.4
							c0.8-1.8,2.8-2.6,4.6-3.1c5.7-1.4,11.7-0.7,17.4-2.3c3.5-1,6.7-2.8,10.3-3.8c3.5-0.9,7.7-0.7,10.3,1.9
							c-1.7,1.5,1.4,3.9,3.5,3.4s4.6-1.8,6.4-0.5c1.9,1.5,0.9,4.4,0.4,6.8c-1.4,7.1,5.2,14.6,12.4,14c-0.8-2.2-0.7-4.7,0.4-6.7
							c3,1.3,4.9,4.3,7.4,6.4s6.8,3,8.8,0.3c2.8-3.7-2.3-9.7,0.6-13.4c-3.4,1.7-8-1.2-8-5c0-1.3,0.5-2.5,0.4-3.7s-1.1-2.6-2.3-2.4
							c-2,0.3-1.9,3.7-3.8,4.3c-4.1-2.3-0.6-9.1-3-13.1c-0.8-1.2-2-2.1-2.9-3.3c-1.3-1.7-1.5-4-2.3-6s-2.6-3.9-4.7-3.5
							c-2.5,0.5-3.1,4-2.3,6.4c0.8,2.5,2.5,4.7,2.4,7.3c0,2.6-3.3,5.1-5.1,3.3c-0.5-0.5-0.7-1.2-1-1.8c-0.5-1.5-1.1-3-1.6-4.5
							c-1.2-3.2-2.4-6.6-5.1-8.7c-2.7-2.1-7.2-2.2-9.1,0.6c-1.3,2-1,5.1-3,6.6s-4.9,0.3-7.2,1.1c-2.1,0.7-3.3,2.9-5.2,4
							c-3.3,1.9-8.3-0.9-8.3-4.8c0-2.4,1.5-4.9,0.8-7.2c-0.4-1.4-1.7-2.5-2.6-3.6c-1.6-2.1-2.4-5.3-0.6-7.2c1.8-2.1,5.2-1.7,7.6-0.5
							s4.6,3.2,7.3,3.8c2.7,0.7,6.2-0.8,6.3-3.5c0.1-3.3-4.5-5.5-3.7-8.7c0.5-2,2.8-2.8,4.8-2.8s4.1,0.5,6,0.1
							c5-1.2,6.1-7.7,5.8-12.9c-0.1-1.1-0.1-2.3,0.6-3.1c1-1.1,3-0.8,4,0.2c1.1,1.1,1.5,2.6,2,4c1.4,4,4.2,8.2,8.4,8.9
							c4.2,0.7,8.7-4.5,6-7.8c-0.4-0.5-1-0.9-1.1-1.6c-0.7-2.4,3.8-2.9,4.5-5.3c0.7-2.7-3.5-3.6-5.4-5.6c-3.2-3.5,1-10.7-3-13.1
							c-2.3-1.4-5.4,0.6-6.3,3.1c-0.8,2.6-0.1,5.3,0.6,7.9c0.2,0.8,0.4,1.7,0.1,2.4c-0.8,1.8-3.6,1.1-5-0.2
							c-1.4-1.4-2.7-3.3-4.7-3.2c-2,0-3.6,2.1-5.6,1.9c-1.5-0.2-2.5-1.9-2.6-3.4c-0.5-7.7,13.2-11.1,11.9-18.7
							c-0.7-4.1-5.7-8.1-3.2-11.4c1.9-2.4,6-1,7.8,1.5s2.6,5.7,4.9,7.8c2,1.8,4.9,2.3,7.4,1.6c14.2,19.8,24,42.5,28.7,66.3
							c-0.5,0.1-1,0.3-1.6,0.4c-1.4,0.4-3.2,1.3-2.9,2.8c0.1,0.5,0.5,1,0.6,1.5c0.2,0.9-0.5,1.6-1,2.3c-1.5,1.6-3.7,3.3-5.6,2.2
							c-1.6-0.9-2.1-3.5-3.9-3.9c-1.3-0.2-2.5,1-2.8,2.3s0.1,2.7,0.5,3.9c0.1,0.3,0.2,0.7,0.5,0.9c0.4,0.5,1.2,0.5,1.8,0.8
							c2.5,1,2.7,5.5,5.4,5.7c1.4,0.1,2.5-1.1,3.5-2.1s2.6-1.8,3.7-1c1.2,0.9,0.9,2.9,2.1,3.7c0.8,0.5,1.6,0.2,2.5-0.1
							c2.1,26-1.8,52.8-12.4,78.5c-0.4-1.8-0.1-4,0.5-5.9C385.2,314,386.4,310.5,384.6,307.9z"/>
						<path class="st5" d="M331.6,192.1c3.4,3.5,7.7,2.9,4.6,5.3c-3.1,2.4-4.6-0.7-9.1,3s-7.7,1.7-4.4-3.2
							C326,192.3,328.2,188.6,331.6,192.1z"/>
						<path class="st5" d="M321,174.2c0,0,6.2,1,6.1,4.8c-0.1,3.9,1.3,5,1.3,5c0.8,2.2-2.3,7.1-4.3,2.2c-1.9-4.9-0.6-6.2-5.3-9.1
							C314.2,174.3,321,174.2,321,174.2z"/>
						<path class="st5" d="M317.2,184c1.9,2.9,4.8,1.3,3.9,4.6c-0.9,3.5,0,2.7-4.1,3.9c-4.1,1.1-5.3,0.9-4.2-4.4
							C314,182.8,315.3,181.1,317.2,184z"/>
						<path class="st5" d="M293.1,143.3c2.7,4.5,5.4,4.8,8.1,4.5s2.7-0.1,3,2c0.8,5-2.4,6.9-8.7,3.5c-6.3-3.4-1.5-6.1-6.2-9.3
							C284.6,140.8,290.4,138.8,293.1,143.3z"/>
						<path class="st5" d="M153.5,248.2c-8.7,1.9-4.7-6.4-10.6-5.4c-5.9,1-4.5-7.3-0.6-5.9C148.8,239,162.2,246.2,153.5,248.2z"/>
						<path class="st5" d="M129.4,234.4c-3.4-5-4.5-9-9.4-9.6c-4.9-0.5-3.5-3.3,1.3-2s9,7.4,12.8,10.4
							C137.2,235.8,132.8,239.4,129.4,234.4z"/>
						<path class="st5" d="M109.8,221.4c-3.3-2.8,0-5.5,2.3-1.3C114,223.3,113.2,224.2,109.8,221.4z"/>
						<path class="st5" d="M211.9,180.2c-8.1-1.7-4.7-6.4-9.3-4.8c-4.6,1.6-7.6-0.1-3-3.5c4.6-3.3,6.1-3.7,10.5-2
							C217.7,173,220,182,211.9,180.2z"/>
					</g>
				</g>
			</g>
		</g>
		<ellipse class="st4" cx="226.5" cy="259" rx="170.3" ry="9.2"/>
		<g>
			<path class="st7" d="M56.2,259"/>
		</g>
		<g>
			<path class="st7" d="M396.8,259"/>
		</g>
		<path class="st8" d="M56.2,259c120.1,9.9,271.5,8.3,340.6,0C378,273.5,145.7,274.4,56.2,259z"/>
		<path class="st9" d="M193.3,230.2"/>
		<path class="st0" d="M166.7,39.4c-26.1,20.7-17,33.7,9.3,15.9S213.9,1.9,166.7,39.4z"/>
		<ellipse class="st0" cx="135" cy="68" rx="7.3" ry="7.3"/>
		
			<ellipse transform="matrix(0.9475 -0.3199 0.3199 0.9475 0.6181 119.3503)" class="st0" cx="363.6" cy="57.8" rx="11.6" ry="28.2"/>
		<path class="st1" d="M2.8,164.1h101.1c0,0-2.2-19.4-26.9-10.1c-15-33.1-43.2-26.5-53.4-6.6C9,142.5,2.8,164.1,2.8,164.1z"/>
		<path class="st1" d="M369.5,196.7c-1.2-8.1,7.5-11.2,13-5.2c1.4-4.3,4.6-4,5.2-0.9c7.2-10.4,25.9-12.4,28.5,3.2
			c4.6-4.3,9.2,2.9,9.2,2.9H369.5z"/>
		<path class="st0" d="M352.8,22c0,3.1-2.5,5.5-5.5,5.5c-3.1,0-5.5-2.5-5.5-5.5s2.5-5.5,5.5-5.5C350.3,16.4,352.8,18.9,352.8,22z"/>
		<path class="st0" d="M393,218.7c-12.2,9.7-20.9,28-8.3,21.3C397.3,233.4,413.9,202,393,218.7z"/>
		<path class="st0" d="M34.7,212.2c20,31.6,45.3,24.1,30.2,1.5S11.4,175.5,34.7,212.2z"/>
		<circle class="st0" cx="75.3" cy="239.5" r="3.5"/>
	</g>
	<g>
		<path class="st10" d="M93.3,58.7h123.2c4.5,0,8.2,3.7,8.2,8.2v178.8c0,4.5-3.7,8.2-8.2,8.2H93.3c-4.5,0-8.2-3.7-8.2-8.2V66.8
			C85.1,62.3,88.8,58.7,93.3,58.7z"/>
		<rect x="97.7" y="74.7" class="st11" width="115.7" height="29.8"/>
		<polygon class="st12" points="100.8,79 213.4,79 213.4,74.7 97.7,74.7 97.7,104.5 100.8,104.5 		"/>
		<path class="st13" d="M125.5,123.7H103c-3,0-5.4-2.4-5.4-5.4l0,0c0-3,2.4-5.4,5.4-5.4h22.5c3,0,5.4,2.4,5.4,5.4l0,0
			C130.9,121.3,128.5,123.7,125.5,123.7z"/>
		<path class="st13" d="M166.8,123.7h-22.5c-3,0-5.4-2.4-5.4-5.4l0,0c0-3,2.4-5.4,5.4-5.4h22.5c3,0,5.4,2.4,5.4,5.4l0,0
			C172.1,121.3,169.7,123.7,166.8,123.7z"/>
		<path class="st13" d="M208,123.7h-22.5c-3,0-5.4-2.4-5.4-5.4l0,0c0-3,2.4-5.4,5.4-5.4H208c3,0,5.4,2.4,5.4,5.4l0,0
			C213.4,121.3,211,123.7,208,123.7z"/>
		<path class="st14" d="M111.4,156.2h-1.6c-6.6,0-12-5.4-12-12l0,0c0-6.6,5.4-12,12-12h1.6c6.6,0,12,5.4,12,12l0,0
			C123.4,150.9,118,156.2,111.4,156.2z"/>
		<path class="st14" d="M141.4,156.2h-1.6c-6.6,0-12-5.4-12-12l0,0c0-6.6,5.4-12,12-12h1.6c6.6,0,12,5.4,12,12l0,0
			C153.4,150.9,148,156.2,141.4,156.2z"/>
		<path class="st14" d="M171.4,156.2h-1.6c-6.6,0-12-5.4-12-12l0,0c0-6.6,5.4-12,12-12h1.6c6.6,0,12,5.4,12,12l0,0
			C183.4,150.9,178,156.2,171.4,156.2z"/>
		<path class="st14" d="M111.4,185.9h-1.6c-6.6,0-12-5.4-12-12l0,0c0-6.6,5.4-12,12-12h1.6c6.6,0,12,5.4,12,12l0,0
			C123.4,180.5,118,185.9,111.4,185.9z"/>
		<path class="st14" d="M141.4,185.9h-1.6c-6.6,0-12-5.4-12-12l0,0c0-6.6,5.4-12,12-12h1.6c6.6,0,12,5.4,12,12l0,0
			C153.4,180.5,148,185.9,141.4,185.9z"/>
		<path class="st14" d="M171.4,185.9h-1.6c-6.6,0-12-5.4-12-12l0,0c0-6.6,5.4-12,12-12h1.6c6.6,0,12,5.4,12,12l0,0
			C183.4,180.5,178,185.9,171.4,185.9z"/>
		<path class="st15" d="M208.2,132.2H193c-2.9,0-5.2,2.3-5.2,5.2v7.4v6.1v29.6c0,2.9,2.3,5.2,5.2,5.2h15.2c2.9,0,5.2-2.3,5.2-5.2
			V151v-6.1v-7.4C213.4,134.5,211,132.2,208.2,132.2z"/>
		<path class="st14" d="M111.4,215.5h-1.6c-6.6,0-12-5.4-12-12l0,0c0-6.6,5.4-12,12-12h1.6c6.6,0,12,5.4,12,12l0,0
			C123.4,210.1,118,215.5,111.4,215.5z"/>
		<path class="st14" d="M141.4,215.5h-1.6c-6.6,0-12-5.4-12-12l0,0c0-6.6,5.4-12,12-12h1.6c6.6,0,12,5.4,12,12l0,0
			C153.4,210.1,148,215.5,141.4,215.5z"/>
		<path class="st14" d="M171.4,215.5h-1.6c-6.6,0-12-5.4-12-12l0,0c0-6.6,5.4-12,12-12h1.6c6.6,0,12,5.4,12,12l0,0
			C183.4,210.1,178,215.5,171.4,215.5z"/>
		<path class="st15" d="M201.4,215.5h-1.6c-6.6,0-12-5.4-12-12l0,0c0-6.6,5.4-12,12-12h1.6c6.6,0,12,5.4,12,12l0,0
			C213.4,210.1,208,215.5,201.4,215.5z"/>
		<path class="st14" d="M111.4,245.2h-1.6c-6.6,0-12-5.4-12-12l0,0c0-6.6,5.4-12,12-12h1.6c6.6,0,12,5.4,12,12l0,0
			C123.4,239.8,118,245.2,111.4,245.2z"/>
		<path class="st14" d="M141.4,245.2h-1.6c-6.6,0-12-5.4-12-12l0,0c0-6.6,5.4-12,12-12h1.6c6.6,0,12,5.4,12,12l0,0
			C153.4,239.8,148,245.2,141.4,245.2z"/>
		<path class="st15" d="M171.4,245.2h-1.6c-6.6,0-12-5.4-12-12l0,0c0-6.6,5.4-12,12-12h1.6c6.6,0,12,5.4,12,12l0,0
			C183.4,239.8,178,245.2,171.4,245.2z"/>
		<path class="st13" d="M201.4,245.2h-1.6c-6.6,0-12-5.4-12-12l0,0c0-6.6,5.4-12,12-12h1.6c6.6,0,12,5.4,12,12l0,0
			C213.4,239.8,208,245.2,201.4,245.2z"/>
		<g>
			<path class="st1" d="M114.9,197.2v1.2l-5.9,12.4h-1.9l5.9-12.1l0,0h-6.7v-1.5L114.9,197.2L114.9,197.2z"/>
		</g>
		<g>
			<path class="st1" d="M136,207.3c0-1.7,1-2.9,2.7-3.6v-0.1c-1.5-0.7-2.2-1.9-2.2-3.1c0-2.2,1.8-3.6,4.2-3.6c2.6,0,4,1.7,4,3.4
				c0,1.2-0.6,2.4-2.2,3.2v0.1c1.7,0.7,2.7,1.9,2.7,3.5c0,2.4-2,4-4.6,4C137.8,211,136,209.3,136,207.3z M143.4,207.3
				c0-1.7-1.2-2.5-3-3c-1.6,0.5-2.5,1.5-2.5,2.8c-0.1,1.4,1,2.6,2.7,2.6C142.3,209.7,143.4,208.7,143.4,207.3z M138.3,200.5
				c0,1.4,1,2.1,2.6,2.5c1.2-0.4,2.1-1.2,2.1-2.5c0-1.1-0.6-2.2-2.3-2.2C139.1,198.3,138.3,199.3,138.3,200.5z"/>
		</g>
		<g>
			<path class="st1" d="M145.3,233.1c0,4.6-1.7,7.2-4.7,7.2c-2.7,0-4.5-2.5-4.5-7c0-4.6,2-7.1,4.7-7.1
				C143.6,226.2,145.3,228.8,145.3,233.1z M137.9,233.3c0,3.5,1.1,5.6,2.8,5.6c1.9,0,2.8-2.2,2.8-5.7c0-3.4-0.9-5.6-2.8-5.6
				C139,227.7,137.9,229.6,137.9,233.3z"/>
		</g>
		<g>
			<path class="st1" d="M167.7,209.5c0.4,0,0.9,0,1.5-0.1c1.1-0.1,2.1-0.6,2.9-1.3c0.9-0.8,1.6-2,1.8-3.6h-0.1
				c-0.8,0.9-1.8,1.5-3.2,1.5c-2.5,0-4-1.8-4-4.2c0-2.6,1.9-4.8,4.7-4.8s4.5,2.3,4.5,5.7c0,3-1,5.1-2.3,6.4c-1,1-2.5,1.7-4,1.8
				c-0.7,0.1-1.3,0.1-1.7,0.1L167.7,209.5L167.7,209.5z M168.4,201.7c0,1.7,1,2.9,2.6,2.9c1.2,0,2.2-0.6,2.7-1.4
				c0.1-0.2,0.2-0.4,0.2-0.7c0-2.3-0.9-4.1-2.8-4.1C169.5,198.4,168.4,199.7,168.4,201.7z"/>
		</g>
		<g>
			<path class="st1" d="M111.8,180.6v-3.7h-6.3v-1.2l6.1-8.7h2v8.5h1.9v1.4h-1.9v3.7H111.8z M111.8,175.4v-4.5c0-0.7,0-1.4,0.1-2.1
				h-0.1c-0.4,0.8-0.8,1.4-1.1,2l-3.3,4.6l0,0H111.8z"/>
		</g>
		<g>
			<path class="st1" d="M144.3,168.5h-5.2l-0.5,3.5c0.3,0,0.6-0.1,1.1-0.1c1,0,2.1,0.2,2.9,0.7c1.1,0.6,1.9,1.8,1.9,3.5
				c0,2.7-2.1,4.7-5.1,4.7c-1.5,0-2.7-0.4-3.4-0.8l0.5-1.4c0.6,0.3,1.7,0.8,2.9,0.8c1.7,0,3.2-1.1,3.2-3c0-1.8-1.2-3-3.9-3
				c-0.8,0-1.4,0.1-1.9,0.1l0.9-6.5h6.5v1.5H144.3z"/>
		</g>
		<g>
			<path class="st1" d="M174.4,168.3c-0.4,0-0.9,0-1.4,0.1c-2.9,0.5-4.4,2.6-4.7,4.8h0.1c0.6-0.9,1.8-1.6,3.3-1.6
				c2.4,0,4.1,1.7,4.1,4.4c0,2.5-1.7,4.8-4.5,4.8c-2.9,0-4.8-2.3-4.8-5.8c0-2.7,1-4.8,2.3-6.1c1.1-1.1,2.6-1.8,4.4-2
				c0.5-0.1,1-0.1,1.3-0.1v1.5H174.4z M173.9,176.1c0-1.9-1.1-3.1-2.8-3.1c-1.1,0-2.1,0.7-2.6,1.7c-0.1,0.2-0.2,0.5-0.2,0.8
				c0,2.2,1.1,3.9,3,3.9C172.8,179.4,173.9,178.1,173.9,176.1z"/>
		</g>
		<g>
			<path class="st1" d="M110.1,139.7L110.1,139.7l-2.4,1.3l-0.4-1.4l3-1.6h1.6v13.6h-1.8C110.1,151.6,110.1,139.7,110.1,139.7z"/>
		</g>
		<g>
			<path class="st1" d="M136.2,151.6v-1.1l1.4-1.4c3.5-3.3,5.1-5.1,5.1-7.1c0-1.4-0.7-2.7-2.7-2.7c-1.2,0-2.3,0.6-2.9,1.2l-0.6-1.3
				c0.9-0.8,2.3-1.4,3.9-1.4c2.9,0,4.2,2,4.2,4c0,2.5-1.8,4.5-4.7,7.3l-1.1,1l0,0h6.1v1.5H136.2z"/>
		</g>
		<g>
			<path class="st1" d="M167.1,149.5c0.5,0.3,1.7,0.9,3,0.9c2.4,0,3.1-1.5,3.1-2.6c0-1.9-1.7-2.7-3.5-2.7h-1v-1.4h1
				c1.3,0,3-0.7,3-2.3c0-1.1-0.7-2.1-2.4-2.1c-1.1,0-2.1,0.5-2.7,0.9l-0.5-1.3c0.7-0.5,2.1-1,3.6-1c2.7,0,3.9,1.6,3.9,3.2
				c0,1.4-0.8,2.6-2.5,3.2l0,0c1.7,0.3,3,1.6,3,3.5c0,2.2-1.7,4.1-5,4.1c-1.5,0-2.9-0.5-3.5-0.9L167.1,149.5z"/>
		</g>
		<g>
			<path class="st1" d="M112.2,238.3c0,0.9-0.7,1.6-1.6,1.6s-1.6-0.7-1.6-1.6c0-0.9,0.7-1.6,1.6-1.6
				C111.4,236.6,112.2,237.4,112.2,238.3z"/>
		</g>
		<g>
			<polygon class="st1" points="210.3,159.9 201.7,159.9 201.7,151.3 199.4,151.3 199.4,159.9 190.8,159.9 190.8,162.1 199.4,162.1 
				199.4,170.8 201.7,170.8 201.7,162.1 210.3,162.1 			"/>
		</g>
		<g>
			<polygon class="st1" points="176.3,238.3 171.7,233.7 176.3,229.1 175.1,227.9 170.5,232.5 166,227.9 164.8,229.1 169.4,233.7 
				164.8,238.3 166,239.4 170.5,234.9 175.1,239.4 			"/>
		</g>
		<g>
			<rect x="192.8" y="203" class="st1" width="14.5" height="2.2"/>
		</g>
		<g>
			<rect x="193.3" y="228.7" class="st1" width="14.5" height="2.2"/>
		</g>
		<g>
			<rect x="193.3" y="234.2" class="st1" width="14.5" height="2.2"/>
		</g>
	</g>
	<g>
		<g>
			<path class="st16" d="M320.4,126.7c10.7-3.2,28.4,0,32.4,21.8s8.8,27.4,8.8,27.4s-12.7,3.9-30.2-18.4
				C321.9,145.5,320.4,126.7,320.4,126.7z"/>
			<g>
				<path class="st17" d="M354.4,170.9h0.3c1.4,0,2.9-0.5,3.8-0.8c0.1,0.2,0.1,0.4,0.2,0.5c-0.9,0.3-2.3,0.8-3.7,0.9
					c0.1,1.5,0.6,3.2,1.1,4.5c-0.2,0-0.4-0.1-0.6-0.1c-0.5-1.4-0.9-3.1-1-4.6L354.4,170.9z"/>
				<path class="st17" d="M348.3,164.1l0.1-0.2h0.2c2.4-0.2,5.8-1.3,7.3-1.7c0.1,0.2,0.1,0.4,0.2,0.5c-1.4,0.5-4.8,1.4-7.2,1.7
					c-0.9,2.9-0.6,6.8-0.3,8.7c-0.2-0.1-0.4-0.2-0.6-0.3C347.6,170.7,347.4,167,348.3,164.1z"/>
				<path class="st17" d="M343.8,156.1L343.8,156.1l0.2-0.1c3.1-0.5,7.9-1.8,9.8-2.4c0,0.2,0.1,0.4,0.1,0.5
					c-1.9,0.5-6.6,1.9-9.7,2.4c-3.2,4-4,8.5-4.1,10.5c-0.2-0.2-0.3-0.3-0.5-0.5C339.8,164.3,340.7,160,343.8,156.1z"/>
				<path class="st17" d="M339.5,146.4L339.5,146.4c5.2-0.9,9.9-2.1,12-2.7c0.1,0.2,0.1,0.4,0.2,0.5c-2.1,0.6-6.8,1.9-11.9,2.7
					c-5.3,5.5-7.1,10.2-7.6,11.8c-0.1-0.2-0.3-0.4-0.4-0.5C332.4,156.2,334.3,151.8,339.5,146.4L339.5,146.4z"/>
				<path class="st17" d="M333.8,136.4L333.8,136.4c6.5-0.8,10.6-2.1,12.3-2.7c0.1,0.1,0.3,0.3,0.4,0.4c-1.5,0.6-5.7,2-12.4,2.8
					c-5.1,5.2-7.3,9.7-8,11.5c-0.1-0.2-0.2-0.5-0.3-0.7C326.6,145.7,328.9,141.4,333.8,136.4L333.8,136.4z"/>
				<path class="st17" d="M327.2,129.7L327.2,129.7l0.1-0.1c3.2-0.6,5.9-2.1,7.3-3.1c0.2,0.1,0.5,0.1,0.7,0.2
					c-1.3,0.9-4.2,2.7-7.9,3.4c-2.5,2.3-4.2,5-5.3,7c-0.1-0.3-0.1-0.5-0.2-0.8C323.2,134.4,324.8,131.9,327.2,129.7z"/>
			</g>
			<g class="st18">
				<path class="st19" d="M342.3,152.3c5,12.8,13.6,21.3,19.3,23.7c-0.6,0.2-13.2,3.3-30.2-18.4c-9.5-12.1-11-30.9-11-30.9
					c0.1,0,0.2,0,0.3-0.1C330.3,129.4,337.2,139.2,342.3,152.3z"/>
			</g>
			<g>
				<g>
					<path class="st20" d="M320.4,126.7l0.3-0.1l0,0l0,0c2.7,0.6,5.2,1.9,7.5,3.5c2.2,1.6,4.2,3.6,5.9,5.8c3.5,4.4,6,9.4,8.1,14.5
						c1.9,5.2,4.4,10,7.6,14.5c1.6,2.2,3.3,4.3,5.3,6.2c1.9,1.9,4.1,3.7,6.6,4.9c-2.6-1-4.8-2.7-6.9-4.5s-3.9-3.9-5.6-6.1
						c-3.4-4.4-5.9-9.4-7.9-14.6c-2-5.1-4.5-10-7.8-14.3c-1.6-2.2-3.5-4.2-5.6-5.9s-4.5-3.1-7.1-3.9l0,0L320.4,126.7z"/>
				</g>
			</g>
		</g>
		<g>
			<path class="st6" d="M320.5,126.7c-6.4-23.1-32.4-51.5-76.5-33.8s-59.8,15.2-59.8,15.2s7.4,27.6,67.7,33.8
				C284.7,145.3,320.5,126.7,320.5,126.7z"/>
			<g>
				<path class="st21" d="M201.6,115.3l-0.3-0.5c-1.6-2.6-2.4-5.8-2.9-7.9c-0.4,0.1-0.8,0.1-1.2,0.2c0.4,2,1.2,5.1,2.7,7.8
					c-2.9,1.5-6.5,2.6-9.4,3.2c0.3,0.3,0.6,0.7,1,1c3-0.7,6.7-1.8,9.6-3.5L201.6,115.3z"/>
				<path class="st21" d="M220.9,118.6l0.2-0.3l-0.2-0.3c-2.3-4.6-4.3-12-5.2-15.2c-0.4,0.1-0.8,0.2-1.2,0.3
					c0.8,3.2,2.8,10.3,5.1,15.1c-4.2,4.9-11.6,8.7-15.4,10.5c0.4,0.2,0.9,0.5,1.3,0.7C209.7,127.4,216.8,123.5,220.9,118.6z"/>
				<path class="st21" d="M240.5,117.6l0.1-0.2l-0.1-0.2c-2.6-6.1-5.6-16.3-6.8-20.4c-0.4,0.1-0.8,0.3-1.1,0.4
					c1.2,4.1,4.1,14.1,6.7,20.2c-3.6,10.4-10.9,16.8-14.4,19.5c0.5,0.1,1,0.3,1.5,0.4C230.2,134.3,237.1,127.8,240.5,117.6z"/>
				<path class="st21" d="M263.1,114.3l-0.1-0.2c-4.3-10.2-7.3-20.2-8.6-24.7c-0.4,0.1-0.8,0.2-1.2,0.3c1.3,4.5,4.3,14.4,8.6,24.6
					c-3.9,16-10.4,24.5-12.7,27.2c0.5,0.1,1,0.1,1.5,0.2c2.8-3.3,8.7-11.9,12.5-27.3L263.1,114.3z"/>
				<path class="st21" d="M287.7,113.4l-0.1-0.2c-5.9-12.6-8.2-21.5-9-25.2c-0.4-0.1-0.8-0.1-1.3-0.2c0.7,3.4,2.9,12.6,9.1,25.7
					c-3.7,15.2-9.4,24.3-11.8,27.7c0.5-0.1,1.1-0.2,1.6-0.2c2.7-4.1,7.9-13.1,11.4-27.4L287.7,113.4z"/>
				<path class="st21" d="M307.4,117.8v-0.2l-0.1-0.2c-2.6-6.5-2.9-13.2-2.8-16.8c-0.4-0.4-0.8-0.7-1.2-1.1
					c-0.2,3.4-0.2,10.7,2.8,18.1c-1.3,7.1-4.3,13.3-6.7,17.6c0.6-0.2,1.1-0.4,1.7-0.6C303.5,130.4,306.1,124.5,307.4,117.8z"/>
			</g>
			<g class="st18">
				<path class="st4" d="M249.1,116.1c-28.9,5.6-54.1-0.4-65-7.9c0.4,1.3,8.9,27.7,67.7,33.8c32.9,3.4,68.7-15.2,68.7-15.2
					c0-0.2-0.1-0.4-0.2-0.5C304.3,111.7,278.7,110.4,249.1,116.1z"/>
			</g>
			<g>
				<g>
					<path class="st20" d="M320.5,126.7l-0.2-0.5l0,0c-4.6-3.7-9.8-6.6-15.3-8.4c-5.5-1.9-11.3-2.9-17.1-3.4
						c-11.6-0.9-23.4,0.2-34.9,2.2c-2.9,0.5-5.8,1-8.7,1.5c-2.9,0.4-5.9,0.8-8.9,0.9c-5.9,0.4-11.9,0.4-17.8-0.2
						c-5.9-0.5-11.8-1.6-17.5-3.3c-5.7-1.7-11.3-3.9-16-7.4c2.5,1.6,5.2,2.7,7.9,3.8c1.4,0.5,2.8,1,4.2,1.4l2.1,0.6l2.1,0.5
						c5.7,1.4,11.5,2.2,17.3,2.5s11.7,0.3,17.5-0.2c2.9-0.2,5.8-0.6,8.7-1c2.9-0.5,5.7-1,8.7-1.5c5.8-1,11.7-1.8,17.7-2.1
						c5.9-0.3,11.9-0.3,17.8,0.4c5.9,0.7,11.8,2,17.3,4.2c5.5,2.3,10.7,5.4,14.9,9.5l0,0l0,0L320.5,126.7z"/>
				</g>
			</g>
		</g>
		<g>
			<path class="st6" d="M320.6,126.9c-8.4-14.8-9.8-42.2,21.3-55.6s37.7-22.6,37.7-22.6s10.2,17.6-16.9,51.2
				C348,118.1,320.6,126.9,320.6,126.9z"/>
			<g>
				<path class="st21" d="M374.5,61.2l-0.1-0.4c-0.5-2.1-1.7-4.2-2.6-5.4c0.2-0.2,0.5-0.3,0.7-0.5c0.8,1.2,2,3.1,2.6,5.3
					c2.2-0.7,4.6-2,6.3-3.1c0,0.3,0,0.7,0,1c-1.9,1.2-4.3,2.5-6.6,3.1L374.5,61.2z"/>
				<path class="st21" d="M366.5,72.5h-0.3l-0.1-0.3c-1.2-3.5-3.9-8.2-5.1-10.2c0.3-0.1,0.5-0.3,0.7-0.4c1.2,2,3.8,6.6,5,10.1
					c4.6,0.3,10.2-1.5,13-2.5c-0.1,0.3-0.2,0.7-0.3,1C376.5,71.3,371.1,72.9,366.5,72.5z"/>
				<path class="st21" d="M356.2,81.9l-0.1-0.1l-0.1-0.2c-1.8-4.4-5.4-11-6.9-13.7c0.3-0.1,0.5-0.2,0.8-0.4c1.5,2.6,5,9.1,6.8,13.6
					c7.1,3.4,13.9,3,17.1,2.5c-0.2,0.3-0.3,0.6-0.5,0.9C369.7,85.1,363,85.3,356.2,81.9z"/>
				<path class="st21" d="M343.2,91.7l-0.1-0.1c-3-7.3-6.5-13.8-8.1-16.7c0.2-0.1,0.5-0.3,0.7-0.4c1.6,2.9,5.1,9.4,8.1,16.7
					c10,6,17.6,7,20.1,7.2c-0.2,0.3-0.4,0.5-0.6,0.8c-3.1-0.3-10.4-1.5-20-7.4L343.2,91.7z"/>
				<path class="st21" d="M330.3,103.7l-0.1-0.1c-3.4-9.3-6.7-14.9-8.2-17.2c0.2-0.2,0.3-0.5,0.5-0.7c1.4,2.1,4.9,7.8,8.4,17.5
					c9.5,5.7,17,7.5,19.9,8c-0.3,0.2-0.6,0.5-0.9,0.7c-3.4-0.7-10.6-2.6-19.5-8L330.3,103.7z"/>
				<path class="st21" d="M322.7,115.8l-0.1-0.1v-0.1c-2-4.6-5.2-8.1-7.1-9.8c0-0.4,0-0.7,0.1-1.1c1.8,1.6,5.5,5.3,7.7,10.5
					c4.3,2.9,8.9,4.5,12.2,5.4c-0.4,0.2-0.8,0.4-1.1,0.6C331,120.1,326.7,118.5,322.7,115.8z"/>
			</g>
			<g class="st18">
				<path class="st4" d="M351.1,85.5C368.4,73.7,378,58,379.6,48.7c0.5,0.9,9.5,18.4-16.9,51.1c-14.8,18.3-42.1,27.1-42.1,27.1
					c-0.1-0.1-0.1-0.2-0.2-0.4C321.2,111.2,333.3,97.6,351.1,85.5z"/>
			</g>
			<g>
				<g>
					<path class="st20" d="M320.6,126.9l-0.2-0.3l0,0l0,0c0-4.2,1-8.4,2.7-12.3s4-7.5,6.6-10.8s5.6-6.4,8.7-9.2
						c3.2-2.8,6.5-5.4,9.9-7.8c7-4.6,13.4-10,18.9-16.2c2.8-3.1,5.3-6.5,7.4-10l0.8-1.3l0.7-1.4c0.5-0.9,0.9-1.9,1.4-2.8
						c0.8-1.9,1.6-3.9,2.1-5.9c-0.6,4.2-2.3,8.1-4.3,11.8s-4.5,7.2-7.1,10.5c-2.7,3.3-5.7,6.3-8.8,9.1c-1.6,1.4-3.3,2.7-4.9,4
						l-5.1,3.7c-6.8,4.8-13.3,10.1-18.6,16.5c-2.7,3.2-5.1,6.6-6.8,10.3c-1.8,3.7-3,7.8-3.4,12l0,0L320.6,126.9z"/>
				</g>
			</g>
		</g>
		<path class="st4" d="M316.2,260.1c0,0,3.3-112.6,3.3-132.7c0-1.4,1.5-1.8,1.5,0.2c0,5.1,0.2,120.2,1.4,129.7
			C323.7,263.4,316,267.4,316.2,260.1z"/>
		<path class="st4" d="M317,233.7c-1.7,8.9-22.6,17.2-50.2,21.9c-11.3,1.9-8,3.9,17.3,5.7c50.2,3.4,101.9-3.7,81.6-5.6
			c-19.6-1.9-41.9-13.4-44-21.7C320.2,227.9,317.3,232.2,317,233.7z"/>
	</g>
</g>
</svg>
