<?xml version="1.0" encoding="utf-8"?>
<!-- Generator: Adobe Illustrator 25.1.0, SVG Export Plug-In . SVG Version: 6.00 Build 0)  -->
<svg version="1.1" id="Layer_1" xmlns="http://www.w3.org/2000/svg" xmlns:xlink="http://www.w3.org/1999/xlink" x="0px" y="0px"
	 viewBox="0 0 666.3 353.9" style="enable-background:new 0 0 666.3 353.9;" xml:space="preserve">
<style type="text/css">
	.st0{fill:#C9DEE5;}
	.st1{opacity:0.6;}
	.st2{fill:#FFFFFF;}
	.st3{fill:#D9E8ED;}
	.st4{opacity:0.5;fill:#FFFFFF;}
	.st5{opacity:0.1;}
	.st6{fill:#5196AC;}
	.st7{opacity:0.5;}
	.st8{opacity:0.1;fill:#5196AC;}
	.st9{fill:#69A5B8;}
	.st10{fill:#89B8C7;}
</style>
<g>
	<g>
		<path class="st0" d="M65.7,113.1C92,90.7,123.6-44.4,232,26c56,36.3,150.5-31.2,228.7-7.9c71.8,21.4,88,91.5,81,114.5
			c-14,46.5,20.4,53.9,60.9,73.9c63.5,31.3,16.8,141.4-43.2,141.9c-60,0.5-423.7-1-423.7-1S68.4,342.2,32.1,294
			C-6.9,242.2-2.1,170.9,65.7,113.1z"/>
		<g>
			<g class="st1">
				<g>
					<path class="st2" d="M360.8,208.9c0,0-246.9,53.8-271.6,11.8c-11.5-19.6,42.6-48.7,42.6-48.7s-36,25.6-19.6,35.7
						c30.6,18.8,199.5-23.9,199.5-23.9L360.8,208.9z"/>
					<path class="st2" d="M213.9,239l36.9-5.4c6.1-0.9,12.3-1.7,18.4-2.7c6.1-0.9,12.3-1.8,18.4-2.8c6.1-1,12.3-1.9,18.4-3
						c6.1-0.9,12.2-2.2,18.3-3.2c12.2-2.3,24.3-4.8,36.5-7.4c-11.7,4.4-23.7,7.8-35.8,10.7c-6.1,1.4-12.2,2.7-18.3,3.9
						c-6.1,1.2-12.3,2.2-18.4,3.2c-6.2,0.9-12.3,1.8-18.5,2.6c-3.1,0.4-6.2,0.8-9.3,1.1c-3.1,0.4-6.2,0.7-9.3,0.9
						C238.8,238,226.3,238.9,213.9,239z"/>
					<path class="st2" d="M120.7,188.6c-0.5,0.7-0.9,1.5-1.3,2.2c-0.4,0.8-0.7,1.5-0.9,2.3c-0.2,0.8-0.3,1.6-0.3,2.3
						c0.1,0.7,0.2,1.5,0.5,2.1c0.6,1.3,1.7,2.3,3.1,3c1.3,0.7,2.8,1.2,4.4,1.7c3.1,0.8,6.4,1.2,9.7,1.4c3.3,0.3,6.7,0.3,10,0.3
						c3.4,0,6.7-0.1,10.1-0.2c3.4-0.1,6.8-0.3,10.2-0.4c6.8-0.3,13.6-0.7,20.5-0.8c-6.6,1.8-13.4,3.2-20.2,4.1
						c-1.7,0.3-3.4,0.5-5.1,0.6c-1.7,0.2-3.4,0.4-5.1,0.5c-3.4,0.3-6.9,0.4-10.3,0.5c-6.9-0.1-13.9-0.4-20.8-2.7
						c-1.7-0.7-3.4-1.3-4.9-2.5c-1.5-1.1-2.9-2.6-3.5-4.6c-0.6-2-0.2-4,0.6-5.6C118.2,191.1,119.4,189.7,120.7,188.6z"/>
				</g>
			</g>
			<g>
				<g>
					<g>
						<path class="st3" d="M398.6,220.7c-1.9-2.2-27.8-20.3-29.8-21.6l4.4-0.8C373.3,198.3,397,218.5,398.6,220.7z"/>
						<path class="st4" d="M398.6,220.7c-1.9-2.2-27.8-20.3-29.8-21.6l4.4-0.8C373.3,198.3,397,218.5,398.6,220.7z"/>
						<path class="st3" d="M398.7,220.9C398.7,220.9,398.7,220.9,398.7,220.9c0,0,0,0.1,0,0.1c-0.2,0.5-2,0.9-4,1.1c0,0,0,0-0.1,0
							c-2.4,0.3-5.1,0.4-5.6,0.1c-0.6-0.4-19.3-9.8-30.8-15.5c-0.2-0.1-0.3-0.1-0.4-0.2c0,0-0.1,0-0.1,0h0v0
							c-0.6-0.3-1.1-0.5-1.6-0.8c-1.9-1-3.6-1.8-4.7-2.3c-1.2-0.6-1.8-0.9-1.8-0.9l19.3-3.3c1.1,0.8,9.9,6.9,17.6,12.5
							c0.3,0.2,0.5,0.4,0.8,0.6c0.7,0.5,1.4,1,2.1,1.5c4.7,3.4,8.5,6.3,9.2,7.1C398.7,220.7,398.7,220.8,398.7,220.9
							C398.7,220.8,398.7,220.8,398.7,220.9z"/>
						<g class="st5">
							<path class="st6" d="M398.7,220.9C398.7,220.9,398.7,220.9,398.7,220.9c0,0,0,0.1,0,0.1c-0.2,0.5-2,0.9-4,1.1c0,0,0,0-0.1,0
								c-2.4,0.3-5.1,0.4-5.6,0.1c-0.6-0.4-19.8-10-31.2-15.7c1.9,0.9,26.5,12.8,31.5,7.1c4.7,3.4,8.5,6.3,9.2,7.1
								C398.7,220.7,398.7,220.8,398.7,220.9C398.7,220.8,398.7,220.8,398.7,220.9z"/>
						</g>
					</g>
					<g>
						<g>
							<g>
								<path class="st3" d="M652.6,242L652.6,242c0,2.6-14.2,3.4-16.1,2.9c-2.1-0.6-156.7-61.4-156.7-61.4l56.9-22.5
									c0.4,0.3,1,0.7,1.6,1.1c0.2,0.2,0.5,0.3,0.7,0.5c10.5,7.3,41.8,29,69.1,48.1c0.5,0.4,1.1,0.8,1.6,1.1c0.7,0.5,1.4,1,2.2,1.5
									C630.9,226.5,647.3,238.1,652.6,242z"/>
								<path class="st3" d="M652.6,242c-13.9-10.3-104.2-72.9-116-81.1l7.2-2.9c0,0,105.2,80,108.4,83.2
									C652.5,241.5,652.6,241.8,652.6,242z"/>
								<path class="st4" d="M652.6,242c-13.9-10.3-104.2-72.9-116-81.1l7.2-2.9c0,0,105.2,80,108.4,83.2
									C652.5,241.5,652.6,241.8,652.6,242z"/>
								<g class="st7">
									<path class="st8" d="M652.6,242L652.6,242c0,2.6-14.2,3.4-16.1,2.9c-2.1-0.6-156.7-61.4-156.7-61.4l56.9-22.5
										c0,0-14.1,16.1,19.3,40.8c22.8,16.9,47,20.4,56,11.5C630.9,226.5,647.3,238.1,652.6,242z"/>
								</g>
							</g>
							<path class="st3" d="M523.7,203.4c-4.4,2.1-9.2,3.8-9.5-0.6c-0.1-1.8,1.3-3.7,8.3-7.1c1.7-0.8,5.7-2.6,6.9,1.1
								C530.6,200.3,525.4,202.6,523.7,203.4z"/>
							<path class="st8" d="M523.7,203.4c-4.4,2.1-9.2,3.8-9.5-0.6c-0.1-1.8,1.3-3.7,8.3-7.1c1.7-0.8,5.7-2.6,6.9,1.1
								C530.6,200.3,525.4,202.6,523.7,203.4z"/>
							<path class="st3" d="M559.6,218.1c-4.4,2.1-9.2,3.8-9.5-0.6c-0.1-1.8,1.3-3.7,8.3-7.1c1.7-0.8,5.7-2.6,6.9,1.1
								C566.4,215,561.2,217.3,559.6,218.1z"/>
							<path class="st8" d="M559.6,218.1c-4.4,2.1-9.2,3.8-9.5-0.6c-0.1-1.8,1.3-3.7,8.3-7.1c1.7-0.8,5.7-2.6,6.9,1.1
								C566.4,215,561.2,217.3,559.6,218.1z"/>
							<path class="st3" d="M595.5,232.8c-4.4,2.1-9.2,3.8-9.5-0.6c-0.1-1.8,1.3-3.7,8.3-7.1c1.7-0.8,5.7-2.6,6.9,1.1
								C602.3,229.6,597.1,231.9,595.5,232.8z"/>
							<path class="st8" d="M595.5,232.8c-4.4,2.1-9.2,3.8-9.5-0.6c-0.1-1.8,1.3-3.7,8.3-7.1c1.7-0.8,5.7-2.6,6.9,1.1
								C602.3,229.6,597.1,231.9,595.5,232.8z"/>
						</g>
						<g>
							<path class="st3" d="M583.7,194.2c-4.3,7.7-14.1,10.5-20.3,12.9c-16.5,6.6-28.5,10.3-34.4-4.7c-0.8-1.9-1.2-3.7-1.3-5.4
								c-1-11.3,10.7-16.9,16.7-20.1c0,0,0,0,0,0c7.2-3.8,12.2-6.2,16-7.8c6.2-2.6,8.9-2.9,11.7-3c3.3-0.1,10.9,0.7,13.3,14.5
								C586.5,186.4,585.7,190.8,583.7,194.2z"/>
							<g>
								<path class="st9" d="M583.9,183.4c0,8.4-5.3,15.2-11.8,15.2c-6.5,0-11.8-6.8-11.8-15.2c0-8.4,5.3-15.2,11.8-15.2
									C578.7,168.2,583.9,175,583.9,183.4z"/>
								<path class="st10" d="M582.6,183.4c0,7.4-4.6,13.5-10.4,13.5c-5.7,0-10.4-6-10.4-13.5s4.7-13.5,10.4-13.5
									C577.9,170,582.6,176,582.6,183.4z"/>
							</g>
						</g>
					</g>
					<g>
						<path class="st3" d="M337.6,179.4l-2.7,1l-6.1,2.2c-5.5-2.4-13.1-5.6-21.2-9.2c-20.5-8.8-44.9-19.2-49.5-20.8
							c0.2,0,0.4,0.1,0.6,0.2c0.2,0,0.3,0.1,0.5,0.2c0.2,0.1,0.5,0.1,0.7,0.2c0.1,0,0.3,0.1,0.4,0.1c0.5,0.2,1,0.3,1.6,0.5
							c0.5,0.2,1.1,0.4,1.7,0.5c1.4,0.4,2.9,1,4.7,1.5c0.5,0.2,1.1,0.4,1.6,0.5c0.5,0.2,1,0.3,1.5,0.5c0.3,0.1,0.5,0.2,0.8,0.3
							c0.8,0.3,1.7,0.6,2.5,0.8c0.6,0.2,1.1,0.4,1.7,0.6c6.6,2.2,14.2,4.8,21.8,7.3l2.1,0.7c2.7,0.9,5.5,1.9,8.1,2.7
							c5,1.7,9.8,3.3,14,4.7c0.7,0.2,1.3,0.5,2,0.7c2.3,0.8,4.3,1.5,6.1,2.1l0,0c0.5,0.2,1.1,0.4,1.6,0.5c0.3,0.1,0.5,0.2,0.7,0.2
							c0.1,0,0.2,0.1,0.4,0.1C336,178.9,337.6,179.4,337.6,179.4z"/>
						<path class="st4" d="M337.6,179.4l-2.7,1l-6.1,2.2c-5.5-2.4-13.1-5.6-21.2-9.2c-20.5-8.8-44.9-19.2-49.5-20.8
							c0.2,0,0.4,0.1,0.6,0.2c0.2,0,0.3,0.1,0.5,0.2c0.2,0.1,0.5,0.1,0.7,0.2c0.1,0,0.3,0.1,0.4,0.1c0.5,0.2,1,0.3,1.6,0.5
							c0.5,0.2,1.1,0.4,1.7,0.5c1.4,0.4,2.9,1,4.7,1.5c0.5,0.2,1.1,0.4,1.6,0.5c0.5,0.2,1,0.3,1.5,0.5c0.3,0.1,0.5,0.2,0.8,0.3
							c0.8,0.3,1.7,0.6,2.5,0.8c0.6,0.2,1.1,0.4,1.7,0.6c6.6,2.2,14.2,4.8,21.8,7.3l2.1,0.7c2.7,0.9,5.5,1.9,8.1,2.7
							c5,1.7,9.8,3.3,14,4.7c0.7,0.2,1.3,0.5,2,0.7c2.3,0.8,4.3,1.5,6.1,2.1l0,0c0.5,0.2,1.1,0.4,1.6,0.5c0.3,0.1,0.5,0.2,0.7,0.2
							c0.1,0,0.2,0.1,0.4,0.1C336,178.9,337.6,179.4,337.6,179.4z"/>
						<g>
							<path class="st3" d="M328.8,182.6l-16.4,6c0,0-36.7-17-58.6-27.7c-0.2-0.1-0.2-0.1-0.2-0.1c-0.1,0-0.2-0.1-0.3-0.1
								c-2.3-1.1-4.4-2.2-6.3-3.1c-5.7-2.8-9.2-4.8-9.1-5c0.6-1.2,14.2-1.5,19.7,0c0,0,0.1,0,0.1,0c0.1,0,0.2,0.1,0.4,0.1
								c4.5,1.5,27.4,11.3,47.5,19.9c0.2,0.1,0.3,0.1,0.5,0.2c0.5,0.2,1.1,0.5,1.6,0.7C315.7,177,323.3,180.2,328.8,182.6z"/>
							<g class="st5">
								<path class="st6" d="M328.8,182.6l-16.4,6c0,0-36.7-17-58.6-27.7c3.6,1.5,40.7,17.9,49.9,15.6c2.2-0.5,3.4-1.8,3.9-3.1
									C315.7,177,323.3,180.2,328.8,182.6z"/>
							</g>
						</g>
					</g>
					<g>
						<path class="st3" d="M371,159.2l-39.9,19.2c0,0,0.4-34.2,0.7-58.7c0-0.8,0-1.7,0-2.5c0-0.7,0-1.3,0-2
							c0.1-8.4,0.2-15.2,0.2-18.3c0.1-9.9,1.2-11.9,3.8-10.3c2.6,1.6,14.3,11.7,17.8,16.2c2.9,3.7,9.2,26.1,13.4,41.6
							c0,0.1,0.1,0.3,0.1,0.4c0.2,0.9,0.5,1.8,0.7,2.6C369.8,154.3,371,159.2,371,159.2z"/>
						<g class="st5">
							<path class="st6" d="M371,159.2l-39.9,19.2c0,0,0.4-34.2,0.7-58.7c5.9,13.1,17.5,31,36.1,27.7
								C369.8,154.3,371,159.2,371,159.2z"/>
						</g>
					</g>
					<g>
						<g>
							<path class="st3" d="M303.3,199.3c-4.1-10.3,13.3-19.6,33.1-28.5c19.8-8.9,214.7-94.8,243-102.5s61.2,2.8,66.7,19
								c8.4,24.2-26.8,44.5-153.1,96.9c-16.5,6.9-90.6,24.6-132.2,24.8C316.3,209.1,305.3,204.3,303.3,199.3z"/>
							<path class="st4" d="M303.3,199.3c-4.1-10.3,13.3-19.6,33.1-28.5c19.8-8.9,214.7-94.8,243-102.5s61.2,2.8,66.7,19
								c8.4,24.2-26.8,44.5-153.1,96.9c-16.5,6.9-90.6,24.6-132.2,24.8C316.3,209.1,305.3,204.3,303.3,199.3z"/>
							<path class="st8" d="M493,184.2c-16.6,6.9-90.6,24.6-132.2,24.8c-44.5,0.1-55.5-4.6-57.5-9.6c-2.1-5.4,1.6-10.5,8.5-15.4
								c0,1,0.1,2,0.5,3c1.8,4.6,11.8,8.9,52.2,8.7c37.8-0.1,92.1-30.7,107.1-36.9c114.6-47.5,159.3-51.5,151.7-73.4
								c-3.3-9.6-17.2-17-33.6-19c25.4-3,51.4,6.8,56.3,21C654.5,111.5,619.3,131.8,493,184.2z"/>
						</g>
						<g>
							<g>
								<polygon class="st10" points="365.1,165.5 369.6,163.5 369.6,170.1 365.1,172 								"/>
								<polygon class="st10" points="373.3,161.9 378.1,159.8 378.1,166.4 373.3,168.5 								"/>
								<polygon class="st10" points="381.8,158.3 386.6,156.2 386.6,162.8 381.8,164.8 								"/>
								<polygon class="st10" points="390.2,154.6 395,152.5 395,159.1 390.2,161.2 								"/>
								<polygon class="st10" points="398.7,150.9 403.5,148.8 403.5,155.4 398.7,157.5 								"/>
								<polygon class="st10" points="407.2,147.2 412,145.2 412,151.8 407.2,153.8 								"/>
								<polygon class="st10" points="415.7,143.6 420.5,141.5 420.5,148.1 415.7,150.2 								"/>
								<polygon class="st10" points="424.2,139.9 428.9,137.8 428.9,144.4 424.2,146.5 								"/>
								<polygon class="st10" points="432.6,136.2 437.4,134.2 437.4,140.8 432.6,142.8 								"/>
								<polygon class="st10" points="441.1,132.6 445.9,130.5 445.9,137.1 441.1,139.2 								"/>
								<polygon class="st10" points="449.6,128.9 454.4,126.8 454.4,133.4 449.6,135.5 								"/>
								<polygon class="st10" points="458.1,125.2 462.8,123.2 462.8,129.7 458.1,131.8 								"/>
								<polygon class="st10" points="466.5,121.6 471.3,119.5 471.3,126.1 466.5,128.2 								"/>
								<polygon class="st10" points="475,117.9 479.8,115.8 479.8,122.4 475,124.5 								"/>
								<polygon class="st10" points="483.5,114.2 488.3,112.2 488.3,118.7 483.5,120.8 								"/>
								<polygon class="st10" points="492,110.6 496.7,108.5 496.7,115.1 492,117.1 								"/>
								<polygon class="st10" points="500.4,106.9 505.2,104.8 505.2,111.4 500.4,113.5 								"/>
								<polygon class="st10" points="508.9,103.2 513.7,101.1 513.7,107.7 508.9,109.8 								"/>
								<polygon class="st10" points="517.4,99.6 522.2,97.5 522.2,104.1 517.4,106.1 								"/>
								<polygon class="st10" points="525.9,95.9 530.6,93.8 530.6,100.4 525.9,102.5 								"/>
								<polygon class="st10" points="534.3,92.2 539.1,90.1 539.1,96.7 534.3,98.8 								"/>
								<polygon class="st10" points="547.6,86.5 547.6,93.1 542.8,95.1 542.8,88.5 								"/>
								<polygon class="st10" points="556.1,82.8 556.1,89.4 551.3,91.5 551.3,84.9 								"/>
								<polygon class="st10" points="564.5,79.1 564.5,85.7 559.8,87.8 559.8,81.2 								"/>
								<polygon class="st10" points="573,75.5 573,82.1 568.2,84.1 568.2,77.5 								"/>
							</g>
							<g>
								<path class="st10" d="M595.2,72.8c2.6-2.1,5.7-3.3,8.9-4.1V73C601.2,72.9,598.3,72.8,595.2,72.8z"/>
								<path class="st10" d="M614.5,67.6v6.1c-2.2-0.2-4.5-0.3-6.7-0.4v-5.3C610,67.6,612.2,67.5,614.5,67.6z"/>
								<path class="st10" d="M635.8,76.1c-1.9,0-3.6-0.4-5.3-0.6c-1.7-0.2-3.4-0.5-5.1-0.7c-2.4-0.4-4.8-0.6-7.2-0.9v-6
									c2.9,0.4,5.8,1.2,8.5,2.3c1.7,0.6,3.3,1.6,4.9,2.5c0.8,0.4,1.5,1,2.2,1.6C634.4,74.9,635.1,75.5,635.8,76.1z"/>
							</g>
						</g>
					</g>
					<g>
						<g>
							<path class="st3" d="M483.5,129.8l-56.2,27c0,0-89.3-47.9-153.4-82.8c-0.1,0-0.1-0.1-0.1-0.1l0,0
								c-34.2-18.7-60.3-33.2-59.9-33.7c1.1-1.5,18.3-1.3,25.1-0.4c0.8,0.1,1.5,0.2,1.9,0.4c2.9,0.8,103.9,38.2,174.7,64.5
								C454,118.9,483.5,129.8,483.5,129.8z"/>
							<g class="st5">
								<path class="st6" d="M483.5,129.8l-56.2,27c0,0-89.3-47.9-153.4-82.8c5,2.5,119.9,60.4,134.9,51.7
									c5.7-3.3,7.1-11.7,6.8-21.1C454,118.9,483.5,129.8,483.5,129.8z"/>
							</g>
							<path class="st3" d="M491.7,126.1l-16.7,8c-42.7-17.9-220.2-88.1-235.1-94c-0.2-0.1-0.3-0.1-0.5-0.2c-0.1,0-0.3-0.1-0.4-0.1
								c-0.1,0-0.1,0-0.1,0c0.8,0.1,1.5,0.2,1.9,0.4C245.4,41.4,491.7,126.1,491.7,126.1z"/>
							<path class="st4" d="M491.7,126.1l-16.7,8c-42.7-17.9-220.2-88.1-235.1-94c-0.2-0.1-0.3-0.1-0.5-0.2c-0.1,0-0.3-0.1-0.4-0.1
								c-0.1,0-0.1,0-0.1,0c0.8,0.1,1.5,0.2,1.9,0.4C245.4,41.4,491.7,126.1,491.7,126.1z"/>
							<path class="st3" d="M371.4,127.4c-5.5,2.7-11.5,4.8-11.9-0.8c-0.2-2.3,1.6-4.7,10.4-8.9c2.1-1,7.1-3.2,8.6,1.4
								C379.9,123.5,373.4,126.4,371.4,127.4z"/>
							<path class="st8" d="M371.4,127.4c-5.5,2.7-11.5,4.8-11.9-0.8c-0.2-2.3,1.6-4.7,10.4-8.9c2.1-1,7.1-3.2,8.6,1.4
								C379.9,123.5,373.4,126.4,371.4,127.4z"/>
							<path class="st3" d="M323.8,103.4c-5.5,2.7-11.5,4.8-11.9-0.8c-0.2-2.3,1.6-4.7,10.4-8.9c2.1-1,7.1-3.2,8.6,1.4
								C332.4,99.5,325.9,102.4,323.8,103.4z"/>
							<path class="st8" d="M323.8,103.4c-5.5,2.7-11.5,4.8-11.9-0.8c-0.2-2.3,1.6-4.7,10.4-8.9c2.1-1,7.1-3.2,8.6,1.4
								C332.4,99.5,325.9,102.4,323.8,103.4z"/>
							<path class="st3" d="M276.1,79.1c-5.1,2.5-10.7,4.4-11.1-0.7c-0.2-2.1,1.5-4.4,9.7-8.3c1.9-0.9,6.6-3,8,1.3
								C284.1,75.4,278.1,78.1,276.1,79.1z"/>
							<path class="st8" d="M276.1,79.1c-5.1,2.5-10.7,4.4-11.1-0.7c-0.2-2.1,1.5-4.4,9.7-8.3c1.9-0.9,6.6-3,8,1.3
								C284.1,75.4,278.1,78.1,276.1,79.1z"/>
						</g>
						<g>
							<path class="st3" d="M442.3,122c-4.3,7.7-14.1,10.5-20.3,12.9c-16.5,6.6-28.5,10.3-34.4-4.7c-0.8-1.9-1.2-3.7-1.3-5.4
								c-1-11.3,10.7-16.9,16.7-20.1c0,0,0,0,0,0c7.2-3.8,12.2-6.2,16-7.8c6.2-2.6,8.9-2.9,11.7-3c3.3-0.1,10.9,0.7,13.3,14.5
								C445.1,114.2,444.2,118.5,442.3,122z"/>
							<g>
								<ellipse class="st9" cx="430.7" cy="111.2" rx="11.8" ry="15.2"/>
								<path class="st10" d="M441.1,111.2c0,7.4-4.6,13.5-10.4,13.5c-5.7,0-10.4-6-10.4-13.5c0-7.4,4.6-13.5,10.4-13.5
									C436.5,97.8,441.1,103.8,441.1,111.2z"/>
							</g>
						</g>
					</g>
					<path class="st3" d="M263.5,154.5c-0.6-0.2-1.1-0.4-1.7-0.5C262.4,154.1,263,154.3,263.5,154.5z"/>
				</g>
			</g>
		</g>
	</g>
	<path class="st2" d="M153.1,67.6c-0.9,0-1.8,0.1-2.6,0.2c-2.9-8.3-10.8-14.2-20-14.2c-9.9,0-18.1,6.7-20.5,15.8c-0.2,0-0.5,0-0.7,0
		c-9.1,0-16.4,7.3-16.4,16.4c0,9.1,7.3,16.4,16.4,16.4c3.5,0,6.8-1.1,9.4-3c3.1,0.8,7.1,1.2,11.5,1.2c6.2,0,11.6-0.9,14.7-2.3
		c2.4,1.4,5.3,2.2,8.3,2.2c9.1,0,16.4-7.3,16.4-16.4S162.2,67.6,153.1,67.6z"/>
	<path class="st2" d="M510.4,299.7c-0.6,0-1.2,0.1-1.8,0.1c-2-5.8-7.6-10-14.1-10c-6.9,0-12.8,4.7-14.4,11.1c-0.2,0-0.3,0-0.5,0
		c-6.4,0-11.5,5.2-11.5,11.5c0,6.4,5.2,11.5,11.5,11.5c2.5,0,4.8-0.8,6.6-2.1c2.2,0.5,5,0.9,8.1,0.9c4.3,0,8.1-0.6,10.3-1.6
		c1.7,1,3.7,1.6,5.8,1.6c6.4,0,11.5-5.2,11.5-11.5S516.7,299.7,510.4,299.7z"/>
	<path class="st2" d="M585.9,282.2c-1,0-2,0.1-3,0.2c-3.3-9.6-12.5-16.5-23.3-16.5c-11.5,0-21.1,7.8-23.8,18.4c-0.3,0-0.5,0-0.8,0
		c-10.5,0-19,8.5-19,19s8.5,19,19,19c4.1,0,7.9-1.3,11-3.5c3.6,0.9,8.2,1.4,13.4,1.4c7.2,0,13.5-1,17-2.6c2.8,1.7,6.1,2.6,9.6,2.6
		c10.5,0,19-8.5,19-19C604.9,290.7,596.4,282.2,585.9,282.2z"/>
	<path class="st2" d="M193.7,281.5c-1.1,0-2.2,0.1-3.2,0.3c-3.5-10.2-13.2-17.5-24.6-17.5c-12.1,0-22.3,8.3-25.2,19.5
		c-0.3,0-0.6,0-0.8,0c-11.1,0-20.2,9-20.2,20.2c0,11.1,9,20.2,20.2,20.2c4.3,0,8.3-1.4,11.6-3.7c3.8,0.9,8.7,1.5,14.1,1.5
		c7.6,0,14.2-1.1,18-2.8c3,1.7,6.5,2.8,10.2,2.8c11.1,0,20.2-9,20.2-20.2C213.9,290.6,204.9,281.5,193.7,281.5z"/>
	<path class="st2" d="M224,308.1c-0.4,0-0.8,0-1.2,0.1c-1.3-3.8-5-6.6-9.3-6.6c-4.6,0-8.4,3.1-9.5,7.3c-0.1,0-0.2,0-0.3,0
		c-4.2,0-7.6,3.4-7.6,7.6s3.4,7.6,7.6,7.6c1.6,0,3.1-0.5,4.4-1.4c1.4,0.4,3.3,0.6,5.3,0.6c2.8,0,5.3-0.4,6.8-1c1.1,0.7,2.4,1,3.8,1
		c4.2,0,7.6-3.4,7.6-7.6C231.6,311.4,228.2,308.1,224,308.1z"/>
	<path class="st2" d="M272,296.8c-0.4,0-0.8,0-1.2,0.1c-1.3-3.8-5-6.6-9.3-6.6c-4.6,0-8.4,3.1-9.5,7.3c-0.1,0-0.2,0-0.3,0
		c-4.2,0-7.6,3.4-7.6,7.6s3.4,7.6,7.6,7.6c1.6,0,3.1-0.5,4.4-1.4c1.4,0.4,3.3,0.6,5.3,0.6c2.8,0,5.3-0.4,6.8-1c1.1,0.7,2.4,1,3.8,1
		c4.2,0,7.6-3.4,7.6-7.6C279.6,300.2,276.2,296.8,272,296.8z"/>
</g>
</svg>
