<?xml version="1.0" encoding="utf-8"?>
<!-- Generator: Adobe Illustrator 25.1.0, SVG Export Plug-In . SVG Version: 6.00 Build 0)  -->
<svg version="1.1" id="Layer_1" xmlns="http://www.w3.org/2000/svg" xmlns:xlink="http://www.w3.org/1999/xlink" x="0px" y="0px"
	 viewBox="0 0 906.6 906.6" style="enable-background:new 0 0 906.6 906.6;" xml:space="preserve">
<style type="text/css">
	.st0{fill:#4C494B;}
</style>
<g id="Layer_2_1_">
	<g id="Layer_1-2">
		<path class="st0" d="M453.3,0C203,0,0,203,0,453.3c-0.1,85.9,24.3,170,70.3,242.6c14.7-1.2,29.3-2,44-3.2
			c19.5-1.6,38.7-4.8,57.1-12.1c21.4-8.5,39.1-22.1,54.4-39c16.4-18.3,28.5-39,34.8-63c5.5-20.7,6.4-41.8,5.3-63
			c-1-17.9-2.5-35.8-3.6-53.6c-1.3-22.6-0.9-45,5.6-67c7.4-24.7,21.6-44.8,40.7-61.7c9.2-8.4,19.9-15,31.5-19.6
			c22-8.5,43.8-6.7,65.2,2.1c18.6,7.7,34.6,19.3,48.9,33.2c37.6,36.9,68.4,80,91,127.5c13.5,28.1,23.1,57.4,27,88.5
			c5.9,47-3.2,90.7-29.8,130.3c-5.3,7.9-11.7,15-17.6,22.6c-0.8,1-1.5,2.1-2.2,3.1l-12.3,12.3c-4.4,3.8-8.7,7.6-13.1,11.4
			c-22.4,19.5-47.4,35.9-74.1,48.9c-27.6,13.5-56.7,23-85.6,33c-24.8,8.5-49.6,17.2-73.9,26.8c-4.4,1.8-8.7,3.6-13,5.5
			c62.9,31.5,132.4,47.9,202.7,47.8c250.3,0,453.3-202.9,453.3-453.3S703.6,0,453.3,0z M435.6,263.2c-11.9-8.8-18.1-21.2-20.4-35.6
			c-2.9-18.3,0.6-35.7,8-52.4c10.8-24.6,26.8-45.1,49-60.4c13-9,27.3-14.9,43.4-15.1c28.2-0.3,48,17.9,50.3,46
			c1.8,22.1-4.5,42.2-14.9,61.2c-6.9,12.6-16,23.6-26.6,34c-12.9,12-27.2,22.5-44.9,27.7C464.1,273.2,449.1,273.2,435.6,263.2z
			 M556,351.3c-17.2-2.2-29.2-14.3-31.5-31.6s2.9-32.9,12.2-47.2c3.5-5.4,7.8-10.2,9.9-13c14.6-14,28.8-22.9,46.3-24.5
			c6.1-0.5,12.2,0,18.1,1.4c13.1,2.9,20.4,11.8,23.1,24.7c3.3,15.8,0,30.7-7,44.9c-9.9,20.2-25,34.9-46.5,42.5
			C572.8,351.3,564.3,352.3,556,351.3z M589.7,406.2c-0.2-11.1,3.8-21,9.8-30.1c10.2-15.3,23.4-27.1,41-33.2
			c5.9-2.1,12.2-2.9,18.4-2.2c12.3,1.5,20.9,9.6,22.7,21.9c1.8,12-2.2,22.7-8.3,32.7c-3.6,5.8-8.1,11-12.2,16.5
			c-10.7,9.6-22.2,17.6-36.5,20.1c-5,0.9-10,0.8-15-0.1C597.3,429.2,589.9,419.4,589.7,406.2L589.7,406.2z M681.7,531.7
			c-1,9.6-5.3,18.5-12.2,25.3c-7.5,7.5-15.5,12-25.1,13.4c-1.5,0.2-3,0.3-4.5,0.3c-10.5-0.2-16.9-6.4-17-16.9
			c-0.1-11.1,4.6-20.3,12.1-28.2c7.2-7.5,15.8-12.5,26.3-13.6C674.7,510.5,682.8,518.4,681.7,531.7L681.7,531.7z M687.7,481.5
			c-11.7,11.5-25.5,19.2-42.5,19.3c-6.7,0-13.2-1.5-19.2-4.4c-7-3.3-9.8-8.9-9.9-16.2c-0.1-8.4,3.5-15.6,8.4-22.1
			c1.5-2,3.2-3.8,4.1-4.9c13.7-13.4,28.8-20.2,47.3-17.2c5.8,1,11.4,2.9,15.7,6.8c2.3,2.2,3.9,5,4.7,8
			C699.4,462.6,696,473.2,687.7,481.5L687.7,481.5z"/>
	</g>
</g>
</svg>
