<svg xmlns="http://www.w3.org/2000/svg" viewBox="0 0 328.01 184.22"><defs><style>.cls-1{fill:#bfc9d1;}.cls-2{fill:#a0aebb;}.cls-3{fill:#8e9fae;}.cls-4{fill:#d7dde2;}</style></defs><g id="Layer_2" data-name="Layer 2"><g id="Layer_1-2" data-name="Layer 1"><path class="cls-1" d="M111.11,50.21V101H12.27A110.65,110.65,0,0,1,0,50.21Z"/><rect class="cls-1" x="20.3" y="162.7" width="181.61" height="8.33"/><path class="cls-2" d="M73.68,120.5a49.46,49.46,0,0,0-6.63,8.88c-2.15-5.46-5.89-11.67-11.7-18.63-5.8,7-9.54,13.17-11.69,18.63A49.48,49.48,0,0,0,37,120.5c-10.18,13.55-10.9,36.85,12.45,36.85a27.31,27.31,0,0,0,5.88-.64,27.45,27.45,0,0,0,5.88.64C84.59,157.35,83.87,134.05,73.68,120.5Z"/><path class="cls-2" d="M129.44,120.5a49,49,0,0,0-6.64,8.88c-2.15-5.46-5.89-11.67-11.7-18.63-5.8,7-9.54,13.17-11.68,18.63a50,50,0,0,0-6.65-8.88c-10.18,13.55-10.89,36.85,12.45,36.85a27.31,27.31,0,0,0,5.88-.64,27.52,27.52,0,0,0,5.88.64C140.34,157.35,139.62,134.05,129.44,120.5Z"/><path class="cls-2" d="M185.19,120.5a49.48,49.48,0,0,0-6.64,8.88c-2.15-5.46-5.89-11.67-11.69-18.63-5.8,7-9.55,13.17-11.69,18.63a49.48,49.48,0,0,0-6.64-8.88c-10.19,13.55-10.9,36.85,12.45,36.85a27.45,27.45,0,0,0,5.88-.64,27.45,27.45,0,0,0,5.88.64C196.09,157.35,195.37,134.05,185.19,120.5Z"/><path class="cls-1" d="M290.31,5H222.8l-17,45.26h-94.7V101h98.83a110.53,110.53,0,0,0,12.27-50.81l11.26-32.32h56.84Z"/><path class="cls-3" d="M252.61,22.84h64a11.42,11.42,0,1,0,0-22.84h-64Z"/><path class="cls-4" d="M67.2,140.49a11.65,11.65,0,1,1-11.65-11.65A11.65,11.65,0,0,1,67.2,140.49Z"/><path class="cls-4" d="M122.76,140.49a11.65,11.65,0,1,1-11.65-11.65A11.66,11.66,0,0,1,122.76,140.49Z"/><path class="cls-4" d="M178.31,140.49a11.65,11.65,0,1,1-11.65-11.65A11.66,11.66,0,0,1,178.31,140.49Z"/><polygon class="cls-3" points="188.69 171.02 166.32 171.02 155.49 171.02 133.12 171.02 122.29 171.02 99.92 171.02 89.09 171.02 66.72 171.02 55.89 171.02 33.52 171.02 20.41 171.02 20.41 184.22 33.52 184.22 55.89 184.22 66.72 184.22 89.09 184.22 99.92 184.22 122.29 184.22 133.12 184.22 155.49 184.22 166.32 184.22 188.69 184.22 201.81 184.22 201.81 171.02 188.69 171.02"/></g></g></svg>