<?xml version="1.0" encoding="utf-8"?>
<!-- Generator: Adobe Illustrator 25.1.0, SVG Export Plug-In . SVG Version: 6.00 Build 0)  -->
<svg version="1.1" id="Layer_1" xmlns="http://www.w3.org/2000/svg" xmlns:xlink="http://www.w3.org/1999/xlink" x="0px" y="0px"
	 viewBox="0 0 328 184.2" style="enable-background:new 0 0 328 184.2;" xml:space="preserve">
<style type="text/css">
	.st0{fill:#BFC9D1;}
	.st1{fill:#A0AEBB;}
	.st2{fill:#8E9FAE;}
	.st3{fill:#D7DDE2;}
	.st4{fill:#FFFFFF;}
</style>
<g id="Layer_2_1_">
	<g id="Layer_1-2">
		<path class="st0" d="M111.1,50.2V101H12.3C4.2,85.3,0,67.9,0,50.2H111.1z"/>
		<rect x="20.3" y="162.7" class="st0" width="181.6" height="8.3"/>
		<path class="st1" d="M73.7,120.5c-2.5,2.7-4.8,5.7-6.6,8.9c-2.2-5.5-5.9-11.7-11.7-18.6c-5.8,7-9.5,13.2-11.7,18.6
			c-1.9-3.2-4.1-6.2-6.7-8.9c-10.2,13.6-10.9,36.9,12.5,36.9c2,0,3.9-0.2,5.9-0.6c1.9,0.4,3.9,0.6,5.9,0.6
			C84.6,157.4,83.9,134.1,73.7,120.5z"/>
		<path class="st1" d="M129.4,120.5c-2.5,2.7-4.8,5.7-6.6,8.9c-2.2-5.5-5.9-11.7-11.7-18.6c-5.8,7-9.5,13.2-11.7,18.6
			c-1.9-3.2-4.1-6.2-6.7-8.9c-10.2,13.5-10.9,36.8,12.4,36.8c2,0,3.9-0.2,5.9-0.6c1.9,0.4,3.9,0.6,5.9,0.6
			C140.3,157.4,139.6,134.1,129.4,120.5z"/>
		<path class="st1" d="M185.2,120.5c-2.5,2.7-4.8,5.7-6.6,8.9c-2.1-5.5-5.9-11.7-11.7-18.6c-5.8,7-9.6,13.2-11.7,18.6
			c-1.9-3.2-4.1-6.2-6.6-8.9c-10.2,13.5-10.9,36.8,12.4,36.8c2,0,3.9-0.2,5.9-0.6c1.9,0.4,3.9,0.6,5.9,0.6
			C196.1,157.4,195.4,134.1,185.2,120.5z"/>
		<path class="st0" d="M290.3,5h-67.5l-17,45.3h-94.7V101h98.8c8.1-15.7,12.3-33.1,12.3-50.8l11.3-32.3h56.8L290.3,5z"/>
		<path class="st2" d="M252.6,22.8h64c6.3,0,11.4-5.1,11.4-11.4S322.9,0,316.6,0h-64L252.6,22.8z"/>
		<path class="st3" d="M67.2,140.5c0,6.4-5.2,11.7-11.6,11.7s-11.7-5.2-11.7-11.6c0-6.4,5.2-11.7,11.6-11.7h0
			C62,128.8,67.2,134.1,67.2,140.5z"/>
		<path class="st3" d="M122.8,140.5c0,6.4-5.2,11.7-11.6,11.7s-11.7-5.2-11.7-11.6c0-6.4,5.2-11.7,11.6-11.7l0,0
			C117.5,128.8,122.8,134.1,122.8,140.5z"/>
		<path class="st3" d="M178.3,140.5c0,6.4-5.2,11.7-11.6,11.7s-11.7-5.2-11.7-11.6c0-6.4,5.2-11.7,11.6-11.7c0,0,0,0,0,0
			C173.1,128.8,178.3,134.1,178.3,140.5z"/>
		<polygon class="st2" points="188.7,171 166.3,171 155.5,171 133.1,171 122.3,171 99.9,171 89.1,171 66.7,171 55.9,171 33.5,171 
			20.4,171 20.4,184.2 33.5,184.2 55.9,184.2 66.7,184.2 89.1,184.2 99.9,184.2 122.3,184.2 133.1,184.2 155.5,184.2 166.3,184.2 
			188.7,184.2 201.8,184.2 201.8,171 		"/>
	</g>
</g>
<g>
	<g>
		<path class="st3" d="M121,48.3c-0.2-0.9-0.9-1.6-1.8-1.9L106,42l9.4-18.8c0.6-1.2,0.2-2.6-0.8-3.4c-1.1-0.8-2.6-0.7-3.5,0.3
			l-27,27c-0.7,0.7-0.9,1.6-0.7,2.5c0.2,0.9,0.9,1.6,1.8,1.9l13.2,4.4L89,74.7c-0.6,1.2-0.2,2.6,0.8,3.4c1.1,0.8,2.5,0.7,3.5-0.3
			l27-27C120.9,50.2,121.2,49.3,121,48.3z"/>
	</g>
</g>
<g>
	<g>
		<path class="st2" d="M102.2,3C88.5,3,75.6,9.3,67,19.6v-3c0-1.5-1.2-2.7-2.7-2.7c-1.5,0-2.7,1.2-2.7,2.7v11.4
			c0,2.6,3.3,2.9,2.7,2.7c0.1,0,0.1,0,0.2,0l10.8-0.7c1.5-0.1,2.6-1.4,2.5-2.9s-1.4-2.6-2.9-2.5l-5.5,0.3
			C77,14.8,89.2,8.4,102.2,8.4c22.3,0,40.6,18.3,40.6,40.6c0,1.5,1.2,2.7,2.7,2.7s2.7-1.2,2.7-2.7C148.2,23.7,127.5,3,102.2,3z"/>
	</g>
</g>
<g>
	<g>
		<path class="st4" d="M139.9,67.2l-10.8,0.7c-1.5,0.1-2.6,1.4-2.5,2.9c0.1,1.5,1.4,2.6,2.9,2.5l5.5-0.3
			c-7.6,10.3-19.8,16.7-32.8,16.7c-22.3,0-40.6-18.3-40.6-40.6c0-1.5-1.2-2.7-2.7-2.7c-1.5,0-2.7,1.2-2.7,2.7c0,25.3,20.7,46,46,46
			c13.7,0,26.6-6.4,35.2-16.6v3c0,1.5,1.2,2.7,2.7,2.7s2.7-1.2,2.7-2.7V69.9C142.8,68.4,141.4,67.1,139.9,67.2z"/>
	</g>
</g>
</svg>
