<?xml version="1.0" encoding="utf-8"?>
<!-- Generator: Adobe Illustrator 25.1.0, SVG Export Plug-In . SVG Version: 6.00 Build 0)  -->
<svg version="1.1" id="Layer_1" xmlns="http://www.w3.org/2000/svg" xmlns:xlink="http://www.w3.org/1999/xlink" x="0px" y="0px"
	 viewBox="0 0 448 205.6" style="enable-background:new 0 0 448 205.6;" xml:space="preserve">
<style type="text/css">
	.st0{fill:url(#SVGID_1_);}
	.st1{fill:#FAFAFB;}
	.st2{fill:#E7EBEE;}
	.st3{fill:#FFFFFF;}
	.st4{fill:#8E9FAE;}
	.st5{opacity:0.75;fill:#F8F9FA;}
	.st6{fill:url(#SVGID_2_);}
	.st7{fill:url(#SVGID_3_);}
	.st8{fill:url(#SVGID_4_);}
	.st9{opacity:0.5;fill:#F8F9FA;}
	.st10{opacity:0.3;fill:url(#SVGID_5_);}
	.st11{opacity:0.44;fill:#F8F9FA;}
</style>
<g id="Layer_2_1_">
	<g id="Layer_1-2">
		
			<linearGradient id="SVGID_1_" gradientUnits="userSpaceOnUse" x1="84.5872" y1="1484.7849" x2="0.8159" y2="-1208.6748" gradientTransform="matrix(1 0 0 -1 0 225.1612)">
			<stop  offset="0" style="stop-color:#B6C1CB"/>
			<stop  offset="1" style="stop-color:#99A8B6"/>
		</linearGradient>
		<path class="st0" d="M75,108.3c0,0.1-1.4,14.1-10.4,14.1c-3.4,0-10.7-4.9-17.7-11.9c-1.8-1.8-3.5-3.6-5-5.4
			c2.3-2.9,3.7-6.4,4-10.1c0.4-4.1-0.3-8-1.9-10.7c-2.1-3.5-5.5-4.7-9.4-3.1c-3.8,1.6-5.5,4.8-4.7,9.3c0.7,3.9,3.3,8.9,7.3,14.2
			c-1.5,0.9-3.2,1.4-5,1.3c-3.4-0.1-7.3-1.7-11.6-4.8C3.8,89.4,9.9,78.1,17,65c3.8-7,7.8-14.3,7.9-21.9h0.3c0.2,0,0.3-0.1,0.4-0.2
			c1.1,0,2.1-0.4,2.9-1.1c0.1-0.1,0.2-0.2,0.2-0.3c0,0,0-0.1,0.1-0.1l0,0c0-0.1,0-0.1,0-0.2v-3.4l0.1-0.1c4.3-0.1,7.7-3.8,7.6-8.1
			V17c0.1-1.5-1.1-2.8-2.5-2.8c0,0-0.1,0-0.1,0h-2.6V7.5c0-1-0.4-1.7-1.2-1.7h-2.3c-0.9,0.1-1.5,0.9-1.4,1.7v6.6h-7V7.5
			c0-0.9-0.8-1.7-1.7-1.7h-2.3c-0.9,0.1-1.6,0.8-1.5,1.7v7.3l-1.6,0.5h0.1c-1.1,0.4-1.9,1.5-1.8,2.7v12.7c0,4.4,3.3,8.1,7.6,8.1h0.9
			v3.4c0,0.5,0.3,0.9,0.8,0.9h1.8c-0.2,6.7-3.9,13.5-7.5,20.2S6.9,76.6,6.5,83.4c-0.4,7.8,3.6,14.6,12.3,20.7
			c8.7,6.1,14.6,6,18.5,4.4c0.8-0.3,1.5-0.7,2.2-1.2c1.6,1.9,3.3,3.8,5.2,5.7c6.2,6.2,14.7,12.9,20,12.9c5,0,9-3.1,11.5-8.9
			c1.1-2.7,1.9-5.5,2.2-8.4L75,108.3z M33.2,89.8c-0.5-2.8,0.3-4.5,2.6-5.4c0.6-0.3,1.3-0.4,2-0.4c1.5,0,2.8,0.9,3.4,2.2
			c1.8,3.1,2.1,8.6,0.3,13.1c-0.4,1.1-1,2.2-1.8,3.1C36.1,97.6,33.7,93.1,33.2,89.8z"/>
		<polygon class="st1" points="157.9,127.3 184.9,126.9 184.9,187.8 157.9,189.3 		"/>
		<path class="st2" d="M258.6,12.7l-54.8,50.9l-91.1,24.1L62.2,90v102.2l55.6,13.4l200.4-12.8v-30.5l0,0V90l12.7-0.3L258.6,12.7z"/>
		<polygon class="st3" points="103.8,95.2 50.3,94 50.3,89.1 103.8,89.5 		"/>
		<polygon class="st4" points="153,186.4 182.9,184.1 182.9,129.1 153,129.5 		"/>
		<polygon class="st4" points="258.4,7.1 190,17.2 188,19 140.1,64.1 61,86.1 50.3,89.1 103.8,89.5 115.9,86 203.8,60.7 256.3,9.2 
					"/>
		<polygon class="st4" points="272,90.3 272,148.7 289.6,147.9 289.6,90.3 		"/>
		<polygon class="st4" points="223.4,150.9 242.2,150.1 242.2,90.4 223.4,90.5 		"/>
		<polygon class="st4" points="248.1,149.8 266.3,148.9 266.3,90.3 248.1,90.4 		"/>
		<polygon class="st3" points="336.2,90.2 260.6,8.6 258.4,6.2 256.3,8.4 203.8,59.9 115.9,85.2 103.3,89 103.3,92.6 103.3,95 
			117.5,89 205.5,63.9 258.6,11.9 330.3,90.2 		"/>
	</g>
</g>
<g>
	<path class="st5" d="M439.7,67c0-34.6-29.4-62.6-65.7-62.6c-36.3,0-65.7,28-65.7,62.6c0,21,10.8,39.5,27.5,50.9
		c7.1,4.8,11.3,12.8,11.3,21.3v4.8c0,10.4,8.4,18.8,18.8,18.8h16.1c10.4,0,18.8-8.4,18.8-18.8v-4.8c0-8.5,4.3-16.5,11.3-21.3
		C428.9,106.6,439.7,88,439.7,67z"/>
	<linearGradient id="SVGID_2_" gradientUnits="userSpaceOnUse" x1="372.6407" y1="201.7106" x2="373.8079" y2="192.3736">
		<stop  offset="3.597000e-03" style="stop-color:#57687A"/>
		<stop  offset="1" style="stop-color:#758392"/>
	</linearGradient>
	<path class="st6" d="M388.6,190.8c0,4.3-6.5,7.7-14.6,7.7s-14.6-3.5-14.6-7.7c0-4.3,6.5-7.7,14.6-7.7S388.6,186.5,388.6,190.8z"/>
	<linearGradient id="SVGID_3_" gradientUnits="userSpaceOnUse" x1="369.9029" y1="189.8616" x2="382.9611" y2="128.7255">
		<stop  offset="3.597000e-03" style="stop-color:#57687A"/>
		<stop  offset="1" style="stop-color:#758392"/>
	</linearGradient>
	<path class="st7" d="M395.7,171.4v-9.9c0-1.2-0.9-2.3-2-2.6c-3.1-1.9-10.7-3.2-19.7-3.2c-9,0-16.6,1.3-19.7,3.2
		c-1.2,0.3-2,1.3-2,2.6v6.2c0,1.7,0.6,3.3,1.5,4.6c-0.1,0.1-0.2,0.1-0.3,0.2c-0.1,0-0.1,0.1-0.1,0.1c-0.1,0.1-0.2,0.2-0.3,0.3
		c-0.1,0.1-0.1,0.1-0.2,0.2c0,0,0,0,0,0.1c0,0,0,0,0,0c-0.4,0.6-0.6,1.3-0.6,2v0.2c0,2.1,0.9,4.1,2.4,5.6v2.8v1
		c0,2.7,1.5,5.1,3.9,6.3c3.3,1.6,8.9,3.3,17,3.1c6.6-0.2,10.8-1.2,13.5-2.4c1.9-0.8,3.2-2.3,3.9-4.2c0,0,0,0,0,0c0,0,0-0.1,0-0.1
		c0.1-0.3,0.2-0.6,0.2-0.8c0-0.1,0-0.2,0.1-0.3c0.1-0.4,0.1-0.8,0.1-1.1v-0.8c1.5-1.3,2.4-3.2,2.4-5.4V179c0-0.8-0.2-1.5-0.6-2.1
		c0,0,0,0,0,0c0,0-0.1-0.1-0.1-0.1c-0.1-0.2-0.2-0.3-0.4-0.4c-0.1-0.1-0.1-0.1-0.2-0.1c-0.1-0.1-0.2-0.2-0.3-0.3
		C395.2,174.7,395.7,173.1,395.7,171.4z"/>
	<linearGradient id="SVGID_4_" gradientUnits="userSpaceOnUse" x1="364.712" y1="54.0182" x2="449.6165" y2="188.8151">
		<stop  offset="0" style="stop-color:#C9CFD4"/>
		<stop  offset="0.1079" style="stop-color:#D1D6DA"/>
		<stop  offset="0.3183" style="stop-color:#D3D8DC"/>
		<stop  offset="0.6224" style="stop-color:#C8CED4"/>
		<stop  offset="0.8658" style="stop-color:#BCC3CA"/>
		<stop  offset="1" style="stop-color:#BCC3CA"/>
	</linearGradient>
	<path class="st8" d="M439.7,67c0-34.6-29.4-62.6-65.7-62.6c-36.3,0-65.7,28-65.7,62.6c0,21,10.8,39.5,27.5,50.9
		c7.1,4.8,11.3,12.8,11.3,21.3v4.8c0,10.4,8.4,18.8,18.8,18.8h16.1c10.4,0,18.8-8.4,18.8-18.8v-4.8c0-8.5,4.3-16.5,11.3-21.3
		C428.9,106.6,439.7,88,439.7,67z"/>
	<ellipse class="st9" cx="374" cy="156.8" rx="15.5" ry="3.7"/>
	<linearGradient id="SVGID_5_" gradientUnits="userSpaceOnUse" x1="367.6915" y1="23.6339" x2="350.768" y2="163.1065">
		<stop  offset="0" style="stop-color:#C9CFD4"/>
		<stop  offset="0.1079" style="stop-color:#D1D6DA"/>
		<stop  offset="0.3183" style="stop-color:#D3D8DC"/>
		<stop  offset="0.6224" style="stop-color:#C8CED4"/>
		<stop  offset="0.8658" style="stop-color:#BCC3CA"/>
		<stop  offset="1" style="stop-color:#BCC3CA"/>
	</linearGradient>
	<path class="st10" d="M375.2,116.4c1.4-24.1,42.1-29.8,41.9-51.3C417,51.8,400.8,42,397.4,40c-25.4-14.5-56.7,2.3-63.2-9.6
		c-1.6-3-0.9-6.2-0.4-8c0.6-2.8,2.1-5.4,4.3-7.7c-17.9,11.2-29.8,30.5-29.8,52.4c0,21,10.8,39.5,27.5,50.9
		c7.1,4.8,11.3,12.8,11.3,21.3v4.8c0,10.4,8.4,18.8,18.8,18.8h16.1c10.4,0,18.8-8.4,18.8-18.8v-3.8c-2.2,1.7-4.8,2.9-7.6,2.9
		C383.6,143,374.5,128.4,375.2,116.4z"/>
	<ellipse class="st11" cx="375.1" cy="69.5" rx="56.6" ry="54.5"/>
	<polygon class="st3" points="395.4,27.2 351.4,75.6 369.5,75.5 354.8,112 398.8,63.3 382.4,63.3 	"/>
</g>
</svg>
