<?xml version="1.0" encoding="utf-8"?>
<!-- Generator: Adobe Illustrator 25.1.0, SVG Export Plug-In . SVG Version: 6.00 Build 0)  -->
<svg version="1.1" id="Layer_1" xmlns="http://www.w3.org/2000/svg" xmlns:xlink="http://www.w3.org/1999/xlink" x="0px" y="0px"
	 viewBox="0 0 1385.2 1034" style="enable-background:new 0 0 1385.2 1034;" xml:space="preserve">
<style type="text/css">
	.st0{fill:#4C494B;}
	.st1{fill:#32AE5F;}
	.st2{fill:#61D85B;}
	.st3{fill:#FFFFFF;}
</style>
<path class="st0" d="M358,134.1c-13.3-10.7-89.7-27.8-143-2.7c-32.2,15.2-6.3,11.9-5.3,69.9c-29.6-3-66.3-0.7-96.4,15.2
	c-52.2,27.5,44.7,73.9-50,344l45.2,53.2l44.8-25l-2.6,28.1l65.9-63.5l114.8-64.4c-7.3-8.5-14.2-17.4-20.6-26.6l94.2-90.9
	C297.3,257.6,369.5,141,358,134.1z"/>
<path class="st0" d="M784,111.2c-6.6-4.6-16.6-5.3-24.4-2.1c-6.4-10.1-21.3-15.8-34.5-13.2c-5-11.8-21.5-19.4-36.1-16.5
	c-12.6-12.3-32.2-19.3-51.4-18.5c-19.3,0.8-37.9,9.4-49,22.6c0,0-30.3-8.4-38.2,5.7c-7.8,14-16.4-5.8-32.9,5s-12.3,19.4-22.3,25.7
	c-10,6.3-12.4,6.6-34.7,6.5c-22.3-0.2-33.5,6.7-33.5,6.7l0.3,0.9h-1.9c0,0-3.7,77.4-7.7,124.7c-4,46.3-3.2,113.1-3.2,113.1l39.6,0.5
	c0,0-3.5-81-5.3-113.6c-2.5-45.8-3-116.9-3-124.1c12.5,1.6,26,7.4,38.4,5.6c-0.3,9.4-0.8,24.2-1.5,36.5c-0.1,2.4-0.3,5.3-0.5,8.3
	l0,0c-0.5,9.6-1.2,20.2-1.9,31c-0.3,3.9-0.6,8-0.8,12.2h0c-0.9,13.8-1.9,27.5-2.9,39.2c-4,46.3-3.2,113-3.2,113l39.6,0.5
	c0,0-3.5-81-5.3-113.6c-0.6-11.3-1.1-24.2-1.5-37.2c-0.1-4.7-0.3-10.3-0.4-15.4c-0.3-10.4-0.5-20.6-0.6-29.9l0,0
	c-0.1-3-0.1-5.7-0.1-8c-0.2-16.8-0.3-38-0.3-44.3c2.9-0.9,5.9-1.1,8.8-0.6c6.6,1.4,10.7,7.1,16.9,9.4c10.8,4,23.6-3.3,34.8-0.2
	c5,1.4,8.9,4.7,13.4,6.9c9,4.4,19.4,5.1,28.9,1.9c2.8-0.9,5.5-2.3,8.5-2.4c5.8-0.3,10.5,3.8,15.3,6.5c12.4,7,30.6,5.5,41.1-3.4
	c1.8-1.5,3.5-3.2,5.9-3.7c2.2-0.4,4.4,0.3,6.5,0.9c7.7,2.6,15.5,5.4,23.9,5.8c8.3,0.4,17.4-2.3,21.5-8.4c7.3,4.2,15.6,8.3,24.4,7.6
	s17-8.9,12.9-15.5c7.7,3.3,18.1,0,22-6.4C793.1,124.4,790.7,115.8,784,111.2z"/>
<ellipse transform="matrix(4.379393e-02 -0.999 0.999 4.379393e-02 -310.0002 1032.0345)" class="st1" cx="384.1" cy="678" rx="355.9" ry="384.2"/>
<path class="st2" d="M436,836.2c-11-2.6-22.8-1.4-33.6-4.7c-31-9.5-45.5-52.9-77.9-55c-27.7-1.7-50.9,29.3-78.1,23.9
	c-15.2-3-25.5-16.5-36.8-27.1c-14.5-13.6-32.4-23.8-43.9-40s-13.4-42.1,2.9-53.4c12.1-8.4,29.4-5,41.3,3.6s20.1,21.4,28.9,33.2
	c2.7,3.7,5.8,7.5,10.1,8.8c11.7,3.7,20.2-12.8,17.4-24.7s-11.2-22.4-11.6-34.7c-0.7-21.6,22.6-35.3,43-42.4s44.5-15.6,50.5-36.4
	c2.1-7.3,1.6-15.4,4.8-22.3c10.7-22.9,67.3-34.3,53.8-47.6s-56.4-16.2-64.8-42.9c-3-9.6-6.1-22.2-16.1-23.2
	c-16.3-1.5-25.6,18.6-39.2,22.1c-6.5,1.6-7.1,12.6-6.9,26.2c0,9.8-7.9,17.8-17.7,17.9c-9.6,0-17.6-7.6-17.9-17.2
	c-0.1-3.8,0.6-7.5,2.1-11c2.6-6.4,7.6-11.6,12.6-16.4c21-20,83.7-42.1,70.5-50.6s-76.1-32.1-85.5-19.1s6.1,2,9.9,17.4
	c3.8,15.4-46.6,13.4-69.9,20c-3.9,1.1-8.1,2.2-11.7,0.4c-4-2-5.7-6.6-7.9-10.5c-11.7-20.9-50.6-7.3-50.6-7.3s-12.1,7-19.6,19.1
	c-8.5,13.5-15,28.8-13.8,44.7c1.4,18.4,10.7,35.7,11.2,54.1c0.8,31.3-23.4,57.5-30.9,87.9c-8.4,34,23.3,72.7,36,91.7
	s7.2-15.4,14.9-28.8s24.2,56.4,50.1,71.7c13.9,8.2,30.1,13.7,40.1,26.3c14.6,18.5,10.5,44.8,8.3,68.2s1.1,51.9,22.2,62.3
	c12.4,6.1,28.2,4.1,39.4,12.2c19.7,14.3,10.3,45.5,18.1,68.5c8.5,25,25.3,25.4,51.3,30.7s-3.3-51.8,8.9-71.8
	c6.4-10.5,16.2-18.8,21.2-30.1c7-15.5,5-36.3,18.6-46.6c10.2-7.7,24.4-5.6,37.1-5.8s28.3-5.7,29.8-18.4
	C458.3,847.8,447,838.8,436,836.2z"/>
<path class="st2" d="M450.1,329.6c-24.3-6.2-67-6-87.8-4.1c-27.8,2.5-74,0.5-91.9,21.9c-5.7,10.5,11.2,10.4,12.8,22.2
	c15.1,1.6,21.4-22.2,36.3-25c8.5-1.6,16.6,4.5,21.2,11.8s6.7,15.8,10.6,23.5c9.1,17.4,26.4,29,45.9,30.8c4.2,0.3,8.8,0.1,11.9-2.7
	c9.1-8-3.9-23.1-0.5-34.8c3.9-13.4,23.1-11.3,36.1-16.2c3.6-1.4,31.2-8.7,31.6-12.5C477.2,337.6,464.4,333.3,450.1,329.6z"/>
<path class="st2" d="M731.8,681.7c-2-10.5-6.5-22.9-17-24.4c-12.2-1.7-27.1,12.2-34.7,2.6c-3.4-4.3-2-10.5-0.1-15.6
	c5.1-13.5,12.9-25.7,23-36c6.2-6.3,13.4-12,18.2-19.5c10.3-16,3.1-39.4-11.5-51.7s-33.3,9.7-48.6,1s-15.8-30-18.6-47.3
	c-2.1-12.9-11.6-47.7-22.1-30.8s14,84.6,41.5,117c3.3,3.9,7,8.3,6.7,13.4c-0.7,12.3-18.5,11.7-30.5,14.2c-14.8,3.1-37.6-4.8-25,21
	c6.6,13.6,38.2,32.3,29.7,41.4s-34.6,35.6-46.9,56.9s-18.2,48-9,70.8s37,38.6,59.7,29c10.6-4.5,22.2-13.9,32.1-7.9
	c8.9,5.4,7.6,18.4,7.2,28.8s5.6,24.3,15.7,21.8c3.3-0.8,6-3.3,8.2-5.9c14.3-16.4,20.2-38.5,23.6-59.9
	C739.7,761.3,739.1,721,731.8,681.7z"/>
<path class="st3" d="M491.6,684.1c-0.1,62.8-4.4,125.7-15.4,187.5c-2.8,15.5-6,30.8-9.9,46.1c-3.8,15.3-8.4,30.3-13.8,45.1
	c-5.5,14.7-11.9,29.2-20.6,42.5c-4.3,6.7-9.5,12.8-15.5,18.1c-3.1,2.6-6.5,4.8-10.1,6.5c-3.7,1.7-7.7,2.7-11.8,2.8
	c-4.1,0.1-8.1-0.7-11.9-2.2c-3.7-1.5-7.2-3.6-10.4-6.2c-6.1-5.1-11.4-11.1-15.8-17.8c-4.4-6.6-8.3-13.5-11.7-20.6
	c-3.4-7.1-6.5-14.4-9.2-21.7c-5.5-14.7-10.1-29.8-14-45c-3.9-15.2-7.2-30.6-10-46.1c-5.6-30.9-9.5-62.1-12-93.4s-3.8-62.7-4-94.1
	c-0.1-15.7,0.3-31.4,0.9-47.1s1.4-31.4,2.6-47c2.3-31.3,5.8-62.5,10.9-93.5c2.6-15.5,5.6-30.9,9.2-46.2c3.6-15.3,7.9-30.4,13.1-45.3
	c2.6-7.4,5.5-14.7,8.8-21.9c3.2-7.2,7-14.1,11.2-20.8c4.2-6.7,9.4-12.8,15.5-17.9c3.1-2.5,6.5-4.6,10.2-6.1
	c3.7-1.5,7.7-2.2,11.8-2.1c4,0.2,8,1.1,11.6,2.7c3.6,1.6,7,3.8,10.1,6.3c6,5.1,11.4,11,15.8,17.6c9,13,15.8,27.3,21.7,41.9
	c5.8,14.6,10.7,29.6,14.9,44.7c4.2,15.1,7.7,30.5,10.8,45.9C486.5,558.4,491.4,621.3,491.6,684.1z M487.4,684.1
	c0.1-31.3-1.2-62.5-3.8-93.8c-2.5-31.2-6.6-62.2-12.3-93c-2.9-15.4-6.3-30.6-10.3-45.8c-4-15.1-8.7-30-14.3-44.6
	c-5.7-14.5-12.3-28.8-21.1-41.7c-4.3-6.5-9.4-12.4-15.3-17.4c-3-2.5-6.2-4.6-9.7-6.2c-3.5-1.6-7.3-2.5-11.1-2.7
	c-3.8-0.1-7.7,0.6-11.2,2.1c-3.5,1.5-6.9,3.5-9.8,6c-5.9,5.1-10.9,11.1-15,17.7c-4.1,6.6-7.8,13.5-10.9,20.6
	c-3.2,7.1-6,14.4-8.5,21.8c-5,14.8-9.2,29.9-12.6,45.1c-3.5,15.2-6.3,30.6-8.7,46.1c-4.8,30.9-8,62.1-9.9,93.3s-2.7,62.5-2.7,93.8
	s1,62.6,3.3,93.8s6,62.3,11.3,93.1c2.7,15.4,5.9,30.7,9.6,45.9c3.7,15.2,8.2,30.1,13.6,44.8c2.7,7.3,5.7,14.5,9,21.6
	c3.3,7,7.1,13.8,11.4,20.3c4.2,6.5,9.3,12.3,15.2,17.3c2.9,2.4,6.2,4.4,9.7,5.9c3.5,1.5,7.2,2.2,11,2.1c3.8-0.1,7.5-1,10.9-2.7
	c3.4-1.6,6.7-3.7,9.5-6.2c5.8-5.2,10.8-11.1,14.9-17.6c8.4-13,14.7-27.5,20-42.1c5.3-14.7,9.7-29.7,13.4-44.9
	c3.7-15.2,6.8-30.5,9.5-45.9c5.3-30.8,8.9-61.9,11.3-93.1S487.4,715.4,487.4,684.1L487.4,684.1z"/>
<path class="st3" d="M649.9,684.1c-0.1,40.5-5.5,80.8-16.2,119.8c-11,38.9-27.6,76.3-50.1,109.9c-11.2,16.8-24,32.5-38.2,46.9
	c-14.2,14.4-30,27.1-47.1,38c-17.1,10.8-35.6,19.2-55,25.1c-39,11.9-80.6,11.9-119.5,0c-19.4-5.9-37.9-14.3-55-25.1
	c-17.1-10.8-32.9-23.5-47.2-37.9c-14.2-14.4-27.1-30.1-38.3-46.9c-22.6-33.6-39.1-71-50.2-109.9c-10.8-39-16.2-79.4-16.2-119.9
	c0.1-20.2,1.5-40.4,4.2-60.5c2.7-20.1,6.8-39.9,12.2-59.4c11.1-38.9,27.7-76.3,50.2-109.8c11.3-16.8,24.1-32.5,38.3-46.8
	c14.2-14.4,30.1-27.1,47.2-37.9c17.1-10.7,35.6-19.1,55-25c38.9-11.9,80.5-11.9,119.4,0c19.3,5.9,37.8,14.3,54.9,25.1
	c17.1,10.8,32.9,23.5,47.1,37.9c14.2,14.4,27,30,38.3,46.9c22.5,33.5,39.1,70.9,50.1,109.8C644.4,603.4,649.8,643.6,649.9,684.1z
	 M645.1,684.1c0.1-40.1-5.2-79.9-15.6-118.6c-10.6-38.5-26.6-75.7-48.6-109.2c-11-16.8-23.5-32.4-37.5-46.8
	c-13.9-14.4-29.5-27.1-46.4-38c-16.9-10.8-35.2-19.2-54.3-25.1c-38.5-12-79.8-12-118.3,0c-19.1,5.9-37.4,14.4-54.3,25.1
	c-16.8,10.9-32.4,23.6-46.3,38c-13.9,14.4-26.5,30-37.4,46.8c-22,33.5-37.9,70.6-48.5,109.2c-5.2,19.3-9.1,38.9-11.7,58.8
	c-5.2,39.7-5.2,79.9,0,119.6c2.6,19.8,6.5,39.5,11.8,58.8c10.6,38.5,26.6,75.7,48.6,109.1c11,16.7,23.5,32.4,37.4,46.7
	c13.9,14.4,29.4,27.1,46.3,37.9c16.9,10.7,35.1,19.1,54.3,25c38.5,12,79.7,12,118.1,0c19.1-5.9,37.4-14.3,54.3-25
	c16.8-10.8,32.4-23.5,46.3-37.9c14-14.3,26.5-30,37.5-46.7c22-33.4,38-70.6,48.7-109.1C639.9,764,645.2,724.2,645.1,684.1z"/>
<path class="st3" d="M72.4,546.2l80.1-0.6l80.1-0.3l160.2-0.2l160.1,0.3l80.1,0.4l80.1,0.6c0.1,0,0.2,0.1,0.2,0.2
	c0,0.1-0.1,0.2-0.2,0.2l-80.1,0.6l-80.1,0.4L392.7,548l-160.1-0.3l-80.1-0.3l-80.1-0.6c-0.2,0-0.3-0.1-0.3-0.3c0,0,0,0,0,0
	C72.1,546.3,72.2,546.2,72.4,546.2C72.4,546.2,72.4,546.2,72.4,546.2z"/>
<path class="st3" d="M165.3,412c19-0.3,37.9-0.4,56.8-0.6l56.9-0.3c19-0.1,37.9-0.1,56.9-0.2l56.9-0.1l113.7,0.3l56.8,0.4
	c19,0.2,37.9,0.3,56.8,0.6c0.1,0,0.2,0.1,0.2,0.2c0,0,0,0,0,0c0,0.1-0.1,0.2-0.2,0.2c-19,0.3-37.9,0.4-56.8,0.6l-56.9,0.4
	l-113.7,0.3l-56.9-0.1c-19,0-37.9,0-56.9-0.2l-56.9-0.3c-18.9-0.2-37.9-0.3-56.9-0.6c-0.2,0-0.3-0.1-0.3-0.3l0,0
	C165,412.2,165.1,412.1,165.3,412z"/>
<path class="st3" d="M44.6,680.3l87-0.6l87-0.3l174.1-0.3l174.1,0.3l87,0.4l87,0.6c0.1,0,0.2,0.1,0.2,0.2c0,0.1-0.1,0.2-0.2,0.2
	l-87,0.6l-87,0.4l-174.1,0.3l-174.1-0.3l-87-0.3l-87-0.6c-0.2,0-0.3-0.1-0.3-0.3C44.3,680.4,44.4,680.3,44.6,680.3z"/>
<path class="st3" d="M72.4,814.4l80.1-0.6l80.1-0.3l160.2-0.3l160.1,0.3l80.1,0.4l80.1,0.6c0.1,0,0.2,0.1,0.2,0.2c0,0,0,0,0,0
	c0,0.1-0.1,0.2-0.2,0.2c0,0,0,0,0,0l-80.1,0.6l-80.1,0.4l-160.1,0.3L232.5,816l-80.1-0.3L72.4,815c-0.2,0-0.3-0.1-0.3-0.3
	c0,0,0,0,0,0C72.1,814.5,72.2,814.4,72.4,814.4z"/>
<path class="st3" d="M631.5,950H176.7c-0.6,0-1.1-0.5-1.1-1.1c0-0.6,0.5-1.1,1.1-1.1h454.8c0.6,0,1.1,0.5,1.1,1.1
	C632.7,949.5,632.2,950,631.5,950C631.6,950,631.6,950,631.5,950z"/>
<path class="st0" d="M989.6,1027c60.1-17.6,44.6-86.2,43.2-108l-34-528.9c4.1,2.3,8.1,5.1,12.1,7.3c21.8,12.4,53.9,9.7,72.4-5.9
	c3.1-2.6,6.1-5.7,10.4-6.5c3.8-0.8,7.8,0.5,11.4,1.7c13.6,4.6,27.4,9.5,42.1,10.1c14.6,0.6,30.6-4.1,37.9-14.7
	c12.9,7.4,27.5,14.7,43,13.4c15.5-1.3,29.9-15.7,22.7-27.3c13.6,5.8,31.9,0.1,38.8-11.3s2.5-26.4-9.2-34.6
	c-11.7-8.1-29.3-9.3-43-3.8c-11.3-17.7-37.5-27.8-60.9-23.4c-8.8-20.9-37.9-34.2-63.6-29c-22.3-21.6-56.8-34-90.8-32.6
	c-34,1.4-66.8,16.6-86.4,39.9c0,0-53.5-14.9-67.3,10s-28.9-10.2-58.1,8.8c-29.1,18.9-20.9,30.7-38.6,41.8
	c-7.4,4.6-11.8,13.5-12.8,22.8h-7c-2.6,0-4.7,2.1-4.7,4.7v7.7c0,2.6,2.1,4.7,4.7,4.7l0,0h9.5l0.3,0.7l-3,85.5v2h-0.2l-0.5,11.4h0.3
	v0.7l-0.2,13.5h-0.7l-0.5,17.1h1.3L754,703.4l-55,38.1v-62.7c0-9.6-9.8-15.5-17.3-10.3L576,742.1v-61.4c0-10.8-10.7-17.7-19.4-12.6
	l-88.7,52.4c-14.8,8.7-23.9,25.7-23.4,44l6.2,251.6c0.1,7,5.8,12.7,12.9,12.7 M505,883.6c-0.6,0.3-1.2,0.4-1.9,0.3h-14.9
	c-1.4,0-2.6-0.5-2.6-1.2l-1.9-24c0-0.5,0.3-0.9,0.7-1c0.6-0.3,1.2-0.5,1.9-0.5h15.3c1.4,0,2.6,0.7,2.6,1.4l1.5,24.2
	C505.7,883,505.4,883.3,505,883.6z M505,831.8c-0.5,0.3-1.2,0.9-1.9,0.9h-14.9c-1.2,0-2.2-0.7-2.6-1.8l-1.9-24.6
	c0-0.5,0.3-0.9,0.7-1c0.6-0.3,1.2-0.5,1.9-0.5h15.3c1.4,0,2.6,0.8,2.6,1.6l1.5,24.3C505.7,831.1,505.4,831.5,505,831.8L505,831.8z
	 M569.9,883.6c-0.6,0.2-1.2,0.3-1.9,0.3h-14.9c-1.4,0-2.6-0.5-2.6-1.3l-0.6-24c0-0.5,0.3-0.9,0.8-1c0.6-0.3,1.2-0.5,1.9-0.5h15.3
	c1.4,0,2.6,0.7,2.6,1.4l0.3,24.2C570.6,883,570.4,883.3,569.9,883.6L569.9,883.6z M569.9,831.8c-0.5,0.3-1.2,0.9-1.9,0.9h-14.9
	c-1.2,0-2.3-0.7-2.6-1.9l-0.6-24.6c0-0.5,0.3-0.9,0.8-1c0.6-0.3,1.2-0.5,1.9-0.5h15.3c1.4,0,2.6,0.9,2.6,1.6l0.3,24.3
	C570.6,831.1,570.3,831.6,569.9,831.8L569.9,831.8z M627.7,882.6c0,0.7-1.2,1.2-2.6,1.2h-14.9c-0.6,0-1.3-0.1-1.9-0.3
	c-0.5-0.3-0.8-0.5-0.8-0.9l0.4-24.1c0-0.7,1.2-1.5,2.6-1.5h15.3c0.7,0,1.3,0.2,1.9,0.5c0.4,0.2,0.7,0.6,0.7,1L627.7,882.6z
	 M627.7,830.9c-0.4,1.1-1.4,1.9-2.6,1.8h-14.9c-0.7,0-1.4-0.7-1.9-0.9c-0.5-0.4-0.7-0.9-0.8-1.5l0.4-24.1c0-0.7,1.2-1.5,2.6-1.5
	h15.3c0.7,0.1,1.3,0.3,1.9,0.7c0.4,0.3,0.7,0.7,0.7,1.2L627.7,830.9z M684.8,882.7c-0.1,0.7-1.2,1.2-2.6,1.2h-14.9
	c-0.6,0-1.3-0.1-1.9-0.3c-0.5-0.3-0.8-0.5-0.7-0.9l1.5-24.1c0-0.7,1.2-1.4,2.6-1.4H684c0.7,0,1.3,0.2,1.9,0.5c0.4,0.2,0.7,0.6,0.7,1
	L684.8,882.7z M684.8,830.9c-0.4,1.1-1.5,1.8-2.6,1.8h-14.9c-0.7,0-1.4-0.7-1.9-0.9c-0.5-0.4-0.7-0.9-0.7-1.5l1.5-24.1
	c0-0.7,1.2-1.5,2.6-1.5H684c0.7,0,1.3,0.2,1.9,0.5c0.5,0.3,0.7,0.8,0.7,1.3L684.8,830.9z M743.4,883.6c-0.6,0.3-1.2,0.4-1.9,0.3
	h-14.9c-1.4,0-2.6-0.5-2.6-1.2l-1.9-24c0-0.5,0.3-0.9,0.7-1c0.6-0.3,1.2-0.5,1.9-0.5H740c1.4,0,2.6,0.7,2.6,1.4l1.5,24.1
	C744.2,883,743.9,883.3,743.4,883.6L743.4,883.6z M743.4,831.8c-0.5,0.3-1.2,0.9-1.9,0.9h-14.9c-1.2,0-2.2-0.7-2.6-1.8l-1.9-24.6
	c0-0.5,0.3-0.9,0.7-1c0.6-0.3,1.2-0.5,1.9-0.5H740c1.4,0,2.6,0.8,2.6,1.6l1.5,24.3C744.2,831.1,743.9,831.5,743.4,831.8L743.4,831.8
	z M866.2,882.6c0,0.7-1.2,1.2-2.6,1.2h-14.9c-0.6,0-1.3-0.1-1.9-0.3l-0.2-0.1l-0.2-16.9l0.1-8c0-0.7,1.2-1.5,2.6-1.5h15.3
	c0.7,0,1.3,0.2,1.9,0.5c0.4,0.2,0.7,0.6,0.7,1L866.2,882.6z M866.2,830.9c-0.4,1.1-1.4,1.9-2.6,1.8h-14.9c-0.7,0-1.4-0.7-1.9-0.9
	c-0.5-0.4-0.7-0.9-0.8-1.5l0.4-24.1c0-0.7,1.2-1.5,2.6-1.5h15.3c0.7,0.1,1.3,0.3,1.9,0.7c0.4,0.3,0.7,0.7,0.7,1.2L866.2,830.9z
	 M921.5,881.3c0,1.4-1.2,2.6-2.6,2.6h-13.1c-0.6,0-1.3-0.1-1.9-0.3c-0.5-0.3-0.8-0.5-0.7-0.9l1.5-24.1c0.1-0.7,1.2-1.4,2.6-1.4h11.3
	c1.9,0,3.5,1.6,3.5,3.5L921.5,881.3z M922.6,830.4c0,1.3-1.1,2.3-2.4,2.3h-14.5c-0.7,0-1.4-0.7-1.9-0.9c-0.5-0.4-0.7-0.9-0.7-1.5
	l1.5-24.1c0.1-0.7,1.2-1.5,2.6-1.5h12.5c1.9,0,3.4,1.6,3.4,3.5L922.6,830.4z M916.4,462L916.4,462l-0.5,11.4h0.3v0.7l-0.2,13.5h-0.7
	l-0.5,17.1h1.3l-3.9,174.9l-67.8,46.6l-3.1-221.5V377c17.1,1.9,36.2-6.9,53.1-2.3c8.8,2.4,15.7,8.1,23.6,12.2
	c0.4,0.2,0.7,0.4,1.1,0.5l-2.5,72.5L916.4,462z"/>
</svg>
