<?xml version="1.0" encoding="utf-8"?>
<!-- Generator: Adobe Illustrator 25.1.0, SVG Export Plug-In . SVG Version: 6.00 Build 0)  -->
<svg version="1.1" id="Layer_1" xmlns="http://www.w3.org/2000/svg" xmlns:xlink="http://www.w3.org/1999/xlink" x="0px" y="0px"
	 viewBox="0 0 265.4 173.4" style="enable-background:new 0 0 265.4 173.4;" xml:space="preserve">
<style type="text/css">
	.st0{fill:#A9B5B4;}
	.st1{fill:#ACB8B8;}
	.st2{fill:#DAE0DF;}
	.st3{fill:#EDEFEF;}
	.st4{fill:#99A8A7;}
	.st5{fill:#94A3A2;}
	.st6{fill:#AEBAB9;}
	.st7{fill:#92A2A1;}
	.st8{fill:#AAB6B6;}
	.st9{fill:#7C8F8E;}
	.st10{opacity:0.8;fill:#9FADAD;enable-background:new    ;}
</style>
<g>
	<g id="Layer_2_1_">
		<g id="Layer_1-2">
			<g>
				<path class="st0" d="M222.5,23.9c10-2.5,19.9-4,25.1-11.9C238.1,9.9,228,11.7,222.5,23.9z"/>
				<path class="st0" d="M188.5,16.4c-0.5-0.1-1-0.2-1.6-0.2c-6.3-5.4-1.5-15.6-1.5-15.6c0,0,0,0,0,0c0,0,0,0,0,0
					c-4.8,0.4-9.1,11-4.7,18.6c-0.5,0.8,0.1,1.4,1.3,1.9c0.1,0.1,0.1,0.1,0.2,0.2c-6.4-3.3-13.3-5.4-23.9-5.2
					c6.2,7.8,13.6,10.5,28.6,8.7c0.9,0.4,1.9,0.8,3,1.2v-6.8l0.7-0.2C190.6,19,191,17.2,188.5,16.4z"/>
				<path class="st0" d="M225.1,15.4C224.8,7.1,215-1.1,210.5,0.1c0,0,10.1,7.7,7.4,14.7c-0.5,0.2-1,0.4-1.4,0.6
					c-0.9,0.6-1.2,1.8-0.6,2.8c0.1,0.1,0.1,0.2,0.2,0.2l0.7-0.1l3.8,6.1c2.7-2.1,4.1-4.6,4.5-7C225.8,16.7,226,16,225.1,15.4z"/>
			</g>
			<polygon class="st1" points="185.8,173.4 182.5,125.5 201.3,112.5 192.4,173.4 			"/>
			<polygon class="st1" points="68.6,152.1 83,104 109.7,129.8 78.4,156.3 79.3,172.2 72.6,172.2 			"/>
			<path class="st2" d="M44.3,59.1c-10.4,8.9-20,87.5,73,88.3s107.3-60.1,107.3-81.6s-38.1-34.3-53.3-21.5s-40.8,19.2-70,9
				c-19-6.7-17.1-1.6-24-1.1c-3.5,0.3-6.6-2.1-10.8-1.3s-5.2,3.7-9,4.5C51.3,56.7,51.1,53.2,44.3,59.1z"/>
			<path class="st2" d="M38,152l15.4-44.1c10.7,10.4,19.4,15.7,31.6,21.8l-35.9,26.5l1,15.9h-7.6L38,152z"/>
			<polygon class="st2" points="161,173.3 157.4,125.5 179.7,113.3 168.3,173.3 			"/>
			<path class="st2" d="M21.3,17.1c12.3-4,37.9-8.8,42.2,37.5l6.6-2C62,35.2,60.4,3.7,20.6,15.2L21.3,17.1z"/>
			<path class="st1" d="M182.2,61.1c8.8,8.4,31.6,30.6,33.6,39.4c0,0,10.2-19.7,9.6-33.2L182.2,61.1z"/>
			<path class="st2" d="M163,52.7c15.4-11.2,15.8-32.7,20.6-34.5c6.6-2.4,8.7,2.4,20.2,1.9c10.8-0.5,13.2-4.8,18.8-4
				c9.1,1.3,3.4,24.8,37.6,53.1c4.2,3.5-17.1,21.9-57.9,3.1C172.3,58.5,163,52.7,163,52.7z"/>
			<path class="st3" d="M184.5,29.8c-7.3,6.2-6.1,31.5,49.4,47.9c0,0,23.6,0.2,28.5-7.7C244.9,57,234.6,33.7,230.1,28
				C224.7,20.9,197.7,18.5,184.5,29.8z"/>
			<path class="st2" d="M213.5,77.2c-0.2-5.7,24.4,6.1,21.2,12S213.8,88.9,213.5,77.2z"/>
			<path class="st3" d="M214.6,77.9c-0.1-4.5,18.4,4.8,16,9.4S214.9,87.1,214.6,77.9z"/>
			<path class="st4" d="M225.7,65c5.8-3.2,12.9,3.7,20.2,5.3c5,1.1,13.9-4,18.5-0.8s-5.6,22.3-21.9,19.7S214.2,71.4,225.7,65z"/>
			<path class="st5" d="M26.9,15.4c3.4,4.2,1.2,10.7-26.6,9.2C0.3,24.6,16.3,2.4,26.9,15.4z"/>
			<path class="st6" d="M19.7,17.9C21,23.8,17,25.8,0,24.7C0,24.7,17.2,5.8,19.7,17.9z"/>
			<polygon class="st7" points="160.6,167.6 161,173.3 168.3,173.3 169.4,167.6 			"/>
			<polygon class="st7" points="185.4,167.6 185.8,173.4 192.4,173.4 193.2,167.6 			"/>
			<polygon class="st7" points="71.5,166.8 72.6,172.2 79.3,172.2 79,166.8 			"/>
			<polygon class="st7" points="41.3,166.8 42.5,172.2 50.2,172.2 49.8,166.8 			"/>
			<path class="st8" d="M225.1,69.7c2.5-3.4,5.1-4.8,16.3,1.6s17.4,12.3,4.1,16C238.3,89.4,219,78,225.1,69.7z"/>
			<path class="st8" d="M261.9,75.6c-1.3-5-6-5.4-19.3-1.9s-7.9,10.7-1,13.4C250,90.4,263,79.8,261.9,75.6z"/>
			<path class="st9" d="M234.3,80.3c-5.8-1.1-6.2-9.6-4.1-10.2C236.5,68.2,242.6,81.9,234.3,80.3z"/>
			<path class="st9" d="M246,81c0.4-3.9,9.6-5.3,10.7-4.1C259.7,80.7,245.5,86.5,246,81z"/>
			<path class="st10" d="M71.1,83.9c0.6-2.8,0.2-5.7-1-8.3c-1.8-3.8-0.2-8.3,3.5-10.2c2.5-1.3,4.3-2.9,4.5-4.9
				c0.4-4-1.8-7.4-8.4-9.7c-1.1-0.2-2.2-0.1-3.2,0c-4.2,0.8-5.2,3.7-9,4.5c-6.3,1.3-6.4-2.1-13.2,3.7c-4.6,3.9-9,21.2-4.6,39.5
				C60.8,99.7,70.3,87.1,71.1,83.9z"/>
			<path class="st10" d="M52,17.7c2.5,4.6,8.3,14.1,10.4,14.7C60,26.7,56.8,21.4,52,17.7z"/>
			<path class="st10" d="M95,123.3c-18.9-8.5-9.1-22.1-1.5-24.8c1.6-0.6,3.3-0.9,5.1-1c10.8-0.7,21.4-3.4,31.3-7.9
				c3.1-1.4,7.4-2,13.1-0.9c24.8,4.6,5,37.7-2,39.9C133,131.1,111.5,130.7,95,123.3z"/>
			<path class="st10" d="M153.5,69.2c7.1-1.4,10.5-5.5,12.2-8.9c1.4-2.7,3.8-4.6,6.7-5.4c3.2-0.7,5.6-3.4,5.9-6.7
				c0.5-4.5-2.3-6.6-5-7.6c-0.8,1.4-1.7,2.8-2.6,4.2c-8.3,6.8-19.6,11.7-32.9,13.1C136.7,61.8,141.8,71.5,153.5,69.2z"/>
			<path class="st10" d="M230.6,54c4.9,6.9,13.8,8.7,23.5,8.6c-6.9-7.2-12.4-15.6-16.5-22.4C232.2,42.9,226,47.6,230.6,54z"/>
			<path class="st9" d="M196.9,38c0,0,5.3-3,7-3s1,8-2,8C200.9,43,198.9,43,196.9,38z"/>
			<path class="st9" d="M216.9,32h6c1.3,0,1.3,6-1,6C221.1,38,217.9,37,216.9,32z"/>
		</g>
	</g>
</g>
</svg>
