<svg xmlns="http://www.w3.org/2000/svg" viewBox="0 0 265.41 173.35"><defs><style>.cls-1{isolation:isolate;}.cls-2{fill:#cdd4d4;}.cls-3{fill:#a3b1b0;}.cls-4{fill:#a9b5b4;}.cls-5{fill:#d2d9d9;}.cls-6{fill:#acb8b8;}.cls-7{fill:#dae0df;}.cls-8{fill:#e2e6e6;}.cls-9{fill:#edefef;}.cls-10{fill:#c8d0d0;}.cls-11{fill:#99a8a7;}.cls-12{fill:#94a3a2;}.cls-13{fill:#aebab9;}.cls-14{fill:#92a2a1;}.cls-15{fill:#aab6b6;}.cls-16{fill:#7c8f8e;}.cls-17{fill:#9fadad;opacity:0.8;mix-blend-mode:multiply;}</style></defs><g class="cls-1"><g id="Layer_2" data-name="Layer 2"><g id="Layer_1-2" data-name="Layer 1"><path class="cls-2" d="M158.25,16.07c13.92-.28,21.47,3.35,29.75,8.58C172.23,26.76,164.58,24.09,158.25,16.07Z"/><path class="cls-2" d="M247.64,12c-5.19,7.91-15.11,9.41-25.12,11.94C228,11.67,238.06,9.87,247.64,12Z"/><path class="cls-3" d="M162.35,18.78c10.25.35,15.61,2.63,21.42,5.82C172.07,25.19,166.58,23.44,162.35,18.78Z"/><path class="cls-3" d="M243.39,15.12c-6.78,4.78-12,6-18.31,6.87C232,15.93,236.91,14.33,243.39,15.12Z"/><path class="cls-4" d="M189.93,18.09C179.23,13.65,185.37.62,185.37.62c-6.57.56-11.89,20.62,4.56,25.32Z"/><path class="cls-5" d="M187.36,19.59c-11-9.43-2-19-2-19-6.57.56-12.35,20.47,4.56,25.32Z"/><path class="cls-4" d="M182.39,21.2c-1.76-.59-2.54-1.34-1.34-2.52s5-3,7.47-2.26S190.63,19,190.63,19Z"/><path class="cls-5" d="M216.15,17.39C223.32,9.9,210.49.11,210.49.11c6.23-1.63,22.26,14.79,10.06,24.38Z"/><path class="cls-4" d="M221.21,17.14C225.83,5,210.49.11,210.49.11c6.23-1.63,22.6,14.51,10.06,24.38Z"/><path class="cls-4" d="M224.7,17.76c1.26-1.11,1.53-2-.21-2.72s-6.16-1-8,.39a2,2,0,0,0-.46,3Z"/><polygon class="cls-6" points="185.78 173.35 182.49 125.53 201.29 112.52 192.42 173.35 185.78 173.35"/><polygon class="cls-6" points="68.64 152.05 82.96 103.97 109.73 129.75 78.37 156.3 79.28 172.24 72.58 172.24 68.64 152.05"/><path class="cls-7" d="M44.31,59.07c-10.4,8.94-20,87.48,73,88.32S224.63,87.3,224.64,65.78,186.53,31.5,171.38,44.24s-40.81,19.23-70,9c-19-6.65-17.05-1.6-24-1.08-3.48.27-6.61-2.12-10.79-1.33s-5.22,3.72-9.05,4.51C51.26,56.66,51.1,53.23,44.31,59.07Z"/><path class="cls-8" d="M74,53.19c-23.33,5-55.13,26.76-13.55,58.69s106.37,21.86,133.29-15c13.57-18.58-11.51-44-44.79-39.79C96.5,63.74,97.29,48.24,74,53.19Z"/><path class="cls-9" d="M79.54,57.12c-20.78,4.41-50.66,20.79-13.62,49.24s96.53,17.34,120.5-15.48c12.09-16.55-5.82-36.75-29.67-31.46C116.59,68.31,100.33,52.71,79.54,57.12Z"/><path class="cls-10" d="M117.32,137.68c-61.07-.55-77.77-35-79.1-61.09-2.82,26.12,9,71,78.81,71.63,92.95.83,107.6-60.92,107.61-82.44a17.35,17.35,0,0,0-.25-2.8C221.11,88.71,200.79,138.43,117.32,137.68Z"/><path class="cls-7" d="M38,152,53.43,107.9C64.12,118.31,72.81,123.58,85,129.74L49.14,156.29l1,15.94H42.52Z"/><polygon class="cls-7" points="161.03 173.34 157.42 125.52 179.71 113.31 168.28 173.34 161.03 173.34"/><path class="cls-7" d="M21.26,17.09c12.28-4,37.87-8.75,42.2,37.47l6.61-2C62,35.23,60.43,3.7,20.57,15.23Z"/><path class="cls-6" d="M182.18,61.11c8.83,8.44,31.59,30.63,33.64,39.37,0,0,10.21-19.68,9.61-33.22Z"/><path class="cls-7" d="M163,52.74C178.35,41.59,178.78,20,183.58,18.22c6.61-2.39,8.68,2.43,20.19,1.87,10.79-.53,13.24-4.8,18.8-4,9.05,1.33,3.36,24.83,37.58,53.14,4.17,3.46-17.11,21.93-57.88,3.1C172.33,58.52,163,52.74,163,52.74Z"/><path class="cls-9" d="M184.5,29.75c-7.29,6.25-6.07,31.55,49.43,47.92,0,0,23.6.15,28.53-7.73C244.93,57,234.58,33.72,230.15,28,224.66,20.9,197.69,18.45,184.5,29.75Z"/><path class="cls-7" d="M213.49,77.2c-.17-5.73,24.37,6.12,21.23,12S213.84,88.89,213.49,77.2Z"/><path class="cls-9" d="M214.65,77.87c-.13-4.51,18.37,4.81,16,9.4S214.91,87.05,214.65,77.87Z"/><path class="cls-11" d="M225.68,65c5.81-3.22,12.88,3.72,20.19,5.32,5,1.1,13.93-4,18.45-.79s-5.58,22.31-21.94,19.65S214.19,71.36,225.68,65Z"/><path class="cls-12" d="M26.92,15.42c3.41,4.17,1.22,10.7-26.65,9.17C.27,24.59,16.3,2.39,26.92,15.42Z"/><path class="cls-13" d="M19.73,17.91C21,23.8,17.05,25.76,0,24.67,0,24.67,17.2,5.76,19.73,17.91Z"/><polygon class="cls-14" points="160.59 167.61 161.03 173.34 168.28 173.34 169.37 167.62 160.59 167.61"/><polygon class="cls-14" points="185.39 167.63 185.78 173.35 192.42 173.35 193.25 167.63 185.39 167.63"/><polygon class="cls-14" points="71.53 166.82 72.58 172.24 79.28 172.24 78.97 166.83 71.53 166.82"/><polygon class="cls-14" points="41.31 166.81 42.52 172.22 50.18 172.23 49.83 166.81 41.31 166.81"/><path class="cls-15" d="M225.13,69.71c2.54-3.44,5.14-4.84,16.34,1.62s17.4,12.31,4.08,16C238.27,89.37,219,78,225.13,69.71Z"/><path class="cls-15" d="M261.9,75.64c-1.27-5-6-5.44-19.26-1.89s-7.93,10.68-1,13.38C250,90.41,263,79.78,261.9,75.64Z"/><path class="cls-16" d="M234.28,80.35c-5.77-1.07-6.19-9.57-4.08-10.21C236.54,68.21,242.55,81.9,234.28,80.35Z"/><path class="cls-16" d="M246,81c.35-3.86,9.65-5.35,10.66-4.09C259.7,80.67,245.48,86.5,246,81Z"/><path class="cls-17" d="M71.13,83.94a13,13,0,0,0-1-8.31,7.73,7.73,0,0,1,3.52-10.21c2.46-1.28,4.33-2.91,4.51-4.91.36-4-1.83-7.36-8.38-9.72a9.66,9.66,0,0,0-3.21.05c-4.17.8-5.22,3.72-9.05,4.51-6.28,1.31-6.44-2.12-13.23,3.72-4.56,3.92-9,21.22-4.61,39.49C60.81,99.67,70.28,87.14,71.13,83.94Z"/><path class="cls-17" d="M52,17.7c2.54,4.63,8.31,14.09,10.43,14.73C60,26.69,56.8,21.36,52,17.7Z"/><path class="cls-17" d="M95,123.33c-18.91-8.46-9.11-22.13-1.48-24.82a18.76,18.76,0,0,1,5.08-1,90.73,90.73,0,0,0,31.29-7.87c3.14-1.4,7.39-2,13.13-.91,24.77,4.64,5,37.69-2,39.88C133,131.15,111.46,130.69,95,123.33Z"/><path class="cls-17" d="M153.5,69.17c7.06-1.41,10.54-5.5,12.24-8.86a10.83,10.83,0,0,1,6.71-5.43,7.66,7.66,0,0,0,5.9-6.71c.54-4.47-2.27-6.6-5-7.62a44.69,44.69,0,0,1-2.59,4.16c-8.3,6.78-19.63,11.7-32.88,13.14C136.68,61.8,141.75,71.51,153.5,69.17Z"/><path class="cls-17" d="M230.56,54c4.92,6.91,13.78,8.72,23.54,8.58C247.17,55.37,241.71,47,237.59,40.2,232.22,42.88,226,47.6,230.56,54Z"/><path class="cls-16" d="M196.87,38s5.31-3,7-3,1,8-2,8C200.87,43,198.87,43,196.87,38Z"/><path class="cls-16" d="M216.87,32h6c1.29,0,1.3,6-1,6C221.11,38,217.87,37,216.87,32Z"/></g></g></g></svg>