<svg xmlns="http://www.w3.org/2000/svg" viewBox="0 0 396.09 326.23"><defs><style>.cls-1{fill:#bec8cf;}.cls-2{fill:#adbac3;}.cls-3{fill:#7f93a1;}.cls-4{fill:#cad3d8;}.cls-5{fill:#8497a4;}.cls-6{fill:#bbc6cd;}.cls-7{fill:#dfe4e7;}</style></defs><g id="Layer_2" data-name="Layer 2"><g id="Layer_1-2" data-name="Layer 1"><path class="cls-1" d="M360.21,226.13,29.68,233.59a247.41,247.41,0,0,0-4.41,37.49c-.26,6.42-.19,13.19,3,18.79,4.49,8,13.93,11.49,22.68,14.14,69.75,21.13,143.76,24.94,216.52,20.67,20.17-1.18,40.64-3.05,59.41-10.53,9-3.61,17.74-8.62,24.08-16,5.18-6,8.59-13.41,10.83-21A82.82,82.82,0,0,0,360.21,226.13Z"/><path class="cls-2" d="M362,231.79a101.71,101.71,0,0,1-2.73,18.5c-3.75,16-10.41,32-22.92,42.59-8.82,7.48-20,11.75-31.24,14.26-11.83,2.63-24,3.47-36.09,4.07a982.37,982.37,0,0,1-173.4-6.75c-24.46-3.14-50.21-7.91-69.9-22a23.08,23.08,0,0,0,2.51,7.46c4.49,8,13.93,11.49,22.68,14.14,69.75,21.13,143.76,24.94,216.52,20.67,20.17-1.18,40.64-3.05,59.41-10.53,9-3.61,17.74-8.62,24.08-16,5.18-6,8.59-13.41,10.83-21A82.93,82.93,0,0,0,362,231.79Z"/><path class="cls-3" d="M383.21,215a8,8,0,0,0-1-4.06,8.1,8.1,0,0,0-1.9-1.84l-13.7-10.68A59.78,59.78,0,0,0,355.4,191c-7.08-3.29-15.13-3.66-22.93-3.75-26.92-.33-53.82,2-80.74,1.62C187.61,188,123.94,172.14,60,176.62,48,177.45,40,190.54,31.3,198.71c-3-2.42-7.66-.4-10.06,2.63S17.6,208.22,15,211c-1.58,1.68-3.66,3-4.58,5.1-1.69,3.88,1.35,8.27.93,12.49S6.93,237.26,9.1,241c1.25,2.14,4.12,3,5.14,5.27s-.2,4.8-.08,7.25c.25,5.25,6.43,8.19,11.69,8.17s10.53-1.8,15.7-.82c2.93.55,5.61,1.95,8.38,3.07a74,74,0,0,0,12.49,3.58,195.7,195.7,0,0,0,29.91,4c8.35.46,16.72.38,25.08.3l158.49-1.51c24-.22,47.92-.45,71.86.3a14.6,14.6,0,0,0,5.44-.5c2.6-.93,4.46-3.25,6.88-4.59,3.95-2.19,9-1.57,13-3.55,6-2.95,8-10.43,8.9-17.06A157.62,157.62,0,0,0,383.21,215Z"/><path class="cls-4" d="M374.12,202.12c-22.49-21.87-55.71-28.25-87-30L61.32,176.32a70.3,70.3,0,0,0-38,11.64c-2.06,1.37-4.29,3.36-4,5.82a7,7,0,0,0,1.58,3.14c4.55,6.22,9.37,12.66,16.27,16.07,2.66,1.31,5.58,2.15,7.91,4a23.57,23.57,0,0,1,5,6.24,300.61,300.61,0,0,0,33.78,43.58c.46-6.1,6.16-10.28,11.38-13.48,16.7-10.26,34.27-19.61,53.35-24.11,11.64-2.75,23.64-3.64,35.57-4.52l56.71-4.19c18.32-1.35,36.69-2.71,55.06-2a239.73,239.73,0,0,1,33.37,3.69c9.1,1.65,18.25,3.89,26.23,8.55s14.75,12.06,16.83,21.07q4-9.68,8.08-19.35c1.66-4,3.34-8.06,3.3-12.36C383.72,213.13,379.14,207,374.12,202.12Z"/><path class="cls-5" d="M56.1,161.48a163.56,163.56,0,0,0-6.65,23.18,278.83,278.83,0,0,0,96.4,9.64c15.94-1.21,32.35-3.74,47.62,1a5.69,5.69,0,0,0,3.75.32c1.27-.51,1.94-1.87,2.45-3.13a57.52,57.52,0,0,0,3.62-30.12Z"/><path class="cls-5" d="M350.06,174.83q-.9-12.42-2.65-24.76L227.18,160q-1.52,16-3,32a7.27,7.27,0,0,0,.16,3.12,5.64,5.64,0,0,0,2.42,2.69c4,2.57,9.13,2.54,13.91,2.37a709.15,709.15,0,0,0,97.62-10.27c3.63-.64,7.57-1.49,9.86-4.38S350.34,178.54,350.06,174.83Z"/><path class="cls-6" d="M391.08,159.29c-3.55-1.53-7.58-1.18-11.43-1.45s-8.12-1.52-9.95-4.92l6.1-6.6a49.44,49.44,0,0,0-7.36-7.46,10,10,0,0,0,9.36-5.24c1-1.89,1.38-4.16,2.92-5.62,2.72-2.6,7.8-1.54,10.14-4.49,2.79-3.54-1.91-8.91-6.41-8.52s-7.93,4-11.14,7.14-7.28,6.34-11.73,5.61c-4.11-.68-7.76-4.63-11.75-3.44-1.68.51-2.95,1.85-4.43,2.8-4.76,3.05-11,1.75-16.5.63C318,125.53,307,124.47,296,123.42c-80.12-7.66-172.58-7.49-251.36,9q-6.48,5.34-12.94,10.7A44.61,44.61,0,0,0,9.75,131a5,5,0,0,0-3.63.16c-2.14,1.27-1.46,4.5-.42,6.76a80.34,80.34,0,0,0,11.47,17.88c-4-.95-8.37-1.88-12.21-.34s-6.48,6.67-4,10c1.78,2.35,5.12,2.69,8.06,2.84l16.06.81c.68,6.1-10.79,9.3-8.65,15,1.21,3.23,6,3.34,8.82,1.31s4.34-5.3,6.65-7.86,6.28-4.37,9.13-2.44c1.54,1,2.33,2.94,3.84,4,3.31,2.4,7.94-.17,10.77-3.12s5.73-6.66,9.82-6.76c2.15,0,4.17,1,6.26,1.5,13,3.34,26.43-11.71,38.83-6.5a31.5,31.5,0,0,0-9.29,17.82l27.5-16.73c-4.26,4.78-1.48,13.13,4.15,16.19s12.67,2,18.53-.62,11-6.5,16.84-9.22c1.52-.71,3.32-1.35,4.85-.63,2,.94,2.41,3.58,3.55,5.5a7.13,7.13,0,0,0,8.77,2.74c3.21-1.46,4.79-5,7.22-7.6s7.44-3.64,9-.47c-2.64,2.23-5.12,5.61-4,8.87,1.74,4.92,9.22,3.9,13.37.74s8.21-7.76,13.4-7.18c6,.67,9.52,8.08,15.51,8.7,6.74.7,12.28-7.59,18.89-6.1,3.9.88,6.23,4.83,9.55,7a12.3,12.3,0,0,0,16.49-3.38c1.3-2,2.12-4.49,4.18-5.66,4-2.3,8.43,2.07,11.44,5.58,4.07,4.75,9.24,8.91,15.37,10.12s13.27-1.25,16-6.85c2.44,1.9,5,3.84,8,4.55s6.61-.17,8.14-2.86a9.8,9.8,0,0,1,1.53-2.63c1.46-1.32,3.89-.53,5.26.89s2.13,3.32,3.49,4.75c4.1,4.28,12.05,2.06,15-3.07s2.09-11.66-.15-17.15l22.23,1C397.37,165.21,394.63,160.82,391.08,159.29Z"/><path class="cls-7" d="M352.84,126.67a132.42,132.42,0,0,0-9.08-27.78L46.32,105a43.52,43.52,0,0,0-19.91,29.32c-.47,2.74-.55,5.93,1.41,7.91,2.82,2.84,7.57,1.33,11.26-.21a143,143,0,0,1,61.26-10.72,14.09,14.09,0,0,1,6.31,1.33c3.88,2.18,4.94,7.13,6.46,11.3s5.21,8.67,9.5,7.5c3.44-.93,4.87-4.87,6.6-8s5.77-6,8.54-3.78c2.08,1.68,1.71,5.07,3.4,7.14,3,3.65,9,.33,11.43-3.73,1.48-2.49,3.28-5.69,6.15-5.36a12.52,12.52,0,0,1,2.9,1.07c4.16,1.56,8.68-1.17,11.84-4.29s6-6.92,10.25-8.29c5.52-1.78,11.36,1.18,17.14,1.62,7.75.58,17-3,22.46,2.54,2.39,2.4,3.41,6.13,6.32,7.86,7.84,4.64,17.91-9.89,25.41-4.71,5,3.48,2.5,12.15,6.69,16.61,4,4.27,11.37,1.89,15.56-2.19s7.13-9.61,12.27-12.41c2.52-1.37,5.91-1.87,8.11,0,3,2.52,2.41,8.14,6,9.8s6.9-2.08,9.06-5.23,6.18-6.52,9.28-4.29c1.32.95,2.11,2.8,3.73,3,1.16.13,2.17-.69,3.2-1.25,3.67-2,8.16-.74,12.28,0s9.24.48,11.3-3.16C353.8,132.11,353.38,129.26,352.84,126.67Z"/><path class="cls-2" d="M359.35,85.83C345.05,46.76,308,19.11,268,7.69S185.24-.9,144.26,6.26c-13.6,2.38-27.25,5.27-39.79,11-15.67,7.23-29,18.76-40.63,31.54-17.25,19-32,40.95-41.55,64.77,82.48,14.95,167.76-11.19,250.85-.05,29.39,3.94,58.89,12.54,88.21,8.06C365.67,110.21,363.55,97.3,359.35,85.83Z"/></g></g></svg>