<svg xmlns="http://www.w3.org/2000/svg" viewBox="0 0 188.34 201.86"><defs><style>.cls-1{fill:#d5dfdf;}.cls-2{fill:#e5ebeb;}.cls-3{fill:#afc2c1;}.cls-4{fill:#acc0bf;}.cls-5{fill:#b1c4c3;}.cls-6{fill:#cad7d6;}.cls-7{fill:#a3b9b8;}.cls-8{fill:#a7bcbb;}.cls-9{fill:#a5bbba;}.cls-10{fill:#d6e0df;}.cls-11{fill:#dee6e5;}.cls-12{fill:#aabfbd;}.cls-13{fill:#a1b8b7;}.cls-14{fill:#a4bab9;}.cls-15{fill:#9eb5b4;}</style></defs><g id="Layer_2" data-name="Layer 2"><g id="Layer_1-2" data-name="Layer 1"><path class="cls-1" d="M159.64,28.5c9.52-.85,16.73-6.92,17.88-11.75S174.39,3.66,165.41.12c-1.44-.57-1.73,1,1.15,2.84s12.16,18.15-13.07,20.14C151.09,24.9,153.78,29.26,159.64,28.5Z"/><path class="cls-2" d="M156.28,26.41c27.58-6.14,14.78-22.71,11.3-24.3A5.55,5.55,0,0,1,164.84,0c-.88,0-.72,1.38,1.72,3,2.89,1.85,12.16,18.15-13.07,20.14-1.74,1.3-.8,3.94,2.07,5A2.33,2.33,0,0,1,156.28,26.41Z"/><path class="cls-2" d="M128.4,28.5c-9.38-.85-16.49-6.92-17.63-11.75S113.86,3.66,122.71.12c1.42-.57,1.7,1-1.14,2.84s-12,18.15,12.89,20.14C136.83,24.9,134.18,29.26,128.4,28.5Z"/><path class="cls-1" d="M134.46,23.1c-24.87-2-15.73-18.29-12.89-20.14,2.54-1.65,2.58-3.07,1.54-2.95C120.65,1.54,99.53,19.26,132,25.86a2.28,2.28,0,0,1,.69,2.14C135.31,26.86,136.12,24.36,134.46,23.1Z"/><path class="cls-3" d="M117.33,49.8c-1.82,2.67-4.49,6.92-8.13,8.26a19.34,19.34,0,0,0,4.49-.13Z"/><path class="cls-3" d="M115.11,55.06c-2.2,2.37-5.46,6.18-9.26,7a19.57,19.57,0,0,0,4.46.54Z"/><path class="cls-3" d="M111.51,60.38c-2.56,2-6.43,5.18-10.3,5.31A19.8,19.8,0,0,0,105.52,67Z"/><path class="cls-4" d="M131.26,24.48c-3.36-2.95-3.38-3.67-2.24-4.12s3.2,2,3.2,2-1.5-3.37.08-3.55S134.67,22,134.67,22s.21-3.6,1.8-3.2,1.5,3.48,1.5,3.48.36-3.38,2.25-2.55-.46,5.9-.46,5.9Z"/><path class="cls-4" d="M151.78,25.55c-2.66-3.59-1.51-4.56-.3-4.76s2.7,2.67,2.7,2.67.48-3.17,2.06-3S158,23.82,158,23.82s.9-3,2.37-2.27.91,3.55.91,3.55,1.79-1.76,3.46-.55-1.92,4-1.92,4Z"/><path class="cls-5" d="M160.28,28.84c1.08-2.11,15.78-6,19.79-3s8.86,6.11,8.21,8.06-11,5-13.78,4.29S161.75,29.75,160.28,28.84Z"/><path class="cls-4" d="M178,33.29c-7.4,0-13.74-2.23-16.48-5.42a3.08,3.08,0,0,0-1.21,1c1.47.91,11.46,8.63,14.22,9.36s13.12-2.35,13.78-4.29c.19-.58-.11-1.26-.73-2A32,32,0,0,1,178,33.29Z"/><path class="cls-6" d="M165.38,30.1c.69-1.1,10-3.15,12.58-1.55s5.65,3.21,5.23,4.23-7,2.62-8.75,2.23S166.32,30.57,165.38,30.1Z"/><path class="cls-4" d="M31.89,88.38c-6-9.71-21.41-11.22-30-8.92C-2.06,80.51-2,66.81,25.14,46c0,0,1,.73.43,1.08C18.52,51.29-9.15,79.18,8.1,76.8a32,32,0,0,1,27.39,9.28Z"/><path class="cls-7" d="M135.1,201.86c-2.47-12.75-5.68-22.82-9.64-30.28,0,0,2.79-19.86,1.08-23.49s21-29.65,24.73-6.6c-4.32,5.6-11.43,31.91-11.43,31.91l2.74,28.46Z"/><path class="cls-7" d="M40,201.86c-.26-9.27-3.33-35.36-5.26-42.69C48.92,118.42,46.69,108.28,47.34,93c0,0,51.91,8.58,20.19,50.89-2.91,3.88-18.31,23.93-18.31,23.93s-1.57,22.47-1.57,34.07Z"/><path class="cls-8" d="M164.42,73.57,121.08,35.84s-7.33,58.64-86.89,46.35c0,0-12.5,7.77-13.58,10.57s1.08,11.43,1.08,11.43c2.3,3,5.13,6.32,8.37,9.9L21.9,151.62c48.94-16.39,64,16.56,103.71,9.49C169.16,153.35,166.14,96.86,164.42,73.57Z"/><path class="cls-9" d="M119.27,44.58c-3.88,24.52,20.88,54.87,45.43,62.77,0,0,2.3-25.87-2.29-40Z"/><path class="cls-4" d="M118.49,46c-.21,3.88,27.51,37.86,49.16,33.85,11.64-2.15,18.32-6,12.94-14C173,54.6,176.1,37.4,168.08,30.45,151.91,16.43,120,18.73,118.49,46Z"/><path class="cls-5" d="M166.86,75.9c11.64-2.15,15.15-1.48,9.77-9.47-7.54-11.21-3.82-28.92-11.83-35.87-9.1-7.88-23.81-11.32-31-2.25C127.53,36.33,145.21,79.91,166.86,75.9Z"/><path class="cls-4" d="M132.38,37.42h37.27s-.66,15.2-12.86,15.36C142.58,53,132.38,37.42,132.38,37.42Z"/><path class="cls-4" d="M10.26,201.86c0-9.27-2.37-35.58-4.1-42.91,15.31-40.75,13.37-50.88,14.45-66.19,0,0,51.66,8.57,18.76,50.88-3,3.88-19,23.93-19,23.93S18.51,190.5,18,201.86Z"/><path class="cls-4" d="M106.85,201.86c-1.76-11.35-4.42-21-8-27.6,0,0,3.45-19,1.94-22.21s23.63-26.12,26.09-5.6c-3,4.74-13.58,30.61-13.58,30.61l.85,24.8Z"/><path class="cls-5" d="M126,33.86c-1.24-2.51-16.41-6.52-20.26-2.6S97.2,39.15,98,41.48,109.5,47,112.24,46,124.59,35,126,33.86Z"/><path class="cls-4" d="M124.72,32.73c-3.59,3.83-9.93,6.88-17.45,7.91a36.65,36.65,0,0,1-9.34.1,1.66,1.66,0,0,0,.06.74C98.79,43.8,109.5,47,112.24,46S124.59,35,126,33.86A3.48,3.48,0,0,0,124.72,32.73Z"/><path class="cls-6" d="M122.74,35.12c-.83-1.56-11.07-4.13-13.69-1.73s-5.82,4.83-5.29,6.27,7.76,3.5,9.61,2.87S121.76,35.84,122.74,35.12Z"/><path class="cls-6" d="M155.22,84.13c-3.08-.87-1.73-5.17-.65-6.25s23.72.22,21.78,3.24S172.68,89.09,155.22,84.13Z"/><path class="cls-6" d="M147.35,77.48c-4.81-5.53,15-22.25,21.72-22.08,6.22.17,19.9,19.1,13.6,23.87-2.2,1.67-3.19,3.65-11,.57C162.27,76.14,152,82.77,147.35,77.48Z"/><path class="cls-10" d="M149.68,76.29C145.49,71.47,162.8,56.88,168.63,57c5.43.14,17.36,16.66,11.87,20.82-1.92,1.45-2.78,3.19-9.61.5C162.7,75.13,153.7,80.92,149.68,76.29Z"/><path class="cls-11" d="M157.51,64.13c2.07-3,8.38-6.56,10.93-6.32s6.43,4.5,6.43,5.71S151.86,72.44,157.51,64.13Z"/><path class="cls-12" d="M157.49,67c-.19-3,2.36-5.41,4.75-4.62s4.7,3.89,4.26,5.58-1.82,4.16-3.93,3.54S157.61,68.87,157.49,67Z"/><path class="cls-12" d="M177,65.76c2.26.1,3.87,2.2,3.09,3.92s-3.29,3.22-4.53,2.75-3-1.69-2.34-3.22S175.54,65.7,177,65.76Z"/><path class="cls-13" d="M140.32,37.65c1.84,4.91,4.52,8.51,6.9.05Z"/><path class="cls-13" d="M160.27,37.44c1.54,5,4.22,8.35,7.11,0Z"/><path class="cls-5" d="M110.64,59.76C99.76,74.32,77.85,88.94,34.19,82.19c0,0-12.5,7.77-13.58,10.57a10,10,0,0,0-.23,3.91c-.57,11.84-.33,22.37-9.92,50.35C67,136.49,103.58,102,110.64,59.76Z"/><path class="cls-8" d="M50.28,119.83c-.37,6.41-3.47,14.25-10.91,23.81l-1.64,2.09,10.71-1.18C51.19,133.78,51.41,125.82,50.28,119.83Z"/><path class="cls-5" d="M6.16,159c9.93-1.23,40.52-11.42,43.92-38.13C52,106.08,19,115,19,115,15.67,130.54,11.72,141.77,6.16,159Z"/><path class="cls-3" d="M98.94,174.23c6.55-2.73,37.71-18.32,24.89-43.52-5.1-10-16.25-10.16-23.86-.73C95.42,135.63,95.84,147.83,98.94,174.23Z"/><path class="cls-10" d="M155.51,82.09c-1.21-2.69,7.28-3.82,9.74-3.64s6.38,2.28,4.74,4S156.33,83.91,155.51,82.09Z"/><path class="cls-14" d="M105.44,194.08q.78,3.73,1.41,7.78h7.32l-.26-7.78Z"/><path class="cls-15" d="M133.37,193.9c.61,2.53,1.19,5.17,1.73,8h7.48l-.77-8Z"/><path class="cls-15" d="M39.51,194.08c.27,3.12.45,5.82.5,7.78h7.64c0-2.26.06-4.94.16-7.78Z"/><path class="cls-14" d="M10,193.9c.19,3.2.3,6,.3,8H18c.1-2.28.25-5,.43-8Z"/><path class="cls-5" d="M22.12,49.13c-5.79-5.28,6.61-6.89,10.63-9.34C30,43.67,28.62,55.07,22.12,49.13Z"/></g></g></svg>