<svg xmlns="http://www.w3.org/2000/svg" xmlns:xlink="http://www.w3.org/1999/xlink" viewBox="0 0 149.32 179"><defs><style>.cls-1{mask:url(#mask);filter:url(#luminosity-noclip-2);}.cls-2{mix-blend-mode:multiply;fill:url(#linear-gradient);}.cls-3{isolation:isolate;}.cls-4{fill:#c4cece;}.cls-5{fill:#859a99;}.cls-6{fill:#adbaba;}.cls-7{fill:#8a9d9d;}.cls-8{fill:#9bacab;}.cls-9{fill:#e5e9e9;}.cls-10{fill:#f6f8f8;}.cls-11{fill:#c7d0d0;}.cls-12{fill:#788f8e;}.cls-13{fill:#90a3a2;}.cls-14{fill:#6e8685;}.cls-15{fill:#587473;}.cls-16{fill:#97a8a8;}.cls-17{fill:#a8b7b6;}.cls-18{fill:#5c7777;}.cls-19{fill:#6b8483;}.cls-20{fill:#d6dddc;}.cls-21{fill:#eef1f0;}.cls-22{fill:#d1d9d9;}.cls-23{mask:url(#mask-2);}.cls-24{opacity:0.6;mix-blend-mode:overlay;fill:url(#linear-gradient-2);}.cls-25{filter:url(#luminosity-noclip);}</style><filter id="luminosity-noclip" x="0" y="-8546" width="149.32" height="32766" filterUnits="userSpaceOnUse" color-interpolation-filters="sRGB"><feFlood flood-color="#fff" result="bg"/><feBlend in="SourceGraphic" in2="bg"/></filter><mask id="mask" x="0" y="-8546" width="149.32" height="32766" maskUnits="userSpaceOnUse"><g class="cls-25"/></mask><linearGradient id="linear-gradient" x1="74.66" y1="46.34" x2="74.66" y2="182.62" gradientUnits="userSpaceOnUse"><stop offset="0.02" stop-color="#999"/><stop offset="1" stop-color="#fff"/></linearGradient><filter id="luminosity-noclip-2" x="0" y="0" width="149.32" height="179" filterUnits="userSpaceOnUse" color-interpolation-filters="sRGB"><feFlood flood-color="#fff" result="bg"/><feBlend in="SourceGraphic" in2="bg"/></filter><mask id="mask-2" x="0" y="0" width="149.32" height="179" maskUnits="userSpaceOnUse"><g class="cls-1"><path class="cls-2" d="M129.44,28.1A9.53,9.53,0,0,0,128,25.85a15.56,15.56,0,0,0-2.1-2c6.07-5.33,5.45-9.56,2.74-11.12-4.17-2.41-7.87,4.33-7.87,4.33,2.25-5.29,1.77-17.33-8.35-17s-3.2,13.8-3.2,13.8C94.93,4.5,89.31,12.37,88.67,17.18c-1.73,13,7.86,12.22,11.22,13.25,1.44.44,2.45,1.86,3.45,3.74-.13.56-.25,1.12-.33,1.69a17.69,17.69,0,0,0-.17,4c0,1.41,0,2.89.14,4.47.29,8,3,17.71,5.63,25.15,0,.13,0,.27,0,.4-3.08,4.8-7.91,16.3-16.22,18.73-17.92,5.23-34.69-12-36-8.06a8.24,8.24,0,0,0,0,4.55,67.74,67.74,0,0,0-13.67-2.31c4-33.47,1.13-89-35.19-63.65,28.73-13,33.21,49,33.86,63.69a6.13,6.13,0,0,0-1.61.31C32.93,47.89,7.88-1,0,56.84c13.57-39.63,32.89,11.9,38.54,28.79a14.09,14.09,0,0,0,.21,4.13c-15.18-31.47-40.42-55.82-37,10.53,2.41-57.37,30.62-17,38.21-5,.06.23.12.45.17.68C18.79,69.07,5.58,90.61,6,114,15.6,78.8,35.35,94.32,41.16,99.89a158.69,158.69,0,0,0,6.57,18.43,23.69,23.69,0,0,0,1.37,2.55A12.08,12.08,0,0,0,51,123.71a46.38,46.38,0,0,0,5.15,5.63l.11.1.89.81.19.17.87.76.26.21.87.72.3.24.88.68.33.26.89.65.36.26.9.64.38.25c.31.21.61.42.93.62.12.09.25.17.38.25l.31.2c2.89,5.16,7,10.88,12.14,13.23-.83,5.66-.16,12.86.67,18.48-1.62,1.06-5.77,1.82-5.77,1.82a9,9,0,0,0,6.2.93c.22,1.28.43,2.42.61,3.37-3.33,1-6.4,3.41-5.53,5H92.63s-6.69-4.53-10.9-5.26c-3.54-10.92-.83-17.82,1.81-23a13.55,13.55,0,0,0,7.94-2.44,17.65,17.65,0,0,0,5.14,2.22c-.61,5.5,0,12.2.82,17.48a22.92,22.92,0,0,1-5.62,1.73,9.1,9.1,0,0,0,6.05,1c.22,1.29.43,2.44.61,3.38-3.27,1.06-6.23,3.4-5.37,5h19.26s-6.86-4.66-11.06-5.3c-3.58-11-.74-18,1.93-23.22,5.75-1.17,9-5.33,12.58-11.5l1.2-.83.38-.26c.53-.39,1.06-.79,1.59-1.22l.06,0c.5-.4,1-.82,1.48-1.25l.48-.43c.35-.32.7-.64,1-1l.57-.57.93-.94.6-.66.87-1,.61-.73c.28-.33.55-.66.82-1l.62-.79.79-1c.21-.28.41-.57.61-.85l.77-1.11.6-.91c.25-.38.5-.78.74-1.17l.59-1c.24-.41.48-.82.72-1.25l.57-1,.71-1.33c.18-.34.36-.68.54-1s.46-.94.69-1.42.35-.71.51-1.07.47-1,.71-1.57c.15-.35.31-.69.46-1,.25-.59.5-1.21.74-1.82l.38-.92c.36-.94.72-1.9,1.07-2.88,2.8-7.84,3.46-23-7.7-40.77a26.6,26.6,0,0,1-2.93-6.35,6.68,6.68,0,0,0,4.67.1c3.07-.86,0-5.51-2-7.62,1.61,1.2,3.66,2.12,4.78.16,1-1.79-2.05-5.87-4.93-8.07a38,38,0,0,0,13,.8l-.43-.34.11,0s-6.87-6.12-9.17-7.36l.18-.13c2.39-2,9.34-9.22,12.41-12.44a20.08,20.08,0,0,0,3-2.76C150,21,134.83,25.46,129.44,28.1Z"/></g></mask><linearGradient id="linear-gradient-2" x1="74.66" y1="46.34" x2="74.66" y2="182.62" gradientUnits="userSpaceOnUse"><stop offset="0.02" stop-color="#e3e7e7"/><stop offset="1" stop-color="#355756"/></linearGradient></defs><g class="cls-3"><g id="Layer_2" data-name="Layer 2"><g id="Layer_1-2" data-name="Layer 1"><path class="cls-4" d="M85.56,146.73c-2.89,6.1-9.15,14.13-2.73,30,0,0-3.37.64-3.37.16s-5.29-22.79-1-32.42Z"/><path class="cls-4" d="M105.15,146.73c-2.89,6.1-9.15,14.13-2.73,30,0,0-3.37.64-3.37.16s-5.3-22.79-1-32.42Z"/><path class="cls-4" d="M73.36,179H92.63s-9-6.1-12.69-5.3S72.4,177.23,73.36,179Z"/><path class="cls-4" d="M79.14,170.33s-2.89,1.45-7.06-.64c0,0,5.3-1,6.26-2.25Z"/><path class="cls-4" d="M93.11,179h19.26s-9-6.1-12.68-5.3S92.14,177.23,93.11,179Z"/><path class="cls-4" d="M98.89,170.33s-2.89,1.45-7.07-.64c0,0,5.3-1,6.26-2.25Z"/><path class="cls-5" d="M7.49,19.16c37-25.9,39.28,32.38,34.95,65.58l-1,1.17S40,4.39,7.49,19.16Z"/><path class="cls-5" d="M0,56.84C8.35-4.38,36,54.05,40.75,89.25l-.59,1.41S16.05,10,0,56.84Z"/><path class="cls-5" d="M1.71,100.29C-1.93,29,27.48,62.41,42,96.86l-.15,1.53S4.49,33.93,1.71,100.29Z"/><path class="cls-5" d="M6,114C5.57,90,19.48,68,41.74,98.15l1.07,3.42S17.34,72.46,6,114Z"/><path class="cls-6" d="M77.51,133.63C81.13,139,89.93,150.57,99,150.83c9.85.28,13.45-5.79,18.83-15.45Z"/><path class="cls-7" d="M104.72,36.93c-1.57-3.21-2.75-5.86-4.83-6.5-3.36-1-13-.3-11.22-13.25.64-4.81,6.26-12.68,20.55-3.37,0,0-6.91-13.48,3.2-13.8s10.6,11.72,8.35,17c0,0,3.7-6.74,7.87-4.33,2.76,1.59,3.37,5.94-3,11.4S104.72,36.93,104.72,36.93Z"/><path class="cls-8" d="M99.59,28.09c-7.84,1.51-11-4.48-10.43-8.79S92.94,9,100,11.32C106.55,13.49,111.69,25.75,99.59,28.09Z"/><path class="cls-8" d="M109.91,12.65c-3.64-7-1.47-11.17,1.07-11.59s7,1.36,8.25,8.44C120.4,16.07,115.53,23.44,109.91,12.65Z"/><path class="cls-8" d="M122.37,15.85c2.45-3.5,5-3.49,5.82-2.38s1.09,3.69-2,6.06C123.34,21.73,118.6,21.24,122.37,15.85Z"/><path class="cls-9" d="M128,25.85c-8.42-9.62-31.79-7.86-22.48,30.34,2.42,9.92,19.59,53.78-54.26,29.22-7.7-2.56-11.88-3.37-12.68,0C37.48,90,44,110.17,47.73,118.32c9.63,21.19,67.42,53.46,90.54-11.4,2.8-7.84,3.46-23-7.7-40.77a26.6,26.6,0,0,1-3.22-22.48C128.93,38.94,132.49,31,128,25.85Z"/><path class="cls-10" d="M38.46,84.8c.57,5.06,23.36,24.57,30.41,22.56S83.37,94.47,82,93.26C80.75,92.22,37.66,77.55,38.46,84.8Z"/><path class="cls-11" d="M130.57,66.15a26.6,26.6,0,0,1-3.22-22.48c1.58-4.73,5.14-12.68.65-17.82a14.71,14.71,0,0,0-5-3.65c1,4.72-1.35,10.27-2.56,13.92-7,21.05,16.41,39,10.91,63.25-11.7,51.58-60.79,41.21-81.08,23.24,14.58,20.72,66.43,44.9,88-15.69C141.07,99.08,141.73,83.89,130.57,66.15Z"/><path class="cls-12" d="M130.57,66.15a25.15,25.15,0,0,1-2.49-22.28c1.57-4.73,4.3-12.78-.08-18-9-10.73-32.34-7.65-23,30.56,4.63,19,8.49,20.51,15.25,22S136.09,74.92,130.57,66.15Z"/><path class="cls-13" d="M114.94,47c-.61,2.57-1.91,13.86,8.66,31.53-4,1.13-12.29-2.08-12.29-2.08C107,66.35,99,42.26,105.27,33.15,113,22,114.94,47,114.94,47Z"/><path class="cls-13" d="M123.08,38.76c1.23-8-2.38-16.13-7.69-16.94s-11.16,6-12.38,14S106,51,111.25,51.79,121.86,46.77,123.08,38.76Z"/><path class="cls-14" d="M130.57,66.15a25.15,25.15,0,0,1-2.49-22.28c1.57-4.73,4.41-12.88-.08-18a14.25,14.25,0,0,0-5.07-3.63c.29.31.57.63.84,1,4.49,5.75,6.12,16.9,2.7,20.83-2.59,3-6.39,13.13-.13,24.27,2.21,3.93,2,7.16.65,9.51C131.33,76.16,134.27,72,130.57,66.15Z"/><path class="cls-11" d="M61.7,129.4c2.57,5.93,9.08,18.94,18,20.86,9.63,2.09,14.28-3.21,21.35-11.71Z"/><path class="cls-15" d="M114.57,37.19c.17-5.39.49-8,1.63-7.78s1.82,8,1.82,8Z"/><path class="cls-16" d="M127,42.49c1.69,3,12.74,3.21,16.16,2.68l-12.41-10S123.39,36,127,42.49Z"/><path class="cls-17" d="M126.39,37.25C128.1,39,147.9,24.3,149.29,22.16c.88-1.35-19.9,4.92-21.61,7.06C126.44,30.76,125.32,36.18,126.39,37.25Z"/><path class="cls-18" d="M126.83,37.53s4,2.4,7-.17,13.91-14,13.91-14S126.62,34.21,126.83,37.53Z"/><path class="cls-19" d="M126.82,37.68c-.64.75,2,4.28,16.05,7.17,0,0-7.87-7-9.58-7.55S126.82,37.68,126.82,37.68Z"/><path class="cls-18" d="M127.56,37.52a1,1,0,1,0-1,.9A1,1,0,0,0,127.56,37.52Z"/><path class="cls-11" d="M111.3,68c9.53,10,26.65,34.35,8.32,63.75l-36.1,12s-46.67-20.79-32.17-28.84c0,0-7.05-18.38,8.06-13.75,0,0-14.7-18.93,1.61-12.48,0,0,37.86,12.08,43.3,1.2A80,80,0,0,0,111.3,68Z"/><path class="cls-10" d="M111.3,68c-2.78-2.36-7.68,17.39-18.87,20.66-17.92,5.23-34.69-12-36-8.06-2.22,6.45,6.87,17.67,11.07,21C65,100.12,55.91,97,54.57,98.9c-3.14,4.45,9.06,14.95,12.49,18.12-1.85-.85-8-.67-9.47,1.41-.84,1.21,13.5,20.74,41.09,14.3C126.58,126.21,131.64,85.17,111.3,68Z"/><path class="cls-20" d="M70.74,137.63c-1.18,1,4.54,7.62,9,8.4,4.81.84,10.59-2.93,10.68-4.72S72.09,136.51,70.74,137.63Z"/><path class="cls-21" d="M86.09,115.61a40.81,40.81,0,0,1-32-15c0,5,9.94,13.59,13,16.4-1.85-.85-8-.67-9.47,1.41-.84,1.21,13.5,20.74,41.09,14.3,18.36-4.29,26.82-23.52,24.68-41.08C117.71,105.65,103.16,115.61,86.09,115.61Z"/><path class="cls-22" d="M83.17,107.36c-4.43,1.06-8.46,9.6,2.62,11.27C79.55,114.78,78.88,112.16,83.17,107.36Z"/><path class="cls-22" d="M78,118.54c-4.62.46-10.29,6.93.41,9.24C73,124.16,72.81,122,78,118.54Z"/><path class="cls-22" d="M77.42,94.57c-4.62.47-10.3,6.94.41,9.25C72.36,100.19,72.2,98,77.42,94.57Z"/><path class="cls-22" d="M91.59,97.2c-4.43,1.38-8.7,8.85,2.26,9C87.77,103.72,87.18,101.64,91.59,97.2Z"/><path class="cls-22" d="M97.05,115.12c-4.07,2.24-6.75,10.42,4,8.35C94.6,122.27,93.61,120.36,97.05,115.12Z"/><path class="cls-22" d="M100.91,102c-3.67,2.84-5.08,11.33,5.24,7.64C99.59,109.46,98.32,107.71,100.91,102Z"/><path class="cls-22" d="M111.07,98.12c-1.26,4.47,2.67,12.13,8.75,3C114.44,104.89,112.38,104.25,111.07,98.12Z"/><path class="cls-22" d="M102.08,86.87c-2.17,4.11.09,12.42,7.93,4.77C104,94.19,102.09,93.13,102.08,86.87Z"/><path class="cls-7" d="M126.87,42.91c-2.77.31-3,5.19-3,5.19-.15,3.7-.3,14.25,8.46,11.8,3.07-.86,0-5.51-2-7.62,1.61,1.2,3.66,2.12,4.78.16C136.55,49.88,129.63,42.61,126.87,42.91Z"/><path class="cls-8" d="M129.74,53.23c2.57,3.4,1.69,5.67.38,6.13s-4-.26-5.31-3.91c-1.41-5.24-.58-10.93.85-11.23C126.52,44,128.68,51.57,129.74,53.23Z"/><path class="cls-8" d="M128.53,50.21c1.59,1.73,4.49,2.63,5.14,2s.57-3-1.16-4.64c-2.42-2.31-5.59-4.68-6.75-3.47C124.31,45.64,127.71,49.32,128.53,50.21Z"/><g class="cls-23"><path class="cls-24" d="M129.44,28.1A9.53,9.53,0,0,0,128,25.85a15.56,15.56,0,0,0-2.1-2c6.07-5.33,5.45-9.56,2.74-11.12-4.17-2.41-7.87,4.33-7.87,4.33,2.25-5.29,1.77-17.33-8.35-17s-3.2,13.8-3.2,13.8C94.93,4.5,89.31,12.37,88.67,17.18c-1.73,13,7.86,12.22,11.22,13.25,1.44.44,2.45,1.86,3.45,3.74-.13.56-.25,1.12-.33,1.69a17.69,17.69,0,0,0-.17,4c0,1.41,0,2.89.14,4.47.29,8,3,17.71,5.63,25.15,0,.13,0,.27,0,.4-3.08,4.8-7.91,16.3-16.22,18.73-17.92,5.23-34.69-12-36-8.06a8.24,8.24,0,0,0,0,4.55,67.74,67.74,0,0,0-13.67-2.31c4-33.47,1.13-89-35.19-63.65,28.73-13,33.21,49,33.86,63.69a6.13,6.13,0,0,0-1.61.31C32.93,47.89,7.88-1,0,56.84c13.57-39.63,32.89,11.9,38.54,28.79a14.09,14.09,0,0,0,.21,4.13c-15.18-31.47-40.42-55.82-37,10.53,2.41-57.37,30.62-17,38.21-5,.06.23.12.45.17.68C18.79,69.07,5.58,90.61,6,114,15.6,78.8,35.35,94.32,41.16,99.89a158.69,158.69,0,0,0,6.57,18.43,23.69,23.69,0,0,0,1.37,2.55A12.08,12.08,0,0,0,51,123.71a46.38,46.38,0,0,0,5.15,5.63l.11.1.89.81.19.17.87.76.26.21.87.72.3.24.88.68.33.26.89.65.36.26.9.64.38.25c.31.21.61.42.93.62.12.09.25.17.38.25l.31.2c2.89,5.16,7,10.88,12.14,13.23-.83,5.66-.16,12.86.67,18.48-1.62,1.06-5.77,1.82-5.77,1.82a9,9,0,0,0,6.2.93c.22,1.28.43,2.42.61,3.37-3.33,1-6.4,3.41-5.53,5H92.63s-6.69-4.53-10.9-5.26c-3.54-10.92-.83-17.82,1.81-23a13.55,13.55,0,0,0,7.94-2.44,17.65,17.65,0,0,0,5.14,2.22c-.61,5.5,0,12.2.82,17.48a22.92,22.92,0,0,1-5.62,1.73,9.1,9.1,0,0,0,6.05,1c.22,1.29.43,2.44.61,3.38-3.27,1.06-6.23,3.4-5.37,5h19.26s-6.86-4.66-11.06-5.3c-3.58-11-.74-18,1.93-23.22,5.75-1.17,9-5.33,12.58-11.5l1.2-.83.38-.26c.53-.39,1.06-.79,1.59-1.22l.06,0c.5-.4,1-.82,1.48-1.25l.48-.43c.35-.32.7-.64,1-1l.57-.57.93-.94.6-.66.87-1,.61-.73c.28-.33.55-.66.82-1l.62-.79.79-1c.21-.28.41-.57.61-.85l.77-1.11.6-.91c.25-.38.5-.78.74-1.17l.59-1c.24-.41.48-.82.72-1.25l.57-1,.71-1.33c.18-.34.36-.68.54-1s.46-.94.69-1.42.35-.71.51-1.07.47-1,.71-1.57c.15-.35.31-.69.46-1,.25-.59.5-1.21.74-1.82l.38-.92c.36-.94.72-1.9,1.07-2.88,2.8-7.84,3.46-23-7.7-40.77a26.6,26.6,0,0,1-2.93-6.35,6.68,6.68,0,0,0,4.67.1c3.07-.86,0-5.51-2-7.62,1.61,1.2,3.66,2.12,4.78.16,1-1.79-2.05-5.87-4.93-8.07a38,38,0,0,0,13,.8l-.43-.34.11,0s-6.87-6.12-9.17-7.36l.18-.13c2.39-2,9.34-9.22,12.41-12.44a20.08,20.08,0,0,0,3-2.76C150,21,134.83,25.46,129.44,28.1Z"/></g></g></g></g></svg>