<?xml version="1.0" encoding="utf-8"?>
<!-- Generator: Adobe Illustrator 25.1.0, SVG Export Plug-In . SVG Version: 6.00 Build 0)  -->
<svg version="1.1" id="Layer_1" xmlns="http://www.w3.org/2000/svg" xmlns:xlink="http://www.w3.org/1999/xlink" x="0px" y="0px"
	 viewBox="0 0 149.3 179" style="enable-background:new 0 0 149.3 179;" xml:space="preserve">
<style type="text/css">
	.st0{fill:#9BACAB;}
	.st1{fill:#859A99;}
	.st2{fill:#DAE0DF;}
	.st3{fill:#587473;}
	.st4{fill:#D1D9D9;}
</style>
<path class="st0" d="M128.6,12.7c-4.2-2.4-7.9,4.3-7.9,4.3c2.2-5.3,1.8-17.3-8.4-17c-10.1,0.3-3.2,13.8-3.2,13.8
	c-14.3-9.3-19.9-1.4-20.6,3.4c-1.8,13,7.9,12.2,11.2,13.2c2.1,0.6,3.3,3.3,4.8,6.5c0,0,14.5-7.4,20.9-12.8
	C132,18.6,131.4,14.3,128.6,12.7z"/>
<path class="st1" d="M103.2,150.5c6.8-1.4,10.1-7,14.6-15.1l-37.4-1.6l-18.7-4.4c2.3,5.3,7.8,16.5,15.5,20
	c-0.8,5.7-0.1,12.9,0.7,18.5c-1.6,1-5.8,1.8-5.8,1.8c2.8,1.4,5.1,1.2,6.2,0.9c0.2,1.3,0.4,2.4,0.6,3.4c-3.3,1-6.4,3.4-5.5,5h19.3
	c0,0-6.7-4.5-10.9-5.3c-3.6-10.9-0.8-17.8,1.8-23c3,0,5.6-0.8,7.9-2.4c1.7,1,3.4,1.8,5.1,2.2c-0.6,5.5,0.1,12.2,0.8,17.4
	c-1.7,1-5.6,1.7-5.6,1.7c2.7,1.4,4.9,1.2,6.1,1c0.2,1.3,0.4,2.4,0.6,3.4c-3.3,1.1-6.2,3.4-5.4,5h19.3c0,0-6.9-4.7-11.1-5.3
	C97.7,162.7,100.6,155.7,103.2,150.5z"/>
<path class="st2" d="M129.4,28.1c-0.3-0.8-0.8-1.6-1.4-2.3c-0.1-0.2-0.3-0.3-0.4-0.4c-6.9-7.5-21-7.5-24.1,8.3
	c-0.2,0.7-0.3,1.4-0.5,2.1c-0.2,1.4-0.3,2.8-0.2,4.1c0,1.4,0,2.8,0.1,4.3c0.3,8,3,17.7,5.6,25.2c0,0.2,0,0.3,0.1,0.5
	c-3.1,4.8-7.9,16.3-16.2,18.7c-17.9,5.2-34.7-12-36-8.1c-0.7,1.9-0.3,4.2,0.6,6.6c-1.9-0.6-3.8-1.2-5.7-1.8
	c-7.7-2.6-11.9-3.4-12.7,0c-1.1,4.6,5.4,24.8,9.1,32.9c0.4,0.8,0.8,1.6,1.3,2.4c0.5,1.1,1.3,2.2,2.3,3.4c8.5,10.9,26.7,22.1,45,21.2
	c0.1,0,0.2,0,0.2,0c0.3,0,0.6,0,0.9-0.1c0.3,0,0.5,0,0.8-0.1c0.3,0,0.5-0.1,0.8-0.1c0.3,0,0.7-0.1,1-0.1c0.2,0,0.4-0.1,0.6-0.1
	c0.4-0.1,0.7-0.1,1.1-0.2c0.2,0,0.4-0.1,0.6-0.1c0.4-0.1,0.8-0.2,1.2-0.3c0.2,0,0.3-0.1,0.5-0.1c0.4-0.1,0.8-0.2,1.2-0.3
	c0.1,0,0.3-0.1,0.4-0.1c0.4-0.1,0.9-0.3,1.3-0.4c0.1,0,0.2-0.1,0.4-0.1c0.5-0.2,0.9-0.3,1.4-0.5c0.1,0,0.2-0.1,0.3-0.1
	c0.5-0.2,1-0.4,1.5-0.6c0.1,0,0.1-0.1,0.2-0.1c0.5-0.2,1-0.5,1.6-0.8c0,0,0.1,0,0.1,0c4.5-2.3,8.8-5.7,12.8-10.4c0,0,0,0,0,0
	c0.5-0.6,1-1.1,1.4-1.7c0,0,0.1-0.1,0.1-0.1c0.4-0.6,0.9-1.1,1.3-1.7c0.1-0.1,0.1-0.2,0.2-0.2c0.4-0.6,0.8-1.2,1.2-1.8
	c0.1-0.1,0.1-0.2,0.2-0.3c0.4-0.6,0.8-1.2,1.1-1.8c0.1-0.1,0.2-0.3,0.2-0.4c0.4-0.6,0.7-1.2,1.1-1.9c0.1-0.1,0.2-0.3,0.2-0.4
	c0.3-0.6,0.7-1.3,1-1.9c0.1-0.2,0.2-0.3,0.3-0.5c0.3-0.7,0.7-1.3,1-2c0.1-0.2,0.2-0.3,0.2-0.5c0.3-0.7,0.6-1.4,1-2.1
	c0.1-0.2,0.2-0.3,0.2-0.5c0.3-0.8,0.6-1.5,1-2.3c0.1-0.2,0.1-0.3,0.2-0.5c0.4-1,0.7-1.9,1.1-2.9c1-2.9,1.8-6.9,1.7-11.7
	c-0.1-7.9-2.5-18-9.4-29.1c0,0,0,0,0,0c0,0,0,0,0,0c-1.3-2-2.3-4.1-2.9-6.4c1.2,0.6,2.7,0.7,4.7,0.1c3.1-0.9,0-5.5-2-7.6
	c1.6,1.2,3.7,2.1,4.8,0.2c1-1.8-2.1-5.9-5-8.1c4,1.2,10.5,1.2,13,0.8l-0.4-0.4c0,0,0.1,0,0.1,0c0,0-7-6.2-9.2-7.4
	c0.1,0,0.1-0.1,0.2-0.1c2.3-1.9,9.1-9,12.2-12.3c1.7-1.4,2.9-2.5,3.2-2.9C150,21,134.8,25.5,129.4,28.1z"/>
<g>
	<path class="st1" d="M41.4,85.9l1-1.2c4.3-33.2,2-91.5-35-65.6C40,4.4,41.4,85.9,41.4,85.9z"/>
	<path class="st1" d="M40.2,90.7l0.6-1.4C36,54,8.3-4.4,0,56.8C16,10,40.2,90.7,40.2,90.7z"/>
	<path class="st1" d="M41.8,98.4l0.2-1.5C27.5,62.4-1.9,29,1.7,100.3c2.6-63.1,36.6-7.8,39.9-2.3C19.4,68.1,5.6,90.1,6,114
		c11.3-41.5,36.8-12.4,36.8-12.4l-1-3.3C41.8,98.3,41.8,98.4,41.8,98.4z"/>
</g>
<path class="st3" d="M114.6,37.2c0.2-5.4,0.5-8,1.6-7.8s1.8,8,1.8,8L114.6,37.2z"/>
<path class="st4" d="M83.2,107.4c-4.4,1.1-8.5,9.6,2.6,11.3C79.6,114.8,78.9,112.2,83.2,107.4z"/>
<path class="st4" d="M78,118.5c-4.6,0.5-10.3,6.9,0.4,9.2C73,124.2,72.8,122,78,118.5z"/>
<path class="st4" d="M77.4,94.6c-4.6,0.5-10.3,6.9,0.4,9.2C72.4,100.2,72.2,98,77.4,94.6z"/>
<path class="st4" d="M91.6,97.2c-4.4,1.4-8.7,8.8,2.3,9C87.8,103.7,87.2,101.6,91.6,97.2z"/>
<path class="st4" d="M97.1,115.1c-4.1,2.2-6.8,10.4,4,8.3C94.6,122.3,93.6,120.4,97.1,115.1z"/>
<path class="st4" d="M100.9,102c-3.7,2.8-5.1,11.3,5.2,7.6C99.6,109.5,98.3,107.7,100.9,102z"/>
<path class="st4" d="M111.1,98.1c-1.3,4.5,2.7,12.1,8.8,3C114.4,104.9,112.4,104.2,111.1,98.1z"/>
<path class="st4" d="M102.1,86.9c-2.2,4.1,0.1,12.4,7.9,4.8C104,94.2,102.1,93.1,102.1,86.9z"/>
</svg>
