<?xml version="1.0" encoding="utf-8"?>
<!-- Generator: Adobe Illustrator 25.1.0, SVG Export Plug-In . SVG Version: 6.00 Build 0)  -->
<svg version="1.1" id="Layer_1" xmlns="http://www.w3.org/2000/svg" xmlns:xlink="http://www.w3.org/1999/xlink" x="0px" y="0px"
	 viewBox="0 0 184.8 154.6" style="enable-background:new 0 0 184.8 154.6;" xml:space="preserve">
<style type="text/css">
	.st0{opacity:0.8;fill:#9FADAD;enable-background:new    ;}
	.st1{fill:#DAE0DF;}
	.st2{opacity:0.8;enable-background:new    ;}
	.st3{fill:#C7D1D1;}
</style>
<path class="st0" d="M96.3,0.1c0,0-24.4-1.2-48.7,6.6C34.1,11,17.3,20.5,11.2,29.8l173.6,19.6L96.3,0.1z"/>
<path class="st1" d="M174.8,146c-2.4-1.6-4.3-3.9-5.5-6.6c-5.5-11.4-1.8-26.4,8.4-34c0.5-0.4,1-0.7,1.5-1c0.1-19,1.3-38.4,5.6-55
	C167.1,43.9,22.4,26.7,12.5,28.9c-1.3,0.3-3,2.8-5.3,10c-4.1,13-9.6,41.1-6.1,64.7c2.5,16.4,8,31,26.8,35.2
	c15.8,3.6,125.4,14.2,151.7,15.8c0-2.4,0-4.9,0-7.4C178,147.3,176.3,146.9,174.8,146z"/>
<g class="st2">
	<path class="st3" d="M72.6,58c-1.3-6.4-8.3-9.4-15.1-9.7c-0.4,0-0.8,0-1.2,0l0,0.1c-2.9-0.1-5.8,0.5-8.4,1.7
		c-1.2,0.6-2.2,1.3-3.2,2.1C41.6,55,41,60,42.5,64s4.9,7.1,8.7,9.1c1.4,0.8,2.9,1.3,4.4,1.5c0.3,0,0.6,0,0.9,0
		c1.4,0,2.9-0.3,4.2-0.8c5.3-2,9.5-6.3,11.4-11.7C72.7,60.8,72.8,59.4,72.6,58z"/>
	<path class="st3" d="M94.4,73.7c-1.2-0.5-2.4-0.8-3.7-0.8c-0.5,0-1,0-1.4,0.1c-5.2,0.8-9.1,6.1-9.7,11.4C79,90,81.4,95.5,85.9,98.8
		c1.4,1,2.9,1.7,4.6,2c0.4,0.1,0.9,0.1,1.3,0.1c3.8,0,7.5-2.6,9.4-5.9C105.4,88.1,102.3,76.9,94.4,73.7z"/>
	<path class="st3" d="M126.3,72.2c2,0,4-0.7,5.4-2.1c0.4-0.4,0.7-0.8,0.9-1.3c0.5-1.3,0.3-2.8-0.5-4c-0.8-1.1-1.9-2.1-3.1-2.8
		c-1.5-1.3-3.4-2-5.3-2.2l0,0c-1.6,0-3.1,0.8-4,2.1c-2.2,2.6-1.6,5.5,0.6,7.9C121.9,71.3,124,72.2,126.3,72.2z"/>
	<path class="st3" d="M159.8,60.7l0.2,0c-1.8,0-3.5,0.6-4.9,1.7c-5.6,3.9-7.4,8.9-8.4,15.6c-1.1,6.8,0.9,13.8,5.5,19
		c1.9,2.1,4.7,3.9,7.4,3.9c0.7,0,1.4-0.1,2-0.3c1.2-0.5,2.3-1.2,3.2-2.2c4.7-4.6,7.5-10.8,8-17.3C173.3,74.4,167.7,60.7,159.8,60.7z
		"/>
	<path class="st3" d="M133.8,108.1L133.8,108.1c-0.5,0-0.9,0-1.4,0.1c-5.6,0.7-10.7,4.9-13.5,9.4s-3.3,10.9-0.6,15.7
		c2.7,4.4,7.5,7.1,12.6,7.1c1.1,0,2.1-0.1,3.1-0.3c6.1-1.6,10.7-6.5,11.9-12.7c0.5-2.9,0.3-6-0.7-8.8
		C143.4,113.2,139.7,108.1,133.8,108.1z"/>
	<path class="st3" d="M28.9,73c-0.9-0.2-1.8-0.3-2.7-0.3l0,0c-5.8,0-9,4.5-8.2,10.5c0.1,1.2,0.5,2.4,1,3.4c1.5,2.6,4.3,4.2,7.3,4.1
		c1.4,0,2.8-0.3,4-1C37.3,86,37.6,74.7,28.9,73z"/>
	<path class="st3" d="M62.5,97.2c-0.9-0.5-1.9-1-2.8-1.5c-0.9-0.4-1.9-0.5-2.9-0.5l0,0c-2.3,0-4.5,0.6-6.4,1.7
		c-4.1,3-4.7,9.2-2.5,13.7c2.1,4.6,6.3,7.8,10.6,10.5c1.2,0.9,2.6,1.4,4,1.6h0.4c2.3-0.1,4.3-1.4,5.4-3.4c1.1-2.1,1.7-4.4,1.7-6.8
		c0.3-3,0-6.1-1.1-9C67.6,100.6,65.2,98.7,62.5,97.2z"/>
	<path class="st3" d="M26.6,115.6c-2,0-4,0.5-5.8,1.4c-3.8,2.1-5.5,6.3,0.2,12.1c1.2,1.3,3,2.1,4.8,2.1c0.4,0,0.8-0.1,1.3-0.2
		c1.7-0.6,3.1-1.6,4.2-3.1c1.3-1.3,2.2-3,2.7-4.7C35.1,118,31,115.6,26.6,115.6z"/>
	<path class="st3" d="M83.6,115.2c-1.6,0-3.3,0.3-4.8,0.8c-3,1-5.3,2.8-6.1,5.4c-0.5,1.9-0.1,3.9,0.9,5.6c1,1.7,2.3,3.1,3.9,4.4
		c3.4,3,7.3,5.7,11.7,6.6c0.6,0.1,1.2,0.2,1.8,0.2c6.7,0,10.8-8,7.3-14.1C95.3,118.7,89.7,115.3,83.6,115.2z"/>
	<path class="st3" d="M19.4,46.6h0.5c1.3,0,2.7-0.4,3.7-1.2c1.2-1,1.6-2.6,1-4c-0.3-0.6-0.8-1.2-1.4-1.5c-0.7-0.6-1.5-0.9-2.4-1
		l-0.2,0.1c-1.3,0.1-2.6,0.8-3.2,2c-0.6,1.2-0.7,2.7-0.4,4c0.1,0.3,0.2,0.6,0.4,0.9C17.9,46.3,18.7,46.6,19.4,46.6z"/>
	<path class="st3" d="M102.9,49.8c-1.3-0.9-2.8-1.3-4.4-1.3l0,0c-1.1-0.1-2.2,0.2-3.1,0.9c-1.2,1-1.3,2.8-0.9,4.4
		c0.1,1,0.6,1.8,1.3,2.5c0.8,0.5,1.7,0.7,2.6,0.6H99c2,0,4.2-0.4,5.1-2C105,53.1,104.5,50.9,102.9,49.8z"/>
	<path class="st3" d="M142.5,58.9h0.3c1.8-0.1,3.3-1.1,4.3-2.5c1.4-1.9-0.3-2.9-2.4-2.9v0c-1.7,0-3.6,0.6-4.5,1.9
		C139.3,56.9,139.7,58.6,142.5,58.9z"/>
</g>
</svg>
