<svg xmlns="http://www.w3.org/2000/svg" xmlns:xlink="http://www.w3.org/1999/xlink" viewBox="0 0 184.76 154.6"><defs><style>.cls-1{mask:url(#mask);filter:url(#luminosity-noclip-13);}.cls-10,.cls-12,.cls-14,.cls-16,.cls-18,.cls-2,.cls-20,.cls-22,.cls-24,.cls-28,.cls-4,.cls-6,.cls-8{mix-blend-mode:multiply;}.cls-2{fill:url(#radial-gradient);}.cls-3{mask:url(#mask-2);filter:url(#luminosity-noclip-18);}.cls-4{fill:url(#radial-gradient-2);}.cls-5{mask:url(#mask-3);filter:url(#luminosity-noclip-19);}.cls-6{fill:url(#radial-gradient-3);}.cls-7{mask:url(#mask-4);filter:url(#luminosity-noclip-20);}.cls-8{fill:url(#radial-gradient-4);}.cls-9{mask:url(#mask-5);filter:url(#luminosity-noclip-21);}.cls-10{fill:url(#radial-gradient-5);}.cls-11{mask:url(#mask-6);filter:url(#luminosity-noclip-22);}.cls-12{fill:url(#radial-gradient-6);}.cls-13{mask:url(#mask-7);filter:url(#luminosity-noclip-14);}.cls-14{fill:url(#radial-gradient-7);}.cls-15{mask:url(#mask-8);filter:url(#luminosity-noclip-23);}.cls-16{fill:url(#radial-gradient-8);}.cls-17{mask:url(#mask-9);filter:url(#luminosity-noclip-24);}.cls-18{fill:url(#radial-gradient-9);}.cls-19{mask:url(#mask-10);filter:url(#luminosity-noclip-15);}.cls-20{fill:url(#radial-gradient-10);}.cls-21{mask:url(#mask-11);filter:url(#luminosity-noclip-16);}.cls-22{fill:url(#radial-gradient-11);}.cls-23{mask:url(#mask-12);filter:url(#luminosity-noclip-17);}.cls-24{fill:url(#radial-gradient-12);}.cls-25{isolation:isolate;}.cls-26{fill:url(#linear-gradient);}.cls-27{fill:url(#radial-gradient-13);}.cls-29{mask:url(#mask-13);}.cls-30{fill:#fff;}.cls-31{fill:#889998;}.cls-32{mask:url(#mask-14);}.cls-33{mask:url(#mask-15);}.cls-34{mask:url(#mask-16);}.cls-35{mask:url(#mask-17);}.cls-36{mask:url(#mask-18);}.cls-37{mask:url(#mask-19);}.cls-38{mask:url(#mask-20);}.cls-39{mask:url(#mask-21);}.cls-40{mask:url(#mask-22);}.cls-41{mask:url(#mask-23);}.cls-42{mask:url(#mask-24);}.cls-43{filter:url(#luminosity-noclip-12);}.cls-44{filter:url(#luminosity-noclip-11);}.cls-45{filter:url(#luminosity-noclip-10);}.cls-46{filter:url(#luminosity-noclip-9);}.cls-47{filter:url(#luminosity-noclip-8);}.cls-48{filter:url(#luminosity-noclip-7);}.cls-49{filter:url(#luminosity-noclip-6);}.cls-50{filter:url(#luminosity-noclip-5);}.cls-51{filter:url(#luminosity-noclip-4);}.cls-52{filter:url(#luminosity-noclip-3);}.cls-53{filter:url(#luminosity-noclip-2);}.cls-54{filter:url(#luminosity-noclip);}</style><filter id="luminosity-noclip" x="41.7" y="-8101" width="31.04" height="32766" filterUnits="userSpaceOnUse" color-interpolation-filters="sRGB"><feFlood flood-color="#fff" result="bg"/><feBlend in="SourceGraphic" in2="bg"/></filter><mask id="mask" x="41.7" y="-8101" width="31.04" height="32766" maskUnits="userSpaceOnUse"><g class="cls-54"/></mask><radialGradient id="radial-gradient" cx="57.21" cy="61.49" r="14.42" gradientUnits="userSpaceOnUse"><stop offset="0" stop-color="#d7d7d7"/><stop offset="0.2" stop-color="#d2d2d2"/><stop offset="0.42" stop-color="#c4c4c4"/><stop offset="0.66" stop-color="#adadad"/><stop offset="0.91" stop-color="#8d8d8d"/><stop offset="1" stop-color="gray"/></radialGradient><filter id="luminosity-noclip-2" x="17.92" y="-8101" width="17.59" height="32766" filterUnits="userSpaceOnUse" color-interpolation-filters="sRGB"><feFlood flood-color="#fff" result="bg"/><feBlend in="SourceGraphic" in2="bg"/></filter><mask id="mask-2" x="17.92" y="-8101" width="17.59" height="32766" maskUnits="userSpaceOnUse"><g class="cls-53"/></mask><radialGradient id="radial-gradient-2" cx="26.72" cy="81.72" r="8.93" xlink:href="#radial-gradient"/><filter id="luminosity-noclip-3" x="46.59" y="-8101" width="23.25" height="32766" filterUnits="userSpaceOnUse" color-interpolation-filters="sRGB"><feFlood flood-color="#fff" result="bg"/><feBlend in="SourceGraphic" in2="bg"/></filter><mask id="mask-3" x="46.59" y="-8101" width="23.25" height="32766" maskUnits="userSpaceOnUse"><g class="cls-52"/></mask><radialGradient id="radial-gradient-3" cx="58.22" cy="108.96" r="12.76" xlink:href="#radial-gradient"/><filter id="luminosity-noclip-4" x="17.35" y="-8101" width="16.79" height="32766" filterUnits="userSpaceOnUse" color-interpolation-filters="sRGB"><feFlood flood-color="#fff" result="bg"/><feBlend in="SourceGraphic" in2="bg"/></filter><mask id="mask-4" x="17.35" y="-8101" width="16.79" height="32766" maskUnits="userSpaceOnUse"><g class="cls-51"/></mask><radialGradient id="radial-gradient-4" cx="25.75" cy="123.47" r="8.11" xlink:href="#radial-gradient"/><filter id="luminosity-noclip-5" x="72.44" y="-8101" width="27.13" height="32766" filterUnits="userSpaceOnUse" color-interpolation-filters="sRGB"><feFlood flood-color="#fff" result="bg"/><feBlend in="SourceGraphic" in2="bg"/></filter><mask id="mask-5" x="72.44" y="-8101" width="27.13" height="32766" maskUnits="userSpaceOnUse"><g class="cls-50"/></mask><radialGradient id="radial-gradient-5" cx="86.01" cy="126.68" r="12.56" xlink:href="#radial-gradient"/><filter id="luminosity-noclip-6" x="16.83" y="-8101" width="8.05" height="32766" filterUnits="userSpaceOnUse" color-interpolation-filters="sRGB"><feFlood flood-color="#fff" result="bg"/><feBlend in="SourceGraphic" in2="bg"/></filter><mask id="mask-6" x="16.83" y="-8101" width="8.05" height="32766" maskUnits="userSpaceOnUse"><g class="cls-49"/></mask><radialGradient id="radial-gradient-6" cx="20.86" cy="42.7" r="3.95" xlink:href="#radial-gradient"/><filter id="luminosity-noclip-7" x="79.48" y="-8101" width="23.61" height="32766" filterUnits="userSpaceOnUse" color-interpolation-filters="sRGB"><feFlood flood-color="#fff" result="bg"/><feBlend in="SourceGraphic" in2="bg"/></filter><mask id="mask-7" x="79.48" y="-8101" width="23.61" height="32766" maskUnits="userSpaceOnUse"><g class="cls-48"/></mask><radialGradient id="radial-gradient-7" cx="91.28" cy="86.99" r="12.98" xlink:href="#radial-gradient"/><filter id="luminosity-noclip-8" x="94.35" y="-8101" width="10.23" height="32766" filterUnits="userSpaceOnUse" color-interpolation-filters="sRGB"><feFlood flood-color="#fff" result="bg"/><feBlend in="SourceGraphic" in2="bg"/></filter><mask id="mask-8" x="94.35" y="-8101" width="10.23" height="32766" maskUnits="userSpaceOnUse"><g class="cls-47"/></mask><radialGradient id="radial-gradient-8" cx="99.47" cy="52.61" r="4.67" xlink:href="#radial-gradient"/><filter id="luminosity-noclip-9" x="139.83" y="-8101" width="7.88" height="32766" filterUnits="userSpaceOnUse" color-interpolation-filters="sRGB"><feFlood flood-color="#fff" result="bg"/><feBlend in="SourceGraphic" in2="bg"/></filter><mask id="mask-9" x="139.83" y="-8101" width="7.88" height="32766" maskUnits="userSpaceOnUse"><g class="cls-46"/></mask><radialGradient id="radial-gradient-9" cx="143.77" cy="56.16" r="3.38" xlink:href="#radial-gradient"/><filter id="luminosity-noclip-10" x="118.4" y="-8101" width="14.57" height="32766" filterUnits="userSpaceOnUse" color-interpolation-filters="sRGB"><feFlood flood-color="#fff" result="bg"/><feBlend in="SourceGraphic" in2="bg"/></filter><mask id="mask-10" x="118.4" y="-8101" width="14.57" height="32766" maskUnits="userSpaceOnUse"><g class="cls-45"/></mask><radialGradient id="radial-gradient-10" cx="125.69" cy="65.97" r="6.78" xlink:href="#radial-gradient"/><filter id="luminosity-noclip-11" x="146.37" y="-8101" width="26.46" height="32766" filterUnits="userSpaceOnUse" color-interpolation-filters="sRGB"><feFlood flood-color="#fff" result="bg"/><feBlend in="SourceGraphic" in2="bg"/></filter><mask id="mask-11" x="146.37" y="-8101" width="26.46" height="32766" maskUnits="userSpaceOnUse"><g class="cls-44"/></mask><radialGradient id="radial-gradient-11" cx="159.6" cy="80.82" r="21.33" xlink:href="#radial-gradient"/><filter id="luminosity-noclip-12" x="116.52" y="-8101" width="29.74" height="32766" filterUnits="userSpaceOnUse" color-interpolation-filters="sRGB"><feFlood flood-color="#fff" result="bg"/><feBlend in="SourceGraphic" in2="bg"/></filter><mask id="mask-12" x="116.52" y="-8101" width="29.74" height="32766" maskUnits="userSpaceOnUse"><g class="cls-43"/></mask><radialGradient id="radial-gradient-12" cx="131.39" cy="124.26" r="15.53" xlink:href="#radial-gradient"/><linearGradient id="linear-gradient" x1="45.18" y1="10.73" x2="182.96" y2="78.86" gradientUnits="userSpaceOnUse"><stop offset="0" stop-color="#7f9494"/><stop offset="1" stop-color="#a0afaf"/></linearGradient><radialGradient id="radial-gradient-13" cx="-0.78" cy="-10.4" r="218.44" gradientUnits="userSpaceOnUse"><stop offset="0" stop-color="#c2cccc"/><stop offset="1" stop-color="#e1e6e6"/></radialGradient><filter id="luminosity-noclip-13" x="41.7" y="48.25" width="31.04" height="26.48" filterUnits="userSpaceOnUse" color-interpolation-filters="sRGB"><feFlood flood-color="#fff" result="bg"/><feBlend in="SourceGraphic" in2="bg"/></filter><mask id="mask-13" x="41.7" y="48.25" width="31.04" height="26.48" maskUnits="userSpaceOnUse"><g class="cls-1"><path class="cls-2" d="M57.55,48.28A19.93,19.93,0,0,0,48,50a13.9,13.9,0,0,0-3.21,2.13C41.62,55,41,60,42.49,64s4.93,7.1,8.73,9.12a12.46,12.46,0,0,0,4.44,1.52,11.41,11.41,0,0,0,5.12-.79,19.15,19.15,0,0,0,11.37-11.7A8.28,8.28,0,0,0,72.63,58C71.37,51.59,64.29,48.59,57.55,48.28Z"/></g></mask><filter id="luminosity-noclip-14" x="79.48" y="72.94" width="23.61" height="28.1" filterUnits="userSpaceOnUse" color-interpolation-filters="sRGB"><feFlood flood-color="#fff" result="bg"/><feBlend in="SourceGraphic" in2="bg"/></filter><mask id="mask-14" x="79.48" y="72.94" width="23.61" height="28.1" maskUnits="userSpaceOnUse"><g class="cls-13"><path class="cls-14" d="M89.31,73.06c-5.15.84-9.1,6.1-9.73,11.36a15.89,15.89,0,0,0,6.31,14.46,10.85,10.85,0,0,0,4.61,2.05c4.28.71,8.58-2.08,10.78-5.83,4.1-7,1-18.14-6.84-21.39A9.36,9.36,0,0,0,89.31,73.06Z"/></g></mask><filter id="luminosity-noclip-15" x="118.4" y="59.73" width="14.57" height="12.48" filterUnits="userSpaceOnUse" color-interpolation-filters="sRGB"><feFlood flood-color="#fff" result="bg"/><feBlend in="SourceGraphic" in2="bg"/></filter><mask id="mask-15" x="118.4" y="59.73" width="14.57" height="12.48" maskUnits="userSpaceOnUse"><g class="cls-19"><path class="cls-20" d="M120.37,69.73a8.19,8.19,0,0,0,11.38.35,4.67,4.67,0,0,0,.93-1.28,4.26,4.26,0,0,0-.54-4,11.48,11.48,0,0,0-3.08-2.85c-3.07-2.18-6.36-3.57-9.27-.15C117.6,64.37,118.16,67.3,120.37,69.73Z"/></g></mask><filter id="luminosity-noclip-16" x="146.37" y="60.73" width="26.46" height="40.18" filterUnits="userSpaceOnUse" color-interpolation-filters="sRGB"><feFlood flood-color="#fff" result="bg"/><feBlend in="SourceGraphic" in2="bg"/></filter><mask id="mask-16" x="146.37" y="60.73" width="26.46" height="40.18" maskUnits="userSpaceOnUse"><g class="cls-21"><path class="cls-22" d="M161.52,100.57a9.35,9.35,0,0,0,3.24-2.16,27,27,0,0,0,8-17.33c.67-8-7.47-25.89-17.75-18.66-5.57,3.92-7.38,8.91-8.4,15.65a23.24,23.24,0,0,0,5.46,19C154.5,99.68,158.16,101.75,161.52,100.57Z"/></g></mask><filter id="luminosity-noclip-17" x="116.52" y="108.09" width="29.74" height="32.34" filterUnits="userSpaceOnUse" color-interpolation-filters="sRGB"><feFlood flood-color="#fff" result="bg"/><feBlend in="SourceGraphic" in2="bg"/></filter><mask id="mask-17" x="116.52" y="108.09" width="29.74" height="32.34" maskUnits="userSpaceOnUse"><g class="cls-23"><path class="cls-24" d="M145.29,118.63c-2.09-5.87-6.22-11.31-12.87-10.45-5.57.72-10.74,4.85-13.49,9.42s-3.33,10.94-.63,15.73a14.73,14.73,0,0,0,15.78,6.75A16.32,16.32,0,0,0,146,127.39,17.06,17.06,0,0,0,145.29,118.63Z"/></g></mask><filter id="luminosity-noclip-18" x="17.92" y="72.66" width="17.59" height="18.11" filterUnits="userSpaceOnUse" color-interpolation-filters="sRGB"><feFlood flood-color="#fff" result="bg"/><feBlend in="SourceGraphic" in2="bg"/></filter><mask id="mask-18" x="17.92" y="72.66" width="17.59" height="18.11" maskUnits="userSpaceOnUse"><g class="cls-3"><path class="cls-4" d="M18,83.21A10.25,10.25,0,0,0,19,86.65c2,3.9,7.47,5.22,11.31,3.15C37.35,86,37.59,74.72,28.94,73,21.37,71.4,17.18,76.28,18,83.21Z"/></g></mask><filter id="luminosity-noclip-19" x="46.59" y="95.16" width="23.25" height="27.6" filterUnits="userSpaceOnUse" color-interpolation-filters="sRGB"><feFlood flood-color="#fff" result="bg"/><feBlend in="SourceGraphic" in2="bg"/></filter><mask id="mask-19" x="46.59" y="95.16" width="23.25" height="27.6" maskUnits="userSpaceOnUse"><g class="cls-5"><path class="cls-6" d="M62.48,97.15c-.93-.54-1.89-1-2.85-1.48-2.3-1.09-7.27-.3-9.3,1.19-4.06,3-4.66,9.15-2.54,13.73s6.3,7.83,10.57,10.51a9.28,9.28,0,0,0,4,1.64,6.43,6.43,0,0,0,5.78-3.39,15.13,15.13,0,0,0,1.68-6.8,20.53,20.53,0,0,0-1.07-9C67.53,100.61,65.14,98.67,62.48,97.15Z"/></g></mask><filter id="luminosity-noclip-20" x="17.35" y="115.65" width="16.79" height="15.65" filterUnits="userSpaceOnUse" color-interpolation-filters="sRGB"><feFlood flood-color="#fff" result="bg"/><feBlend in="SourceGraphic" in2="bg"/></filter><mask id="mask-20" x="17.35" y="115.65" width="16.79" height="15.65" maskUnits="userSpaceOnUse"><g class="cls-7"><path class="cls-8" d="M20.82,117.05c-3.77,2.07-5.49,6.32.22,12.1a6.5,6.5,0,0,0,6,2,8.71,8.71,0,0,0,4.2-3.08,11.21,11.21,0,0,0,2.66-4.73C35.66,115.59,26.17,114.12,20.82,117.05Z"/></g></mask><filter id="luminosity-noclip-21" x="72.44" y="115.2" width="27.13" height="22.95" filterUnits="userSpaceOnUse" color-interpolation-filters="sRGB"><feFlood flood-color="#fff" result="bg"/><feBlend in="SourceGraphic" in2="bg"/></filter><mask id="mask-21" x="72.44" y="115.2" width="27.13" height="22.95" maskUnits="userSpaceOnUse"><g class="cls-9"><path class="cls-10" d="M78.75,116c-3,1-5.33,2.81-6.08,5.39a7.39,7.39,0,0,0,.9,5.62,17.79,17.79,0,0,0,3.86,4.36c3.41,3,7.28,5.7,11.74,6.6,7.76,1.57,12.92-7.26,9.13-13.92C94.38,117.16,86.13,113.47,78.75,116Z"/></g></mask><filter id="luminosity-noclip-22" x="16.83" y="38.82" width="8.05" height="7.76" filterUnits="userSpaceOnUse" color-interpolation-filters="sRGB"><feFlood flood-color="#fff" result="bg"/><feBlend in="SourceGraphic" in2="bg"/></filter><mask id="mask-22" x="16.83" y="38.82" width="8.05" height="7.76" maskUnits="userSpaceOnUse"><g class="cls-11"><path class="cls-12" d="M24.61,41.35A4.19,4.19,0,0,0,23.2,39.8a4.68,4.68,0,0,0-2.42-1,3.78,3.78,0,0,0-3.37,2,5.61,5.61,0,0,0-.37,4,2.42,2.42,0,0,0,.39.9,2.56,2.56,0,0,0,2,.79,5.9,5.9,0,0,0,4.18-1.19A3.5,3.5,0,0,0,24.61,41.35Z"/></g></mask><filter id="luminosity-noclip-23" x="94.35" y="48.43" width="10.23" height="8.35" filterUnits="userSpaceOnUse" color-interpolation-filters="sRGB"><feFlood flood-color="#fff" result="bg"/><feBlend in="SourceGraphic" in2="bg"/></filter><mask id="mask-23" x="94.35" y="48.43" width="10.23" height="8.35" maskUnits="userSpaceOnUse"><g class="cls-15"><path class="cls-16" d="M94.53,53.66a4,4,0,0,0,1.34,2.48,4.52,4.52,0,0,0,2.57.64c2.12.07,4.61-.22,5.7-2a4,4,0,0,0-1.2-5c-1.67-1.34-5.66-1.89-7.47-.44C94.25,50.28,94.19,52.13,94.53,53.66Z"/></g></mask><filter id="luminosity-noclip-24" x="139.83" y="53.45" width="7.88" height="5.42" filterUnits="userSpaceOnUse" color-interpolation-filters="sRGB"><feFlood flood-color="#fff" result="bg"/><feBlend in="SourceGraphic" in2="bg"/></filter><mask id="mask-24" x="139.83" y="53.45" width="7.88" height="5.42" maskUnits="userSpaceOnUse"><g class="cls-17"><path class="cls-18" d="M140.33,55.39c-1,1.52-.68,3.21,2.19,3.46a5.53,5.53,0,0,0,4.66-2.5C149.77,52.9,142.17,52.45,140.33,55.39Z"/></g></mask></defs><g class="cls-25"><g id="Layer_2" data-name="Layer 2"><g id="Layer_1-2" data-name="Layer 1"><path class="cls-26" d="M96.28.07S71.92-1.15,47.56,6.7c-13.5,4.35-30.3,13.83-36.39,23.15l173.59,19.6Z"/><path class="cls-27" d="M174.84,146a15,15,0,0,1-5.47-6.57c-5.48-11.39-1.78-26.42,8.35-34a16.74,16.74,0,0,1,1.49-1c.15-19,1.28-38.37,5.55-55C167.07,43.86,22.38,26.71,12.5,28.9c-1.29.29-3,2.84-5.28,10C3.14,51.89-2.41,80,1.13,103.6c2.46,16.4,8,31,26.83,35.24,15.8,3.58,125.41,14.24,151.68,15.76,0-2.39,0-4.86,0-7.39A8.86,8.86,0,0,1,174.84,146Z"/><g class="cls-28"><g class="cls-29"><path class="cls-30" d="M56.57,74.23a8.38,8.38,0,0,1-.86,0,12,12,0,0,1-4.25-1.47c-4.14-2.2-7.16-5.34-8.51-8.85-1.56-4.09-.67-8.77,2.16-11.39a13.43,13.43,0,0,1,3.09-2,18.47,18.47,0,0,1,8.19-1.68q.57,0,1.14,0c5.95.27,13.34,2.88,14.61,9.34A7.7,7.7,0,0,1,71.68,62,18.82,18.82,0,0,1,60.61,73.42a11.55,11.55,0,0,1-4,.81Z"/><path class="cls-31" d="M56.39,49.25l1.12,0c5.77.26,12.93,2.76,14.14,8.93a7.2,7.2,0,0,1-.45,3.67A18.26,18.26,0,0,1,60.43,73a11,11,0,0,1-3.86.78,7,7,0,0,1-.8,0,11.32,11.32,0,0,1-4.08-1.42c-4-2.13-7-5.18-8.27-8.58-1.49-3.9-.65-8.36,2-10.85a13.54,13.54,0,0,1,3-2,18.21,18.21,0,0,1,8-1.62m0-1A19.09,19.09,0,0,0,48,50a13.9,13.9,0,0,0-3.21,2.13C41.62,55,41,60,42.49,64s4.93,7.1,8.73,9.12a12.46,12.46,0,0,0,4.44,1.52,6.94,6.94,0,0,0,.91,0,12.24,12.24,0,0,0,4.21-.84,19.15,19.15,0,0,0,11.37-11.7A8.28,8.28,0,0,0,72.63,58c-1.26-6.43-8.34-9.43-15.08-9.74-.39,0-.77,0-1.16,0Z"/></g><g class="cls-32"><path class="cls-30" d="M91.85,100.54a7.59,7.59,0,0,1-1.27-.1,10.46,10.46,0,0,1-4.39-2,15.47,15.47,0,0,1-6.11-14c.57-4.71,4.2-10.09,9.31-10.93a8.8,8.8,0,0,1,1.36-.1,9.14,9.14,0,0,1,3.5.72,13.78,13.78,0,0,1,7.47,8.57,14.92,14.92,0,0,1-.87,12.11c-2,3.46-5.57,5.69-9,5.69Z"/><path class="cls-31" d="M90.74,73.94a8.69,8.69,0,0,1,3.31.69,13.27,13.27,0,0,1,7.19,8.27,14.39,14.39,0,0,1-.82,11.7C98.5,97.85,95.06,100,91.85,100a7.85,7.85,0,0,1-1.19-.09,9.93,9.93,0,0,1-4.18-1.88,15,15,0,0,1-5.91-13.53c.55-4.53,4-9.69,8.9-10.49a7.78,7.78,0,0,1,1.27-.11m0-1a8.54,8.54,0,0,0-1.43.12c-5.15.84-9.1,6.1-9.73,11.36a15.89,15.89,0,0,0,6.31,14.46,10.85,10.85,0,0,0,4.61,2.05,7.68,7.68,0,0,0,1.35.11c3.81,0,7.46-2.59,9.43-5.94,4.1-7,1-18.14-6.84-21.39a9.55,9.55,0,0,0-3.7-.77Z"/></g><g class="cls-33"><path class="cls-30" d="M126.31,71.71a7.5,7.5,0,0,1-5.57-2.32c-2.22-2.44-2.43-5.09-.57-7.27a4.59,4.59,0,0,1,3.58-1.89c1.82,0,3.74,1.21,5,2.12a10.87,10.87,0,0,1,2.95,2.72,3.79,3.79,0,0,1,.51,3.52,4,4,0,0,1-.83,1.13,7.16,7.16,0,0,1-5.09,2Z"/><path class="cls-31" d="M123.75,60.73c1.68,0,3.5,1.15,4.73,2a10.9,10.9,0,0,1,2.83,2.59,3.28,3.28,0,0,1,.46,3,3.34,3.34,0,0,1-.73,1,6.67,6.67,0,0,1-4.73,1.84,7,7,0,0,1-5.2-2.16c-1.19-1.31-2.86-3.91-.56-6.61a4.16,4.16,0,0,1,3.2-1.71m0-1a5.11,5.11,0,0,0-4,2.06c-2.19,2.58-1.63,5.51.58,7.94a8.06,8.06,0,0,0,5.94,2.48,7.66,7.66,0,0,0,5.44-2.13,4.67,4.67,0,0,0,.93-1.28,4.26,4.26,0,0,0-.54-4,11.48,11.48,0,0,0-3.08-2.85,9.8,9.8,0,0,0-5.31-2.21Z"/></g><g class="cls-34"><path class="cls-30" d="M159.51,100.41c-2.29,0-4.93-1.38-7-3.7a22.63,22.63,0,0,1-5.33-18.57c1-6.6,2.73-11.46,8.2-15.31a7.86,7.86,0,0,1,4.52-1.6c2.19,0,4.31,1.11,6.32,3.3,4.11,4.46,6.48,12.14,6.12,16.51a26.52,26.52,0,0,1-7.87,17,9,9,0,0,1-3.07,2,5.39,5.39,0,0,1-1.84.31Z"/><path class="cls-31" d="M159.85,61.73c2,0,4,1.06,6,3.14,4,4.36,6.35,11.86,6,16.13a26,26,0,0,1-7.71,16.68,8.7,8.7,0,0,1-2.89,1.95,5,5,0,0,1-1.68.28c-2.16,0-4.65-1.32-6.68-3.53a22.12,22.12,0,0,1-5.2-18.16c1-6.47,2.66-11.23,8-15a7.37,7.37,0,0,1,4.23-1.51m0-1A8.35,8.35,0,0,0,155,62.42c-5.57,3.92-7.38,8.91-8.4,15.65a23.24,23.24,0,0,0,5.46,19c1.92,2.11,4.67,3.86,7.41,3.86a5.86,5.86,0,0,0,2-.34,9.35,9.35,0,0,0,3.24-2.16,27,27,0,0,0,8-17.33c.56-6.73-5.06-20.35-12.94-20.35Z"/></g><g class="cls-35"><path class="cls-30" d="M131,139.93a14.12,14.12,0,0,1-12.22-6.84,15.42,15.42,0,0,1,.63-15.23c3-4.93,8.11-8.53,13.12-9.18a9.72,9.72,0,0,1,1.31-.09c6.43,0,9.67,6.4,11,10.21a16.28,16.28,0,0,1,.66,8.5A15.81,15.81,0,0,1,134,139.59a13.77,13.77,0,0,1-3,.34Z"/><path class="cls-31" d="M133.79,109.09c6.12,0,9.24,6.19,10.56,9.88a15.82,15.82,0,0,1,.64,8.24,15.29,15.29,0,0,1-11.14,11.89,12.64,12.64,0,0,1-2.9.33,13.6,13.6,0,0,1-11.78-6.59c-2.42-4.29-2.18-10.07.62-14.73,2.36-3.93,7.22-8.22,12.76-8.94a10.6,10.6,0,0,1,1.24-.08m0-1a10.86,10.86,0,0,0-1.37.09c-5.57.72-10.74,4.85-13.49,9.42s-3.33,10.94-.63,15.73a14.65,14.65,0,0,0,12.65,7.1,14.37,14.37,0,0,0,3.13-.35A16.32,16.32,0,0,0,146,127.39a17.06,17.06,0,0,0-.69-8.76c-1.94-5.45-5.65-10.54-11.5-10.54Z"/></g><g class="cls-36"><path class="cls-30" d="M26.29,90.27a7.61,7.61,0,0,1-6.87-3.84,10.32,10.32,0,0,1-.9-3.28c-.37-3.1.29-5.8,1.89-7.61a7.55,7.55,0,0,1,5.84-2.38,12.57,12.57,0,0,1,2.59.28,7.25,7.25,0,0,1,6.08,6.26,9.58,9.58,0,0,1-4.87,9.66,7.92,7.92,0,0,1-3.76.91Z"/><path class="cls-31" d="M26.25,73.66a12.3,12.3,0,0,1,2.49.27,6.79,6.79,0,0,1,5.69,5.84,9.08,9.08,0,0,1-4.62,9.15,7.39,7.39,0,0,1-3.52.85,7.08,7.08,0,0,1-6.42-3.57A9.28,9.28,0,0,1,19,83.09c-.36-3,.26-5.52,1.76-7.21a7.06,7.06,0,0,1,5.47-2.22m0-1c-5.85,0-9,4.49-8.22,10.55A10.25,10.25,0,0,0,19,86.65a8.1,8.1,0,0,0,7.31,4.12,8.41,8.41,0,0,0,4-1C37.35,86,37.59,74.72,28.94,73a13.79,13.79,0,0,0-2.69-.29Z"/></g><g class="cls-37"><path class="cls-30" d="M62.73,122.26l-.38,0a8.76,8.76,0,0,1-3.72-1.57c-3.69-2.31-8.2-5.57-10.39-10.29-1.92-4.17-1.56-10.21,2.39-13.12a11.75,11.75,0,0,1,6.13-1.6,6.49,6.49,0,0,1,2.66.46c1.13.54,2,1,2.81,1.46,3.14,1.8,5.05,3.75,6,6.14a19.72,19.72,0,0,1,1,8.8,14.71,14.71,0,0,1-1.61,6.58,6,6,0,0,1-4.93,3.16Z"/><path class="cls-31" d="M56.76,96.16a6,6,0,0,1,2.44.42c1.13.53,2,1,2.79,1.43,3,1.74,4.87,3.61,5.79,5.9a19.18,19.18,0,0,1,1,8.57,14.36,14.36,0,0,1-1.54,6.36,5.56,5.56,0,0,1-4.5,2.92l-.33,0a8.31,8.31,0,0,1-3.51-1.49c-3.62-2.28-8.06-5.48-10.19-10.08-1.85-4-1.52-9.75,2.23-12.5a11.27,11.27,0,0,1,5.83-1.51m0-1a12.26,12.26,0,0,0-6.43,1.7c-4.06,3-4.66,9.15-2.54,13.73s6.3,7.83,10.57,10.51a9.28,9.28,0,0,0,4,1.64l.42,0a6.56,6.56,0,0,0,5.36-3.41,15.13,15.13,0,0,0,1.68-6.8,20.53,20.53,0,0,0-1.07-9c-1.17-2.92-3.56-4.86-6.22-6.38-.93-.54-1.89-1-2.85-1.48a7,7,0,0,0-2.87-.51Z"/></g><g class="cls-38"><path class="cls-30" d="M25.81,130.79a6.41,6.41,0,0,1-4.41-2c-2.6-2.63-3.81-5.15-3.5-7.3a5.72,5.72,0,0,1,3.16-4,11.61,11.61,0,0,1,5.52-1.34c2.65,0,4.85.85,6,2.33a5.37,5.37,0,0,1,.83,4.74,11,11,0,0,1-2.56,4.51,8.27,8.27,0,0,1-3.95,2.92,4.22,4.22,0,0,1-1.13.14Z"/><path class="cls-31" d="M26.58,116.65c2.5,0,4.56.78,5.65,2.15a4.89,4.89,0,0,1,.73,4.31,10.55,10.55,0,0,1-2.45,4.3,7.93,7.93,0,0,1-3.69,2.76,4.23,4.23,0,0,1-1,.12,5.94,5.94,0,0,1-4.06-1.84c-2.48-2.52-3.64-4.89-3.35-6.87a5.23,5.23,0,0,1,2.9-3.65,11.23,11.23,0,0,1,5.28-1.28m0-1a12.2,12.2,0,0,0-5.76,1.4c-3.77,2.07-5.49,6.32.22,12.1a6.92,6.92,0,0,0,4.77,2.14,5.42,5.42,0,0,0,1.26-.15,8.71,8.71,0,0,0,4.2-3.08,11.21,11.21,0,0,0,2.66-4.73c1.19-5.33-2.93-7.68-7.35-7.68Z"/></g><g class="cls-39"><path class="cls-30" d="M91,137.65a9.16,9.16,0,0,1-1.7-.17c-4.81-1-8.87-4.17-11.5-6.49A17.49,17.49,0,0,1,74,126.76a6.86,6.86,0,0,1-.85-5.23c.82-2.83,3.59-4.31,5.77-5a14.1,14.1,0,0,1,4.65-.78,16.86,16.86,0,0,1,14.3,8.6,9.33,9.33,0,0,1-.06,9.26A7.93,7.93,0,0,1,91,137.65Z"/><path class="cls-31" d="M83.57,116.2a16.34,16.34,0,0,1,13.86,8.35,8.78,8.78,0,0,1-.06,8.76A7.33,7.33,0,0,1,91,137.15a8,8,0,0,1-1.6-.16c-3.57-.73-7.15-2.75-11.27-6.37a17,17,0,0,1-3.65-4.11,6.34,6.34,0,0,1-.81-4.84c.76-2.62,3.38-4,5.45-4.72a13.65,13.65,0,0,1,4.49-.75m0-1a15,15,0,0,0-4.82.8c-3,1-5.33,2.81-6.08,5.39a7.39,7.39,0,0,0,.9,5.62,17.79,17.79,0,0,0,3.86,4.36c3.41,3,7.28,5.7,11.74,6.6a9.29,9.29,0,0,0,1.79.18c6.73,0,10.83-8,7.34-14.1a17.3,17.3,0,0,0-14.73-8.85Z"/></g><g class="cls-40"><path class="cls-30" d="M19.86,46.08l-.44,0a2.05,2.05,0,0,1-1.59-.59,2.18,2.18,0,0,1-.31-.72,5.11,5.11,0,0,1,.33-3.67,3.32,3.32,0,0,1,2.77-1.76h.13a4.16,4.16,0,0,1,2.15.88,3.68,3.68,0,0,1,1.26,1.37A3,3,0,0,1,23.24,45a5.2,5.2,0,0,1-3.38,1.09Z"/><path class="cls-31" d="M20.61,39.82h.12a3.7,3.7,0,0,1,1.88.79,3.3,3.3,0,0,1,1.1,1.18,2.52,2.52,0,0,1-.79,2.82,4.73,4.73,0,0,1-3.06,1l-.42,0a1.66,1.66,0,0,1-1.22-.4,1.74,1.74,0,0,1-.21-.54,4.59,4.59,0,0,1,.28-3.3,2.78,2.78,0,0,1,2.32-1.5m0-1a3.82,3.82,0,0,0-3.2,2,5.61,5.61,0,0,0-.37,4,2.42,2.42,0,0,0,.39.9,2.56,2.56,0,0,0,2,.79l.47,0a5.69,5.69,0,0,0,3.71-1.21,3.5,3.5,0,0,0,1-4A4.19,4.19,0,0,0,23.2,39.8a4.68,4.68,0,0,0-2.42-1Z"/></g><g class="cls-41"><path class="cls-30" d="M99,56.29h-.55a4.1,4.1,0,0,1-2.29-.54A3.45,3.45,0,0,1,95,53.55c-.18-.83-.48-2.87.76-3.87a4.5,4.5,0,0,1,2.75-.75,7.09,7.09,0,0,1,4.1,1.19,3.54,3.54,0,0,1,1.08,4.36c-.71,1.2-2.3,1.81-4.7,1.81Z"/><path class="cls-31" d="M98.53,49.43a6.7,6.7,0,0,1,3.79,1.08,3.09,3.09,0,0,1,1,3.72c-.62,1-2.06,1.56-4.28,1.56h-.53a3.74,3.74,0,0,1-2-.45,3,3,0,0,1-.95-1.89c-.13-.57-.46-2.52.59-3.37a4,4,0,0,1,2.43-.64m0-1a5,5,0,0,0-3.06.86c-1.22,1-1.28,2.84-.94,4.37a4,4,0,0,0,1.34,2.48,4.52,4.52,0,0,0,2.57.64H99c2,0,4.15-.39,5.14-2a4,4,0,0,0-1.2-5,7.63,7.63,0,0,0-4.41-1.3Z"/></g><g class="cls-42"><path class="cls-30" d="M142.85,58.37h-.29c-1.12-.1-1.85-.43-2.11-1a1.86,1.86,0,0,1,.3-1.74c.74-1.18,2.62-1.71,4.05-1.71,1.16,0,2.1.32,2.35.81s-.09.93-.37,1.29a5.22,5.22,0,0,1-3.93,2.32Z"/><path class="cls-31" d="M144.8,54.45c1.12,0,1.79.31,1.9.54s0,.38-.32.76a4.71,4.71,0,0,1-3.53,2.12h-.24c-.9-.08-1.54-.34-1.72-.69a1.43,1.43,0,0,1,.28-1.25,4.44,4.44,0,0,1,3.63-1.47m0-1c-1.69,0-3.65.63-4.47,1.94-1,1.52-.68,3.21,2.19,3.46l.33,0a5.73,5.73,0,0,0,4.33-2.52c1.44-1.91-.26-2.9-2.38-2.9Z"/></g></g></g></g></g></svg>