<?xml version="1.0" encoding="utf-8"?>
<!-- Generator: Adobe Illustrator 25.1.0, SVG Export Plug-In . SVG Version: 6.00 Build 0)  -->
<svg version="1.1" id="Layer_1" xmlns="http://www.w3.org/2000/svg" xmlns:xlink="http://www.w3.org/1999/xlink" x="0px" y="0px"
	 viewBox="0 0 246.2 128.9" style="enable-background:new 0 0 246.2 128.9;" xml:space="preserve">
<style type="text/css">
	.st0{fill:#A8AFAF;}
	.st1{fill:#DCE2E2;}
	.st2{fill:#F2F4F4;}
	.st3{fill:#C9D2D2;}
</style>
<path class="st0" d="M246.1,59.6c-6.5-12.2-34.6-0.8-39.1-1.2c-3.2-0.2-6.3,2.3-7.2,6.9c-0.7,3.4-0.4,7,1,10.3
	c2.5,5.5,34.3,11.2,38.7,11.2c2.2,0,3.5-0.5,4.1-1.3c0,0,0,0,0,0c0,0,0-0.1,0.1-0.1c0,0,0,0,0,0c0.1-0.2,0.3-0.4,0.3-0.6l0,0
	c0,0,0,0,0,0c0.6-1.6-0.3-3.9-1.2-6.2l0.1,0c-0.1-0.3-0.2-0.6-0.3-0.9l-0.1,0c-0.3-0.8-0.6-1.6-0.8-2.4c-0.1-0.4-0.2-0.9-0.3-1.3
	l0.1,0c-0.1-0.3-0.1-0.6-0.1-0.9h-0.1c-0.2-1.8,0-3.7,0.7-5.5c0-0.1,0-0.1,0.1-0.2c0,0,0,0,0,0c0,0,0,0,0,0c0.5-1.1,2.3-3.2,3.4-5
	l0,0c0.1-0.2,0.3-0.4,0.4-0.6l0,0C246.2,61,246.4,60.2,246.1,59.6z"/>
<path class="st0" d="M155.1,9.5l0.1-0.2c-0.2,0-0.4-0.2-0.6-0.3l0,0c-1.3-1-2.6-1.8-4-2.6l0-0.1L150.1,6l0,0.1
	c-0.3-0.2-0.5-0.3-0.8-0.5C148.1,5,147,4.5,145.8,4l0,0c-0.1,0-0.1-0.1-0.2-0.1c-5.8-2.4-11.7-3.5-17.7-3.8l0,0h-0.8l0,0
	c-2.2-0.1-4.5-0.1-6.8,0h-0.5l0,0c-8.9,0.5-17.9,2.2-26.8,3.8c-0.5,0.1-1,0.2-1.5,0.2l-0.5,0.1c-1.7,0.2-3.4,0.3-5.2,0.4
	c0,0,0,0,0,0h-0.8c0,0,0,0.1,0,0.1c-1.1,0.1-2.1,0.1-3.2,0.2c0,0,0,0,0,0l-0.2,0.1c-1.8,0.2-3.6,0.4-5.3,0.8l0-0.1l-0.5,0.1
	c0,0,0,0,0,0c-3.9,0.9-7.4,2.8-9.8,6.5c-2.9,4.6-16.9,23.4-14.7,29.3c2.1,5.6,17.1,3.6,21.2,3.5c10.2-0.2,20.8-5.2,31-6.8
	c7.5-1.2,15.2-2.5,22.8-3.1c5.4-0.4,12.5,0.8,17.5-1.5c5-2.3,11.9-14.5,15.3-20.5C158,11.8,156.6,10.6,155.1,9.5z"/>
<path class="st1" d="M188.3,86.9c0.5,0.8,1.1,1.5,1.7,2.3c0.1,0.1,0.1,0.2,0.2,0.2c0-0.1,0.1-0.3,0.1-0.4c0,0,0-0.1-0.1-0.1
	c-0.4-0.7-0.9-1.4-1.3-2l-0.8-0.1C188.2,86.9,188.2,86.9,188.3,86.9z"/>
<path class="st0" d="M164.4,85.5c-8.9,2.4-17.9,4.9-26.8,7.4c-6.7,1.9-15.3,3.4-20.5,9.3l0,0c-0.1,0.1-0.2,0.2-0.3,0.3l0,0
	c-1.1,1.2-2.7-6.3-3.2-4.5c-1.1,4.1,2.6,24.7,4.7,28.1c2.9,4.6,5.3,2.2,10,0.5c0.7-0.3,1.4-0.5,2.1-0.8l0,0h0.1l0,0
	c4.1-1.6,8.1-3.3,12-5.3l0,0l0.6-0.3l0,0c2.8-1.4,5.5-2.9,8.2-4.5c0,0,0,0,0,0l0.5-0.3c0,0,0,0,0,0c0.2-0.1,0.4-0.2,0.6-0.4
	c12.2-7.6,35.4-10.2,38.3-27.8C183.7,86.1,171.2,83.7,164.4,85.5z"/>
<path class="st1" d="M227.6,70.3c0,0-62,40.5-125.1,40.5c-56,0-94.2-31.9-102.1-39.1c-1-0.9,3.9-1.3,3.9-1.3s-5.1-2.8-4.2-3.6
	c8.6-7.5,56-44,113.1-44C176.4,22.8,227.6,70.3,227.6,70.3z"/>
<path class="st2" d="M30.8,63.2c0,2.9-1.8,5.2-4,5.2s-4-2.3-4-5.2s1.8-5.2,4-5.2S30.8,60.3,30.8,63.2z"/>
<path class="st3" d="M4.2,70.4l1.6,0.3c0.9,0.3,2.2,0.4,3.5,0.6s2.6,0.3,3.5,0.3l1.6,0.2h-1.6c-1.2,0-2.4,0-3.5-0.2l-1.9-0.3
	c-0.5-0.1-1.1-0.2-1.6-0.4L4.2,70.4z"/>
<g>
	<path class="st0" d="M39.1,58.1c0,0,0.3,0.4,0.7,1c0.3,0.4,0.5,0.8,0.8,1.3l0.5,0.8c0.1,0.3,0.3,0.6,0.4,1c0.3,0.8,0.6,1.5,0.8,2.3
		c0.3,0.9,0.5,1.8,0.6,2.7c0.2,1,0.3,2,0.3,3c0,0.5,0,1,0,1.6c0,0.5,0,1.1-0.1,1.6L43,75c-0.1,0.5-0.2,1-0.3,1.5
		c-0.1,0.5-0.2,1-0.4,1.5c-0.2,0.5-0.3,1-0.5,1.4c-0.3,0.8-0.7,1.7-1.1,2.4c-0.2,0.4-0.4,0.8-0.6,1.1l-0.7,0.9
		c-0.4,0.5-0.8,1-1.2,1.4c-0.3,0.3-0.6,0.6-1,0.9c-0.6,0.4-1,0.7-1,0.7s0.3-0.4,0.8-0.9c0.3-0.3,0.6-0.7,0.9-1.1
		c0.4-0.5,0.7-1,1-1.6c0.4-0.6,0.7-1.3,1-2c0.4-0.8,0.7-1.5,1-2.3c0.3-0.9,0.5-1.8,0.7-2.7c0.1-0.5,0.2-0.9,0.2-1.4l0.1-1.5
		c0.1-0.5,0-1,0.1-1.5c0-0.5,0-1,0-1.5c0-1-0.1-1.9-0.2-2.8s-0.2-1.8-0.4-2.6s-0.3-1.6-0.6-2.3s-0.4-1.3-0.6-1.9
		c-0.2-0.5-0.4-1-0.6-1.4C39.3,58.5,39.1,58.1,39.1,58.1z"/>
	<path class="st0" d="M93.8,42.5l0.4,0.4c0.2,0.2,0.3,0.3,0.4,0.5c0.2,0.2,0.3,0.5,0.5,0.8c0.4,0.7,0.6,1.4,0.8,2.2
		c0.1,0.4,0.2,0.9,0.2,1.3c0.1,0.5,0.1,1,0.1,1.4c0,0.5,0,1-0.1,1.4c-0.1,0.5-0.2,0.9-0.3,1.3c-0.1,0.4-0.3,0.8-0.4,1.2
		c-0.1,0.3-0.3,0.6-0.5,0.9c-0.2,0.2-0.3,0.5-0.5,0.7c-0.1,0.2-0.3,0.3-0.5,0.5l-0.4,0.3l0.3-0.5c0.1-0.2,0.2-0.4,0.3-0.6
		c0.1-0.2,0.3-0.5,0.4-0.8c0.1-0.3,0.3-0.7,0.4-1c0.1-0.4,0.2-0.7,0.3-1.1c0.1-0.4,0.2-0.8,0.2-1.2c0.1-0.4,0.1-0.9,0.1-1.3
		c0-0.4,0-0.9-0.1-1.3c0-0.4-0.1-0.8-0.2-1.2s-0.2-0.8-0.3-1.1c-0.1-0.3-0.2-0.7-0.3-1c-0.2-0.5-0.4-1-0.6-1.4L93.8,42.5z"/>
	<path class="st0" d="M97.3,78.4l0.4,0.4c0.1,0.2,0.3,0.3,0.4,0.5c0.2,0.2,0.3,0.5,0.5,0.8c0.4,0.7,0.7,1.4,0.8,2.2
		c0.1,0.4,0.2,0.9,0.2,1.3c0.1,1,0.1,1.9,0,2.9c-0.1,0.5-0.2,0.9-0.3,1.3c-0.1,0.4-0.3,0.8-0.4,1.2c-0.1,0.3-0.3,0.6-0.5,0.9
		c-0.2,0.2-0.3,0.5-0.5,0.7c-0.1,0.2-0.3,0.3-0.5,0.4L97,91.3l0.3-0.5c0.1-0.2,0.2-0.4,0.3-0.6c0.1-0.2,0.3-0.5,0.4-0.8
		c0.1-0.3,0.3-0.6,0.4-0.9c0.1-0.3,0.2-0.7,0.3-1.1s0.2-0.8,0.2-1.2c0-0.4,0.1-0.8,0.1-1.3c0-0.4,0-0.9,0-1.3c0-0.4-0.1-0.8-0.2-1.2
		s-0.2-0.8-0.3-1.1c-0.1-0.3-0.2-0.7-0.3-1c-0.2-0.5-0.4-1-0.6-1.4L97.3,78.4z"/>
	<path class="st0" d="M124.7,62.5l0.4,0.4c0.2,0.2,0.3,0.3,0.4,0.5c0.2,0.2,0.3,0.5,0.5,0.8c0.4,0.7,0.7,1.4,0.8,2.2
		c0.1,0.4,0.2,0.9,0.3,1.3c0.1,0.5,0.1,1,0.1,1.4c0,0.5,0,1-0.1,1.4c-0.1,0.5-0.2,0.9-0.3,1.3c-0.1,0.4-0.3,0.8-0.4,1.2
		c-0.1,0.3-0.3,0.6-0.5,0.9c-0.2,0.2-0.3,0.5-0.5,0.7c-0.1,0.2-0.3,0.3-0.4,0.4l-0.4,0.3l0.3-0.5c0.1-0.2,0.2-0.4,0.3-0.6
		c0.1-0.2,0.3-0.5,0.4-0.8c0.1-0.3,0.3-0.6,0.4-0.9c0.1-0.3,0.2-0.7,0.3-1.1s0.2-0.8,0.2-1.2c0.1-0.9,0.1-1.7,0-2.6
		c0-0.4-0.1-0.8-0.2-1.2c-0.1-0.4-0.2-0.8-0.3-1.1s-0.2-0.7-0.3-1c-0.2-0.5-0.4-1-0.6-1.4L124.7,62.5z"/>
	<path class="st0" d="M150.4,42.5l0.4,0.4c0.2,0.2,0.3,0.3,0.4,0.5c0.2,0.2,0.3,0.5,0.5,0.8c0.4,0.7,0.7,1.4,0.9,2.2
		c0.1,0.4,0.2,0.9,0.2,1.3c0.1,0.5,0.1,1,0.1,1.4c0,0.5,0,1-0.1,1.4c-0.1,0.5-0.2,0.9-0.3,1.3c-0.1,0.4-0.3,0.8-0.4,1.2
		c-0.1,0.3-0.3,0.6-0.5,0.9c-0.2,0.2-0.3,0.5-0.5,0.7c-0.1,0.2-0.3,0.3-0.5,0.5l-0.4,0.3l0.3-0.5c0.1-0.2,0.2-0.4,0.3-0.6
		c0.1-0.2,0.3-0.5,0.4-0.8c0.1-0.3,0.3-0.7,0.4-1c0.1-0.3,0.2-0.7,0.3-1.1s0.1-0.8,0.2-1.2c0.1-0.4,0.1-0.9,0.1-1.3
		c0-0.4,0-0.9-0.1-1.3c0-0.4-0.1-0.8-0.2-1.2s-0.2-0.8-0.3-1.1s-0.2-0.7-0.3-1c-0.2-0.5-0.4-1-0.6-1.4L150.4,42.5z"/>
	<path class="st0" d="M166.4,70.4l0.4,0.4c0.2,0.2,0.3,0.3,0.4,0.5c0.2,0.2,0.3,0.5,0.5,0.8c0.4,0.7,0.7,1.4,0.8,2.2
		c0.1,0.4,0.2,0.9,0.3,1.3c0.1,0.5,0.1,1,0.1,1.4c0,0.5,0,1-0.1,1.4c-0.1,0.5-0.2,0.9-0.3,1.3c-0.1,0.4-0.3,0.8-0.4,1.2
		c-0.1,0.3-0.3,0.6-0.5,0.9c-0.2,0.2-0.3,0.5-0.5,0.7c-0.1,0.2-0.3,0.3-0.4,0.4l-0.4,0.3l0.3-0.5c0.1-0.2,0.2-0.4,0.3-0.6
		c0.1-0.2,0.3-0.5,0.4-0.8c0.1-0.3,0.3-0.7,0.4-1c0.1-0.3,0.2-0.7,0.3-1.1s0.1-0.8,0.2-1.2c0-0.4,0.1-0.8,0.1-1.2c0-0.4,0-0.9,0-1.3
		c0-0.4-0.1-0.8-0.2-1.2c-0.1-0.4-0.2-0.8-0.3-1.1s-0.2-0.7-0.3-1c-0.2-0.5-0.4-1-0.6-1.4L166.4,70.4z"/>
	<path class="st0" d="M192.5,60.3l0.4,0.4c0.1,0.2,0.3,0.3,0.4,0.5c0.2,0.2,0.3,0.5,0.5,0.8c0.6,1.1,1,2.3,1.1,3.5
		c0.1,0.5,0.1,1,0.1,1.4c0,0.5,0,1-0.1,1.4c-0.1,0.5-0.2,0.9-0.3,1.3c-0.1,0.4-0.3,0.8-0.4,1.2c-0.3,0.6-0.6,1.1-1,1.6
		c-0.1,0.2-0.3,0.3-0.5,0.4l-0.4,0.3l0.3-0.5c0.1-0.2,0.2-0.4,0.3-0.6c0.1-0.2,0.3-0.5,0.4-0.8c0.1-0.3,0.3-0.7,0.4-1
		c0.1-0.3,0.2-0.7,0.3-1.1c0.1-0.4,0.1-0.8,0.2-1.2c0.1-0.4,0.1-0.9,0.1-1.3c0-0.4,0-0.9-0.1-1.3c0-0.4-0.1-0.8-0.2-1.2
		c-0.1-0.4-0.2-0.8-0.3-1.1s-0.2-0.7-0.3-1c-0.2-0.5-0.4-1-0.6-1.4L192.5,60.3z"/>
	<path class="st0" d="M29.1,63.2c0,1.7-1,3-2.3,3s-2.3-1.3-2.3-3s1-3,2.3-3S29.1,61.5,29.1,63.2z"/>
	<path class="st0" d="M60.9,117.4c9.1-0.8,12.2-1.9,11.9-12.3c-0.2-7.9-3.5-7.2-9.6-9.5c-5.4-2-11.2-6.5-11.2,1.3
		C51.9,98.9,61.3,117.3,60.9,117.4z"/>
</g>
</svg>
