<?xml version="1.0" encoding="utf-8"?>
<!-- Generator: Adobe Illustrator 25.1.0, SVG Export Plug-In . SVG Version: 6.00 Build 0)  -->
<svg version="1.1" id="Layer_1" xmlns="http://www.w3.org/2000/svg" xmlns:xlink="http://www.w3.org/1999/xlink" x="0px" y="0px"
	 viewBox="0 0 750.4 401.4" style="enable-background:new 0 0 750.4 401.4;" xml:space="preserve">
<style type="text/css">
	.st0{fill:#B3BFC7;}
	.st1{opacity:0.6;fill:#A1B0BA;enable-background:new    ;}
	.st2{fill:#A9B6C0;}
	.st3{fill:#D1D8DD;}
</style>
<g id="Layer_2_1_">
	<g id="Layer_1-2">
		<path class="st0" d="M267.5,360.2c0,0,4.8,9.5,13.9,7.6c9.1-1.9,34.6-10.4,50.3-14.9s26.1-5.3,51.3-13.3
			c25.2-8,53.7-20.2,72.2-30.6c18.6-10.4,29.6-17.9,14.2-17.5c-15.4,0.5-49.2,9.1-61.6,14.4c-12.4,5.2-95.9,27.9-130.3,32.3
			C261.9,341,261.3,350.3,267.5,360.2z"/>
		<path class="st0" d="M262.9,309.5c0,0-0.9,10.3,8.3,12c9.2,1.7,36.5,3.5,53,5.2c16.5,1.7,26.2,4.9,53.1,7
			c26.8,2.1,59,1.8,81.1-0.7c22.1-2.5,36.2-5.1,22.1-10.4c-14-5.3-49-10-62.9-9.9s-100.9-10.4-134.1-19.2
			C268.3,290.2,262.7,298.3,262.9,309.5z"/>
		<path class="st0" d="M297.1,366.6c0,0,1.6,10.2,10.9,10.4c9.4,0.1,36.6-2.5,53.2-3.5s26.8,0.5,53.7-1.7s58.2-7.8,79.4-13.9
			c21.1-6.1,34.3-10.9,19.2-13.8s-50.4-1.8-64,0.5s-101.4,6.2-136,3C297.8,346.8,294.2,355.7,297.1,366.6z"/>
		<path class="st1" d="M698.3,156.9c-9.5-3.3-20.4,3-27.8,8.4c-9.9,7.6-18.8,16-26.6,25.1c-8.1,9-17.6,16.2-26.3,24.5
			c-3.3,3.1-7.9,8.8-12.8,12.6c-1.5-0.2-2.9-0.8-3.9-1.8c-3.7-3.3-0.7-14.1,0-17.9c1.3-6.6,3.9-13.7,1.9-20.5
			c-4.8-16.2-26.7,0.2-34,5.7c-6.5,5-13.2,15.3-22,15.9c-8.5,0.6-11.4-9.8-11.6-16.8c-0.3-11.7,5.6-22.3,9.5-32.9
			c6.5-17.5,13.9-35,24.4-50.4c4.1-6.1,8.9-11.8,10.5-19.1c2.5-10.5-3.3-20.7-14-22.8c-9.6-1.9-20.2,6.6-26.4,12.8
			c-7.1,7-12.1,15.6-16.6,24.4c-4.6,9.1-8.2,18.5-12,28c-1.7,4.4-3.6,8.7-5.5,13c-1.9,4.8-3.4,9.7-4.6,14.7
			c-1.2,4.3-4.5,8.1-8.8,9.2c-7.1,1.8-7.4-10.3-7.1-14.1c0.8-10.8,4-21.1,6.9-31.4c2.7-9.4,5.5-18.9,8.9-28.1s8.1-18.3,11.5-27.6
			c2.8-7.6,13.1-37.1-1.4-39.5c-15.1-2.4-25.8,18.5-33.4,28.3c-12.2,15.7-20.6,33.8-29.6,51.7c-2.2,4.1-4.3,8.2-6.6,12.1
			c-1.1,1.8-2.2,3.6-3.3,5.3c0.2-0.2-2.7,3.8-2.3,3.4c-2.3,3.1-4.8,6.1-7.3,9c-1.4,1.6-2.9,3.1-4.3,4.5c1.3-1.3-0.2-0.4-1.4,0.6
			c-0.4-0.2-0.8-0.3-1.2-0.4c0-0.1-0.2-0.4-0.9-1.2c-1.1-1.8-1.9-3.7-2.3-5.8c-2.2-9.1-0.6-18.2,2-27.1c2.6-8.9,6.1-16.2,6.6-25.2
			c0.3-5,2.8-12.6,0.4-17.3c-3.8-7.3-29.4,37.4-31.6,41.5c-12.4,23.6-24,47.5-42.7,66.5c-2.9,2.9-8.6,8.9-12.9,9.2
			c-8.3,0.6-10.8-12.1-11.2-18.1c-0.7-8.6,1.3-18.4,3.3-26.7c4.8-19.5,14.3-37.4,22.1-55.6c6.8-16,17.4-30.1,25-45.7
			c3.9-7.9,8.8-25.8-2.6-29.8c-6.3-2.2-13.5,2.2-18.6,5.5c-7,4.9-13.1,10.7-18,17.1c-11.1,13.8-19.1,30.4-26.4,46.5
			c-10.1,22.1-18.2,44.7-24.4,67.7c-2.2,8.4-1.7,17.4-4.2,25.8c-1,3.6-6.5,15-11.1,13.6c-5.9-1.9-1.6-17.3-0.8-21.4
			c1.5-8.2,4.3-16.3,8.1-24c2.2-4.2,17.9-25.7,13.2-30.3c-5.8-5.7-24,12.3-27.2,15.6c-11.3,11.6-18.4,26.1-27.7,39.2
			c-5.6,7.9-15,19.3-25.4,12.7c-10.4-6.6-11.2-24.1-7.9-34.7c5.4-17.7,22.3-28.2,36.6-37.8c10-6.8,35.5-20,36.4-34.6
			s-21.8-3.9-27.5-0.6c-17.8,10.3-32.7,26.7-44.3,43.8c-10.7,15.5-20.2,34.6-18.9,54.2c1,14,9.8,31,25.8,28.1
			c18.3-3.3,29.5-27.5,38.1-41.9c5.3-9.4,11.3-18.6,17.9-27.5c2.9-3.6,9.5-13.6,14.7-14c10.6-1-5.9,23.3-8.1,27.1
			c-8.1,14-24.8,36.9-20.3,54.4c3.7,14.4,19.2,8.7,27,1.4c11.8-10.9,15.5-27.7,18.8-43c8.3-39,14.5-79.2,39.8-111
			c3.9-4.9,16.2-22.6,23.8-18.7c8.4,4.2-3.7,16.5-6.5,20.5c-7.3,10.1-13.1,21.7-18.9,32.8c-10.4,19.9-19.8,41.1-23.9,63.5
			c-3,16.4-7.4,46.5,10.5,56.2c15.9,8.7,30.4-11,39.2-22.1c11.7-14.8,18.4-33.1,27.2-49.8c0-0.1,0-0.1,0-0.2
			c-5.7,16.3-6.6,35.8,4,49.8c6.8,8.9,20,6.6,28.7,3.2c9.7-3.8,18.2-13.1,24.7-21.1c12.5-15.5,17.9-35.1,23.2-54
			c2.5-8.9,4.8-17.8,7.7-26.7c3.1-9.1,7.4-17.8,12.9-26c2.1-3.4,4.8-6.5,8-9.1c6.7-5.2,8.6,3.1,8.9,8c0.6,9.8-4.3,21.1-7.9,30
			c-7.4,18.6-13.5,37.5-18.4,56.7c-2,8.4-3.4,16.8-4.3,25.3c-0.8,6.4,1,12.8,6.5,16.2c10.2,6.4,22.3-6.1,28.5-13.1
			c9.7-10.9,17.6-22.8,23.7-35.3c1.8-3.6,2.4-7.7,4.5-11.1c2.4-3.9,7.1-6.7,7.8,0.3c0.5,4.7-2,9.2-3,13.7c-1.4,7.4-3.5,14.8-6.1,22
			c-3.6,9.3-6.5,18.8-8.9,28.5c-3.4,12.9-11.3,36.1,6.8,42.1c8.4,2.8,17.2-2.9,24.2-7.1c4.3-2.7,8.6-5.3,12.8-8.3
			c2.1-1.6,4.4-3,6.7-4.2c-0.3,1.2-0.7,2.4-0.9,3.3c-0.8,3.8-1.3,7.6-1.5,11.5c-0.4,6.6-0.5,13.5,3.2,19.3
			c17.2,27.1,56.4-19.7,67.9-32.6c5.7-6.7,12.5-12.7,20.2-17.8c1.8-1.2,5.5-4.9,9.2-7.1l0,0c3.7-1.9,2.7,8.3,4.3,9.7
			C699.9,198.7,718.4,164,698.3,156.9z"/>
		<path class="st0" d="M210,198.5c2.7-36.9-28.8-58.3-44.2-60c-64.8,7.1-116,62.1-116,62.1s-7.9-0.7-5.3,3.4s10.6,6.1,10.6,6.1
			c-2.7,4.9,1.9,9.5,11.1,10.4c10.5,14.8,34.5,23,86.8,29.8C183.2,247.7,207.6,231.5,210,198.5z"/>
		<path class="st2" d="M714.3,166.8c-10.3-13.3-21.8-13.1-35.1-11c-13.4,2.1-11.8,0.4-70.4-14.4c-67.8-22.5-95.4-34.3-208.2-42.6
			c-81.3-6.1-162.9,7.8-234.7,39.7c15.4,1.7,46.9,23,44.2,60c-2.4,32.9-26.8,49.1-56.9,51.8c12.9,1.7,27.4,3.3,43.9,4.9
			c237.1,28.9,331.8,0.2,372.7-10.2c40.9-10.4,82.7-29.1,104.2-36.7c21.6-7.6,21.8-8.5,30.3-7.4
			C716.6,202.8,724.5,180.1,714.3,166.8z"/>
		<path class="st3" d="M147,187.9c0,6.3-6.1,11.4-13.8,11.4c-7.6,0-13.8-5.1-13.8-11.4c0-6.3,6.1-11.4,13.8-11.4c0,0,0,0,0,0
			C140.9,176.5,147,181.6,147,187.9z"/>
	</g>
</g>
</svg>
