<svg xmlns="http://www.w3.org/2000/svg" viewBox="0 0 246.24 128.87"><defs><style>.cls-1{isolation:isolate;}.cls-2{fill:#c9d2d2;}.cls-3,.cls-7,.cls-8{fill:#dce2e2;}.cls-4{fill:#f2f4f4;}.cls-5{fill:#264a49;}.cls-6{fill:#fff;}.cls-7,.cls-8{opacity:0.2;}.cls-7{mix-blend-mode:screen;}.cls-8{mix-blend-mode:multiply;}</style></defs><g class="cls-1"><g id="Layer_2" data-name="Layer 2"><g id="Layer_1-2" data-name="Layer 1"><path class="cls-2" d="M246.1,59.62c1,1.8-3.25,6-4.11,7.87a11.7,11.7,0,0,0-.28,7.81c1.15,4.76,6,11.58-2.22,11.47-4.37,0-36.25-5.72-38.71-11.18a17.63,17.63,0,0,1-.95-10.27c.86-4.55,3.95-7.1,7.16-6.87C211.47,58.77,239.63,47.46,246.1,59.62Z"/><path class="cls-3" d="M216,74V74s2.46.37,6.16.64l3,.22c1,.16,2.16.25,3.31.39s2.34.28,3.54.45c.6.11,1.21.19,1.81.33l1.81.5,3.6,1L241,78l1.71.56.16.06c-.11-.32-.23-.63-.35-.94l-1.41-.41-1.78-.4-3.64-.73c-1.22-.26-2.44-.5-3.65-.64s-2.4-.4-3.54-.64-2.26-.47-3.32-.64-2.06-.14-3-.19C218.45,73.88,216,74,216,74Z"/><path class="cls-3" d="M244,84.85c-1.06-.39-2.17-.92-3.34-1.24L237,82.67a37.08,37.08,0,0,0-3.78-.73l-3.79-.63c-1.25-.19-2.48-.38-3.67-.61s-2.33-.46-3.42-.62-2.11-.31-3.07-.43-1.82-.33-2.59-.43l-2-.33-1.75-.25v.08l1.71.49,2,.51a25.78,25.78,0,0,0,2.57.56c1.91.34,4.15.63,6.54.84,1.19.1,2.43.26,3.68.43s2.5.52,3.76.81a36.32,36.32,0,0,1,3.72,1l3.61,1c1.09.35,2.12.78,3.11,1.15a1.9,1.9,0,0,0,.39-.67Z"/><path class="cls-3" d="M228,60.4c-2.07,0-4,.14-5.64.32-3.29.24-5.49.6-5.49.6v.08s2.2.1,5.5,0c.83,0,1.72-.09,2.66-.19s1.94-.24,3-.35,2.09-.17,3.17-.22a18.93,18.93,0,0,1,3.28.08l3.27.31a19.29,19.29,0,0,1,3.13.52c1,.23,2,.33,2.93.59l1.6.4c.14-.22.26-.44.37-.65l-1.87-.54c-.94-.25-1.92-.41-2.94-.6a18.31,18.31,0,0,0-3.18-.4l-3.31-.06c-1.1,0-2.2.07-3.28.11S229,60.42,228,60.4Z"/><path class="cls-3" d="M237.32,66.67l-3-.15a49.1,49.1,0,0,1-5.89.17c-.94,0-1.85-.08-2.71,0s-1.67,0-2.43.09c-3,.15-5,.44-5,.44v.08s2,.17,5,.12c1.5,0,3.25-.09,5.13-.26a47.19,47.19,0,0,1,5.86-.16l3,.4a23,23,0,0,1,2.84.53c.54.13,1.07.22,1.58.32a7,7,0,0,1,.28-.71.08.08,0,0,1,0,0c-.58-.14-1.18-.25-1.8-.37A21,21,0,0,0,237.32,66.67Z"/><path class="cls-3" d="M223.56,71.53c.79,0,1.64.11,2.54.13s1.85.11,2.84.16a54,54,0,0,1,6.13.73l3.09.71c1,.24,2,.41,3,.67l.29.08c-.05-.29-.1-.57-.14-.86h-.06c-2-.41-4-.72-6.13-1A52.68,52.68,0,0,1,229,71.4a21.38,21.38,0,0,0-2.83-.4c-.9-.08-1.76-.09-2.54-.12-3.16-.09-5.26,0-5.26,0V71S220.41,71.32,223.56,71.53Z"/><path class="cls-2" d="M118.37,126.21c2.86,4.6,5.34,2.2,10,.5a133.27,133.27,0,0,0,24.1-11.63c12.16-7.55,35.36-10.21,38.27-27.84-7-1.18-19.57-3.55-26.35-1.72-8.92,2.41-17.92,4.9-26.82,7.42-6.86,1.93-15.57,3.4-20.76,9.6-1.09,1.31-2.72-6.27-3.18-4.47C112.54,102.21,116.26,122.8,118.37,126.21Z"/><path class="cls-2" d="M66,12.27c5.77-9,18.07-6.79,27-8.35C112,.62,131.41-3.67,149.24,5.61a40.12,40.12,0,0,1,10,7.57c-3.43,6-10.3,18.2-15.33,20.54s-12.17,1.11-17.54,1.53c-7.61.6-15.28,1.87-22.82,3.1C93.38,40,82.72,45,72.57,45.15c-4.1.07-19.08,2.07-21.22-3.54C49.08,35.63,63.06,16.88,66,12.27Z"/><path class="cls-3" d="M102.43,13c-.5,1-1,1.92-1.49,2.85s-1,1.8-1.38,2.67-.8,1.71-1.12,2.51-.64,1.51-.89,2.16-.41,1.25-.56,1.73c-.28,1-.43,1.54-.43,1.54l0,0L97.22,25c.21-.45.39-1,.69-1.65s.62-1.31,1-2.07L100,18.86c.41-.87.79-1.83,1.22-2.8s.89-1.95,1.37-2.94,1-1.95,1.56-2.91c1.12-1.89,2.14-3.86,3.16-5.65.65-1.17,1.25-2.29,1.82-3.33l-.81.11c-.49.87-1,1.8-1.52,2.76-1,1.84-2,3.84-2.93,5.87C103.4,11,102.92,12,102.43,13Z"/><path class="cls-3" d="M100.7,3.75c-1,1.84-2,3.85-2.93,5.88-.47,1-1,2-1.44,3l-1.49,2.84c-.48.93-1,1.81-1.38,2.68s-.8,1.71-1.13,2.5-.63,1.52-.88,2.17-.41,1.25-.56,1.73l-.44,1.54.06,0s.22-.53.61-1.44c.2-.45.39-1,.69-1.65s.61-1.31,1-2.08l1.12-2.46c.42-.86.8-1.82,1.22-2.79s.9-2,1.38-2.94,1-2,1.55-2.91C99.17,8,100.19,6,101.21,4.22l1.05-1.91-.85.14Z"/><path class="cls-3" d="M143.93,18.26c-.48.92-1,1.8-1.38,2.67s-.8,1.71-1.13,2.5-.63,1.52-.88,2.17-.41,1.25-.56,1.73l-.44,1.54.06,0,.61-1.44c.2-.45.39-1,.69-1.65s.61-1.31,1-2.08.73-1.58,1.12-2.46.8-1.82,1.22-2.79.9-1.95,1.38-2.94,1-2,1.55-2.91c1.13-1.89,2.15-3.86,3.17-5.65l.33-.6-.58-.33-.26.47c-1,1.83-2,3.84-2.93,5.87-.47,1-1,2-1.44,3S144.41,17.33,143.93,18.26Z"/><path class="cls-3" d="M74.12,19.05c.5-1,1-2,1.56-2.92,1.12-1.89,2.14-3.86,3.16-5.65s1.92-3.51,2.71-5c.12-.21.22-.41.33-.62L81.23,5c0,.06-.07.1-.1.16-.88,1.38-1.8,3.09-2.79,4.91s-2,3.84-2.93,5.87c-.47,1-1,2-1.44,3l-1.49,2.85c-.49.93-1,1.8-1.39,2.67s-.8,1.71-1.12,2.51-.63,1.51-.88,2.17-.41,1.24-.56,1.73l-.44,1.53,0,0s.23-.52.62-1.43c.2-.45.38-1,.68-1.66s.62-1.31,1-2.07l1.13-2.46c.41-.87.8-1.83,1.22-2.8S73.64,20,74.12,19.05Z"/><path class="cls-3" d="M154.6,9l-1,1.92c-1,1.83-2,3.84-2.93,5.87-.47,1-1,2-1.44,3s-1,1.92-1.49,2.85-1,1.8-1.38,2.67-.8,1.71-1.13,2.5-.63,1.52-.88,2.17-.41,1.25-.56,1.73l-.44,1.54.06,0,.61-1.44c.2-.45.39-1,.69-1.65s.61-1.31,1-2.07l1.12-2.47c.42-.86.8-1.82,1.22-2.79s.9-1.95,1.38-2.94,1-2,1.55-2.92c1.12-1.88,2.15-3.85,3.17-5.64l1.07-2C155,9.31,154.78,9.16,154.6,9Z"/><path class="cls-3" d="M90.06,5.71c-1,1.84-2,3.84-2.93,5.87q-.7,1.55-1.44,3c-.51,1-1,1.92-1.49,2.84s-1,1.8-1.38,2.67-.8,1.71-1.13,2.51-.63,1.51-.88,2.17-.41,1.24-.56,1.73l-.44,1.53.06,0,.61-1.43c.21-.45.39-1.05.69-1.66s.61-1.31,1-2.07l1.13-2.46c.41-.87.79-1.82,1.21-2.8s.89-1.94,1.38-2.93,1-2,1.55-2.92C88.53,9.93,89.55,8,90.57,6.18l1.12-2.06-.81.1Z"/><path class="cls-3" d="M64.94,27.5c.41-.87.8-1.83,1.22-2.8s.89-1.95,1.38-2.93,1-2,1.55-2.92C70.21,17,71.23,15,72.25,13.2s1.92-3.51,2.71-5c.39-.74.75-1.41,1.07-2l.31-.57-.53.14c-.39.58-.81,1.25-1.27,2-.88,1.38-1.8,3.09-2.79,4.91s-2,3.84-2.93,5.87c-.47,1-.95,2-1.44,3l-1.49,2.85c-.48.92-1,1.8-1.39,2.67s-.79,1.71-1.12,2.51-.64,1.51-.88,2.17-.41,1.24-.56,1.72l-.44,1.54.06,0,.61-1.44c.2-.45.38-1,.69-1.65s.61-1.31,1-2.07Z"/><path class="cls-3" d="M95.7,4.77c-1,1.84-2,3.84-2.93,5.88-.47,1-1,2-1.44,3l-1.49,2.84c-.48.93-1,1.8-1.38,2.68s-.8,1.71-1.13,2.5-.63,1.52-.88,2.17-.41,1.25-.56,1.73l-.44,1.54.06,0s.22-.53.61-1.44c.2-.45.39-1,.69-1.65s.61-1.31,1-2.08l1.12-2.46c.42-.86.8-1.82,1.22-2.8s.9-1.94,1.38-2.93,1-2,1.55-2.92C94.16,9,95.19,7,96.21,5.24l1.13-2.08-.84.15Z"/><path class="cls-3" d="M128.69,11.46c.5-1,1-2,1.56-2.91,1.12-1.89,2.14-3.86,3.16-5.65L134.56.81,133.85.7l-.94,1.74c-1,1.84-2,3.84-2.93,5.87-.48,1-.95,2-1.44,3s-1,1.93-1.5,2.85-1,1.8-1.38,2.67-.8,1.71-1.12,2.51-.64,1.51-.89,2.16-.41,1.25-.56,1.73c-.27,1-.43,1.54-.43,1.54l0,0s.23-.52.61-1.44c.21-.45.39-1,.69-1.65s.62-1.31,1-2.07l1.13-2.46c.41-.87.79-1.83,1.22-2.8S128.21,12.45,128.69,11.46Z"/><path class="cls-3" d="M129.24,24.85c.2-.45.39-1.05.69-1.65s.61-1.32,1-2.08.73-1.59,1.12-2.46.8-1.82,1.22-2.79.9-1.95,1.38-2.94,1-2,1.55-2.92c1.12-1.88,2.15-3.85,3.17-5.64.42-.76.82-1.5,1.2-2.21L139.88,2,138.82,3.9c-1,1.84-2,3.84-2.93,5.87q-.7,1.55-1.44,3c-.51,1-1,1.92-1.49,2.84s-1,1.8-1.38,2.68a27,27,0,0,0-1.13,2.5c-.33.79-.63,1.52-.88,2.17s-.41,1.24-.56,1.73l-.44,1.53.06,0Z"/><path class="cls-3" d="M136,23.54c.3-.61.61-1.32,1-2.07s.73-1.59,1.12-2.47.8-1.82,1.22-2.79.9-2,1.38-2.94,1-2,1.55-2.92c1.13-1.88,2.15-3.85,3.17-5.64l.39-.71c-.21-.09-.42-.15-.64-.24l-.26.49c-1,1.83-2,3.83-2.93,5.87-.47,1-1,2-1.44,3L139.06,16c-.48.93-1,1.81-1.38,2.68s-.8,1.71-1.13,2.51-.63,1.51-.88,2.16-.41,1.25-.56,1.73l-.44,1.54.06,0,.61-1.44C135.55,24.74,135.73,24.15,136,23.54Z"/><path class="cls-3" d="M83.18,8.06c-1,1.84-2,3.84-2.93,5.87q-.7,1.55-1.44,3L77.32,19.8c-.48.92-1,1.8-1.39,2.67s-.79,1.71-1.12,2.51-.63,1.51-.88,2.17-.41,1.24-.56,1.73l-.44,1.53.06,0s.22-.53.61-1.44c.2-.45.39-1.05.69-1.65s.61-1.32,1-2.08l1.12-2.46c.42-.87.8-1.83,1.22-2.8s.89-1.95,1.38-2.93,1-2,1.55-2.92c1.12-1.88,2.15-3.86,3.17-5.65.76-1.38,1.48-2.71,2.13-3.9l-.76,0C84.46,5.71,83.84,6.86,83.18,8.06Z"/><path class="cls-3" d="M118.4,2.75c-1,1.84-2,3.84-2.93,5.88-.47,1-.94,2-1.43,3l-1.5,2.84c-.48.93-1,1.8-1.38,2.68s-.8,1.71-1.12,2.5-.64,1.52-.89,2.17-.41,1.25-.56,1.73c-.27,1-.43,1.54-.43,1.54l0,0s.22-.53.61-1.44c.21-.45.39-1.05.69-1.65s.62-1.31,1-2.08l1.13-2.46c.41-.87.79-1.82,1.22-2.8s.89-1.94,1.37-2.93,1-2,1.56-2.92C116.87,7,117.89,5,118.91,3.22c.61-1.09,1.17-2.14,1.7-3.12l-.77,0Z"/><path class="cls-3" d="M105.6,17.17c.41-.86.79-1.82,1.22-2.79s.89-2,1.37-2.94,1-1.95,1.56-2.92c1.12-1.88,2.14-3.85,3.16-5.64.44-.79.85-1.55,1.25-2.29l-.81.1-.95,1.73c-1,1.83-2,3.84-2.93,5.87-.47,1-1,2-1.44,3s-1,1.92-1.49,2.85-1,1.8-1.38,2.67-.8,1.71-1.12,2.5-.64,1.52-.89,2.17-.41,1.25-.56,1.73c-.28,1-.43,1.54-.43,1.54l0,0,.61-1.44c.21-.45.39-1,.69-1.65s.62-1.31,1-2.07Z"/><path class="cls-3" d="M122.48,9.51c-.5,1-1,1.92-1.49,2.84s-1,1.81-1.38,2.68-.8,1.71-1.12,2.5-.64,1.52-.89,2.17-.41,1.25-.56,1.73c-.28,1-.43,1.54-.43,1.54l0,0s.22-.53.61-1.44c.21-.45.39-1,.69-1.65s.61-1.31,1-2.08l1.13-2.46c.41-.86.79-1.82,1.21-2.79s.9-1.95,1.38-2.94,1-2,1.56-2.92c1.12-1.88,2.14-3.85,3.16-5.64l.54-1-.75,0-.3.53c-1,1.84-2,3.84-2.93,5.88C123.45,7.51,123,8.52,122.48,9.51Z"/><path class="cls-3" d="M129.17,118.63c-1.26-1.51-2.55-3.2-3.92-4.78-.67-.81-1.32-1.66-2-2.49s-1.23-1.68-1.77-2.56-1.06-1.69-1.6-2.45l-1.45-2.14c-.45-.67-.86-1.28-1.24-1.81l-.13-.2c-.1.11-.2.2-.29.32l.09.17c.34.59.75,1.22,1.18,1.92s.91,1.46,1.46,2.19,1.14,1.5,1.75,2.29l1.87,2.44c.62.84,1.24,1.73,1.85,2.62,1.23,1.76,2.49,3.49,3.72,5.06s2.38,3,3.45,4.15c.44.51.85,1,1.24,1.37l.44-.18-1.33-1.69C131.55,121.62,130.41,120.16,129.17,118.63Z"/><path class="cls-3" d="M172.18,93.32c.33.58.74,1.22,1.18,1.92a25.23,25.23,0,0,0,1.46,2.19c.53.75,1.13,1.5,1.74,2.29l1.87,2.43.48.68.22-.13c-.19-.24-.38-.47-.56-.71-.62-.86-1.24-1.68-1.77-2.56s-1.07-1.7-1.6-2.45l-1.46-2.15c-.45-.66-.86-1.27-1.24-1.8s-.65-1.07-.91-1.46l-.81-1.26-.05,0,.65,1.4A14.67,14.67,0,0,0,172.18,93.32Z"/><path class="cls-3" d="M181.78,86.54c.22.43.46,1,.8,1.56s.74,1.22,1.18,1.92.91,1.46,1.46,2.19,1.14,1.5,1.75,2.29l.53.69.18-.26c-.16-.24-.33-.47-.48-.72-.55-.85-1.07-1.7-1.6-2.45l-1.45-2.15c-.45-.66-.86-1.27-1.25-1.8s-.64-1.06-.91-1.46l-.37-.58-.2,0Z"/><path class="cls-3" d="M182.74,97.62c-.55-.85-1.06-1.7-1.6-2.45L179.68,93c-.44-.66-.85-1.28-1.24-1.8s-.64-1.07-.91-1.46l-.81-1.26,0,0,.64,1.41c.22.44.46,1,.8,1.56s.74,1.22,1.18,1.92a25.91,25.91,0,0,0,1.46,2.18c.53.76,1.14,1.5,1.75,2.3.37.49.77,1,1.16,1.5l.18-.16C183.46,98.72,183.08,98.18,182.74,97.62Z"/><path class="cls-3" d="M129.88,125.09l-1-1.28-1.34-1.71c-1-1.23-2.13-2.69-3.37-4.23s-2.55-3.2-3.92-4.78c-.67-.81-1.32-1.65-1.95-2.49s-1.23-1.67-1.77-2.55-1.06-1.7-1.59-2.45l-1.3-1.9c0,.39.08.8.13,1.22.24.38.5.75.78,1.12.54.76,1.14,1.5,1.75,2.3l1.87,2.43c.62.85,1.24,1.73,1.85,2.62,1.23,1.77,2.5,3.49,3.72,5.06s2.38,3,3.45,4.16,1.93,2.11,2.58,2.72l.66.61.13,0Z"/><path class="cls-3" d="M166.57,96.19c.34.58.75,1.22,1.18,1.92s.91,1.46,1.46,2.18,1.14,1.5,1.75,2.3,1.23,1.6,1.87,2.43l.51.73.24-.1c-.2-.27-.42-.53-.62-.8-.61-.85-1.23-1.67-1.77-2.55s-1.06-1.7-1.6-2.45l-1.45-2.15c-.45-.66-.86-1.28-1.24-1.8s-.65-1.07-.92-1.46l-.8-1.26-.05,0s.23.51.65,1.4C166,95.06,166.23,95.61,166.57,96.19Z"/><path class="cls-3" d="M122.87,124.25l1,1,0-.06L123,124l-1-1.28c-.4-.51-.85-1.08-1.33-1.71-1-1.23-2.13-2.69-3.37-4.22-.71-.85-1.42-1.74-2.15-2.65l.24,1.27c.49.67,1,1.33,1.47,2,1.24,1.55,2.39,3,3.45,4.15A35.47,35.47,0,0,0,122.87,124.25Z"/><path class="cls-3" d="M188.28,86.94c.53.76,1.14,1.5,1.74,2.3.06.08.13.15.18.23,0-.14.09-.28.13-.42a.86.86,0,0,1-.07-.1c-.45-.69-.88-1.37-1.31-2l-.77-.13A1.13,1.13,0,0,1,188.28,86.94Z"/><path class="cls-3" d="M136.27,119.27c-1.26-1.51-2.55-3.2-3.92-4.78-.67-.81-1.32-1.65-1.95-2.49s-1.23-1.68-1.77-2.55-1.07-1.7-1.6-2.45l-1.46-2.15c-.45-.66-.85-1.28-1.24-1.81s-.64-1.06-.91-1.45c-.51-.81-.81-1.26-.81-1.26l0,0,.65,1.4c.22.44.46,1,.8,1.57s.74,1.21,1.18,1.91a26,26,0,0,0,1.46,2.19c.53.76,1.14,1.5,1.74,2.29l1.88,2.44c.62.85,1.24,1.73,1.85,2.62,1.23,1.77,2.49,3.49,3.72,5.06.8,1,1.57,2,2.3,2.84l.63-.29Z"/><path class="cls-3" d="M135.07,102.4c-.39-.53-.65-1.07-.92-1.46l-.8-1.26,0,0s.23.51.65,1.4a16.82,16.82,0,0,0,.8,1.57c.33.58.74,1.21,1.17,1.91s.91,1.47,1.46,2.19,1.14,1.5,1.75,2.29l1.87,2.44c.62.85,1.24,1.73,1.85,2.62,1.11,1.59,2.23,3.12,3.34,4.56l.61-.33c-1.2-1.45-2.42-3-3.72-4.53-.67-.81-1.31-1.65-1.94-2.49s-1.24-1.67-1.78-2.55-1.06-1.7-1.59-2.45l-1.46-2.15C135.86,103.54,135.45,102.92,135.07,102.4Z"/><path class="cls-3" d="M141.94,118.83c-1.26-1.51-2.55-3.2-3.92-4.78-.67-.81-1.31-1.65-1.94-2.49s-1.24-1.68-1.77-2.55-1.07-1.7-1.6-2.45l-1.46-2.15c-.45-.66-.86-1.28-1.24-1.81s-.65-1.06-.91-1.45l-.81-1.27,0,.05.65,1.4a15.62,15.62,0,0,0,.8,1.56c.33.59.74,1.22,1.18,1.92a23.79,23.79,0,0,0,1.46,2.19c.53.76,1.13,1.5,1.74,2.29l1.87,2.44c.62.84,1.24,1.73,1.85,2.62,1.23,1.76,2.5,3.49,3.72,5.06l1,1.21.64-.32Z"/><path class="cls-3" d="M162.45,101c-.45-.67-.85-1.28-1.24-1.81s-.65-1.06-.91-1.45c-.51-.81-.81-1.27-.81-1.27l-.05,0,.65,1.4c.22.44.46,1,.8,1.56s.74,1.22,1.18,1.92a23.79,23.79,0,0,0,1.46,2.19c.53.76,1.14,1.5,1.74,2.29l1.88,2.44.07.1.21-.08-.15-.19c-.62-.85-1.24-1.68-1.77-2.55s-1.07-1.7-1.6-2.45Z"/><path class="cls-3" d="M149,112q-1-1.23-1.95-2.49c-.61-.86-1.24-1.68-1.77-2.55s-1.07-1.71-1.6-2.46l-1.46-2.14c-.45-.67-.85-1.28-1.24-1.81s-.64-1.06-.91-1.46l-.81-1.26,0,0s.24.51.65,1.41c.22.44.46,1,.8,1.56s.74,1.22,1.18,1.92a25.23,25.23,0,0,0,1.46,2.19c.53.75,1.14,1.5,1.74,2.29L147,109.7c.62.85,1.23,1.74,1.84,2.63.83,1.18,1.67,2.33,2.51,3.44l.54-.32C150.93,114.32,150,113.15,149,112Z"/><path class="cls-3" d="M160.62,110.54c-.67-.81-1.32-1.65-2-2.49s-1.23-1.67-1.77-2.55-1.06-1.7-1.6-2.45l-1.45-2.15c-.45-.66-.86-1.28-1.24-1.8s-.65-1.07-.92-1.46l-.8-1.26,0,0,.64,1.41c.22.43.46,1,.8,1.56s.75,1.22,1.18,1.91.91,1.47,1.46,2.19,1.14,1.5,1.75,2.3,1.23,1.6,1.87,2.43,1.24,1.73,1.85,2.62a2.07,2.07,0,0,0,.17.24l.38-.15Z"/><path class="cls-3" d="M154.77,112.32c-.67-.8-1.32-1.65-2-2.48s-1.23-1.68-1.77-2.56-1.06-1.7-1.59-2.45L148,102.69c-.45-.67-.86-1.28-1.24-1.81s-.65-1.06-.92-1.46l-.8-1.26,0,0s.23.51.65,1.41a15.62,15.62,0,0,0,.8,1.56c.33.58.74,1.22,1.17,1.92s.91,1.46,1.46,2.19,1.14,1.5,1.75,2.29,1.23,1.6,1.87,2.43,1.24,1.73,1.85,2.62l.65.92.42-.21Z"/><path class="cls-3" d="M227.55,70.27s-62,40.49-125.12,40.49c-56,0-94.21-31.89-102.09-39.07-1-.91,3.94-1.31,3.94-1.31S-.81,67.56.11,66.77c8.59-7.48,56-44,113.08-44C176.35,22.78,227.55,70.27,227.55,70.27Z"/><path class="cls-2" d="M39.14,58.08s.28.37.74,1a11,11,0,0,1,.77,1.29l.45.84c.14.31.27.64.42,1a19.93,19.93,0,0,1,.81,2.31,25.56,25.56,0,0,1,.61,2.73,24.27,24.27,0,0,1,.31,3,13.68,13.68,0,0,1,0,1.57c0,.52,0,1.06-.07,1.58L43,75c-.07.52-.19,1-.28,1.53A10.35,10.35,0,0,1,42.36,78c-.15.47-.27,1-.45,1.39a15.88,15.88,0,0,1-1.13,2.45c-.21.37-.39.75-.61,1.06l-.66.89a8.75,8.75,0,0,1-1.25,1.39,6.66,6.66,0,0,1-1,.92c-.61.45-1,.69-1,.69s.3-.36.82-.94a7,7,0,0,0,.89-1.1,15.46,15.46,0,0,0,1-1.55,14.77,14.77,0,0,0,1-2A21.87,21.87,0,0,0,41,78.86a26,26,0,0,0,.67-2.7c.08-.47.19-.94.25-1.42L42,73.28c.06-.48.05-1,.08-1.47a11.85,11.85,0,0,0,0-1.46c0-1-.09-1.92-.19-2.84s-.25-1.8-.42-2.62-.35-1.61-.58-2.3-.41-1.34-.63-1.88a13.42,13.42,0,0,0-.57-1.42C39.33,58.53,39.14,58.08,39.14,58.08Z"/><path class="cls-2" d="M69.09,47l.38.4a3.47,3.47,0,0,1,.41.51,4.76,4.76,0,0,1,.47.76,9.26,9.26,0,0,1,.85,2.17,10.79,10.79,0,0,1,.25,1.35,10.28,10.28,0,0,1,0,2.86,8.28,8.28,0,0,1-.29,1.35,7.3,7.3,0,0,1-.44,1.17,5.41,5.41,0,0,1-.53.93,3.57,3.57,0,0,1-.53.68,2.71,2.71,0,0,1-.45.45l-.42.34.31-.49a3.43,3.43,0,0,0,.34-.56,7.59,7.59,0,0,0,.39-.76,8.57,8.57,0,0,0,.37-.95c.13-.33.2-.72.31-1.1s.15-.79.19-1.22a9.07,9.07,0,0,0,.07-1.28c0-.43,0-.86,0-1.28s-.1-.84-.17-1.24-.16-.78-.26-1.14-.19-.69-.31-1a11.43,11.43,0,0,0-.6-1.42Z"/><path class="cls-2" d="M73.12,66l.38.4a3.14,3.14,0,0,1,.41.52,4.63,4.63,0,0,1,.47.75,9.75,9.75,0,0,1,1.1,3.52,11.2,11.2,0,0,1,.09,1.43A11.34,11.34,0,0,1,75.46,74a9.35,9.35,0,0,1-.28,1.34,8.39,8.39,0,0,1-.45,1.17,5.51,5.51,0,0,1-.52.94,5,5,0,0,1-.54.68,2.28,2.28,0,0,1-.45.44l-.42.34.32-.49a5.82,5.82,0,0,0,.34-.56c.11-.23.26-.46.38-.76a8.57,8.57,0,0,0,.37-1c.13-.33.2-.71.31-1.09s.15-.8.19-1.22a9.13,9.13,0,0,0,.07-1.29,11,11,0,0,0,0-1.28c0-.43-.1-.84-.17-1.24s-.16-.78-.26-1.13a9,9,0,0,0-.31-1,11,11,0,0,0-.6-1.43Z"/><path class="cls-2" d="M80,56.67l.38.4a3.47,3.47,0,0,1,.41.51,4.76,4.76,0,0,1,.47.76,9.26,9.26,0,0,1,.85,2.17,10.79,10.79,0,0,1,.25,1.35,11.2,11.2,0,0,1,.09,1.43,11.33,11.33,0,0,1-.11,1.43A9.21,9.21,0,0,1,82,66.07a8.39,8.39,0,0,1-.45,1.17,5.4,5.4,0,0,1-.52.93,4.61,4.61,0,0,1-.53.68,2.39,2.39,0,0,1-.46.45l-.42.34.32-.49a4.38,4.38,0,0,0,.33-.56,7.59,7.59,0,0,0,.39-.76,8.57,8.57,0,0,0,.37-1c.13-.33.2-.71.31-1.1s.15-.79.19-1.22a9.07,9.07,0,0,0,.07-1.28,10.87,10.87,0,0,0,0-1.28c0-.43-.1-.84-.17-1.24s-.16-.78-.26-1.14-.19-.69-.31-1a11.43,11.43,0,0,0-.6-1.42Z"/><path class="cls-2" d="M93.76,42.52l.38.4a3,3,0,0,1,.4.51,5.59,5.59,0,0,1,.48.76,9.74,9.74,0,0,1,.84,2.17,9.1,9.1,0,0,1,.25,1.34,13.74,13.74,0,0,1,.1,1.44,13.55,13.55,0,0,1-.11,1.43,11.1,11.1,0,0,1-.29,1.35,6.84,6.84,0,0,1-.45,1.16,5.15,5.15,0,0,1-.52.94,4,4,0,0,1-.53.68,2.73,2.73,0,0,1-.46.45l-.41.34.31-.49a5.82,5.82,0,0,0,.34-.56c.11-.23.27-.47.38-.76a8.57,8.57,0,0,0,.37-1,10.26,10.26,0,0,0,.31-1.1,9.42,9.42,0,0,0,.19-1.22,10.86,10.86,0,0,0,.08-1.28,11,11,0,0,0-.06-1.29c0-.42-.09-.84-.16-1.23s-.16-.78-.26-1.14a9.62,9.62,0,0,0-.32-1,10.84,10.84,0,0,0-.6-1.43Z"/><path class="cls-2" d="M97.33,78.37l.39.4a3.64,3.64,0,0,1,.4.51,5.12,5.12,0,0,1,.47.75,9.53,9.53,0,0,1,.85,2.18,9.1,9.1,0,0,1,.25,1.34,10.34,10.34,0,0,1,0,2.87,9.35,9.35,0,0,1-.28,1.34,7.93,7.93,0,0,1-.45,1.17,5.15,5.15,0,0,1-.52.94,4.61,4.61,0,0,1-.53.68,2.73,2.73,0,0,1-.46.45l-.42.33.32-.48a3.94,3.94,0,0,0,.33-.57,6.64,6.64,0,0,0,.39-.76,7.68,7.68,0,0,0,.37-.94c.13-.34.2-.72.31-1.1s.15-.8.19-1.22A9.07,9.07,0,0,0,99,85a11,11,0,0,0,0-1.29c0-.42-.1-.84-.17-1.24s-.16-.78-.26-1.13a9.69,9.69,0,0,0-.31-1,11.68,11.68,0,0,0-.6-1.43Z"/><path class="cls-2" d="M100.1,70.38l.39.39a4.34,4.34,0,0,1,.4.51,4.76,4.76,0,0,1,.47.76,9.26,9.26,0,0,1,.85,2.17,11.67,11.67,0,0,1,.34,2.78,11.49,11.49,0,0,1-.11,1.44,9.35,9.35,0,0,1-.28,1.34,8.39,8.39,0,0,1-.45,1.17,6.67,6.67,0,0,1-1,1.62,3.79,3.79,0,0,1-.46.45l-.42.33.32-.49a3.77,3.77,0,0,0,.33-.56,7.59,7.59,0,0,0,.39-.76,8.57,8.57,0,0,0,.37-1c.13-.33.2-.72.31-1.09s.15-.8.19-1.23a9,9,0,0,0,.07-1.28,10.87,10.87,0,0,0-.05-1.28c0-.43-.1-.84-.17-1.24s-.16-.78-.26-1.14-.19-.69-.31-1a10.08,10.08,0,0,0-.6-1.42Z"/><path class="cls-2" d="M102.87,82.37l.38.4a3.47,3.47,0,0,1,.41.51,4.76,4.76,0,0,1,.47.76,9.26,9.26,0,0,1,.85,2.17,10.79,10.79,0,0,1,.25,1.35,11.2,11.2,0,0,1,.09,1.43,11.33,11.33,0,0,1-.11,1.43,9.21,9.21,0,0,1-.28,1.35,8.39,8.39,0,0,1-.45,1.17,5.4,5.4,0,0,1-.52.93,4.61,4.61,0,0,1-.53.68A3.16,3.16,0,0,1,103,95l-.42.34.32-.49a4.38,4.38,0,0,0,.33-.56,7.83,7.83,0,0,0,.39-.77,7.68,7.68,0,0,0,.37-.94c.13-.33.2-.72.31-1.1s.15-.8.19-1.22a9.07,9.07,0,0,0,.07-1.28,10.87,10.87,0,0,0,0-1.28c0-.43-.1-.84-.17-1.24s-.16-.78-.26-1.14-.19-.69-.31-1a12.4,12.4,0,0,0-.6-1.43Z"/><path class="cls-2" d="M118.93,52.21l.39.4a3.49,3.49,0,0,1,.4.51,4.76,4.76,0,0,1,.47.76,9.79,9.79,0,0,1,1.1,3.51,9.86,9.86,0,0,1,0,2.87,10.71,10.71,0,0,1-.29,1.35,8.39,8.39,0,0,1-.45,1.17,5.4,5.4,0,0,1-.52.93,4,4,0,0,1-.53.68,3.16,3.16,0,0,1-.45.45l-.42.33.31-.48a5.82,5.82,0,0,0,.34-.56,7.92,7.92,0,0,0,.38-.77,7.68,7.68,0,0,0,.37-.94,11,11,0,0,0,.31-1.1,11.52,11.52,0,0,0,.19-1.22,10.86,10.86,0,0,0,.08-1.28,11,11,0,0,0-.06-1.29c0-.42-.1-.84-.17-1.24s-.16-.78-.25-1.13-.2-.7-.32-1a9.63,9.63,0,0,0-.6-1.43Z"/><path class="cls-2" d="M123.35,42.52l.39.4a3,3,0,0,1,.4.51,4.76,4.76,0,0,1,.47.76,8.85,8.85,0,0,1,.85,2.17,9.1,9.1,0,0,1,.25,1.34,13.74,13.74,0,0,1,.1,1.44,13.55,13.55,0,0,1-.11,1.43,11.1,11.1,0,0,1-.29,1.35,7.79,7.79,0,0,1-.45,1.16,5.15,5.15,0,0,1-.52.94,4.61,4.61,0,0,1-.53.68,2.73,2.73,0,0,1-.46.45l-.41.34.31-.49a5.82,5.82,0,0,0,.34-.56c.11-.23.27-.47.38-.76a8.57,8.57,0,0,0,.37-1,10.26,10.26,0,0,0,.31-1.1,11.52,11.52,0,0,0,.19-1.22,10.86,10.86,0,0,0,.08-1.28,11,11,0,0,0-.06-1.29c0-.42-.1-.84-.16-1.23s-.17-.78-.26-1.14-.2-.7-.32-1a10.84,10.84,0,0,0-.6-1.43Z"/><path class="cls-2" d="M124.74,62.48l.38.4a3.47,3.47,0,0,1,.41.51,5.12,5.12,0,0,1,.47.75,9.1,9.1,0,0,1,.84,2.18,11,11,0,0,1,.26,1.34,13.74,13.74,0,0,1,.09,1.44,11.33,11.33,0,0,1-.11,1.43,8.28,8.28,0,0,1-.29,1.35,7.3,7.3,0,0,1-.44,1.17,5.4,5.4,0,0,1-.52.93,4,4,0,0,1-.54.68,3.16,3.16,0,0,1-.45.45l-.42.34.31-.49a3.43,3.43,0,0,0,.34-.56,7.83,7.83,0,0,0,.39-.77,7.68,7.68,0,0,0,.37-.94c.13-.33.2-.72.31-1.1s.15-.8.19-1.22a12.64,12.64,0,0,0,0-2.56,11.64,11.64,0,0,0-.16-1.24c-.08-.4-.16-.78-.26-1.14s-.19-.7-.31-1A12.4,12.4,0,0,0,125,63Z"/><path class="cls-2" d="M139,78.37l.38.4a3,3,0,0,1,.4.51,6.12,6.12,0,0,1,.48.75,9.55,9.55,0,0,1,.84,2.18,10.6,10.6,0,0,1,.26,1.34,13.57,13.57,0,0,1,.09,1.44,11.33,11.33,0,0,1-.11,1.43,9.35,9.35,0,0,1-.29,1.34,7,7,0,0,1-.44,1.17,5.83,5.83,0,0,1-.53.94,4,4,0,0,1-.53.68,3.16,3.16,0,0,1-.45.45l-.42.33.31-.48a3.89,3.89,0,0,0,.34-.57,5.37,5.37,0,0,0,.38-.76,6.35,6.35,0,0,0,.37-.94,8.83,8.83,0,0,0,.31-1.1,11.5,11.5,0,0,0,.2-1.22c.05-.42.06-.85.07-1.28a11,11,0,0,0-.06-1.29,12.34,12.34,0,0,0-.17-1.24c-.08-.39-.15-.78-.25-1.13s-.19-.7-.31-1a10.14,10.14,0,0,0-.61-1.43Z"/><path class="cls-2" d="M142.91,66.77l.39.39a4.57,4.57,0,0,1,.4.52,5.12,5.12,0,0,1,.47.75A9.26,9.26,0,0,1,145,70.6a9.49,9.49,0,0,1,.25,1.35,10.35,10.35,0,0,1,0,2.87,9.35,9.35,0,0,1-.28,1.34,7.93,7.93,0,0,1-.45,1.17,5.51,5.51,0,0,1-.52.94,5.21,5.21,0,0,1-.53.68,3.16,3.16,0,0,1-.46.45l-.42.33.32-.49a4.79,4.79,0,0,0,.34-.56c.11-.23.26-.46.38-.76A8.38,8.38,0,0,0,144,77c.13-.34.2-.72.31-1.1s.15-.8.19-1.22a9.07,9.07,0,0,0,.07-1.28,11,11,0,0,0,0-1.29c0-.43-.1-.84-.17-1.24s-.16-.78-.26-1.13a9.69,9.69,0,0,0-.31-1,11.68,11.68,0,0,0-.6-1.43Z"/><path class="cls-2" d="M150.37,42.52l.38.4a3,3,0,0,1,.41.51,4.76,4.76,0,0,1,.47.76,9.26,9.26,0,0,1,.85,2.17,9.1,9.1,0,0,1,.25,1.34,11.48,11.48,0,0,1,.09,1.44,11.33,11.33,0,0,1-.11,1.43,9.49,9.49,0,0,1-.28,1.35,7.79,7.79,0,0,1-.45,1.16,5.15,5.15,0,0,1-.52.94,4.61,4.61,0,0,1-.53.68,3.16,3.16,0,0,1-.46.45l-.42.34.32-.49a4.38,4.38,0,0,0,.33-.56c.12-.23.27-.47.39-.76a8.57,8.57,0,0,0,.37-1c.13-.33.2-.72.31-1.1s.15-.8.19-1.22a9.07,9.07,0,0,0,.07-1.28,11,11,0,0,0-.05-1.29c0-.42-.1-.84-.17-1.23s-.16-.78-.26-1.14-.19-.7-.31-1a12.4,12.4,0,0,0-.6-1.43Z"/><path class="cls-2" d="M155.33,55.2l.39.4a3.82,3.82,0,0,1,.4.52,4.63,4.63,0,0,1,.47.75,9.75,9.75,0,0,1,1.1,3.52,10.35,10.35,0,0,1,0,2.87,9.07,9.07,0,0,1-.28,1.34,7.93,7.93,0,0,1-.45,1.17,5.15,5.15,0,0,1-.52.94,4.61,4.61,0,0,1-.53.68,2.3,2.3,0,0,1-.46.44l-.42.34.32-.49a4.79,4.79,0,0,0,.34-.56,7.67,7.67,0,0,0,.38-.76,8.57,8.57,0,0,0,.37-1,10.07,10.07,0,0,0,.31-1.09,11.94,11.94,0,0,0,.19-1.22,11.84,11.84,0,0,0,0-2.57c0-.43-.1-.84-.17-1.24s-.16-.78-.25-1.13-.2-.7-.32-1a10.29,10.29,0,0,0-.6-1.43Z"/><path class="cls-2" d="M154,78.93l.38.4a3.47,3.47,0,0,1,.41.51,5.12,5.12,0,0,1,.47.75,9.1,9.1,0,0,1,.84,2.18,11,11,0,0,1,.26,1.34,13.74,13.74,0,0,1,.09,1.44,11.33,11.33,0,0,1-.11,1.43,8.28,8.28,0,0,1-.29,1.35,7.3,7.3,0,0,1-.44,1.17,4.82,4.82,0,0,1-.53.93,4,4,0,0,1-.53.68,3.16,3.16,0,0,1-.45.45l-.42.34.31-.49a3.43,3.43,0,0,0,.34-.56,6.85,6.85,0,0,0,.39-.77,7.68,7.68,0,0,0,.37-.94c.13-.33.2-.72.31-1.1s.15-.8.19-1.22a12.64,12.64,0,0,0,0-2.56,11.64,11.64,0,0,0-.16-1.24c-.08-.4-.16-.78-.26-1.14s-.19-.7-.31-1a12.4,12.4,0,0,0-.6-1.43Z"/><path class="cls-2" d="M169.12,53.47l.38.4a3.47,3.47,0,0,1,.41.51,5.26,5.26,0,0,1,.47.76,8.86,8.86,0,0,1,.84,2.17,11.13,11.13,0,0,1,.26,1.35,13.39,13.39,0,0,1,.09,1.43,11.49,11.49,0,0,1-.11,1.44,8.16,8.16,0,0,1-.29,1.34,7.3,7.3,0,0,1-.44,1.17,6.16,6.16,0,0,1-.53.93,4.6,4.6,0,0,1-.53.69,2.59,2.59,0,0,1-.45.44l-.42.34.31-.49a3.72,3.72,0,0,0,.34-.56,7.59,7.59,0,0,0,.39-.76,8.6,8.6,0,0,0,.36-.95,10.23,10.23,0,0,0,.32-1.1c.07-.39.15-.79.19-1.21a12.74,12.74,0,0,0,0-2.57,12,12,0,0,0-.16-1.24c-.08-.39-.16-.78-.26-1.14s-.19-.69-.31-1a11.43,11.43,0,0,0-.6-1.42C169.21,53.67,169.12,53.47,169.12,53.47Z"/><path class="cls-2" d="M166.35,70.38l.38.39a3.47,3.47,0,0,1,.41.51,4.76,4.76,0,0,1,.47.76,8.86,8.86,0,0,1,.84,2.17,11.13,11.13,0,0,1,.26,1.35A13.39,13.39,0,0,1,168.8,77a11.49,11.49,0,0,1-.11,1.44,8.16,8.16,0,0,1-.29,1.34,7.3,7.3,0,0,1-.44,1.17,5.41,5.41,0,0,1-.53.93,4.6,4.6,0,0,1-.53.69,3.79,3.79,0,0,1-.45.45l-.42.33.31-.49a3.72,3.72,0,0,0,.34-.56,7.59,7.59,0,0,0,.39-.76,8.57,8.57,0,0,0,.37-1c.13-.33.2-.72.31-1.09s.15-.8.19-1.23A10.75,10.75,0,0,0,168,77,10.87,10.87,0,0,0,168,75.7a12,12,0,0,0-.16-1.24c-.08-.39-.16-.78-.26-1.14s-.19-.69-.31-1a11.43,11.43,0,0,0-.6-1.42Z"/><path class="cls-2" d="M183.81,63.89l.39.4a4.34,4.34,0,0,1,.4.51,4.76,4.76,0,0,1,.47.76,9.75,9.75,0,0,1,1.1,3.52,11.2,11.2,0,0,1,.09,1.43,9.63,9.63,0,0,1-.11,1.43,9.21,9.21,0,0,1-.28,1.35,8.39,8.39,0,0,1-.45,1.17,6.67,6.67,0,0,1-1,1.62,2.63,2.63,0,0,1-.46.44l-.42.34.32-.49a5.82,5.82,0,0,0,.34-.56c.11-.23.26-.47.38-.76a8.57,8.57,0,0,0,.37-1c.13-.33.2-.72.31-1.1a11.13,11.13,0,0,0,.19-1.22,10.73,10.73,0,0,0,.08-1.28,11.14,11.14,0,0,0-.06-1.29c0-.42-.1-.83-.17-1.23s-.16-.78-.26-1.14-.19-.69-.31-1a11.43,11.43,0,0,0-.6-1.42Z"/><path class="cls-2" d="M31.29,63.15c0,3.21-2,5.81-4.48,5.81s-4.47-2.6-4.47-5.81,2-5.8,4.47-5.8S31.29,60,31.29,63.15Z"/><path class="cls-4" d="M30.79,63.15c0,2.86-1.78,5.18-4,5.18s-4-2.32-4-5.18,1.78-5.17,4-5.17S30.79,60.3,30.79,63.15Z"/><path class="cls-5" d="M29.13,63.15c0,1.67-1,3-2.32,3s-2.32-1.35-2.32-3,1-3,2.32-3S29.13,61.49,29.13,63.15Z"/><path class="cls-6" d="M28.05,63.59a1,1,0,0,1-.83,1.07,1.11,1.11,0,0,1,0-2.14A1,1,0,0,1,28.05,63.59Z"/><path class="cls-6" d="M30.15,61.69a3.09,3.09,0,0,1,.11.34,4.12,4.12,0,0,1,.18.94q0,.33,0,.69a3.92,3.92,0,0,1-.08.76,3.07,3.07,0,0,1-.19.78,6.26,6.26,0,0,1-.32.75l-.43.65a2.9,2.9,0,0,1-.52.48,1.1,1.1,0,0,1-.53.32l-.51.19a.91.91,0,0,1-.43,0l-.33,0-.28,0,.27-.12.3-.11a1.59,1.59,0,0,0,.38-.17l.42-.28a1.44,1.44,0,0,0,.42-.37,4.48,4.48,0,0,0,.41-.45l.35-.56a5.8,5.8,0,0,0,.27-.62,2.82,2.82,0,0,0,.21-.64c0-.23.14-.43.16-.64s.05-.41.07-.59a5.34,5.34,0,0,0,0-.95C30.15,61.82,30.15,61.69,30.15,61.69Z"/><path class="cls-6" d="M26.4,58.69l-.28,0a1.79,1.79,0,0,0-.73.2l-.49.28a2.39,2.39,0,0,0-.48.43,2,2,0,0,0-.46.57,6.64,6.64,0,0,0-.38.7c-.08.26-.16.53-.25.79a5.74,5.74,0,0,0-.1.82,2.14,2.14,0,0,0,0,.76c0,.24.07.46.1.67a1.76,1.76,0,0,0,.17.52c.06.14.12.27.16.38s.15.31.15.31,0-.14,0-.37,0-.25-.06-.41-.06-.32-.05-.51,0-.39,0-.61a2.42,2.42,0,0,1,.06-.65c.05-.22.06-.46.13-.68l.23-.65a5.65,5.65,0,0,1,.31-.6,2,2,0,0,1,.35-.53,4.8,4.8,0,0,1,.36-.47l.38-.35a3.62,3.62,0,0,1,.64-.46Z"/><path class="cls-2" d="M4.25,70.45l1.59.34c.94.27,2.21.38,3.47.59s2.55.3,3.51.34l1.59.17-1.6,0a31,31,0,0,1-3.53-.17l-1.87-.34A8.7,8.7,0,0,1,5.8,71Z"/><path class="cls-7" d="M150.35,32c5.21,1.41,14.54,4.9,18.23,9.93,7.82,10.7-9,8-13.05,7.14-22.7-5-45.92-10.41-69.24-6.19C75.42,44.83,66,49.79,55.62,54c-3.53,1.42-8.89,3.33-12.4.41-13-10.85,17.44-19.82,21.2-20.82C105.19,22.78,124.42,25,150.35,32Z"/><path class="cls-8" d="M198.5,77.6c-19.32,7.15-39.36,14.46-59.35,17.52-20.64,3.17-42,2.55-62.56.11C62.8,93.59,49.87,89,36.74,83.83c-7.34-2.91-14.63-5.54-22-8.38-4.06-1.58-7.84-2.81-11.63-5-1.39.18-3.49.57-2.81,1.19,7.88,7.18,46,39.07,102.09,39.07,63.15,0,125.12-40.49,125.12-40.49s-1.21-1.13-3.48-3c-2,.83-3.92,1.79-5.82,2.65C211.92,72.74,205.08,75.16,198.5,77.6Z"/><path class="cls-2" d="M60.88,117.37c9.15-.83,12.21-1.93,11.9-12.31-.23-7.9-3.52-7.25-9.58-9.54-5.39-2-11.15-6.5-11.25,1.33C51.92,98.89,61.33,117.33,60.88,117.37Z"/></g></g></g></svg>