<?xml version="1.0" encoding="utf-8"?>
<!-- Generator: Adobe Illustrator 25.1.0, SVG Export Plug-In . SVG Version: 6.00 Build 0)  -->
<svg version="1.1" id="Layer_1" xmlns="http://www.w3.org/2000/svg" xmlns:xlink="http://www.w3.org/1999/xlink" x="0px" y="0px"
	 viewBox="0 0 647.6 341.6" style="enable-background:new 0 0 647.6 341.6;" xml:space="preserve">
<style type="text/css">
	.st0{fill:#EBEEF0;}
	.st1{fill:#B7C2CA;}
	.st2{fill:#A0AFB9;}
	.st3{fill:#B9C3CB;}
	.st4{fill:#90A1AD;}
	.st5{fill:#BEC8CF;}
</style>
<g id="Layer_2_1_">
	<g id="Layer_1-2">
		<path class="st0" d="M311.3,34.2c-9-8.2-18.1-16.5-28.9-22.3S259,3.2,247.2,6.2c-13,3.3-23,13.3-32.7,22.5
			c-46.3,44.2-99.2,80.9-151,118.6c-23.4,17.1-48.6,37.2-53.6,65.8c-3,17.3,1.9,35.1,9.4,51c6.1,13,14.5,25.8,27.2,32.4
			c8.8,4.6,19,5.8,28.9,5.6c26.2-0.7,51.1-11.2,75.2-21.6c18.5-8,37.3-16.1,53.4-28.2c12.5-9.4,23.1-21.1,33.6-32.7
			c28.5-31.4,57.4-63.3,76.6-101.1C325,97.4,332.5,63.1,311.3,34.2z"/>
		<path class="st1" d="M297.6,22.2c-0.8-0.1-1.6-0.2-2.4-0.3c-12.8-0.6-25.1,5.3-32.8,15.7c-4,5.6-6.8,12.5-12.6,16.1
			c-5.5,3.4-13.2,3.5-17.3,8.5c-2.8,3.5-3.2,8.5-5.9,12c-3.7,4.9-10.7,5.6-15.6,9.2c-8.2,6-9.7,19.1-18.9,23.5
			c-4.6,2.2-10.2,1.8-14.3,4.8c-5.2,4-5.4,11.9-9.8,16.8c-5,5.6-14.3,5.8-19.4,11.4c-2.3,2.5-3.5,6-6,8.4
			c-4.5,4.5-11.8,4.4-17.9,6.4c-14.4,4.8-22.5,21.8-37.2,25c-6.1,1.3-12.7,0.1-18.4,2.5c-6.2,2.6-10,8.7-15.5,12.6
			c-8.5,5.9-21.6,7.1-25,16.8c-2.6,7.7,2.9,15.5,6.6,22.7c10.3,19.8,8.7,44.2,17.1,64.5c7.3,2.6,15.3,3.3,23.1,3.1
			c26.2-0.7,51.1-11.2,75.2-21.6c18.5-8,37.3-16.1,53.4-28.2c12.5-9.4,23.1-21.1,33.6-32.7c28.5-31.4,57.4-63.3,76.6-101.1
			c10.7-21.1,18.2-55.4-2.9-84.3C306.9,30.1,302.4,26,297.6,22.2z"/>
		<path class="st2" d="M349.7,20.9c-3.8-7.3-11.3-12-19.6-12.2c-5.8-0.1-11.4,2.1-16.6,4.9c-20,10.3-35.4,27.4-51.4,43.2
			c-48.9,47.8-106.9,85.2-165.2,120.9c-14.4,8.7-29.2,17.9-39,31.6s-13.2,33.4-3.6,47.2c1.4,2.1,3.3,4,5.4,5.3
			c4.3,2.6,9.7,2.3,14.7,1.7c10.1-1.3,20.1-3.9,29.5-7.8c15-6.2,28.6-15.3,42-24.5c67.4-46,131.4-82.9,201.9-187.2
			C352.7,37.1,353.4,28.3,349.7,20.9z"/>
		<path class="st3" d="M284,49.7c-29.1,33.1-65.9,58.4-103.5,81.4S104,175.3,68.7,201.7c-3.4,2.5-6.9,7.5-3.8,10.3
			c3.5-3.4,7.2-6.9,12-7.7c3.3-0.5,6.7,0.3,10-0.3c4.1-0.8,7.4-3.7,10.5-6.4c12.1-10.3,25.9-18.6,40.8-24.5
			c10.5-4.1,21.5-7,31.8-11.8c16.3-7.5,30.1-19.3,43.7-30.9c34.8-29.9,69.8-59.9,101.1-93.5c4.6-5,9.4-12.5,5.5-18
			c-2.2-3.1-5.9-3.9-9.9-3.6c-4.6,2.6-9.1,5.6-13.3,8.9c0,1.8-0.2,3.6-0.7,5.4C294.4,37.2,289.3,43.7,284,49.7z"/>
		<path class="st4" d="M334.1,11.1c0.8,5.8,7.5,9.2,9.3,14.8c1.7,5.2-1.3,10.9-5.5,14.4s-9.3,5.6-13.9,8.6
			c-5.9,3.8-10.8,9-14.2,15.2c-2.3,4.1-3.9,8.7-6.8,12.4c-4.7,6-12.1,9.1-18.7,13c-12.8,7.5-23.1,18.4-33.8,28.7
			c-14.9,14.2-30.9,27.2-46.9,40.2c-10.2,8.3-20.8,16.8-33.5,20.3c-6.4,1.7-13.1,2.1-19.6,3.1c-29.5,4.7-56.2,24.6-69.1,51.5
			c-2.1-2-3.3-4.8-3.3-7.8l-7.8,8.7L70,221.2c-4.9,3-8.7,7.4-10.9,12.6c-1.4-3.7-2.8-7.4-4.2-11.2c-2.2,2.3-4.1,4.8-5.7,7.6
			c-1.5,9.2-0.2,18.6,5.2,26.2c1.4,2.1,3.3,4,5.4,5.3c4.3,2.6,9.7,2.3,14.7,1.7c10.1-1.3,20.1-3.9,29.5-7.8
			c15-6.2,28.6-15.3,42-24.5c67.4-46,131.4-82.9,201.9-187.2c4.7-6.8,5.4-15.6,1.7-23c-3.2-6.1-8.9-10.4-15.6-11.7
			C334,9.8,334,10.5,334.1,11.1z"/>
		<path class="st0" d="M214.6,134.5c-2.5-0.2-4.9-0.5-7.4-1c-2.2-0.5-4.4-1.2-6.6-1.8c-3.8-0.9-7.7-1.6-11.6-2.1
			c-3.9-0.7-7.9-1-11.9-1c-0.9,0-2.7,1-2.5,1.9c0.1,0.3,0.3,0.6,0.6,0.8c0.4,0.4,0.9,0.7,1.4,1c-2-1.9,5.1,1,8.9,1.4
			c12.2,1.1,26.1,7.9,38.4,5.8c3.8-0.6,7.1-2.7,9.3-5.9C227.4,135.6,220.9,135.1,214.6,134.5z"/>
		<path class="st0" d="M175,159c-7.8-0.8-15.6-0.5-23.4-1.3c-4.6-0.5-9.2-1.5-13.8-1.7c-3.9-0.3-7.7,0.8-10.9,3
			c1.5,0.8,3.1,1.4,4.6,2l-0.2-0.1l-0.5-0.2c17.7-4,34.4,4.5,51.6,5.8c6.8,0.5,15.9-1.5,18.6-7.7c-3.6,0.9-7.3,1.4-11,1.5
			C185.1,160.5,180.1,159.5,175,159z"/>
		<path class="st0" d="M150.3,185.2c-13.9-0.5-27.6-3.1-41.5-4.1c-3.5-0.3-7.2-0.4-10.2,1.4c-2.7,1.8-4.5,4.7-4.7,8
			c1.2-3.9,4.7-6.6,11.6-6.5c14.5,0.1,27.9,7.4,42.3,8.1c5.9,0.3,14-1.1,15.2-8.1c0-0.2,0-0.5,0.1-0.7c-0.8,0.4-1.5,0.7-2.4,1
			C157.4,185.2,153.8,185.5,150.3,185.2z"/>
		<path class="st0" d="M116.4,226.8c-2.3-0.4-4.5-1-6.7-1.7c-2.4-0.9-4.8-2-7-3.3c-6.7-3.9-12.9-8.9-16.9-15.5
			c-2.9-4.9-4.5-10.3-5.7-15.8c-0.1,4.2,0.7,8.4,2.5,12.3c6.8,15.6,20.1,27.8,37.1,30.4c3,0.5,5.3-2.8,3.9-5.1
			C121.2,227.8,118.8,227.3,116.4,226.8z"/>
		<path class="st0" d="M276.7,81c-1.9,0.6-3.8,1-5.7,1.3c-2.7,0.2-5.4,0.1-8-0.2c-10.5-1-22-0.8-31.9,2.7c2.7,0.5,5.2,1,7.7,1.4
			l-1-0.3c2.5-0.1,5.2-0.4,7.1-0.3c11.9,0.4,29.3,3.4,40.3-2.1c4-2,5.6-5,5.5-8.1c-1.5,0.9-3,1.7-4.7,2.3
			C283.1,79,279.9,80,276.7,81z"/>
		<path class="st0" d="M327.1,17.8c-0.5,0.8-1.1,1.5-1.9,2.1c-1.4,1-2.8,1.7-4.4,2.3c-5.4,2.3-11.5,5.5-16.9,7.8
			c-0.6,0.4-0.8,1.1-0.5,1.7c0.2,0.2,0.4,0.3,0.6,0.4l3.5,1.1c-0.8-0.5-1.2-1-1.2-1.2c0.5-1.6,9.5-3.3,11.1-3.9
			c3-1.1,7.8-2.3,9.2-5.5C327.4,21.1,327.6,19.4,327.1,17.8z"/>
		<path class="st0" d="M320.5,45.3c-0.8,1-1.9,1.8-3.1,2.1c-3.7,1.3-7.6,1.1-11.5,1l-15-0.5c-3.6-0.2-7.3-0.1-10.9,0.3
			c-3.7,0.4-7.1,1.8-10.1,3.9c-0.4,0.3-0.8,0.7-1,1.2c-0.2,0.7,0.1,1.5,0.7,1.9c0.6,0.4,1.3,0.7,2,0.9h0.1
			c-5.4-3.9,4.8-3.7,10.8-3.8c9.9-0.2,20.7,4.4,30.6,2.5c6.3-1.3,8.7-5.2,7.5-9.6C320.5,45.2,320.5,45.2,320.5,45.3z"/>
		<path class="st0" d="M251.8,105.8c-11.2-0.6-22.3-3-33.6-2.7c-2.1,0.1-4.3,0.3-5.7,1.8c-0.4,0.4-0.7,0.9-0.7,1.5
			c0,0.6,0.3,1.2,0.7,1.7c0.7,0.9,1.6,1.6,2.5,2.2c-1.9-1.9-0.8-3.1,6.5-2.7c10.2,0.6,28.8,7.7,37.5-0.9c0.6-0.6,1.2-1.3,1.6-2
			c-0.7,0.3-1.4,0.6-2.1,0.7C256.2,105.9,254,106,251.8,105.8z"/>
		<path class="st5" d="M400.5,68.1c-1.6-18.9-3.8-42.6-30.3-50.7c-11.7-1.6-22.5,7.1-29.1,17s-10.8,21.4-18.6,30.3
			c-8,9.2-19.2,14.9-29.6,21.4c-43.1,27.4-73.9,72.8-120.7,93.2c-8.3,3.6-16.9,6.3-24.9,10.6c-5.5,2.9-10.6,6.4-16.3,8.9
			c-8,3.5-17.2,5-24.1,10.4c-4.3,3.3-7.4,7.9-10.2,12.5c-13.9,22.7-22.4,48.3-24.8,74.7c-1.3,14.5,1.1,32.1,14.3,38.2
			c8.1,3.7,17.6,1.5,26.2-0.7c55.2-14.3,111.9-29.5,157.1-64.2c13.6-10.5,25.9-22.5,38.1-34.5c27-26.5,54.5-53.7,71.5-87.5
			c5.2-10.6,9.6-21.5,13.3-32.8C397.5,99.7,401.8,84,400.5,68.1z"/>
		<path class="st0" d="M120.8,213.6c15.6-3.1,29.9-10.7,44.7-16.8c17.5-7.3,36.3-13.2,50.1-26.1c6.8-6.4,12.1-14.2,17.9-21.4
			c7.5-9.2,15.9-17.5,25.2-24.7c9.1-7.1,19.1-13.3,28.5-20.1c30.3-22.1,54.6-51.4,70.9-85.2c-6.8,3-12.8,8.8-17,15.1
			c-6.6,9.8-10.8,21.3-18.6,30.3c-8,9.2-19.2,14.9-29.6,21.4c-43.1,27.4-73.9,72.8-120.7,93.2c-8.3,3.6-16.9,6.3-24.9,10.6
			c-5.5,2.9-10.6,6.4-16.3,8.9c-8,3.5-17.2,5-24.1,10.4c-2,1.6-3.8,3.4-5.3,5.4C108,215.2,114.5,214.8,120.8,213.6z"/>
	</g>
</g>
<g id="Layer_2_2_">
	<g id="Layer_1-2_1_">
		<path class="st0" d="M545.3,34.2c-9-8.2-18.1-16.5-28.9-22.3c-10.7-5.8-23.5-8.7-35.2-5.7c-13,3.3-23,13.3-32.7,22.5
			c-46.3,44.2-99.2,80.9-151,118.6c-23.4,17.1-48.6,37.2-53.6,65.8c-3,17.3,1.9,35.1,9.4,51c6.1,13,14.5,25.8,27.2,32.4
			c8.8,4.6,19,5.8,28.9,5.6c26.2-0.7,51.1-11.2,75.2-21.6c18.5-8,37.3-16.1,53.4-28.2c12.5-9.4,23.1-21.1,33.6-32.7
			c28.5-31.4,57.4-63.3,76.6-101.1C558.9,97.4,566.4,63.1,545.3,34.2z"/>
		<path class="st1" d="M531.6,22.2c-0.8-0.1-1.6-0.2-2.4-0.3c-12.8-0.6-25.1,5.3-32.8,15.7c-4,5.6-6.8,12.5-12.6,16.1
			c-5.5,3.4-13.2,3.5-17.3,8.5c-2.8,3.5-3.2,8.5-5.9,12c-3.7,4.9-10.7,5.6-15.6,9.2c-8.2,6-9.7,19.1-18.9,23.5
			c-4.6,2.2-10.2,1.8-14.3,4.8c-5.2,4-5.4,11.9-9.8,16.8c-5,5.6-14.3,5.8-19.4,11.4c-2.3,2.5-3.5,6-6,8.4
			c-4.5,4.5-11.8,4.4-17.9,6.4c-14.4,4.8-22.5,21.8-37.2,25c-6.1,1.3-12.7,0.1-18.4,2.5c-6.2,2.6-10,8.7-15.5,12.6
			c-8.5,5.9-21.6,7.1-25,16.8c-2.6,7.7,2.9,15.5,6.6,22.7c10.3,19.8,8.7,44.2,17.1,64.5c7.3,2.6,15.3,3.3,23.1,3.1
			c26.2-0.7,51.1-11.2,75.2-21.6c18.5-8,37.3-16.1,53.4-28.2c12.5-9.4,23.1-21.1,33.6-32.7c28.5-31.4,57.4-63.3,76.6-101.1
			c10.7-21.1,18.2-55.4-2.9-84.3C540.8,30.1,536.3,26,531.6,22.2z"/>
		<path class="st2" d="M583.7,20.9c-3.8-7.3-11.3-12-19.6-12.2c-5.8-0.1-11.4,2.1-16.6,4.9c-20,10.3-35.4,27.4-51.4,43.2
			c-48.9,47.8-106.9,85.2-165.2,120.9c-14.4,8.7-29.2,17.9-39,31.6s-13.2,33.4-3.6,47.2c1.4,2.1,3.3,4,5.4,5.3
			c4.3,2.6,9.7,2.3,14.7,1.7c10.1-1.3,20.1-3.9,29.5-7.8c15-6.2,28.6-15.3,42-24.5c67.4-46,131.4-82.9,201.9-187.2
			C586.6,37.1,587.3,28.3,583.7,20.9z"/>
		<path class="st3" d="M518,49.7c-29.1,33.1-65.9,58.4-103.5,81.4s-76.5,44.2-111.8,70.5c-3.4,2.5-6.9,7.5-3.8,10.3
			c3.5-3.4,7.2-6.9,12-7.7c3.3-0.5,6.7,0.3,10-0.3c4.1-0.8,7.4-3.7,10.5-6.4c12.1-10.3,25.9-18.6,40.8-24.5
			c10.5-4.1,21.5-7,31.8-11.8c16.3-7.5,30.1-19.3,43.7-30.9c34.8-29.9,69.8-59.9,101.1-93.5c4.6-5,9.4-12.5,5.5-18
			c-2.2-3.1-5.9-3.9-9.9-3.6c-4.6,2.6-9.1,5.6-13.3,8.9c0,1.8-0.2,3.6-0.7,5.4C528.4,37.2,523.2,43.7,518,49.7z"/>
		<path class="st4" d="M568.1,11.1c0.8,5.8,7.5,9.2,9.3,14.8c1.7,5.2-1.3,10.9-5.5,14.4c-4.2,3.5-9.3,5.6-13.9,8.6
			c-5.9,3.8-10.8,9-14.2,15.2c-2.3,4.1-3.9,8.7-6.8,12.4c-4.7,6-12.1,9.1-18.7,13c-12.8,7.5-23.1,18.4-33.8,28.7
			c-14.9,14.2-30.9,27.2-46.9,40.2c-10.2,8.3-20.8,16.8-33.5,20.3c-6.4,1.7-13.1,2.1-19.6,3.1c-29.5,4.7-56.2,24.6-69.1,51.5
			c-2.1-2-3.3-4.8-3.3-7.8l-7.8,8.7l-0.2-13.2c-4.9,3-8.7,7.4-10.9,12.6c-1.4-3.7-2.8-7.4-4.2-11.2c-2.2,2.3-4.1,4.8-5.7,7.6
			c-1.5,9.2-0.2,18.6,5.2,26.2c1.4,2.1,3.3,4,5.4,5.3c4.3,2.6,9.7,2.3,14.7,1.7c10.1-1.3,20.1-3.9,29.5-7.8
			c15-6.2,28.6-15.3,42-24.5c67.4-46,131.4-82.9,201.9-187.2c4.7-6.8,5.4-15.6,1.7-23c-3.2-6.1-8.9-10.4-15.6-11.7
			C568,9.8,568,10.5,568.1,11.1z"/>
		<path class="st0" d="M448.6,134.5c-2.5-0.2-4.9-0.5-7.4-1c-2.2-0.5-4.4-1.2-6.6-1.8c-3.8-0.9-7.7-1.6-11.6-2.1
			c-3.9-0.7-7.9-1-11.9-1c-0.9,0-2.7,1-2.5,1.9c0.1,0.3,0.3,0.6,0.6,0.8c0.4,0.4,0.9,0.7,1.4,1c-2-1.9,5.1,1,8.9,1.4
			c12.2,1.1,26.1,7.9,38.4,5.8c3.8-0.6,7.1-2.7,9.3-5.9C461.4,135.6,454.8,135.1,448.6,134.5z"/>
		<path class="st0" d="M408.9,159c-7.8-0.8-15.6-0.5-23.4-1.3c-4.6-0.5-9.2-1.5-13.8-1.7c-3.9-0.3-7.7,0.8-10.9,3
			c1.5,0.8,3.1,1.4,4.6,2l-0.2-0.1l-0.5-0.2c17.7-4,34.4,4.5,51.6,5.8c6.8,0.5,15.9-1.5,18.6-7.7c-3.6,0.9-7.3,1.4-11,1.5
			C419,160.5,414,159.5,408.9,159z"/>
		<path class="st0" d="M384.3,185.2c-13.9-0.5-27.6-3.1-41.5-4.1c-3.5-0.3-7.2-0.4-10.2,1.4c-2.7,1.8-4.5,4.7-4.7,8
			c1.2-3.9,4.7-6.6,11.6-6.5c14.5,0.1,27.9,7.4,42.3,8.1c5.9,0.3,14-1.1,15.2-8.1c0-0.2,0-0.5,0.1-0.7c-0.8,0.4-1.5,0.7-2.4,1
			C391.3,185.2,387.8,185.5,384.3,185.2z"/>
		<path class="st0" d="M350.4,226.8c-2.3-0.4-4.5-1-6.7-1.7c-2.4-0.9-4.8-2-7-3.3c-6.7-3.9-12.9-8.9-16.9-15.5
			c-2.9-4.9-4.5-10.3-5.7-15.8c-0.1,4.2,0.7,8.4,2.5,12.3c6.8,15.6,20.1,27.8,37.1,30.4c3,0.5,5.3-2.8,3.9-5.1
			C355.1,227.8,352.7,227.3,350.4,226.8z"/>
		<path class="st0" d="M510.7,81c-1.9,0.6-3.8,1-5.7,1.3c-2.7,0.2-5.4,0.1-8-0.2c-10.5-1-22-0.8-31.9,2.7c2.7,0.5,5.2,1,7.7,1.4
			l-1-0.3c2.5-0.1,5.2-0.4,7.1-0.3c11.9,0.4,29.3,3.4,40.3-2.1c4-2,5.6-5,5.5-8.1c-1.5,0.9-3,1.7-4.7,2.3C517,79,513.9,80,510.7,81z
			"/>
		<path class="st0" d="M561,17.8c-0.5,0.8-1.1,1.5-1.9,2.1c-1.4,1-2.8,1.7-4.4,2.3c-5.4,2.3-11.5,5.5-16.9,7.8
			c-0.6,0.4-0.8,1.1-0.5,1.7c0.2,0.2,0.4,0.3,0.6,0.4l3.5,1.1c-0.8-0.5-1.2-1-1.2-1.2c0.5-1.6,9.5-3.3,11.1-3.9
			c3-1.1,7.8-2.3,9.2-5.5C561.3,21.1,561.5,19.4,561,17.8z"/>
		<path class="st0" d="M554.4,45.3c-0.8,1-1.9,1.8-3.1,2.1c-3.7,1.3-7.6,1.1-11.5,1l-15-0.5c-3.6-0.2-7.3-0.1-10.9,0.3
			c-3.7,0.4-7.1,1.8-10.1,3.9c-0.4,0.3-0.8,0.7-1,1.2c-0.2,0.7,0.1,1.5,0.7,1.9c0.6,0.4,1.3,0.7,2,0.9h0.1
			c-5.4-3.9,4.8-3.7,10.8-3.8c9.9-0.2,20.7,4.4,30.6,2.5c6.3-1.3,8.7-5.2,7.5-9.6C554.5,45.2,554.5,45.2,554.4,45.3z"/>
		<path class="st0" d="M485.7,105.8c-11.2-0.6-22.3-3-33.6-2.7c-2.1,0.1-4.3,0.3-5.7,1.8c-0.4,0.4-0.7,0.9-0.7,1.5
			c0,0.6,0.3,1.2,0.7,1.7c0.7,0.9,1.6,1.6,2.5,2.2c-1.9-1.9-0.8-3.1,6.5-2.7c10.2,0.6,28.8,7.7,37.5-0.9c0.6-0.6,1.2-1.3,1.6-2
			c-0.7,0.3-1.4,0.6-2.1,0.7C490.2,105.9,488,106,485.7,105.8z"/>
		<path class="st5" d="M634.5,68.1c-1.6-18.9-3.8-42.6-30.3-50.7c-11.7-1.6-22.5,7.1-29.1,17c-6.6,9.9-10.8,21.4-18.6,30.3
			c-8,9.2-19.2,14.9-29.6,21.4c-43.1,27.4-73.9,72.8-120.7,93.2c-8.3,3.6-16.9,6.3-24.9,10.6c-5.5,2.9-10.6,6.4-16.3,8.9
			c-8,3.5-17.2,5-24.1,10.4c-4.3,3.3-7.4,7.9-10.2,12.5c-13.9,22.7-22.4,48.3-24.8,74.7c-1.3,14.5,1.1,32.1,14.3,38.2
			c8.1,3.7,17.6,1.5,26.2-0.7c55.2-14.3,111.9-29.5,157.1-64.2c13.6-10.5,25.9-22.5,38.1-34.5c27-26.5,54.5-53.7,71.5-87.5
			c5.2-10.6,9.6-21.5,13.3-32.8C631.4,99.7,635.8,84,634.5,68.1z"/>
		<path class="st0" d="M354.8,213.6c15.6-3.1,29.9-10.7,44.7-16.8c17.5-7.3,36.3-13.2,50.1-26.1c6.8-6.4,12.1-14.2,17.9-21.4
			c7.5-9.2,15.9-17.5,25.2-24.7c9.1-7.1,19.1-13.3,28.5-20.1c30.3-22.1,54.6-51.4,70.9-85.2c-6.8,3-12.8,8.8-17,15.1
			c-6.6,9.8-10.8,21.3-18.6,30.3c-8,9.2-19.2,14.9-29.6,21.4c-43.1,27.4-73.9,72.8-120.7,93.2c-8.3,3.6-16.9,6.3-24.9,10.6
			c-5.5,2.9-10.6,6.4-16.3,8.9c-8,3.5-17.2,5-24.1,10.4c-2,1.6-3.8,3.4-5.3,5.4C342,215.2,348.5,214.8,354.8,213.6z"/>
	</g>
</g>
</svg>
