<?xml version="1.0" encoding="utf-8"?>
<!-- Generator: Adobe Illustrator 25.1.0, SVG Export Plug-In . SVG Version: 6.00 Build 0)  -->
<svg version="1.1" id="Layer_1" xmlns="http://www.w3.org/2000/svg" xmlns:xlink="http://www.w3.org/1999/xlink" x="0px" y="0px"
	 viewBox="0 0 198.1 201.6" style="enable-background:new 0 0 198.1 201.6;" xml:space="preserve">
<style type="text/css">
	.st0{fill:#D6DDDC;}
	.st1{fill:#E7EBEB;}
	.st2{fill:#D1D9D9;}
	.st3{fill:#B5C1C1;}
	.st4{fill:#E9EDED;}
	.st5{fill:#AAB8B8;}
	.st6{fill:#C4CECE;}
	.st7{fill:#E5E9E9;}
	.st8{fill:#EBEFEF;}
	.st9{fill:#BCC7C7;}
	.st10{fill:#768D8C;}
	.st11{fill:#8EA1A0;}
</style>
<g>
	<path class="st0" d="M165.2,36.5l1.5,2.6c18,3.5,22.1-14.1,22.1-14.1C172.4,22.6,170.3,29.7,165.2,36.5z"/>
	<path class="st0" d="M103.8,35.3c0,0,9,15.7,25.2,7l0.7-2.9C122.8,34.4,118.7,28.2,103.8,35.3z"/>
</g>
<path class="st1" d="M156.9,35.8c13.3-3.3,3.2-35.6,7.5-35.8c3.7-0.2,6.6,29.8,2.4,39.8L156.9,35.8z"/>
<path class="st2" d="M163.8,36.6c8.3-3.5-1.4-35.4,1.4-35.7c2.4-0.2,7.2,29.5,5.4,39.5L163.8,36.6z"/>
<path class="st1" d="M142.2,37.1c-14.1-2.2-6.2-35.2-10.8-35c-3.8,0.1-4.4,30.3,0.8,39.8L142.2,37.1z"/>
<path class="st2" d="M142,37c-8.8-1.4-7.1-34.7-9.8-34.3c-2.3,0.3,0.2,30.4,4.2,39.6L142,37z"/>
<g>
	<path class="st3" d="M62.4,154.9C62.4,154.9,62.4,154.9,62.4,154.9l-12.7,3.9l2.6,19.4h0l3.1,23.5h4.2
		C59.6,201.6,59.4,165,62.4,154.9L62.4,154.9z"/>
	<path class="st3" d="M43.6,171.8c0-0.4,0-0.7,0.1-1.1c0-0.3,0-0.6,0.1-0.9c0-0.2,0-0.5,0-0.7c0-0.4,0-0.7,0.1-1.1
		c0-0.2,0-0.3,0-0.5c0.1-1.9,0.3-3.7,0.5-5.4c0-0.2,0-0.3,0.1-0.5c0-0.3,0.1-0.6,0.1-0.9c0-0.2,0-0.4,0.1-0.5c0-0.3,0.1-0.5,0.1-0.8
		c0-0.2,0.1-0.4,0.1-0.6c0-0.2,0.1-0.5,0.1-0.7c0-0.2,0.1-0.4,0.1-0.6c0-0.2,0.1-0.4,0.1-0.6c0-0.2,0.1-0.4,0.1-0.6
		c0-0.1,0.1-0.3,0.1-0.4c0.1-0.3,0.2-0.7,0.2-1l-12.3,3.9l5.4,42.8h4.1c0,0-0.1-15.6,0.7-29.2C43.6,172.2,43.6,172,43.6,171.8z"/>
	<path class="st3" d="M123.5,178.2c0.4-9.3,1.1-18.8,2.4-23.3l0,0c0,0,0,0,0,0l-12.7,3.9l2.6,19.4h0l3.1,23.5h4.2
		C123,201.6,122.9,190.1,123.5,178.2L123.5,178.2z"/>
	<path class="st3" d="M107.8,168.3c0.1-1.8,0.3-3.6,0.5-5.3c0-0.1,0-0.2,0-0.4c0-0.4,0.1-0.8,0.1-1.2c0-0.2,0-0.4,0.1-0.5
		c0-0.3,0.1-0.6,0.1-0.9c0-0.2,0.1-0.4,0.1-0.6c0-0.3,0.1-0.5,0.1-0.8c0-0.2,0.1-0.4,0.1-0.6c0-0.2,0.1-0.5,0.1-0.7
		c0-0.2,0.1-0.3,0.1-0.5c0-0.2,0.1-0.5,0.2-0.7c0-0.1,0.1-0.3,0.1-0.4c0.1-0.3,0.2-0.7,0.3-1l-12.8,3.9l5.7,42.8h4.2
		C106.8,201.6,106.7,182.7,107.8,168.3C107.8,168.3,107.8,168.3,107.8,168.3z"/>
</g>
<path class="st0" d="M33.9,81.3c-3.9-0.9-8,0.5-10.4,3.7c-7.4,9.7-12.7,25.7-8.6,27.5c5,2.1,6.7-5,6.7-5s-2.8,49.5,5.7,53.5
	s5.3-6.7,5.3-6.7s0.7,15.2,6.7,15.2s7.4-14.9,7.4-14.9s-1.1,14.9,8.5,14.2s8.9-9.6,8.9-9.6s2.9,12.1,16.7,11.6
	c8.8-0.3,14.1-10.2,14.1-10.2s0,5.7,6.7,5.3s7.4-4.6,7.4-4.6s0.7,7.8,11,7.8c8.2,0,9.2-6.7,9.2-6.7s3.5,3.4,8.1,3.2
	c6.7-0.4,10.3-28.7,10.3-31.1c0,0,11.6,17.6,7.1-42.8c-0.7-9.5,7.8-35.8,7.8-35.8l-29.7-10.3c0,0,5.9,26.6-13.8,40
	C102.5,96.7,51,85.4,33.9,81.3z"/>
<path class="st3" d="M43.5,149.9c0,0-1.4,14.9-7.4,14.9c-0.6,0-1.1-0.1-1.6-0.4c1,2.8,2.5,5,4.8,5c3.3,0,5.2-4.6,6.3-8.6
	C43,156.6,43.5,149.9,43.5,149.9z"/>
<path class="st3" d="M29.9,154.4c-0.2,2.2-1.5,3.9-5.7,2c0.8,2.3,1.8,4,3.1,4.6c2.3,1.1,3.8,1,4.6,0.5
	C30.9,159.2,30.2,156.8,29.9,154.4z"/>
<path class="st3" d="M60.8,154.5c0,0,0.7,8.9-8.8,9.6c-1.5,0.2-3-0.2-4.2-1c1.1,3.2,3.2,5.9,7.5,5.6c7.2-0.5,8.6-5.6,8.8-8.1
	C62.6,158.8,61.5,156.7,60.8,154.5z"/>
<path class="st3" d="M18.4,102.9c0,0-1.3,5.3-4.9,5.3c-0.1,2.2,0.3,3.7,1.4,4.2c1,0.5,2.1,0.5,3.1,0.1
	C18.1,106.8,18.4,102.9,18.4,102.9z"/>
<path class="st3" d="M162.5,55.8l-4.2-1.5c-2.2,7.2-7.4,25.1-6.8,32.6c4.5,60.4-7.1,42.8-7.1,42.8c0,2.5-3.6,30.8-10.3,31.2
	c-4.6,0.2-8.2-3.2-8.2-3.2s-1.1,6.7-9.2,6.7c-2.7,0.1-5.3-0.6-7.5-2.1c0.6,2.1,2.8,6.7,10.7,6.7c8.2,0,9.2-6.7,9.2-6.7
	s3.5,3.4,8.1,3.2c6.7-0.4,10.3-28.7,10.3-31.1c0,0,11.6,17.6,7.1-42.8C154,82,162.5,55.8,162.5,55.8z"/>
<path class="st3" d="M105.8,156.7c0,0-0.7,4.2-7.4,4.6c-1.2,0.1-2.4-0.1-3.5-0.5c0.1,1,0.7,5.4,6.7,5.1c5-0.3,6.7-2.6,7.2-3.9
	C107.2,160.7,106.1,158.8,105.8,156.7z"/>
<path class="st3" d="M91.7,156c0,0-5.2,9.9-14.1,10.2c-6,0.2-10-2-12.5-4.5c1.7,3.5,6,9.5,15.8,9.1c8.2-0.3,13.3-8.9,14-10.1
	C92.9,159.9,91.7,158,91.7,156z"/>
<path class="st3" d="M133.2,57.7c0.7,11.6,3.9,20.6,20.4,32.4l1.9-15.4L133.2,57.7z"/>
<path class="st4" d="M35,84.8C28.3,77,17.7,67.1,0,71.3l7.1,4.2L0,79.1c0,0,6.2,0.8,6.7,1.8C8.1,83.4,4.2,89,4.2,89
	s21.2-8.8,28.3-2.5L35,84.8z"/>
<path class="st0" d="M6.7,80.9c1.4,2.5-2.5,8.1-2.5,8.1s21.2-8.8,28.3-2.5l1.7-1.2c-3.3-3.8-10.6-6.5-19-6.5c-3.4,0-6.7,0.4-10,1.3
	C5.8,80.3,6.3,80.5,6.7,80.9z"/>
<path class="st5" d="M166.8,90.7c-12.8,1.9-18.2,10.6-19.9,9.6s2.9-5.4,6.1-8.3c0,0-10.3,5-10.4,3.4c-0.1-1.2,4.7-3.5,9.7-5.8
	c0,0-18.1,4.7-9.4,0.4s32.1-4,32.1-4L166.8,90.7z"/>
<path class="st5" d="M178.4,92.7c14,5.2,17.4,14.5,19.3,13.9s-5-6.9-7.4-10.4c0,0,7.1,5,7.6,3.5c0.4-1.1-3.4-3.4-7.8-6.9
	c0,0,12.3,6.5,4.8,0.3s-23.4-7-23.4-7L178.4,92.7z"/>
<path class="st6" d="M162.3,90.1c0,3.5,1.1,9.4,8.3,10.1s10.4-3.2,10.1-7.8L162.3,90.1z"/>
<path class="st0" d="M128.4,45.4c-0.3-4.8,1.6-10.3,4.8-11.3c6.4-1.9,12.8,2,15,1.7s10.1-5.9,17.5-3.1c11.1,4.2,14.2,40.1,19.1,47.1
	c2.5,3.5,2.9,15-9.6,14.5c-17-0.7-14-7.5-20.9-13.4C128.9,59,128.7,51.7,128.4,45.4z"/>
<path class="st7" d="M163.5,33.7c10,1.2,24.2,52,11.4,54.4C164.3,90.2,139,30.8,163.5,33.7z"/>
<path class="st7" d="M132.7,36.1c6.7-6.9,28,8.4,33.5,13.3c7.6,6.7,12.8,35.8,7.8,38.5S115.8,53.6,132.7,36.1z"/>
<path class="st8" d="M169.4,81.1c-4-7.4-12.6-20.2-5.7-20.4S183.5,79,183.5,79L169.4,81.1z"/>
<path class="st9" d="M173,94.4c1.6-0.3,3.2-2.9,2.4-9.3l2.1-0.3c0,0-1.9,9.3,0.6,9.6H173z"/>
<path class="st5" d="M175.7,87.2c3.1,0.7,9.1-5.9,7.7-8.2s-13.2-2.5-14.2-0.4S172.8,86.5,175.7,87.2z"/>
<path class="st10" d="M141.4,54.1l1.7-3.7c0,0,3.7,5.3,11.3,0.9l0.5,1.2C150.6,55.1,146.5,56.8,141.4,54.1z"/>
<path class="st10" d="M172.3,51.8l-1.5-3.3c0,0-3.3,4.8-10,0.8l-0.5,1.1C164.1,52.7,167.8,54.2,172.3,51.8z"/>
<path class="st4" d="M115.6,87.3c-19.2,8-65.7-2.1-81.7-6c-3.9-1-8,0.5-10.4,3.7c-1.1,1.4-2.1,2.9-3,4.4
	C32.9,115.1,64.1,136.3,115.6,87.3z"/>
<path class="st11" d="M174.9,85.3c-2.1-2-5.4-5.5-3.5-5.8s5,4.9,5,4.9L174.9,85.3z"/>
<path class="st11" d="M177,84.3c1.8-2.3,4.9-5.9,5.4-4s-4.4,5.5-4.4,5.5L177,84.3z"/>
<path class="st0" d="M166.8,94.2c-1.4-0.3-2,4.1,2,4.6S179.3,96.7,166.8,94.2z"/>
</svg>
