<?xml version="1.0" encoding="utf-8"?>
<!-- Generator: Adobe Illustrator 25.1.0, SVG Export Plug-In . SVG Version: 6.00 Build 0)  -->
<svg version="1.1" id="Layer_1" xmlns="http://www.w3.org/2000/svg" xmlns:xlink="http://www.w3.org/1999/xlink" x="0px" y="0px"
	 viewBox="0 0 704.4 401.4" style="enable-background:new 0 0 704.4 401.4;" xml:space="preserve">
<style type="text/css">
	.st0{fill:#9AA9B4;}
	.st1{fill:#B5C0C8;}
	.st2{fill:#B3BFC7;}
</style>
<g id="Layer_2_1_">
	<g id="Layer_1-2">
		<g>
			<path class="st0" d="M363.2,330.7c-9.7-2.1-12.8-8.2-19-15.2c-7.1-8-6.5-10.6-14.2-16.7s-14.2-26.4-16.8-54.9
				c-1.8-21.9-0.8-44,3-65.6c2-11.1,7-13.4,5.8-20.6c-1.2-7.2,3.9-16,10.5-26.6c6.6-10.6,10.7-14.4,9.6-19.7
				c-1.1-5.2,6-10.7,25.9-23.7c15.7-10.6,32.6-19.3,50.3-26.2c21-8,42.5-4.6,47.8-3c0.6,0.2,1.1,0.2,1.7,0.2
				c0.3-0.6,0.5-1.1,0.7-1.8c0.6-2.8,0.7-6.4-3-8c-3.8-1.6-10-2.6-12.9-5.5c-3-2.9-12.1-6.4-12.1-6.4c-13.2-3.8-16.9,1-25.6,8
				c-8.7,7.1-33.7,13.7-50.9,21.3s-26.7,13.9-33.4,11.4c-10.9-4.4-22.7-6-34.4-4.9c-12.2,1-13.6-2.8-20.2,1.4
				c-6.6,4.2-11.6,7.7-18.5,5.4c-6.9-2.2-9-4-15.1,0.1c-6.1,4.1-26.1-5.7-50.8-13.6c-32.2-7.6-42.6-2.6-62.7,11.4
				c-22.1,15.8-45.5,45.9-58.6,63.7c-13.1,17.8-25,39.8-33.7,55.9S18,233.8,19.3,249.6c2,16,14.5,33.1,29.7,49.8
				s34.1,37.3,44.5,39.6s13.3,3.9,31.4,10.3s22.9,6.7,36.1,11.6s21.1,5.5,27.1,4c6-1.5,12.9,1.2,24.5,0.3c11.6-1,13-2.5,26.1,2
				c18.6,6.8,26.2,5.6,40.2,2.7c14-2.8,14-0.5,24.1-0.8c10.2-0.3,12.5,2.1,17.6,0.2c5.1-1.9,14.1-6.2,20.1-12.3s17.3-10.9,22.8-14.7
				C368.3,339.5,368.3,336.2,363.2,330.7z"/>
			<path class="st1" d="M378.9,334.5c-0.9-0.9-1.9-1.9-3.1-3c-10.8-8.4-18.5-20.1-22-33.3c-3.2-13.2-10.1-34.8-13.2-55.4
				c-5.4-60.8,7.4-90.3,20.1-113.9c15.7-22.7,26.2-31.5,48.1-43.4c21.9-11.9,37.4-12.3,40.9-12.4c3.5-0.1,5.2,0,6.3-2.5
				c1.1-2.6,2.6-4.3,14-4c9.1,0.3,12.3-1.7,13.5-4c0.3-0.6,0.5-1.1,0.7-1.8c0.6-2.8,0.7-6.5-3-8c-3.7-1.5-10-2.6-12.9-5.5
				c-2.9-2.9-12.2-6.4-12.2-6.4c-13.2-3.8-16.9,1-25.6,8s-33.7,13.7-50.9,21.3c-17.2,7.6-26.7,13.9-33.4,11.4
				c-10.9-4.3-22.7-6-34.4-4.9c-8.8,0.7-12-1-15.5-0.5c-1.6,3-4.3,5.5-6.3,8.5c-4.1,6-5,13.1-1.3,19.4c4.5,7.8,9.5,15.3,13.9,23.2
				c0.7,1.4,1.3,2.8,1.9,4.2c1.4,2.3,2.7,4.7,3.8,7.1c0.5,0.6,1.1,1.1,1.8,1.5c4,2.4,7.5,0,11.4-0.4c0.3,0,1.3-0.1,1.2,0.5
				c-1.1,5.6-8.1,12.6,0.5,15.6c0.2,0,0.3,0.2,0.3,0.4c-1.6,6-4.3,11.8-5.6,17.9c-0.9,3.8-2.9,7.6-3.3,11.4c0.1-0.1,0.7,5.1,0.8,4.9
				c-0.8,1.6-1.5,3.2-2.2,4.9c-0.4,6.7-1,13.5-1.9,20.3c0.4,9,0.5,18.1,1,27.1c0.7,14,3.4,27,6.3,40.7c2.8,13.7,5.3,26.9,12.7,38.9
				c1.7,2.7,3.4,6,6.1,7.7c2.7,1.8,5.6,2.8,8.4,4.4c1.8,1.1,4.3,2.4,5.2,4.4c8.1,5.3,7.5,13.7,5,22.7c0.1-0.2,0.3-0.3,0.4-0.5
				c6-6.1,17.3-10.9,22.8-14.7C383.9,343.3,383.9,339.9,378.9,334.5z"/>
			<path class="st2" d="M653.8,80.4c0,0-9.5-6.5-15.4-0.1c-5.9,6.3-20.3,27.1-29.6,39.3s-16.9,18.1-31.4,38.3
				c-14.5,20.2-29.1,45.9-37,65s-12,31.6-0.3,23.4s32.4-33.4,38.7-44.5s56.8-74.5,80.7-96C669.8,95.6,664.6,86.5,653.8,80.4z"/>
			<path class="st2" d="M671.7,157.7c0,0-8.3-7.9-15.1-2.6c-6.8,5.3-24.5,23.4-35.7,33.9c-11.2,10.5-19.6,15.1-37.3,32.6
				s-36.2,40.5-47.2,58.1c-10.9,17.5-16.9,29.3-4.1,23.1c12.8-6.2,37.4-27.6,45.5-37.6c8.1-9.9,68.3-64.1,95.3-81.4
				C685,175.2,681.3,165.4,671.7,157.7z"/>
			<path class="st2" d="M668.6,209.5c0,0-9.5-6.5-15.4-0.1c-5.9,6.4-20.3,27.1-29.6,39.3c-9.3,12.2-16.9,18.2-31.4,38.3
				c-14.5,20.2-29.1,45.9-37,65c-7.9,19.1-11.9,31.7-0.3,23.4s32.4-33.4,38.7-44.5c6.3-11.1,56.8-74.5,80.7-96
				C684.6,224.6,679.4,215.6,668.6,209.5z"/>
		</g>
	</g>
</g>
</svg>
