<svg xmlns="http://www.w3.org/2000/svg" viewBox="0 0 198.06 201.64"><defs><style>.cls-1{fill:#819695;}.cls-2{fill:#e7ebeb;}.cls-3{fill:#d1d9d9;}.cls-4{fill:#657e7e;}.cls-5{fill:#d6dddc;}.cls-6{fill:#b5c1c1;}.cls-7{fill:#7d9292;}.cls-8{fill:#889b9b;}.cls-9{fill:#e9eded;}.cls-10{fill:#aab8b8;}.cls-11{fill:#c4cece;}.cls-12{fill:#97a8a8;}.cls-13{fill:#e5e9e9;}.cls-14{fill:#ebefef;}.cls-15{fill:#c9d2d2;}.cls-16{fill:#adbaba;}.cls-17{fill:#bcc7c7;}.cls-18{fill:#768d8c;}.cls-19{fill:#8ea1a0;}.cls-20{fill:#dce2e2;}</style></defs><g id="Layer_2" data-name="Layer 2"><g id="Layer_1-2" data-name="Layer 1"><path class="cls-1" d="M49.67,158.8l5.67,42.84h4.24S59.41,165,62.42,154.9Z"/><path class="cls-1" d="M33.39,158.8l5.44,42.84h4.09S42.75,165,45.65,154.9Z"/><path class="cls-1" d="M113.11,158.8l5.67,42.84H123s-.17-36.65,2.84-46.74Z"/><path class="cls-1" d="M96.91,158.8l5.66,42.84h4.25s-.17-36.65,2.84-46.74Z"/><path class="cls-2" d="M156.89,35.76C170.2,32.43,160.05.19,164.39,0c3.71-.16,6.62,29.84,2.43,39.76Z"/><path class="cls-3" d="M163.83,36.63c8.29-3.53-1.4-35.39,1.38-35.65,2.38-.23,7.18,29.53,5.43,39.46Z"/><path class="cls-2" d="M142.19,37.14c-14.08-2.25-6.24-35.2-10.76-35-3.85.14-4.38,30.27.8,39.83Z"/><path class="cls-3" d="M142,37c-8.79-1.44-7.09-34.69-9.83-34.28-2.33.35.16,30.38,4.21,39.6Z"/><path class="cls-4" d="M49.67,158.8l2.56,19.36H60c.38-9.3,1.09-18.83,2.41-23.26Z"/><path class="cls-4" d="M33.39,158.8l2.46,19.36h7.48c.37-9.3,1.05-18.83,2.32-23.26Z"/><path class="cls-4" d="M113.11,158.8l2.56,19.36h7.78c.38-9.3,1.09-18.83,2.41-23.26Z"/><path class="cls-4" d="M96.91,158.8l2.56,19.36h7.78c.38-9.3,1.09-18.83,2.41-23.26Z"/><path class="cls-5" d="M33.88,81.26A10.08,10.08,0,0,0,23.46,85c-7.36,9.71-12.68,25.7-8.59,27.46,5,2.12,6.72-5,6.72-5S18.76,157,27.26,160.92s5.31-6.73,5.31-6.73.71,15.23,6.73,15.23,7.43-14.87,7.43-14.87-1.06,14.87,8.5,14.16,8.85-9.56,8.85-9.56,2.87,12.1,16.7,11.64c8.84-.29,14.1-10.22,14.1-10.22s0,5.66,6.72,5.31,7.44-4.61,7.44-4.61.66,7.79,11,7.79c8.15,0,9.21-6.72,9.21-6.72s3.49,3.43,8.14,3.18c6.73-.35,10.27-28.68,10.27-31.15,0,0,11.55,17.55,7.08-42.84C154,82,162.5,55.77,162.5,55.77L132.76,45.51s5.88,26.64-13.81,40C102.5,96.67,51,85.41,33.88,81.26Z"/><path class="cls-6" d="M43.51,149.94s-1.42,14.87-7.44,14.87a3.31,3.31,0,0,1-1.62-.42c1,2.77,2.53,5,4.85,5,3.32,0,5.24-4.55,6.3-8.61C43,156.61,43.51,149.94,43.51,149.94Z"/><path class="cls-6" d="M29.88,154.37c-.25,2.17-1.55,3.87-5.73,2,.81,2.33,1.83,4,3.11,4.56,2.31,1.06,3.75,1,4.64.46A26.22,26.22,0,0,1,29.88,154.37Z"/><path class="cls-6" d="M60.85,154.54s.71,8.85-8.85,9.56a6.6,6.6,0,0,1-4.24-1c1.08,3.16,3.23,5.91,7.47,5.6,7.16-.53,8.56-5.63,8.81-8.15A16.63,16.63,0,0,1,60.85,154.54Z"/><path class="cls-6" d="M18.37,102.86s-1.33,5.28-4.89,5.34c-.14,2.19.27,3.74,1.39,4.22a3.89,3.89,0,0,0,3.14.12C18.14,106.8,18.37,102.86,18.37,102.86Z"/><path class="cls-6" d="M162.5,55.77l-4.21-1.45c-2.22,7.25-7.36,25.08-6.81,32.6,4.47,60.39-7.07,42.84-7.07,42.84,0,2.48-3.55,30.8-10.27,31.16-4.65.24-8.15-3.19-8.15-3.19s-1.06,6.73-9.2,6.73a12.32,12.32,0,0,1-7.52-2.11c.6,2.13,2.82,6.71,10.74,6.71,8.15,0,9.21-6.72,9.21-6.72s3.49,3.43,8.14,3.18c6.73-.35,10.27-28.68,10.27-31.15,0,0,11.55,17.55,7.08-42.84C154,82,162.5,55.77,162.5,55.77Z"/><path class="cls-6" d="M105.82,156.67s-.71,4.25-7.44,4.6a7.85,7.85,0,0,1-3.49-.51c.06,1,.7,5.43,6.71,5.12,5-.26,6.66-2.65,7.2-3.88A8.49,8.49,0,0,1,105.82,156.67Z"/><path class="cls-6" d="M91.65,156s-5.25,9.93-14.1,10.22c-6,.2-10-2-12.52-4.53,1.68,3.51,6,9.47,15.75,9.14,8.22-.27,13.34-8.87,14-10.07A5.48,5.48,0,0,1,91.65,156Z"/><path class="cls-6" d="M133.18,57.68c.7,11.58,3.86,20.62,20.45,32.37l1.9-15.38Z"/><path class="cls-6" d="M125.91,79c4.17,6.77,14.54,19.62,29.42,24.72l-.22,3.54s-22.42-7.13-30.89-25.8Z"/><path class="cls-7" d="M126.6,77.23C130.77,84,141.14,96.85,156,102l-.22,3.53s-22.42-7.12-30.89-25.8Z"/><path class="cls-8" d="M138.6,91.4a67,67,0,0,1-12-14.17l-1.69,2.46A44,44,0,0,0,138.6,96.2Z"/><path class="cls-9" d="M35.05,84.8C28.32,77,17.7,67.1,0,71.35L7.08,75.6,0,79.14s6.2.85,6.73,1.77c1.41,2.48-2.48,8.14-2.48,8.14s21.24-8.85,28.32-2.48Z"/><path class="cls-5" d="M6.73,80.91c1.41,2.48-2.48,8.14-2.48,8.14s21.24-8.85,28.32-2.48l1.72-1.23c-3.27-3.84-10.56-6.52-19-6.52a36.43,36.43,0,0,0-10,1.35A3.07,3.07,0,0,1,6.73,80.91Z"/><path class="cls-10" d="M166.75,90.65c-12.75,1.94-18.24,10.62-19.92,9.55s2.92-5.39,6.11-8.32c0,0-10.27,5-10.45,3.37-.13-1.18,4.66-3.5,9.74-5.84,0,0-18.14,4.69-9.38.44s32.13-4,32.13-4Z"/><path class="cls-10" d="M178.4,92.68c14,5.22,17.44,14.53,19.32,13.9s-5-6.88-7.43-10.45c0,0,7.07,5,7.61,3.54.4-1.1-3.4-3.44-7.79-6.9,0,0,12.29,6.52,4.78.35s-23.36-7-23.36-7Z"/><path class="cls-11" d="M162.32,90.11c0,3.54,1.06,9.39,8.32,10.09s10.44-3.18,10.09-7.78Z"/><path class="cls-11" d="M165.15,36.5c5.13-6.84,7.29-13.88,23.57-11.52,0,0-4.07,17.62-22.08,14.12Z"/><path class="cls-5" d="M166.4,36.16c4-5.94,6.18-12.12,19.92-10.79C189.42,25.68,174.29,38.25,166.4,36.16Z"/><path class="cls-10" d="M169.69,38c5.69-.61,10.47.57,14.66-9.6,0,0-11.51-3.7-15.64,7.85Z"/><path class="cls-12" d="M181.28,27.88c-3.71-.26-9.8.62-12.57,8.37l1,1.75c1.54-.16,3-.2,4.42-.36A11.46,11.46,0,0,1,181.28,27.88Z"/><path class="cls-5" d="M128.38,45.37c-.27-4.77,1.55-10.34,4.78-11.28,6.37-1.86,12.76,2,15,1.73s10.09-5.85,17.53-3.06c11.13,4.18,14.21,40.07,19.11,47.09,2.48,3.54,2.87,15-9.55,14.51-17-.71-14-7.53-20.9-13.45C128.87,59,128.73,51.74,128.38,45.37Z"/><path class="cls-13" d="M163.48,33.72c10,1.21,24.18,52,11.4,54.43C164.29,90.15,139,30.76,163.48,33.72Z"/><path class="cls-13" d="M132.72,36.14c6.74-6.94,28,8.43,33.52,13.31,7.6,6.73,12.84,35.76,7.83,38.52S115.79,53.59,132.72,36.14Z"/><path class="cls-14" d="M169.35,81.06c-4-7.43-12.61-20.21-5.7-20.38S183.46,79,183.46,79Z"/><path class="cls-5" d="M129.7,39.4c-6.9-5-11-11.15-25.89-4.12,0,0,9,15.67,25.23,7Z"/><path class="cls-13" d="M127.54,38.91c-6.9-5-8.52-9.91-23.73-3.63C111.61,40.7,115.45,40.81,127.54,38.91Z"/><path class="cls-10" d="M127,39.28c-4.61-3.38-7.36-7.46-17.3-2.75,0,0,6,10.48,16.86,4.7Z"/><path class="cls-15" d="M158.25,119.32c-3.54-5.31-5-13.27-2.12-14.34s11,5.67,11,5.67S163.83,116.8,158.25,119.32Z"/><path class="cls-16" d="M158.25,119.32a9.36,9.36,0,0,1,8.85-8.67C166,118.53,158.25,119.32,158.25,119.32Z"/><path class="cls-15" d="M161.44,115.21c1.32.92,5,.26,2.39-2.53Z"/><path class="cls-17" d="M173,94.36c1.59-.26,3.18-2.92,2.39-9.29l2.12-.27s-1.93,9.3.6,9.56Z"/><path class="cls-10" d="M175.72,87.18c3.14.69,9.12-5.92,7.74-8.23s-13.19-2.47-14.2-.38S172.82,86.54,175.72,87.18Z"/><path class="cls-18" d="M141.39,54.14l1.72-3.72s3.72,5.31,11.29.93l.53,1.19C150.62,55.12,146.47,56.83,141.39,54.14Z"/><path class="cls-18" d="M172.29,51.76l-1.53-3.35s-3.29,4.8-10,.84l-.47,1.07C164.11,52.65,167.79,54.2,172.29,51.76Z"/><path class="cls-9" d="M115.58,87.3c-19.22,8-65.66-2.14-81.7-6A10.08,10.08,0,0,0,23.46,85a53.05,53.05,0,0,0-3,4.45C32.94,115.12,64.12,136.34,115.58,87.3Z"/><path class="cls-19" d="M174.89,85.35c-2.08-2-5.37-5.5-3.47-5.84s5,4.92,5,4.92Z"/><path class="cls-19" d="M177,84.3c1.81-2.28,4.92-5.89,5.45-4s-4.39,5.48-4.39,5.48Z"/><path class="cls-5" d="M166.76,94.19c-1.36-.27-2,4.06,2,4.58S179.29,96.7,166.76,94.19Z"/><path class="cls-20" d="M157.6,116.91a10.33,10.33,0,0,1,4-5.35c-1.9-2.25-6-6.43-6.31-5.19C154.32,109.92,157.6,116.91,157.6,116.91Z"/><path class="cls-12" d="M113.74,40.82c4.94-3.47,8.5-3.55,11.89-2.6-3.88-3.06-7-5.92-15.93-1.69A15.46,15.46,0,0,0,113.74,40.82Z"/></g></g></svg>