<?xml version="1.0" encoding="utf-8"?>
<!-- Generator: Adobe Illustrator 25.1.0, SVG Export Plug-In . SVG Version: 6.00 Build 0)  -->
<svg version="1.1" id="Layer_1" xmlns="http://www.w3.org/2000/svg" xmlns:xlink="http://www.w3.org/1999/xlink" x="0px" y="0px"
	 viewBox="0 0 823.5 461.7" style="enable-background:new 0 0 823.5 461.7;" xml:space="preserve">
<style type="text/css">
	.st0{fill:#FFFFFF;}
	.st1{fill:#AFBEC1;}
	.st2{fill:#A0B2B6;}
	.st3{fill:#779196;}
	.st4{fill:#D2DBDC;}
</style>
<path class="st0" d="M482.6,266.5c-7.6,1-8.2-10.6-10.1-24.7s-4.6-25.5,3.1-26.5c7.6-1,15.4,9.6,17.3,23.7S490.2,265.4,482.6,266.5z
	"/>
<path class="st1" d="M413.7,119.3L375.1,144l4.4,6.3c11.3,16.4,5.7,39-11.9,48.3l-1.3,0.7c-14.9,7.9-33.2,3.5-42.9-10.3l-26.5-37.8
	c-4.3-5.7-6.9-12.2-7.7-18.8c-2.4-19.1,10.6-36.8,29.2-41.7l40-10.5c6.9-1.8,11.2-8.8,9.7-15.7L354.7,25c-2.5-7.5,7.1-13,12.2-7
	l52.2,61.1C430.1,91.3,427.6,110.4,413.7,119.3z"/>
<path class="st0" d="M337.8,193.5c3.5,5,8.2,8.8,13.4,11.1c-10.3-0.2-20.3-5.2-26.6-14.2L298,152.8c-4.3-5.7-6.9-12.2-7.7-18.8
	c-2.4-19.1,10.6-36.8,29.2-41.7l40-10.5c6.9-1.8,11.2-8.8,9.7-15.7l-13.4-39.6c-2.5-7.5,7.1-13,12.2-7l2.4,2.9
	c-1.6,1.7-2.4,4.3-1.5,7.1l13.4,39.6c1.5,7-2.7,13.9-9.7,15.7l-40,10.5c-18.6,4.9-31.6,22.6-29.2,41.7c0.8,6.6,3.3,13.1,7.7,18.8
	L337.8,193.5z"/>
<path class="st2" d="M350.8,208.6c-12.3,0-24.3-5.8-31.7-16.5l-26.4-37.7c-4.7-6.3-7.7-13.6-8.7-21.3c-2.7-21.4,11.6-41.9,33.2-47.5
	l40-10.5c4.1-1.1,6.6-5,5.8-9.1l-13.3-39.3c-2-5.8,0.4-11.9,5.7-14.9c5.3-3,11.8-1.9,15.8,2.8l52.2,61.1c6.2,6.9,9.1,16.3,7.9,25.6
	c-1.3,9.3-6.5,17.6-14.5,22.7c0,0,0,0,0,0l-33.9,21.7l1.2,1.8c6.2,9.1,8.3,20.5,5.7,31.2c-2.6,10.7-9.7,19.8-19.5,25l-1.3,0.7
	C363.1,207.1,356.9,208.6,350.8,208.6z M361.6,20.8c-0.3,0-0.6,0.1-1,0.3c-0.8,0.5-1.1,1.2-0.8,2.1l13.4,39.6
	c0.1,0.2,0.1,0.4,0.2,0.6c2.2,9.8-3.8,19.6-13.6,22.1l-40,10.5c-16.4,4.3-27.2,19.7-25.2,35.8c0.7,5.8,3,11.4,6.6,16.2
	c0,0.1,0.1,0.1,0.1,0.2l26.5,37.8c8.1,11.5,23.5,15.2,36,8.6l1.3-0.7c7-3.7,12.2-10.3,14.1-18c1.9-7.7,0.4-15.9-4.1-22.5l-4.4-6.3
	c-0.8-1.2-1.1-2.7-0.8-4.1c0.3-1.4,1.1-2.7,2.4-3.5l38.6-24.7c5.3-3.4,8.8-8.8,9.6-15c0.8-6.2-1.1-12.4-5.3-17l-52.3-61.2
	C362.5,21.1,362.1,20.8,361.6,20.8z M413.7,119.3L413.7,119.3L413.7,119.3z"/>
<path class="st3" d="M378,148.5l-28.9,12.1l23.1-21.1c2.2-2,5.7-1.9,7.7,0.3c2,2.2,1.9,5.7-0.3,7.7
	C379.1,147.9,378.6,148.3,378,148.5z"/>
<path class="st3" d="M298.3,157.3c-1.2,0-2.4-0.5-3.3-1.5c-0.5-0.6-1-1.2-1.5-1.8c-1.5-1.9-1.1-4.6,0.7-6c1.9-1.5,4.6-1.1,6,0.7
	c0.4,0.5,0.8,1.1,1.3,1.6c1.5,1.8,1.3,4.5-0.5,6.1C300.3,157,299.3,157.3,298.3,157.3z"/>
<path class="st0" d="M348.1,107.2c4,4.3-2.9,9.7-10.8,17.2c-7.9,7.5-13.8,14.1-17.8,9.9c-4-4.3-0.9-13.8,7-21.3
	C334.3,105.6,344,103,348.1,107.2z"/>
<path class="st0" d="M505.8,91.6c8.9-4,19.7-0.2,24.2,8.4c3.7,7,2.4,15.2-2.4,20.8c-1,1.1-0.2,2.8,1.3,2.7c7.4-0.4,14.7,3.7,18,11
	c4.2,9.3-0.1,20.5-9.4,24.7c-6.4,2.9-13.7,1.8-18.9-2.2c-3.9-3-9.2-3.2-13.6-1.1L484,166.1l-17-34.8l20.3-9.9
	c4.6-2.3,7.7-7,7.5-12.2C494.6,101.9,498.7,94.8,505.8,91.6z"/>
<path class="st2" d="M484,171.5c-0.6,0-1.2-0.1-1.7-0.3c-1.4-0.5-2.5-1.4-3.1-2.7l-17-34.8c-1.3-2.7-0.2-5.9,2.5-7.2l20.3-9.9
	c2.8-1.4,4.6-4.2,4.5-7.1c-0.3-9.8,5.2-18.7,14.2-22.7c11.4-5.1,25.4-0.3,31.2,10.8c3.5,6.8,3.6,14.6,0.5,21.2
	c7.2,1.7,13.3,6.6,16.5,13.6c2.6,5.8,2.8,12.3,0.5,18.4c-2.3,6.1-6.8,10.8-12.5,13.4c-8,3.6-17.4,2.5-24.4-2.8
	c-2.2-1.6-5.3-1.9-8-0.5l-20.9,10.2C485.7,171.3,484.9,171.5,484,171.5z M474.2,133.7l12.3,25.1l16.1-7.8c6.3-3.1,13.9-2.4,19.2,1.6
	c3.9,2.9,9,3.5,13.5,1.6c3.2-1.4,5.6-4.1,6.9-7.4c1.3-3.4,1.2-7-0.2-10.1c-2.3-5-7.3-8.1-12.8-7.8c-2.8,0.2-5.4-1.3-6.6-3.9
	c-1.3-2.5-0.9-5.6,1-7.7c3.6-4.1,4.3-10,1.7-14.8c-3.2-6.1-10.9-8.8-17.2-6c0,0,0,0,0,0c-4.9,2.2-8,7.1-7.8,12.5
	c0.2,7.2-3.9,13.9-10.5,17.2L474.2,133.7z M528.7,118.1c0,0-0.1,0-0.1,0C528.6,118.1,528.6,118.1,528.7,118.1z M505.8,91.6
	L505.8,91.6L505.8,91.6z"/>
<path class="st1" d="M431.5,136.7l20-9.7c6-2.9,13.2-0.4,16.1,5.5l15.9,32.5c2.9,6,0.4,13.2-5.5,16.1l-20,9.7
	c-8.7,4.3-15.5,11.5-19.6,20.3c-20.7,44.7-76.6,80.3-123.9,60.4c-28-11.7-42.8-42.1-34.9-71.4c13.5-49.6,75.9-71.7,123.9-60.6
	C412.9,141.8,422.8,141,431.5,136.7z"/>
<path class="st0" d="M471.5,139.9c-3.5-3.8-9.3-5.1-14.2-2.7l-20,9.7c-8.7,4.3-18.6,5.1-28.1,2.9c-32-7.4-70.3-0.1-96.4,20.3
	c0.9,8.4-5.1,19.6-17.1,17.9c-4.6,6.7-8.2,14.2-10.4,22.4c-3.8,14.1-2.4,28.5,3.3,40.9c-9.3-14-12.6-31.7-7.9-49.1
	c13.5-49.6,75.9-71.7,123.9-60.6c9.5,2.2,19.4,1.3,28.1-2.9l20-9.7c6-2.9,13.2-0.4,16.1,5.6L471.5,139.9z"/>
<path class="st2" d="M342.6,282.6c-10.2,0-20.3-1.9-30.2-6c-30.2-12.7-46.6-46.1-38-77.8c14.2-52.5,80.1-76.1,130.3-64.4
	c8.4,2,17.1,1.1,24.5-2.5l0,0l20-9.7c8.6-4.2,19.1-0.6,23.3,8l15.9,32.5c4.2,8.6,0.6,19.1-8,23.3l-20,9.7
	c-7.4,3.6-13.4,9.9-17.1,17.8C425.9,251,384.3,282.6,342.6,282.6z M378,142.2c-40.1,0-82.7,20.8-93.2,59.4
	c-7.3,26.9,6.1,54.3,31.8,65.1c44.5,18.7,97.4-15.4,117-57.7c4.7-10.1,12.5-18.2,22.1-22.9l20-9.7c3.3-1.6,4.7-5.6,3.1-8.9
	l-15.9-32.5c-1.6-3.3-5.6-4.7-8.9-3.1l-20,9.7c-9.6,4.7-20.8,5.9-31.6,3.3C394.5,143.1,386.3,142.2,378,142.2z"/>
<path class="st0" d="M383.9,172.2c3.4,6.9-7.5,11-20.3,17.3c-12.8,6.2-22.8,12.3-26.1,5.3c-3.4-6.9,4.3-17.6,17.1-23.9
	C367.4,164.7,380.6,165.3,383.9,172.2z"/>
<path class="st1" d="M603.4,206.5l-44.6,10.6l2,7.4c5.3,19.2-7.4,38.7-27.1,41.7l-1.5,0.2c-16.6,2.6-32.5-7.7-37.1-23.8l-12.6-44.4
	c-2.2-6.8-2.5-13.8-1.1-20.2c4-18.8,22.1-31.3,41.2-29.8l41.3,3.2c7.1,0.6,13.5-4.6,14.3-11.7l0.3-41.8c0-7.9,11-9.9,13.8-2.5
	l29.2,74.8C628.1,185.4,619.4,202.7,603.4,206.5z"/>
<path class="st0" d="M507.8,252.7c1.7,5.9,4.8,11,9,14.9c-9.7-3.6-17.5-11.6-20.5-22.1l-12.6-44.4c-2.2-6.8-2.5-13.8-1.1-20.2
	c4-18.8,22.1-31.3,41.2-29.8l41.3,3.2c7.1,0.6,13.5-4.6,14.3-11.7l0.3-41.8c0-7.9,11-9.9,13.8-2.5l1.4,3.5c-2.1,1.1-3.7,3.3-3.7,6.3
	l-0.3,41.8c-0.8,7.1-7.2,12.3-14.3,11.7l-41.3-3.2c-19.2-1.5-37.2,11-41.2,29.8c-1.4,6.5-1.1,13.4,1.1,20.2L507.8,252.7z"/>
<path class="st2" d="M527.3,272.3c-17,0-32.5-11.3-37.2-28.1l-12.6-44.3c-2.4-7.5-2.8-15.4-1.2-22.9c4.5-21.1,24.7-35.8,46.9-34
	l41.3,3.2c4.2,0.3,7.9-2.6,8.5-6.7l0.3-41.5c0-6.1,4.3-11.1,10.3-12.3c6-1.1,11.8,2.1,14,7.8l29.2,74.8c3.6,8.5,3.3,18.3-1,26.7
	c-4.3,8.4-11.9,14.5-21.1,16.7c0,0,0,0,0,0l-39.1,9.3l0.6,2.1c2.9,10.6,1.1,22.1-4.9,31.3c-6,9.2-15.7,15.5-26.6,17.2l-1.5,0.2
	C531.2,272.2,529.2,272.3,527.3,272.3z M519.6,153.6c-15.8,0-29.6,10.6-32.8,25.7c-1.2,5.7-0.9,11.8,0.9,17.5c0,0.1,0,0.1,0.1,0.2
	l12.6,44.4c3.8,13.5,17.2,22.1,31.1,20l1.5-0.2c7.9-1.2,14.9-5.7,19.2-12.4c4.3-6.7,5.6-14.9,3.5-22.6l-2-7.4
	c-0.4-1.4-0.2-2.9,0.6-4.2c0.7-1.3,2-2.2,3.4-2.5l44.6-10.6c6.1-1.5,11.2-5.5,14-11c2.8-5.6,3-12.1,0.6-17.8l-29.3-74.9
	c-0.4-0.9-1-1.3-2-1.1c-1,0.2-1.4,0.8-1.5,1.7l-0.3,41.8c0,0.2,0,0.4,0,0.6c-1.2,10-10,17.2-20.1,16.4l-41.3-3.2
	C521.4,153.6,520.5,153.6,519.6,153.6z M603.4,206.5L603.4,206.5L603.4,206.5z"/>
<path class="st3" d="M560.1,222.4l-31.2,1.9l28.7-12.4c2.8-1.2,6,0.1,7.2,2.9c1.2,2.8-0.1,6-2.9,7.2
	C561.3,222.2,560.7,222.3,560.1,222.4z"/>
<path class="st0" d="M545.3,173.6c2.4,5.4-6,8.2-15.9,12.7c-9.9,4.5-17.6,8.8-20.1,3.5c-2.4-5.4,3.7-13.3,13.6-17.8
	C532.9,167.5,542.9,168.2,545.3,173.6z"/>
<path class="st0" d="M134.8,92.4c-6.3-7.4-5.7-18.9,1.4-25.6c5.7-5.5,14-6.5,20.7-3.4c1.3,0.6,2.7-0.6,2.2-2
	c-2.4-7-0.5-15.2,5.6-20.3c7.7-6.6,19.8-5.6,26.3,2.2c4.5,5.4,5.5,12.6,3.1,18.8c-1.8,4.6-0.5,9.8,2.7,13.4l15.6,17.2l-28.7,26
	l-15.1-16.7c-3.5-3.8-8.9-5.5-13.8-3.9C147.8,100.3,139.8,98.4,134.8,92.4z"/>
<path class="st3" d="M183.6,119.8l-15.7-17.4c-3.3-3.7-8.4-5.1-12.9-3.6c-7.6,2.5-15.8,0.1-20.9-5.9l0,0c-6.6-7.8-6-19.8,1.4-26.8
	c5.8-5.6,14.3-7,21.7-3.6c0.3,0.1,0.6,0.1,0.8-0.1c0.1-0.1,0.3-0.4,0.2-0.8c-2.6-7.7-0.4-16,5.8-21.3c8.1-6.9,20.7-5.8,27.5,2.3
	c4.6,5.5,5.9,13,3.3,19.7c-1.6,4.1-0.6,9,2.6,12.5l16.2,17.9L183.6,119.8z M158.6,96.6c3.9,0,7.8,1.7,10.5,4.8l14.5,16.1l27.4-24.8
	l-15-16.6c-3.6-4-4.7-9.6-2.9-14.3c2.4-6.1,1.2-12.9-3-17.9c-6.2-7.4-17.7-8.3-25.1-2.1c-5.6,4.8-7.7,12.4-5.3,19.4
	c0.3,1,0.1,2-0.6,2.7c-0.7,0.7-1.8,0.8-2.7,0.4c-6.7-3.1-14.4-1.8-19.7,3.3c-6.7,6.4-7.3,17.3-1.3,24.4l0,0
	c4.7,5.5,12.2,7.6,19.1,5.4C155.8,96.8,157.2,96.6,158.6,96.6z"/>
<path class="st2" d="M183.7,124c-0.1,0-0.2,0-0.3,0c-1.4-0.1-2.8-0.7-3.7-1.8l-15.1-16.7c-2.1-2.3-5.3-3.3-8.1-2.4
	c-9.3,3-19.4,0.2-25.8-7.3c-8.1-9.6-7.3-24.3,1.8-33c5.5-5.3,13-7.5,20.2-6.4c-0.4-7.4,2.6-14.6,8.5-19.6c9.9-8.4,25.5-7.2,33.9,2.8
	c5.7,6.7,7.2,16,4.1,24.2c-1,2.5-0.3,5.6,1.7,7.8L216.4,89c2,2.2,1.8,5.6-0.4,7.6l-28.7,26C186.3,123.5,185,124,183.7,124z
	 M158.6,92c5.2,0,10.2,2.2,13.9,6.2L184,111l20.8-18.8l-12-13.2c-4.7-5.2-6.2-12.6-3.8-18.9c1.8-4.5,0.9-9.7-2.2-13.4
	c-4.7-5.5-13.2-6.2-18.7-1.5c-4.2,3.6-5.8,9.2-4,14.5c0.9,2.6,0.2,5.6-1.9,7.5c-2.1,1.9-5.1,2.4-7.7,1.2c-5-2.3-10.8-1.3-14.7,2.5
	c-5,4.8-5.4,12.9-1,18.2c0,0,0,0,0,0c3.5,4.1,9.1,5.7,14.2,4C154.9,92.3,156.8,92,158.6,92z M153.9,63.1c0,0,0,0.1,0,0.1
	C153.9,63.1,153.9,63.1,153.9,63.1z"/>
<path class="st1" d="M198.7,151.2l-14.9-16.5c-4.5-4.9-4.1-12.6,0.9-17l26.8-24.3c4.9-4.5,12.6-4.1,17,0.9l14.9,16.5
	c6.5,7.2,15.4,11.7,25,13.2c48.7,7.5,98.4,51.3,92.5,102.3c-3.5,30.2-28.6,52.8-58.9,53.3c-51.4,0.8-90-53-92.6-102.2
	C208.8,167.7,205.2,158.4,198.7,151.2z"/>
<path class="st0" d="M191.4,113.7c-2.7,4.4-2.3,10.3,1.4,14.4l14.9,16.5c6.5,7.2,10.1,16.5,10.6,26.2c1.7,32.8,19.4,67.6,46.2,86.9
	c7.8-3.2,20.3-0.5,21.9,11.4c7.7,2.6,15.9,4,24.4,3.8c14.6-0.2,28-5.6,38.3-14.5c-10.9,12.8-27,20.9-45,21.2
	c-51.4,0.8-90-53-92.6-102.2c-0.5-9.7-4.1-19-10.6-26.1l-14.9-16.5c-4.5-4.9-4.1-12.6,0.9-17L191.4,113.7z"/>
<path class="st2" d="M300.8,284.9c-53.8,0-94.1-56.2-96.8-107.3c-0.5-8.7-3.7-16.8-9.2-22.8l-14.9-16.5c-6.5-7.1-5.9-18.2,1.2-24.6
	l26.8-24.3c3.5-3.1,7.9-4.7,12.6-4.5c4.7,0.2,8.9,2.3,12.1,5.7l14.9,16.5c5.5,6.1,13.2,10.1,21.8,11.5c50.9,7.8,103.3,54.2,97,108.2
	c-3.8,32.6-31.4,57.6-64.2,58.1C301.6,284.9,301.2,284.9,300.8,284.9z M219.6,95.7c-1.7,0-3.2,0.6-4.5,1.7l-26.8,24.3
	c-2.7,2.5-2.9,6.7-0.5,9.4l14.9,16.5l0,0c7.1,7.9,11.4,18.4,12,29.5c2.4,46.2,38.3,97.1,86,97.1c0.4,0,0.7,0,1.1,0
	c27.9-0.5,50.5-20.9,53.7-48.6c5.6-48-41.9-89.3-87.9-96.3c-11-1.7-21-7-28.1-14.9l-14.9-16.5c-1.2-1.3-2.8-2.1-4.6-2.2
	C219.8,95.7,219.7,95.7,219.6,95.7z"/>
<path class="st0" d="M246.1,187.1c5.7-5.2,12.7,4.1,22.2,14.7c9.6,10.6,18.1,18.5,12.4,23.6c-5.7,5.2-18.1,0.8-27.7-9.8
	C243.4,205,240.3,192.2,246.1,187.1z"/>
<path class="st4" d="M610.1,242h-411c-5.8,0-10.5-4.7-10.5-10.5v-17.7c0-5.8,4.7-10.5,10.5-10.5h411c5.8,0,10.5,4.7,10.5,10.5v17.7
	C620.6,237.3,615.9,242,610.1,242z"/>
<path class="st2" d="M605.9,242l-42.3,171c-2.3,23.3-21.9,41-45.3,41h-219c-23.4,0-43-17.7-45.3-41l-42.2-171H605.9z"/>
</svg>
