<svg xmlns="http://www.w3.org/2000/svg" viewBox="0 0 187.53 143.95"><defs><style>.cls-1{fill:#9daead;}.cls-2{fill:#8a9d9d;}.cls-3{fill:#c0cbca;}.cls-4{fill:#8c9f9f;}.cls-5{fill:#b1bebd;}.cls-6{fill:#a6b5b4;}.cls-7{fill:#c7d0d0;}.cls-8{fill:#d4dbdb;}.cls-9{fill:#c4cece;}.cls-10{fill:#678080;}.cls-11{fill:#859a99;}.cls-12{fill:#788f8e;}</style></defs><g id="Layer_2" data-name="Layer 2"><g id="Layer_1-2" data-name="Layer 1"><path class="cls-1" d="M139.87,16.3c-7.31-.56-10.7-5.35-14.11-12.16s-14.34,5.11-14.34,5.11l9.48,15.8,41.34,6.32S160.69,12,170.42,10.3c0,0-5.43-9.66-10-9.89C150.16-.07,146.19,16.79,139.87,16.3Z"/><path class="cls-2" d="M146.17,20.42c2.2-4.73,12.51-17.75,14.88-17.24s5.41,5.74,5.41,5.74S159.19,24,159.87,26.67,146.17,20.42,146.17,20.42Z"/><path class="cls-2" d="M123.5,29.64c-3.19-4.14-10-19.29-8.44-21.16s7.59-2.15,7.59-2.15,10,13.39,12.71,14S123.5,29.64,123.5,29.64Z"/><path class="cls-3" d="M13.66,51.85a8.89,8.89,0,0,1-1.94-.2,7.25,7.25,0,0,1-5.63-5.31c0-.14-.07-.29-.1-.44-2.87-.78-4.91-2.47-5.66-4.77-.83-2.5-.49-6.84,5.84-13.35l1.39,1.36c-4.4,4.53-6.31,8.57-5.39,11.37a5.57,5.57,0,0,0,3.69,3.32c.19-3,1.94-6.15,5-8.81s6.55-3.32,8.47-1.54c1.6,1.49,2.06,4.74-1.46,9.42-1.84,2.46-5.77,3.8-9.74,3.39a5.26,5.26,0,0,0,4,3.46c4.13.92,9.33-1.92,13.92-7.56l1.5,1.23C21.78,50.51,16.69,51.85,13.66,51.85ZM7.79,44.29c3.45.5,7-.56,8.5-2.56,2.57-3.41,2.7-5.89,1.7-6.82s-3.31-.66-5.87,1.57C9.35,38.91,7.81,41.73,7.79,44.29Z"/><path class="cls-4" d="M130.38,144h6.32s-.24-29.66,8.52-46.68l-18.73,4.38S131.11,139.33,130.38,144Z"/><path class="cls-4" d="M39.69,81.22C41.88,97.76,53.55,144,53.55,144h6.08s-5.35-28,8.51-41.09Z"/><path class="cls-5" d="M109,121.83c60.3-22.86,53.16-50.09,21.07-60.46-13.89-4.5-82.83-46.53-111.53-12.49C-21.77,96.69,46,145.69,109,121.83Z"/><path class="cls-1" d="M147.41,70.66c5.21,12.6-5.88,28.88-44.17,43.39-35.91,13.61-73.37,3.52-91.47-16.52,14.64,25,56.91,39.57,97.22,24.3C155.76,104.1,162,83.74,147.41,70.66Z"/><path class="cls-5" d="M10,81.22C12.21,97.76,23.88,144,23.88,144H30s-5.35-28,8.51-41.09Z"/><path class="cls-5" d="M108.5,144h6.32s-.24-29.66,8.51-46.68l-22.13,5.11S109.23,139.33,108.5,144Z"/><path class="cls-1" d="M132,82.12c1.29,5.67,6.81,16.2,11.83,20.74,0,0,9.89-7.13,14.75-18Z"/><path class="cls-5" d="M182.58,62.34c-26.26-16.21-1.19-34.59-37.28-44.09-6.16-1.63-23.1-6.49-32.75,15.56C110.28,39,99.91,48.72,84.34,46.45c0,0,9,4.75,19.78,15.56C121,79,149.51,97.35,169.61,81.3,173.09,78.53,182.58,62.34,182.58,62.34Z"/><path class="cls-6" d="M123.21,77.53c15.15,9.67,32.72,14.7,46.4,3.77,1.36-1.08,3.63-4.21,5.9-7.62C158.27,88.55,139.58,82.12,123.21,77.53Z"/><path class="cls-6" d="M145.3,18.25c-5.53-1.46-19.74-5.52-29.57,9.61C141.47,29.72,170,47.21,170,68.52c0,2.93-.25,5.83-.4,12.78,3.48-2.77,13-19,13-19C156.32,46.13,181.39,27.75,145.3,18.25Z"/><path class="cls-3" d="M115.83,27.71c-1.16,1.76-2,3.94-3.28,6.1C95,62.43,49.39,12.27,18.53,48.88,6.07,63.67,4,78.57,8.82,91.39,110.29,118.84,106.5,69.31,115.83,27.71Z"/><path class="cls-7" d="M172.53,85.36c5.58.46,18.15-14.92,14.26-21.73s-7.13-1.61-10-1.61-8.1-3.57-11,.32S164.75,84.71,172.53,85.36Z"/><path class="cls-8" d="M166.25,63.31c-2.64,3.53-.88,20.32,6.19,20.91a5.54,5.54,0,0,0,3.05-1,28.73,28.73,0,0,0,2.49-12A30.14,30.14,0,0,0,176.83,63a2.78,2.78,0,0,1-.57.07C173.61,63,168.91,59.78,166.25,63.31Z"/><path class="cls-7" d="M106.07,10c6,8.1,5.51,24.31,10.86,24S130.71,5.44,124.71.9c-3.44-2.6-8.59,4.05-10.7,5C113.12,6.34,104.4,7.73,106.07,10Z"/><path class="cls-7" d="M157.45,1.55c-1.27,2.48,6,21.88,14.1,25.61,1.72.79,3.41-10,3.09-15.24-.28-4.41-1.45-4.93-5.35-7.45C164.57,1.43,159.31-2.09,157.45,1.55Z"/><path class="cls-2" d="M166.89,83.17c-6.32.48-22-2.56-30.15-14.59L133,70.89l3.16.12C145.43,81.19,155.57,85.46,166.89,83.17Z"/><path class="cls-9" d="M139.06,61.77a11,11,0,1,0-11,10.82A10.91,10.91,0,0,0,139.06,61.77Z"/><path class="cls-10" d="M139.28,43.37c2-.18,2.58,5.59.4,5.4S137.93,43.5,139.28,43.37Z"/><path class="cls-10" d="M160.31,42.89c2-.19,2.58,5.58.4,5.4S159,43,160.31,42.89Z"/><path class="cls-2" d="M169.21,65.78c2.79-.21,4.13,11.19,1.45,11.55S166,66,169.21,65.78Z"/><path class="cls-2" d="M181.75,65.88c2.65.9-.61,11.91-3.22,11.19S178.75,64.85,181.75,65.88Z"/><path class="cls-11" d="M22.29,137.57c1,4,1.59,6.38,1.59,6.38H30a63.77,63.77,0,0,1-.78-6.38Z"/><path class="cls-11" d="M115,137.57h-7a31,31,0,0,1,.52,6.38h6.32S114.8,141.48,115,137.57Z"/><path class="cls-12" d="M136.87,137.57h-6.63a39.43,39.43,0,0,1,.14,6.38h6.32S136.69,141.48,136.87,137.57Z"/><path class="cls-12" d="M52,137.57c1,4,1.59,6.38,1.59,6.38h6.08a63.77,63.77,0,0,1-.78-6.38Z"/><path class="cls-8" d="M122.34,5.54c3.41-.69.17,20.29-5.58,23.84-2,1.24-7.61-13.52-6.09-19.61.57-2.26,3.54-.14,6.09-1.52C118.07,7.53,120.47,5.92,122.34,5.54Z"/><path class="cls-8" d="M124.88,60.13c1.35-1.62,1.45-3.75.23-4.76s-3.3-.54-4.64,1.08-1.45,3.74-.23,4.76S123.54,61.74,124.88,60.13Z"/></g></g></svg>