<?xml version="1.0" encoding="utf-8"?>
<!-- Generator: Adobe Illustrator 25.1.0, SVG Export Plug-In . SVG Version: 6.00 Build 0)  -->
<svg version="1.1" id="Layer_1" xmlns="http://www.w3.org/2000/svg" xmlns:xlink="http://www.w3.org/1999/xlink" x="0px" y="0px"
	 viewBox="0 0 187.5 143.9" style="enable-background:new 0 0 187.5 143.9;" xml:space="preserve">
<style type="text/css">
	.st0{fill:#93A5A4;}
	.st1{fill:#9DAEAD;}
	.st2{fill:#8A9D9D;}
	.st3{fill:#C0CBCA;}
	.st4{fill:#A6B5B4;}
	.st5{fill:#CACECD;}
	.st6{fill:#DAE0DF;}
	.st7{fill:#C7D0D0;}
	.st8{fill:#D4DBDB;}
	.st9{fill:#678080;}
</style>
<g>
	<path class="st0" d="M68.1,102.9L39.7,81.2C41.9,97.8,53.5,144,53.5,144h6.1c0,0,0,0,0,0h0c-0.4-2.1-0.6-4.2-0.8-6.4h0
		C58.2,128.5,58.4,112.1,68.1,102.9z"/>
	<path class="st0" d="M38.5,102.9L10,81.2C12.2,97.8,23.9,144,23.9,144H30c0,0,0,0,0,0h0c-0.2-1-0.3-2.1-0.5-3.2c0,0,0,0,0,0
		c-0.1-1.1-0.2-2.1-0.3-3.2h0C28.5,128.5,28.8,112.1,38.5,102.9z"/>
	<path class="st0" d="M101.2,102.4c0,0,6.8,31,7.3,39.8c0,0.5,0,1,0,1.6c0,0.1,0,0.2,0,0.2h6.3c0,0,0,0,0,0h0c0,0,0-2.5,0.2-6.4h0
		c0.5-9.7,2.1-28.2,8.3-40.2L101.2,102.4z"/>
	<path class="st0" d="M136.9,137.6c0.5-9.7,2.1-28.2,8.4-40.2l-18.7,4.4c0,0,3.7,30,4,39.8c0,0.8,0,1.7-0.1,2.5h0c0,0,0,0,0,0h6.3
		c0,0,0,0,0,0h0C136.7,143.9,136.7,141.5,136.9,137.6L136.9,137.6z"/>
</g>
<path class="st1" d="M139.9,16.3c-7.3-0.6-10.7-5.4-14.1-12.2s-14.3,5.1-14.3,5.1l9.5,15.8l41.3,6.3c0,0-1.5-19.4,8.2-21.1
	c0,0-5.4-9.7-10-9.9C150.2-0.1,146.2,16.8,139.9,16.3z"/>
<path class="st2" d="M146.2,20.4c2.2-4.7,12.5-17.8,14.9-17.2s5.4,5.7,5.4,5.7s-7.3,15.1-6.6,17.8S146.2,20.4,146.2,20.4z"/>
<path class="st2" d="M123.5,29.6c-3.2-4.1-10-19.3-8.4-21.2s7.6-2.2,7.6-2.2s10,13.4,12.7,14S123.5,29.6,123.5,29.6z"/>
<path class="st3" d="M13.7,51.8c-0.7,0-1.3-0.1-1.9-0.2C9,51.1,6.8,49,6.1,46.3C6.1,46.2,6,46,6,45.9c-2.9-0.8-4.9-2.5-5.7-4.8
	c-0.8-2.5-0.5-6.8,5.8-13.4l1.4,1.4c-4.4,4.5-6.3,8.6-5.4,11.4c0.6,1.6,2,2.9,3.7,3.3c0.2-3,1.9-6.2,5-8.8s6.6-3.3,8.5-1.5
	c1.6,1.5,2.1,4.7-1.5,9.4c-1.8,2.5-5.8,3.8-9.7,3.4c0.6,1.8,2.1,3.1,4,3.5c4.1,0.9,9.3-1.9,13.9-7.6l1.5,1.2
	C21.8,50.5,16.7,51.8,13.7,51.8z M7.8,44.3c3.4,0.5,7-0.6,8.5-2.6c2.6-3.4,2.7-5.9,1.7-6.8s-3.3-0.7-5.9,1.6
	C9.4,38.9,7.8,41.7,7.8,44.3z"/>
<path class="st1" d="M132,82.1c1.3,5.7,6.8,16.2,11.8,20.7c0,0,9.9-7.1,14.8-18L132,82.1z"/>
<path class="st4" d="M123.2,77.5c15.2,9.7,32.7,14.7,46.4,3.8c1.4-1.1,3.6-4.2,5.9-7.6C158.3,88.6,139.6,82.1,123.2,77.5z"/>
<path class="st5" d="M182.6,62.3C158,47.1,178.5,30,151.4,20.1c-1.8-0.7-3.8-1.3-6.1-1.9c-0.7-0.2-1.5-0.4-2.4-0.6c0,0-0.1,0-0.1,0
	c-0.2,0-0.4-0.1-0.6-0.1c0,0-0.1,0-0.1,0c-0.2,0-0.4-0.1-0.7-0.1c0,0-0.1,0-0.1,0c-0.2,0-0.5-0.1-0.7-0.1c0,0,0,0,0,0
	c-1.6-0.3-3.4-0.5-5.4-0.5c0,0,0,0-0.1,0c-0.3,0-0.6,0-0.9,0c0,0-0.1,0-0.1,0c-0.3,0-0.6,0-0.9,0.1c0,0-0.1,0-0.1,0
	c-0.3,0-0.6,0.1-0.9,0.1c0,0-0.1,0-0.1,0c-2.4,0.3-4.8,1-7.2,2.3c0,0-0.1,0-0.1,0c-0.3,0.2-0.6,0.4-1,0.6c0,0-0.1,0.1-0.1,0.1
	c-0.3,0.2-0.6,0.4-0.9,0.6c0,0-0.1,0.1-0.1,0.1c-0.3,0.2-0.6,0.5-0.9,0.7c0,0-0.1,0-0.1,0.1c-2,1.6-4,3.8-5.8,6.6c0,0,0,0,0,0
	c0,0,0,0,0,0c-1.1,1.7-2.2,3.7-3.2,5.9c-1.7,3.9-7.8,10.2-17.3,12.3c-26-10.2-59-18.2-76.8,2.8c-40.3,47.8,27.5,96.8,90.5,73
	c29.7-11.3,43.1-23.6,45.1-34.5c5.5-0.4,10.7-2.3,15.5-6.1C173.1,78.5,182.6,62.3,182.6,62.3C182.6,62.3,182.6,62.3,182.6,62.3
	C182.6,62.3,182.6,62.3,182.6,62.3z"/>
<path class="st6" d="M115.8,27.7c-1.2,1.8-2,3.9-3.3,6.1C95,62.4,49.4,12.3,18.5,48.9C6.1,63.7,4,78.6,8.8,91.4
	C110.3,118.8,106.5,69.3,115.8,27.7z"/>
<path class="st7" d="M172.5,85.4c5.6,0.5,18.1-14.9,14.3-21.7s-7.1-1.6-10-1.6s-8.1-3.6-11,0.3S164.8,84.7,172.5,85.4z"/>
<path class="st8" d="M166.2,63.3c-2.6,3.5-0.9,20.3,6.2,20.9c1.1,0,2.2-0.4,3.1-1c1.7-3.8,2.5-7.9,2.5-12c0-2.8-0.4-5.5-1.2-8.2
	c-0.2,0-0.4,0.1-0.6,0.1C173.6,63,168.9,59.8,166.2,63.3z"/>
<path class="st7" d="M106.1,10c6,8.1,5.5,24.3,10.9,24s13.8-28.6,7.8-33.1c-3.4-2.6-8.6,4.1-10.7,5C113.1,6.3,104.4,7.7,106.1,10z"
	/>
<path class="st7" d="M157.4,1.5c-1.3,2.5,6,21.9,14.1,25.6c1.7,0.8,3.4-10,3.1-15.2c-0.3-4.4-1.4-4.9-5.4-7.4
	C164.6,1.4,159.3-2.1,157.4,1.5z"/>
<path class="st2" d="M166.9,83.2c-6.3,0.5-22-2.6-30.1-14.6l-3.7,2.3l3.2,0.1C145.4,81.2,155.6,85.5,166.9,83.2z"/>
<path class="st9" d="M139.3,43.4c2-0.2,2.6,5.6,0.4,5.4S137.9,43.5,139.3,43.4z"/>
<path class="st9" d="M160.3,42.9c2-0.2,2.6,5.6,0.4,5.4S159,43,160.3,42.9z"/>
<path class="st2" d="M169.2,65.8c2.8-0.2,4.1,11.2,1.4,11.6S166,66,169.2,65.8z"/>
<path class="st2" d="M181.8,65.9c2.6,0.9-0.6,11.9-3.2,11.2S178.8,64.8,181.8,65.9z"/>
<path class="st8" d="M122.3,5.5c3.4-0.7,0.2,20.3-5.6,23.8c-2,1.2-7.6-13.5-6.1-19.6c0.6-2.3,3.5-0.1,6.1-1.5
	C118.1,7.5,120.5,5.9,122.3,5.5z"/>
</svg>
