<?xml version="1.0" encoding="utf-8"?>
<!-- Generator: Adobe Illustrator 25.1.0, SVG Export Plug-In . SVG Version: 6.00 Build 0)  -->
<svg version="1.1" xmlns="http://www.w3.org/2000/svg" xmlns:xlink="http://www.w3.org/1999/xlink" x="0px" y="0px"
	 viewBox="0 0 824.4 401.4" style="enable-background:new 0 0 824.4 401.4;" xml:space="preserve">
<style type="text/css">
	.st0{fill:#AFBFC9;}
</style>
<g id="Layer_1">
</g>
<g id="Layer_2">
	<g>
		<g>
			<path class="st0" d="M478.1,38.1L478.1,38.1C478.2,38.1,478.2,38.1,478.1,38.1C478.1,38.1,478.1,38.1,478.1,38.1z"/>
			<path class="st0" d="M436,93.4c12.3-7.5,26.2-11.9,40.2-14.3c9.6-1.6,19.3-2.2,28.9-2.1c-1.9-0.4-3.7-0.8-5.6-1.1
				c-8.6-1.4-17.5-1.1-26.2,0.9c8.3-3.1,17.4-4.5,26.5-4.3c3.7,0.1,7.5,0.5,11.2,1.2c0.2,0.4,0.3,0.9,0.6,1.3c1.2,2.6,2.6,5,4.2,7.4
				c1,1.3,2.1,2.6,3.2,3.8c-1.4,0.3-2.7,0.7-4,1.1c-2.6,0.8-5.1,1.5-7.6,2.4l0,0.2l0,0.2l15.7-2.4l0.4,0l-0.3-0.4
				c-7.1-8.1-11.3-18.4-13.5-28.8c0,0,0-0.1,0-0.1l0-0.2l-0.2-0.1c-5.7-2.4-11-5.7-16.2-9.2c-5.2-3.5-10.1-7.2-15-11.1l-0.1,0.1
				l0.1-0.2c7.9,2.8,15.5,6.6,23.3,8.9c7.8,2.3,15.8,2.8,24,2.2c4.1-0.2,8.2-0.7,12.2-1.2c4.1-0.6,8.5-1.1,12.7-1.3
				c8.5-0.5,17-0.6,25.4-0.5c16.9,0.2,33.7,1.9,50.5,4.9c8.4,1.6,16.7,3.3,24.8,6.2c4.1,1.5,8.1,3.2,12,5.4c3.5,2.1,7.2,4.6,9.7,8.5
				c6.2,1.9,12.1,4.1,17.9,6.9c5.6,2.7,11.3,5.6,15.9,9.9c-6.1-1.3-13,1.3-18.1,4.8c-5.5,3.8-10.3,8.5-14.3,13.8
				c-4.1,5.2-7.3,11.3-9.8,17.6c-1.2,3.1-2,6.3-2.7,9.5c-0.7,3.5-1.2,7.1-1.3,10.7c-0.1,6.9,1,14,3.3,20.5c0.2,0.5,0.5,1,0.7,1.5
				c0.6,0.3,1.2,0.6,1.8,0.9c3.2,2.2,6.3,4.5,8.8,7.4l-0.2,0.2c0,0,0.1,0,0.1,0c1.3,2.2,2.7,4.4,4.3,6.7c2,2.7,4.3,5.5,7,8.2
				c2.7,2.9,5.9,5.8,9.3,8.7l0,0l0.1,0.1c0,0,0,0,0.1,0c0,0,0,0,0,0l0,0.1c-6.7,5.1-13.4,10.5-20.1,15.7c-3.4,2.6-6.8,5.2-10.2,7.6
				c-1.7,1.2-3.5,2.4-5.4,3.5c-0.6,0.3-1.1,0.6-1.7,0.9c-0.7,5.4-2.3,10.6-4.2,15.6c9.1-0.6,18.4,0,27.2,3
				c5.3,1.8,10.3,4.4,14.4,8.2c4.2,3.7,7.4,8.6,8.4,14c0.8,3.8,0.5,7.7-0.7,11.3c-0.6,1.7-1.3,3.2-2.3,4.7
				c-2.7,4.1-6.7,7.2-11.1,9.1c4.4-2.1,8.3-5.2,10.9-9.2c3-4.6,4.1-10.5,2.9-15.8c-1.1-5.4-4.3-10.2-8.4-13.8
				c-4.1-3.6-9.1-6.2-14.3-7.9c-8.8-2.8-18.1-3.3-27.3-2.6c-1.3,3.3-2.8,6.6-4.3,9.9c-3,5.9-6.3,11.6-9.7,17.2
				c-1.2,2.1-2.3,3.7-3.1,4.9c-0.5,0.7-0.9,1.5-1.4,2.2c0,0,0,0,0,0l0,0c0,0,0,0,0,0l-0.1-0.1l-0.2-0.1l0,0
				c3.7-11.1,7.7-22.2,11.5-33.2c-10.3,1.5-20.3,4.3-29.9,7.9c-20.6,8.1-42.4,13.7-64.5,15.5c-22.2,1.7-44.9,0.1-66.1-7.3
				c-10.5-3.7-20.7-8.9-29.6-15.9c-8.9-6.9-16.4-15.7-21.6-25.9c-5.2-10.1-7.9-21.5-8.5-32.7c-0.7-11.2-0.4-22.5,1.8-33.7
				c2.2-11.1,6.4-22.1,13.1-31.4c6.6-9.5,15.7-17.1,25.7-22.5c10-5.5,21-9,32.1-11.3c4.2-0.9,8.5-1.5,12.8-2.1
				c-11.6-0.6-23.2-0.3-34.6,1.5c-13.4,2.1-26.5,6.2-38.1,13.1c-11.6,6.8-21.4,16.5-28.3,28.1c-7,11.5-11.3,24.7-13.5,38.1
				c-1.2,6.7-1.9,13.6-2.3,20.3c-0.2,6.7,0.4,13.6,1.7,20.1c2.7,13.3,8.6,25.9,16.5,37c16,22.3,39.2,38.8,64.3,50.1
				c25.2,11.2,52.7,17.6,80.3,17.9c13.9,0.3,27.5-1.4,41.2-4.2c13.8-2.3,27.8-2.9,41.7-1.7c13.9,1.2,27.7,4.2,40.8,9.1
				c2.5,1,5,2,7.5,3.1c1.5,0,2.8,0.2,4.3,0.3c-0.1,0.6-0.2,1.1-0.3,1.7c1.8,0.9,3.6,1.6,5.3,2.6c0.6,0.3,1.1,0.7,1.7,1.1
				c-0.4-0.2-0.8-0.5-1.2-0.8c0.7-4.1,1.8-8.2,4.9-10.9c3.8-3.4,8.7-5.1,13.8-6.2c10-2.3,20.6-2.4,30.9-1.7
				c6.2,0.4,12.3,1.2,18.4,2.4c4.1,0.8,8.2,1.8,12.1,3.2l0.3-0.7c-2.9-1.8-6-3.3-9.1-4.7c-6.8-2.9-14-4.8-21.3-6
				c-10.7-1.7-21.6-2-32.9,0.3c-1.7,0.4-3.4,1-5.1,1.6c0.4-2.9,1.2-5.7,1.9-8.5c1.6-5.1,3.5-10.1,5.9-15c2.5-4.7,4.8-9.7,9.5-12.3
				c4.5-2.9,9.3-5.2,14.2-7.5c9.7-4.6,19.6-8.8,29.6-12.7c3.3-1.3,6.6-2.5,9.9-3.7c1.7-0.6,3.5-1.3,5.2-1.9l7.7-2.6
				c2.5-0.8,5.2-1.3,7.6-0.3l0.1-0.3l0-0.1l0.1-0.4c-2.4-1.8-5.8-1.8-8.6-1.3l-4.1,0.7l-4.1,0.6c-5.4,1.1-10.7,2.4-16,3.9
				c-10.5,3-20.7,6.9-30.7,11.5c-4.6,2.3-9.1,4.6-13.7,7.7c1-7.5,1.8-15.1,2.6-22.7c0.6-5.3,1.5-10.5,3.9-15.2c2.3-4.7,6-8.6,10-12
				c8-7,16.8-13.1,25.9-18.5c2.7-1.6,5.5-3.1,8.3-4.5c6.6-3.5,13.5-6.5,20.8-8l-0.1-0.7c-4.9-0.1-9.7,0.7-14.3,1.8
				c-6.1,1.5-12,3.8-17.6,6.4c-10,4.7-19.2,10.7-27.8,17.9c-4.2,3.8-8.8,8.5-11.4,14.5c-0.9,2.1-1.5,4.2-2,6.3
				c-3.6-1.5-7.1-3.2-10.2-5.5c-4.6-3.5-7.8-8.8-8.9-14.5c-2.3-11.5,0.3-23.4,3-34.7c2.9-11.3,8.2-22.2,16.6-30.4
				c1.9-1.9,4-3.6,6.2-5.2c7.3-5.3,15.8-8.9,24.7-10.5l-0.1-0.7c-5.7-0.3-11.4,0.8-17,2.4c-0.4,0.1-0.8,0.1-1.2,0.3
				c-5.9,2.1-11.7,5.3-16.6,9.5c-5.1,4.1-9.1,9.4-12.4,14.9c-3.2,5.6-5.6,11.7-7.2,17.8c-2.5,10.9-4.7,22.2-2.4,34.3
				c-7.5-5.9-14.4-12.7-19.7-20.6c-7-10.2-11.1-22.4-10.6-34.7c0.2-12.3,4.6-24.4,11.4-34.7c0.6-0.9,1.4-1.8,2.1-2.7
				c2.9-4.1,6.2-8,10-11.4c2.3-2,4.8-3.9,7.6-5.1c2.8-1.2,5.8-1.7,9-1.7l0-0.6l0,0c5.1-1.6,10.7-0.9,15.7,0.8
				c5.1,1.7,9.6,4.4,13.7,7.5c4.1,3.2,7.8,6.8,10.8,10.9c3,4,5.7,8.4,7.2,13.4c3-1.4,6.6-0.9,9.7,0.1c3.2,1.1,6.1,2.7,8.7,4.7
				c5.3,3.9,9.6,8.7,13.2,14c3.6,5.3,6.5,10.9,8.5,17c1.9,5.9,3.1,12.4,1.9,18.7c1.3-0.6,3-0.5,4.4,0.2c1.5,0.8,2.6,1.9,3.6,3.1
				c1.9,2.5,3.2,5.2,4.1,7.9c2,5.4,2.7,11,3.1,16.6c0.2,5.6-0.2,11.2-1.4,16.7c-0.6,2.8-1.5,5.5-2.7,8.1c-0.6,1.3-1.3,2.6-2.3,3.8
				c-0.8,1-1.9,2-3.2,2.5c1.8,0.4,3.4,1.7,4.4,3.3c1,1.7,1.7,3.5,2.2,5.4c0.7,3.8,0.6,7.5,0.4,11.1c-0.6,7.3-2.7,14.2-5.3,20.8
				c-2.7,6.6-6,12.9-10.2,18.7c-4,5.7-8.9,10.8-14.6,14.8c2.5,0.6,5.1,1.1,7.3,3.6c2,3.1,1,6.7,0,9.4c-2.5,5.5-6.3,9.7-10.2,13.7
				c-8,7.8-17.5,13.7-27.2,18.9c-5,2.3-10.1,4.6-15.3,6.5c1.2,3.5,2.1,7,2.4,10.8c0.5,7-0.7,14-3.2,20.5c-2.3,5.7-5.5,10.9-9.3,15.7
				c3.7-4.8,6.9-10.1,9.1-15.7c2.5-6.4,3.6-13.4,3-20.4c-0.3-3.7-1.2-7.2-2.4-10.6c-5,1.8-10.1,3.2-15.5,4.2
				c-5.5,0.8-11.1,1.5-16.8,0.8c-2.8-0.5-5.8-1.2-8.3-3c-1.2-0.9-2.4-2-3-3.4c-0.5-1.3-0.7-2.7-0.6-3.9c-5,3-11.1,3.3-16.6,3.3
				c-5.7-0.1-11.3-1.1-16.8-2.6c-5.5-1.5-10.8-3.4-15.8-6.1c-2.3-1.1-4.4-2.5-6.5-4c-2.7,2.3-5.7,4.2-8.8,6
				c-3.9,1.9-8.1,3.4-12.4,4.6c-8.5,2.4-17.5,3-26.2,2.7c-9.4-0.3-18.4-3.6-25.8-8.6c-7.5-5-13.6-11.5-18.1-18.9l0.4-0.3
				c0.1,0.1,0.3,0.2,0.4,0.3c1.1,0.4,4.4,1.2,12.7,1.7c3.4,0.2,7.6,0.4,12.9,0.4c10.8,0.1,20.3-1.6,29.8-2.6
				c-1.1,0.4-2.4,0.9-3.6,1.6c-1.2,0.8-3,2.6-2.8,5.3c0.2,2.6,1.6,4,2.7,5c2.4,2.1,4.9,3,7.3,3.9c0.2,0.1,0.4,0.1,0.6,0.1
				c4.8,1.3,9.8,1.6,14.6,0.8c4.9-0.7,9.8-2.9,13.3-6.4l-0.1-0.1l0-0.1l-0.1-0.1c0,0,0,0,0,0c-0.1,0.1-0.3,0.1-0.4,0.2
				c-0.3,0.1-0.7,0.2-1,0.4c-3.7,1.8-7.8,2.9-12,3.3c-4.6,0.3-9.3-0.2-13.8-1.6c-2.2-0.7-4.4-1.6-6.1-3c-0.9-0.7-1.7-1.6-1.8-2.7
				c-0.1-1.1,0.6-2.1,1.5-2.8c3.8-2.7,8.6-3.4,13.2-4.2l0-0.2c0,0,0.1,0,0.1,0c6.2,0.1,12.6,1,19.6,3.4c0.9-0.8,2-1.6,3.5-2.5
				c10.3-6.4,32.6-14.1,53.4-14.7c-1.8-0.8-3.6-1.4-5.4-2.1c-13-4.7-26.7-7.6-40.5-8.6c-13.8-1.1-27.7-0.4-41.3,2
				c-6.7,1.3-13.7,2.8-20.6,3.6c-7,0.8-13.9,1.2-20.9,1.2c-28,0-55.9-6.2-81.6-17.2c-25.6-11.2-49.5-27.7-66.4-50.6
				c-8.3-11.4-14.6-24.4-17.7-38.4c-1.5-7-2.2-14.1-2-21.3c0.2-7.1,0.9-14.1,2-21.1c2.2-13.9,6.6-27.8,13.9-40.1
				C413.3,111.4,423.7,100.8,436,93.4z M531,62.8c-10.2-4.1-14.4,10.2-4.7,13.5C536.1,79.7,543.8,68,531,62.8z M671.2,72.7
				c-5.2,1.5-9.8,4.5-14.1,7.8c-4.3,3.3-8.2,7-12.1,10.6c-7.8,7.4-15.4,15-23.6,21.9c-8.1,7-16.9,13.3-26.7,17.4
				c-7.6,3.4-15.9,5-24.2,5c-2.3-0.1-4.7-0.2-7.1-0.5l0,0.3c0,0,0,0,0,0c0,0,0.1,0.2,0.3,0.5c5.1,2,10.6,2.7,16.2,3
				c5.8-0.1,11.5-1.1,17-2.9c11.1-3.6,20.7-10.1,29.2-17.2c4.2-3.6,8.2-7.4,12-11.3c3.7-4,7.4-7.9,10.9-12c3.5-3.9,6.9-8,10.6-11.8
				c1.7-1.9,3.5-3.7,5.4-5.4c2-1.7,4.2-3.3,6.5-4.8L671.2,72.7z M647.6,163.6c-0.6,0.7-1.1,1.4-1.7,2.1c0,0-0.1,0-0.1,0.1
				c-6.9,8.8-14.9,16.9-24.2,23.1c1.8-0.9,3.6-1.7,5.4-2.3c4.7-1.6,9.4-2.9,14.1-4.4c9.2-2.9,18.4-6.3,26.3-12
				C661.2,167.1,654.5,165,647.6,163.6z M469.8,102.6c-9.4,5-17.9,11.8-24,20.5c-6.3,8.6-10.4,18.7-12.7,29.2
				c-2.2,10.6-2.7,21.5-2.1,32.4c0.4,10.9,2.8,21.4,7.6,31.1c4.7,9.7,11.7,18.1,20.2,24.9c8.4,6.9,18.1,12,28.4,15.8
				c20.6,7.4,42.9,9.4,64.8,7.9c22-1.5,43.6-6.6,64.2-14.4c10-3.6,20.3-6.3,30.9-7.7c2.1-6.1,4.1-12.2,6.3-18.2l0.1,0
				c0.1-0.2,0.1-0.5,0.2-0.7c0.6-1.2,1.4-2.4,2.2-3.5c1.6-2.2,3.3-4.4,5-6.5c3.2-4,6.4-8,9.4-12.1c-2.4,1.4-5,2.7-7.6,4
				c-4.3,2-8.8,3.7-13.4,4.9c-1.7,0.5-3.4,0.8-5.1,1.1c-1,1-2.1,2-3.1,3c-1.9,1.9-3.8,3.7-5.6,5.4c-2.1,1.9-4.3,3.8-6.5,5.6
				c-2.4,1.9-4.7,3.7-7,5.3c-1.2,0.9-2.4,2-3.6,2.8c-4.8,3.2-9.8,5.9-15,8.2c-3.1,1.3-6.2,2.4-9.5,3.2c-2.9,0.8-4.9,1.1-6,1.2
				c-0.3,0-0.6,0.1-0.9,0.1c0,0,0,0-0.1,0c0,0,0,0,0,0l0-0.1l0-0.1c10.2-4.1,19.3-10.5,27.7-17.5c7.2-6.1,13.9-12.8,20.2-20
				c0.1-0.4,0.2-0.7,0.4-1c0.6-0.9,1.5-1.5,2.3-2.2c1.7-1.3,3.6-2.3,5.4-3.3l11.1-6c7-3.7,13.9-7.7,20.3-12.5
				c-8.7,3.7-17.4,7.4-26.4,10.4c-5.4,1.8-10.8,3.5-16.3,4.6c-2.7,0.5-5.6,1-8.4,1c-0.4,0-0.8-0.1-1.2-0.1c-3.2,3-6.6,5.9-10,8.7
				c-0.2,0.2-0.5,0.4-0.7,0.6c-2.7,2.3-5.5,4.4-8.3,6.5c-0.5,0.4-1,0.9-1.5,1.2l0,0l0.1,0c-2.3,5.8-5.2,11.4-8.4,16.8
				c-0.1,0.2-0.2,0.5-0.4,0.7c-0.7,1.2-1.3,2.4-2.1,3.5c-2.2,3.3-4.7,6.4-7.5,9.2c-1.7,1.7-3.6,3.3-5.6,4.7c-1.7,1.2-2.7,1.8-3.3,2
				c-0.2,0.1-0.4,0.3-0.6,0.4l0-0.1l-0.1-0.1c2.3-2,4.1-4.5,5.8-7c1.7-2.5,3.3-5.1,4.7-7.8c2.9-5.2,5.5-10.5,7.9-15.9
				c-0.9,0.5-1.9,1-2.8,1.6c-2.8,1.7-5.4,3.2-7.9,4.5c-1.1,0.6-2.1,1.3-3.2,1.8c-3.6,1.7-7.3,3.2-11.1,4.4c-1.7,0.6-3,1-3.9,1.2
				c-0.7,0.2-1.3,0.5-2,0.6l0-0.1l0-0.1c9.5-6.5,18.9-13.3,28.1-20.2c2.3-1.8,4.6-3.7,7-5.5c0.3-1.8,1.3-7.3,4.1-11.7
				c0.9-2,2.2-3.8,3.5-5.5c3.3-3.9,7.2-7.1,11.2-10.2c7.7-6.1,14.3-13.6,19.6-21.9c-0.5-0.1-1-0.1-1.5-0.2c-3.7-0.2-7.4-0.2-11.1,0
				c-8.4,4.3-16,10.1-22.6,16.8c-3.4,3.4-6.5,7.1-9.7,10.8c-1.6,1.8-3.1,3.7-4.8,5.4c-0.7,0.6-1.4,1.3-2.2,1.9
				c-0.7,1.4-1.5,2.7-2.2,4.1c-0.6,1.2-1.2,2.3-1.9,3.4c-1.6,2.8-3.3,5.5-5,8.3c-0.7,0.9-1.2,1.8-1.8,2.7c-1.1,1.5-2.1,3.1-3.2,4.6
				c-2.7,3.6-5.8,7-9.2,10c-0.7,0.7-1.5,1.2-2.3,1.8c-0.3,0.2-0.6,0.5-0.9,0.7c-1,0.7-1.9,1.4-3,2.1c-2.3,1.5-4,2.1-4.7,2.4
				c-0.1,0.1-0.3,0.1-0.4,0.2c0,0,0,0,0,0l0,0c0,0-0.1,0-0.1,0.1l0-0.1l-0.1-0.1c6.6-5.9,11.5-13.4,16.1-20.9
				c4.6-7.6,8.7-15.4,12.5-23.4h0c0.3-1.5,0.8-2.9,1.5-4.2c1.6-3.3,3.8-6.2,6-9.1c4.4-5.2,9.3-9.8,14.7-14c-1.1,0.2-2.3,0.4-3.4,0.7
				c-9.4,5-18.8,10.1-28.6,14.4c-5.2,2.1-10.4,3.9-15.6,5.9c-3.3,1.1-6.7,2.1-10.2,2.9c-0.3,0.1-0.7,0.2-1,0.3c0,0,0,0,0,0l0,0
				c-0.2,0.6-0.4,1.2-0.6,1.7c-0.3,0.9-0.7,1.8-1.1,2.7c-2.8,6.8-6.7,13.1-11,19.1c-3.6,5-7.5,9.8-11.6,14.4
				c-1.6,1.8-2.9,3.3-3.8,4.3c-0.6,0.6-1.1,1.2-1.6,1.8c0,0,0,0,0,0l0,0l-0.1-0.1l-0.1-0.1c4.4-7.3,8.2-14.8,11.8-22.5
				c3.5-7.2,6.9-14.6,10.1-22c0-0.3,0.1-0.5,0.2-0.7c0.1-0.1,0.1-0.1,0.2-0.2c0-0.1,0.1-0.1,0.1-0.1l0,0c0.8-0.9,1.8-1.6,2.8-2.2
				c2.4-1.3,4.7-2.5,6.9-3.8l13.7-8.2c4.7-2.6,9.3-5.1,14.2-7.2c4.8-1.9,9.9-3.9,15.1-3c-3-3.2-6.1-6.3-8.9-9.8
				c-7.2-1.1-14.3-2-21.5-2.7c-3.6-0.4-7.3-0.7-11-1l-4-0.2c-5.3,4.8-11.2,9-17.7,12.3c-1.1,0.5-2.2,0.7-3.3,1.2
				c-1.3,0.5-2.4,0.9-3.5,1.3c-1.2,0.4-2.2,1-3.4,1.3c-2.4,0.6-4.8,0.9-7.3,1c-1.1,0.1-2,0.1-2.7,0c-0.2,0-0.4,0-0.7,0
				c-0.1,0-0.1,0-0.1,0c0,0,0,0-0.1,0l0-0.1l0-0.1c6.1-1.4,11.9-3.9,17.2-7.2c5.4-3.1,10.3-7,14.6-11.4c-0.4-0.3-0.5-1.1-0.1-1.4
				c0.4-0.4,0.8-0.6,1.2-0.8c0.8-0.4,1.6-0.7,2.4-1c1.7-0.4,3.3-0.7,5-1c3.3-0.5,6.7-0.5,9.9-0.6c3.3,0.3,6.7,0.4,10,0.9
				c3.1,0.5,6.3,1.2,9.4,2.2c-1.6-2.1-3.2-4.1-4.7-6.3c-7.6-2.4-15.3-4.6-23.1-6.2c-4-0.8-8-1.5-12-1.6c-2-0.1-4.1,0-6,0.5
				c-1,0-2,0.9-2.9,1.2c-0.1,0.1-0.1,0.1-0.2,0.2l0.1,0.1c0,0,0,0,0,0c0,0,0.1,0,0-0.1l0,0c-0.4,0.4-0.3,0.5-0.4-0.1c0,0,0,0-0.1,0
				c0,0-0.1,0-0.1,0c-0.2,0.1-0.1,0-0.1,0c-8.6,2.5-17.7,2.5-26.4,0.4c-0.1,0-0.2-0.1-0.2-0.1c-0.7-0.1-1.4-0.2-2-0.4
				c-0.1,0-0.2,0-0.4-0.1c0,0,0,0,0,0l0-0.1l0-0.2c5.4-0.1,10.9-0.6,16.3-1.5c4.3-0.7,8.6-1.7,12.8-3c0.5-0.7,1.2-1.2,1.8-1.6
				c1.8-0.9,3.7-1.2,5.4-1.4c3.6-0.4,7.2,0,10.6,0.4c3.5,0.7,6.9,1.4,10.2,2.5c2.3,0.7,4.5,1.6,6.7,2.6c-3.3-2.8-5.9-6.4-6.7-10.8
				c-8.2-3.3-15.8-7.5-22.9-12.7c-6.7-4.9-13-10.6-18.4-17c-2.6,0.3-5.2,0.8-7.8,1.3C489.7,94.4,479.3,97.6,469.8,102.6z
				 M692.5,323.4c-0.4,5.2-0.6,10-1.4,15.1c-0.2,1.6-0.5,3.2-0.8,4.7c-0.2,0.9-0.2,1.9-0.5,2.9c-0.7,2.6-1,5.6-0.2,8.3l0.7,0
				c0-1.4,0.2-2.8,0.6-4.1c0.3-1.1,0.7-2.2,1.2-3.3c1-2.4,1.9-4.8,2.8-7.3c1.6-5,2.6-10.2,3.4-15.3c0.1-0.6,0.2-1.3,0.4-1.9
				c-0.1-0.1-0.3-0.2-0.4-0.3c-1.7-1-3.5-1.7-5.3-2.6C692.7,320.8,692.6,322.2,692.5,323.4z"/>
			<path class="st0" d="M467.9,65.7c3.8-1,7.5-2.2,11.5-3.3c3.9-1.1,8.1-1.8,12.4-1.9c2.7-0.1,5.5,0.1,8.3,0.5l0-0.1
				c-3-1.2-6.3-2.2-9.7-3.1c-6.8-1.7-13.8-2.9-20.8-4.3c-7.1-1.3-14.1-2.8-21-4.9c-6.8-2.1-13.6-4.8-19.6-8.6
				c12.8,6.7,27.1,8.6,41.1,10.1c7.1,0.8,14.2,1.5,21.4,2.7c1.2,0.2,2.5,0.5,3.7,0.8c0,0,0,0,0.1,0c1.7,1.2,3.4,2.5,5.2,3.5
				c1.9,1.2,4,2.3,6.1,3.4c0.4,2.3,0.9,4.5,1.8,6.7c0.4,1.2,1,2.3,1.4,3.5c-2.4-1.3-5-2.5-6.9-3.1c-3.6-1.1-7.3-1.8-11.1-2
				c-3.7-0.2-7.5,0.2-11.3,0.9c-3.8,0.8-7.8,1.8-11.7,2.5c-4,0.7-8.2,1.2-12.3,1.1c-4.1-0.2-8.2-1-12.1-2.4
				c-7.6-2.8-14.3-7.4-20.8-12c6.8,4.1,13.8,8.1,21.4,10.3C452.4,68.4,460.4,67.7,467.9,65.7z"/>
		</g>
		<g>
			<path class="st0" d="M365.6,299.6c-0.5,2.3-0.7,4.6-0.5,6.9c0.2,2.3,0.9,4.6,2,6.7c1.2,2.1,2.8,3.8,4.8,5.1c4,2.6,9.1,3,13.6,1.5
				c2.2-0.7,4.3-1.9,6-3.6c1.7-1.7,2.8-3.8,3.2-6.2c0.2-1.2,0.1-2.4-0.3-3.5c-0.4-1.1-1.2-2.1-2.1-2.8c-1.9-1.5-4.4-1.9-6.7-1.6
				c-2.3,0.3-4.6,1.5-6,3.4c-1.3,1.7-2,3.9-2.1,6c-0.5-0.9-0.7-2-0.7-3c0-1.2,0.4-2.4,0.9-3.4c0.6-1.1,1.3-2,2.1-2.9
				c0.4-0.4,0.9-0.9,1.3-1.3c0.4-0.4,0.9-0.7,1.4-1c1.9-1.2,4.2-1.6,6.4-1.3c2.2,0.3,4.3,1.4,5.9,2.9c1.6,1.5,2.8,3.5,3.5,5.6
				c0.7,2.1,0.9,4.5,0.8,6.7c-0.2,2.3-0.7,4.4-1.8,6.3c-1.1,1.9-2.7,3.5-4.5,4.7c-3.7,2.5-8.5,3.6-13.1,3c-4.6-0.5-9.1-2.6-12.3-5.9
				c-1.6-1.6-2.8-3.7-3.6-5.9c-0.7-2.2-0.9-4.6-0.8-7c0.2-3.4,1.2-6.8,2.6-10.1C365.7,299.1,365.6,299.3,365.6,299.6z"/>
			<path class="st0" d="M417.5,312.4c-0.2-0.6-0.4-1.1-0.6-1.7c0.6-0.9,1.3-1.8,2.1-2.4c0.9-0.7,1.9-0.9,2.9-0.5
				c1,0.3,1.8,1.1,2.7,1.8c0.8,0.8,1.6,1.6,2.4,2.5c1.5,1.8,3.1,3.5,4.8,5.3c1.7,1.7,3.6,3.3,5.9,4.5c4.5,2.2,10.2,2.3,14.6-0.3
				c0.4-0.3,0.8-0.5,1.2-0.8c-4.1,4.4-9.4,5.5-14.8,3.4c-0.8-0.3-1.5-0.6-2.3-1C428,318.7,422.4,304.3,417.5,312.4z"/>
			<path class="st0" d="M382.9,256.9C382.8,256.9,382.8,256.9,382.9,256.9L382.9,256.9c-1,1.3-2.2,2-3.5,2.3c-1.3,0.4-2.7,0.4-4,0.2
				c-1.3-0.2-2.6-0.7-3.7-1.5c-1.1-0.8-2.1-1.8-2.6-3.3l0.2-0.2c0.1,0.1,0.2,0.1,0.3,0.2c1.9,0.3,11.6,1.4,11.8-1.4
				c0.2-3.1-10-4.8-17.5-2.9c-7.5,1.9-8.4,6.2-2.2,8.7c0.6,0.5,1.4,1.2,2.3,2.1c-2.9-0.9-5.8-1.8-8.5-3.2c-0.7-0.4-1.3-0.8-1.8-1.3
				c-0.5-0.5-0.7-1.3-0.4-1.9c0.6-1.3,2.1-2,3.3-3.1c1.1-1.1,2.1-2.3,3.1-3.5c1-1.1,2.2-2.1,3.6-2.7c2.8-1.2,6-1.1,9.1-0.8l0-0.1
				c0,0,0,0,0,0l0,0c1.9,0.7,3.3,1.3,4.4,1.1c3.3-0.4,13-0.4,11.4,5.4c-0.9,1.1-1.7,2.3-2.6,3.6
				C384.5,255.5,383.7,256.2,382.9,256.9z"/>
			<path class="st0" d="M364,261.3C364,261.3,364,261.3,364,261.3C364,261.3,364,261.3,364,261.3L364,261.3z"/>
			<path class="st0" d="M353.2,246.6c4.7-3,8.7-3.8,12.1-3.6c-1,0-2,0.2-3,0.5c-1.8,0.5-3.4,1.8-4.6,2.9c-1.2,1.2-2.1,2.4-3.1,3.3
				c-0.2,0.2-0.5,0.5-0.7,0.7l-0.9,0.7c-0.7,0.6-1.5,1.3-2.1,2.6c-0.3,0.7-0.4,1.6-0.2,2.5c0.2,0.9,0.7,1.5,1.1,1.9
				c0.9,0.9,1.7,1.3,2.5,1.6c3.2,1.3,6.3,1.6,9.6,1.7c0.5,0.5,0.9,1,1.3,1.6c1.4,1.9,2.4,4,2.7,6.3l0.1,0c0.3-1.2,0.2-2.5-0.2-3.7
				c-0.3-1.2-0.9-2.3-1.6-3.3c-0.4-0.5-0.7-0.9-1.2-1.4c0.5,0.2,0.9,0.4,1.4,0.5c2.3,0.7,4.7,1,7.2,0.7c2.4-0.3,4.8-1.2,6.7-2.5
				c2-1.3,3.6-2.9,4.9-4.8c-2.3,3.3-4.7,7.1-8.2,10.5c-3.3,3.2-6.5,4.2-9.1,4.1c-3.9-0.1-6.8-2.5-7.3-3.1c-0.9-1-2.8,0.4-2.8,3.4
				c0,0-0.7,0.1-1.7,0.4l0,0C342.5,268.9,340.8,254.5,353.2,246.6z"/>
			<path class="st0" d="M358.2,268.5C358.1,268.4,358.1,268.4,358.2,268.5L358.2,268.5z"/>
			<path class="st0" d="M377.7,311.9L377.7,311.9C377.7,311.9,377.7,311.9,377.7,311.9C377.7,312,377.7,311.9,377.7,311.9z"/>
			<path class="st0" d="M419.7,321.2c5.8,4.4,17.9,5.3,17.9,5.3s-6,3.8-18,0C420,324.8,420,323.1,419.7,321.2z"/>
			<path class="st0" d="M431.1,275.1L431.1,275.1C431,275.2,431.1,275.2,431.1,275.1L431.1,275.1L431.1,275.1l-0.3,0.3l-0.6,0.6
				c-0.3,0.3-0.8,0.7-1.2,1c-0.8,0.6-1.6,1.1-2.4,1.4c-1.7,0.7-3.5,0.9-5.7,0.5c-2.2-0.4-4.5-1.4-6.7-2.8c-2.3-1.4-4.3-3.3-6.2-5.3
				c-1.9-2-3.5-4.4-4.6-6.8c-0.3-0.5-0.6-1.4-0.9-2.1l-0.9-2.2c-0.6-1.5-1.2-3-1.8-4.5l-1.8-4.5c-0.6-1.5-1.2-3-1.8-4.5
				c0.8-3.1,2.4-5.7,4.7-7c2.2-1.4,4.8-1.8,7.5-1.5c2.6,0.2,5.4,0.9,8,2c2.6,1.1,5.4,2.4,7.4,3.9c4.4,3.1,8,7.3,10,11.8
				c1,2.3,1.7,4.6,1.8,6.9c0.2,2.3,0,4.5-0.7,6.6c-0.7,2.1-1.8,4.1-3.4,5.9L431.1,275.1z"/>
			<path class="st0" d="M391,259.3c0.3,0.2,0.6,0.6,0.9,1.1c1.1,2-0.1,4.2-1.7,1.5c-0.3-0.6-0.5-1.1-0.6-1.6c0,0.1,0.1,0.1,0.1,0.2
				C390.9,261.6,392,260.4,391,259.3z"/>
			<path class="st0" d="M353,275.6c0.9-0.6,1.8-1.1,2.7-1.6c0.5-0.2,0.9-0.4,1.4-0.6c0.2-0.1,0.5-0.2,0.7-0.2l0.5-0.1l3.2-0.8
				l-0.1-1.4c1.7,0.9,3.5,1.4,5.4,1.6c2.8,0.3,5.6-0.5,7.9-1.8c2.3-1.3,4-3.2,5.5-4.9c1.5-1.7,2.7-3.6,3.9-5.5
				c1.1-1.9,2.2-3.7,3.2-5.6c1-1.8,2.1-3.6,3.4-5.1c1.2-1.4,2.7-2.6,4.7-3c0.9,6.3,2.4,12.5,3.9,18.7c0.9,3.2,2.5,6.1,4.4,8.7
				c1.9,2.7,4.2,5.1,6.7,7.1c2.6,2,5.5,3.7,8.7,4.5c3.2,0.9,6.7,0.9,9.9-0.2c3.2-1.1,5.9-3.2,8.1-5.6c0.3-0.4,0.6-0.7,0.9-1.1
				c4.9,6.4,12.1,10.8,16.5,17.5c15.5-2.1-5.1-15.9-15.5-19.9l0,0c2.4-3.7,3.5-7.7,3.6-11.7c0.1-2.3-0.3-4.7-0.9-6.9
				c6.9,1.7,11.4,8.6,15.8,3.9c4.4-4.8-8.3-7.9-14.3-8.1c0.6-0.1,15.3-2.2,19.5,6.3c4,8.2-5.1,14.1-9.6,11.2
				c8.3,5.8,14.6,12.2,15.2,17.7l0.1,0c0.4,2,0.1,4-0.5,5.9c-0.3,1-0.6,1.9-1,2.8c-0.3,0.9-0.6,1.9-0.6,2.8c0,0.2,0,0.4,0.1,0.7
				c0.1,0.2,0.2,0.4,0.3,0.7c0.1,0.6,0,1.1-0.3,1.6c-0.6,0.9-1.5,1.4-2.5,1.8c-1.9,0.6-4,0.6-5.8,0c0.2,1.3,0.3,2.6,0.3,4h-0.1
				c0,2.4-0.5,4.7-1.7,6.8c-1.1,2.1-2.9,3.8-4.9,4.9c-4.1,2.3-9.3,2.1-13.5,0c-4.2-2.1-7.3-5.9-10.5-9.2c-0.8-0.9-1.6-1.7-2.5-2.5
				c-0.9-0.8-1.9-1.5-3-1.8c-1.2-0.4-2.5,0-3.3,0.8c-0.8,0.7-1.4,1.6-1.9,2.6c-0.2-0.5-0.3-1-0.5-1.4c0.1-1.5,0.6-6.5,4.9-7.8
				c5.8-1.8,13.2,9.4,19,13.7c5.9,4.3,10.8-4.5,6.3-10.1c-4.5-5.6-19.6-16.7-28.7-12.1c0,0,0,0,0,0l-0.1-0.2c-0.7,0.2-1.4,0.5-2,0.9
				c-0.6,0.4-1.2,1-1.7,1.6c-1,1.3-1.4,2.9-1.6,4.5c-0.1,3.2,0.6,6.1,1.4,8.8c0.8,2.8,1.8,5.4,2.5,8.1c0.7,2.6,1.3,5.2,1.2,7.6
				c0,0.3,0,0.6-0.1,0.9l0,0.4l-0.1,0.5c-0.1,0.5-0.3,1.2-0.4,1.7c-0.4,1.2-0.9,2.2-1.6,3.3c-1.3,2.1-3.2,3.9-5.3,5.4
				c-2.2,1.5-4.6,2.7-7.2,3.7c-0.8,0.3-1.7,0.6-2.6,0.9c2-0.9,4.3-2.4,5.9-4.8l0,0c0,0,0,0,0,0l0,0.1c-2.3-0.9-4.6-1.8-7-2.4
				c-2.4-0.6-4.8-1.2-7.2-0.7c-1.2,0.2-2.3,0.9-2.8,2.1c-0.5,1.1-0.5,2.4-0.3,3.5c0.3,1.2,1.2,2.1,2.3,2.7c1.1,0.6,2.3,0.8,3.5,0.9
				v-0.1c2.8,0.1,5.6-0.3,8.4-1c2.7-0.7,5.4-1.8,7.8-3.2c2.4-1.5,4.5-3.4,6.1-5.7c0.8-1.3,1.5-2.6,1.9-4.1c0,0-0.5,1.4-0.9,2.7
				c0.3-0.9,0.6-1.7,1-2.5l0.2,0.1c-1.1,3.5-1.5,7.4-0.1,10.9c0.1,0.2,0.2,0.5,0.2,0.7c0,0.2,0,0.5-0.1,0.7
				c-0.1,0.5-0.3,0.9-0.5,1.3c-0.5,0.8-1,1.6-1.7,2.3c-1.2,1.4-2.7,2.6-4.3,3.7c-3.1,2.1-6.8,3.4-10.5,3.8c-1.9,0.2-3.8,0.1-5.6-0.1
				c-1.9-0.2-3.7-0.5-5.6-0.9c-1.8-0.5-3.7-1.2-5.1-2.6c-1.4-1.4-1.9-3.4-1.9-5.3c0-1.9,0.3-3.8,0.6-5.6c0.3-1.8,0.8-3.7,1.8-5.4
				c0.5-0.8,1.2-1.5,2-2.1c0.8-0.5,1.8-0.8,2.7-0.8c1.9-0.1,3.8,0.3,5.6,0.9c3.6,1.3,6.8,3.1,10,5.1l-0.1,0.1c0,0,0,0,0.1,0
				c0.3-0.6,0.7-1.3,0.9-2c3.1-8.3-5.1-16-6.3-17.2c0.1-0.7,0.2-1.4,0.2-2.2c0.1-2.6-0.2-5.2-1.1-7.6c-0.9-2.4-2.3-4.7-4.3-6.4
				c-2-1.7-4.4-2.8-7-3.1c-2.6-0.3-5.3,0.4-7.4,1.9c-1.1,0.7-2,1.7-2.8,2.7c-0.8,1-1.5,2.1-2.1,3.3c-0.5,1.2-0.8,2.5-0.8,3.8
				c0.1,1.1,0.4,2.2,1,3.2c0.9,2.3,2.7,4.1,4.7,5.3c-2.8,0.3-5.7-0.3-8-1.8c-0.4-0.2-0.7-0.5-1-0.8c-0.2-0.1-0.4-0.3-0.5-0.4
				l-0.2-0.2l-0.3-0.3c-0.5-0.6-1.1-1.3-1.6-2.1c-0.9-1.5-1.4-3.3-1.7-5.2c-0.5-3.8,0.3-8.1,2-11.5c0.4-0.8,1-1.6,1.4-2
				c0-0.1,0.6-0.4,1-0.7l1.5-0.8c2-1.1,4.1-2.2,6.1-3.5c2-1.3,4-2.7,5.7-4.3c0.9-0.8,1.7-1.8,2.4-2.8c0.7-1,1.2-2.2,1.4-3.3
				l-0.4-0.1c-0.7,2.1-2.4,3.8-4.2,5.2c-1.8,1.4-3.8,2.5-5.8,3.6c-0.9,0.5-1.9,0.9-2.9,1.4c-10,0.6-20.8-5-24.8,5.3
				c-4.1,10.4,5.5,14,10.6,12.5c-0.4,1.3-0.6,2.5-0.8,3.8c0,0,0,0.1,0,0.1c-4.9,0.9-9.8-0.7-12.9-3.8c-1.6-1.6-2.8-3.5-3.5-5.6
				c-0.8-2.1-1-4.3-0.9-6.5c0.2-4.4,1.8-9.1,4.2-12.7C349.8,278.4,351.3,276.8,353,275.6z M465.3,286.7c0.5,1.3,0.7,2.7,0.5,4.1
				c-0.2,1.4-1,2.6-2,3.7c1.3-0.7,2.5-1.9,3-3.5c0.5-1.6,0.3-3.3-0.3-4.8c-0.6-1.5-1.4-2.8-2.4-4c-1-1.2-2.1-2.2-3.4-3
				c0.9,1.2,1.8,2.4,2.6,3.6C464.1,284.1,464.8,285.4,465.3,286.7z M458,304.7c0,0,0,0.1,0,0.1v0C458,304.8,458,304.7,458,304.7z
				 M451.3,298.6c1.1,2.4,2,4.9,2.4,7.4c0.4,2.5,0.3,5-0.6,7.4c-0.9,2.3-2.6,4.3-4.8,6.1c2.6-0.8,5.1-2.6,6.6-5.3
				c0.7-1.3,1.2-2.8,1.4-4.2c0.2-1.5,0.1-3-0.1-4.4c-0.5-2.9-1.6-5.6-3.2-7.9c-1.5-2.4-3.4-4.5-5.6-6.2
				C448.9,293.8,450.2,296.2,451.3,298.6z M417.9,331.2C417.9,331.2,417.9,331.2,417.9,331.2C417.9,331.2,417.9,331.2,417.9,331.2
				C417.9,331.2,417.9,331.2,417.9,331.2z M388.1,262.4c3.9,6.9,8.4,1.3,5.6-3.4C390.9,254.2,386.4,259.3,388.1,262.4z M346.3,295.8
				c0.3,1.6,0.8,3.1,1.4,4.5c0.7,1.4,1.5,2.8,2.4,4c-1.4-2.8-2.5-5.7-2.9-8.7c-0.4-3-0.2-6.1,0.8-8.9c0.9-2.9,2.5-5.5,4.5-7.7
				c2.1-2.2,4.7-3.9,7.6-4.9c-1.5,0.3-3,0.8-4.4,1.5c-1.4,0.7-2.7,1.7-3.9,2.7c-2.4,2.2-4.1,5-5.1,8
				C345.9,289.4,345.7,292.7,346.3,295.8z"/>
		</g>
		<g>
			<path class="st0" d="M257.1,101.6c-0.5,2.3-0.7,4.6-0.5,6.9c0.2,2.3,0.9,4.6,2,6.7c1.2,2.1,2.8,3.8,4.8,5.1c4,2.6,9.1,3,13.6,1.5
				c2.2-0.7,4.3-1.9,6-3.6c1.7-1.7,2.8-3.8,3.2-6.2c0.2-1.2,0.1-2.4-0.3-3.5c-0.4-1.1-1.2-2.1-2.1-2.8c-1.9-1.5-4.4-1.9-6.7-1.6
				c-2.3,0.3-4.6,1.5-6,3.4c-1.3,1.7-2,3.9-2.1,6c-0.5-0.9-0.7-2-0.7-3c0-1.2,0.4-2.4,0.9-3.4c0.6-1.1,1.3-2,2.1-2.9
				c0.4-0.4,0.9-0.9,1.3-1.3c0.4-0.4,0.9-0.7,1.4-1c1.9-1.2,4.2-1.6,6.4-1.3c2.2,0.3,4.3,1.4,5.9,2.9c1.6,1.5,2.8,3.5,3.5,5.6
				c0.7,2.1,0.9,4.5,0.8,6.7c-0.2,2.3-0.7,4.4-1.8,6.3c-1.1,1.9-2.7,3.5-4.5,4.7c-3.7,2.5-8.5,3.6-13.1,3c-4.6-0.5-9.1-2.6-12.3-5.9
				c-1.6-1.6-2.8-3.7-3.6-5.9c-0.7-2.2-0.9-4.6-0.8-7c0.2-3.4,1.2-6.8,2.6-10.1C257.2,101.2,257.1,101.4,257.1,101.6z"/>
			<path class="st0" d="M309,114.5c-0.2-0.6-0.4-1.1-0.6-1.7c0.6-0.9,1.3-1.8,2.1-2.4c0.9-0.7,1.9-0.9,2.9-0.5
				c1,0.3,1.8,1.1,2.7,1.8c0.8,0.8,1.6,1.6,2.4,2.5c1.5,1.8,3.1,3.5,4.8,5.3c1.7,1.7,3.6,3.3,5.9,4.5c4.5,2.2,10.2,2.3,14.6-0.3
				c0.4-0.3,0.8-0.5,1.2-0.8c-4.1,4.4-9.4,5.5-14.8,3.4c-0.8-0.3-1.5-0.6-2.3-1C319.5,120.8,313.9,106.4,309,114.5z"/>
			<path class="st0" d="M274.3,59C274.3,59,274.3,59,274.3,59L274.3,59c-1,1.3-2.2,2-3.5,2.3c-1.3,0.4-2.7,0.4-4,0.2
				c-1.3-0.2-2.6-0.7-3.7-1.5c-1.1-0.8-2.1-1.8-2.6-3.3l0.2-0.2c0.1,0.1,0.2,0.1,0.3,0.2c1.9,0.3,11.6,1.4,11.8-1.4
				c0.2-3.1-10-4.8-17.5-2.9c-7.5,1.9-8.4,6.2-2.2,8.7c0.6,0.5,1.4,1.2,2.3,2.1c-2.9-0.9-5.8-1.8-8.5-3.2c-0.7-0.4-1.3-0.8-1.8-1.3
				c-0.5-0.5-0.7-1.3-0.4-1.9c0.6-1.3,2.1-2,3.3-3.1c1.1-1.1,2.1-2.3,3.1-3.5c1-1.1,2.2-2.1,3.6-2.7c2.8-1.2,6-1.1,9.1-0.8l0-0.1
				c0,0,0,0,0,0l0,0c1.9,0.7,3.3,1.3,4.4,1.1c3.3-0.4,13-0.4,11.4,5.4c-0.9,1.1-1.7,2.3-2.6,3.6C276,57.6,275.2,58.3,274.3,59z"/>
			<path class="st0" d="M255.4,63.4C255.5,63.4,255.5,63.4,255.4,63.4C255.5,63.4,255.5,63.4,255.4,63.4L255.4,63.4z"/>
			<path class="st0" d="M244.6,48.7c4.7-3,8.7-3.8,12.1-3.6c-1,0-2,0.2-3,0.5c-1.8,0.5-3.4,1.8-4.6,2.9c-1.2,1.2-2.1,2.4-3.1,3.3
				c-0.2,0.2-0.5,0.5-0.7,0.7l-0.9,0.7c-0.7,0.6-1.5,1.3-2.1,2.6c-0.3,0.7-0.4,1.6-0.2,2.5c0.2,0.9,0.7,1.5,1.1,1.9
				c0.9,0.9,1.7,1.3,2.5,1.6c3.2,1.3,6.3,1.6,9.6,1.7c0.5,0.5,0.9,1,1.3,1.6c1.4,1.9,2.4,4,2.7,6.3l0.1,0c0.3-1.2,0.2-2.5-0.2-3.7
				c-0.3-1.2-0.9-2.3-1.6-3.3c-0.4-0.5-0.7-0.9-1.2-1.4c0.5,0.2,0.9,0.4,1.4,0.5c2.3,0.7,4.7,1,7.2,0.7c2.4-0.3,4.8-1.2,6.7-2.5
				c2-1.3,3.6-2.9,4.9-4.8c-2.3,3.3-4.7,7.1-8.2,10.5c-3.3,3.2-6.5,4.2-9.1,4.1c-3.9-0.1-6.8-2.5-7.3-3.1c-0.9-1-2.8,0.4-2.8,3.4
				c0,0-0.7,0.1-1.7,0.4l0,0C234,70.9,232.3,56.5,244.6,48.7z"/>
			<path class="st0" d="M249.6,70.5C249.6,70.5,249.6,70.5,249.6,70.5L249.6,70.5z"/>
			<path class="st0" d="M269.1,114L269.1,114C269.2,114,269.2,114,269.1,114C269.2,114,269.1,114,269.1,114z"/>
			<path class="st0" d="M311.2,123.3c5.8,4.4,17.9,5.3,17.9,5.3s-6,3.8-18,0C311.5,126.9,311.4,125.1,311.2,123.3z"/>
			<path class="st0" d="M322.6,77.2L322.6,77.2C322.5,77.3,322.5,77.3,322.6,77.2L322.6,77.2L322.6,77.2l-0.3,0.3l-0.6,0.6
				c-0.3,0.3-0.8,0.7-1.2,1c-0.8,0.6-1.6,1.1-2.4,1.4c-1.7,0.7-3.5,0.9-5.7,0.5c-2.2-0.4-4.5-1.4-6.7-2.8c-2.3-1.4-4.3-3.3-6.2-5.3
				c-1.9-2-3.5-4.4-4.6-6.8c-0.3-0.5-0.6-1.4-0.9-2.1l-0.9-2.2c-0.6-1.5-1.2-3-1.8-4.5l-1.8-4.5c-0.6-1.5-1.2-3-1.8-4.5
				c0.8-3.1,2.4-5.7,4.7-7c2.2-1.4,4.8-1.8,7.5-1.5c2.6,0.2,5.4,0.9,8,2c2.6,1.1,5.4,2.4,7.4,3.9c4.4,3.1,8,7.3,10,11.8
				c1,2.3,1.7,4.6,1.8,6.9c0.2,2.3,0,4.5-0.7,6.6c-0.7,2.1-1.8,4.1-3.4,5.9L322.6,77.2z"/>
			<path class="st0" d="M282.5,61.4c0.3,0.2,0.6,0.6,0.9,1.1c1.1,2-0.1,4.2-1.7,1.5c-0.3-0.6-0.5-1.1-0.6-1.6c0,0.1,0.1,0.1,0.1,0.2
				C282.4,63.7,283.4,62.4,282.5,61.4z"/>
			<path class="st0" d="M244.5,77.7c0.9-0.6,1.8-1.1,2.7-1.6c0.5-0.2,0.9-0.4,1.4-0.6c0.2-0.1,0.5-0.2,0.7-0.2l0.5-0.1l3.2-0.8
				l-0.1-1.4c1.7,0.9,3.5,1.4,5.4,1.6c2.8,0.3,5.6-0.5,7.9-1.8c2.3-1.3,4-3.2,5.5-4.9c1.5-1.7,2.7-3.6,3.9-5.5
				c1.1-1.9,2.2-3.7,3.2-5.6c1-1.8,2.1-3.6,3.4-5.1c1.2-1.4,2.7-2.6,4.7-3c0.9,6.3,2.4,12.5,3.9,18.7c0.9,3.2,2.5,6.1,4.4,8.7
				c1.9,2.7,4.2,5.1,6.7,7.1c2.6,2,5.5,3.7,8.7,4.5c3.2,0.9,6.7,0.9,9.9-0.2c3.2-1.1,5.9-3.2,8.1-5.6c0.3-0.4,0.6-0.7,0.9-1.1
				c4.9,6.4,12.1,10.8,16.5,17.5c15.5-2.1-5.1-15.9-15.5-19.9l0,0c2.4-3.7,3.5-7.7,3.6-11.7c0.1-2.3-0.3-4.7-0.9-6.9
				c6.9,1.7,11.4,8.6,15.8,3.9c4.4-4.8-8.3-7.9-14.3-8.1c0.6-0.1,15.3-2.2,19.5,6.3c4,8.2-5.1,14.1-9.6,11.2
				c8.3,5.8,14.6,12.2,15.2,17.7l0.1,0c0.4,2,0.1,4-0.5,5.9c-0.3,1-0.6,1.9-1,2.8c-0.3,0.9-0.6,1.9-0.6,2.8c0,0.2,0,0.4,0.1,0.7
				c0.1,0.2,0.2,0.4,0.3,0.7c0.1,0.6,0,1.1-0.3,1.6c-0.6,0.9-1.5,1.4-2.5,1.8c-1.9,0.6-4,0.6-5.8,0c0.2,1.3,0.3,2.6,0.3,4h-0.1
				c0,2.4-0.5,4.7-1.7,6.8c-1.1,2.1-2.9,3.8-4.9,4.9c-4.1,2.3-9.3,2.1-13.5,0c-4.2-2.1-7.3-5.9-10.5-9.2c-0.8-0.9-1.6-1.7-2.5-2.5
				c-0.9-0.8-1.9-1.5-3-1.8c-1.2-0.4-2.5,0-3.3,0.8c-0.8,0.7-1.4,1.6-1.9,2.6c-0.2-0.5-0.3-1-0.5-1.4c0.1-1.5,0.6-6.5,4.9-7.8
				c5.8-1.8,13.2,9.4,19,13.7c5.9,4.3,10.8-4.5,6.3-10.1c-4.5-5.6-19.6-16.7-28.7-12.1c0,0,0,0,0,0l-0.1-0.2c-0.7,0.2-1.4,0.5-2,0.9
				c-0.6,0.4-1.2,1-1.7,1.6c-1,1.3-1.4,2.9-1.6,4.5c-0.1,3.2,0.6,6.1,1.4,8.8c0.8,2.8,1.8,5.4,2.5,8.1c0.7,2.6,1.3,5.2,1.2,7.6
				c0,0.3,0,0.6-0.1,0.9l0,0.4l-0.1,0.5c-0.1,0.5-0.3,1.2-0.4,1.7c-0.4,1.2-0.9,2.2-1.6,3.3c-1.3,2.1-3.2,3.9-5.3,5.4
				c-2.2,1.5-4.6,2.7-7.2,3.7c-0.8,0.3-1.7,0.6-2.6,0.9c2-0.9,4.3-2.4,5.9-4.8l0,0c0,0,0,0,0,0l0,0.1c-2.3-0.9-4.6-1.8-7-2.4
				c-2.4-0.6-4.8-1.2-7.2-0.7c-1.2,0.2-2.3,0.9-2.8,2.1c-0.5,1.1-0.5,2.4-0.3,3.5c0.3,1.2,1.2,2.1,2.3,2.7c1.1,0.6,2.3,0.8,3.5,0.9
				v-0.1c2.8,0.1,5.6-0.3,8.4-1c2.7-0.7,5.4-1.8,7.8-3.2c2.4-1.5,4.5-3.4,6.1-5.7c0.8-1.3,1.5-2.6,1.9-4.1c0,0-0.5,1.4-0.9,2.7
				c0.3-0.9,0.6-1.7,1-2.5l0.2,0.1c-1.1,3.5-1.5,7.4-0.1,10.9c0.1,0.2,0.2,0.5,0.2,0.7c0,0.2,0,0.5-0.1,0.7
				c-0.1,0.5-0.3,0.9-0.5,1.3c-0.5,0.8-1,1.6-1.7,2.3c-1.2,1.4-2.7,2.6-4.3,3.7c-3.1,2.1-6.8,3.4-10.5,3.8c-1.9,0.2-3.8,0.1-5.6-0.1
				c-1.9-0.2-3.7-0.5-5.6-0.9c-1.8-0.5-3.7-1.2-5.1-2.6c-1.4-1.4-1.9-3.4-1.9-5.3c0-1.9,0.3-3.8,0.6-5.6c0.3-1.8,0.8-3.7,1.8-5.4
				c0.5-0.8,1.2-1.5,2-2.1c0.8-0.5,1.8-0.8,2.7-0.8c1.9-0.1,3.8,0.3,5.6,0.9c3.6,1.3,6.8,3.1,10,5.1l-0.1,0.1c0,0,0,0,0.1,0
				c0.3-0.6,0.7-1.3,0.9-2c3.1-8.3-5.1-16-6.3-17.2c0.1-0.7,0.2-1.4,0.2-2.2c0.1-2.6-0.2-5.2-1.1-7.6c-0.9-2.4-2.3-4.7-4.3-6.4
				c-2-1.7-4.4-2.8-7-3.1c-2.6-0.3-5.3,0.4-7.4,1.9c-1.1,0.7-2,1.7-2.8,2.7c-0.8,1-1.5,2.1-2.1,3.3c-0.5,1.2-0.8,2.5-0.8,3.8
				c0.1,1.1,0.4,2.2,1,3.2c0.9,2.3,2.7,4.1,4.7,5.3c-2.8,0.3-5.7-0.3-8-1.8c-0.4-0.2-0.7-0.5-1-0.8c-0.2-0.1-0.4-0.3-0.5-0.4
				l-0.2-0.2l-0.3-0.3c-0.5-0.6-1.1-1.3-1.6-2.1c-0.9-1.5-1.4-3.3-1.7-5.2c-0.5-3.8,0.3-8.1,2-11.5c0.4-0.8,1-1.6,1.4-2
				c0-0.1,0.6-0.4,1-0.7l1.5-0.8c2-1.1,4.1-2.2,6.1-3.5c2-1.3,4-2.7,5.7-4.3c0.9-0.8,1.7-1.8,2.4-2.8c0.7-1,1.2-2.2,1.4-3.3
				l-0.4-0.1c-0.7,2.1-2.4,3.8-4.2,5.2c-1.8,1.4-3.8,2.5-5.8,3.6c-0.9,0.5-1.9,0.9-2.9,1.4c-10,0.6-20.8-5-24.8,5.3
				c-4.1,10.4,5.5,14,10.6,12.5c-0.4,1.3-0.6,2.5-0.8,3.8c0,0,0,0.1,0,0.1c-4.9,0.9-9.8-0.7-12.9-3.8c-1.6-1.6-2.8-3.5-3.5-5.6
				c-0.8-2.1-1-4.3-0.9-6.5c0.2-4.4,1.8-9.1,4.2-12.7C241.3,80.5,242.8,78.9,244.5,77.7z M356.8,88.8c0.5,1.3,0.7,2.7,0.5,4.1
				c-0.2,1.4-1,2.6-2,3.7c1.3-0.7,2.5-1.9,3-3.5c0.5-1.6,0.3-3.3-0.3-4.8c-0.6-1.5-1.4-2.8-2.4-4c-1-1.2-2.1-2.2-3.4-3
				c0.9,1.2,1.8,2.4,2.6,3.6C355.6,86.2,356.3,87.5,356.8,88.8z M349.4,106.7c0,0,0,0.1,0,0.1v0
				C349.4,106.8,349.4,106.8,349.4,106.7z M342.8,100.7c1.1,2.4,2,4.9,2.4,7.4c0.4,2.5,0.3,5-0.6,7.4c-0.9,2.3-2.6,4.3-4.8,6.1
				c2.6-0.8,5.1-2.6,6.6-5.3c0.7-1.3,1.2-2.8,1.4-4.2c0.2-1.5,0.1-3-0.1-4.4c-0.5-2.9-1.6-5.6-3.2-7.9c-1.5-2.4-3.4-4.5-5.6-6.2
				C340.3,95.9,341.7,98.3,342.8,100.7z M309.4,133.3C309.4,133.3,309.4,133.3,309.4,133.3C309.4,133.3,309.4,133.3,309.4,133.3
				C309.4,133.3,309.4,133.3,309.4,133.3z M279.6,64.5c3.9,6.9,8.4,1.3,5.6-3.4C282.4,56.3,277.9,61.4,279.6,64.5z M237.8,97.9
				c0.3,1.6,0.8,3.1,1.4,4.5c0.7,1.4,1.5,2.8,2.4,4c-1.4-2.8-2.5-5.7-2.9-8.7c-0.4-3-0.2-6.1,0.8-8.9c0.9-2.9,2.5-5.5,4.5-7.7
				c2.1-2.2,4.7-3.9,7.6-4.9c-1.5,0.3-3,0.8-4.4,1.5c-1.4,0.7-2.7,1.7-3.9,2.7c-2.4,2.2-4.1,5-5.1,8
				C237.3,91.5,237.2,94.8,237.8,97.9z"/>
		</g>
		<g>
			<path class="st0" d="M281.8,220.1c-1.4-1.7-2.7-3.4-4.1-4.9c0,0,0,0,0-0.1l0.3,0c-0.4-6.6-0.9-13.2-2.4-19.7
				c-1.4-6.4-3.9-13-9-17.5c-5-4.5-11.5-6.8-16.3-11.2c-2.5-2.2-4.6-4.6-6.5-7.3c-1.7-2.8-3.5-5.6-5.4-8.3
				c-3.8-5.4-7.9-10.8-13.7-14.3c-2.8-1.7-6-2.8-9.1-4c-3.1-1.1-6-2.9-9.3-3.6c-6.6-1.4-13.2-1-19.8-1.6c-6.5-0.4-13.2-1.8-18.7-5.4
				l-0.1,0.2c-1.3-0.9-2.8-1.6-4.2-2.5c-0.2,0-0.3-0.1-0.5-0.1l0.1-0.2c4.9,0.8,9.8,2.1,14.6,2.9c5,1.5,8.9-2.8,10.5-7.1
				c0.9-2.2,1.5-4.6,2-7c0.5-2.4,0.8-5,1.8-7.5c0.6-1.2,1.2-2.6,2.7-3.5c1.6-1.1,3.8-0.4,4.9,0.6c2.2,1.9,3.3,4.4,4.2,6.8
				c1.8,4.6,3.9,9.1,6.9,12.7c1.5,1.8,3.3,3.3,5.4,4.1c1,0.4,2.1,0.6,3.2,0.7c1.1,0,2.1-0.2,3.6-0.4c1.4-0.1,3.2,0.1,4.4,1.3
				c1.1,1.2,1.6,2.5,1.9,3.8c0.7,2.5,1.1,4.8,2.4,6.8c1.1,2,3.1,3.4,5.3,4.1l7.2,1.9c4.8,1.4,9.6,3.1,14.2,5c2.3,1,4.6,2,6.8,3.2
				c1.1,0.6,2.2,1.3,3.2,2.1c0.8,0.8,2.2,1.8,1.6,3.6c-0.8,1.4-2.2,1.7-3.3,2.2c-1.2,0.4-2.4,0.8-3.6,1.2c-2.3,0.7-4.8,1.3-6.9,2.4
				c-0.5,0.3-0.9,0.6-1.1,1c-0.2,0.3-0.1,0.5,0.2,1c0.6,0.8,1.7,1.5,2.7,2c2.1,1.1,4.5,2.2,6.6,3.5c4.3,2.6,8.5,5.7,11.7,9.7
				c3.3,3.9,5.7,8.8,6.2,14c0.3,2.5,0.1,5.2-0.5,7.7c-0.6,2.4-1,4.8-1.1,7.2c-0.2,4.9,0.3,9.9,1.4,14.7l-0.2,0.1
				C281.9,220.3,281.9,220.2,281.8,220.1z"/>
			<path class="st0" d="M226.7,150.7c-16.1-8.7-24.8-12.2-34.3-10.5c-0.7-0.6-7.1-6.3-17.2-13.1c3.5,1.4,7.3,2.3,11,3
				c6.7,0.9,13.5,1,19.2,2.7c1.4,0.4,2.7,0.9,3.9,1.6c1.4,0.8,3.2,1.5,4.7,2.2c3.2,1.3,6,2.3,8.4,3.9c4.7,3,8.6,8.1,12.1,13.3
				c1.9,2.6,3.5,5.1,5.6,8.2c2.1,3,4.5,5.7,7.4,8.1c5.7,4.7,12.3,7.2,16.7,10.6c4.6,3.5,7.3,9.2,9.1,15.3c2,6,3,12.4,4.3,18.8
				c-21.3-23.8-38.4-26.6-38.4-26.6c-0.3,1.6-0.7,3-1.2,4.6c-1,3.4-2.4,6.6-3.9,9.5c-3.1,5.9-7.2,10.5-11.9,13
				c-18.1,9.7-14.5-19.4-41.1-29.6c-17.8-6.9-22.1-17.3-17.6-26.6l0.4,0.2c3.4-2.7,6.7-4.5,10.3-5.8c3.1-1.3,7.4-2.5,10.8-3.6
				c3.7-0.9,6.9-1.9,9.8-1.8c2.9-0.1,5.6,0.3,8.7,1.3c3.2,0.8,6.6,2.2,10.2,3.7l5.5,2.2l2.8,1.2l2.5,0.8c5.6,2,10.7,7.2,15,14.9
				l0.5-0.1C238.7,163,234.7,155.1,226.7,150.7z"/>
			<path class="st0" d="M181.7,143.1c-4.9,2.4-10,5.4-14,9.4c-5.9-1.2-52.8-10.6-98.4-7.3c-0.1,0-0.1,0.1-0.2,0.1l-0.2-0.1
				c0,0,0,0,0,0s0,0,0,0l-0.2-0.1c2.4-5.5,6.3-10.1,11.1-13.5c2.4-1.6,5.2-2.8,7.6-4.4c2.5-1.5,4.7-3.4,6.9-5.2
				c4.4-3.8,9.5-6.8,14.8-9.3c5.4-2.2,11.1-3.9,17-4.1l0,0.3h0c31.7,12.6,54.8,29.7,58.8,32.8C183.8,142,182.7,142.6,181.7,143.1z"
				/>
			<path class="st0" d="M238.5,236.6c2.9,10.2,10,37.3,11.6,63l0.2,0.4c-5.6,6.5-13,10.7-20.7,13.5c-3.9,1.4-8,2.1-12.1,2.7
				c-4,0.6-8.2,0.7-12.4,0.4c-4.1-0.3-8.1-0.3-12.1,0.4c-3.9,0.6-7.9,2.4-12,3.1c-4.1,0.7-8.2,0.2-12.2-0.5c-4-0.9-8-1.9-11.8-4.3
				l0.2-1c0.1,0,0.2,0,0.3-0.1c14.9-23.5,27.8-54.3,33-67.1c-2-0.2-4-0.5-5.9-0.9c-4.8,11.8-17.1,39.5-35.9,64.6c0,0,0,0-0.1,0
				l0,0.3c-6.8,1.8-14,1.2-20.6-0.8c-3.3-1.1-6.4-2.6-9.4-4.4c-3-1.7-5.7-3.9-8.2-6.3c-2.4-2.4-4.9-4.7-7.7-6.6
				c-2.7-2-6-3.4-8.7-5.5c-2.7-2.1-4.8-4.8-6.7-7.7c-1.8-2.9-3.4-6.1-4-9.6l0.6-0.4c0,0,0,0.1,0,0.1c25.3-11.4,58.2-33,70.7-41.5
				c-1.7-2.3-2.9-4.7-4-7.2c-13,8.8-48,31.6-75.1,41.5l0,0l-0.3,0.1c-4.4-3-7.2-6.8-8.7-11.3c-0.6-2.3-0.6-5-1.4-7.2
				c-0.7-2.2-2-4.2-3.6-6.1c-1.6-1.9-2.9-3.9-4-6c-1.1-2.1-2.2-4.3-2.8-6.6c-1.2-4.6-1.9-9.6,0-14.8l0.5,0
				c30.7-9,71.3-14.7,86.2-16.6c-0.5-0.9-1.1-1.9-1.6-2.8c-0.8-1.3-1.6-2.7-2.5-4.2c-13.1,1.1-48.3,5.1-84.4,16.3
				c-0.1,0.1-0.2,0.2-0.4,0.3l-0.3-0.1c0,0,0,0,0,0c0,0,0,0,0,0l-0.3-0.1c-0.4-5,0.3-9.4,1.4-13.7c0.6-2.1,1.6-4.1,2.4-6.1
				c0.8-2,1.9-4,3.1-6c1.2-2,2.2-4,2.4-6.3c0.2-2.2-0.5-4.6-0.6-6.9c0.1-4.4,1.5-8.5,4-12.9l0.7,0c26-2.3,63.5,1.3,79,2.9
				c1.7-0.7,3.5-1.1,5.4-1.1c5.4,0,10,2.3,13.6,5.3l-0.2,0.3l-0.4-0.2c-0.1,0.1-0.1,0.1-0.2,0.2c-3.8-2.2-8.2-3.7-12.5-3.2
				c-4.6,0.4-8.5,3.5-10.7,7.4c-2.5,3.9-3.2,8.6-1.7,12.9c1.5,4.3,4.2,8.1,6.8,11.9c2.7,3.8,5.3,7.7,7.3,12c1,2.1,1.7,4.4,2.3,6.6
				c0.7,2.3,0.7,4.7,1.2,6.9c2,9,8.5,16.4,16.6,20.6c8,4.4,17.3,6.2,26.5,6.5c9.2,0.3,18.5-0.8,27.3-3.9c4.3-1.5,8.6-3.4,12.5-5.9
				c3.8-2.5,7.5-5.5,9.6-9.5c1-2,1.5-4.3,1.1-6.5c-0.4-2.2-1.7-4.1-3.3-5.7c-1.8-1.8-3.8-3.1-6.1-4.2c1.4-3.3,2.3-6.8,2.9-10.2
				c9.4,4.9,28.6,17.6,43.5,44.6l0.2,0c1.2,5.6,0.7,11.4-0.6,16.9c-1.5,5.4-3.9,10.7-7.3,15.3c-1.6,2.3-3.2,4.6-4.6,7
				c-1.3,2.4-2.4,5.2-3.9,7.6c-3.1,4.7-7.7,8.5-12.9,10.8l-0.1-0.2l0,0l0,0l-0.2-0.2c0-0.1,0.1-0.2,0.1-0.2
				c-1.3-32.6-9.8-55.1-13.5-63.4c-0.8,0.7-1.6,1.3-2.4,1.9C240.1,235.6,239.3,236.1,238.5,236.6z"/>
			<path class="st0" d="M163.4,159.1L163.4,159.1L163.4,159.1C163.4,159.1,163.4,159.1,163.4,159.1z"/>
			<path class="st0" d="M229.2,219.9c0.8-0.6,1.5-1.3,2.2-1.9c2.7-2.6,4.8-5.6,6.3-8.6c0.4-0.8,0.7-1.5,1.1-2.3
				c0.2,0.1,0.2,0.2,0.4,0.3c1.6,1.5,3.1,3.1,4,4.7c0.9,1.6,1.3,3,1,4c-0.3,1-0.8,1.7-1.8,2.7c-1.7,1.9-4.9,4-8.4,5.4
				c-3.5,1.5-7.3,2.8-11.2,3.6c-3.9,0.8-7.9,1.3-11.8,1.6c-0.9,0.1-2.1,0.1-2.8,0.1c-1.1,0-2.4,0-3.3,0c-1.8,0-3.9-0.1-5.8-0.4
				c-7.9-0.5-15.4-2.3-21-5.5c-5.9-3-9.5-7.3-11.1-12.5c-0.1-0.3-0.3-0.6-0.3-1l-0.1-0.5l-0.1-0.2l-0.1-0.1l0-0.5l-0.1-0.1l-0.3-1.7
				l-0.7-2.7c-0.8-3.1-2-6-3.4-8.5c-2.7-5.3-6.1-9.4-9.2-13c-3.1-3.5-5.5-6.7-7-8.9c-1.3-2.2-1.9-3.7-0.7-7.3c1-3.2,2.6-5.5,5.8-7
				c3.1-1.2,7.6-1.1,11.8,0.1c-1.8,2.2-3.2,5.1-3.3,8.4c-0.3,3.6,1,7.3,2.8,10.4c3.9,6.2,9.6,10.2,15.3,13.1
				c9.8,4.8,14.4,11.2,20.6,21.6c1.8,2.6,3.5,5.5,7.4,8.7c2,1.6,4.9,3.1,8,3.5c3.1,0.5,5.8-0.1,8-0.9c2.2-0.8,3.9-1.8,5.5-2.8
				C227.2,221.3,228.6,220.4,229.2,219.9z"/>
		</g>
	</g>
</g>
</svg>
