<svg xmlns="http://www.w3.org/2000/svg" viewBox="0 0 155.97 95.97"><defs><style>.cls-1{isolation:isolate;}.cls-2,.cls-3,.cls-5{fill:#bcc7c7;}.cls-3{opacity:0.2;}.cls-3,.cls-4,.cls-5,.cls-7,.cls-8{mix-blend-mode:multiply;}.cls-4{opacity:0.4;}.cls-5,.cls-7{opacity:0.3;}.cls-6,.cls-7{fill:#b3c0bf;}.cls-9{fill:#264a49;}.cls-10{fill:#fff;}</style></defs><g class="cls-1"><g id="Layer_2" data-name="Layer 2"><g id="Layer_1-2" data-name="Layer 1"><path class="cls-2" d="M28.1,25.16c-2-.53-4-.93-6-1.29-1.31-.24-2.68-.5-4.39-.69C21.23,25,25.28,26,29.12,27.31s8.38,3.24,12.56,2.93C39.67,22.16,33.89,26.7,28.1,25.16Z"/><path class="cls-2" d="M30.14,27.91c-2.05-.36-4-.6-6.07-.8a20.71,20.71,0,0,0-4.43-.31c2,.93,8,2.2,11.66,3.16,4,1.05,8.57,2.54,12.72,1.89C41.47,24,36,29,30.14,27.91Z"/><path class="cls-3" d="M40.46,27.33a10.58,10.58,0,0,1,.79,2.17c-4.18.31-8.63-1.55-12.56-2.93-3.07-1.08-6.25-1.94-9.21-3.15-.55-.08-1.13-.17-1.77-.24C21.23,25,25.28,26,29.12,27.31s8.38,3.24,12.56,2.93A9,9,0,0,0,40.46,27.33Z"/><path class="cls-3" d="M42.84,29.34a11.08,11.08,0,0,1,.75,1.77c-4.15.65-8.71-.84-12.72-1.89-2.78-.72-6.88-1.63-9.57-2.43a6.52,6.52,0,0,0-1.66,0c2,.93,8,2.2,11.66,3.16,4,1.05,8.57,2.54,12.72,1.89A9.5,9.5,0,0,0,42.84,29.34Z"/><path class="cls-2" d="M49.41,34.33c-2-.56-4.75.19-6.88.41-2.73.27-5.4.46-8.15.61A46.35,46.35,0,0,0,20,38.51,19.29,19.29,0,0,0,9.78,46.93c-2.54,4.7-3,7.87-1.37,13.06,4.17,13.35,18.14,17.9,29.42,19.94a128.73,128.73,0,0,1,16,3.57c2.2.69,5.1,2.84,7.46,2.65-.59-2.44-6-3.48-8-4.27A58.18,58.18,0,0,0,42.9,79.57C3.8,74,7.71,51.68,11.81,46.1s11.09-7.69,17.18-9c3.41-.76,7.87-.7,11.3-1.24,3.09-.48,6.24-.66,9.31-1.28.73-.15.56-.2.56-.21Z"/><path class="cls-2" d="M20.44,34.84c-3.82.82-8.54,2.43-11.74,4.9C1.38,45.4,0,54.52,0,58.17a13.6,13.6,0,0,0,4.29,10c1.83,1.87,3.55,3.61,6,4.31A36.26,36.26,0,0,0,20.66,74C29,74,35,72.42,43.25,71.61a53.5,53.5,0,0,1,13,.51c5.47,1.14,10.38,3.67,15.46,6.11-.31-1.08-2.16-1.84-3.07-2.32-1.62-.86-11.62-7.53-29.41-4.64-5.42.88-8.78,1.88-14.42,1.88-5,0-11.87-.27-16.11-3.07-10.89-7.19-7-16.19-6.4-18.55a16,16,0,0,1,3.14-6.68C9.2,40.8,14.11,34,45.79,33.44c1.87,0-4.94-1.71-5.6-1.66A147.84,147.84,0,0,0,20.44,34.84Z"/><g class="cls-4"><path class="cls-2" d="M49.2,34.29c-3,.61-6.16.79-9.22,1.27-3.44.53-7.9.48-11.31,1.24-6.08,1.34-13,3.33-17.17,9C8.67,49.68,6,61.44,17.24,70.22,6.33,61.47,9,49.9,11.81,46.1c4.2-5.71,11.09-7.69,17.18-9,3.41-.76,7.87-.7,11.3-1.24,3.09-.48,6.24-.66,9.31-1.28.73-.15.56-.2.56-.21h-.75Z"/><path class="cls-2" d="M60.21,84.67A2.53,2.53,0,0,1,61,85.88c-2.36.2-5.26-1.95-7.47-2.64a127.94,127.94,0,0,0-16-3.57c-7-1.28-15.1-3.52-21.19-8.26,6.13,4.91,14.35,7.22,21.51,8.52a128.73,128.73,0,0,1,16,3.57c2.2.69,5.1,2.84,7.46,2.65A2.8,2.8,0,0,0,60.21,84.67Z"/></g><g class="cls-4"><path class="cls-2" d="M70.83,77.12a1.88,1.88,0,0,1,.61.85c-5.09-2.44-10-5-15.46-6.11a53.5,53.5,0,0,0-13-.51c-8.25.81-14.24,2.38-22.59,2.38A35.93,35.93,0,0,1,10,72.24a9.26,9.26,0,0,1-3.19-1.7,9.66,9.66,0,0,0,3.51,2A36.26,36.26,0,0,0,20.66,74C29,74,35,72.42,43.25,71.61a53.5,53.5,0,0,1,13,.51c5.47,1.14,10.38,3.67,15.46,6.11A2.28,2.28,0,0,0,70.83,77.12Z"/><path class="cls-2" d="M45.47,33.18c-31.67.55-36.58,7.36-40.3,11.4A16.05,16.05,0,0,0,2,51.26C1.5,53.49-2,61.59,6.65,68.52c-8.25-6.88-4.83-14.79-4.31-17a16,16,0,0,1,3.14-6.68C9.2,40.8,14.11,34,45.79,33.44c.48,0,.38-.13,0-.3A.64.64,0,0,1,45.47,33.18Z"/></g><path class="cls-2" d="M49.37,41.4a50.76,50.76,0,0,0-8.89,3.92C35.82,48.26,33,53.46,29.71,58c2.91-2.23,4.8-5.54,7.38-8.24,2.38-2.49,5-3.63,8-4.73,3.52-1.28,6.95-3.11,10.42-4.56,1.29-.53,9.65-1.7,9.39-3.84C64.71,34.76,51,40.78,49.37,41.4Z"/><path class="cls-2" d="M53.72,41.83a52.2,52.2,0,0,0-8.08,5.68c-4.1,3.84-6,9.54-8.48,14.67,2.49-2.79,3.8-6.44,5.88-9.61,1.93-2.94,4.32-4.59,7.12-6.3,3.24-2,6.31-4.49,9.48-6.62,1.17-.79,9.19-3.66,8.58-5.71C67.69,32.15,55.22,40.88,53.72,41.83Z"/><path class="cls-2" d="M53.37,40.85a50.35,50.35,0,0,0-8.89,3.92C39.82,47.7,37,52.91,33.71,57.45c2.91-2.24,4.81-5.55,7.38-8.24,2.39-2.49,5-3.63,8-4.74,3.51-1.27,7-3.11,10.41-4.55,1.29-.54,9.65-1.7,9.39-3.85C68.71,34.21,55,40.22,53.37,40.85Z"/><path class="cls-2" d="M57.72,41.28A52.83,52.83,0,0,0,49.64,47c-4.09,3.84-6,9.54-8.47,14.68,2.48-2.79,3.8-6.44,5.88-9.61,1.93-2.94,4.31-4.6,7.11-6.31,3.25-2,6.32-4.48,9.48-6.62,1.18-.79,9.2-3.65,8.58-5.71C71.69,31.6,59.22,40.33,57.72,41.28Z"/><path class="cls-5" d="M64.26,36.27a.33.33,0,0,1,.18.25c.26,2.14-8.09,3.31-9.38,3.85-3.47,1.44-6.9,3.27-10.42,4.55-3,1.11-5.66,2.24-8,4.74-2.1,2.19-3.76,4.79-5.87,6.88l-1,1.46c2.91-2.23,4.8-5.54,7.38-8.24,2.38-2.49,5-3.63,8-4.73,3.52-1.28,6.95-3.11,10.42-4.56,1.29-.53,9.65-1.7,9.39-3.84C64.91,36.39,64.66,36.28,64.26,36.27Z"/><path class="cls-5" d="M68.22,33.94c-.06-.2-.29-.25-.61-.21,0,0,.1.05.12.1.61,2.05-7.41,4.92-8.58,5.71-3.17,2.13-6.24,4.64-9.48,6.62-2.8,1.71-5.19,3.36-7.12,6.3-1.65,2.53-2.83,5.35-4.5,7.81-.29.64-.58,1.28-.89,1.91,2.49-2.79,3.8-6.44,5.88-9.61,1.93-2.94,4.32-4.59,7.12-6.3,3.24-2,6.31-4.49,9.48-6.62C60.81,38.86,68.83,36,68.22,33.94Z"/><path class="cls-5" d="M68.26,35.72a.31.31,0,0,1,.19.24c.26,2.15-8.1,3.32-9.39,3.85-3.47,1.45-6.9,3.28-10.42,4.56-3,1.1-5.66,2.24-8,4.73-2.1,2.2-3.75,4.79-5.87,6.89-.34.49-.67,1-1,1.46,2.91-2.24,4.81-5.55,7.38-8.24,2.39-2.49,5-3.63,8-4.74,3.51-1.27,7-3.11,10.41-4.55,1.29-.54,9.65-1.7,9.39-3.85C68.91,35.84,68.67,35.73,68.26,35.72Z"/><path class="cls-5" d="M72.22,33.38c-.06-.2-.28-.25-.6-.21,0,0,.09,0,.11.11.61,2-7.41,4.91-8.58,5.7-3.17,2.14-6.23,4.64-9.48,6.62-2.8,1.71-5.19,3.37-7.11,6.31-1.66,2.53-2.84,5.34-4.5,7.8-.29.64-.59,1.29-.89,1.92,2.48-2.79,3.8-6.44,5.88-9.61,1.93-2.94,4.31-4.6,7.11-6.31,3.25-2,6.32-4.48,9.48-6.62C64.82,38.3,72.84,35.44,72.22,33.38Z"/><path class="cls-6" d="M117.28,40.51c-1.43,1.73-3.23,3.22-4,5.57-1.09,3.31,1,9.19,4,10.54.37-2.18-1.77-4.72-2-7-.27-3.07.93-4.25,2.55-6.62,1.51-2.2,3.16-4.22,4.79-6.34.58-.75,4.84-5.52,2.27-6C122.92,30.25,118.52,39,117.28,40.51Z"/><path class="cls-6" d="M106.6,40.72a68.67,68.67,0,0,1-5.55,7.22c-1.2,1.49-3,3.55-2.63,5.74a5.72,5.72,0,0,0,1.5,2.59c.8,1.1,1.4,2.46,2.14,3.51a7.27,7.27,0,0,0-.42-3.73c-.56-1.23-1.6-1.8-1.55-3.29.09-2.27,3.34-5.31,4.72-6.85A51.53,51.53,0,0,0,110,39.62c.74-1.14,4.43-4.6,1.52-4.73C109.39,34.79,107.63,39.07,106.6,40.72Z"/><path class="cls-7" d="M111.5,34.89a1.61,1.61,0,0,0-.74.15c2.85.15-.82,3.59-1.55,4.72A51.69,51.69,0,0,1,104,46.05c-1.39,1.54-4.63,4.59-4.72,6.85,0,1.49,1,2.06,1.55,3.29a5.75,5.75,0,0,1,.46,2.41c.24.41.48.81.73,1.18a7.27,7.27,0,0,0-.42-3.73c-.56-1.23-1.6-1.8-1.55-3.29.09-2.27,3.34-5.31,4.72-6.85A51.53,51.53,0,0,0,110,39.62C110.72,38.48,114.41,35,111.5,34.89Z"/><path class="cls-6" d="M109.61,32.54a14.84,14.84,0,0,1-1.55,5c-1.26,2.51-3.94,4.84-4.47,7.59s.5,6,1.21,8.51c.55,2,1.13,5.38,3.11,6.27-.69-3.36-2.67-6.49-3-10s.6-5,2.47-7.45c1.67-2.22,3.79-4.66,4.38-7.55a13.71,13.71,0,0,0-.43-6.4c-.31-.82-.56-1.91-1.52-1.4C108.56,27.83,109.72,31.32,109.61,32.54Z"/><path class="cls-7" d="M111.77,35a13.71,13.71,0,0,0-.43-6.4c-.31-.82-.56-1.91-1.52-1.4,0,0,0,.06-.08.08.42.2.62.89.83,1.47a13.7,13.7,0,0,1,.43,6.4c-.59,2.88-2.71,5.32-4.38,7.54-1.86,2.49-2.78,4-2.47,7.45.28,3.15,1.92,6,2.75,9a3,3,0,0,0,1,.82c-.69-3.36-2.67-6.49-3-10s.6-5,2.47-7.45C109.06,40.31,111.18,37.87,111.77,35Z"/><path class="cls-6" d="M112.53,38.72c-1.5,2.54-3.75,4.43-4.85,7.13-1.41,3.5.57,9.48,3.35,11.88-.41-2.88-2.47-5.7-2.3-8.69.15-2.72,3.08-5.26,4.54-7.39s3.21-4.45,3.76-6.9a15.78,15.78,0,0,0-.46-7.64C115.22,31.07,114.7,35.05,112.53,38.72Z"/><path class="cls-7" d="M116.57,27.11c-.15.45-.29.91-.43,1.36a15.83,15.83,0,0,1,.12,6.42c-.55,2.45-2.34,4.84-3.76,6.9s-4.39,4.67-4.54,7.4c-.15,2.54,1.31,5,2,7.39A7.9,7.9,0,0,0,111,57.73c-.41-2.88-2.47-5.7-2.3-8.69.15-2.72,3.08-5.26,4.54-7.39s3.21-4.45,3.76-6.9A15.78,15.78,0,0,0,116.57,27.11Z"/><path class="cls-7" d="M124.88,30.63a1,1,0,0,0-.68.18c2.35.61-1.79,5.24-2.36,6-1.63,2.13-3.28,4.15-4.79,6.35-1.61,2.37-2.82,3.55-2.55,6.61.19,2.09,2,4.37,2,6.42a5.32,5.32,0,0,0,.75.45c.37-2.18-1.77-4.72-2-7-.27-3.07.93-4.25,2.55-6.62,1.51-2.2,3.16-4.22,4.79-6.34C123.19,35.9,127.45,31.13,124.88,30.63Z"/><path class="cls-6" d="M109.69,47.35c-.71,5,2.72,7.46,6,9.8.19-2-3-4.29-3.43-6.5a14.79,14.79,0,0,1,.84-7.93c1-2,2.36-3.81,3.08-5.92.32-.92,1-2.72.71-3.7-.92-3.81-3.18,2.6-3.46,3.35C112,40,110.24,43.48,109.69,47.35Z"/><path class="cls-7" d="M116.14,36.8c.32-.92,1-2.72.71-3.7-.31-1.31-.79-1.39-1.29-.93a1.9,1.9,0,0,1,.52,1.08c.24,1-.39,2.77-.71,3.69-.72,2.11-2.13,3.92-3.08,5.93a14.75,14.75,0,0,0-.84,7.92c.34,1.94,2.87,3.91,3.36,5.74l.84.62c.19-2-3-4.29-3.43-6.5a14.79,14.79,0,0,1,.84-7.93C114,40.72,115.42,38.91,116.14,36.8Z"/><path class="cls-6" d="M130.93,35.71c-.07,1.45-2.85,2.63-3.88,3.33a28.89,28.89,0,0,1-5.63,3c-2.65,1.05-4.07,1.62-5.8,4.07-3,4.21-4.78,8.06-3.34,13.49.86-.82.72-2.1,1-3.31A17.64,17.64,0,0,1,115,52.19c1.22-2.3,2.37-5.36,4.38-7,3.72-3,9.2-4.15,13.27-6.7-.41-1.81-.92-2.38-1.93-2.78Z"/><g class="cls-8"><path class="cls-6" d="M130.76,35.71l.15.07s0-.05,0-.07Z"/><path class="cls-7" d="M130.91,35.78a1.52,1.52,0,0,1-.15.5,3.91,3.91,0,0,1,1.16,2.35c-4.07,2.56-9.56,3.67-13.27,6.71-2,1.64-3.16,4.69-4.38,7a17.4,17.4,0,0,0-1.76,4.07c-.18.78-.19,1.6-.41,2.29.06.3.1.58.18.88.86-.82.72-2.1,1-3.31A17.64,17.64,0,0,1,115,52.19c1.22-2.3,2.37-5.36,4.38-7,3.72-3,9.2-4.15,13.27-6.7C132.3,36.78,131.82,36.18,130.91,35.78Z"/></g><path class="cls-6" d="M119.07,45.54c-.43,2.47-1.65,5-.58,7.36a13.92,13.92,0,0,0,4.43,5.21c-.54-2.75-3-4.57-3.14-7.58-.14-2.73.77-5.65,1.17-8.33A15.6,15.6,0,0,1,124.32,35c.9-1,5.28-2.34,3.47-4.47-1.24-1.46-4.15,1.27-5,2.38C120.14,36.3,119.81,41.35,119.07,45.54Z"/><path class="cls-7" d="M127.79,30.56a1.4,1.4,0,0,0-1.66-.27,1.15,1.15,0,0,1,.88.41c1.82,2.14-2.56,3.52-3.46,4.48a15.63,15.63,0,0,0-3.38,7.17c-.39,2.67-1.3,5.59-1.17,8.33s2,4.33,2.85,6.55c.36.31.72.61,1.07.88-.54-2.75-3-4.57-3.14-7.58-.14-2.73.77-5.65,1.17-8.33A15.6,15.6,0,0,1,124.32,35C125.22,34.08,129.6,32.69,127.79,30.56Z"/><path class="cls-6" d="M127.05,75.64c-6-1.32-12.61,1.27-18.28,3.39-5,1.88-11,5.08-15,9,2.51.49,4.71,1.35,7.23,1.25a33.73,33.73,0,0,0,7.79-1.6c5.68-1.62,10.21-3.52,14.95-7.36,1.55-1.26,3.13-2.11,3.31-4.5Z"/><path class="cls-7" d="M126.15,75.51c-.56,1.42-1.78,2.16-3,3.15-4.74,3.84-9.27,5.74-15,7.36a33.73,33.73,0,0,1-7.79,1.6,19,19,0,0,1-5.31-.81c-.47.39-.93.8-1.36,1.21,2.51.49,4.71,1.35,7.23,1.25a33.73,33.73,0,0,0,7.79-1.6c5.68-1.62,10.21-3.52,14.95-7.36,1.55-1.26,3.13-2.11,3.31-4.5l0-.17C126.76,75.57,126.45,75.56,126.15,75.51Z"/><path class="cls-6" d="M130.53,75a46.3,46.3,0,0,1-4.67,10.54A20.29,20.29,0,0,1,119,92.12c-5.65,3.34-13.32,4.69-18.23,3.32a95.69,95.69,0,0,0,12.36-9.14,55.65,55.65,0,0,1,8.13-5.72c2.31-1.35,5.52-3.53,8.07-3.52-.24,0-.31.1-.51.22Z"/><path class="cls-7" d="M129,77.1c-.1,0-.21,0-.31,0a45.85,45.85,0,0,1-3.35,6.73,20.35,20.35,0,0,1-6.84,6.61,28,28,0,0,1-15.83,3.74l-1.85,1.23c4.91,1.37,12.58,0,18.23-3.32a20.29,20.29,0,0,0,6.85-6.61A46.3,46.3,0,0,0,130.53,75Z"/><path class="cls-2" d="M112.67,2.41c6-1.35,11.55-2.7,17.78-2.35,12.3.69,23.08,8.28,24.94,22.58,1.31,10,.45,20.8-3.21,30s-7.61,18.29-14.63,24.68a47.7,47.7,0,0,1-10.61,7.25c-.08.1-5-4.82-6.32-8.08-1.85-4.62,24.24-23.85,8.46-39.59-5.5-5.49-13.3-.1-20.58.7-4.17.46-7.33-.83-10.77-3.75-3.63-3.07-4.56-9.85-7-14a13.12,13.12,0,0,1-1.5-6.64c.31-3.07,2-2.55,4.27-3.26C100,7.89,105.93,3.93,112.67,2.41Z"/><path class="cls-6" d="M133.51,43.94a46.57,46.57,0,0,0,3.94-7.08,53.4,53.4,0,0,0,4.34-12.11c.94-4,5-12.88,4.59-18.85A24,24,0,0,0,143,3.58a29.92,29.92,0,0,1,.52,7.68c-.37,4-.6,7.91-1.79,11.79-1.66,5.37-3.77,10.8-7.2,15.11a13.39,13.39,0,0,1-2.58,2.26A15.11,15.11,0,0,1,133.51,43.94Z"/><path class="cls-6" d="M110.66,28.88c-1-4.83-3.35-9.74-5.11-14.31A80.13,80.13,0,0,0,102,6.43L100.86,7a23,23,0,0,1,1.41,2.36c2.36,4.67,3.45,10.56,4.66,15.71.84,3.55,1.12,7.2,1.8,10.75.1.54.17,1.12.24,1.73,1-.14,1.93-.34,2.9-.58A60.87,60.87,0,0,0,110.66,28.88Z"/><path class="cls-6" d="M122.57.44A13.74,13.74,0,0,1,123.49,2c2.81,6.86,3.15,14.78,2.85,22.21a41,41,0,0,1-2,10.32,8.12,8.12,0,0,1,2.4.68,56,56,0,0,0,1.86-12.65c.3-7.29,1.19-15.84-1.92-22.5C125.28.12,123.91.26,122.57.44Z"/><path class="cls-6" d="M155.32,33a40.76,40.76,0,0,1-7.14,8.62c-4.2,3.63-8.83,8.06-14.21,9.24a21.83,21.83,0,0,1-1,3.84c5.44-.44,11.94-6.94,15.67-10.12a69.72,69.72,0,0,0,7-6.62c.2-2,.28-4,.29-6C155.73,32.29,155.53,32.63,155.32,33Z"/><path class="cls-6" d="M148.67,60.88c.54-1.19,1.07-2.38,1.58-3.59a8.05,8.05,0,0,1-2.06.79c-1.88.41-3.76.75-5.71,1.11-3.38.61-6.73,1.38-10.37,1a14.32,14.32,0,0,1-1.55-.26c-.39.69-.79,1.38-1.21,2.05,1.59.2,3.19.26,4.14.36A37.35,37.35,0,0,0,148.67,60.88Z"/><path class="cls-6" d="M57.39,14.4C65.54,12.05,77.8,10,86,10.46c9.48.52,15,9.17,18.48,18.51,4.27,11.6-4.79,16.45-14.3,18.52-11,2.39-24.54-.24-35.15-3.18a40.74,40.74,0,0,1-14.43-7.25c-5.29-3.85-9.59-6.48-4-11.73C41.45,20.79,51.33,16.15,57.39,14.4Z"/><path class="cls-3" d="M95.65,29.17A72.15,72.15,0,0,1,74.45,39c-4.07,1.17-8.1,1.24-12.42,1.24a30.76,30.76,0,0,1-5.92-.64,5.65,5.65,0,0,1-3.19-1.33c2.06-1.51,6.49-.63,9-.8C65.85,37.21,72.5,38.92,95.65,29.17Z"/><path class="cls-9" d="M43.72,24.67A1.6,1.6,0,0,0,42.23,23c-.13,0-.26,0-.39,0a1.58,1.58,0,0,0-1.49,1.65,2,2,0,0,0,.88,1.59,1.2,1.2,0,0,0,1.43,0A1.68,1.68,0,0,0,43.72,24.67Z"/><path class="cls-10" d="M41.27,23.61c-.43,0-.43.75,0,.75S41.7,23.61,41.27,23.61Z"/></g></g></g></svg>