<?xml version="1.0" encoding="utf-8"?>
<!-- Generator: Adobe Illustrator 25.1.0, SVG Export Plug-In . SVG Version: 6.00 Build 0)  -->
<svg version="1.1" id="Layer_1" xmlns="http://www.w3.org/2000/svg" xmlns:xlink="http://www.w3.org/1999/xlink" x="0px" y="0px"
	 viewBox="0 0 156 96" style="enable-background:new 0 0 156 96;" xml:space="preserve">
<style type="text/css">
	.st0{fill:#BCC7C7;}
	.st1{fill:#B3C0BF;}
	.st2{opacity:0.3;fill:#B3C0BF;enable-background:new    ;}
	.st3{fill:#8C9B9A;}
	.st4{fill:#FFFFFF;}
</style>
<path class="st0" d="M44,31.8c0,0,0-0.1,0-0.1c-0.1-0.4-0.3-0.8-0.4-1.1c0,0,0-0.1-0.1-0.1c-0.2-0.4-0.4-0.8-0.7-1.2c0,0,0,0,0,0
	c0,0,0,0,0,0c-0.6-0.9-1.4-1.5-2.2-1.7c-2.6-4.3-7.6-1.1-12.6-2.5c-2-0.5-4-0.9-6-1.3c-1.3-0.2-2.7-0.5-4.4-0.7
	c3.5,1.8,7.6,2.8,11.4,4.1c0.7,0.2,1.4,0.5,2.1,0.7c-0.4,0-0.7-0.1-1.1-0.1c-2-0.4-4-0.6-6.1-0.8c-0.9-0.2-1.8-0.3-2.7-0.3
	c0,0-0.1,0-0.1,0c-0.6-0.1-1.1-0.1-1.7,0c0,0,0,0,0,0c0,0,0,0,0,0c2,0.9,8,2.2,11.7,3.2C35.3,31,39.9,32.5,44,31.8
	C44,31.8,44,31.8,44,31.8C44,31.8,44,31.8,44,31.8z"/>
<path class="st0" d="M60.2,84.7C60.2,84.7,60.2,84.7,60.2,84.7c-1.8-1.4-5.4-2.2-6.9-2.8c-3.4-1.1-6.9-1.9-10.4-2.3
	c-8.5-1.2-14.9-3.2-19.8-5.6c7.1-0.3,12.7-1.6,20.1-2.3c4.3-0.4,8.7-0.2,13,0.5c5.5,1.1,10.4,3.7,15.5,6.1c-0.1-0.2-0.2-0.4-0.3-0.5
	c-0.1-0.1-0.1-0.1-0.2-0.2c0,0-0.1-0.1-0.1-0.1c-0.1-0.1-0.2-0.2-0.3-0.3c0,0,0.1,0.1,0.1,0.1c-0.7-0.6-1.7-1-2.3-1.3
	C67,75.1,57,68.4,39.2,71.3c-5.4,0.9-8.8,1.9-14.4,1.9c-1,0-2.1,0-3.3-0.1c-1.9-1.1-3.5-2.2-4.9-3.4c0.2,0.2,0.4,0.4,0.6,0.5
	c-5.5-4.4-7.5-9.4-7.9-13.9c0,0,0,0,0,0c0-0.2,0-0.5,0-0.7c0-0.1,0-0.1,0-0.2c0-0.2,0-0.4,0-0.6c0-0.1,0-0.1,0-0.2
	c0-0.2,0-0.4,0-0.6c0-0.1,0-0.2,0-0.4c0-0.1,0-0.2,0-0.3c0-0.1,0-0.3,0-0.4c0,0,0-0.1,0-0.1c0.3-2.5,1.1-4.7,1.9-6.1
	c0,0,0.1-0.1,0.1-0.1c0-0.1,0.1-0.1,0.1-0.2c0.1-0.1,0.1-0.2,0.2-0.3c4.1-5.6,11.1-7.7,17.2-9c3.4-0.8,7.9-0.7,11.3-1.2
	c3.1-0.5,6.2-0.7,9.3-1.3c0.7-0.1,0.6-0.2,0.6-0.2l-0.8,0c-2-0.6-4.8,0.2-6.9,0.4c-2.7,0.3-5.4,0.5-8.2,0.6
	c-4.9,0.3-9.8,1.3-14.4,3.2C15.7,40,12.1,43,9.8,46.9c-2.5,4.7-3,7.9-1.4,13.1c1.8,5.8,5.4,9.9,9.9,12.9c-3.5-0.3-7-1.1-9.6-2.8
	c-1.4-0.9-2.5-1.9-3.5-2.8c0.4,0.4,0.9,0.8,1.4,1.3c-8.2-6.9-4.8-14.8-4.3-17c0.5-2.4,1.6-4.7,3.1-6.7c2.3-2.5,5.1-6.1,14.6-8.6
	c3.8-1,8.6-1.8,14.8-2.3c2.4-0.2,5.1-0.3,8-0.4c0.9,0,1.9-0.1,2.9-0.1c0.2,0,0.3,0,0.3-0.1c0-0.1-0.1-0.1-0.3-0.2c0,0,0,0-0.1,0
	c-1.2-0.5-5.1-1.4-5.5-1.4l-19.8,3.1c-3.8,0.8-8.5,2.4-11.7,4.9C1.4,45.4,0,54.5,0,58.2c0,3.8,1.5,7.4,4.3,10c1,1,2,2,3.1,2.8
	c0.1,0.1,0.3,0.2,0.4,0.3c0,0,0,0,0,0c0.8,0.5,1.6,0.9,2.5,1.2c3.2,0.9,6.5,1.4,9.8,1.4c5.5,3.2,12,4.9,17.8,5.9
	c5.4,0.8,10.7,2,16,3.6c2.2,0.7,5.1,2.8,7.5,2.7c0,0,0,0,0,0c0,0,0,0,0,0C61.1,85.5,60.7,85,60.2,84.7z"/>
<g>
	<path class="st1" d="M130.8,35.7l0.1,0.1c0,0,0,0,0-0.1H130.8z"/>
</g>
<path class="st1" d="M127.1,75.6c-6-1.3-12.6,1.3-18.3,3.4c-5,1.9-11,5.1-15,9c2.5,0.5,4.7,1.3,7.2,1.2c2.7-0.2,5.3-0.8,7.8-1.6
	c5.7-1.6,10.2-3.5,14.9-7.4c1.6-1.3,3.1-2.1,3.3-4.5V75.6z"/>
<path class="st2" d="M126.2,75.5c-0.6,1.4-1.8,2.2-3,3.2c-4.7,3.8-9.3,5.7-15,7.4c-2.5,0.8-5.1,1.4-7.8,1.6c-1.8,0-3.6-0.3-5.3-0.8
	c-0.5,0.4-0.9,0.8-1.4,1.2c2.5,0.5,4.7,1.3,7.2,1.2c2.7-0.2,5.3-0.8,7.8-1.6c5.7-1.6,10.2-3.5,14.9-7.4c1.6-1.3,3.1-2.1,3.3-4.5
	v-0.2C126.8,75.6,126.4,75.6,126.2,75.5z"/>
<path class="st1" d="M130.5,75c-1.1,3.7-2.7,7.2-4.7,10.5c-1.7,2.7-4.1,5-6.9,6.6c-5.7,3.3-13.3,4.7-18.2,3.3
	c4.4-2.7,8.5-5.8,12.4-9.1c2.5-2.1,5.3-4.1,8.1-5.7c2.3-1.3,5.5-3.5,8.1-3.5c-0.2,0-0.3,0.1-0.5,0.2L130.5,75z"/>
<path class="st2" d="M129,77.1c-0.1,0-0.2,0-0.3,0c-0.9,2.3-2.1,4.6-3.3,6.7c-1.7,2.7-4.1,5-6.8,6.6c-4.8,2.8-10.3,4.1-15.8,3.7
	l-1.8,1.2c4.9,1.4,12.6,0,18.2-3.3c2.8-1.6,5.1-3.9,6.8-6.6c2-3.3,3.5-6.8,4.6-10.5L129,77.1z"/>
<path class="st0" d="M112.7,2.4c6-1.4,11.6-2.7,17.8-2.3c12.3,0.7,23.1,8.3,24.9,22.6c1.3,10,0.4,20.8-3.2,30s-7.6,18.3-14.6,24.7
	c-3.2,2.9-6.8,5.3-10.6,7.2c-0.1,0.1-5-4.8-6.3-8.1c-1.8-4.6,24.2-23.8,8.5-39.6c-5.5-5.5-13.3-0.1-20.6,0.7
	c-4.2,0.5-7.3-0.8-10.8-3.8c-3.6-3.1-4.6-9.9-7-14c-1.1-2-1.6-4.3-1.5-6.6c0.3-3.1,2-2.6,4.3-3.3C100,7.9,105.9,3.9,112.7,2.4z"/>
<path class="st1" d="M133.5,43.9c1.5-2.2,2.8-4.6,3.9-7.1c1.9-3.8,3.4-7.9,4.3-12.1c0.9-4,5-12.9,4.6-18.9c-1.1-0.9-2.2-1.6-3.4-2.3
	c0.5,2.5,0.7,5.1,0.5,7.7c-0.4,4-0.6,7.9-1.8,11.8c-1.7,5.4-3.8,10.8-7.2,15.1c-0.8,0.9-1.6,1.6-2.6,2.3
	C132.6,41.5,133.1,42.7,133.5,43.9z"/>
<path class="st1" d="M110.7,28.9c-1-4.8-3.3-9.7-5.1-14.3c-1-2.8-2.2-5.5-3.6-8.1L100.9,7c0.5,0.8,1,1.5,1.4,2.4
	c2.4,4.7,3.4,10.6,4.7,15.7c0.8,3.5,1.1,7.2,1.8,10.8c0.1,0.5,0.2,1.1,0.2,1.7c1-0.1,1.9-0.3,2.9-0.6
	C111.6,34.2,111.2,31.5,110.7,28.9z"/>
<path class="st1" d="M122.6,0.4c0.3,0.5,0.6,1,0.9,1.6c2.8,6.9,3.2,14.8,2.8,22.2c-0.2,3.5-0.9,7-2,10.3c0.8,0.1,1.6,0.3,2.4,0.7
	c1.1-4.1,1.7-8.4,1.9-12.6c0.3-7.3,1.2-15.8-1.9-22.5C125.3,0.1,123.9,0.3,122.6,0.4z"/>
<path class="st1" d="M155.3,33c-2,3.2-4.4,6.1-7.1,8.6c-4.2,3.6-8.8,8.1-14.2,9.2c-0.2,1.3-0.6,2.6-1,3.8
	c5.4-0.4,11.9-6.9,15.7-10.1c2.5-2,4.8-4.3,7-6.6c0.2-2,0.3-4,0.3-6C155.7,32.3,155.5,32.6,155.3,33z"/>
<path class="st1" d="M148.7,60.9c0.5-1.2,1.1-2.4,1.6-3.6c-0.6,0.4-1.3,0.6-2.1,0.8c-1.9,0.4-3.8,0.8-5.7,1.1
	c-3.4,0.6-6.7,1.4-10.4,1c-0.5-0.1-1-0.1-1.6-0.3c-0.4,0.7-0.8,1.4-1.2,2c1.6,0.2,3.2,0.3,4.1,0.4C138.6,62.9,143.8,62.4,148.7,60.9
	z"/>
<path class="st1" d="M104.5,29c-3.5-9.3-9-18-18.5-18.5c-8.2-0.5-20.5,1.6-28.6,3.9c-6.1,1.8-15.9,6.4-20.8,10.9
	c-5.6,5.2-1.3,7.9,4,11.7c4.3,3.4,9.2,5.8,14.4,7.2c10.6,2.9,24.2,5.6,35.2,3.2C99.7,45.4,108.8,40.6,104.5,29z"/>
<path class="st3" d="M43.7,24.7c0-0.9-0.6-1.6-1.5-1.7c-0.1,0-0.3,0-0.4,0c-0.9,0-1.5,0.8-1.5,1.6c0,0.6,0.3,1.2,0.9,1.6
	c0.4,0.3,1,0.3,1.4,0C43.3,26,43.7,25.4,43.7,24.7z"/>
<path class="st4" d="M41.3,23.6c-0.4,0-0.4,0.8,0,0.8S41.7,23.6,41.3,23.6z"/>
</svg>
